G04*
G04 #@! TF.GenerationSoftware,Altium Limited,Altium Designer,19.0.15 (446)*
G04*
G04 Layer_Color=65535*
%FSLAX25Y25*%
%MOIN*%
G70*
G01*
G75*
%ADD10C,0.00500*%
%ADD11C,0.00787*%
%ADD12C,0.01000*%
%ADD13C,0.00600*%
%ADD14C,0.00984*%
G36*
X375194Y481898D02*
X377083Y479255D01*
X376269D01*
X374992Y481051D01*
X374986Y481057D01*
X374975Y481079D01*
X374954Y481106D01*
X374926Y481150D01*
X374893Y481193D01*
X374861Y481243D01*
X374784Y481357D01*
Y481352D01*
X374779Y481346D01*
X374757Y481314D01*
X374730Y481270D01*
X374691Y481215D01*
X374609Y481101D01*
X374577Y481046D01*
X374544Y481002D01*
X373266Y479255D01*
X372464D01*
X374413Y481865D01*
X372693Y484295D01*
X373485D01*
X374408Y483001D01*
X374413Y482995D01*
X374418Y482984D01*
X374435Y482963D01*
X374457Y482935D01*
X374479Y482902D01*
X374506Y482864D01*
X374566Y482777D01*
X374631Y482673D01*
X374697Y482575D01*
X374762Y482471D01*
X374812Y482384D01*
Y482389D01*
X374817Y482395D01*
X374828Y482411D01*
X374844Y482433D01*
X374877Y482482D01*
X374926Y482553D01*
X374986Y482640D01*
X375052Y482739D01*
X375134Y482842D01*
X375216Y482952D01*
X376220Y484295D01*
X376946D01*
X375194Y481898D01*
D02*
G37*
G36*
X365966Y480768D02*
X364061D01*
Y481390D01*
X365966D01*
Y480768D01*
D02*
G37*
G36*
X361369Y483639D02*
X359354D01*
X359087Y482285D01*
X359092Y482291D01*
X359109Y482302D01*
X359130Y482313D01*
X359163Y482335D01*
X359207Y482356D01*
X359256Y482384D01*
X359311Y482416D01*
X359376Y482444D01*
X359442Y482471D01*
X359518Y482504D01*
X359676Y482553D01*
X359764Y482575D01*
X359851Y482591D01*
X359944Y482597D01*
X360037Y482602D01*
X360064D01*
X360102Y482597D01*
X360146D01*
X360201Y482586D01*
X360266Y482580D01*
X360343Y482564D01*
X360419Y482548D01*
X360506Y482520D01*
X360594Y482493D01*
X360686Y482455D01*
X360779Y482411D01*
X360872Y482356D01*
X360965Y482296D01*
X361058Y482225D01*
X361145Y482143D01*
X361151Y482138D01*
X361167Y482122D01*
X361189Y482094D01*
X361216Y482062D01*
X361254Y482018D01*
X361293Y481958D01*
X361331Y481898D01*
X361374Y481827D01*
X361418Y481745D01*
X361456Y481652D01*
X361500Y481559D01*
X361533Y481450D01*
X361560Y481341D01*
X361582Y481221D01*
X361598Y481095D01*
X361604Y480964D01*
Y480959D01*
Y480931D01*
Y480899D01*
X361598Y480850D01*
X361593Y480789D01*
X361582Y480724D01*
X361571Y480647D01*
X361555Y480560D01*
X361533Y480473D01*
X361506Y480374D01*
X361473Y480276D01*
X361435Y480178D01*
X361391Y480080D01*
X361336Y479976D01*
X361276Y479878D01*
X361205Y479785D01*
X361200Y479779D01*
X361183Y479757D01*
X361156Y479730D01*
X361118Y479692D01*
X361069Y479643D01*
X361009Y479594D01*
X360938Y479534D01*
X360856Y479479D01*
X360768Y479424D01*
X360670Y479364D01*
X360561Y479315D01*
X360441Y479272D01*
X360315Y479228D01*
X360179Y479201D01*
X360037Y479179D01*
X359884Y479173D01*
X359818D01*
X359769Y479179D01*
X359709Y479184D01*
X359644Y479195D01*
X359567Y479206D01*
X359485Y479222D01*
X359398Y479239D01*
X359305Y479266D01*
X359212Y479299D01*
X359120Y479337D01*
X359027Y479381D01*
X358934Y479430D01*
X358846Y479490D01*
X358759Y479555D01*
X358754Y479561D01*
X358743Y479572D01*
X358721Y479594D01*
X358694Y479626D01*
X358655Y479665D01*
X358617Y479708D01*
X358579Y479763D01*
X358535Y479828D01*
X358492Y479894D01*
X358448Y479970D01*
X358410Y480058D01*
X358371Y480145D01*
X358333Y480243D01*
X358306Y480347D01*
X358284Y480462D01*
X358268Y480577D01*
X358917Y480626D01*
Y480620D01*
X358923Y480604D01*
X358928Y480582D01*
X358934Y480549D01*
X358939Y480511D01*
X358956Y480462D01*
X358983Y480358D01*
X359027Y480243D01*
X359087Y480123D01*
X359158Y480014D01*
X359201Y479965D01*
X359245Y479916D01*
X359250D01*
X359256Y479905D01*
X359272Y479894D01*
X359294Y479878D01*
X359349Y479839D01*
X359425Y479801D01*
X359518Y479757D01*
X359627Y479719D01*
X359747Y479692D01*
X359813Y479686D01*
X359884Y479681D01*
X359928D01*
X359960Y479686D01*
X359998Y479692D01*
X360042Y479697D01*
X360146Y479725D01*
X360266Y479763D01*
X360326Y479790D01*
X360392Y479823D01*
X360457Y479861D01*
X360517Y479905D01*
X360577Y479954D01*
X360637Y480014D01*
X360643Y480020D01*
X360648Y480030D01*
X360665Y480047D01*
X360686Y480074D01*
X360708Y480112D01*
X360736Y480151D01*
X360763Y480200D01*
X360796Y480254D01*
X360823Y480314D01*
X360850Y480380D01*
X360878Y480456D01*
X360899Y480533D01*
X360921Y480620D01*
X360938Y480713D01*
X360943Y480806D01*
X360949Y480909D01*
Y480915D01*
Y480931D01*
Y480959D01*
X360943Y480997D01*
X360938Y481041D01*
X360932Y481095D01*
X360921Y481150D01*
X360910Y481215D01*
X360878Y481346D01*
X360823Y481488D01*
X360790Y481554D01*
X360747Y481619D01*
X360703Y481685D01*
X360648Y481745D01*
X360643Y481750D01*
X360637Y481756D01*
X360615Y481772D01*
X360594Y481794D01*
X360566Y481816D01*
X360528Y481843D01*
X360490Y481871D01*
X360441Y481903D01*
X360386Y481930D01*
X360332Y481958D01*
X360195Y482007D01*
X360124Y482029D01*
X360042Y482045D01*
X359960Y482051D01*
X359873Y482056D01*
X359824D01*
X359764Y482051D01*
X359693Y482040D01*
X359605Y482023D01*
X359513Y481996D01*
X359420Y481963D01*
X359327Y481914D01*
X359316Y481909D01*
X359289Y481892D01*
X359245Y481860D01*
X359191Y481821D01*
X359136Y481767D01*
X359070Y481707D01*
X359010Y481636D01*
X358956Y481559D01*
X358377Y481641D01*
X358863Y484229D01*
X361369D01*
Y483639D01*
D02*
G37*
G36*
X372289Y483700D02*
X370629D01*
Y479255D01*
X369963D01*
Y483700D01*
X368303D01*
Y484295D01*
X372289D01*
Y483700D01*
D02*
G37*
G36*
X144751Y474160D02*
X144811Y474155D01*
X144871Y474150D01*
X144942Y474144D01*
X145095Y474122D01*
X145265Y474090D01*
X145434Y474040D01*
X145598Y473980D01*
X145603D01*
X145614Y473969D01*
X145641Y473964D01*
X145669Y473948D01*
X145701Y473926D01*
X145745Y473904D01*
X145838Y473849D01*
X145947Y473773D01*
X146056Y473680D01*
X146160Y473576D01*
X146253Y473451D01*
X146258Y473445D01*
X146264Y473434D01*
X146275Y473418D01*
X146291Y473391D01*
X146307Y473358D01*
X146329Y473320D01*
X146346Y473271D01*
X146373Y473221D01*
X146417Y473107D01*
X146455Y472970D01*
X146488Y472823D01*
X146504Y472659D01*
X145865Y472610D01*
Y472615D01*
X145860Y472632D01*
Y472654D01*
X145854Y472686D01*
X145843Y472730D01*
X145832Y472774D01*
X145800Y472878D01*
X145756Y472992D01*
X145690Y473112D01*
X145614Y473227D01*
X145565Y473276D01*
X145510Y473325D01*
X145505Y473331D01*
X145499Y473336D01*
X145477Y473347D01*
X145456Y473363D01*
X145423Y473380D01*
X145385Y473402D01*
X145341Y473423D01*
X145292Y473451D01*
X145232Y473473D01*
X145166Y473494D01*
X145095Y473516D01*
X145019Y473533D01*
X144931Y473549D01*
X144839Y473560D01*
X144740Y473571D01*
X144582D01*
X144538Y473565D01*
X144489D01*
X144435Y473560D01*
X144369Y473555D01*
X144304Y473544D01*
X144156Y473516D01*
X144014Y473478D01*
X143878Y473423D01*
X143812Y473385D01*
X143758Y473347D01*
X143752D01*
X143747Y473336D01*
X143714Y473309D01*
X143670Y473260D01*
X143621Y473194D01*
X143572Y473118D01*
X143528Y473025D01*
X143496Y472927D01*
X143490Y472872D01*
X143485Y472812D01*
Y472807D01*
Y472801D01*
X143490Y472768D01*
X143496Y472719D01*
X143506Y472659D01*
X143534Y472588D01*
X143567Y472512D01*
X143610Y472441D01*
X143676Y472370D01*
X143687Y472364D01*
X143698Y472353D01*
X143719Y472337D01*
X143747Y472321D01*
X143779Y472304D01*
X143823Y472282D01*
X143872Y472255D01*
X143932Y472228D01*
X144003Y472200D01*
X144085Y472173D01*
X144178Y472140D01*
X144287Y472108D01*
X144402Y472075D01*
X144533Y472037D01*
X144680Y472004D01*
X144691D01*
X144719Y471998D01*
X144757Y471987D01*
X144811Y471971D01*
X144877Y471960D01*
X144953Y471938D01*
X145035Y471922D01*
X145123Y471895D01*
X145308Y471845D01*
X145494Y471796D01*
X145581Y471769D01*
X145658Y471742D01*
X145734Y471714D01*
X145794Y471687D01*
X145800D01*
X145816Y471676D01*
X145838Y471665D01*
X145865Y471649D01*
X145903Y471633D01*
X145947Y471605D01*
X146040Y471545D01*
X146149Y471474D01*
X146253Y471387D01*
X146357Y471283D01*
X146400Y471229D01*
X146444Y471174D01*
Y471169D01*
X146455Y471158D01*
X146466Y471141D01*
X146477Y471119D01*
X146493Y471092D01*
X146509Y471054D01*
X146553Y470966D01*
X146591Y470863D01*
X146624Y470743D01*
X146646Y470606D01*
X146657Y470459D01*
Y470453D01*
Y470442D01*
Y470420D01*
X146651Y470393D01*
Y470355D01*
X146646Y470317D01*
X146630Y470213D01*
X146602Y470098D01*
X146559Y469973D01*
X146499Y469842D01*
X146466Y469771D01*
X146422Y469705D01*
Y469700D01*
X146411Y469689D01*
X146400Y469672D01*
X146378Y469645D01*
X146329Y469585D01*
X146253Y469503D01*
X146160Y469416D01*
X146045Y469323D01*
X145914Y469236D01*
X145761Y469154D01*
X145756D01*
X145740Y469143D01*
X145718Y469137D01*
X145685Y469121D01*
X145647Y469110D01*
X145598Y469094D01*
X145543Y469072D01*
X145477Y469056D01*
X145412Y469039D01*
X145335Y469017D01*
X145172Y468990D01*
X144992Y468968D01*
X144795Y468957D01*
X144729D01*
X144680Y468963D01*
X144620D01*
X144555Y468968D01*
X144478Y468973D01*
X144391Y468985D01*
X144211Y469006D01*
X144020Y469039D01*
X143829Y469088D01*
X143643Y469154D01*
X143638D01*
X143621Y469165D01*
X143599Y469176D01*
X143567Y469192D01*
X143528Y469214D01*
X143485Y469236D01*
X143381Y469301D01*
X143266Y469383D01*
X143146Y469487D01*
X143026Y469607D01*
X142922Y469749D01*
X142917Y469754D01*
X142911Y469765D01*
X142900Y469787D01*
X142884Y469820D01*
X142862Y469858D01*
X142840Y469902D01*
X142813Y469956D01*
X142791Y470016D01*
X142764Y470077D01*
X142742Y470148D01*
X142698Y470306D01*
X142666Y470475D01*
X142655Y470568D01*
X142649Y470661D01*
X143277Y470715D01*
Y470710D01*
Y470699D01*
X143283Y470677D01*
X143288Y470650D01*
X143293Y470617D01*
X143299Y470584D01*
X143321Y470491D01*
X143348Y470393D01*
X143381Y470289D01*
X143424Y470186D01*
X143479Y470087D01*
X143485Y470077D01*
X143512Y470049D01*
X143550Y470006D01*
X143605Y469951D01*
X143676Y469885D01*
X143763Y469825D01*
X143867Y469760D01*
X143987Y469700D01*
X143992D01*
X144003Y469694D01*
X144020Y469689D01*
X144047Y469678D01*
X144080Y469667D01*
X144118Y469651D01*
X144162Y469640D01*
X144211Y469629D01*
X144325Y469601D01*
X144462Y469574D01*
X144604Y469558D01*
X144762Y469552D01*
X144828D01*
X144860Y469558D01*
X144899D01*
X144986Y469569D01*
X145090Y469580D01*
X145204Y469596D01*
X145319Y469623D01*
X145428Y469662D01*
X145434D01*
X145439Y469667D01*
X145456Y469672D01*
X145477Y469683D01*
X145527Y469711D01*
X145592Y469743D01*
X145663Y469787D01*
X145740Y469842D01*
X145805Y469902D01*
X145865Y469973D01*
X145871Y469984D01*
X145887Y470006D01*
X145914Y470049D01*
X145942Y470104D01*
X145963Y470169D01*
X145991Y470240D01*
X146007Y470322D01*
X146013Y470404D01*
Y470409D01*
Y470415D01*
Y470442D01*
X146007Y470491D01*
X145996Y470546D01*
X145980Y470611D01*
X145952Y470682D01*
X145920Y470753D01*
X145871Y470819D01*
X145865Y470824D01*
X145843Y470846D01*
X145811Y470879D01*
X145761Y470923D01*
X145701Y470966D01*
X145619Y471016D01*
X145527Y471065D01*
X145417Y471114D01*
X145406Y471119D01*
X145396Y471125D01*
X145374Y471130D01*
X145352Y471136D01*
X145319Y471147D01*
X145275Y471163D01*
X145232Y471174D01*
X145172Y471190D01*
X145112Y471212D01*
X145035Y471229D01*
X144953Y471250D01*
X144860Y471278D01*
X144762Y471300D01*
X144648Y471332D01*
X144522Y471360D01*
X144517D01*
X144495Y471365D01*
X144457Y471376D01*
X144413Y471387D01*
X144353Y471403D01*
X144287Y471420D01*
X144222Y471442D01*
X144145Y471463D01*
X143982Y471512D01*
X143823Y471567D01*
X143747Y471594D01*
X143676Y471622D01*
X143610Y471649D01*
X143556Y471676D01*
X143550D01*
X143539Y471687D01*
X143523Y471698D01*
X143496Y471709D01*
X143430Y471747D01*
X143354Y471802D01*
X143261Y471873D01*
X143173Y471949D01*
X143086Y472042D01*
X143015Y472140D01*
Y472146D01*
X143010Y472151D01*
X142999Y472168D01*
X142988Y472190D01*
X142960Y472250D01*
X142928Y472326D01*
X142895Y472419D01*
X142868Y472528D01*
X142846Y472648D01*
X142840Y472774D01*
Y472779D01*
Y472790D01*
Y472812D01*
X142846Y472839D01*
Y472872D01*
X142851Y472910D01*
X142868Y473008D01*
X142895Y473118D01*
X142928Y473232D01*
X142982Y473358D01*
X143053Y473484D01*
Y473489D01*
X143064Y473500D01*
X143075Y473516D01*
X143091Y473538D01*
X143146Y473598D01*
X143217Y473675D01*
X143304Y473757D01*
X143414Y473838D01*
X143539Y473920D01*
X143687Y473991D01*
X143692D01*
X143703Y473997D01*
X143730Y474008D01*
X143758Y474019D01*
X143796Y474029D01*
X143845Y474046D01*
X143900Y474062D01*
X143960Y474079D01*
X144025Y474095D01*
X144096Y474111D01*
X144249Y474139D01*
X144424Y474160D01*
X144609Y474166D01*
X144702D01*
X144751Y474160D01*
D02*
G37*
G36*
X155797Y470551D02*
X153891D01*
Y471174D01*
X155797D01*
Y470551D01*
D02*
G37*
G36*
X162485Y471169D02*
Y471158D01*
Y471136D01*
Y471098D01*
Y471043D01*
X162480Y470977D01*
X162475Y470906D01*
X162469Y470824D01*
X162464Y470732D01*
X162442Y470541D01*
X162414Y470339D01*
X162371Y470142D01*
X162343Y470049D01*
X162311Y469962D01*
Y469956D01*
X162305Y469940D01*
X162294Y469918D01*
X162278Y469885D01*
X162256Y469847D01*
X162234Y469803D01*
X162169Y469705D01*
X162130Y469645D01*
X162087Y469591D01*
X162032Y469525D01*
X161978Y469465D01*
X161912Y469405D01*
X161847Y469345D01*
X161770Y469290D01*
X161688Y469236D01*
X161683Y469230D01*
X161666Y469225D01*
X161645Y469208D01*
X161606Y469192D01*
X161563Y469170D01*
X161508Y469148D01*
X161448Y469121D01*
X161372Y469099D01*
X161295Y469072D01*
X161208Y469044D01*
X161109Y469023D01*
X161006Y469001D01*
X160891Y468985D01*
X160771Y468968D01*
X160645Y468963D01*
X160514Y468957D01*
X160443D01*
X160394Y468963D01*
X160334D01*
X160269Y468968D01*
X160187Y468979D01*
X160105Y468990D01*
X159919Y469017D01*
X159723Y469061D01*
X159531Y469121D01*
X159439Y469154D01*
X159351Y469197D01*
X159346Y469203D01*
X159329Y469208D01*
X159308Y469225D01*
X159280Y469241D01*
X159242Y469268D01*
X159198Y469301D01*
X159155Y469334D01*
X159106Y469378D01*
X158996Y469476D01*
X158893Y469596D01*
X158794Y469738D01*
X158751Y469820D01*
X158712Y469902D01*
Y469907D01*
X158707Y469924D01*
X158696Y469951D01*
X158685Y469989D01*
X158669Y470033D01*
X158652Y470093D01*
X158636Y470158D01*
X158620Y470235D01*
X158598Y470322D01*
X158581Y470415D01*
X158565Y470519D01*
X158554Y470633D01*
X158538Y470753D01*
X158532Y470885D01*
X158521Y471021D01*
Y471169D01*
Y474079D01*
X159188D01*
Y471169D01*
Y471163D01*
Y471141D01*
Y471108D01*
Y471059D01*
X159193Y471005D01*
Y470945D01*
X159198Y470874D01*
X159204Y470803D01*
X159215Y470644D01*
X159237Y470486D01*
X159269Y470333D01*
X159286Y470262D01*
X159308Y470202D01*
Y470197D01*
X159313Y470191D01*
X159319Y470175D01*
X159329Y470153D01*
X159362Y470093D01*
X159406Y470027D01*
X159461Y469945D01*
X159531Y469869D01*
X159619Y469793D01*
X159723Y469722D01*
X159728D01*
X159739Y469716D01*
X159755Y469705D01*
X159777Y469694D01*
X159804Y469683D01*
X159843Y469672D01*
X159881Y469656D01*
X159925Y469640D01*
X160034Y469612D01*
X160159Y469585D01*
X160301Y469563D01*
X160454Y469558D01*
X160525D01*
X160574Y469563D01*
X160635Y469569D01*
X160705Y469574D01*
X160782Y469585D01*
X160864Y469601D01*
X161033Y469640D01*
X161120Y469667D01*
X161208Y469700D01*
X161290Y469738D01*
X161366Y469782D01*
X161437Y469831D01*
X161503Y469891D01*
X161508Y469896D01*
X161519Y469907D01*
X161530Y469929D01*
X161552Y469956D01*
X161574Y469995D01*
X161601Y470044D01*
X161634Y470104D01*
X161661Y470175D01*
X161688Y470257D01*
X161721Y470350D01*
X161748Y470453D01*
X161770Y470568D01*
X161792Y470699D01*
X161808Y470841D01*
X161814Y470999D01*
X161819Y471169D01*
Y474079D01*
X162485D01*
Y471169D01*
D02*
G37*
G36*
X141759D02*
Y471158D01*
Y471136D01*
Y471098D01*
Y471043D01*
X141754Y470977D01*
X141748Y470906D01*
X141743Y470824D01*
X141737Y470732D01*
X141716Y470541D01*
X141688Y470339D01*
X141645Y470142D01*
X141617Y470049D01*
X141585Y469962D01*
Y469956D01*
X141579Y469940D01*
X141568Y469918D01*
X141552Y469885D01*
X141530Y469847D01*
X141508Y469803D01*
X141443Y469705D01*
X141404Y469645D01*
X141361Y469591D01*
X141306Y469525D01*
X141252Y469465D01*
X141186Y469405D01*
X141120Y469345D01*
X141044Y469290D01*
X140962Y469236D01*
X140957Y469230D01*
X140940Y469225D01*
X140918Y469208D01*
X140880Y469192D01*
X140837Y469170D01*
X140782Y469148D01*
X140722Y469121D01*
X140645Y469099D01*
X140569Y469072D01*
X140482Y469044D01*
X140383Y469023D01*
X140280Y469001D01*
X140165Y468985D01*
X140045Y468968D01*
X139919Y468963D01*
X139788Y468957D01*
X139717D01*
X139668Y468963D01*
X139608D01*
X139542Y468968D01*
X139461Y468979D01*
X139379Y468990D01*
X139193Y469017D01*
X138997Y469061D01*
X138805Y469121D01*
X138713Y469154D01*
X138625Y469197D01*
X138620Y469203D01*
X138603Y469208D01*
X138582Y469225D01*
X138554Y469241D01*
X138516Y469268D01*
X138472Y469301D01*
X138429Y469334D01*
X138380Y469378D01*
X138270Y469476D01*
X138167Y469596D01*
X138068Y469738D01*
X138025Y469820D01*
X137986Y469902D01*
Y469907D01*
X137981Y469924D01*
X137970Y469951D01*
X137959Y469989D01*
X137943Y470033D01*
X137926Y470093D01*
X137910Y470158D01*
X137894Y470235D01*
X137872Y470322D01*
X137855Y470415D01*
X137839Y470519D01*
X137828Y470633D01*
X137812Y470753D01*
X137806Y470885D01*
X137795Y471021D01*
Y471169D01*
Y474079D01*
X138461D01*
Y471169D01*
Y471163D01*
Y471141D01*
Y471108D01*
Y471059D01*
X138467Y471005D01*
Y470945D01*
X138472Y470874D01*
X138478Y470803D01*
X138489Y470644D01*
X138511Y470486D01*
X138543Y470333D01*
X138560Y470262D01*
X138582Y470202D01*
Y470197D01*
X138587Y470191D01*
X138592Y470175D01*
X138603Y470153D01*
X138636Y470093D01*
X138680Y470027D01*
X138734Y469945D01*
X138805Y469869D01*
X138893Y469793D01*
X138997Y469722D01*
X139002D01*
X139013Y469716D01*
X139029Y469705D01*
X139051Y469694D01*
X139078Y469683D01*
X139117Y469672D01*
X139155Y469656D01*
X139199Y469640D01*
X139308Y469612D01*
X139433Y469585D01*
X139575Y469563D01*
X139728Y469558D01*
X139799D01*
X139848Y469563D01*
X139908Y469569D01*
X139979Y469574D01*
X140056Y469585D01*
X140138Y469601D01*
X140307Y469640D01*
X140394Y469667D01*
X140482Y469700D01*
X140563Y469738D01*
X140640Y469782D01*
X140711Y469831D01*
X140776Y469891D01*
X140782Y469896D01*
X140793Y469907D01*
X140804Y469929D01*
X140826Y469956D01*
X140847Y469995D01*
X140875Y470044D01*
X140908Y470104D01*
X140935Y470175D01*
X140962Y470257D01*
X140995Y470350D01*
X141022Y470453D01*
X141044Y470568D01*
X141066Y470699D01*
X141082Y470841D01*
X141088Y470999D01*
X141093Y471169D01*
Y474079D01*
X141759D01*
Y471169D01*
D02*
G37*
G36*
X176982Y473484D02*
X175322D01*
Y469039D01*
X174656D01*
Y473484D01*
X172996D01*
Y474079D01*
X176982D01*
Y473484D01*
D02*
G37*
G36*
X170703Y474073D02*
X170763D01*
X170834Y474068D01*
X170916Y474062D01*
X171079Y474046D01*
X171249Y474019D01*
X171413Y473986D01*
X171484Y473964D01*
X171555Y473942D01*
X171560D01*
X171571Y473937D01*
X171587Y473926D01*
X171615Y473915D01*
X171680Y473882D01*
X171756Y473833D01*
X171849Y473767D01*
X171942Y473680D01*
X172035Y473582D01*
X172117Y473462D01*
Y473456D01*
X172128Y473445D01*
X172139Y473429D01*
X172150Y473402D01*
X172166Y473369D01*
X172182Y473331D01*
X172204Y473287D01*
X172226Y473238D01*
X172264Y473123D01*
X172297Y472998D01*
X172319Y472856D01*
X172330Y472703D01*
Y472697D01*
Y472681D01*
Y472648D01*
X172324Y472615D01*
X172319Y472566D01*
X172313Y472512D01*
X172302Y472452D01*
X172286Y472386D01*
X172242Y472244D01*
X172215Y472168D01*
X172182Y472091D01*
X172144Y472015D01*
X172095Y471938D01*
X172040Y471867D01*
X171980Y471796D01*
X171975Y471791D01*
X171964Y471780D01*
X171942Y471764D01*
X171915Y471736D01*
X171877Y471709D01*
X171833Y471676D01*
X171778Y471638D01*
X171713Y471600D01*
X171642Y471562D01*
X171565Y471523D01*
X171478Y471485D01*
X171380Y471447D01*
X171276Y471414D01*
X171161Y471381D01*
X171036Y471354D01*
X170905Y471332D01*
X170910D01*
X170916Y471327D01*
X170948Y471310D01*
X170998Y471283D01*
X171058Y471250D01*
X171123Y471212D01*
X171189Y471174D01*
X171254Y471125D01*
X171309Y471081D01*
X171314Y471076D01*
X171320Y471070D01*
X171336Y471054D01*
X171358Y471032D01*
X171385Y471005D01*
X171418Y470972D01*
X171489Y470895D01*
X171571Y470797D01*
X171664Y470682D01*
X171762Y470551D01*
X171860Y470409D01*
X172734Y469039D01*
X171898D01*
X171232Y470087D01*
X171227Y470093D01*
X171221Y470109D01*
X171205Y470131D01*
X171183Y470164D01*
X171161Y470202D01*
X171129Y470246D01*
X171063Y470344D01*
X170987Y470459D01*
X170910Y470573D01*
X170828Y470682D01*
X170752Y470781D01*
Y470786D01*
X170741Y470792D01*
X170719Y470819D01*
X170686Y470863D01*
X170637Y470912D01*
X170588Y470966D01*
X170528Y471021D01*
X170468Y471076D01*
X170413Y471114D01*
X170408Y471119D01*
X170386Y471130D01*
X170359Y471147D01*
X170320Y471169D01*
X170271Y471190D01*
X170222Y471212D01*
X170168Y471234D01*
X170108Y471250D01*
X170102D01*
X170086Y471256D01*
X170058Y471261D01*
X170020Y471267D01*
X169966D01*
X169900Y471272D01*
X169824Y471278D01*
X168966D01*
Y469039D01*
X168300D01*
Y474079D01*
X170643D01*
X170703Y474073D01*
D02*
G37*
G36*
X167760Y469039D02*
X167001D01*
X166417Y470562D01*
X164298Y470562D01*
X163752Y469039D01*
X163048D01*
X164975Y474079D01*
X165696D01*
X167760Y469039D01*
D02*
G37*
G36*
X149567Y474073D02*
X149627D01*
X149687Y474068D01*
X149758Y474057D01*
X149900Y474040D01*
X150058Y474013D01*
X150206Y473975D01*
X150348Y473920D01*
X150353D01*
X150364Y473915D01*
X150381Y473904D01*
X150408Y473893D01*
X150468Y473855D01*
X150550Y473806D01*
X150637Y473740D01*
X150725Y473658D01*
X150812Y473560D01*
X150894Y473451D01*
Y473445D01*
X150905Y473434D01*
X150910Y473418D01*
X150927Y473396D01*
X150943Y473369D01*
X150959Y473331D01*
X150998Y473249D01*
X151030Y473150D01*
X151063Y473036D01*
X151085Y472916D01*
X151096Y472785D01*
Y472779D01*
Y472768D01*
Y472752D01*
Y472730D01*
X151085Y472670D01*
X151074Y472588D01*
X151052Y472495D01*
X151019Y472392D01*
X150976Y472288D01*
X150916Y472179D01*
Y472173D01*
X150910Y472168D01*
X150899Y472151D01*
X150883Y472129D01*
X150845Y472080D01*
X150785Y472015D01*
X150714Y471944D01*
X150621Y471867D01*
X150517Y471791D01*
X150391Y471720D01*
X150397D01*
X150413Y471714D01*
X150435Y471703D01*
X150468Y471693D01*
X150506Y471676D01*
X150550Y471660D01*
X150648Y471611D01*
X150763Y471551D01*
X150877Y471469D01*
X150992Y471376D01*
X151090Y471261D01*
X151096Y471256D01*
X151101Y471245D01*
X151112Y471229D01*
X151129Y471207D01*
X151150Y471174D01*
X151172Y471136D01*
X151194Y471092D01*
X151216Y471043D01*
X151260Y470934D01*
X151303Y470803D01*
X151331Y470655D01*
X151341Y470579D01*
Y470497D01*
Y470491D01*
Y470480D01*
Y470464D01*
Y470437D01*
X151336Y470404D01*
Y470371D01*
X151325Y470284D01*
X151303Y470180D01*
X151276Y470071D01*
X151238Y469951D01*
X151189Y469836D01*
Y469831D01*
X151183Y469825D01*
X151172Y469809D01*
X151161Y469787D01*
X151129Y469733D01*
X151085Y469667D01*
X151036Y469591D01*
X150970Y469514D01*
X150899Y469438D01*
X150817Y469367D01*
X150806Y469361D01*
X150779Y469339D01*
X150730Y469312D01*
X150664Y469274D01*
X150588Y469236D01*
X150495Y469192D01*
X150386Y469154D01*
X150266Y469121D01*
X150260D01*
X150250Y469115D01*
X150233D01*
X150206Y469110D01*
X150173Y469105D01*
X150135Y469094D01*
X150091Y469088D01*
X150042Y469083D01*
X149987Y469072D01*
X149922Y469066D01*
X149785Y469050D01*
X149627Y469044D01*
X149452Y469039D01*
X147536D01*
Y474079D01*
X149518D01*
X149567Y474073D01*
D02*
G37*
G36*
X140296Y467944D02*
X140361Y467938D01*
X140438Y467927D01*
X140520Y467916D01*
X140613Y467900D01*
X140711Y467878D01*
X140815Y467856D01*
X140918Y467824D01*
X141028Y467786D01*
X141137Y467742D01*
X141241Y467687D01*
X141344Y467633D01*
X141443Y467562D01*
X141448Y467556D01*
X141464Y467545D01*
X141492Y467523D01*
X141525Y467491D01*
X141568Y467452D01*
X141617Y467403D01*
X141666Y467349D01*
X141727Y467283D01*
X141787Y467212D01*
X141847Y467130D01*
X141907Y467043D01*
X141961Y466945D01*
X142021Y466841D01*
X142070Y466726D01*
X142120Y466606D01*
X142163Y466480D01*
X141508Y466328D01*
Y466333D01*
X141497Y466350D01*
X141492Y466382D01*
X141475Y466420D01*
X141459Y466464D01*
X141432Y466513D01*
X141377Y466633D01*
X141306Y466764D01*
X141213Y466901D01*
X141115Y467027D01*
X141055Y467081D01*
X140995Y467130D01*
X140989Y467136D01*
X140979Y467141D01*
X140962Y467152D01*
X140935Y467169D01*
X140902Y467190D01*
X140864Y467212D01*
X140820Y467234D01*
X140766Y467256D01*
X140706Y467278D01*
X140645Y467300D01*
X140503Y467343D01*
X140340Y467371D01*
X140252Y467381D01*
X140105D01*
X140061Y467376D01*
X140012Y467371D01*
X139952Y467365D01*
X139886Y467360D01*
X139821Y467349D01*
X139663Y467310D01*
X139499Y467261D01*
X139417Y467229D01*
X139335Y467190D01*
X139259Y467147D01*
X139182Y467098D01*
X139177Y467092D01*
X139166Y467087D01*
X139144Y467070D01*
X139117Y467048D01*
X139089Y467021D01*
X139051Y466983D01*
X139013Y466945D01*
X138969Y466901D01*
X138926Y466846D01*
X138876Y466792D01*
X138789Y466666D01*
X138707Y466519D01*
X138636Y466350D01*
Y466344D01*
X138631Y466328D01*
X138620Y466300D01*
X138614Y466268D01*
X138603Y466224D01*
X138587Y466175D01*
X138576Y466115D01*
X138560Y466055D01*
X138543Y465984D01*
X138532Y465907D01*
X138505Y465743D01*
X138489Y465569D01*
X138483Y465383D01*
Y465378D01*
Y465356D01*
Y465323D01*
X138489Y465274D01*
Y465219D01*
X138494Y465154D01*
X138500Y465083D01*
X138505Y465001D01*
X138516Y464914D01*
X138527Y464826D01*
X138560Y464635D01*
X138609Y464444D01*
X138669Y464258D01*
Y464253D01*
X138680Y464236D01*
X138691Y464215D01*
X138702Y464182D01*
X138724Y464138D01*
X138751Y464094D01*
X138811Y463991D01*
X138893Y463871D01*
X138991Y463756D01*
X139111Y463641D01*
X139177Y463592D01*
X139248Y463543D01*
X139253D01*
X139264Y463532D01*
X139286Y463521D01*
X139319Y463505D01*
X139357Y463488D01*
X139400Y463467D01*
X139450Y463450D01*
X139504Y463428D01*
X139630Y463385D01*
X139777Y463346D01*
X139936Y463319D01*
X140017Y463314D01*
X140105Y463308D01*
X140159D01*
X140198Y463314D01*
X140247Y463319D01*
X140301Y463325D01*
X140367Y463336D01*
X140433Y463346D01*
X140585Y463385D01*
X140662Y463412D01*
X140744Y463445D01*
X140826Y463483D01*
X140902Y463527D01*
X140979Y463576D01*
X141055Y463630D01*
X141060Y463636D01*
X141071Y463647D01*
X141093Y463663D01*
X141120Y463690D01*
X141148Y463723D01*
X141186Y463767D01*
X141224Y463816D01*
X141268Y463871D01*
X141312Y463936D01*
X141355Y464007D01*
X141399Y464084D01*
X141443Y464171D01*
X141481Y464264D01*
X141519Y464367D01*
X141557Y464477D01*
X141585Y464591D01*
X142251Y464422D01*
Y464411D01*
X142240Y464384D01*
X142229Y464346D01*
X142207Y464286D01*
X142185Y464220D01*
X142152Y464138D01*
X142120Y464051D01*
X142076Y463958D01*
X142027Y463854D01*
X141972Y463756D01*
X141912Y463647D01*
X141841Y463543D01*
X141765Y463445D01*
X141683Y463346D01*
X141590Y463254D01*
X141492Y463166D01*
X141486Y463161D01*
X141464Y463150D01*
X141437Y463128D01*
X141393Y463101D01*
X141344Y463068D01*
X141279Y463030D01*
X141208Y462992D01*
X141120Y462953D01*
X141028Y462915D01*
X140929Y462877D01*
X140820Y462839D01*
X140700Y462806D01*
X140574Y462779D01*
X140443Y462757D01*
X140307Y462746D01*
X140159Y462740D01*
X140083D01*
X140023Y462746D01*
X139957Y462751D01*
X139875Y462757D01*
X139788Y462768D01*
X139690Y462784D01*
X139586Y462801D01*
X139477Y462822D01*
X139368Y462850D01*
X139259Y462877D01*
X139144Y462915D01*
X139035Y462959D01*
X138931Y463008D01*
X138833Y463068D01*
X138827Y463073D01*
X138811Y463084D01*
X138784Y463101D01*
X138751Y463128D01*
X138707Y463166D01*
X138658Y463204D01*
X138603Y463254D01*
X138543Y463314D01*
X138483Y463379D01*
X138418Y463450D01*
X138358Y463527D01*
X138292Y463614D01*
X138227Y463707D01*
X138167Y463805D01*
X138112Y463914D01*
X138057Y464029D01*
X138052Y464034D01*
X138046Y464056D01*
X138036Y464094D01*
X138019Y464138D01*
X137997Y464198D01*
X137976Y464264D01*
X137954Y464346D01*
X137926Y464433D01*
X137905Y464531D01*
X137877Y464635D01*
X137855Y464744D01*
X137839Y464864D01*
X137806Y465115D01*
X137801Y465247D01*
X137795Y465378D01*
Y465388D01*
Y465410D01*
Y465454D01*
X137801Y465509D01*
X137806Y465580D01*
X137812Y465661D01*
X137823Y465749D01*
X137833Y465847D01*
X137850Y465951D01*
X137866Y466060D01*
X137921Y466295D01*
X137959Y466409D01*
X137997Y466524D01*
X138041Y466644D01*
X138096Y466753D01*
X138101Y466759D01*
X138112Y466781D01*
X138128Y466808D01*
X138150Y466852D01*
X138183Y466901D01*
X138221Y466956D01*
X138265Y467016D01*
X138314Y467087D01*
X138374Y467152D01*
X138434Y467229D01*
X138505Y467300D01*
X138582Y467376D01*
X138663Y467447D01*
X138751Y467518D01*
X138849Y467583D01*
X138947Y467643D01*
X138953Y467649D01*
X138975Y467654D01*
X139002Y467671D01*
X139046Y467693D01*
X139095Y467715D01*
X139160Y467742D01*
X139231Y467769D01*
X139308Y467796D01*
X139395Y467824D01*
X139493Y467851D01*
X139592Y467878D01*
X139701Y467900D01*
X139925Y467938D01*
X140045Y467944D01*
X140170Y467949D01*
X140241D01*
X140296Y467944D01*
D02*
G37*
G36*
X152510Y462822D02*
X151822D01*
X149179Y466775D01*
Y462822D01*
X148541D01*
Y467862D01*
X149223D01*
X151871Y463903D01*
Y467862D01*
X152510D01*
Y462822D01*
D02*
G37*
G36*
X155759D02*
X155071D01*
X153116Y467862D01*
X153842D01*
X155153Y464198D01*
Y464193D01*
X155158Y464176D01*
X155169Y464155D01*
X155180Y464122D01*
X155191Y464084D01*
X155207Y464040D01*
X155224Y463991D01*
X155245Y463931D01*
X155284Y463805D01*
X155327Y463669D01*
X155371Y463521D01*
X155415Y463374D01*
Y463379D01*
X155420Y463390D01*
X155426Y463417D01*
X155437Y463445D01*
X155447Y463483D01*
X155458Y463527D01*
X155475Y463576D01*
X155491Y463630D01*
X155529Y463756D01*
X155578Y463898D01*
X155633Y464045D01*
X155688Y464198D01*
X157047Y467862D01*
X157724D01*
X155759Y462822D01*
D02*
G37*
G36*
X179510Y467856D02*
X179570D01*
X179641Y467851D01*
X179723Y467845D01*
X179886Y467829D01*
X180056Y467802D01*
X180219Y467769D01*
X180290Y467747D01*
X180361Y467725D01*
X180367D01*
X180378Y467720D01*
X180394Y467709D01*
X180421Y467698D01*
X180487Y467665D01*
X180563Y467616D01*
X180656Y467551D01*
X180749Y467463D01*
X180842Y467365D01*
X180924Y467245D01*
Y467240D01*
X180935Y467229D01*
X180946Y467212D01*
X180957Y467185D01*
X180973Y467152D01*
X180989Y467114D01*
X181011Y467070D01*
X181033Y467021D01*
X181071Y466906D01*
X181104Y466781D01*
X181126Y466639D01*
X181137Y466486D01*
Y466480D01*
Y466464D01*
Y466431D01*
X181131Y466399D01*
X181126Y466350D01*
X181120Y466295D01*
X181109Y466235D01*
X181093Y466169D01*
X181049Y466027D01*
X181022Y465951D01*
X180989Y465874D01*
X180951Y465798D01*
X180902Y465722D01*
X180847Y465651D01*
X180787Y465580D01*
X180782Y465574D01*
X180771Y465563D01*
X180749Y465547D01*
X180722Y465520D01*
X180684Y465492D01*
X180640Y465459D01*
X180585Y465421D01*
X180520Y465383D01*
X180449Y465345D01*
X180372Y465307D01*
X180285Y465268D01*
X180187Y465230D01*
X180083Y465197D01*
X179968Y465165D01*
X179843Y465137D01*
X179712Y465115D01*
X179717D01*
X179723Y465110D01*
X179755Y465094D01*
X179805Y465066D01*
X179865Y465034D01*
X179930Y464995D01*
X179996Y464957D01*
X180061Y464908D01*
X180116Y464864D01*
X180121Y464859D01*
X180127Y464853D01*
X180143Y464837D01*
X180165Y464815D01*
X180192Y464788D01*
X180225Y464755D01*
X180296Y464679D01*
X180378Y464580D01*
X180471Y464466D01*
X180569Y464335D01*
X180667Y464193D01*
X181541Y462822D01*
X180705D01*
X180039Y463871D01*
X180034Y463876D01*
X180028Y463893D01*
X180012Y463914D01*
X179990Y463947D01*
X179968Y463985D01*
X179936Y464029D01*
X179870Y464127D01*
X179794Y464242D01*
X179717Y464357D01*
X179635Y464466D01*
X179559Y464564D01*
Y464570D01*
X179548Y464575D01*
X179526Y464602D01*
X179493Y464646D01*
X179444Y464695D01*
X179395Y464750D01*
X179335Y464804D01*
X179275Y464859D01*
X179220Y464897D01*
X179215Y464903D01*
X179193Y464914D01*
X179166Y464930D01*
X179128Y464952D01*
X179078Y464974D01*
X179029Y464995D01*
X178975Y465017D01*
X178914Y465034D01*
X178909D01*
X178893Y465039D01*
X178865Y465044D01*
X178827Y465050D01*
X178773D01*
X178707Y465056D01*
X178631Y465061D01*
X177773D01*
Y462822D01*
X177107D01*
Y467862D01*
X179450D01*
X179510Y467856D01*
D02*
G37*
G36*
X176064Y467267D02*
X173083D01*
Y465727D01*
X175873D01*
Y465132D01*
X173083D01*
Y463417D01*
X176179D01*
Y462822D01*
X172417D01*
Y467862D01*
X176064D01*
Y467267D01*
D02*
G37*
G36*
X171713D02*
X170053D01*
Y462822D01*
X169387D01*
Y467267D01*
X167727D01*
Y467862D01*
X171713D01*
Y467267D01*
D02*
G37*
G36*
X165434Y467856D02*
X165494D01*
X165565Y467851D01*
X165647Y467845D01*
X165811Y467829D01*
X165980Y467802D01*
X166144Y467769D01*
X166215Y467747D01*
X166286Y467725D01*
X166291D01*
X166302Y467720D01*
X166318Y467709D01*
X166346Y467698D01*
X166411Y467665D01*
X166488Y467616D01*
X166580Y467551D01*
X166673Y467463D01*
X166766Y467365D01*
X166848Y467245D01*
Y467240D01*
X166859Y467229D01*
X166870Y467212D01*
X166881Y467185D01*
X166897Y467152D01*
X166913Y467114D01*
X166935Y467070D01*
X166957Y467021D01*
X166995Y466906D01*
X167028Y466781D01*
X167050Y466639D01*
X167061Y466486D01*
Y466480D01*
Y466464D01*
Y466431D01*
X167055Y466399D01*
X167050Y466350D01*
X167044Y466295D01*
X167034Y466235D01*
X167017Y466169D01*
X166973Y466027D01*
X166946Y465951D01*
X166913Y465874D01*
X166875Y465798D01*
X166826Y465722D01*
X166771Y465651D01*
X166711Y465580D01*
X166706Y465574D01*
X166695Y465563D01*
X166673Y465547D01*
X166646Y465520D01*
X166608Y465492D01*
X166564Y465459D01*
X166509Y465421D01*
X166444Y465383D01*
X166373Y465345D01*
X166297Y465307D01*
X166209Y465268D01*
X166111Y465230D01*
X166007Y465197D01*
X165892Y465165D01*
X165767Y465137D01*
X165636Y465115D01*
X165641D01*
X165647Y465110D01*
X165680Y465094D01*
X165729Y465066D01*
X165789Y465034D01*
X165854Y464995D01*
X165920Y464957D01*
X165985Y464908D01*
X166040Y464864D01*
X166045Y464859D01*
X166051Y464853D01*
X166067Y464837D01*
X166089Y464815D01*
X166116Y464788D01*
X166149Y464755D01*
X166220Y464679D01*
X166302Y464580D01*
X166395Y464466D01*
X166493Y464335D01*
X166591Y464193D01*
X167465Y462822D01*
X166630D01*
X165963Y463871D01*
X165958Y463876D01*
X165953Y463893D01*
X165936Y463914D01*
X165914Y463947D01*
X165892Y463985D01*
X165860Y464029D01*
X165794Y464127D01*
X165718Y464242D01*
X165641Y464357D01*
X165559Y464466D01*
X165483Y464564D01*
Y464570D01*
X165472Y464575D01*
X165450Y464602D01*
X165417Y464646D01*
X165368Y464695D01*
X165319Y464750D01*
X165259Y464804D01*
X165199Y464859D01*
X165144Y464897D01*
X165139Y464903D01*
X165117Y464914D01*
X165090Y464930D01*
X165052Y464952D01*
X165003Y464973D01*
X164953Y464995D01*
X164899Y465017D01*
X164839Y465034D01*
X164833D01*
X164817Y465039D01*
X164789Y465044D01*
X164751Y465050D01*
X164697D01*
X164631Y465056D01*
X164555Y465061D01*
X163698D01*
Y462822D01*
X163031D01*
Y467862D01*
X165374D01*
X165434Y467856D01*
D02*
G37*
G36*
X161988Y467267D02*
X159007D01*
Y465727D01*
X161797D01*
Y465132D01*
X159007D01*
Y463417D01*
X162103D01*
Y462822D01*
X158341D01*
Y467862D01*
X161988D01*
Y467267D01*
D02*
G37*
G36*
X145396Y467944D02*
X145461Y467938D01*
X145532Y467933D01*
X145608Y467922D01*
X145696Y467906D01*
X145794Y467889D01*
X145893Y467867D01*
X145996Y467840D01*
X146105Y467807D01*
X146215Y467769D01*
X146324Y467725D01*
X146428Y467676D01*
X146537Y467616D01*
X146542Y467611D01*
X146564Y467600D01*
X146591Y467583D01*
X146630Y467556D01*
X146679Y467523D01*
X146728Y467480D01*
X146788Y467431D01*
X146853Y467376D01*
X146924Y467310D01*
X146995Y467240D01*
X147066Y467163D01*
X147137Y467081D01*
X147203Y466994D01*
X147274Y466895D01*
X147334Y466792D01*
X147394Y466682D01*
X147399Y466677D01*
X147405Y466655D01*
X147421Y466622D01*
X147438Y466579D01*
X147465Y466524D01*
X147487Y466453D01*
X147514Y466377D01*
X147541Y466289D01*
X147569Y466197D01*
X147596Y466093D01*
X147623Y465978D01*
X147645Y465864D01*
X147661Y465738D01*
X147678Y465607D01*
X147683Y465476D01*
X147689Y465334D01*
Y465323D01*
Y465301D01*
Y465258D01*
X147683Y465203D01*
X147678Y465137D01*
X147672Y465061D01*
X147661Y464973D01*
X147651Y464875D01*
X147634Y464772D01*
X147612Y464662D01*
X147590Y464548D01*
X147558Y464433D01*
X147520Y464313D01*
X147481Y464198D01*
X147432Y464078D01*
X147378Y463964D01*
X147372Y463958D01*
X147361Y463936D01*
X147345Y463903D01*
X147323Y463865D01*
X147290Y463816D01*
X147252Y463756D01*
X147203Y463690D01*
X147154Y463620D01*
X147094Y463549D01*
X147028Y463472D01*
X146952Y463396D01*
X146875Y463319D01*
X146793Y463248D01*
X146701Y463177D01*
X146602Y463106D01*
X146499Y463046D01*
X146493Y463041D01*
X146471Y463035D01*
X146444Y463019D01*
X146400Y462997D01*
X146346Y462975D01*
X146286Y462948D01*
X146215Y462921D01*
X146133Y462893D01*
X146045Y462866D01*
X145952Y462839D01*
X145849Y462811D01*
X145745Y462789D01*
X145516Y462751D01*
X145396Y462746D01*
X145275Y462740D01*
X145204D01*
X145155Y462746D01*
X145095Y462751D01*
X145019Y462757D01*
X144942Y462768D01*
X144850Y462784D01*
X144757Y462801D01*
X144653Y462822D01*
X144549Y462850D01*
X144440Y462882D01*
X144331Y462921D01*
X144222Y462970D01*
X144113Y463019D01*
X144003Y463079D01*
X143998Y463084D01*
X143982Y463095D01*
X143949Y463117D01*
X143911Y463144D01*
X143867Y463177D01*
X143812Y463221D01*
X143752Y463270D01*
X143687Y463325D01*
X143616Y463390D01*
X143550Y463461D01*
X143479Y463538D01*
X143408Y463620D01*
X143337Y463712D01*
X143272Y463805D01*
X143212Y463909D01*
X143151Y464018D01*
X143146Y464023D01*
X143141Y464045D01*
X143124Y464078D01*
X143108Y464122D01*
X143086Y464176D01*
X143064Y464242D01*
X143037Y464313D01*
X143010Y464400D01*
X142982Y464488D01*
X142955Y464586D01*
X142933Y464690D01*
X142911Y464799D01*
X142878Y465028D01*
X142873Y465154D01*
X142868Y465274D01*
Y465279D01*
Y465290D01*
Y465307D01*
Y465328D01*
X142873Y465361D01*
Y465394D01*
X142878Y465481D01*
X142889Y465585D01*
X142906Y465711D01*
X142922Y465842D01*
X142949Y465989D01*
X142988Y466148D01*
X143031Y466306D01*
X143086Y466470D01*
X143151Y466633D01*
X143228Y466797D01*
X143315Y466950D01*
X143419Y467103D01*
X143539Y467240D01*
X143545Y467245D01*
X143572Y467272D01*
X143610Y467305D01*
X143659Y467349D01*
X143730Y467403D01*
X143807Y467463D01*
X143900Y467529D01*
X144009Y467594D01*
X144129Y467660D01*
X144260Y467725D01*
X144402Y467786D01*
X144560Y467840D01*
X144724Y467884D01*
X144899Y467916D01*
X145084Y467944D01*
X145281Y467949D01*
X145346D01*
X145396Y467944D01*
D02*
G37*
G36*
X283064Y442991D02*
X281404D01*
Y438547D01*
X280738D01*
Y442991D01*
X279079D01*
Y443586D01*
X283064D01*
Y442991D01*
D02*
G37*
G36*
X265811Y443581D02*
X265871D01*
X265931Y443575D01*
X266002Y443564D01*
X266144Y443548D01*
X266302Y443520D01*
X266449Y443482D01*
X266591Y443428D01*
X266597D01*
X266608Y443422D01*
X266624Y443411D01*
X266652Y443400D01*
X266711Y443362D01*
X266793Y443313D01*
X266881Y443248D01*
X266968Y443166D01*
X267056Y443067D01*
X267137Y442958D01*
Y442953D01*
X267148Y442942D01*
X267154Y442925D01*
X267170Y442904D01*
X267187Y442876D01*
X267203Y442838D01*
X267241Y442756D01*
X267274Y442658D01*
X267307Y442543D01*
X267329Y442423D01*
X267339Y442292D01*
Y442287D01*
Y442276D01*
Y442259D01*
Y442237D01*
X267329Y442177D01*
X267318Y442096D01*
X267296Y442003D01*
X267263Y441899D01*
X267219Y441795D01*
X267159Y441686D01*
Y441680D01*
X267154Y441675D01*
X267143Y441659D01*
X267126Y441637D01*
X267088Y441588D01*
X267028Y441522D01*
X266957Y441451D01*
X266864Y441375D01*
X266761Y441298D01*
X266635Y441227D01*
X266641D01*
X266657Y441222D01*
X266679Y441211D01*
X266711Y441200D01*
X266750Y441184D01*
X266793Y441167D01*
X266892Y441118D01*
X267006Y441058D01*
X267121Y440976D01*
X267236Y440883D01*
X267334Y440769D01*
X267339Y440763D01*
X267345Y440752D01*
X267356Y440736D01*
X267372Y440714D01*
X267394Y440681D01*
X267416Y440643D01*
X267438Y440599D01*
X267460Y440550D01*
X267503Y440441D01*
X267547Y440310D01*
X267574Y440163D01*
X267585Y440086D01*
Y440004D01*
Y439999D01*
Y439988D01*
Y439971D01*
Y439944D01*
X267580Y439912D01*
Y439879D01*
X267569Y439791D01*
X267547Y439688D01*
X267520Y439578D01*
X267481Y439458D01*
X267432Y439344D01*
Y439338D01*
X267427Y439333D01*
X267416Y439316D01*
X267405Y439294D01*
X267372Y439240D01*
X267329Y439174D01*
X267279Y439098D01*
X267214Y439021D01*
X267143Y438945D01*
X267061Y438874D01*
X267050Y438869D01*
X267023Y438847D01*
X266974Y438820D01*
X266908Y438781D01*
X266832Y438743D01*
X266739Y438699D01*
X266630Y438661D01*
X266510Y438628D01*
X266504D01*
X266493Y438623D01*
X266477D01*
X266449Y438618D01*
X266417Y438612D01*
X266378Y438601D01*
X266335Y438596D01*
X266286Y438590D01*
X266231Y438579D01*
X266165Y438574D01*
X266029Y438557D01*
X265871Y438552D01*
X265696Y438547D01*
X263779D01*
Y443586D01*
X265761D01*
X265811Y443581D01*
D02*
G37*
G36*
X276305Y443668D02*
X276370Y443663D01*
X276441Y443657D01*
X276518Y443646D01*
X276605Y443630D01*
X276703Y443613D01*
X276802Y443591D01*
X276905Y443564D01*
X277015Y443532D01*
X277124Y443493D01*
X277233Y443449D01*
X277337Y443400D01*
X277446Y443340D01*
X277451Y443335D01*
X277473Y443324D01*
X277501Y443308D01*
X277539Y443280D01*
X277588Y443248D01*
X277637Y443204D01*
X277697Y443155D01*
X277763Y443100D01*
X277834Y443035D01*
X277905Y442964D01*
X277976Y442887D01*
X278046Y442805D01*
X278112Y442718D01*
X278183Y442620D01*
X278243Y442516D01*
X278303Y442407D01*
X278309Y442401D01*
X278314Y442379D01*
X278330Y442347D01*
X278347Y442303D01*
X278374Y442248D01*
X278396Y442177D01*
X278423Y442101D01*
X278451Y442014D01*
X278478Y441921D01*
X278505Y441817D01*
X278533Y441702D01*
X278554Y441588D01*
X278571Y441462D01*
X278587Y441331D01*
X278592Y441200D01*
X278598Y441058D01*
Y441047D01*
Y441025D01*
Y440982D01*
X278592Y440927D01*
X278587Y440862D01*
X278582Y440785D01*
X278571Y440698D01*
X278560Y440599D01*
X278543Y440496D01*
X278521Y440386D01*
X278500Y440272D01*
X278467Y440157D01*
X278429Y440037D01*
X278391Y439922D01*
X278341Y439802D01*
X278287Y439688D01*
X278281Y439682D01*
X278270Y439660D01*
X278254Y439628D01*
X278232Y439589D01*
X278199Y439540D01*
X278161Y439480D01*
X278112Y439415D01*
X278063Y439344D01*
X278003Y439273D01*
X277937Y439196D01*
X277861Y439120D01*
X277784Y439043D01*
X277702Y438972D01*
X277610Y438901D01*
X277511Y438830D01*
X277408Y438770D01*
X277402Y438765D01*
X277380Y438759D01*
X277353Y438743D01*
X277309Y438721D01*
X277255Y438699D01*
X277195Y438672D01*
X277124Y438645D01*
X277042Y438618D01*
X276955Y438590D01*
X276862Y438563D01*
X276758Y438535D01*
X276654Y438514D01*
X276425Y438476D01*
X276305Y438470D01*
X276185Y438465D01*
X276114D01*
X276064Y438470D01*
X276005Y438476D01*
X275928Y438481D01*
X275852Y438492D01*
X275759Y438508D01*
X275666Y438525D01*
X275562Y438547D01*
X275459Y438574D01*
X275349Y438607D01*
X275240Y438645D01*
X275131Y438694D01*
X275022Y438743D01*
X274913Y438803D01*
X274907Y438809D01*
X274891Y438820D01*
X274858Y438841D01*
X274820Y438869D01*
X274776Y438901D01*
X274721Y438945D01*
X274661Y438994D01*
X274596Y439049D01*
X274525Y439114D01*
X274459Y439185D01*
X274388Y439262D01*
X274317Y439344D01*
X274246Y439436D01*
X274181Y439529D01*
X274121Y439633D01*
X274061Y439742D01*
X274055Y439748D01*
X274050Y439770D01*
X274033Y439802D01*
X274017Y439846D01*
X273995Y439901D01*
X273973Y439966D01*
X273946Y440037D01*
X273919Y440124D01*
X273891Y440212D01*
X273864Y440310D01*
X273842Y440414D01*
X273820Y440523D01*
X273788Y440752D01*
X273782Y440878D01*
X273777Y440998D01*
Y441004D01*
Y441014D01*
Y441031D01*
Y441053D01*
X273782Y441085D01*
Y441118D01*
X273788Y441206D01*
X273799Y441309D01*
X273815Y441435D01*
X273831Y441566D01*
X273859Y441713D01*
X273897Y441872D01*
X273941Y442030D01*
X273995Y442194D01*
X274061Y442357D01*
X274137Y442521D01*
X274224Y442674D01*
X274328Y442827D01*
X274448Y442964D01*
X274454Y442969D01*
X274481Y442996D01*
X274519Y443029D01*
X274569Y443073D01*
X274640Y443127D01*
X274716Y443188D01*
X274809Y443253D01*
X274918Y443319D01*
X275038Y443384D01*
X275169Y443449D01*
X275311Y443510D01*
X275469Y443564D01*
X275633Y443608D01*
X275808Y443641D01*
X275994Y443668D01*
X276190Y443673D01*
X276256D01*
X276305Y443668D01*
D02*
G37*
G36*
X270828D02*
X270894Y443663D01*
X270965Y443657D01*
X271041Y443646D01*
X271129Y443630D01*
X271227Y443613D01*
X271325Y443591D01*
X271429Y443564D01*
X271538Y443532D01*
X271647Y443493D01*
X271757Y443449D01*
X271860Y443400D01*
X271970Y443340D01*
X271975Y443335D01*
X271997Y443324D01*
X272024Y443308D01*
X272062Y443280D01*
X272112Y443248D01*
X272161Y443204D01*
X272221Y443155D01*
X272286Y443100D01*
X272357Y443035D01*
X272428Y442964D01*
X272499Y442887D01*
X272570Y442805D01*
X272636Y442718D01*
X272707Y442620D01*
X272767Y442516D01*
X272827Y442407D01*
X272832Y442401D01*
X272838Y442379D01*
X272854Y442347D01*
X272870Y442303D01*
X272898Y442248D01*
X272920Y442177D01*
X272947Y442101D01*
X272974Y442014D01*
X273002Y441921D01*
X273029Y441817D01*
X273056Y441702D01*
X273078Y441588D01*
X273094Y441462D01*
X273111Y441331D01*
X273116Y441200D01*
X273122Y441058D01*
Y441047D01*
Y441025D01*
Y440982D01*
X273116Y440927D01*
X273111Y440862D01*
X273105Y440785D01*
X273094Y440698D01*
X273083Y440599D01*
X273067Y440496D01*
X273045Y440386D01*
X273023Y440272D01*
X272990Y440157D01*
X272952Y440037D01*
X272914Y439922D01*
X272865Y439802D01*
X272810Y439688D01*
X272805Y439682D01*
X272794Y439660D01*
X272778Y439628D01*
X272756Y439589D01*
X272723Y439540D01*
X272685Y439480D01*
X272636Y439415D01*
X272586Y439344D01*
X272527Y439273D01*
X272461Y439196D01*
X272385Y439120D01*
X272308Y439043D01*
X272226Y438972D01*
X272133Y438901D01*
X272035Y438830D01*
X271931Y438770D01*
X271926Y438765D01*
X271904Y438759D01*
X271877Y438743D01*
X271833Y438721D01*
X271778Y438699D01*
X271718Y438672D01*
X271647Y438645D01*
X271566Y438618D01*
X271478Y438590D01*
X271385Y438563D01*
X271282Y438535D01*
X271178Y438514D01*
X270949Y438476D01*
X270828Y438470D01*
X270708Y438465D01*
X270637D01*
X270588Y438470D01*
X270528Y438476D01*
X270452Y438481D01*
X270375Y438492D01*
X270282Y438508D01*
X270190Y438525D01*
X270086Y438547D01*
X269982Y438574D01*
X269873Y438607D01*
X269764Y438645D01*
X269654Y438694D01*
X269545Y438743D01*
X269436Y438803D01*
X269431Y438809D01*
X269414Y438820D01*
X269381Y438841D01*
X269343Y438869D01*
X269300Y438901D01*
X269245Y438945D01*
X269185Y438994D01*
X269119Y439049D01*
X269048Y439114D01*
X268983Y439185D01*
X268912Y439262D01*
X268841Y439344D01*
X268770Y439436D01*
X268704Y439529D01*
X268644Y439633D01*
X268584Y439742D01*
X268579Y439748D01*
X268573Y439770D01*
X268557Y439802D01*
X268541Y439846D01*
X268519Y439901D01*
X268497Y439966D01*
X268470Y440037D01*
X268442Y440124D01*
X268415Y440212D01*
X268388Y440310D01*
X268366Y440414D01*
X268344Y440523D01*
X268311Y440752D01*
X268306Y440878D01*
X268300Y440998D01*
Y441004D01*
Y441014D01*
Y441031D01*
Y441053D01*
X268306Y441085D01*
Y441118D01*
X268311Y441206D01*
X268322Y441309D01*
X268339Y441435D01*
X268355Y441566D01*
X268382Y441713D01*
X268421Y441872D01*
X268464Y442030D01*
X268519Y442194D01*
X268584Y442357D01*
X268661Y442521D01*
X268748Y442674D01*
X268852Y442827D01*
X268972Y442964D01*
X268977Y442969D01*
X269005Y442996D01*
X269043Y443029D01*
X269092Y443073D01*
X269163Y443127D01*
X269239Y443188D01*
X269332Y443253D01*
X269442Y443319D01*
X269562Y443384D01*
X269693Y443449D01*
X269835Y443510D01*
X269993Y443564D01*
X270157Y443608D01*
X270332Y443641D01*
X270517Y443668D01*
X270714Y443673D01*
X270779D01*
X270828Y443668D01*
D02*
G37*
G36*
X278325Y445869D02*
X277637D01*
X274994Y449822D01*
Y445869D01*
X274356D01*
Y450909D01*
X275038D01*
X277686Y446950D01*
Y450909D01*
X278325D01*
Y445869D01*
D02*
G37*
G36*
X268595D02*
X267951D01*
Y450090D01*
X266477Y445869D01*
X265876D01*
X264424Y450161D01*
Y445869D01*
X263779D01*
Y450909D01*
X264779D01*
X265974Y447338D01*
Y447333D01*
X265980Y447316D01*
X265991Y447289D01*
X266002Y447256D01*
X266013Y447218D01*
X266029Y447169D01*
X266067Y447060D01*
X266106Y446940D01*
X266144Y446814D01*
X266182Y446699D01*
X266198Y446645D01*
X266215Y446595D01*
Y446601D01*
X266220Y446606D01*
X266226Y446623D01*
X266231Y446645D01*
X266242Y446677D01*
X266253Y446710D01*
X266264Y446754D01*
X266280Y446798D01*
X266297Y446852D01*
X266318Y446912D01*
X266340Y446978D01*
X266362Y447054D01*
X266389Y447131D01*
X266417Y447218D01*
X266449Y447305D01*
X266482Y447404D01*
X267694Y450909D01*
X268595D01*
Y445869D01*
D02*
G37*
G36*
X283419Y447999D02*
Y447988D01*
Y447966D01*
Y447928D01*
Y447873D01*
X283414Y447808D01*
X283408Y447737D01*
X283403Y447655D01*
X283397Y447562D01*
X283376Y447371D01*
X283348Y447169D01*
X283305Y446972D01*
X283277Y446879D01*
X283244Y446792D01*
Y446787D01*
X283239Y446770D01*
X283228Y446748D01*
X283212Y446716D01*
X283190Y446677D01*
X283168Y446634D01*
X283102Y446535D01*
X283064Y446475D01*
X283021Y446421D01*
X282966Y446355D01*
X282911Y446295D01*
X282846Y446235D01*
X282780Y446175D01*
X282704Y446121D01*
X282622Y446066D01*
X282616Y446060D01*
X282600Y446055D01*
X282578Y446039D01*
X282540Y446022D01*
X282496Y446000D01*
X282442Y445978D01*
X282382Y445951D01*
X282305Y445929D01*
X282229Y445902D01*
X282141Y445875D01*
X282043Y445853D01*
X281940Y445831D01*
X281825Y445815D01*
X281705Y445798D01*
X281579Y445793D01*
X281448Y445787D01*
X281377D01*
X281328Y445793D01*
X281268D01*
X281202Y445798D01*
X281120Y445809D01*
X281039Y445820D01*
X280853Y445848D01*
X280656Y445891D01*
X280465Y445951D01*
X280373Y445984D01*
X280285Y446028D01*
X280280Y446033D01*
X280263Y446039D01*
X280241Y446055D01*
X280214Y446071D01*
X280176Y446099D01*
X280132Y446131D01*
X280088Y446164D01*
X280039Y446208D01*
X279930Y446306D01*
X279826Y446426D01*
X279728Y446568D01*
X279684Y446650D01*
X279646Y446732D01*
Y446737D01*
X279641Y446754D01*
X279630Y446781D01*
X279619Y446819D01*
X279603Y446863D01*
X279586Y446923D01*
X279570Y446989D01*
X279554Y447065D01*
X279532Y447152D01*
X279515Y447245D01*
X279499Y447349D01*
X279488Y447464D01*
X279472Y447584D01*
X279466Y447715D01*
X279455Y447851D01*
Y447999D01*
Y450909D01*
X280121D01*
Y447999D01*
Y447993D01*
Y447971D01*
Y447939D01*
Y447890D01*
X280127Y447835D01*
Y447775D01*
X280132Y447704D01*
X280138Y447633D01*
X280149Y447474D01*
X280170Y447316D01*
X280203Y447163D01*
X280220Y447092D01*
X280241Y447032D01*
Y447027D01*
X280247Y447021D01*
X280252Y447005D01*
X280263Y446983D01*
X280296Y446923D01*
X280340Y446858D01*
X280394Y446776D01*
X280465Y446699D01*
X280553Y446623D01*
X280656Y446552D01*
X280662D01*
X280673Y446546D01*
X280689Y446535D01*
X280711Y446524D01*
X280738Y446514D01*
X280777Y446503D01*
X280815Y446486D01*
X280858Y446470D01*
X280968Y446443D01*
X281093Y446415D01*
X281235Y446393D01*
X281388Y446388D01*
X281459D01*
X281508Y446393D01*
X281568Y446399D01*
X281639Y446404D01*
X281716Y446415D01*
X281798Y446432D01*
X281967Y446470D01*
X282054Y446497D01*
X282141Y446530D01*
X282223Y446568D01*
X282300Y446612D01*
X282371Y446661D01*
X282436Y446721D01*
X282442Y446727D01*
X282453Y446737D01*
X282464Y446759D01*
X282486Y446787D01*
X282507Y446825D01*
X282535Y446874D01*
X282567Y446934D01*
X282595Y447005D01*
X282622Y447087D01*
X282655Y447180D01*
X282682Y447283D01*
X282704Y447398D01*
X282726Y447529D01*
X282742Y447671D01*
X282748Y447829D01*
X282753Y447999D01*
Y450909D01*
X283419D01*
Y447999D01*
D02*
G37*
G36*
X289862Y446464D02*
X292346D01*
Y445869D01*
X289196D01*
Y450909D01*
X289862D01*
Y446464D01*
D02*
G37*
G36*
X288693Y445869D02*
X287935D01*
X287350Y447393D01*
X285232D01*
X284686Y445869D01*
X283981D01*
X285909Y450909D01*
X286630D01*
X288693Y445869D01*
D02*
G37*
G36*
X273831D02*
X273072D01*
X272488Y447393D01*
X270370D01*
X269824Y445869D01*
X269119D01*
X271047Y450909D01*
X271767D01*
X273831Y445869D01*
D02*
G37*
G36*
X360179Y493636D02*
X360228Y493631D01*
X360288Y493625D01*
X360353Y493614D01*
X360424Y493598D01*
X360583Y493560D01*
X360659Y493533D01*
X360747Y493500D01*
X360828Y493462D01*
X360905Y493412D01*
X360981Y493363D01*
X361058Y493303D01*
X361063Y493298D01*
X361074Y493287D01*
X361096Y493270D01*
X361118Y493243D01*
X361151Y493211D01*
X361183Y493167D01*
X361222Y493118D01*
X361260Y493063D01*
X361298Y493003D01*
X361336Y492932D01*
X361374Y492856D01*
X361413Y492774D01*
X361445Y492686D01*
X361473Y492593D01*
X361500Y492495D01*
X361516Y492386D01*
X360899Y492337D01*
Y492342D01*
X360894Y492353D01*
X360889Y492370D01*
X360883Y492397D01*
X360867Y492462D01*
X360839Y492539D01*
X360807Y492626D01*
X360763Y492714D01*
X360719Y492796D01*
X360665Y492867D01*
X360659Y492872D01*
X360654Y492877D01*
X360637Y492894D01*
X360621Y492910D01*
X360566Y492954D01*
X360490Y493003D01*
X360403Y493052D01*
X360293Y493090D01*
X360173Y493123D01*
X360108Y493129D01*
X360042Y493134D01*
X359993D01*
X359933Y493123D01*
X359862Y493112D01*
X359780Y493090D01*
X359693Y493063D01*
X359605Y493019D01*
X359518Y492965D01*
X359513D01*
X359507Y492954D01*
X359491Y492943D01*
X359469Y492927D01*
X359420Y492877D01*
X359354Y492806D01*
X359278Y492719D01*
X359201Y492610D01*
X359130Y492484D01*
X359059Y492342D01*
Y492337D01*
X359054Y492326D01*
X359043Y492299D01*
X359032Y492266D01*
X359021Y492228D01*
X359005Y492173D01*
X358988Y492113D01*
X358972Y492048D01*
X358956Y491971D01*
X358945Y491884D01*
X358928Y491785D01*
X358912Y491682D01*
X358901Y491573D01*
X358896Y491452D01*
X358890Y491321D01*
X358885Y491190D01*
X358896Y491201D01*
X358907Y491218D01*
X358923Y491239D01*
X358972Y491299D01*
X359032Y491376D01*
X359114Y491458D01*
X359207Y491540D01*
X359311Y491616D01*
X359425Y491687D01*
X359431D01*
X359442Y491693D01*
X359458Y491704D01*
X359480Y491714D01*
X359513Y491725D01*
X359545Y491742D01*
X359633Y491775D01*
X359736Y491802D01*
X359851Y491829D01*
X359977Y491851D01*
X360108Y491856D01*
X360135D01*
X360168Y491851D01*
X360211D01*
X360266Y491840D01*
X360326Y491834D01*
X360397Y491818D01*
X360474Y491802D01*
X360550Y491775D01*
X360637Y491747D01*
X360725Y491709D01*
X360812Y491665D01*
X360905Y491611D01*
X360992Y491551D01*
X361080Y491480D01*
X361161Y491398D01*
X361167Y491392D01*
X361178Y491376D01*
X361200Y491354D01*
X361232Y491316D01*
X361265Y491272D01*
X361298Y491218D01*
X361342Y491152D01*
X361380Y491081D01*
X361418Y490999D01*
X361462Y490912D01*
X361495Y490813D01*
X361533Y490710D01*
X361560Y490601D01*
X361582Y490481D01*
X361593Y490355D01*
X361598Y490224D01*
Y490218D01*
Y490202D01*
Y490180D01*
X361593Y490142D01*
Y490104D01*
X361587Y490055D01*
X361582Y489994D01*
X361571Y489934D01*
X361549Y489798D01*
X361511Y489650D01*
X361462Y489498D01*
X361391Y489339D01*
Y489334D01*
X361380Y489323D01*
X361369Y489301D01*
X361353Y489274D01*
X361331Y489241D01*
X361309Y489203D01*
X361243Y489110D01*
X361167Y489012D01*
X361069Y488908D01*
X360954Y488804D01*
X360828Y488717D01*
X360823D01*
X360812Y488706D01*
X360790Y488695D01*
X360763Y488684D01*
X360730Y488668D01*
X360692Y488651D01*
X360643Y488629D01*
X360594Y488613D01*
X360474Y488569D01*
X360332Y488537D01*
X360179Y488515D01*
X360015Y488504D01*
X359982D01*
X359939Y488509D01*
X359884Y488515D01*
X359818Y488520D01*
X359742Y488537D01*
X359660Y488553D01*
X359567Y488575D01*
X359469Y488608D01*
X359365Y488640D01*
X359261Y488690D01*
X359158Y488744D01*
X359049Y488810D01*
X358950Y488886D01*
X358846Y488974D01*
X358754Y489072D01*
X358748Y489077D01*
X358732Y489099D01*
X358710Y489132D01*
X358677Y489181D01*
X358639Y489241D01*
X358601Y489318D01*
X358557Y489410D01*
X358513Y489520D01*
X358464Y489640D01*
X358421Y489776D01*
X358382Y489929D01*
X358344Y490098D01*
X358311Y490284D01*
X358290Y490486D01*
X358273Y490704D01*
X358268Y490939D01*
Y490945D01*
Y490955D01*
Y490977D01*
Y491005D01*
Y491037D01*
X358273Y491081D01*
Y491125D01*
X358279Y491179D01*
X358284Y491299D01*
X358295Y491436D01*
X358311Y491589D01*
X358333Y491753D01*
X358366Y491927D01*
X358399Y492102D01*
X358442Y492277D01*
X358497Y492451D01*
X358557Y492621D01*
X358628Y492785D01*
X358715Y492932D01*
X358808Y493063D01*
X358814Y493069D01*
X358830Y493090D01*
X358857Y493118D01*
X358896Y493156D01*
X358939Y493199D01*
X358999Y493249D01*
X359065Y493298D01*
X359141Y493352D01*
X359229Y493407D01*
X359327Y493456D01*
X359431Y493505D01*
X359545Y493549D01*
X359665Y493587D01*
X359797Y493614D01*
X359933Y493636D01*
X360080Y493642D01*
X360140D01*
X360179Y493636D01*
D02*
G37*
G36*
X380763Y493707D02*
X380823Y493702D01*
X380883Y493696D01*
X380954Y493691D01*
X381107Y493669D01*
X381276Y493636D01*
X381445Y493587D01*
X381609Y493527D01*
X381615D01*
X381626Y493516D01*
X381653Y493511D01*
X381680Y493494D01*
X381713Y493472D01*
X381757Y493451D01*
X381850Y493396D01*
X381959Y493320D01*
X382068Y493227D01*
X382172Y493123D01*
X382264Y492998D01*
X382270Y492992D01*
X382275Y492981D01*
X382286Y492965D01*
X382303Y492938D01*
X382319Y492905D01*
X382341Y492867D01*
X382357Y492817D01*
X382384Y492768D01*
X382428Y492654D01*
X382466Y492517D01*
X382499Y492370D01*
X382516Y492206D01*
X381877Y492157D01*
Y492162D01*
X381871Y492178D01*
Y492200D01*
X381866Y492233D01*
X381855Y492277D01*
X381844Y492320D01*
X381811Y492424D01*
X381768Y492539D01*
X381702Y492659D01*
X381626Y492774D01*
X381576Y492823D01*
X381522Y492872D01*
X381516Y492877D01*
X381511Y492883D01*
X381489Y492894D01*
X381467Y492910D01*
X381434Y492927D01*
X381396Y492948D01*
X381353Y492970D01*
X381304Y492998D01*
X381243Y493019D01*
X381178Y493041D01*
X381107Y493063D01*
X381031Y493079D01*
X380943Y493096D01*
X380850Y493107D01*
X380752Y493118D01*
X380594D01*
X380550Y493112D01*
X380501D01*
X380446Y493107D01*
X380381Y493101D01*
X380315Y493090D01*
X380168Y493063D01*
X380026Y493025D01*
X379889Y492970D01*
X379824Y492932D01*
X379769Y492894D01*
X379764D01*
X379758Y492883D01*
X379726Y492856D01*
X379682Y492806D01*
X379633Y492741D01*
X379584Y492664D01*
X379540Y492572D01*
X379507Y492473D01*
X379502Y492419D01*
X379496Y492359D01*
Y492353D01*
Y492348D01*
X379502Y492315D01*
X379507Y492266D01*
X379518Y492206D01*
X379545Y492135D01*
X379578Y492058D01*
X379622Y491987D01*
X379687Y491916D01*
X379698Y491911D01*
X379709Y491900D01*
X379731Y491884D01*
X379758Y491867D01*
X379791Y491851D01*
X379835Y491829D01*
X379884Y491802D01*
X379944Y491775D01*
X380015Y491747D01*
X380097Y491720D01*
X380190Y491687D01*
X380299Y491654D01*
X380414Y491622D01*
X380544Y491583D01*
X380692Y491551D01*
X380703D01*
X380730Y491545D01*
X380768Y491534D01*
X380823Y491518D01*
X380889Y491507D01*
X380965Y491485D01*
X381047Y491469D01*
X381134Y491441D01*
X381320Y491392D01*
X381505Y491343D01*
X381593Y491316D01*
X381669Y491289D01*
X381746Y491261D01*
X381806Y491234D01*
X381811D01*
X381828Y491223D01*
X381850Y491212D01*
X381877Y491196D01*
X381915Y491179D01*
X381959Y491152D01*
X382051Y491092D01*
X382161Y491021D01*
X382264Y490934D01*
X382368Y490830D01*
X382412Y490775D01*
X382455Y490721D01*
Y490715D01*
X382466Y490704D01*
X382477Y490688D01*
X382488Y490666D01*
X382505Y490639D01*
X382521Y490601D01*
X382565Y490513D01*
X382603Y490410D01*
X382636Y490289D01*
X382658Y490153D01*
X382668Y490005D01*
Y490000D01*
Y489989D01*
Y489967D01*
X382663Y489940D01*
Y489902D01*
X382658Y489863D01*
X382641Y489760D01*
X382614Y489645D01*
X382570Y489520D01*
X382510Y489389D01*
X382477Y489318D01*
X382434Y489252D01*
Y489247D01*
X382423Y489236D01*
X382412Y489219D01*
X382390Y489192D01*
X382341Y489132D01*
X382264Y489050D01*
X382172Y488963D01*
X382057Y488870D01*
X381926Y488782D01*
X381773Y488700D01*
X381768D01*
X381751Y488690D01*
X381729Y488684D01*
X381697Y488668D01*
X381658Y488657D01*
X381609Y488640D01*
X381555Y488619D01*
X381489Y488602D01*
X381424Y488586D01*
X381347Y488564D01*
X381183Y488537D01*
X381003Y488515D01*
X380807Y488504D01*
X380741D01*
X380692Y488509D01*
X380632D01*
X380566Y488515D01*
X380490Y488520D01*
X380403Y488531D01*
X380222Y488553D01*
X380031Y488586D01*
X379840Y488635D01*
X379655Y488700D01*
X379649D01*
X379633Y488711D01*
X379611Y488722D01*
X379578Y488739D01*
X379540Y488761D01*
X379496Y488782D01*
X379393Y488848D01*
X379278Y488930D01*
X379158Y489034D01*
X379038Y489154D01*
X378934Y489296D01*
X378928Y489301D01*
X378923Y489312D01*
X378912Y489334D01*
X378896Y489367D01*
X378874Y489405D01*
X378852Y489448D01*
X378825Y489503D01*
X378803Y489563D01*
X378776Y489623D01*
X378754Y489694D01*
X378710Y489853D01*
X378677Y490022D01*
X378666Y490115D01*
X378661Y490207D01*
X379289Y490262D01*
Y490257D01*
Y490246D01*
X379294Y490224D01*
X379300Y490197D01*
X379305Y490164D01*
X379311Y490131D01*
X379332Y490038D01*
X379360Y489940D01*
X379393Y489836D01*
X379436Y489732D01*
X379491Y489634D01*
X379496Y489623D01*
X379523Y489596D01*
X379562Y489552D01*
X379616Y489498D01*
X379687Y489432D01*
X379775Y489372D01*
X379878Y489307D01*
X379998Y489247D01*
X380004D01*
X380015Y489241D01*
X380031Y489236D01*
X380059Y489225D01*
X380091Y489214D01*
X380130Y489197D01*
X380173Y489186D01*
X380222Y489176D01*
X380337Y489148D01*
X380473Y489121D01*
X380615Y489105D01*
X380774Y489099D01*
X380839D01*
X380872Y489105D01*
X380910D01*
X380998Y489115D01*
X381101Y489126D01*
X381216Y489143D01*
X381331Y489170D01*
X381440Y489208D01*
X381445D01*
X381451Y489214D01*
X381467Y489219D01*
X381489Y489230D01*
X381538Y489257D01*
X381604Y489290D01*
X381675Y489334D01*
X381751Y489389D01*
X381817Y489448D01*
X381877Y489520D01*
X381882Y489530D01*
X381899Y489552D01*
X381926Y489596D01*
X381953Y489650D01*
X381975Y489716D01*
X382002Y489787D01*
X382019Y489869D01*
X382024Y489951D01*
Y489956D01*
Y489962D01*
Y489989D01*
X382019Y490038D01*
X382008Y490093D01*
X381991Y490158D01*
X381964Y490229D01*
X381931Y490300D01*
X381882Y490366D01*
X381877Y490371D01*
X381855Y490393D01*
X381822Y490426D01*
X381773Y490470D01*
X381713Y490513D01*
X381631Y490562D01*
X381538Y490612D01*
X381429Y490661D01*
X381418Y490666D01*
X381407Y490672D01*
X381385Y490677D01*
X381364Y490683D01*
X381331Y490693D01*
X381287Y490710D01*
X381243Y490721D01*
X381183Y490737D01*
X381123Y490759D01*
X381047Y490775D01*
X380965Y490797D01*
X380872Y490824D01*
X380774Y490846D01*
X380659Y490879D01*
X380534Y490906D01*
X380528D01*
X380506Y490912D01*
X380468Y490923D01*
X380424Y490934D01*
X380364Y490950D01*
X380299Y490966D01*
X380233Y490988D01*
X380157Y491010D01*
X379993Y491059D01*
X379835Y491114D01*
X379758Y491141D01*
X379687Y491168D01*
X379622Y491196D01*
X379567Y491223D01*
X379562D01*
X379551Y491234D01*
X379534Y491245D01*
X379507Y491256D01*
X379442Y491294D01*
X379365Y491349D01*
X379272Y491420D01*
X379185Y491496D01*
X379098Y491589D01*
X379027Y491687D01*
Y491693D01*
X379021Y491698D01*
X379010Y491714D01*
X378999Y491736D01*
X378972Y491796D01*
X378939Y491873D01*
X378906Y491966D01*
X378879Y492075D01*
X378857Y492195D01*
X378852Y492320D01*
Y492326D01*
Y492337D01*
Y492359D01*
X378857Y492386D01*
Y492419D01*
X378863Y492457D01*
X378879Y492555D01*
X378906Y492664D01*
X378939Y492779D01*
X378994Y492905D01*
X379065Y493030D01*
Y493036D01*
X379076Y493047D01*
X379087Y493063D01*
X379103Y493085D01*
X379158Y493145D01*
X379229Y493221D01*
X379316Y493303D01*
X379425Y493385D01*
X379551Y493467D01*
X379698Y493538D01*
X379704D01*
X379715Y493543D01*
X379742Y493554D01*
X379769Y493565D01*
X379807Y493576D01*
X379857Y493593D01*
X379911Y493609D01*
X379971Y493625D01*
X380037Y493642D01*
X380108Y493658D01*
X380261Y493685D01*
X380435Y493707D01*
X380621Y493713D01*
X380714D01*
X380763Y493707D01*
D02*
G37*
G36*
X365999Y490098D02*
X364093D01*
Y490721D01*
X365999D01*
Y490098D01*
D02*
G37*
G36*
X372677Y488586D02*
X371989D01*
X369346Y492539D01*
Y488586D01*
X368707D01*
Y493625D01*
X369390D01*
X372038Y489667D01*
Y493625D01*
X372677D01*
Y488586D01*
D02*
G37*
G36*
X387184Y493030D02*
X385524Y493030D01*
Y488586D01*
X384858D01*
Y493030D01*
X383198D01*
Y493625D01*
X387184Y493625D01*
Y493030D01*
D02*
G37*
G36*
X376209Y493620D02*
X376269D01*
X376340Y493614D01*
X376422Y493609D01*
X376586Y493593D01*
X376755Y493565D01*
X376919Y493533D01*
X376990Y493511D01*
X377061Y493489D01*
X377066D01*
X377077Y493483D01*
X377094Y493472D01*
X377121Y493462D01*
X377187Y493429D01*
X377263Y493380D01*
X377356Y493314D01*
X377449Y493227D01*
X377541Y493129D01*
X377623Y493008D01*
Y493003D01*
X377634Y492992D01*
X377645Y492976D01*
X377656Y492948D01*
X377673Y492916D01*
X377689Y492877D01*
X377711Y492834D01*
X377733Y492785D01*
X377771Y492670D01*
X377804Y492544D01*
X377825Y492402D01*
X377836Y492249D01*
Y492244D01*
Y492228D01*
Y492195D01*
X377831Y492162D01*
X377825Y492113D01*
X377820Y492058D01*
X377809Y491998D01*
X377793Y491933D01*
X377749Y491791D01*
X377722Y491714D01*
X377689Y491638D01*
X377651Y491562D01*
X377602Y491485D01*
X377547Y491414D01*
X377487Y491343D01*
X377482Y491338D01*
X377470Y491327D01*
X377449Y491310D01*
X377421Y491283D01*
X377383Y491256D01*
X377340Y491223D01*
X377285Y491185D01*
X377219Y491147D01*
X377148Y491108D01*
X377072Y491070D01*
X376985Y491032D01*
X376886Y490994D01*
X376783Y490961D01*
X376668Y490928D01*
X376542Y490901D01*
X376411Y490879D01*
X376417D01*
X376422Y490874D01*
X376455Y490857D01*
X376504Y490830D01*
X376564Y490797D01*
X376630Y490759D01*
X376695Y490721D01*
X376761Y490672D01*
X376815Y490628D01*
X376821Y490622D01*
X376826Y490617D01*
X376843Y490601D01*
X376865Y490579D01*
X376892Y490551D01*
X376924Y490519D01*
X376995Y490442D01*
X377077Y490344D01*
X377170Y490229D01*
X377269Y490098D01*
X377367Y489956D01*
X378240Y488586D01*
X377405D01*
X376739Y489634D01*
X376733Y489640D01*
X376728Y489656D01*
X376712Y489678D01*
X376690Y489711D01*
X376668Y489749D01*
X376635Y489792D01*
X376570Y489891D01*
X376493Y490005D01*
X376417Y490120D01*
X376335Y490229D01*
X376258Y490328D01*
Y490333D01*
X376248Y490339D01*
X376226Y490366D01*
X376193Y490410D01*
X376144Y490459D01*
X376095Y490513D01*
X376035Y490568D01*
X375974Y490622D01*
X375920Y490661D01*
X375914Y490666D01*
X375893Y490677D01*
X375865Y490693D01*
X375827Y490715D01*
X375778Y490737D01*
X375729Y490759D01*
X375674Y490781D01*
X375614Y490797D01*
X375609D01*
X375592Y490803D01*
X375565Y490808D01*
X375527Y490813D01*
X375472D01*
X375407Y490819D01*
X375330Y490824D01*
X374473D01*
Y488586D01*
X373807D01*
Y493625D01*
X376149D01*
X376209Y493620D01*
D02*
G37*
G36*
X376193Y473312D02*
X378082Y470669D01*
X377269D01*
X375991Y472466D01*
X375985Y472471D01*
X375974Y472493D01*
X375953Y472520D01*
X375925Y472564D01*
X375893Y472608D01*
X375860Y472657D01*
X375783Y472771D01*
Y472766D01*
X375778Y472760D01*
X375756Y472728D01*
X375729Y472684D01*
X375691Y472629D01*
X375609Y472515D01*
X375576Y472460D01*
X375543Y472416D01*
X374266Y470669D01*
X373463D01*
X375412Y473279D01*
X373692Y475709D01*
X374484D01*
X375407Y474415D01*
X375412Y474409D01*
X375418Y474399D01*
X375434Y474377D01*
X375456Y474349D01*
X375478Y474317D01*
X375505Y474278D01*
X375565Y474191D01*
X375630Y474087D01*
X375696Y473989D01*
X375762Y473885D01*
X375811Y473798D01*
Y473803D01*
X375816Y473809D01*
X375827Y473825D01*
X375844Y473847D01*
X375876Y473896D01*
X375925Y473967D01*
X375985Y474054D01*
X376051Y474153D01*
X376133Y474257D01*
X376215Y474366D01*
X377219Y475709D01*
X377946D01*
X376193Y473312D01*
D02*
G37*
G36*
X366179Y472182D02*
X364274D01*
Y472804D01*
X366179D01*
Y472182D01*
D02*
G37*
G36*
X371306Y475703D02*
X371366D01*
X371437Y475698D01*
X371519Y475693D01*
X371683Y475676D01*
X371852Y475649D01*
X372016Y475616D01*
X372087Y475594D01*
X372158Y475572D01*
X372163D01*
X372174Y475567D01*
X372191Y475556D01*
X372218Y475545D01*
X372284Y475512D01*
X372360Y475463D01*
X372453Y475398D01*
X372546Y475310D01*
X372638Y475212D01*
X372720Y475092D01*
Y475086D01*
X372731Y475075D01*
X372742Y475059D01*
X372753Y475032D01*
X372769Y474999D01*
X372786Y474961D01*
X372808Y474917D01*
X372830Y474868D01*
X372868Y474753D01*
X372901Y474628D01*
X372922Y474486D01*
X372933Y474333D01*
Y474328D01*
Y474311D01*
Y474278D01*
X372928Y474246D01*
X372922Y474196D01*
X372917Y474142D01*
X372906Y474082D01*
X372890Y474016D01*
X372846Y473874D01*
X372819Y473798D01*
X372786Y473721D01*
X372748Y473645D01*
X372698Y473569D01*
X372644Y473498D01*
X372584Y473427D01*
X372578Y473421D01*
X372568Y473410D01*
X372546Y473394D01*
X372518Y473366D01*
X372480Y473339D01*
X372436Y473307D01*
X372382Y473268D01*
X372316Y473230D01*
X372245Y473192D01*
X372169Y473154D01*
X372081Y473115D01*
X371983Y473077D01*
X371880Y473044D01*
X371765Y473012D01*
X371639Y472984D01*
X371508Y472963D01*
X371514D01*
X371519Y472957D01*
X371552Y472941D01*
X371601Y472913D01*
X371661Y472881D01*
X371727Y472842D01*
X371792Y472804D01*
X371858Y472755D01*
X371912Y472711D01*
X371918Y472706D01*
X371923Y472700D01*
X371940Y472684D01*
X371961Y472662D01*
X371989Y472635D01*
X372022Y472602D01*
X372092Y472526D01*
X372174Y472427D01*
X372267Y472313D01*
X372365Y472182D01*
X372464Y472040D01*
X373337Y470669D01*
X372502D01*
X371836Y471718D01*
X371830Y471723D01*
X371825Y471739D01*
X371809Y471761D01*
X371787Y471794D01*
X371765Y471832D01*
X371732Y471876D01*
X371667Y471974D01*
X371590Y472089D01*
X371514Y472204D01*
X371432Y472313D01*
X371355Y472411D01*
Y472416D01*
X371344Y472422D01*
X371323Y472449D01*
X371290Y472493D01*
X371241Y472542D01*
X371192Y472597D01*
X371131Y472651D01*
X371071Y472706D01*
X371017Y472744D01*
X371011Y472750D01*
X370989Y472760D01*
X370962Y472777D01*
X370924Y472799D01*
X370875Y472821D01*
X370826Y472842D01*
X370771Y472864D01*
X370711Y472881D01*
X370706D01*
X370689Y472886D01*
X370662Y472892D01*
X370624Y472897D01*
X370569D01*
X370504Y472902D01*
X370427Y472908D01*
X369570D01*
Y470669D01*
X368904D01*
Y475709D01*
X371246D01*
X371306Y475703D01*
D02*
G37*
G36*
X361080Y472444D02*
X361762D01*
Y471876D01*
X361080D01*
Y470669D01*
X360463D01*
Y471876D01*
X358268D01*
Y472444D01*
X360572Y475709D01*
X361080D01*
Y472444D01*
D02*
G37*
G36*
X239573Y482288D02*
X241462Y479646D01*
X240648D01*
X239370Y481442D01*
X239365Y481448D01*
X239354Y481469D01*
X239332Y481497D01*
X239305Y481540D01*
X239272Y481584D01*
X239240Y481633D01*
X239163Y481748D01*
Y481742D01*
X239158Y481737D01*
X239136Y481704D01*
X239108Y481660D01*
X239070Y481606D01*
X238988Y481491D01*
X238956Y481436D01*
X238923Y481393D01*
X237645Y479646D01*
X236843D01*
X238792Y482256D01*
X237072Y484685D01*
X237864D01*
X238786Y483391D01*
X238792Y483386D01*
X238797Y483375D01*
X238814Y483353D01*
X238836Y483326D01*
X238857Y483293D01*
X238885Y483255D01*
X238945Y483167D01*
X239010Y483064D01*
X239076Y482965D01*
X239141Y482862D01*
X239190Y482774D01*
Y482780D01*
X239196Y482785D01*
X239207Y482801D01*
X239223Y482823D01*
X239256Y482872D01*
X239305Y482943D01*
X239365Y483031D01*
X239431Y483129D01*
X239512Y483233D01*
X239594Y483342D01*
X240599Y484685D01*
X241325D01*
X239573Y482288D01*
D02*
G37*
G36*
X234686Y484680D02*
X234746D01*
X234817Y484674D01*
X234899Y484669D01*
X235063Y484653D01*
X235232Y484625D01*
X235396Y484592D01*
X235467Y484571D01*
X235538Y484549D01*
X235543D01*
X235554Y484543D01*
X235570Y484532D01*
X235598Y484521D01*
X235663Y484489D01*
X235740Y484440D01*
X235833Y484374D01*
X235925Y484287D01*
X236018Y484188D01*
X236100Y484068D01*
Y484063D01*
X236111Y484052D01*
X236122Y484035D01*
X236133Y484008D01*
X236149Y483975D01*
X236165Y483937D01*
X236187Y483893D01*
X236209Y483844D01*
X236247Y483730D01*
X236280Y483604D01*
X236302Y483462D01*
X236313Y483309D01*
Y483304D01*
Y483287D01*
Y483255D01*
X236308Y483222D01*
X236302Y483173D01*
X236297Y483118D01*
X236286Y483058D01*
X236269Y482993D01*
X236226Y482851D01*
X236198Y482774D01*
X236165Y482698D01*
X236127Y482621D01*
X236078Y482545D01*
X236024Y482474D01*
X235964Y482403D01*
X235958Y482398D01*
X235947Y482387D01*
X235925Y482370D01*
X235898Y482343D01*
X235860Y482316D01*
X235816Y482283D01*
X235761Y482245D01*
X235696Y482206D01*
X235625Y482168D01*
X235548Y482130D01*
X235461Y482092D01*
X235363Y482054D01*
X235259Y482021D01*
X235144Y481988D01*
X235019Y481961D01*
X234888Y481939D01*
X234893D01*
X234899Y481933D01*
X234932Y481917D01*
X234981Y481890D01*
X235041Y481857D01*
X235106Y481819D01*
X235172Y481780D01*
X235237Y481731D01*
X235292Y481688D01*
X235297Y481682D01*
X235303Y481677D01*
X235319Y481660D01*
X235341Y481639D01*
X235368Y481611D01*
X235401Y481578D01*
X235472Y481502D01*
X235554Y481404D01*
X235647Y481289D01*
X235745Y481158D01*
X235843Y481016D01*
X236717Y479646D01*
X235882D01*
X235215Y480694D01*
X235210Y480699D01*
X235205Y480716D01*
X235188Y480738D01*
X235166Y480770D01*
X235144Y480809D01*
X235112Y480852D01*
X235046Y480951D01*
X234970Y481065D01*
X234893Y481180D01*
X234811Y481289D01*
X234735Y481387D01*
Y481393D01*
X234724Y481398D01*
X234702Y481426D01*
X234669Y481469D01*
X234620Y481518D01*
X234571Y481573D01*
X234511Y481628D01*
X234451Y481682D01*
X234397Y481720D01*
X234391Y481726D01*
X234369Y481737D01*
X234342Y481753D01*
X234304Y481775D01*
X234255Y481797D01*
X234205Y481819D01*
X234151Y481841D01*
X234091Y481857D01*
X234085D01*
X234069Y481862D01*
X234042Y481868D01*
X234003Y481873D01*
X233949D01*
X233883Y481879D01*
X233807Y481884D01*
X232950D01*
Y479646D01*
X232283D01*
Y484685D01*
X234626D01*
X234686Y484680D01*
D02*
G37*
G36*
X359949Y466870D02*
X359988Y466865D01*
X360091Y466854D01*
X360206Y466832D01*
X360337Y466799D01*
X360468Y466755D01*
X360599Y466695D01*
X360605D01*
X360615Y466690D01*
X360632Y466679D01*
X360659Y466663D01*
X360719Y466624D01*
X360796Y466570D01*
X360883Y466499D01*
X360970Y466417D01*
X361058Y466324D01*
X361134Y466215D01*
Y466210D01*
X361140Y466204D01*
X361151Y466182D01*
X361161Y466160D01*
X361178Y466133D01*
X361194Y466100D01*
X361227Y466018D01*
X361260Y465920D01*
X361293Y465811D01*
X361314Y465691D01*
X361320Y465565D01*
Y465560D01*
Y465549D01*
Y465532D01*
Y465511D01*
X361309Y465445D01*
X361298Y465369D01*
X361276Y465276D01*
X361243Y465177D01*
X361200Y465074D01*
X361140Y464970D01*
Y464965D01*
X361134Y464959D01*
X361107Y464926D01*
X361069Y464877D01*
X361009Y464817D01*
X360938Y464746D01*
X360845Y464675D01*
X360741Y464610D01*
X360621Y464544D01*
X360626D01*
X360643Y464539D01*
X360665Y464533D01*
X360697Y464522D01*
X360730Y464511D01*
X360774Y464495D01*
X360878Y464451D01*
X360987Y464391D01*
X361102Y464320D01*
X361216Y464227D01*
X361314Y464113D01*
X361320Y464107D01*
X361325Y464096D01*
X361336Y464080D01*
X361353Y464053D01*
X361374Y464025D01*
X361396Y463987D01*
X361418Y463944D01*
X361440Y463889D01*
X361462Y463834D01*
X361484Y463774D01*
X361527Y463638D01*
X361555Y463480D01*
X361566Y463392D01*
Y463305D01*
Y463299D01*
Y463277D01*
X361560Y463239D01*
Y463196D01*
X361549Y463135D01*
X361538Y463070D01*
X361527Y462999D01*
X361506Y462917D01*
X361478Y462830D01*
X361445Y462742D01*
X361407Y462650D01*
X361358Y462557D01*
X361303Y462459D01*
X361238Y462366D01*
X361167Y462273D01*
X361080Y462185D01*
X361074Y462180D01*
X361058Y462164D01*
X361031Y462142D01*
X360992Y462114D01*
X360949Y462082D01*
X360889Y462044D01*
X360823Y462000D01*
X360747Y461962D01*
X360665Y461918D01*
X360572Y461874D01*
X360474Y461836D01*
X360364Y461803D01*
X360250Y461776D01*
X360130Y461754D01*
X360004Y461738D01*
X359868Y461732D01*
X359840D01*
X359802Y461738D01*
X359758D01*
X359698Y461743D01*
X359633Y461754D01*
X359562Y461765D01*
X359480Y461781D01*
X359392Y461803D01*
X359305Y461831D01*
X359212Y461858D01*
X359120Y461896D01*
X359027Y461945D01*
X358939Y461994D01*
X358846Y462054D01*
X358765Y462125D01*
X358759Y462131D01*
X358748Y462142D01*
X358726Y462164D01*
X358694Y462196D01*
X358661Y462235D01*
X358623Y462284D01*
X358584Y462338D01*
X358541Y462404D01*
X358497Y462469D01*
X358453Y462551D01*
X358410Y462633D01*
X358371Y462726D01*
X358339Y462824D01*
X358306Y462928D01*
X358284Y463037D01*
X358268Y463152D01*
X358885Y463234D01*
Y463228D01*
X358890Y463212D01*
X358896Y463185D01*
X358907Y463146D01*
X358917Y463103D01*
X358928Y463054D01*
X358967Y462939D01*
X359016Y462813D01*
X359076Y462688D01*
X359152Y462573D01*
X359196Y462524D01*
X359240Y462475D01*
X359245D01*
X359250Y462464D01*
X359267Y462453D01*
X359283Y462437D01*
X359338Y462404D01*
X359414Y462360D01*
X359507Y462317D01*
X359611Y462284D01*
X359736Y462256D01*
X359868Y462246D01*
X359911D01*
X359944Y462251D01*
X359977Y462256D01*
X360026Y462262D01*
X360124Y462284D01*
X360244Y462317D01*
X360370Y462371D01*
X360430Y462409D01*
X360490Y462448D01*
X360550Y462491D01*
X360610Y462546D01*
X360615Y462551D01*
X360621Y462562D01*
X360637Y462579D01*
X360659Y462600D01*
X360681Y462628D01*
X360703Y462666D01*
X360730Y462704D01*
X360763Y462753D01*
X360818Y462862D01*
X360861Y462988D01*
X360899Y463135D01*
X360905Y463212D01*
X360910Y463294D01*
Y463299D01*
Y463310D01*
Y463338D01*
X360905Y463365D01*
X360899Y463403D01*
X360894Y463441D01*
X360878Y463540D01*
X360839Y463654D01*
X360790Y463769D01*
X360757Y463829D01*
X360719Y463883D01*
X360676Y463938D01*
X360626Y463993D01*
X360621Y463998D01*
X360615Y464004D01*
X360599Y464020D01*
X360577Y464036D01*
X360550Y464058D01*
X360517Y464080D01*
X360435Y464135D01*
X360332Y464184D01*
X360211Y464227D01*
X360075Y464260D01*
X359998Y464266D01*
X359922Y464271D01*
X359889D01*
X359851Y464266D01*
X359802D01*
X359736Y464255D01*
X359665Y464244D01*
X359578Y464227D01*
X359485Y464206D01*
X359551Y464746D01*
X359562D01*
X359589Y464741D01*
X359622Y464735D01*
X359693D01*
X359720Y464741D01*
X359758D01*
X359797Y464746D01*
X359889Y464763D01*
X359998Y464784D01*
X360119Y464823D01*
X360244Y464872D01*
X360364Y464943D01*
X360370D01*
X360381Y464954D01*
X360392Y464965D01*
X360414Y464981D01*
X360468Y465030D01*
X360528Y465101D01*
X360583Y465189D01*
X360637Y465298D01*
X360659Y465358D01*
X360670Y465429D01*
X360681Y465500D01*
X360686Y465576D01*
Y465582D01*
Y465592D01*
Y465609D01*
X360681Y465636D01*
X360676Y465696D01*
X360659Y465778D01*
X360632Y465866D01*
X360588Y465958D01*
X360528Y466057D01*
X360495Y466100D01*
X360452Y466144D01*
X360441Y466155D01*
X360408Y466177D01*
X360359Y466215D01*
X360293Y466259D01*
X360206Y466297D01*
X360102Y466335D01*
X359988Y466357D01*
X359857Y466368D01*
X359824D01*
X359797Y466362D01*
X359764D01*
X359731Y466357D01*
X359644Y466340D01*
X359551Y466313D01*
X359447Y466269D01*
X359349Y466215D01*
X359250Y466139D01*
X359240Y466128D01*
X359212Y466095D01*
X359169Y466046D01*
X359125Y465969D01*
X359070Y465876D01*
X359021Y465756D01*
X358978Y465620D01*
X358945Y465461D01*
X358328Y465571D01*
Y465576D01*
X358333Y465598D01*
X358339Y465631D01*
X358350Y465674D01*
X358366Y465724D01*
X358382Y465784D01*
X358404Y465849D01*
X358432Y465920D01*
X358503Y466078D01*
X358541Y466155D01*
X358590Y466237D01*
X358645Y466313D01*
X358704Y466390D01*
X358770Y466466D01*
X358841Y466532D01*
X358846Y466537D01*
X358857Y466548D01*
X358885Y466564D01*
X358912Y466586D01*
X358956Y466613D01*
X358999Y466641D01*
X359054Y466674D01*
X359120Y466706D01*
X359185Y466734D01*
X359261Y466766D01*
X359343Y466794D01*
X359431Y466821D01*
X359529Y466843D01*
X359627Y466859D01*
X359731Y466870D01*
X359840Y466876D01*
X359911D01*
X359949Y466870D01*
D02*
G37*
G36*
X365966Y463332D02*
X364061D01*
Y463954D01*
X365966D01*
Y463332D01*
D02*
G37*
G36*
X387937Y466264D02*
X386278Y466264D01*
Y461820D01*
X385611D01*
Y466264D01*
X383952D01*
Y466859D01*
X387937Y466859D01*
Y466264D01*
D02*
G37*
G36*
X370684Y466854D02*
X370744D01*
X370804Y466848D01*
X370875Y466837D01*
X371017Y466821D01*
X371175Y466794D01*
X371323Y466755D01*
X371464Y466701D01*
X371470D01*
X371481Y466695D01*
X371497Y466684D01*
X371525Y466674D01*
X371585Y466635D01*
X371667Y466586D01*
X371754Y466521D01*
X371841Y466439D01*
X371929Y466340D01*
X372010Y466231D01*
Y466226D01*
X372022Y466215D01*
X372027Y466199D01*
X372043Y466177D01*
X372060Y466149D01*
X372076Y466111D01*
X372114Y466029D01*
X372147Y465931D01*
X372180Y465816D01*
X372202Y465696D01*
X372213Y465565D01*
Y465560D01*
Y465549D01*
Y465532D01*
Y465511D01*
X372202Y465451D01*
X372191Y465369D01*
X372169Y465276D01*
X372136Y465172D01*
X372092Y465068D01*
X372032Y464959D01*
Y464954D01*
X372027Y464948D01*
X372016Y464932D01*
X372000Y464910D01*
X371961Y464861D01*
X371901Y464795D01*
X371830Y464724D01*
X371738Y464648D01*
X371634Y464572D01*
X371508Y464501D01*
X371514D01*
X371530Y464495D01*
X371552Y464484D01*
X371585Y464473D01*
X371623Y464457D01*
X371667Y464440D01*
X371765Y464391D01*
X371880Y464331D01*
X371994Y464249D01*
X372109Y464156D01*
X372207Y464042D01*
X372213Y464036D01*
X372218Y464025D01*
X372229Y464009D01*
X372245Y463987D01*
X372267Y463954D01*
X372289Y463916D01*
X372311Y463873D01*
X372333Y463824D01*
X372376Y463714D01*
X372420Y463583D01*
X372447Y463436D01*
X372458Y463359D01*
Y463277D01*
Y463272D01*
Y463261D01*
Y463245D01*
Y463217D01*
X372453Y463185D01*
Y463152D01*
X372442Y463064D01*
X372420Y462961D01*
X372393Y462852D01*
X372355Y462732D01*
X372305Y462617D01*
Y462611D01*
X372300Y462606D01*
X372289Y462590D01*
X372278Y462568D01*
X372245Y462513D01*
X372202Y462448D01*
X372152Y462371D01*
X372087Y462295D01*
X372016Y462218D01*
X371934Y462147D01*
X371923Y462142D01*
X371896Y462120D01*
X371847Y462093D01*
X371781Y462054D01*
X371705Y462016D01*
X371612Y461973D01*
X371503Y461934D01*
X371383Y461902D01*
X371377D01*
X371366Y461896D01*
X371350D01*
X371323Y461891D01*
X371290Y461885D01*
X371252Y461874D01*
X371208Y461869D01*
X371159Y461863D01*
X371104Y461852D01*
X371039Y461847D01*
X370902Y461831D01*
X370744Y461825D01*
X370569Y461820D01*
X368653D01*
Y466859D01*
X370635D01*
X370684Y466854D01*
D02*
G37*
G36*
X390121Y466870D02*
X390160Y466865D01*
X390258Y466854D01*
X390367Y466837D01*
X390487Y466805D01*
X390607Y466766D01*
X390727Y466712D01*
X390733D01*
X390744Y466706D01*
X390760Y466695D01*
X390782Y466679D01*
X390837Y466646D01*
X390908Y466592D01*
X390989Y466526D01*
X391071Y466444D01*
X391159Y466346D01*
X391235Y466237D01*
Y466231D01*
X391246Y466220D01*
X391252Y466204D01*
X391268Y466182D01*
X391284Y466155D01*
X391306Y466117D01*
X391323Y466073D01*
X391350Y466029D01*
X391399Y465920D01*
X391448Y465795D01*
X391503Y465647D01*
X391546Y465489D01*
Y465483D01*
X391552Y465467D01*
X391557Y465445D01*
X391563Y465407D01*
X391574Y465363D01*
X391585Y465309D01*
X391596Y465248D01*
X391606Y465178D01*
X391612Y465096D01*
X391623Y465008D01*
X391634Y464910D01*
X391645Y464806D01*
X391650Y464692D01*
X391656Y464572D01*
X391661Y464440D01*
Y464304D01*
Y464293D01*
Y464266D01*
Y464217D01*
Y464156D01*
X391656Y464080D01*
X391650Y463998D01*
X391645Y463900D01*
X391639Y463796D01*
X391628Y463682D01*
X391617Y463567D01*
X391585Y463327D01*
X391535Y463092D01*
X391508Y462977D01*
X391475Y462873D01*
Y462868D01*
X391464Y462852D01*
X391459Y462819D01*
X391443Y462786D01*
X391421Y462737D01*
X391399Y462688D01*
X391372Y462628D01*
X391339Y462562D01*
X391263Y462426D01*
X391170Y462289D01*
X391060Y462153D01*
X390995Y462093D01*
X390929Y462033D01*
X390924Y462027D01*
X390913Y462022D01*
X390891Y462005D01*
X390864Y461989D01*
X390831Y461967D01*
X390788Y461940D01*
X390738Y461912D01*
X390678Y461885D01*
X390618Y461858D01*
X390547Y461831D01*
X390476Y461809D01*
X390394Y461781D01*
X390307Y461765D01*
X390214Y461749D01*
X390121Y461743D01*
X390018Y461738D01*
X389985D01*
X389947Y461743D01*
X389897Y461749D01*
X389837Y461754D01*
X389767Y461765D01*
X389690Y461781D01*
X389603Y461803D01*
X389515Y461831D01*
X389422Y461863D01*
X389324Y461907D01*
X389231Y461956D01*
X389139Y462016D01*
X389046Y462087D01*
X388958Y462164D01*
X388877Y462256D01*
X388871Y462262D01*
X388855Y462284D01*
X388833Y462322D01*
X388800Y462377D01*
X388762Y462448D01*
X388718Y462530D01*
X388674Y462633D01*
X388631Y462748D01*
X388582Y462884D01*
X388538Y463032D01*
X388494Y463201D01*
X388456Y463387D01*
X388423Y463589D01*
X388402Y463807D01*
X388385Y464047D01*
X388380Y464304D01*
Y464315D01*
Y464342D01*
Y464391D01*
X388385Y464451D01*
Y464528D01*
X388390Y464615D01*
X388396Y464713D01*
X388402Y464817D01*
X388412Y464932D01*
X388423Y465047D01*
X388456Y465287D01*
X388500Y465521D01*
X388527Y465636D01*
X388560Y465740D01*
Y465745D01*
X388571Y465762D01*
X388582Y465795D01*
X388593Y465833D01*
X388614Y465876D01*
X388636Y465931D01*
X388664Y465986D01*
X388696Y466051D01*
X388773Y466188D01*
X388871Y466324D01*
X388980Y466461D01*
X389040Y466521D01*
X389106Y466581D01*
X389111Y466586D01*
X389122Y466592D01*
X389144Y466608D01*
X389171Y466624D01*
X389204Y466652D01*
X389248Y466674D01*
X389297Y466701D01*
X389357Y466728D01*
X389417Y466755D01*
X389488Y466783D01*
X389564Y466810D01*
X389641Y466832D01*
X389728Y466848D01*
X389821Y466865D01*
X389919Y466870D01*
X390018Y466876D01*
X390083D01*
X390121Y466870D01*
D02*
G37*
G36*
X381178Y466941D02*
X381243Y466936D01*
X381314Y466930D01*
X381391Y466919D01*
X381478Y466903D01*
X381576Y466887D01*
X381675Y466865D01*
X381779Y466837D01*
X381888Y466805D01*
X381997Y466766D01*
X382106Y466723D01*
X382210Y466674D01*
X382319Y466613D01*
X382325Y466608D01*
X382346Y466597D01*
X382374Y466581D01*
X382412Y466553D01*
X382461Y466521D01*
X382510Y466477D01*
X382570Y466428D01*
X382636Y466373D01*
X382707Y466308D01*
X382778Y466237D01*
X382849Y466160D01*
X382920Y466078D01*
X382985Y465991D01*
X383056Y465893D01*
X383116Y465789D01*
X383176Y465680D01*
X383182Y465674D01*
X383187Y465653D01*
X383204Y465620D01*
X383220Y465576D01*
X383247Y465521D01*
X383269Y465451D01*
X383296Y465374D01*
X383324Y465287D01*
X383351Y465194D01*
X383378Y465090D01*
X383406Y464976D01*
X383427Y464861D01*
X383444Y464735D01*
X383460Y464604D01*
X383466Y464473D01*
X383471Y464331D01*
Y464320D01*
Y464298D01*
Y464255D01*
X383466Y464200D01*
X383460Y464135D01*
X383455Y464058D01*
X383444Y463971D01*
X383433Y463873D01*
X383417Y463769D01*
X383395Y463660D01*
X383373Y463545D01*
X383340Y463430D01*
X383302Y463310D01*
X383264Y463196D01*
X383214Y463075D01*
X383160Y462961D01*
X383154Y462955D01*
X383143Y462933D01*
X383127Y462901D01*
X383105Y462862D01*
X383072Y462813D01*
X383034Y462753D01*
X382985Y462688D01*
X382936Y462617D01*
X382876Y462546D01*
X382810Y462469D01*
X382734Y462393D01*
X382658Y462317D01*
X382576Y462246D01*
X382483Y462175D01*
X382384Y462104D01*
X382281Y462044D01*
X382275Y462038D01*
X382254Y462033D01*
X382226Y462016D01*
X382183Y461994D01*
X382128Y461973D01*
X382068Y461945D01*
X381997Y461918D01*
X381915Y461891D01*
X381828Y461863D01*
X381735Y461836D01*
X381631Y461809D01*
X381527Y461787D01*
X381298Y461749D01*
X381178Y461743D01*
X381058Y461738D01*
X380987D01*
X380938Y461743D01*
X380878Y461749D01*
X380801Y461754D01*
X380725Y461765D01*
X380632Y461781D01*
X380539Y461798D01*
X380435Y461820D01*
X380332Y461847D01*
X380222Y461880D01*
X380113Y461918D01*
X380004Y461967D01*
X379895Y462016D01*
X379786Y462076D01*
X379780Y462082D01*
X379764Y462093D01*
X379731Y462114D01*
X379693Y462142D01*
X379649Y462175D01*
X379594Y462218D01*
X379534Y462267D01*
X379469Y462322D01*
X379398Y462388D01*
X379332Y462459D01*
X379261Y462535D01*
X379190Y462617D01*
X379119Y462710D01*
X379054Y462803D01*
X378994Y462906D01*
X378934Y463015D01*
X378928Y463021D01*
X378923Y463043D01*
X378906Y463075D01*
X378890Y463119D01*
X378868Y463174D01*
X378847Y463239D01*
X378819Y463310D01*
X378792Y463398D01*
X378765Y463485D01*
X378737Y463583D01*
X378715Y463687D01*
X378694Y463796D01*
X378661Y464025D01*
X378655Y464151D01*
X378650Y464271D01*
Y464277D01*
Y464288D01*
Y464304D01*
Y464326D01*
X378655Y464359D01*
Y464391D01*
X378661Y464479D01*
X378672Y464582D01*
X378688Y464708D01*
X378705Y464839D01*
X378732Y464986D01*
X378770Y465145D01*
X378814Y465303D01*
X378868Y465467D01*
X378934Y465631D01*
X379010Y465795D01*
X379098Y465947D01*
X379201Y466100D01*
X379322Y466237D01*
X379327Y466242D01*
X379354Y466269D01*
X379393Y466302D01*
X379442Y466346D01*
X379513Y466401D01*
X379589Y466461D01*
X379682Y466526D01*
X379791Y466592D01*
X379911Y466657D01*
X380042Y466723D01*
X380184Y466783D01*
X380343Y466837D01*
X380506Y466881D01*
X380681Y466914D01*
X380867Y466941D01*
X381063Y466947D01*
X381129D01*
X381178Y466941D01*
D02*
G37*
G36*
X375701D02*
X375767Y466936D01*
X375838Y466930D01*
X375914Y466919D01*
X376002Y466903D01*
X376100Y466887D01*
X376198Y466865D01*
X376302Y466837D01*
X376411Y466805D01*
X376520Y466766D01*
X376630Y466723D01*
X376733Y466674D01*
X376843Y466613D01*
X376848Y466608D01*
X376870Y466597D01*
X376897Y466581D01*
X376936Y466553D01*
X376985Y466521D01*
X377034Y466477D01*
X377094Y466428D01*
X377159Y466373D01*
X377230Y466308D01*
X377301Y466237D01*
X377372Y466160D01*
X377443Y466078D01*
X377509Y465991D01*
X377580Y465893D01*
X377640Y465789D01*
X377700Y465680D01*
X377705Y465674D01*
X377711Y465653D01*
X377727Y465620D01*
X377744Y465576D01*
X377771Y465521D01*
X377793Y465451D01*
X377820Y465374D01*
X377847Y465287D01*
X377875Y465194D01*
X377902Y465090D01*
X377929Y464976D01*
X377951Y464861D01*
X377967Y464735D01*
X377984Y464604D01*
X377989Y464473D01*
X377995Y464331D01*
Y464320D01*
Y464298D01*
Y464255D01*
X377989Y464200D01*
X377984Y464135D01*
X377978Y464058D01*
X377967Y463971D01*
X377957Y463873D01*
X377940Y463769D01*
X377918Y463660D01*
X377896Y463545D01*
X377864Y463430D01*
X377825Y463310D01*
X377787Y463196D01*
X377738Y463075D01*
X377683Y462961D01*
X377678Y462955D01*
X377667Y462933D01*
X377651Y462901D01*
X377629Y462862D01*
X377596Y462813D01*
X377558Y462753D01*
X377509Y462688D01*
X377460Y462617D01*
X377400Y462546D01*
X377334Y462469D01*
X377258Y462393D01*
X377181Y462317D01*
X377099Y462246D01*
X377006Y462175D01*
X376908Y462104D01*
X376804Y462044D01*
X376799Y462038D01*
X376777Y462033D01*
X376750Y462016D01*
X376706Y461994D01*
X376652Y461973D01*
X376591Y461945D01*
X376520Y461918D01*
X376439Y461891D01*
X376351Y461863D01*
X376258Y461836D01*
X376155Y461809D01*
X376051Y461787D01*
X375822Y461749D01*
X375701Y461743D01*
X375581Y461738D01*
X375510D01*
X375461Y461743D01*
X375401Y461749D01*
X375325Y461754D01*
X375248Y461765D01*
X375155Y461781D01*
X375063Y461798D01*
X374959Y461820D01*
X374855Y461847D01*
X374746Y461880D01*
X374637Y461918D01*
X374528Y461967D01*
X374418Y462016D01*
X374309Y462076D01*
X374304Y462082D01*
X374287Y462093D01*
X374255Y462114D01*
X374216Y462142D01*
X374173Y462175D01*
X374118Y462218D01*
X374058Y462267D01*
X373992Y462322D01*
X373921Y462388D01*
X373856Y462459D01*
X373785Y462535D01*
X373714Y462617D01*
X373643Y462710D01*
X373578Y462803D01*
X373517Y462906D01*
X373457Y463015D01*
X373452Y463021D01*
X373446Y463043D01*
X373430Y463075D01*
X373414Y463119D01*
X373392Y463174D01*
X373370Y463239D01*
X373343Y463310D01*
X373316Y463398D01*
X373288Y463485D01*
X373261Y463583D01*
X373239Y463687D01*
X373217Y463796D01*
X373184Y464025D01*
X373179Y464151D01*
X373173Y464271D01*
Y464277D01*
Y464288D01*
Y464304D01*
Y464326D01*
X373179Y464359D01*
Y464391D01*
X373184Y464479D01*
X373195Y464582D01*
X373212Y464708D01*
X373228Y464839D01*
X373255Y464986D01*
X373294Y465145D01*
X373337Y465303D01*
X373392Y465467D01*
X373457Y465631D01*
X373534Y465795D01*
X373621Y465947D01*
X373725Y466100D01*
X373845Y466237D01*
X373851Y466242D01*
X373878Y466269D01*
X373916Y466302D01*
X373965Y466346D01*
X374036Y466401D01*
X374113Y466461D01*
X374205Y466526D01*
X374315Y466592D01*
X374435Y466657D01*
X374566Y466723D01*
X374708Y466783D01*
X374866Y466837D01*
X375030Y466881D01*
X375205Y466914D01*
X375390Y466941D01*
X375587Y466947D01*
X375652D01*
X375701Y466941D01*
D02*
G37*
G36*
X376073Y456752D02*
X376111Y456747D01*
X376215Y456736D01*
X376329Y456714D01*
X376460Y456681D01*
X376591Y456637D01*
X376723Y456577D01*
X376728D01*
X376739Y456572D01*
X376755Y456561D01*
X376783Y456545D01*
X376843Y456506D01*
X376919Y456452D01*
X377006Y456381D01*
X377094Y456299D01*
X377181Y456206D01*
X377258Y456097D01*
Y456091D01*
X377263Y456086D01*
X377274Y456064D01*
X377285Y456042D01*
X377301Y456015D01*
X377318Y455982D01*
X377350Y455900D01*
X377383Y455802D01*
X377416Y455693D01*
X377438Y455573D01*
X377443Y455447D01*
Y455442D01*
Y455431D01*
Y455414D01*
Y455393D01*
X377432Y455327D01*
X377421Y455251D01*
X377400Y455158D01*
X377367Y455059D01*
X377323Y454956D01*
X377263Y454852D01*
Y454846D01*
X377258Y454841D01*
X377230Y454808D01*
X377192Y454759D01*
X377132Y454699D01*
X377061Y454628D01*
X376968Y454557D01*
X376865Y454492D01*
X376744Y454426D01*
X376750D01*
X376766Y454421D01*
X376788Y454415D01*
X376821Y454404D01*
X376854Y454393D01*
X376897Y454377D01*
X377001Y454333D01*
X377110Y454273D01*
X377225Y454202D01*
X377340Y454109D01*
X377438Y453995D01*
X377443Y453989D01*
X377449Y453978D01*
X377460Y453962D01*
X377476Y453935D01*
X377498Y453907D01*
X377520Y453869D01*
X377541Y453826D01*
X377563Y453771D01*
X377585Y453716D01*
X377607Y453656D01*
X377651Y453520D01*
X377678Y453361D01*
X377689Y453274D01*
Y453187D01*
Y453181D01*
Y453159D01*
X377683Y453121D01*
Y453078D01*
X377673Y453017D01*
X377662Y452952D01*
X377651Y452881D01*
X377629Y452799D01*
X377602Y452712D01*
X377569Y452624D01*
X377531Y452531D01*
X377482Y452439D01*
X377427Y452340D01*
X377361Y452247D01*
X377290Y452155D01*
X377203Y452067D01*
X377198Y452062D01*
X377181Y452045D01*
X377154Y452024D01*
X377116Y451996D01*
X377072Y451964D01*
X377012Y451925D01*
X376946Y451882D01*
X376870Y451844D01*
X376788Y451800D01*
X376695Y451756D01*
X376597Y451718D01*
X376488Y451685D01*
X376373Y451658D01*
X376253Y451636D01*
X376127Y451620D01*
X375991Y451614D01*
X375964D01*
X375925Y451620D01*
X375882D01*
X375822Y451625D01*
X375756Y451636D01*
X375685Y451647D01*
X375603Y451663D01*
X375516Y451685D01*
X375429Y451713D01*
X375336Y451740D01*
X375243Y451778D01*
X375150Y451827D01*
X375063Y451876D01*
X374970Y451936D01*
X374888Y452007D01*
X374883Y452013D01*
X374872Y452024D01*
X374850Y452045D01*
X374817Y452078D01*
X374784Y452116D01*
X374746Y452166D01*
X374708Y452220D01*
X374664Y452286D01*
X374620Y452351D01*
X374577Y452433D01*
X374533Y452515D01*
X374495Y452608D01*
X374462Y452706D01*
X374429Y452810D01*
X374408Y452919D01*
X374391Y453034D01*
X375008Y453116D01*
Y453110D01*
X375013Y453094D01*
X375019Y453067D01*
X375030Y453028D01*
X375041Y452985D01*
X375052Y452936D01*
X375090Y452821D01*
X375139Y452695D01*
X375199Y452570D01*
X375276Y452455D01*
X375319Y452406D01*
X375363Y452357D01*
X375368D01*
X375374Y452346D01*
X375390Y452335D01*
X375407Y452318D01*
X375461Y452286D01*
X375538Y452242D01*
X375630Y452198D01*
X375734Y452166D01*
X375860Y452138D01*
X375991Y452127D01*
X376035D01*
X376067Y452133D01*
X376100Y452138D01*
X376149Y452144D01*
X376248Y452166D01*
X376368Y452198D01*
X376493Y452253D01*
X376553Y452291D01*
X376613Y452329D01*
X376673Y452373D01*
X376733Y452428D01*
X376739Y452433D01*
X376744Y452444D01*
X376761Y452460D01*
X376783Y452482D01*
X376804Y452510D01*
X376826Y452548D01*
X376854Y452586D01*
X376886Y452635D01*
X376941Y452744D01*
X376985Y452870D01*
X377023Y453017D01*
X377028Y453094D01*
X377034Y453176D01*
Y453181D01*
Y453192D01*
Y453219D01*
X377028Y453247D01*
X377023Y453285D01*
X377017Y453323D01*
X377001Y453421D01*
X376963Y453536D01*
X376914Y453651D01*
X376881Y453711D01*
X376843Y453765D01*
X376799Y453820D01*
X376750Y453875D01*
X376744Y453880D01*
X376739Y453886D01*
X376723Y453902D01*
X376701Y453918D01*
X376673Y453940D01*
X376641Y453962D01*
X376559Y454017D01*
X376455Y454066D01*
X376335Y454109D01*
X376198Y454142D01*
X376122Y454148D01*
X376045Y454153D01*
X376013D01*
X375974Y454148D01*
X375925D01*
X375860Y454137D01*
X375789Y454126D01*
X375701Y454109D01*
X375609Y454088D01*
X375674Y454628D01*
X375685D01*
X375712Y454623D01*
X375745Y454617D01*
X375816D01*
X375844Y454623D01*
X375882D01*
X375920Y454628D01*
X376013Y454644D01*
X376122Y454666D01*
X376242Y454705D01*
X376368Y454754D01*
X376488Y454825D01*
X376493D01*
X376504Y454836D01*
X376515Y454846D01*
X376537Y454863D01*
X376591Y454912D01*
X376652Y454983D01*
X376706Y455070D01*
X376761Y455180D01*
X376783Y455240D01*
X376794Y455311D01*
X376804Y455382D01*
X376810Y455458D01*
Y455464D01*
Y455474D01*
Y455491D01*
X376804Y455518D01*
X376799Y455578D01*
X376783Y455660D01*
X376755Y455747D01*
X376712Y455840D01*
X376652Y455938D01*
X376619Y455982D01*
X376575Y456026D01*
X376564Y456037D01*
X376531Y456059D01*
X376482Y456097D01*
X376417Y456141D01*
X376329Y456179D01*
X376226Y456217D01*
X376111Y456239D01*
X375980Y456250D01*
X375947D01*
X375920Y456244D01*
X375887D01*
X375854Y456239D01*
X375767Y456222D01*
X375674Y456195D01*
X375571Y456151D01*
X375472Y456097D01*
X375374Y456020D01*
X375363Y456009D01*
X375336Y455977D01*
X375292Y455928D01*
X375248Y455851D01*
X375194Y455758D01*
X375145Y455638D01*
X375101Y455502D01*
X375068Y455343D01*
X374451Y455453D01*
Y455458D01*
X374457Y455480D01*
X374462Y455513D01*
X374473Y455556D01*
X374489Y455606D01*
X374506Y455665D01*
X374528Y455731D01*
X374555Y455802D01*
X374626Y455960D01*
X374664Y456037D01*
X374713Y456119D01*
X374768Y456195D01*
X374828Y456272D01*
X374893Y456348D01*
X374964Y456414D01*
X374970Y456419D01*
X374981Y456430D01*
X375008Y456446D01*
X375035Y456468D01*
X375079Y456495D01*
X375123Y456523D01*
X375177Y456556D01*
X375243Y456588D01*
X375308Y456615D01*
X375385Y456648D01*
X375467Y456676D01*
X375554Y456703D01*
X375652Y456725D01*
X375751Y456741D01*
X375854Y456752D01*
X375964Y456757D01*
X376035D01*
X376073Y456752D01*
D02*
G37*
G36*
X370203D02*
X370241Y456747D01*
X370345Y456736D01*
X370460Y456714D01*
X370591Y456681D01*
X370722Y456637D01*
X370853Y456577D01*
X370859D01*
X370869Y456572D01*
X370886Y456561D01*
X370913Y456545D01*
X370973Y456506D01*
X371050Y456452D01*
X371137Y456381D01*
X371224Y456299D01*
X371312Y456206D01*
X371388Y456097D01*
Y456091D01*
X371394Y456086D01*
X371405Y456064D01*
X371415Y456042D01*
X371432Y456015D01*
X371448Y455982D01*
X371481Y455900D01*
X371514Y455802D01*
X371546Y455693D01*
X371568Y455573D01*
X371574Y455447D01*
Y455442D01*
Y455431D01*
Y455414D01*
Y455393D01*
X371563Y455327D01*
X371552Y455251D01*
X371530Y455158D01*
X371497Y455059D01*
X371454Y454956D01*
X371394Y454852D01*
Y454846D01*
X371388Y454841D01*
X371361Y454808D01*
X371323Y454759D01*
X371263Y454699D01*
X371192Y454628D01*
X371099Y454557D01*
X370995Y454492D01*
X370875Y454426D01*
X370880D01*
X370897Y454421D01*
X370918Y454415D01*
X370951Y454404D01*
X370984Y454393D01*
X371028Y454377D01*
X371131Y454333D01*
X371241Y454273D01*
X371355Y454202D01*
X371470Y454109D01*
X371568Y453995D01*
X371574Y453989D01*
X371579Y453978D01*
X371590Y453962D01*
X371606Y453935D01*
X371628Y453907D01*
X371650Y453869D01*
X371672Y453826D01*
X371694Y453771D01*
X371716Y453716D01*
X371738Y453656D01*
X371781Y453520D01*
X371809Y453361D01*
X371819Y453274D01*
Y453187D01*
Y453181D01*
Y453159D01*
X371814Y453121D01*
Y453078D01*
X371803Y453017D01*
X371792Y452952D01*
X371781Y452881D01*
X371759Y452799D01*
X371732Y452712D01*
X371699Y452624D01*
X371661Y452531D01*
X371612Y452439D01*
X371557Y452340D01*
X371492Y452247D01*
X371421Y452155D01*
X371334Y452067D01*
X371328Y452062D01*
X371312Y452045D01*
X371284Y452024D01*
X371246Y451996D01*
X371202Y451964D01*
X371142Y451925D01*
X371077Y451882D01*
X371000Y451844D01*
X370918Y451800D01*
X370826Y451756D01*
X370727Y451718D01*
X370618Y451685D01*
X370504Y451658D01*
X370384Y451636D01*
X370258Y451620D01*
X370121Y451614D01*
X370094D01*
X370056Y451620D01*
X370012D01*
X369952Y451625D01*
X369887Y451636D01*
X369816Y451647D01*
X369734Y451663D01*
X369646Y451685D01*
X369559Y451713D01*
X369466Y451740D01*
X369373Y451778D01*
X369281Y451827D01*
X369193Y451876D01*
X369100Y451936D01*
X369019Y452007D01*
X369013Y452013D01*
X369002Y452024D01*
X368980Y452045D01*
X368948Y452078D01*
X368915Y452116D01*
X368877Y452166D01*
X368838Y452220D01*
X368795Y452286D01*
X368751Y452351D01*
X368707Y452433D01*
X368664Y452515D01*
X368625Y452608D01*
X368593Y452706D01*
X368560Y452810D01*
X368538Y452919D01*
X368522Y453034D01*
X369139Y453116D01*
Y453110D01*
X369144Y453094D01*
X369149Y453067D01*
X369160Y453028D01*
X369171Y452985D01*
X369182Y452936D01*
X369220Y452821D01*
X369270Y452695D01*
X369330Y452570D01*
X369406Y452455D01*
X369450Y452406D01*
X369494Y452357D01*
X369499D01*
X369504Y452346D01*
X369521Y452335D01*
X369537Y452318D01*
X369592Y452286D01*
X369668Y452242D01*
X369761Y452198D01*
X369865Y452166D01*
X369990Y452138D01*
X370121Y452127D01*
X370165D01*
X370198Y452133D01*
X370231Y452138D01*
X370280Y452144D01*
X370378Y452166D01*
X370498Y452198D01*
X370624Y452253D01*
X370684Y452291D01*
X370744Y452329D01*
X370804Y452373D01*
X370864Y452428D01*
X370869Y452433D01*
X370875Y452444D01*
X370891Y452460D01*
X370913Y452482D01*
X370935Y452510D01*
X370957Y452548D01*
X370984Y452586D01*
X371017Y452635D01*
X371071Y452744D01*
X371115Y452870D01*
X371153Y453017D01*
X371159Y453094D01*
X371164Y453176D01*
Y453181D01*
Y453192D01*
Y453219D01*
X371159Y453247D01*
X371153Y453285D01*
X371148Y453323D01*
X371131Y453421D01*
X371093Y453536D01*
X371044Y453651D01*
X371011Y453711D01*
X370973Y453765D01*
X370930Y453820D01*
X370880Y453875D01*
X370875Y453880D01*
X370869Y453886D01*
X370853Y453902D01*
X370831Y453918D01*
X370804Y453940D01*
X370771Y453962D01*
X370689Y454017D01*
X370585Y454066D01*
X370465Y454109D01*
X370329Y454142D01*
X370252Y454148D01*
X370176Y454153D01*
X370143D01*
X370105Y454148D01*
X370056D01*
X369990Y454137D01*
X369919Y454126D01*
X369832Y454109D01*
X369739Y454088D01*
X369805Y454628D01*
X369816D01*
X369843Y454623D01*
X369876Y454617D01*
X369947D01*
X369974Y454623D01*
X370012D01*
X370050Y454628D01*
X370143Y454644D01*
X370252Y454666D01*
X370373Y454705D01*
X370498Y454754D01*
X370618Y454825D01*
X370624D01*
X370635Y454836D01*
X370645Y454846D01*
X370667Y454863D01*
X370722Y454912D01*
X370782Y454983D01*
X370837Y455070D01*
X370891Y455180D01*
X370913Y455240D01*
X370924Y455311D01*
X370935Y455382D01*
X370940Y455458D01*
Y455464D01*
Y455474D01*
Y455491D01*
X370935Y455518D01*
X370930Y455578D01*
X370913Y455660D01*
X370886Y455747D01*
X370842Y455840D01*
X370782Y455938D01*
X370749Y455982D01*
X370706Y456026D01*
X370695Y456037D01*
X370662Y456059D01*
X370613Y456097D01*
X370547Y456141D01*
X370460Y456179D01*
X370356Y456217D01*
X370241Y456239D01*
X370111Y456250D01*
X370078D01*
X370050Y456244D01*
X370018D01*
X369985Y456239D01*
X369898Y456222D01*
X369805Y456195D01*
X369701Y456151D01*
X369603Y456097D01*
X369504Y456020D01*
X369494Y456009D01*
X369466Y455977D01*
X369423Y455928D01*
X369379Y455851D01*
X369324Y455758D01*
X369275Y455638D01*
X369231Y455502D01*
X369199Y455343D01*
X368582Y455453D01*
Y455458D01*
X368587Y455480D01*
X368593Y455513D01*
X368603Y455556D01*
X368620Y455606D01*
X368636Y455665D01*
X368658Y455731D01*
X368685Y455802D01*
X368756Y455960D01*
X368795Y456037D01*
X368844Y456119D01*
X368898Y456195D01*
X368958Y456272D01*
X369024Y456348D01*
X369095Y456414D01*
X369100Y456419D01*
X369111Y456430D01*
X369139Y456446D01*
X369166Y456468D01*
X369210Y456495D01*
X369253Y456523D01*
X369308Y456556D01*
X369373Y456588D01*
X369439Y456615D01*
X369515Y456648D01*
X369597Y456676D01*
X369685Y456703D01*
X369783Y456725D01*
X369881Y456741D01*
X369985Y456752D01*
X370094Y456757D01*
X370165D01*
X370203Y456752D01*
D02*
G37*
G36*
X366054Y453214D02*
X364148D01*
Y453836D01*
X366054D01*
Y453214D01*
D02*
G37*
G36*
X380681Y451702D02*
X379993D01*
X378038Y456741D01*
X378765D01*
X380075Y453078D01*
Y453072D01*
X380080Y453056D01*
X380091Y453034D01*
X380102Y453001D01*
X380113Y452963D01*
X380130Y452919D01*
X380146Y452870D01*
X380168Y452810D01*
X380206Y452684D01*
X380250Y452548D01*
X380293Y452400D01*
X380337Y452253D01*
Y452258D01*
X380343Y452269D01*
X380348Y452297D01*
X380359Y452324D01*
X380370Y452362D01*
X380381Y452406D01*
X380397Y452455D01*
X380414Y452510D01*
X380452Y452635D01*
X380501Y452777D01*
X380555Y452925D01*
X380610Y453078D01*
X381970Y456741D01*
X382647D01*
X380681Y451702D01*
D02*
G37*
G36*
X373485D02*
X372780D01*
Y452406D01*
X373485D01*
Y451702D01*
D02*
G37*
G36*
X360140Y456752D02*
X360201Y456747D01*
X360272Y456736D01*
X360353Y456725D01*
X360435Y456708D01*
X360528Y456686D01*
X360621Y456659D01*
X360719Y456627D01*
X360812Y456588D01*
X360910Y456539D01*
X361003Y456485D01*
X361090Y456424D01*
X361172Y456354D01*
X361178Y456348D01*
X361189Y456337D01*
X361211Y456310D01*
X361238Y456283D01*
X361271Y456244D01*
X361309Y456195D01*
X361347Y456141D01*
X361385Y456075D01*
X361424Y456009D01*
X361462Y455933D01*
X361500Y455851D01*
X361533Y455764D01*
X361560Y455665D01*
X361582Y455567D01*
X361593Y455464D01*
X361598Y455354D01*
Y455349D01*
Y455343D01*
Y455327D01*
Y455305D01*
X361593Y455245D01*
X361582Y455169D01*
X361566Y455076D01*
X361544Y454978D01*
X361516Y454868D01*
X361473Y454759D01*
Y454754D01*
X361467Y454748D01*
X361462Y454732D01*
X361451Y454710D01*
X361418Y454650D01*
X361374Y454573D01*
X361314Y454481D01*
X361243Y454377D01*
X361161Y454268D01*
X361058Y454148D01*
X361052Y454142D01*
X361047Y454131D01*
X361025Y454115D01*
X361003Y454088D01*
X360970Y454055D01*
X360932Y454017D01*
X360889Y453968D01*
X360834Y453918D01*
X360768Y453858D01*
X360697Y453793D01*
X360621Y453716D01*
X360534Y453640D01*
X360441Y453552D01*
X360337Y453465D01*
X360222Y453367D01*
X360102Y453263D01*
X360097Y453258D01*
X360080Y453241D01*
X360048Y453219D01*
X360015Y453187D01*
X359966Y453148D01*
X359917Y453105D01*
X359802Y453007D01*
X359682Y452903D01*
X359567Y452794D01*
X359513Y452744D01*
X359464Y452701D01*
X359420Y452657D01*
X359387Y452624D01*
X359382Y452619D01*
X359360Y452597D01*
X359332Y452564D01*
X359294Y452521D01*
X359250Y452471D01*
X359207Y452417D01*
X359120Y452297D01*
X361604D01*
Y451702D01*
X358268D01*
Y451713D01*
Y451740D01*
Y451783D01*
X358273Y451838D01*
X358279Y451904D01*
X358295Y451974D01*
X358311Y452051D01*
X358339Y452127D01*
Y452133D01*
X358344Y452144D01*
X358350Y452160D01*
X358361Y452187D01*
X358377Y452215D01*
X358393Y452253D01*
X358437Y452340D01*
X358492Y452444D01*
X358563Y452559D01*
X358645Y452679D01*
X358743Y452799D01*
X358748Y452805D01*
X358754Y452815D01*
X358770Y452832D01*
X358797Y452859D01*
X358825Y452886D01*
X358863Y452925D01*
X358901Y452968D01*
X358950Y453017D01*
X359005Y453072D01*
X359065Y453127D01*
X359130Y453192D01*
X359207Y453258D01*
X359283Y453329D01*
X359371Y453400D01*
X359458Y453476D01*
X359556Y453558D01*
X359567Y453563D01*
X359594Y453591D01*
X359633Y453623D01*
X359687Y453673D01*
X359753Y453727D01*
X359829Y453793D01*
X359917Y453864D01*
X360004Y453946D01*
X360190Y454115D01*
X360370Y454295D01*
X360457Y454382D01*
X360539Y454470D01*
X360610Y454552D01*
X360670Y454628D01*
X360676Y454634D01*
X360681Y454644D01*
X360697Y454666D01*
X360714Y454694D01*
X360741Y454732D01*
X360763Y454770D01*
X360818Y454868D01*
X360872Y454983D01*
X360921Y455109D01*
X360954Y455240D01*
X360960Y455305D01*
X360965Y455371D01*
Y455376D01*
Y455387D01*
Y455409D01*
X360960Y455431D01*
Y455464D01*
X360949Y455502D01*
X360932Y455584D01*
X360899Y455682D01*
X360850Y455786D01*
X360823Y455840D01*
X360785Y455889D01*
X360747Y455938D01*
X360697Y455988D01*
X360692Y455993D01*
X360686Y455999D01*
X360670Y456009D01*
X360648Y456026D01*
X360621Y456048D01*
X360588Y456070D01*
X360512Y456119D01*
X360408Y456162D01*
X360293Y456206D01*
X360157Y456233D01*
X360080Y456244D01*
X359960D01*
X359928Y456239D01*
X359889D01*
X359846Y456228D01*
X359747Y456212D01*
X359633Y456179D01*
X359513Y456130D01*
X359453Y456097D01*
X359392Y456064D01*
X359338Y456020D01*
X359283Y455971D01*
X359278Y455966D01*
X359272Y455960D01*
X359261Y455944D01*
X359240Y455922D01*
X359223Y455895D01*
X359201Y455862D01*
X359174Y455824D01*
X359152Y455780D01*
X359125Y455731D01*
X359103Y455676D01*
X359059Y455545D01*
X359027Y455403D01*
X359021Y455322D01*
X359016Y455234D01*
X358382Y455300D01*
Y455311D01*
X358388Y455332D01*
X358393Y455365D01*
X358399Y455414D01*
X358410Y455474D01*
X358426Y455545D01*
X358442Y455622D01*
X358470Y455704D01*
X358497Y455786D01*
X358530Y455878D01*
X358574Y455966D01*
X358617Y456053D01*
X358672Y456146D01*
X358732Y456228D01*
X358797Y456310D01*
X358874Y456381D01*
X358879Y456386D01*
X358896Y456397D01*
X358917Y456414D01*
X358950Y456441D01*
X358994Y456468D01*
X359049Y456501D01*
X359109Y456534D01*
X359179Y456572D01*
X359256Y456605D01*
X359343Y456637D01*
X359436Y456670D01*
X359540Y456698D01*
X359649Y456725D01*
X359764Y456741D01*
X359889Y456752D01*
X360020Y456757D01*
X360091D01*
X360140Y456752D01*
D02*
G37*
G36*
X239174Y471147D02*
X241063Y468504D01*
X240250D01*
X238972Y470300D01*
X238966Y470306D01*
X238956Y470328D01*
X238934Y470355D01*
X238906Y470399D01*
X238874Y470442D01*
X238841Y470491D01*
X238765Y470606D01*
Y470601D01*
X238759Y470595D01*
X238737Y470562D01*
X238710Y470519D01*
X238672Y470464D01*
X238590Y470349D01*
X238557Y470295D01*
X238524Y470251D01*
X237247Y468504D01*
X236444D01*
X238393Y471114D01*
X236673Y473544D01*
X237465D01*
X238388Y472250D01*
X238393Y472244D01*
X238399Y472233D01*
X238415Y472211D01*
X238437Y472184D01*
X238459Y472151D01*
X238486Y472113D01*
X238546Y472026D01*
X238612Y471922D01*
X238677Y471824D01*
X238743Y471720D01*
X238792Y471632D01*
Y471638D01*
X238797Y471643D01*
X238808Y471660D01*
X238825Y471682D01*
X238857Y471731D01*
X238906Y471802D01*
X238966Y471889D01*
X239032Y471987D01*
X239114Y472091D01*
X239196Y472200D01*
X240200Y473544D01*
X240927D01*
X239174Y471147D01*
D02*
G37*
G36*
X236269Y472948D02*
X234609D01*
Y468504D01*
X233943D01*
Y472948D01*
X232283D01*
Y473544D01*
X236269D01*
Y472948D01*
D02*
G37*
G36*
X234943Y455873D02*
X234997Y455867D01*
X235057Y455862D01*
X235128Y455856D01*
X235281Y455834D01*
X235450Y455802D01*
X235619Y455758D01*
X235789Y455698D01*
X235794D01*
X235811Y455692D01*
X235833Y455682D01*
X235860Y455665D01*
X235898Y455649D01*
X235942Y455627D01*
X236040Y455572D01*
X236155Y455501D01*
X236269Y455419D01*
X236379Y455321D01*
X236482Y455207D01*
X236488Y455201D01*
X236493Y455190D01*
X236504Y455174D01*
X236526Y455152D01*
X236542Y455119D01*
X236570Y455081D01*
X236597Y455037D01*
X236624Y454983D01*
X236657Y454928D01*
X236684Y454868D01*
X236717Y454797D01*
X236750Y454726D01*
X236810Y454562D01*
X236864Y454382D01*
X236258Y454218D01*
Y454224D01*
X236253Y454235D01*
X236247Y454256D01*
X236237Y454284D01*
X236226Y454311D01*
X236215Y454349D01*
X236182Y454437D01*
X236138Y454535D01*
X236089Y454633D01*
X236034Y454732D01*
X235974Y454819D01*
X235969Y454830D01*
X235942Y454857D01*
X235903Y454895D01*
X235854Y454950D01*
X235783Y455005D01*
X235701Y455065D01*
X235603Y455119D01*
X235494Y455174D01*
X235489D01*
X235478Y455179D01*
X235461Y455185D01*
X235439Y455196D01*
X235412Y455207D01*
X235374Y455218D01*
X235292Y455245D01*
X235188Y455267D01*
X235073Y455289D01*
X234943Y455305D01*
X234806Y455310D01*
X234730D01*
X234691Y455305D01*
X234642D01*
X234593Y455299D01*
X234533Y455294D01*
X234413Y455277D01*
X234276Y455250D01*
X234145Y455218D01*
X234014Y455168D01*
X234009D01*
X233998Y455163D01*
X233981Y455152D01*
X233960Y455141D01*
X233900Y455114D01*
X233823Y455070D01*
X233736Y455016D01*
X233648Y454950D01*
X233556Y454879D01*
X233474Y454797D01*
X233463Y454786D01*
X233441Y454759D01*
X233403Y454710D01*
X233359Y454650D01*
X233310Y454579D01*
X233255Y454491D01*
X233206Y454398D01*
X233162Y454300D01*
Y454295D01*
X233157Y454278D01*
X233146Y454256D01*
X233135Y454218D01*
X233119Y454175D01*
X233102Y454125D01*
X233086Y454065D01*
X233070Y454000D01*
X233048Y453929D01*
X233032Y453847D01*
X233004Y453678D01*
X232982Y453487D01*
X232971Y453285D01*
Y453279D01*
Y453257D01*
Y453219D01*
X232977Y453175D01*
Y453115D01*
X232982Y453050D01*
X232993Y452973D01*
X232999Y452891D01*
X233026Y452711D01*
X233070Y452526D01*
X233124Y452335D01*
X233201Y452154D01*
X233206Y452149D01*
X233212Y452133D01*
X233223Y452111D01*
X233244Y452078D01*
X233266Y452045D01*
X233299Y452001D01*
X233370Y451903D01*
X233468Y451794D01*
X233583Y451679D01*
X233714Y451576D01*
X233790Y451526D01*
X233872Y451483D01*
X233878D01*
X233894Y451472D01*
X233916Y451461D01*
X233949Y451450D01*
X233992Y451434D01*
X234042Y451412D01*
X234096Y451396D01*
X234156Y451374D01*
X234222Y451352D01*
X234298Y451335D01*
X234456Y451297D01*
X234631Y451275D01*
X234817Y451264D01*
X234861D01*
X234893Y451270D01*
X234932D01*
X234975Y451275D01*
X235024Y451281D01*
X235084Y451286D01*
X235210Y451303D01*
X235352Y451335D01*
X235505Y451374D01*
X235658Y451428D01*
X235663D01*
X235674Y451434D01*
X235696Y451445D01*
X235729Y451455D01*
X235761Y451472D01*
X235800Y451494D01*
X235893Y451537D01*
X235996Y451592D01*
X236100Y451652D01*
X236198Y451712D01*
X236286Y451783D01*
Y452728D01*
X234806D01*
Y453323D01*
X236941D01*
Y451450D01*
X236935Y451445D01*
X236919Y451434D01*
X236892Y451412D01*
X236854Y451385D01*
X236810Y451352D01*
X236755Y451319D01*
X236695Y451275D01*
X236630Y451232D01*
X236559Y451188D01*
X236477Y451139D01*
X236308Y451041D01*
X236122Y450948D01*
X235925Y450866D01*
X235920D01*
X235903Y450855D01*
X235876Y450849D01*
X235833Y450833D01*
X235789Y450822D01*
X235729Y450806D01*
X235669Y450784D01*
X235598Y450768D01*
X235516Y450751D01*
X235434Y450729D01*
X235254Y450702D01*
X235057Y450680D01*
X234855Y450669D01*
X234784D01*
X234730Y450675D01*
X234664Y450680D01*
X234588Y450686D01*
X234500Y450697D01*
X234407Y450707D01*
X234309Y450724D01*
X234200Y450746D01*
X234091Y450773D01*
X233971Y450806D01*
X233856Y450839D01*
X233741Y450882D01*
X233621Y450931D01*
X233506Y450986D01*
X233501Y450991D01*
X233479Y451002D01*
X233446Y451019D01*
X233408Y451046D01*
X233359Y451079D01*
X233299Y451117D01*
X233233Y451166D01*
X233162Y451221D01*
X233091Y451281D01*
X233015Y451352D01*
X232939Y451423D01*
X232862Y451505D01*
X232791Y451597D01*
X232720Y451690D01*
X232649Y451794D01*
X232589Y451903D01*
X232584Y451909D01*
X232578Y451931D01*
X232562Y451963D01*
X232540Y452007D01*
X232518Y452067D01*
X232491Y452133D01*
X232464Y452209D01*
X232436Y452296D01*
X232409Y452389D01*
X232382Y452493D01*
X232354Y452608D01*
X232333Y452722D01*
X232311Y452848D01*
X232294Y452973D01*
X232289Y453110D01*
X232283Y453246D01*
Y453257D01*
Y453279D01*
Y453317D01*
X232289Y453372D01*
X232294Y453438D01*
X232300Y453514D01*
X232311Y453601D01*
X232322Y453694D01*
X232338Y453798D01*
X232360Y453907D01*
X232415Y454136D01*
X232447Y454256D01*
X232491Y454377D01*
X232535Y454497D01*
X232589Y454617D01*
X232595Y454622D01*
X232606Y454644D01*
X232622Y454677D01*
X232644Y454721D01*
X232677Y454775D01*
X232715Y454835D01*
X232764Y454901D01*
X232813Y454977D01*
X232873Y455054D01*
X232939Y455130D01*
X233010Y455207D01*
X233091Y455289D01*
X233173Y455365D01*
X233266Y455436D01*
X233365Y455507D01*
X233468Y455567D01*
X233474Y455572D01*
X233496Y455578D01*
X233528Y455594D01*
X233572Y455616D01*
X233627Y455638D01*
X233692Y455665D01*
X233769Y455692D01*
X233851Y455725D01*
X233943Y455753D01*
X234047Y455780D01*
X234156Y455807D01*
X234276Y455829D01*
X234397Y455851D01*
X234527Y455867D01*
X234664Y455873D01*
X234801Y455878D01*
X234893D01*
X234943Y455873D01*
D02*
G37*
G36*
X241888Y450751D02*
X241200D01*
X238557Y454704D01*
Y450751D01*
X237918D01*
Y455791D01*
X238601D01*
X241249Y451832D01*
Y455791D01*
X241888D01*
Y450751D01*
D02*
G37*
G36*
X244940Y455785D02*
X245005D01*
X245071Y455780D01*
X245218Y455774D01*
X245366Y455758D01*
X245513Y455742D01*
X245579Y455725D01*
X245639Y455714D01*
X245644D01*
X245660Y455709D01*
X245682Y455703D01*
X245710Y455692D01*
X245748Y455682D01*
X245792Y455671D01*
X245895Y455632D01*
X246010Y455583D01*
X246130Y455523D01*
X246256Y455447D01*
X246376Y455354D01*
X246381Y455348D01*
X246392Y455338D01*
X246414Y455321D01*
X246441Y455294D01*
X246474Y455261D01*
X246512Y455218D01*
X246556Y455174D01*
X246600Y455119D01*
X246649Y455059D01*
X246698Y454994D01*
X246747Y454923D01*
X246796Y454846D01*
X246889Y454677D01*
X246971Y454491D01*
Y454486D01*
X246982Y454469D01*
X246987Y454437D01*
X247004Y454398D01*
X247020Y454349D01*
X247036Y454289D01*
X247053Y454224D01*
X247075Y454147D01*
X247091Y454060D01*
X247107Y453967D01*
X247124Y453869D01*
X247140Y453765D01*
X247157Y453656D01*
X247162Y453541D01*
X247173Y453296D01*
Y453290D01*
Y453268D01*
Y453241D01*
Y453197D01*
X247167Y453148D01*
Y453088D01*
X247162Y453023D01*
X247157Y452952D01*
X247140Y452793D01*
X247113Y452624D01*
X247080Y452449D01*
X247036Y452275D01*
Y452269D01*
X247031Y452253D01*
X247020Y452231D01*
X247014Y452204D01*
X246998Y452165D01*
X246982Y452122D01*
X246944Y452018D01*
X246894Y451903D01*
X246834Y451778D01*
X246769Y451658D01*
X246692Y451543D01*
Y451537D01*
X246681Y451532D01*
X246671Y451516D01*
X246654Y451494D01*
X246616Y451445D01*
X246556Y451379D01*
X246490Y451303D01*
X246414Y451226D01*
X246327Y451155D01*
X246234Y451084D01*
X246228D01*
X246223Y451079D01*
X246190Y451057D01*
X246135Y451030D01*
X246064Y450991D01*
X245977Y450953D01*
X245873Y450910D01*
X245753Y450871D01*
X245628Y450833D01*
X245622D01*
X245611Y450828D01*
X245595D01*
X245568Y450822D01*
X245535Y450817D01*
X245491Y450806D01*
X245447Y450800D01*
X245398Y450795D01*
X245278Y450778D01*
X245142Y450762D01*
X244989Y450757D01*
X244825Y450751D01*
X243007D01*
Y455791D01*
X244885D01*
X244940Y455785D01*
D02*
G37*
G36*
X370706Y445873D02*
X370760Y445867D01*
X370820Y445862D01*
X370891Y445856D01*
X371044Y445834D01*
X371213Y445802D01*
X371383Y445758D01*
X371552Y445698D01*
X371557D01*
X371574Y445692D01*
X371596Y445682D01*
X371623Y445665D01*
X371661Y445649D01*
X371705Y445627D01*
X371803Y445572D01*
X371918Y445501D01*
X372032Y445420D01*
X372142Y445321D01*
X372245Y445207D01*
X372251Y445201D01*
X372256Y445190D01*
X372267Y445174D01*
X372289Y445152D01*
X372305Y445119D01*
X372333Y445081D01*
X372360Y445037D01*
X372387Y444983D01*
X372420Y444928D01*
X372447Y444868D01*
X372480Y444797D01*
X372513Y444726D01*
X372573Y444562D01*
X372627Y444382D01*
X372022Y444218D01*
Y444224D01*
X372016Y444235D01*
X372010Y444256D01*
X372000Y444284D01*
X371989Y444311D01*
X371978Y444349D01*
X371945Y444437D01*
X371901Y444535D01*
X371852Y444633D01*
X371798Y444732D01*
X371738Y444819D01*
X371732Y444830D01*
X371705Y444857D01*
X371667Y444895D01*
X371617Y444950D01*
X371546Y445005D01*
X371464Y445065D01*
X371366Y445119D01*
X371257Y445174D01*
X371252D01*
X371241Y445179D01*
X371224Y445185D01*
X371202Y445196D01*
X371175Y445207D01*
X371137Y445218D01*
X371055Y445245D01*
X370951Y445267D01*
X370837Y445289D01*
X370706Y445305D01*
X370569Y445310D01*
X370493D01*
X370454Y445305D01*
X370405D01*
X370356Y445299D01*
X370296Y445294D01*
X370176Y445278D01*
X370040Y445250D01*
X369908Y445218D01*
X369777Y445168D01*
X369772D01*
X369761Y445163D01*
X369745Y445152D01*
X369723Y445141D01*
X369663Y445114D01*
X369586Y445070D01*
X369499Y445015D01*
X369412Y444950D01*
X369319Y444879D01*
X369237Y444797D01*
X369226Y444786D01*
X369204Y444759D01*
X369166Y444710D01*
X369122Y444650D01*
X369073Y444579D01*
X369019Y444491D01*
X368969Y444398D01*
X368926Y444300D01*
Y444295D01*
X368920Y444278D01*
X368909Y444256D01*
X368898Y444218D01*
X368882Y444175D01*
X368866Y444126D01*
X368849Y444065D01*
X368833Y444000D01*
X368811Y443929D01*
X368795Y443847D01*
X368767Y443678D01*
X368745Y443487D01*
X368735Y443285D01*
Y443279D01*
Y443257D01*
Y443219D01*
X368740Y443175D01*
Y443115D01*
X368745Y443050D01*
X368756Y442973D01*
X368762Y442892D01*
X368789Y442711D01*
X368833Y442526D01*
X368887Y442335D01*
X368964Y442154D01*
X368969Y442149D01*
X368975Y442133D01*
X368986Y442111D01*
X369007Y442078D01*
X369029Y442045D01*
X369062Y442001D01*
X369133Y441903D01*
X369231Y441794D01*
X369346Y441679D01*
X369477Y441576D01*
X369553Y441527D01*
X369635Y441483D01*
X369641D01*
X369657Y441472D01*
X369679Y441461D01*
X369712Y441450D01*
X369756Y441434D01*
X369805Y441412D01*
X369859Y441396D01*
X369919Y441374D01*
X369985Y441352D01*
X370061Y441335D01*
X370220Y441297D01*
X370394Y441275D01*
X370580Y441264D01*
X370624D01*
X370656Y441270D01*
X370695D01*
X370738Y441275D01*
X370788Y441281D01*
X370848Y441286D01*
X370973Y441303D01*
X371115Y441335D01*
X371268Y441374D01*
X371421Y441428D01*
X371426D01*
X371437Y441434D01*
X371459Y441445D01*
X371492Y441456D01*
X371525Y441472D01*
X371563Y441494D01*
X371656Y441537D01*
X371759Y441592D01*
X371863Y441652D01*
X371961Y441712D01*
X372049Y441783D01*
Y442728D01*
X370569D01*
Y443323D01*
X372704D01*
Y441450D01*
X372698Y441445D01*
X372682Y441434D01*
X372655Y441412D01*
X372617Y441385D01*
X372573Y441352D01*
X372518Y441319D01*
X372458Y441275D01*
X372393Y441232D01*
X372322Y441188D01*
X372240Y441139D01*
X372071Y441041D01*
X371885Y440948D01*
X371688Y440866D01*
X371683D01*
X371667Y440855D01*
X371639Y440849D01*
X371596Y440833D01*
X371552Y440822D01*
X371492Y440806D01*
X371432Y440784D01*
X371361Y440768D01*
X371279Y440751D01*
X371197Y440729D01*
X371017Y440702D01*
X370820Y440680D01*
X370618Y440669D01*
X370547D01*
X370493Y440675D01*
X370427Y440680D01*
X370351Y440686D01*
X370263Y440697D01*
X370170Y440707D01*
X370072Y440724D01*
X369963Y440746D01*
X369854Y440773D01*
X369734Y440806D01*
X369619Y440839D01*
X369504Y440882D01*
X369384Y440931D01*
X369270Y440986D01*
X369264Y440991D01*
X369242Y441002D01*
X369210Y441019D01*
X369171Y441046D01*
X369122Y441079D01*
X369062Y441117D01*
X368997Y441166D01*
X368926Y441221D01*
X368855Y441281D01*
X368778Y441352D01*
X368702Y441423D01*
X368625Y441505D01*
X368554Y441598D01*
X368483Y441690D01*
X368412Y441794D01*
X368352Y441903D01*
X368347Y441909D01*
X368341Y441931D01*
X368325Y441963D01*
X368303Y442007D01*
X368281Y442067D01*
X368254Y442133D01*
X368227Y442209D01*
X368199Y442296D01*
X368172Y442389D01*
X368145Y442493D01*
X368118Y442608D01*
X368096Y442722D01*
X368074Y442848D01*
X368057Y442973D01*
X368052Y443110D01*
X368047Y443246D01*
Y443257D01*
Y443279D01*
Y443317D01*
X368052Y443372D01*
X368057Y443437D01*
X368063Y443514D01*
X368074Y443601D01*
X368085Y443694D01*
X368101Y443798D01*
X368123Y443907D01*
X368178Y444136D01*
X368210Y444256D01*
X368254Y444377D01*
X368298Y444497D01*
X368352Y444617D01*
X368358Y444622D01*
X368369Y444644D01*
X368385Y444677D01*
X368407Y444721D01*
X368440Y444775D01*
X368478Y444835D01*
X368527Y444901D01*
X368576Y444977D01*
X368636Y445054D01*
X368702Y445130D01*
X368773Y445207D01*
X368855Y445289D01*
X368937Y445365D01*
X369029Y445436D01*
X369128Y445507D01*
X369231Y445567D01*
X369237Y445572D01*
X369259Y445578D01*
X369291Y445594D01*
X369335Y445616D01*
X369390Y445638D01*
X369455Y445665D01*
X369532Y445692D01*
X369614Y445725D01*
X369706Y445753D01*
X369810Y445780D01*
X369919Y445807D01*
X370040Y445829D01*
X370160Y445851D01*
X370291Y445867D01*
X370427Y445873D01*
X370564Y445878D01*
X370656D01*
X370706Y445873D01*
D02*
G37*
G36*
X365497Y442264D02*
X363591D01*
Y442886D01*
X365497D01*
Y442264D01*
D02*
G37*
G36*
X377651Y440751D02*
X376963D01*
X374320Y444704D01*
Y440751D01*
X373681D01*
Y445791D01*
X374364D01*
X377012Y441832D01*
Y445791D01*
X377651D01*
Y440751D01*
D02*
G37*
G36*
X380703Y445785D02*
X380768D01*
X380834Y445780D01*
X380981Y445774D01*
X381129Y445758D01*
X381276Y445742D01*
X381342Y445725D01*
X381402Y445714D01*
X381407D01*
X381424Y445709D01*
X381445Y445703D01*
X381473Y445692D01*
X381511Y445682D01*
X381555Y445671D01*
X381658Y445632D01*
X381773Y445583D01*
X381893Y445523D01*
X382019Y445447D01*
X382139Y445354D01*
X382144Y445349D01*
X382155Y445338D01*
X382177Y445321D01*
X382204Y445294D01*
X382237Y445261D01*
X382275Y445218D01*
X382319Y445174D01*
X382363Y445119D01*
X382412Y445059D01*
X382461Y444994D01*
X382510Y444923D01*
X382559Y444846D01*
X382652Y444677D01*
X382734Y444491D01*
Y444486D01*
X382745Y444469D01*
X382750Y444437D01*
X382767Y444398D01*
X382783Y444349D01*
X382800Y444289D01*
X382816Y444224D01*
X382838Y444147D01*
X382854Y444060D01*
X382871Y443967D01*
X382887Y443869D01*
X382903Y443765D01*
X382920Y443656D01*
X382925Y443541D01*
X382936Y443296D01*
Y443290D01*
Y443268D01*
Y443241D01*
Y443197D01*
X382930Y443148D01*
Y443088D01*
X382925Y443023D01*
X382920Y442952D01*
X382903Y442793D01*
X382876Y442624D01*
X382843Y442449D01*
X382800Y442275D01*
Y442269D01*
X382794Y442253D01*
X382783Y442231D01*
X382778Y442204D01*
X382761Y442165D01*
X382745Y442122D01*
X382707Y442018D01*
X382658Y441903D01*
X382597Y441778D01*
X382532Y441658D01*
X382455Y441543D01*
Y441537D01*
X382445Y441532D01*
X382434Y441516D01*
X382417Y441494D01*
X382379Y441445D01*
X382319Y441379D01*
X382254Y441303D01*
X382177Y441226D01*
X382090Y441155D01*
X381997Y441084D01*
X381991D01*
X381986Y441079D01*
X381953Y441057D01*
X381899Y441030D01*
X381828Y440991D01*
X381740Y440953D01*
X381637Y440909D01*
X381516Y440871D01*
X381391Y440833D01*
X381385D01*
X381374Y440828D01*
X381358D01*
X381331Y440822D01*
X381298Y440817D01*
X381254Y440806D01*
X381211Y440800D01*
X381161Y440795D01*
X381041Y440778D01*
X380905Y440762D01*
X380752Y440757D01*
X380588Y440751D01*
X378770D01*
Y445791D01*
X380648D01*
X380703Y445785D01*
D02*
G37*
G36*
X360124Y440751D02*
X359507D01*
Y444688D01*
X359496Y444677D01*
X359469Y444650D01*
X359420Y444611D01*
X359349Y444557D01*
X359267Y444491D01*
X359163Y444420D01*
X359049Y444344D01*
X358917Y444262D01*
X358912D01*
X358901Y444251D01*
X358885Y444240D01*
X358857Y444229D01*
X358825Y444207D01*
X358786Y444191D01*
X358699Y444142D01*
X358601Y444093D01*
X358492Y444038D01*
X358377Y443989D01*
X358268Y443945D01*
Y444540D01*
X358273Y444546D01*
X358290Y444551D01*
X358317Y444568D01*
X358355Y444584D01*
X358399Y444606D01*
X358453Y444639D01*
X358513Y444671D01*
X358574Y444704D01*
X358715Y444792D01*
X358868Y444895D01*
X359027Y445005D01*
X359174Y445130D01*
X359179Y445136D01*
X359191Y445147D01*
X359212Y445163D01*
X359240Y445190D01*
X359267Y445223D01*
X359305Y445256D01*
X359387Y445349D01*
X359480Y445447D01*
X359573Y445562D01*
X359655Y445682D01*
X359725Y445807D01*
X360124D01*
Y440751D01*
D02*
G37*
G36*
X283064Y460077D02*
X281404D01*
Y455633D01*
X280738D01*
Y460077D01*
X279079D01*
Y460673D01*
X283064D01*
Y460077D01*
D02*
G37*
G36*
X265811Y460667D02*
X265871D01*
X265931Y460662D01*
X266002Y460651D01*
X266144Y460635D01*
X266302Y460607D01*
X266449Y460569D01*
X266591Y460514D01*
X266597D01*
X266608Y460509D01*
X266624Y460498D01*
X266652Y460487D01*
X266711Y460449D01*
X266793Y460400D01*
X266881Y460334D01*
X266968Y460252D01*
X267056Y460154D01*
X267137Y460045D01*
Y460039D01*
X267148Y460028D01*
X267154Y460012D01*
X267170Y459990D01*
X267187Y459963D01*
X267203Y459925D01*
X267241Y459843D01*
X267274Y459745D01*
X267307Y459630D01*
X267329Y459510D01*
X267339Y459379D01*
Y459373D01*
Y459362D01*
Y459346D01*
Y459324D01*
X267329Y459264D01*
X267318Y459182D01*
X267296Y459089D01*
X267263Y458986D01*
X267219Y458882D01*
X267159Y458773D01*
Y458767D01*
X267154Y458762D01*
X267143Y458745D01*
X267126Y458723D01*
X267088Y458674D01*
X267028Y458609D01*
X266957Y458538D01*
X266864Y458461D01*
X266761Y458385D01*
X266635Y458314D01*
X266641D01*
X266657Y458309D01*
X266679Y458298D01*
X266711Y458287D01*
X266750Y458270D01*
X266793Y458254D01*
X266892Y458205D01*
X267006Y458145D01*
X267121Y458063D01*
X267236Y457970D01*
X267334Y457855D01*
X267339Y457850D01*
X267345Y457839D01*
X267356Y457823D01*
X267372Y457801D01*
X267394Y457768D01*
X267416Y457730D01*
X267438Y457686D01*
X267460Y457637D01*
X267503Y457528D01*
X267547Y457397D01*
X267574Y457249D01*
X267585Y457173D01*
Y457091D01*
Y457086D01*
Y457074D01*
Y457058D01*
Y457031D01*
X267580Y456998D01*
Y456965D01*
X267569Y456878D01*
X267547Y456774D01*
X267520Y456665D01*
X267481Y456545D01*
X267432Y456430D01*
Y456425D01*
X267427Y456419D01*
X267416Y456403D01*
X267405Y456381D01*
X267372Y456326D01*
X267329Y456261D01*
X267279Y456185D01*
X267214Y456108D01*
X267143Y456032D01*
X267061Y455961D01*
X267050Y455955D01*
X267023Y455933D01*
X266974Y455906D01*
X266908Y455868D01*
X266832Y455830D01*
X266739Y455786D01*
X266630Y455748D01*
X266510Y455715D01*
X266504D01*
X266493Y455710D01*
X266477D01*
X266449Y455704D01*
X266417Y455699D01*
X266378Y455688D01*
X266335Y455682D01*
X266286Y455677D01*
X266231Y455666D01*
X266165Y455660D01*
X266029Y455644D01*
X265871Y455639D01*
X265696Y455633D01*
X263779D01*
Y460673D01*
X265761D01*
X265811Y460667D01*
D02*
G37*
G36*
X276305Y460755D02*
X276370Y460749D01*
X276441Y460744D01*
X276518Y460733D01*
X276605Y460716D01*
X276703Y460700D01*
X276802Y460678D01*
X276905Y460651D01*
X277015Y460618D01*
X277124Y460580D01*
X277233Y460536D01*
X277337Y460487D01*
X277446Y460427D01*
X277451Y460422D01*
X277473Y460411D01*
X277501Y460394D01*
X277539Y460367D01*
X277588Y460334D01*
X277637Y460290D01*
X277697Y460241D01*
X277763Y460187D01*
X277834Y460121D01*
X277905Y460050D01*
X277976Y459974D01*
X278046Y459892D01*
X278112Y459804D01*
X278183Y459706D01*
X278243Y459602D01*
X278303Y459493D01*
X278309Y459488D01*
X278314Y459466D01*
X278330Y459433D01*
X278347Y459390D01*
X278374Y459335D01*
X278396Y459264D01*
X278423Y459188D01*
X278451Y459100D01*
X278478Y459007D01*
X278505Y458904D01*
X278533Y458789D01*
X278554Y458674D01*
X278571Y458549D01*
X278587Y458418D01*
X278592Y458287D01*
X278598Y458145D01*
Y458134D01*
Y458112D01*
Y458068D01*
X278592Y458014D01*
X278587Y457948D01*
X278582Y457872D01*
X278571Y457784D01*
X278560Y457686D01*
X278543Y457582D01*
X278521Y457473D01*
X278500Y457358D01*
X278467Y457244D01*
X278429Y457124D01*
X278391Y457009D01*
X278341Y456889D01*
X278287Y456774D01*
X278281Y456769D01*
X278270Y456747D01*
X278254Y456714D01*
X278232Y456676D01*
X278199Y456627D01*
X278161Y456567D01*
X278112Y456501D01*
X278063Y456430D01*
X278003Y456359D01*
X277937Y456283D01*
X277861Y456206D01*
X277784Y456130D01*
X277702Y456059D01*
X277610Y455988D01*
X277511Y455917D01*
X277408Y455857D01*
X277402Y455852D01*
X277380Y455846D01*
X277353Y455830D01*
X277309Y455808D01*
X277255Y455786D01*
X277195Y455759D01*
X277124Y455731D01*
X277042Y455704D01*
X276955Y455677D01*
X276862Y455650D01*
X276758Y455622D01*
X276654Y455600D01*
X276425Y455562D01*
X276305Y455557D01*
X276185Y455551D01*
X276114D01*
X276064Y455557D01*
X276005Y455562D01*
X275928Y455568D01*
X275852Y455579D01*
X275759Y455595D01*
X275666Y455611D01*
X275562Y455633D01*
X275459Y455660D01*
X275349Y455693D01*
X275240Y455731D01*
X275131Y455781D01*
X275022Y455830D01*
X274913Y455890D01*
X274907Y455895D01*
X274891Y455906D01*
X274858Y455928D01*
X274820Y455955D01*
X274776Y455988D01*
X274721Y456032D01*
X274661Y456081D01*
X274596Y456135D01*
X274525Y456201D01*
X274459Y456272D01*
X274388Y456348D01*
X274317Y456430D01*
X274246Y456523D01*
X274181Y456616D01*
X274121Y456720D01*
X274061Y456829D01*
X274055Y456834D01*
X274050Y456856D01*
X274033Y456889D01*
X274017Y456933D01*
X273995Y456987D01*
X273973Y457053D01*
X273946Y457124D01*
X273919Y457211D01*
X273891Y457298D01*
X273864Y457397D01*
X273842Y457500D01*
X273820Y457610D01*
X273788Y457839D01*
X273782Y457965D01*
X273777Y458085D01*
Y458090D01*
Y458101D01*
Y458117D01*
Y458139D01*
X273782Y458172D01*
Y458205D01*
X273788Y458292D01*
X273799Y458396D01*
X273815Y458521D01*
X273831Y458652D01*
X273859Y458800D01*
X273897Y458958D01*
X273941Y459117D01*
X273995Y459280D01*
X274061Y459444D01*
X274137Y459608D01*
X274224Y459761D01*
X274328Y459914D01*
X274448Y460050D01*
X274454Y460056D01*
X274481Y460083D01*
X274519Y460116D01*
X274569Y460159D01*
X274640Y460214D01*
X274716Y460274D01*
X274809Y460340D01*
X274918Y460405D01*
X275038Y460471D01*
X275169Y460536D01*
X275311Y460596D01*
X275469Y460651D01*
X275633Y460695D01*
X275808Y460727D01*
X275994Y460755D01*
X276190Y460760D01*
X276256D01*
X276305Y460755D01*
D02*
G37*
G36*
X270828D02*
X270894Y460749D01*
X270965Y460744D01*
X271041Y460733D01*
X271129Y460716D01*
X271227Y460700D01*
X271325Y460678D01*
X271429Y460651D01*
X271538Y460618D01*
X271647Y460580D01*
X271757Y460536D01*
X271860Y460487D01*
X271970Y460427D01*
X271975Y460422D01*
X271997Y460411D01*
X272024Y460394D01*
X272062Y460367D01*
X272112Y460334D01*
X272161Y460290D01*
X272221Y460241D01*
X272286Y460187D01*
X272357Y460121D01*
X272428Y460050D01*
X272499Y459974D01*
X272570Y459892D01*
X272636Y459804D01*
X272707Y459706D01*
X272767Y459602D01*
X272827Y459493D01*
X272832Y459488D01*
X272838Y459466D01*
X272854Y459433D01*
X272870Y459390D01*
X272898Y459335D01*
X272920Y459264D01*
X272947Y459188D01*
X272974Y459100D01*
X273002Y459007D01*
X273029Y458904D01*
X273056Y458789D01*
X273078Y458674D01*
X273094Y458549D01*
X273111Y458418D01*
X273116Y458287D01*
X273122Y458145D01*
Y458134D01*
Y458112D01*
Y458068D01*
X273116Y458014D01*
X273111Y457948D01*
X273105Y457872D01*
X273094Y457784D01*
X273083Y457686D01*
X273067Y457582D01*
X273045Y457473D01*
X273023Y457358D01*
X272990Y457244D01*
X272952Y457124D01*
X272914Y457009D01*
X272865Y456889D01*
X272810Y456774D01*
X272805Y456769D01*
X272794Y456747D01*
X272778Y456714D01*
X272756Y456676D01*
X272723Y456627D01*
X272685Y456567D01*
X272636Y456501D01*
X272586Y456430D01*
X272527Y456359D01*
X272461Y456283D01*
X272385Y456206D01*
X272308Y456130D01*
X272226Y456059D01*
X272133Y455988D01*
X272035Y455917D01*
X271931Y455857D01*
X271926Y455852D01*
X271904Y455846D01*
X271877Y455830D01*
X271833Y455808D01*
X271778Y455786D01*
X271718Y455759D01*
X271647Y455731D01*
X271566Y455704D01*
X271478Y455677D01*
X271385Y455650D01*
X271282Y455622D01*
X271178Y455600D01*
X270949Y455562D01*
X270828Y455557D01*
X270708Y455551D01*
X270637D01*
X270588Y455557D01*
X270528Y455562D01*
X270452Y455568D01*
X270375Y455579D01*
X270282Y455595D01*
X270190Y455611D01*
X270086Y455633D01*
X269982Y455660D01*
X269873Y455693D01*
X269764Y455731D01*
X269654Y455781D01*
X269545Y455830D01*
X269436Y455890D01*
X269431Y455895D01*
X269414Y455906D01*
X269381Y455928D01*
X269343Y455955D01*
X269300Y455988D01*
X269245Y456032D01*
X269185Y456081D01*
X269119Y456135D01*
X269048Y456201D01*
X268983Y456272D01*
X268912Y456348D01*
X268841Y456430D01*
X268770Y456523D01*
X268704Y456616D01*
X268644Y456720D01*
X268584Y456829D01*
X268579Y456834D01*
X268573Y456856D01*
X268557Y456889D01*
X268541Y456933D01*
X268519Y456987D01*
X268497Y457053D01*
X268470Y457124D01*
X268442Y457211D01*
X268415Y457298D01*
X268388Y457397D01*
X268366Y457500D01*
X268344Y457610D01*
X268311Y457839D01*
X268306Y457965D01*
X268300Y458085D01*
Y458090D01*
Y458101D01*
Y458117D01*
Y458139D01*
X268306Y458172D01*
Y458205D01*
X268311Y458292D01*
X268322Y458396D01*
X268339Y458521D01*
X268355Y458652D01*
X268382Y458800D01*
X268421Y458958D01*
X268464Y459117D01*
X268519Y459280D01*
X268584Y459444D01*
X268661Y459608D01*
X268748Y459761D01*
X268852Y459914D01*
X268972Y460050D01*
X268977Y460056D01*
X269005Y460083D01*
X269043Y460116D01*
X269092Y460159D01*
X269163Y460214D01*
X269239Y460274D01*
X269332Y460340D01*
X269442Y460405D01*
X269562Y460471D01*
X269693Y460536D01*
X269835Y460596D01*
X269993Y460651D01*
X270157Y460695D01*
X270332Y460727D01*
X270517Y460755D01*
X270714Y460760D01*
X270779D01*
X270828Y460755D01*
D02*
G37*
G36*
X272996Y464022D02*
Y464011D01*
Y463990D01*
Y463951D01*
Y463897D01*
X272990Y463831D01*
X272985Y463760D01*
X272980Y463678D01*
X272974Y463586D01*
X272952Y463394D01*
X272925Y463192D01*
X272881Y462996D01*
X272854Y462903D01*
X272821Y462816D01*
Y462810D01*
X272816Y462794D01*
X272805Y462772D01*
X272789Y462739D01*
X272767Y462701D01*
X272745Y462657D01*
X272679Y462559D01*
X272641Y462499D01*
X272597Y462444D01*
X272543Y462379D01*
X272488Y462319D01*
X272423Y462259D01*
X272357Y462199D01*
X272281Y462144D01*
X272199Y462089D01*
X272193Y462084D01*
X272177Y462079D01*
X272155Y462062D01*
X272117Y462046D01*
X272073Y462024D01*
X272019Y462002D01*
X271959Y461975D01*
X271882Y461953D01*
X271806Y461926D01*
X271718Y461898D01*
X271620Y461876D01*
X271516Y461855D01*
X271402Y461838D01*
X271282Y461822D01*
X271156Y461817D01*
X271025Y461811D01*
X270954D01*
X270905Y461817D01*
X270845D01*
X270779Y461822D01*
X270697Y461833D01*
X270616Y461844D01*
X270430Y461871D01*
X270233Y461915D01*
X270042Y461975D01*
X269949Y462008D01*
X269862Y462051D01*
X269857Y462057D01*
X269840Y462062D01*
X269818Y462079D01*
X269791Y462095D01*
X269753Y462122D01*
X269709Y462155D01*
X269665Y462188D01*
X269616Y462231D01*
X269507Y462330D01*
X269403Y462450D01*
X269305Y462592D01*
X269261Y462674D01*
X269223Y462756D01*
Y462761D01*
X269218Y462777D01*
X269207Y462805D01*
X269196Y462843D01*
X269180Y462887D01*
X269163Y462947D01*
X269147Y463012D01*
X269130Y463089D01*
X269109Y463176D01*
X269092Y463269D01*
X269076Y463373D01*
X269065Y463487D01*
X269048Y463607D01*
X269043Y463738D01*
X269032Y463875D01*
Y464022D01*
Y466932D01*
X269698D01*
Y464022D01*
Y464017D01*
Y463995D01*
Y463962D01*
Y463913D01*
X269704Y463859D01*
Y463799D01*
X269709Y463728D01*
X269715Y463657D01*
X269725Y463498D01*
X269747Y463340D01*
X269780Y463187D01*
X269796Y463116D01*
X269818Y463056D01*
Y463050D01*
X269824Y463045D01*
X269829Y463029D01*
X269840Y463007D01*
X269873Y462947D01*
X269917Y462881D01*
X269971Y462799D01*
X270042Y462723D01*
X270129Y462646D01*
X270233Y462575D01*
X270239D01*
X270250Y462570D01*
X270266Y462559D01*
X270288Y462548D01*
X270315Y462537D01*
X270353Y462526D01*
X270392Y462510D01*
X270435Y462494D01*
X270545Y462466D01*
X270670Y462439D01*
X270812Y462417D01*
X270965Y462412D01*
X271036D01*
X271085Y462417D01*
X271145Y462423D01*
X271216Y462428D01*
X271292Y462439D01*
X271374Y462455D01*
X271544Y462494D01*
X271631Y462521D01*
X271718Y462554D01*
X271800Y462592D01*
X271877Y462636D01*
X271948Y462685D01*
X272013Y462745D01*
X272019Y462750D01*
X272030Y462761D01*
X272041Y462783D01*
X272062Y462810D01*
X272084Y462848D01*
X272112Y462898D01*
X272144Y462958D01*
X272171Y463029D01*
X272199Y463110D01*
X272232Y463203D01*
X272259Y463307D01*
X272281Y463422D01*
X272303Y463553D01*
X272319Y463695D01*
X272324Y463853D01*
X272330Y464022D01*
Y466932D01*
X272996D01*
Y464022D01*
D02*
G37*
G36*
X277713Y466337D02*
X276054D01*
Y461893D01*
X275388D01*
Y466337D01*
X273728D01*
Y466932D01*
X277713D01*
Y466337D01*
D02*
G37*
G36*
X268492Y461893D02*
X267733D01*
X267148Y463416D01*
X265030D01*
X264484Y461893D01*
X263779D01*
X265707Y466932D01*
X266428D01*
X268492Y461893D01*
D02*
G37*
G36*
X280727Y467014D02*
X280793Y467009D01*
X280864Y467003D01*
X280940Y466993D01*
X281028Y466976D01*
X281126Y466960D01*
X281224Y466938D01*
X281328Y466911D01*
X281437Y466878D01*
X281546Y466840D01*
X281656Y466796D01*
X281759Y466747D01*
X281869Y466687D01*
X281874Y466681D01*
X281896Y466670D01*
X281923Y466654D01*
X281961Y466627D01*
X282011Y466594D01*
X282060Y466550D01*
X282120Y466501D01*
X282185Y466447D01*
X282256Y466381D01*
X282327Y466310D01*
X282398Y466234D01*
X282469Y466152D01*
X282535Y466064D01*
X282606Y465966D01*
X282666Y465862D01*
X282726Y465753D01*
X282731Y465748D01*
X282737Y465726D01*
X282753Y465693D01*
X282769Y465649D01*
X282797Y465595D01*
X282819Y465524D01*
X282846Y465447D01*
X282873Y465360D01*
X282901Y465267D01*
X282928Y465164D01*
X282955Y465049D01*
X282977Y464934D01*
X282993Y464809D01*
X283010Y464677D01*
X283015Y464546D01*
X283021Y464404D01*
Y464394D01*
Y464372D01*
Y464328D01*
X283015Y464274D01*
X283010Y464208D01*
X283004Y464131D01*
X282993Y464044D01*
X282982Y463946D01*
X282966Y463842D01*
X282944Y463733D01*
X282922Y463618D01*
X282890Y463504D01*
X282851Y463383D01*
X282813Y463269D01*
X282764Y463149D01*
X282709Y463034D01*
X282704Y463029D01*
X282693Y463007D01*
X282677Y462974D01*
X282655Y462936D01*
X282622Y462887D01*
X282584Y462827D01*
X282535Y462761D01*
X282486Y462690D01*
X282425Y462619D01*
X282360Y462543D01*
X282283Y462466D01*
X282207Y462390D01*
X282125Y462319D01*
X282032Y462248D01*
X281934Y462177D01*
X281830Y462117D01*
X281825Y462111D01*
X281803Y462106D01*
X281776Y462089D01*
X281732Y462068D01*
X281677Y462046D01*
X281617Y462018D01*
X281546Y461991D01*
X281465Y461964D01*
X281377Y461937D01*
X281284Y461909D01*
X281181Y461882D01*
X281077Y461860D01*
X280848Y461822D01*
X280727Y461817D01*
X280607Y461811D01*
X280536D01*
X280487Y461817D01*
X280427Y461822D01*
X280351Y461827D01*
X280274Y461838D01*
X280181Y461855D01*
X280088Y461871D01*
X279985Y461893D01*
X279881Y461920D01*
X279772Y461953D01*
X279663Y461991D01*
X279554Y462040D01*
X279444Y462089D01*
X279335Y462149D01*
X279330Y462155D01*
X279313Y462166D01*
X279280Y462188D01*
X279242Y462215D01*
X279199Y462248D01*
X279144Y462291D01*
X279084Y462341D01*
X279018Y462395D01*
X278947Y462461D01*
X278882Y462532D01*
X278811Y462608D01*
X278740Y462690D01*
X278669Y462783D01*
X278603Y462876D01*
X278543Y462980D01*
X278483Y463089D01*
X278478Y463094D01*
X278472Y463116D01*
X278456Y463149D01*
X278440Y463192D01*
X278418Y463247D01*
X278396Y463312D01*
X278369Y463383D01*
X278341Y463471D01*
X278314Y463558D01*
X278287Y463657D01*
X278265Y463760D01*
X278243Y463869D01*
X278210Y464099D01*
X278205Y464224D01*
X278199Y464345D01*
Y464350D01*
Y464361D01*
Y464377D01*
Y464399D01*
X278205Y464432D01*
Y464465D01*
X278210Y464552D01*
X278221Y464656D01*
X278238Y464781D01*
X278254Y464912D01*
X278281Y465060D01*
X278320Y465218D01*
X278363Y465376D01*
X278418Y465540D01*
X278483Y465704D01*
X278560Y465868D01*
X278647Y466021D01*
X278751Y466174D01*
X278871Y466310D01*
X278876Y466316D01*
X278904Y466343D01*
X278942Y466376D01*
X278991Y466419D01*
X279062Y466474D01*
X279138Y466534D01*
X279231Y466599D01*
X279341Y466665D01*
X279461Y466730D01*
X279592Y466796D01*
X279734Y466856D01*
X279892Y466911D01*
X280056Y466954D01*
X280230Y466987D01*
X280416Y467014D01*
X280613Y467020D01*
X280678D01*
X280727Y467014D01*
D02*
G37*
G36*
X239835Y443602D02*
X239873Y443597D01*
X239977Y443586D01*
X240091Y443564D01*
X240222Y443532D01*
X240353Y443488D01*
X240484Y443428D01*
X240490D01*
X240501Y443422D01*
X240517Y443411D01*
X240544Y443395D01*
X240604Y443357D01*
X240681Y443302D01*
X240768Y443231D01*
X240856Y443149D01*
X240943Y443056D01*
X241020Y442947D01*
Y442942D01*
X241025Y442936D01*
X241036Y442914D01*
X241047Y442893D01*
X241063Y442865D01*
X241079Y442833D01*
X241112Y442751D01*
X241145Y442652D01*
X241178Y442543D01*
X241200Y442423D01*
X241205Y442298D01*
Y442292D01*
Y442281D01*
Y442265D01*
Y442243D01*
X241194Y442177D01*
X241183Y442101D01*
X241161Y442008D01*
X241129Y441910D01*
X241085Y441806D01*
X241025Y441702D01*
Y441697D01*
X241020Y441691D01*
X240992Y441659D01*
X240954Y441609D01*
X240894Y441549D01*
X240823Y441478D01*
X240730Y441407D01*
X240626Y441342D01*
X240506Y441277D01*
X240512D01*
X240528Y441271D01*
X240550Y441265D01*
X240583Y441255D01*
X240615Y441244D01*
X240659Y441227D01*
X240763Y441184D01*
X240872Y441124D01*
X240987Y441053D01*
X241101Y440960D01*
X241200Y440845D01*
X241205Y440840D01*
X241211Y440829D01*
X241221Y440812D01*
X241238Y440785D01*
X241260Y440758D01*
X241282Y440720D01*
X241303Y440676D01*
X241325Y440621D01*
X241347Y440567D01*
X241369Y440507D01*
X241413Y440370D01*
X241440Y440212D01*
X241451Y440124D01*
Y440037D01*
Y440032D01*
Y440010D01*
X241445Y439971D01*
Y439928D01*
X241434Y439868D01*
X241424Y439802D01*
X241413Y439731D01*
X241391Y439649D01*
X241363Y439562D01*
X241331Y439475D01*
X241293Y439382D01*
X241243Y439289D01*
X241189Y439191D01*
X241123Y439098D01*
X241052Y439005D01*
X240965Y438918D01*
X240959Y438912D01*
X240943Y438896D01*
X240916Y438874D01*
X240878Y438847D01*
X240834Y438814D01*
X240774Y438776D01*
X240708Y438732D01*
X240632Y438694D01*
X240550Y438650D01*
X240457Y438607D01*
X240359Y438568D01*
X240250Y438535D01*
X240135Y438508D01*
X240015Y438486D01*
X239889Y438470D01*
X239753Y438465D01*
X239725D01*
X239687Y438470D01*
X239644D01*
X239583Y438476D01*
X239518Y438486D01*
X239447Y438497D01*
X239365Y438514D01*
X239278Y438535D01*
X239190Y438563D01*
X239097Y438590D01*
X239005Y438628D01*
X238912Y438678D01*
X238825Y438727D01*
X238732Y438787D01*
X238650Y438858D01*
X238644Y438863D01*
X238633Y438874D01*
X238612Y438896D01*
X238579Y438929D01*
X238546Y438967D01*
X238508Y439016D01*
X238470Y439071D01*
X238426Y439136D01*
X238382Y439202D01*
X238339Y439284D01*
X238295Y439365D01*
X238257Y439458D01*
X238224Y439557D01*
X238191Y439660D01*
X238169Y439770D01*
X238153Y439884D01*
X238770Y439966D01*
Y439961D01*
X238775Y439944D01*
X238781Y439917D01*
X238792Y439879D01*
X238803Y439835D01*
X238814Y439786D01*
X238852Y439671D01*
X238901Y439546D01*
X238961Y439420D01*
X239037Y439305D01*
X239081Y439256D01*
X239125Y439207D01*
X239130D01*
X239136Y439196D01*
X239152Y439185D01*
X239169Y439169D01*
X239223Y439136D01*
X239300Y439092D01*
X239392Y439049D01*
X239496Y439016D01*
X239622Y438989D01*
X239753Y438978D01*
X239796D01*
X239829Y438983D01*
X239862Y438989D01*
X239911Y438994D01*
X240009Y439016D01*
X240129Y439049D01*
X240255Y439103D01*
X240315Y439142D01*
X240375Y439180D01*
X240435Y439223D01*
X240495Y439278D01*
X240501Y439284D01*
X240506Y439294D01*
X240523Y439311D01*
X240544Y439333D01*
X240566Y439360D01*
X240588Y439398D01*
X240615Y439436D01*
X240648Y439486D01*
X240703Y439595D01*
X240746Y439720D01*
X240785Y439868D01*
X240790Y439944D01*
X240796Y440026D01*
Y440032D01*
Y440042D01*
Y440070D01*
X240790Y440097D01*
X240785Y440135D01*
X240779Y440173D01*
X240763Y440272D01*
X240725Y440386D01*
X240675Y440501D01*
X240643Y440561D01*
X240604Y440616D01*
X240561Y440670D01*
X240512Y440725D01*
X240506Y440730D01*
X240501Y440736D01*
X240484Y440752D01*
X240462Y440769D01*
X240435Y440791D01*
X240403Y440812D01*
X240321Y440867D01*
X240217Y440916D01*
X240097Y440960D01*
X239960Y440993D01*
X239884Y440998D01*
X239807Y441004D01*
X239775D01*
X239736Y440998D01*
X239687D01*
X239622Y440987D01*
X239551Y440976D01*
X239463Y440960D01*
X239370Y440938D01*
X239436Y441478D01*
X239447D01*
X239474Y441473D01*
X239507Y441468D01*
X239578D01*
X239605Y441473D01*
X239644D01*
X239682Y441478D01*
X239775Y441495D01*
X239884Y441517D01*
X240004Y441555D01*
X240129Y441604D01*
X240250Y441675D01*
X240255D01*
X240266Y441686D01*
X240277Y441697D01*
X240299Y441713D01*
X240353Y441762D01*
X240413Y441833D01*
X240468Y441921D01*
X240523Y442030D01*
X240544Y442090D01*
X240555Y442161D01*
X240566Y442232D01*
X240572Y442308D01*
Y442314D01*
Y442325D01*
Y442341D01*
X240566Y442369D01*
X240561Y442428D01*
X240544Y442510D01*
X240517Y442598D01*
X240474Y442691D01*
X240413Y442789D01*
X240381Y442833D01*
X240337Y442876D01*
X240326Y442887D01*
X240293Y442909D01*
X240244Y442947D01*
X240179Y442991D01*
X240091Y443029D01*
X239987Y443067D01*
X239873Y443089D01*
X239742Y443100D01*
X239709D01*
X239682Y443095D01*
X239649D01*
X239616Y443089D01*
X239529Y443073D01*
X239436Y443046D01*
X239332Y443002D01*
X239234Y442947D01*
X239136Y442871D01*
X239125Y442860D01*
X239097Y442827D01*
X239054Y442778D01*
X239010Y442701D01*
X238956Y442609D01*
X238906Y442489D01*
X238863Y442352D01*
X238830Y442194D01*
X238213Y442303D01*
Y442308D01*
X238218Y442330D01*
X238224Y442363D01*
X238235Y442407D01*
X238251Y442456D01*
X238268Y442516D01*
X238289Y442581D01*
X238317Y442652D01*
X238388Y442811D01*
X238426Y442887D01*
X238475Y442969D01*
X238530Y443046D01*
X238590Y443122D01*
X238655Y443198D01*
X238726Y443264D01*
X238732Y443269D01*
X238743Y443280D01*
X238770Y443297D01*
X238797Y443319D01*
X238841Y443346D01*
X238885Y443373D01*
X238939Y443406D01*
X239005Y443439D01*
X239070Y443466D01*
X239147Y443499D01*
X239229Y443526D01*
X239316Y443553D01*
X239414Y443575D01*
X239512Y443591D01*
X239616Y443602D01*
X239725Y443608D01*
X239796D01*
X239835Y443602D01*
D02*
G37*
G36*
X233965D02*
X234003Y443597D01*
X234107Y443586D01*
X234222Y443564D01*
X234353Y443532D01*
X234484Y443488D01*
X234615Y443428D01*
X234620D01*
X234631Y443422D01*
X234648Y443411D01*
X234675Y443395D01*
X234735Y443357D01*
X234811Y443302D01*
X234899Y443231D01*
X234986Y443149D01*
X235073Y443056D01*
X235150Y442947D01*
Y442942D01*
X235155Y442936D01*
X235166Y442914D01*
X235177Y442893D01*
X235194Y442865D01*
X235210Y442833D01*
X235243Y442751D01*
X235276Y442652D01*
X235308Y442543D01*
X235330Y442423D01*
X235336Y442298D01*
Y442292D01*
Y442281D01*
Y442265D01*
Y442243D01*
X235325Y442177D01*
X235314Y442101D01*
X235292Y442008D01*
X235259Y441910D01*
X235215Y441806D01*
X235155Y441702D01*
Y441697D01*
X235150Y441691D01*
X235123Y441659D01*
X235084Y441609D01*
X235024Y441549D01*
X234953Y441478D01*
X234861Y441407D01*
X234757Y441342D01*
X234637Y441277D01*
X234642D01*
X234659Y441271D01*
X234680Y441265D01*
X234713Y441255D01*
X234746Y441244D01*
X234790Y441227D01*
X234893Y441184D01*
X235002Y441124D01*
X235117Y441053D01*
X235232Y440960D01*
X235330Y440845D01*
X235336Y440840D01*
X235341Y440829D01*
X235352Y440812D01*
X235368Y440785D01*
X235390Y440758D01*
X235412Y440720D01*
X235434Y440676D01*
X235456Y440621D01*
X235478Y440567D01*
X235499Y440507D01*
X235543Y440370D01*
X235570Y440212D01*
X235581Y440124D01*
Y440037D01*
Y440032D01*
Y440010D01*
X235576Y439971D01*
Y439928D01*
X235565Y439868D01*
X235554Y439802D01*
X235543Y439731D01*
X235521Y439649D01*
X235494Y439562D01*
X235461Y439475D01*
X235423Y439382D01*
X235374Y439289D01*
X235319Y439191D01*
X235254Y439098D01*
X235183Y439005D01*
X235095Y438918D01*
X235090Y438912D01*
X235073Y438896D01*
X235046Y438874D01*
X235008Y438847D01*
X234964Y438814D01*
X234904Y438776D01*
X234839Y438732D01*
X234762Y438694D01*
X234680Y438650D01*
X234588Y438607D01*
X234489Y438568D01*
X234380Y438535D01*
X234265Y438508D01*
X234145Y438486D01*
X234020Y438470D01*
X233883Y438465D01*
X233856D01*
X233818Y438470D01*
X233774D01*
X233714Y438476D01*
X233648Y438486D01*
X233577Y438497D01*
X233496Y438514D01*
X233408Y438535D01*
X233321Y438563D01*
X233228Y438590D01*
X233135Y438628D01*
X233042Y438678D01*
X232955Y438727D01*
X232862Y438787D01*
X232780Y438858D01*
X232775Y438863D01*
X232764Y438874D01*
X232742Y438896D01*
X232709Y438929D01*
X232677Y438967D01*
X232638Y439016D01*
X232600Y439071D01*
X232557Y439136D01*
X232513Y439202D01*
X232469Y439284D01*
X232425Y439365D01*
X232387Y439458D01*
X232354Y439557D01*
X232322Y439660D01*
X232300Y439770D01*
X232283Y439884D01*
X232900Y439966D01*
Y439961D01*
X232906Y439944D01*
X232911Y439917D01*
X232922Y439879D01*
X232933Y439835D01*
X232944Y439786D01*
X232982Y439671D01*
X233032Y439546D01*
X233091Y439420D01*
X233168Y439305D01*
X233212Y439256D01*
X233255Y439207D01*
X233261D01*
X233266Y439196D01*
X233283Y439185D01*
X233299Y439169D01*
X233354Y439136D01*
X233430Y439092D01*
X233523Y439049D01*
X233627Y439016D01*
X233752Y438989D01*
X233883Y438978D01*
X233927D01*
X233960Y438983D01*
X233992Y438989D01*
X234042Y438994D01*
X234140Y439016D01*
X234260Y439049D01*
X234386Y439103D01*
X234446Y439142D01*
X234506Y439180D01*
X234566Y439223D01*
X234626Y439278D01*
X234631Y439284D01*
X234637Y439294D01*
X234653Y439311D01*
X234675Y439333D01*
X234697Y439360D01*
X234719Y439398D01*
X234746Y439436D01*
X234779Y439486D01*
X234833Y439595D01*
X234877Y439720D01*
X234915Y439868D01*
X234921Y439944D01*
X234926Y440026D01*
Y440032D01*
Y440042D01*
Y440070D01*
X234921Y440097D01*
X234915Y440135D01*
X234910Y440173D01*
X234893Y440272D01*
X234855Y440386D01*
X234806Y440501D01*
X234773Y440561D01*
X234735Y440616D01*
X234691Y440670D01*
X234642Y440725D01*
X234637Y440730D01*
X234631Y440736D01*
X234615Y440752D01*
X234593Y440769D01*
X234566Y440791D01*
X234533Y440812D01*
X234451Y440867D01*
X234347Y440916D01*
X234227Y440960D01*
X234091Y440993D01*
X234014Y440998D01*
X233938Y441004D01*
X233905D01*
X233867Y440998D01*
X233818D01*
X233752Y440987D01*
X233681Y440976D01*
X233594Y440960D01*
X233501Y440938D01*
X233567Y441478D01*
X233577D01*
X233605Y441473D01*
X233637Y441468D01*
X233709D01*
X233736Y441473D01*
X233774D01*
X233812Y441478D01*
X233905Y441495D01*
X234014Y441517D01*
X234134Y441555D01*
X234260Y441604D01*
X234380Y441675D01*
X234386D01*
X234397Y441686D01*
X234407Y441697D01*
X234429Y441713D01*
X234484Y441762D01*
X234544Y441833D01*
X234598Y441921D01*
X234653Y442030D01*
X234675Y442090D01*
X234686Y442161D01*
X234697Y442232D01*
X234702Y442308D01*
Y442314D01*
Y442325D01*
Y442341D01*
X234697Y442369D01*
X234691Y442428D01*
X234675Y442510D01*
X234648Y442598D01*
X234604Y442691D01*
X234544Y442789D01*
X234511Y442833D01*
X234468Y442876D01*
X234456Y442887D01*
X234424Y442909D01*
X234375Y442947D01*
X234309Y442991D01*
X234222Y443029D01*
X234118Y443067D01*
X234003Y443089D01*
X233872Y443100D01*
X233840D01*
X233812Y443095D01*
X233780D01*
X233747Y443089D01*
X233659Y443073D01*
X233567Y443046D01*
X233463Y443002D01*
X233365Y442947D01*
X233266Y442871D01*
X233255Y442860D01*
X233228Y442827D01*
X233184Y442778D01*
X233141Y442701D01*
X233086Y442609D01*
X233037Y442489D01*
X232993Y442352D01*
X232961Y442194D01*
X232344Y442303D01*
Y442308D01*
X232349Y442330D01*
X232354Y442363D01*
X232365Y442407D01*
X232382Y442456D01*
X232398Y442516D01*
X232420Y442581D01*
X232447Y442652D01*
X232518Y442811D01*
X232557Y442887D01*
X232606Y442969D01*
X232660Y443046D01*
X232720Y443122D01*
X232786Y443198D01*
X232857Y443264D01*
X232862Y443269D01*
X232873Y443280D01*
X232900Y443297D01*
X232928Y443319D01*
X232971Y443346D01*
X233015Y443373D01*
X233070Y443406D01*
X233135Y443439D01*
X233201Y443466D01*
X233277Y443499D01*
X233359Y443526D01*
X233446Y443553D01*
X233545Y443575D01*
X233643Y443591D01*
X233747Y443602D01*
X233856Y443608D01*
X233927D01*
X233965Y443602D01*
D02*
G37*
G36*
X244443Y438552D02*
X243755D01*
X241800Y443591D01*
X242526D01*
X243837Y439928D01*
Y439922D01*
X243842Y439906D01*
X243853Y439884D01*
X243864Y439851D01*
X243875Y439813D01*
X243891Y439770D01*
X243908Y439720D01*
X243930Y439660D01*
X243968Y439535D01*
X244011Y439398D01*
X244055Y439251D01*
X244099Y439103D01*
Y439109D01*
X244104Y439120D01*
X244110Y439147D01*
X244121Y439174D01*
X244132Y439213D01*
X244143Y439256D01*
X244159Y439305D01*
X244175Y439360D01*
X244214Y439486D01*
X244263Y439628D01*
X244317Y439775D01*
X244372Y439928D01*
X245731Y443591D01*
X246409D01*
X244443Y438552D01*
D02*
G37*
G36*
X237247D02*
X236542D01*
Y439256D01*
X237247D01*
Y438552D01*
D02*
G37*
%LPC*%
G36*
X170665Y473522D02*
X168966D01*
Y471856D01*
X170473D01*
X170512Y471862D01*
X170555D01*
X170659Y471867D01*
X170774Y471878D01*
X170894Y471895D01*
X171009Y471916D01*
X171112Y471949D01*
X171118D01*
X171123Y471955D01*
X171156Y471966D01*
X171200Y471987D01*
X171260Y472020D01*
X171320Y472064D01*
X171385Y472113D01*
X171451Y472179D01*
X171505Y472250D01*
X171511Y472261D01*
X171527Y472288D01*
X171549Y472326D01*
X171576Y472386D01*
X171598Y472452D01*
X171620Y472528D01*
X171636Y472615D01*
X171642Y472703D01*
Y472708D01*
Y472719D01*
Y472736D01*
X171636Y472763D01*
Y472790D01*
X171631Y472828D01*
X171609Y472910D01*
X171576Y473003D01*
X171533Y473101D01*
X171467Y473194D01*
X171423Y473243D01*
X171380Y473287D01*
X171374Y473292D01*
X171369Y473298D01*
X171352Y473309D01*
X171331Y473325D01*
X171303Y473342D01*
X171265Y473363D01*
X171227Y473385D01*
X171178Y473407D01*
X171123Y473429D01*
X171063Y473445D01*
X170998Y473467D01*
X170927Y473484D01*
X170845Y473500D01*
X170757Y473511D01*
X170665Y473522D01*
D02*
G37*
G36*
X165319Y473555D02*
Y473549D01*
X165314Y473533D01*
X165308Y473505D01*
X165303Y473473D01*
X165292Y473423D01*
X165281Y473374D01*
X165264Y473314D01*
X165248Y473249D01*
X165232Y473178D01*
X165210Y473101D01*
X165161Y472937D01*
X165106Y472763D01*
X165046Y472583D01*
X164489Y471103D01*
X166209D01*
X165680Y472501D01*
Y472506D01*
X165669Y472528D01*
X165658Y472561D01*
X165641Y472610D01*
X165619Y472659D01*
X165598Y472725D01*
X165570Y472796D01*
X165543Y472872D01*
X165488Y473041D01*
X165428Y473216D01*
X165368Y473391D01*
X165319Y473555D01*
D02*
G37*
G36*
X149305Y473484D02*
X148202D01*
Y471960D01*
X149398D01*
X149442Y471966D01*
X149534D01*
X149638Y471971D01*
X149747Y471982D01*
X149846Y471998D01*
X149889Y472004D01*
X149927Y472015D01*
X149933D01*
X149938Y472020D01*
X149971Y472031D01*
X150015Y472048D01*
X150069Y472075D01*
X150129Y472108D01*
X150195Y472151D01*
X150255Y472206D01*
X150310Y472266D01*
X150315Y472277D01*
X150331Y472299D01*
X150353Y472337D01*
X150375Y472386D01*
X150397Y472452D01*
X150419Y472528D01*
X150435Y472610D01*
X150441Y472708D01*
Y472714D01*
Y472719D01*
Y472752D01*
X150435Y472796D01*
X150424Y472856D01*
X150408Y472927D01*
X150386Y473003D01*
X150359Y473079D01*
X150315Y473150D01*
X150310Y473161D01*
X150293Y473183D01*
X150266Y473216D01*
X150228Y473254D01*
X150179Y473298D01*
X150119Y473342D01*
X150053Y473380D01*
X149971Y473413D01*
X149960Y473418D01*
X149949D01*
X149927Y473423D01*
X149906Y473429D01*
X149873Y473434D01*
X149835Y473440D01*
X149796Y473451D01*
X149747Y473456D01*
X149687Y473462D01*
X149627Y473467D01*
X149556Y473473D01*
X149480Y473478D01*
X149398D01*
X149305Y473484D01*
D02*
G37*
G36*
X149365Y471365D02*
X148202D01*
Y469634D01*
X149567D01*
X149638Y469640D01*
X149709D01*
X149785Y469645D01*
X149856Y469651D01*
X149911Y469656D01*
X149922D01*
X149949Y469662D01*
X149993Y469672D01*
X150048Y469689D01*
X150108Y469705D01*
X150168Y469733D01*
X150233Y469760D01*
X150293Y469793D01*
X150299Y469798D01*
X150320Y469809D01*
X150348Y469831D01*
X150386Y469864D01*
X150424Y469902D01*
X150468Y469951D01*
X150512Y470006D01*
X150550Y470071D01*
X150555Y470082D01*
X150566Y470104D01*
X150583Y470142D01*
X150604Y470197D01*
X150621Y470257D01*
X150637Y470328D01*
X150648Y470409D01*
X150654Y470497D01*
Y470502D01*
Y470508D01*
Y470524D01*
Y470546D01*
X150648Y470595D01*
X150637Y470666D01*
X150615Y470743D01*
X150593Y470824D01*
X150555Y470906D01*
X150506Y470988D01*
X150501Y470999D01*
X150479Y471021D01*
X150446Y471059D01*
X150402Y471103D01*
X150342Y471152D01*
X150271Y471196D01*
X150195Y471240D01*
X150102Y471278D01*
X150097D01*
X150091Y471283D01*
X150075Y471289D01*
X150053Y471294D01*
X150026Y471300D01*
X149998Y471305D01*
X149960Y471316D01*
X149917Y471321D01*
X149862Y471332D01*
X149807Y471338D01*
X149747Y471343D01*
X149682Y471354D01*
X149534Y471360D01*
X149365Y471365D01*
D02*
G37*
G36*
X179472Y467305D02*
X177773D01*
Y465640D01*
X179280D01*
X179319Y465645D01*
X179362D01*
X179466Y465651D01*
X179581Y465661D01*
X179701Y465678D01*
X179815Y465700D01*
X179919Y465732D01*
X179925D01*
X179930Y465738D01*
X179963Y465749D01*
X180007Y465771D01*
X180067Y465803D01*
X180127Y465847D01*
X180192Y465896D01*
X180258Y465962D01*
X180312Y466033D01*
X180318Y466044D01*
X180334Y466071D01*
X180356Y466109D01*
X180383Y466169D01*
X180405Y466235D01*
X180427Y466311D01*
X180443Y466399D01*
X180449Y466486D01*
Y466491D01*
Y466502D01*
Y466519D01*
X180443Y466546D01*
Y466573D01*
X180438Y466612D01*
X180416Y466693D01*
X180383Y466786D01*
X180340Y466885D01*
X180274Y466977D01*
X180230Y467027D01*
X180187Y467070D01*
X180181Y467076D01*
X180176Y467081D01*
X180159Y467092D01*
X180138Y467108D01*
X180110Y467125D01*
X180072Y467147D01*
X180034Y467169D01*
X179985Y467190D01*
X179930Y467212D01*
X179870Y467229D01*
X179805Y467250D01*
X179734Y467267D01*
X179652Y467283D01*
X179564Y467294D01*
X179472Y467305D01*
D02*
G37*
G36*
X165396Y467305D02*
X163698D01*
Y465640D01*
X165205D01*
X165243Y465645D01*
X165286D01*
X165390Y465651D01*
X165505Y465661D01*
X165625Y465678D01*
X165740Y465700D01*
X165843Y465732D01*
X165849D01*
X165854Y465738D01*
X165887Y465749D01*
X165931Y465771D01*
X165991Y465803D01*
X166051Y465847D01*
X166116Y465896D01*
X166182Y465962D01*
X166236Y466033D01*
X166242Y466044D01*
X166258Y466071D01*
X166280Y466109D01*
X166307Y466169D01*
X166329Y466235D01*
X166351Y466311D01*
X166367Y466399D01*
X166373Y466486D01*
Y466491D01*
Y466502D01*
Y466519D01*
X166367Y466546D01*
Y466573D01*
X166362Y466611D01*
X166340Y466693D01*
X166307Y466786D01*
X166264Y466885D01*
X166198Y466977D01*
X166155Y467027D01*
X166111Y467070D01*
X166105Y467076D01*
X166100Y467081D01*
X166084Y467092D01*
X166062Y467108D01*
X166034Y467125D01*
X165996Y467147D01*
X165958Y467169D01*
X165909Y467190D01*
X165854Y467212D01*
X165794Y467229D01*
X165729Y467250D01*
X165658Y467267D01*
X165576Y467283D01*
X165488Y467294D01*
X165396Y467305D01*
D02*
G37*
G36*
X145374Y467376D02*
X145248D01*
X145215Y467371D01*
X145161D01*
X145101Y467360D01*
X145030Y467349D01*
X144953Y467332D01*
X144866Y467316D01*
X144773Y467289D01*
X144675Y467256D01*
X144571Y467218D01*
X144473Y467169D01*
X144369Y467114D01*
X144265Y467048D01*
X144162Y466972D01*
X144063Y466885D01*
X144058Y466879D01*
X144042Y466863D01*
X144014Y466830D01*
X143987Y466792D01*
X143943Y466737D01*
X143905Y466672D01*
X143856Y466590D01*
X143812Y466502D01*
X143763Y466393D01*
X143714Y466273D01*
X143676Y466142D01*
X143638Y465995D01*
X143605Y465836D01*
X143577Y465661D01*
X143561Y465470D01*
X143556Y465263D01*
Y465252D01*
Y465225D01*
X143561Y465176D01*
Y465110D01*
X143572Y465034D01*
X143583Y464946D01*
X143594Y464848D01*
X143616Y464744D01*
X143643Y464630D01*
X143676Y464509D01*
X143714Y464395D01*
X143763Y464275D01*
X143818Y464155D01*
X143883Y464040D01*
X143954Y463931D01*
X144042Y463827D01*
X144047Y463822D01*
X144063Y463805D01*
X144091Y463778D01*
X144129Y463745D01*
X144178Y463707D01*
X144238Y463663D01*
X144304Y463614D01*
X144380Y463570D01*
X144462Y463521D01*
X144560Y463472D01*
X144659Y463428D01*
X144768Y463390D01*
X144882Y463357D01*
X145008Y463330D01*
X145133Y463314D01*
X145270Y463308D01*
X145303D01*
X145341Y463314D01*
X145396Y463319D01*
X145461Y463325D01*
X145532Y463336D01*
X145619Y463352D01*
X145707Y463374D01*
X145805Y463401D01*
X145903Y463434D01*
X146007Y463478D01*
X146111Y463532D01*
X146215Y463592D01*
X146318Y463658D01*
X146417Y463740D01*
X146509Y463832D01*
X146515Y463838D01*
X146531Y463860D01*
X146553Y463887D01*
X146586Y463931D01*
X146624Y463985D01*
X146668Y464051D01*
X146712Y464127D01*
X146755Y464220D01*
X146799Y464318D01*
X146848Y464433D01*
X146886Y464553D01*
X146924Y464690D01*
X146957Y464837D01*
X146979Y464990D01*
X146995Y465159D01*
X147001Y465334D01*
Y465339D01*
Y465361D01*
Y465394D01*
X146995Y465438D01*
Y465492D01*
X146990Y465552D01*
X146985Y465623D01*
X146974Y465700D01*
X146952Y465869D01*
X146914Y466049D01*
X146859Y466229D01*
X146788Y466409D01*
Y466415D01*
X146777Y466431D01*
X146766Y466453D01*
X146750Y466486D01*
X146728Y466524D01*
X146701Y466568D01*
X146635Y466672D01*
X146548Y466786D01*
X146444Y466901D01*
X146324Y467016D01*
X146182Y467119D01*
X146176Y467125D01*
X146166Y467130D01*
X146144Y467141D01*
X146111Y467158D01*
X146073Y467179D01*
X146029Y467201D01*
X145980Y467223D01*
X145920Y467250D01*
X145854Y467272D01*
X145789Y467294D01*
X145636Y467338D01*
X145467Y467365D01*
X145374Y467376D01*
D02*
G37*
G36*
X265549Y442991D02*
X264446D01*
Y441468D01*
X265641D01*
X265685Y441473D01*
X265778D01*
X265882Y441478D01*
X265991Y441489D01*
X266089Y441506D01*
X266133Y441511D01*
X266171Y441522D01*
X266177D01*
X266182Y441528D01*
X266215Y441539D01*
X266258Y441555D01*
X266313Y441582D01*
X266373Y441615D01*
X266439Y441659D01*
X266499Y441713D01*
X266553Y441773D01*
X266559Y441784D01*
X266575Y441806D01*
X266597Y441844D01*
X266619Y441893D01*
X266641Y441959D01*
X266662Y442035D01*
X266679Y442117D01*
X266684Y442216D01*
Y442221D01*
Y442227D01*
Y442259D01*
X266679Y442303D01*
X266668Y442363D01*
X266652Y442434D01*
X266630Y442510D01*
X266602Y442587D01*
X266559Y442658D01*
X266553Y442669D01*
X266537Y442691D01*
X266510Y442723D01*
X266471Y442762D01*
X266422Y442805D01*
X266362Y442849D01*
X266297Y442887D01*
X266215Y442920D01*
X266204Y442925D01*
X266193D01*
X266171Y442931D01*
X266149Y442936D01*
X266116Y442942D01*
X266078Y442947D01*
X266040Y442958D01*
X265991Y442964D01*
X265931Y442969D01*
X265871Y442975D01*
X265800Y442980D01*
X265723Y442985D01*
X265641D01*
X265549Y442991D01*
D02*
G37*
G36*
X265609Y440872D02*
X264446D01*
Y439142D01*
X265811D01*
X265882Y439147D01*
X265953D01*
X266029Y439152D01*
X266100Y439158D01*
X266155Y439163D01*
X266165D01*
X266193Y439169D01*
X266236Y439180D01*
X266291Y439196D01*
X266351Y439213D01*
X266411Y439240D01*
X266477Y439267D01*
X266537Y439300D01*
X266542Y439305D01*
X266564Y439316D01*
X266591Y439338D01*
X266630Y439371D01*
X266668Y439409D01*
X266711Y439458D01*
X266755Y439513D01*
X266793Y439578D01*
X266799Y439589D01*
X266810Y439611D01*
X266826Y439649D01*
X266848Y439704D01*
X266864Y439764D01*
X266881Y439835D01*
X266892Y439917D01*
X266897Y440004D01*
Y440010D01*
Y440015D01*
Y440032D01*
Y440053D01*
X266892Y440103D01*
X266881Y440173D01*
X266859Y440250D01*
X266837Y440332D01*
X266799Y440414D01*
X266750Y440496D01*
X266744Y440507D01*
X266722Y440528D01*
X266690Y440567D01*
X266646Y440610D01*
X266586Y440660D01*
X266515Y440703D01*
X266439Y440747D01*
X266346Y440785D01*
X266340D01*
X266335Y440791D01*
X266318Y440796D01*
X266297Y440801D01*
X266269Y440807D01*
X266242Y440812D01*
X266204Y440823D01*
X266160Y440829D01*
X266106Y440840D01*
X266051Y440845D01*
X265991Y440851D01*
X265925Y440862D01*
X265778Y440867D01*
X265609Y440872D01*
D02*
G37*
G36*
X276283Y443100D02*
X276157D01*
X276125Y443095D01*
X276070D01*
X276010Y443084D01*
X275939Y443073D01*
X275863Y443056D01*
X275775Y443040D01*
X275682Y443013D01*
X275584Y442980D01*
X275480Y442942D01*
X275382Y442893D01*
X275278Y442838D01*
X275174Y442772D01*
X275071Y442696D01*
X274973Y442609D01*
X274967Y442603D01*
X274951Y442587D01*
X274923Y442554D01*
X274896Y442516D01*
X274852Y442461D01*
X274814Y442396D01*
X274765Y442314D01*
X274721Y442227D01*
X274672Y442117D01*
X274623Y441997D01*
X274585Y441866D01*
X274547Y441719D01*
X274514Y441560D01*
X274487Y441386D01*
X274470Y441195D01*
X274465Y440987D01*
Y440976D01*
Y440949D01*
X274470Y440900D01*
Y440834D01*
X274481Y440758D01*
X274492Y440670D01*
X274503Y440572D01*
X274525Y440468D01*
X274552Y440354D01*
X274585Y440234D01*
X274623Y440119D01*
X274672Y439999D01*
X274727Y439879D01*
X274792Y439764D01*
X274863Y439655D01*
X274951Y439551D01*
X274956Y439546D01*
X274973Y439529D01*
X275000Y439502D01*
X275038Y439469D01*
X275087Y439431D01*
X275147Y439387D01*
X275213Y439338D01*
X275289Y439294D01*
X275371Y439245D01*
X275469Y439196D01*
X275568Y439152D01*
X275677Y439114D01*
X275792Y439081D01*
X275917Y439054D01*
X276043Y439038D01*
X276179Y439032D01*
X276212D01*
X276250Y439038D01*
X276305Y439043D01*
X276370Y439049D01*
X276441Y439060D01*
X276529Y439076D01*
X276616Y439098D01*
X276714Y439125D01*
X276813Y439158D01*
X276916Y439202D01*
X277020Y439256D01*
X277124Y439316D01*
X277227Y439382D01*
X277326Y439464D01*
X277419Y439557D01*
X277424Y439562D01*
X277441Y439584D01*
X277462Y439611D01*
X277495Y439655D01*
X277533Y439710D01*
X277577Y439775D01*
X277621Y439851D01*
X277664Y439944D01*
X277708Y440042D01*
X277757Y440157D01*
X277795Y440277D01*
X277834Y440414D01*
X277866Y440561D01*
X277888Y440714D01*
X277905Y440883D01*
X277910Y441058D01*
Y441063D01*
Y441085D01*
Y441118D01*
X277905Y441162D01*
Y441216D01*
X277899Y441277D01*
X277894Y441348D01*
X277883Y441424D01*
X277861Y441593D01*
X277823Y441773D01*
X277768Y441954D01*
X277697Y442134D01*
Y442139D01*
X277686Y442156D01*
X277675Y442177D01*
X277659Y442210D01*
X277637Y442248D01*
X277610Y442292D01*
X277544Y442396D01*
X277457Y442510D01*
X277353Y442625D01*
X277233Y442740D01*
X277091Y442843D01*
X277086Y442849D01*
X277075Y442854D01*
X277053Y442865D01*
X277020Y442882D01*
X276982Y442904D01*
X276938Y442925D01*
X276889Y442947D01*
X276829Y442975D01*
X276763Y442996D01*
X276698Y443018D01*
X276545Y443062D01*
X276376Y443089D01*
X276283Y443100D01*
D02*
G37*
G36*
X270807D02*
X270681D01*
X270648Y443095D01*
X270594D01*
X270534Y443084D01*
X270463Y443073D01*
X270386Y443056D01*
X270299Y443040D01*
X270206Y443013D01*
X270108Y442980D01*
X270004Y442942D01*
X269906Y442893D01*
X269802Y442838D01*
X269698Y442772D01*
X269594Y442696D01*
X269496Y442609D01*
X269491Y442603D01*
X269474Y442587D01*
X269447Y442554D01*
X269420Y442516D01*
X269376Y442461D01*
X269338Y442396D01*
X269289Y442314D01*
X269245Y442227D01*
X269196Y442117D01*
X269147Y441997D01*
X269109Y441866D01*
X269070Y441719D01*
X269038Y441560D01*
X269010Y441386D01*
X268994Y441195D01*
X268988Y440987D01*
Y440976D01*
Y440949D01*
X268994Y440900D01*
Y440834D01*
X269005Y440758D01*
X269016Y440670D01*
X269027Y440572D01*
X269048Y440468D01*
X269076Y440354D01*
X269109Y440234D01*
X269147Y440119D01*
X269196Y439999D01*
X269250Y439879D01*
X269316Y439764D01*
X269387Y439655D01*
X269474Y439551D01*
X269480Y439546D01*
X269496Y439529D01*
X269524Y439502D01*
X269562Y439469D01*
X269611Y439431D01*
X269671Y439387D01*
X269736Y439338D01*
X269813Y439294D01*
X269895Y439245D01*
X269993Y439196D01*
X270091Y439152D01*
X270200Y439114D01*
X270315Y439081D01*
X270441Y439054D01*
X270566Y439038D01*
X270703Y439032D01*
X270736D01*
X270774Y439038D01*
X270828Y439043D01*
X270894Y439049D01*
X270965Y439060D01*
X271052Y439076D01*
X271140Y439098D01*
X271238Y439125D01*
X271336Y439158D01*
X271440Y439202D01*
X271544Y439256D01*
X271647Y439316D01*
X271751Y439382D01*
X271849Y439464D01*
X271942Y439557D01*
X271948Y439562D01*
X271964Y439584D01*
X271986Y439611D01*
X272019Y439655D01*
X272057Y439710D01*
X272101Y439775D01*
X272144Y439851D01*
X272188Y439944D01*
X272232Y440042D01*
X272281Y440157D01*
X272319Y440277D01*
X272357Y440414D01*
X272390Y440561D01*
X272412Y440714D01*
X272428Y440883D01*
X272434Y441058D01*
Y441063D01*
Y441085D01*
Y441118D01*
X272428Y441162D01*
Y441216D01*
X272423Y441277D01*
X272417Y441348D01*
X272406Y441424D01*
X272385Y441593D01*
X272346Y441773D01*
X272292Y441954D01*
X272221Y442134D01*
Y442139D01*
X272210Y442156D01*
X272199Y442177D01*
X272182Y442210D01*
X272161Y442248D01*
X272133Y442292D01*
X272068Y442396D01*
X271981Y442510D01*
X271877Y442625D01*
X271757Y442740D01*
X271615Y442843D01*
X271609Y442849D01*
X271598Y442854D01*
X271576Y442865D01*
X271544Y442882D01*
X271505Y442904D01*
X271462Y442925D01*
X271413Y442947D01*
X271353Y442975D01*
X271287Y442996D01*
X271221Y443018D01*
X271069Y443062D01*
X270899Y443089D01*
X270807Y443100D01*
D02*
G37*
G36*
X286253Y450385D02*
Y450379D01*
X286247Y450363D01*
X286242Y450336D01*
X286237Y450303D01*
X286226Y450254D01*
X286215Y450205D01*
X286198Y450144D01*
X286182Y450079D01*
X286165Y450008D01*
X286144Y449931D01*
X286094Y449768D01*
X286040Y449593D01*
X285980Y449413D01*
X285423Y447933D01*
X287143D01*
X286613Y449331D01*
Y449336D01*
X286602Y449358D01*
X286591Y449391D01*
X286575Y449440D01*
X286553Y449489D01*
X286531Y449555D01*
X286504Y449626D01*
X286477Y449702D01*
X286422Y449871D01*
X286362Y450046D01*
X286302Y450221D01*
X286253Y450385D01*
D02*
G37*
G36*
X271391D02*
Y450379D01*
X271385Y450363D01*
X271380Y450336D01*
X271374Y450303D01*
X271363Y450254D01*
X271353Y450205D01*
X271336Y450144D01*
X271320Y450079D01*
X271303Y450008D01*
X271282Y449931D01*
X271232Y449768D01*
X271178Y449593D01*
X271118Y449413D01*
X270561Y447933D01*
X272281D01*
X271751Y449331D01*
Y449336D01*
X271740Y449358D01*
X271729Y449391D01*
X271713Y449440D01*
X271691Y449489D01*
X271669Y449555D01*
X271642Y449626D01*
X271615Y449702D01*
X271560Y449871D01*
X271500Y450046D01*
X271440Y450221D01*
X271391Y450385D01*
D02*
G37*
G36*
X358885Y491190D02*
X358885Y491190D01*
Y491185D01*
X358885Y491190D01*
D02*
G37*
G36*
X359982Y491310D02*
X359944D01*
X359911Y491305D01*
X359878Y491299D01*
X359835Y491294D01*
X359736Y491272D01*
X359622Y491234D01*
X359502Y491179D01*
X359442Y491147D01*
X359382Y491108D01*
X359321Y491059D01*
X359267Y491005D01*
X359261Y490999D01*
X359256Y490988D01*
X359240Y490972D01*
X359223Y490950D01*
X359201Y490923D01*
X359174Y490884D01*
X359147Y490841D01*
X359125Y490792D01*
X359098Y490742D01*
X359070Y490683D01*
X359021Y490546D01*
X358988Y490393D01*
X358983Y490306D01*
X358978Y490218D01*
Y490213D01*
Y490202D01*
Y490186D01*
Y490164D01*
X358983Y490136D01*
Y490104D01*
X358994Y490022D01*
X359010Y489929D01*
X359032Y489825D01*
X359065Y489716D01*
X359109Y489607D01*
Y489601D01*
X359114Y489596D01*
X359125Y489580D01*
X359136Y489558D01*
X359163Y489509D01*
X359207Y489443D01*
X359261Y489372D01*
X359327Y489301D01*
X359398Y489230D01*
X359485Y489165D01*
X359491D01*
X359496Y489159D01*
X359529Y489143D01*
X359578Y489115D01*
X359644Y489088D01*
X359720Y489061D01*
X359807Y489034D01*
X359906Y489017D01*
X360004Y489012D01*
X360042D01*
X360069Y489017D01*
X360108Y489023D01*
X360146Y489028D01*
X360239Y489050D01*
X360343Y489088D01*
X360403Y489115D01*
X360457Y489143D01*
X360517Y489181D01*
X360572Y489219D01*
X360626Y489268D01*
X360681Y489323D01*
X360686Y489328D01*
X360692Y489339D01*
X360708Y489356D01*
X360725Y489383D01*
X360747Y489416D01*
X360768Y489454D01*
X360796Y489498D01*
X360823Y489552D01*
X360850Y489607D01*
X360878Y489672D01*
X360899Y489743D01*
X360921Y489820D01*
X360938Y489902D01*
X360954Y489994D01*
X360960Y490087D01*
X360965Y490186D01*
Y490191D01*
Y490207D01*
Y490235D01*
X360960Y490273D01*
X360954Y490317D01*
X360949Y490366D01*
X360943Y490420D01*
X360932Y490481D01*
X360899Y490612D01*
X360850Y490748D01*
X360818Y490819D01*
X360779Y490884D01*
X360736Y490945D01*
X360686Y491005D01*
X360681Y491010D01*
X360676Y491015D01*
X360659Y491032D01*
X360637Y491054D01*
X360610Y491076D01*
X360577Y491103D01*
X360495Y491157D01*
X360392Y491212D01*
X360272Y491261D01*
X360135Y491299D01*
X360059Y491305D01*
X359982Y491310D01*
D02*
G37*
G36*
X376171Y493069D02*
X374473D01*
Y491403D01*
X375980D01*
X376018Y491409D01*
X376062D01*
X376166Y491414D01*
X376280Y491425D01*
X376400Y491441D01*
X376515Y491463D01*
X376619Y491496D01*
X376624D01*
X376630Y491502D01*
X376662Y491512D01*
X376706Y491534D01*
X376766Y491567D01*
X376826Y491611D01*
X376892Y491660D01*
X376957Y491725D01*
X377012Y491796D01*
X377017Y491807D01*
X377034Y491834D01*
X377056Y491873D01*
X377083Y491933D01*
X377105Y491998D01*
X377127Y492075D01*
X377143Y492162D01*
X377148Y492249D01*
Y492255D01*
Y492266D01*
Y492282D01*
X377143Y492310D01*
Y492337D01*
X377137Y492375D01*
X377116Y492457D01*
X377083Y492550D01*
X377039Y492648D01*
X376974Y492741D01*
X376930Y492790D01*
X376886Y492834D01*
X376881Y492839D01*
X376875Y492845D01*
X376859Y492856D01*
X376837Y492872D01*
X376810Y492888D01*
X376772Y492910D01*
X376733Y492932D01*
X376684Y492954D01*
X376630Y492976D01*
X376570Y492992D01*
X376504Y493014D01*
X376433Y493030D01*
X376351Y493047D01*
X376264Y493058D01*
X376171Y493069D01*
D02*
G37*
G36*
X371268Y475152D02*
X369570D01*
Y473487D01*
X371077D01*
X371115Y473492D01*
X371159D01*
X371263Y473498D01*
X371377Y473509D01*
X371497Y473525D01*
X371612Y473547D01*
X371716Y473580D01*
X371721D01*
X371727Y473585D01*
X371759Y473596D01*
X371803Y473618D01*
X371863Y473651D01*
X371923Y473694D01*
X371989Y473743D01*
X372054Y473809D01*
X372109Y473880D01*
X372114Y473891D01*
X372131Y473918D01*
X372152Y473956D01*
X372180Y474016D01*
X372202Y474082D01*
X372223Y474158D01*
X372240Y474246D01*
X372245Y474333D01*
Y474338D01*
Y474349D01*
Y474366D01*
X372240Y474393D01*
Y474420D01*
X372234Y474459D01*
X372213Y474540D01*
X372180Y474633D01*
X372136Y474731D01*
X372071Y474824D01*
X372027Y474873D01*
X371983Y474917D01*
X371978Y474923D01*
X371972Y474928D01*
X371956Y474939D01*
X371934Y474955D01*
X371907Y474972D01*
X371869Y474994D01*
X371830Y475015D01*
X371781Y475037D01*
X371727Y475059D01*
X371667Y475075D01*
X371601Y475097D01*
X371530Y475114D01*
X371448Y475130D01*
X371361Y475141D01*
X371268Y475152D01*
D02*
G37*
G36*
X360463Y474715D02*
X358874Y472444D01*
X360463D01*
Y474715D01*
D02*
G37*
G36*
X234648Y484128D02*
X232950D01*
Y482463D01*
X234456D01*
X234495Y482469D01*
X234538D01*
X234642Y482474D01*
X234757Y482485D01*
X234877Y482501D01*
X234992Y482523D01*
X235095Y482556D01*
X235101D01*
X235106Y482561D01*
X235139Y482572D01*
X235183Y482594D01*
X235243Y482627D01*
X235303Y482670D01*
X235368Y482720D01*
X235434Y482785D01*
X235489Y482856D01*
X235494Y482867D01*
X235510Y482894D01*
X235532Y482933D01*
X235560Y482993D01*
X235581Y483058D01*
X235603Y483135D01*
X235619Y483222D01*
X235625Y483309D01*
Y483315D01*
Y483326D01*
Y483342D01*
X235619Y483369D01*
Y483397D01*
X235614Y483435D01*
X235592Y483517D01*
X235560Y483610D01*
X235516Y483708D01*
X235450Y483801D01*
X235407Y483850D01*
X235363Y483893D01*
X235357Y483899D01*
X235352Y483905D01*
X235336Y483915D01*
X235314Y483932D01*
X235286Y483948D01*
X235248Y483970D01*
X235210Y483992D01*
X235161Y484014D01*
X235106Y484035D01*
X235046Y484052D01*
X234981Y484074D01*
X234910Y484090D01*
X234828Y484106D01*
X234740Y484117D01*
X234648Y484128D01*
D02*
G37*
G36*
X370422Y466264D02*
X369319D01*
Y464741D01*
X370514D01*
X370558Y464746D01*
X370651D01*
X370755Y464752D01*
X370864Y464763D01*
X370962Y464779D01*
X371006Y464784D01*
X371044Y464795D01*
X371050D01*
X371055Y464801D01*
X371088Y464812D01*
X371131Y464828D01*
X371186Y464855D01*
X371246Y464888D01*
X371312Y464932D01*
X371372Y464986D01*
X371426Y465047D01*
X371432Y465057D01*
X371448Y465079D01*
X371470Y465118D01*
X371492Y465167D01*
X371514Y465232D01*
X371535Y465309D01*
X371552Y465390D01*
X371557Y465489D01*
Y465494D01*
Y465500D01*
Y465532D01*
X371552Y465576D01*
X371541Y465636D01*
X371525Y465707D01*
X371503Y465784D01*
X371476Y465860D01*
X371432Y465931D01*
X371426Y465942D01*
X371410Y465964D01*
X371383Y465997D01*
X371344Y466035D01*
X371295Y466078D01*
X371235Y466122D01*
X371170Y466160D01*
X371088Y466193D01*
X371077Y466199D01*
X371066D01*
X371044Y466204D01*
X371022Y466210D01*
X370989Y466215D01*
X370951Y466220D01*
X370913Y466231D01*
X370864Y466237D01*
X370804Y466242D01*
X370744Y466248D01*
X370673Y466253D01*
X370596Y466259D01*
X370514D01*
X370422Y466264D01*
D02*
G37*
G36*
X370482Y464146D02*
X369319D01*
Y462415D01*
X370684D01*
X370755Y462420D01*
X370826D01*
X370902Y462426D01*
X370973Y462431D01*
X371028Y462437D01*
X371039D01*
X371066Y462442D01*
X371110Y462453D01*
X371164Y462469D01*
X371224Y462486D01*
X371284Y462513D01*
X371350Y462540D01*
X371410Y462573D01*
X371415Y462579D01*
X371437Y462590D01*
X371464Y462611D01*
X371503Y462644D01*
X371541Y462682D01*
X371585Y462732D01*
X371628Y462786D01*
X371667Y462852D01*
X371672Y462862D01*
X371683Y462884D01*
X371699Y462923D01*
X371721Y462977D01*
X371738Y463037D01*
X371754Y463108D01*
X371765Y463190D01*
X371770Y463277D01*
Y463283D01*
Y463288D01*
Y463305D01*
Y463327D01*
X371765Y463376D01*
X371754Y463447D01*
X371732Y463523D01*
X371710Y463605D01*
X371672Y463687D01*
X371623Y463769D01*
X371617Y463780D01*
X371596Y463802D01*
X371563Y463840D01*
X371519Y463883D01*
X371459Y463933D01*
X371388Y463976D01*
X371312Y464020D01*
X371219Y464058D01*
X371213D01*
X371208Y464064D01*
X371192Y464069D01*
X371170Y464075D01*
X371142Y464080D01*
X371115Y464085D01*
X371077Y464096D01*
X371033Y464102D01*
X370979Y464113D01*
X370924Y464118D01*
X370864Y464124D01*
X370798Y464135D01*
X370651Y464140D01*
X370482Y464146D01*
D02*
G37*
G36*
X390012Y466362D02*
X389974D01*
X389941Y466357D01*
X389908Y466352D01*
X389865Y466346D01*
X389767Y466319D01*
X389657Y466275D01*
X389603Y466248D01*
X389543Y466210D01*
X389488Y466171D01*
X389433Y466122D01*
X389379Y466068D01*
X389330Y466002D01*
X389324Y465997D01*
X389319Y465980D01*
X389302Y465953D01*
X389281Y465909D01*
X389259Y465855D01*
X389231Y465789D01*
X389199Y465713D01*
X389171Y465614D01*
X389144Y465505D01*
X389111Y465385D01*
X389084Y465243D01*
X389062Y465090D01*
X389040Y464921D01*
X389029Y464730D01*
X389018Y464528D01*
X389013Y464304D01*
Y464298D01*
Y464288D01*
Y464271D01*
Y464249D01*
Y464222D01*
Y464184D01*
X389018Y464102D01*
X389024Y464004D01*
X389029Y463889D01*
X389035Y463763D01*
X389051Y463632D01*
X389084Y463354D01*
X389106Y463217D01*
X389133Y463081D01*
X389166Y462955D01*
X389210Y462841D01*
X389253Y462737D01*
X389302Y462650D01*
X389308Y462644D01*
X389313Y462633D01*
X389330Y462611D01*
X389357Y462584D01*
X389384Y462557D01*
X389417Y462524D01*
X389499Y462448D01*
X389603Y462371D01*
X389728Y462311D01*
X389794Y462284D01*
X389865Y462262D01*
X389941Y462251D01*
X390018Y462246D01*
X390034D01*
X390061Y462251D01*
X390089D01*
X390127Y462256D01*
X390171Y462267D01*
X390269Y462295D01*
X390323Y462317D01*
X390378Y462344D01*
X390438Y462377D01*
X390498Y462420D01*
X390558Y462464D01*
X390618Y462519D01*
X390678Y462584D01*
X390733Y462655D01*
X390738Y462661D01*
X390744Y462677D01*
X390760Y462699D01*
X390777Y462737D01*
X390804Y462786D01*
X390826Y462852D01*
X390853Y462928D01*
X390880Y463015D01*
X390908Y463119D01*
X390935Y463239D01*
X390962Y463370D01*
X390984Y463523D01*
X391000Y463692D01*
X391017Y463878D01*
X391022Y464080D01*
X391028Y464304D01*
Y464309D01*
Y464320D01*
Y464337D01*
Y464359D01*
Y464386D01*
Y464419D01*
X391022Y464506D01*
X391017Y464604D01*
X391011Y464719D01*
X391006Y464845D01*
X390989Y464976D01*
X390957Y465254D01*
X390929Y465390D01*
X390902Y465521D01*
X390869Y465647D01*
X390831Y465767D01*
X390788Y465866D01*
X390733Y465953D01*
X390727Y465958D01*
X390722Y465969D01*
X390706Y465991D01*
X390684Y466018D01*
X390651Y466046D01*
X390618Y466084D01*
X390580Y466122D01*
X390536Y466160D01*
X390433Y466231D01*
X390307Y466297D01*
X390242Y466324D01*
X390165Y466346D01*
X390094Y466357D01*
X390012Y466362D01*
D02*
G37*
G36*
X381156Y466373D02*
X381031D01*
X380998Y466368D01*
X380943D01*
X380883Y466357D01*
X380812Y466346D01*
X380736Y466330D01*
X380648Y466313D01*
X380555Y466286D01*
X380457Y466253D01*
X380353Y466215D01*
X380255Y466166D01*
X380151Y466111D01*
X380048Y466046D01*
X379944Y465969D01*
X379846Y465882D01*
X379840Y465876D01*
X379824Y465860D01*
X379797Y465827D01*
X379769Y465789D01*
X379726Y465734D01*
X379687Y465669D01*
X379638Y465587D01*
X379594Y465500D01*
X379545Y465390D01*
X379496Y465270D01*
X379458Y465139D01*
X379420Y464992D01*
X379387Y464834D01*
X379360Y464659D01*
X379343Y464468D01*
X379338Y464260D01*
Y464249D01*
Y464222D01*
X379343Y464173D01*
Y464107D01*
X379354Y464031D01*
X379365Y463944D01*
X379376Y463845D01*
X379398Y463742D01*
X379425Y463627D01*
X379458Y463507D01*
X379496Y463392D01*
X379545Y463272D01*
X379600Y463152D01*
X379665Y463037D01*
X379736Y462928D01*
X379824Y462824D01*
X379829Y462819D01*
X379846Y462803D01*
X379873Y462775D01*
X379911Y462742D01*
X379960Y462704D01*
X380020Y462661D01*
X380086Y462611D01*
X380162Y462568D01*
X380244Y462519D01*
X380343Y462469D01*
X380441Y462426D01*
X380550Y462388D01*
X380665Y462355D01*
X380790Y462327D01*
X380916Y462311D01*
X381052Y462306D01*
X381085D01*
X381123Y462311D01*
X381178Y462317D01*
X381243Y462322D01*
X381314Y462333D01*
X381402Y462349D01*
X381489Y462371D01*
X381587Y462398D01*
X381686Y462431D01*
X381789Y462475D01*
X381893Y462529D01*
X381997Y462590D01*
X382101Y462655D01*
X382199Y462737D01*
X382292Y462830D01*
X382297Y462835D01*
X382314Y462857D01*
X382335Y462884D01*
X382368Y462928D01*
X382406Y462983D01*
X382450Y463048D01*
X382494Y463125D01*
X382537Y463217D01*
X382581Y463316D01*
X382630Y463430D01*
X382668Y463551D01*
X382707Y463687D01*
X382739Y463834D01*
X382761Y463987D01*
X382778Y464156D01*
X382783Y464331D01*
Y464337D01*
Y464359D01*
Y464391D01*
X382778Y464435D01*
Y464490D01*
X382772Y464550D01*
X382767Y464621D01*
X382756Y464697D01*
X382734Y464866D01*
X382696Y465047D01*
X382641Y465227D01*
X382570Y465407D01*
Y465412D01*
X382559Y465429D01*
X382548Y465451D01*
X382532Y465483D01*
X382510Y465521D01*
X382483Y465565D01*
X382417Y465669D01*
X382330Y465784D01*
X382226Y465898D01*
X382106Y466013D01*
X381964Y466117D01*
X381959Y466122D01*
X381948Y466128D01*
X381926Y466139D01*
X381893Y466155D01*
X381855Y466177D01*
X381811Y466199D01*
X381762Y466220D01*
X381702Y466248D01*
X381637Y466269D01*
X381571Y466291D01*
X381418Y466335D01*
X381249Y466362D01*
X381156Y466373D01*
D02*
G37*
G36*
X375680D02*
X375554D01*
X375521Y466368D01*
X375467D01*
X375407Y466357D01*
X375336Y466346D01*
X375259Y466330D01*
X375172Y466313D01*
X375079Y466286D01*
X374981Y466253D01*
X374877Y466215D01*
X374779Y466166D01*
X374675Y466111D01*
X374571Y466046D01*
X374467Y465969D01*
X374369Y465882D01*
X374364Y465876D01*
X374347Y465860D01*
X374320Y465827D01*
X374293Y465789D01*
X374249Y465734D01*
X374211Y465669D01*
X374162Y465587D01*
X374118Y465500D01*
X374069Y465390D01*
X374020Y465270D01*
X373982Y465139D01*
X373943Y464992D01*
X373911Y464834D01*
X373883Y464659D01*
X373867Y464468D01*
X373862Y464260D01*
Y464249D01*
Y464222D01*
X373867Y464173D01*
Y464107D01*
X373878Y464031D01*
X373889Y463944D01*
X373900Y463845D01*
X373921Y463742D01*
X373949Y463627D01*
X373982Y463507D01*
X374020Y463392D01*
X374069Y463272D01*
X374124Y463152D01*
X374189Y463037D01*
X374260Y462928D01*
X374347Y462824D01*
X374353Y462819D01*
X374369Y462803D01*
X374397Y462775D01*
X374435Y462742D01*
X374484Y462704D01*
X374544Y462661D01*
X374609Y462611D01*
X374686Y462568D01*
X374768Y462519D01*
X374866Y462469D01*
X374964Y462426D01*
X375074Y462388D01*
X375188Y462355D01*
X375314Y462327D01*
X375439Y462311D01*
X375576Y462306D01*
X375609D01*
X375647Y462311D01*
X375701Y462317D01*
X375767Y462322D01*
X375838Y462333D01*
X375925Y462349D01*
X376013Y462371D01*
X376111Y462398D01*
X376209Y462431D01*
X376313Y462475D01*
X376417Y462529D01*
X376520Y462590D01*
X376624Y462655D01*
X376723Y462737D01*
X376815Y462830D01*
X376821Y462835D01*
X376837Y462857D01*
X376859Y462884D01*
X376892Y462928D01*
X376930Y462983D01*
X376974Y463048D01*
X377017Y463125D01*
X377061Y463217D01*
X377105Y463316D01*
X377154Y463430D01*
X377192Y463551D01*
X377230Y463687D01*
X377263Y463834D01*
X377285Y463987D01*
X377301Y464156D01*
X377307Y464331D01*
Y464337D01*
Y464359D01*
Y464391D01*
X377301Y464435D01*
Y464490D01*
X377296Y464550D01*
X377290Y464621D01*
X377279Y464697D01*
X377258Y464866D01*
X377219Y465047D01*
X377165Y465227D01*
X377094Y465407D01*
Y465412D01*
X377083Y465429D01*
X377072Y465451D01*
X377056Y465483D01*
X377034Y465521D01*
X377006Y465565D01*
X376941Y465669D01*
X376854Y465784D01*
X376750Y465898D01*
X376630Y466013D01*
X376488Y466117D01*
X376482Y466122D01*
X376471Y466128D01*
X376449Y466139D01*
X376417Y466155D01*
X376378Y466177D01*
X376335Y466199D01*
X376286Y466220D01*
X376226Y466248D01*
X376160Y466269D01*
X376095Y466291D01*
X375942Y466335D01*
X375773Y466362D01*
X375680Y466373D01*
D02*
G37*
G36*
X244836Y455196D02*
X243673D01*
Y451346D01*
X244830D01*
X244874Y451352D01*
X244923D01*
X245033Y451357D01*
X245158Y451368D01*
X245289Y451385D01*
X245415Y451406D01*
X245529Y451434D01*
X245535D01*
X245540Y451439D01*
X245557Y451445D01*
X245579Y451450D01*
X245628Y451472D01*
X245693Y451499D01*
X245764Y451537D01*
X245841Y451581D01*
X245917Y451636D01*
X245983Y451696D01*
X245988Y451701D01*
X245993Y451707D01*
X246021Y451740D01*
X246064Y451794D01*
X246119Y451865D01*
X246174Y451958D01*
X246234Y452067D01*
X246294Y452193D01*
X246348Y452335D01*
Y452340D01*
X246354Y452351D01*
X246359Y452373D01*
X246370Y452406D01*
X246381Y452444D01*
X246392Y452493D01*
X246403Y452548D01*
X246419Y452608D01*
X246430Y452673D01*
X246441Y452750D01*
X246452Y452826D01*
X246463Y452913D01*
X246480Y453099D01*
X246485Y453306D01*
Y453317D01*
Y453339D01*
Y453383D01*
X246480Y453438D01*
Y453503D01*
X246474Y453580D01*
X246463Y453661D01*
X246452Y453754D01*
X246419Y453951D01*
X246376Y454153D01*
X246310Y454344D01*
X246267Y454437D01*
X246223Y454519D01*
X246217Y454524D01*
X246212Y454535D01*
X246196Y454557D01*
X246174Y454590D01*
X246152Y454622D01*
X246119Y454661D01*
X246048Y454748D01*
X245955Y454846D01*
X245846Y454939D01*
X245726Y455026D01*
X245660Y455059D01*
X245589Y455092D01*
X245584D01*
X245579Y455097D01*
X245562Y455103D01*
X245540Y455108D01*
X245508Y455114D01*
X245475Y455125D01*
X245431Y455136D01*
X245382Y455147D01*
X245327Y455152D01*
X245262Y455163D01*
X245191Y455174D01*
X245114Y455179D01*
X245027Y455185D01*
X244934Y455190D01*
X244836Y455196D01*
D02*
G37*
G36*
X380599Y445196D02*
X379436D01*
Y441346D01*
X380594D01*
X380637Y441352D01*
X380686D01*
X380796Y441357D01*
X380921Y441368D01*
X381052Y441385D01*
X381178Y441406D01*
X381293Y441434D01*
X381298D01*
X381304Y441439D01*
X381320Y441445D01*
X381342Y441450D01*
X381391Y441472D01*
X381456Y441499D01*
X381527Y441537D01*
X381604Y441581D01*
X381680Y441636D01*
X381746Y441696D01*
X381751Y441701D01*
X381757Y441707D01*
X381784Y441740D01*
X381828Y441794D01*
X381882Y441865D01*
X381937Y441958D01*
X381997Y442067D01*
X382057Y442193D01*
X382112Y442335D01*
Y442340D01*
X382117Y442351D01*
X382122Y442373D01*
X382133Y442406D01*
X382144Y442444D01*
X382155Y442493D01*
X382166Y442548D01*
X382183Y442608D01*
X382193Y442673D01*
X382204Y442750D01*
X382215Y442826D01*
X382226Y442913D01*
X382243Y443099D01*
X382248Y443306D01*
Y443317D01*
Y443339D01*
Y443383D01*
X382243Y443437D01*
Y443503D01*
X382237Y443579D01*
X382226Y443661D01*
X382215Y443754D01*
X382183Y443951D01*
X382139Y444153D01*
X382073Y444344D01*
X382030Y444437D01*
X381986Y444519D01*
X381980Y444524D01*
X381975Y444535D01*
X381959Y444557D01*
X381937Y444590D01*
X381915Y444622D01*
X381882Y444661D01*
X381811Y444748D01*
X381718Y444846D01*
X381609Y444939D01*
X381489Y445026D01*
X381424Y445059D01*
X381353Y445092D01*
X381347D01*
X381342Y445097D01*
X381325Y445103D01*
X381304Y445108D01*
X381271Y445114D01*
X381238Y445125D01*
X381194Y445136D01*
X381145Y445147D01*
X381090Y445152D01*
X381025Y445163D01*
X380954Y445174D01*
X380878Y445179D01*
X380790Y445185D01*
X380697Y445190D01*
X380599Y445196D01*
D02*
G37*
G36*
X265549Y460077D02*
X264446D01*
Y458554D01*
X265641D01*
X265685Y458560D01*
X265778D01*
X265882Y458565D01*
X265991Y458576D01*
X266089Y458592D01*
X266133Y458598D01*
X266171Y458609D01*
X266177D01*
X266182Y458614D01*
X266215Y458625D01*
X266258Y458642D01*
X266313Y458669D01*
X266373Y458702D01*
X266439Y458745D01*
X266499Y458800D01*
X266553Y458860D01*
X266559Y458871D01*
X266575Y458893D01*
X266597Y458931D01*
X266619Y458980D01*
X266641Y459046D01*
X266662Y459122D01*
X266679Y459204D01*
X266684Y459302D01*
Y459308D01*
Y459313D01*
Y459346D01*
X266679Y459390D01*
X266668Y459450D01*
X266652Y459521D01*
X266630Y459597D01*
X266602Y459674D01*
X266559Y459745D01*
X266553Y459755D01*
X266537Y459777D01*
X266510Y459810D01*
X266471Y459848D01*
X266422Y459892D01*
X266362Y459936D01*
X266297Y459974D01*
X266215Y460007D01*
X266204Y460012D01*
X266193D01*
X266171Y460017D01*
X266149Y460023D01*
X266116Y460028D01*
X266078Y460034D01*
X266040Y460045D01*
X265991Y460050D01*
X265931Y460056D01*
X265871Y460061D01*
X265800Y460067D01*
X265723Y460072D01*
X265641D01*
X265549Y460077D01*
D02*
G37*
G36*
X265609Y457959D02*
X264446D01*
Y456228D01*
X265811D01*
X265882Y456234D01*
X265953D01*
X266029Y456239D01*
X266100Y456245D01*
X266155Y456250D01*
X266165D01*
X266193Y456255D01*
X266236Y456266D01*
X266291Y456283D01*
X266351Y456299D01*
X266411Y456326D01*
X266477Y456354D01*
X266537Y456387D01*
X266542Y456392D01*
X266564Y456403D01*
X266591Y456425D01*
X266630Y456458D01*
X266668Y456496D01*
X266711Y456545D01*
X266755Y456600D01*
X266793Y456665D01*
X266799Y456676D01*
X266810Y456698D01*
X266826Y456736D01*
X266848Y456791D01*
X266864Y456851D01*
X266881Y456922D01*
X266892Y457003D01*
X266897Y457091D01*
Y457096D01*
Y457102D01*
Y457118D01*
Y457140D01*
X266892Y457189D01*
X266881Y457260D01*
X266859Y457337D01*
X266837Y457418D01*
X266799Y457500D01*
X266750Y457582D01*
X266744Y457593D01*
X266722Y457615D01*
X266690Y457653D01*
X266646Y457697D01*
X266586Y457746D01*
X266515Y457790D01*
X266439Y457833D01*
X266346Y457872D01*
X266340D01*
X266335Y457877D01*
X266318Y457883D01*
X266297Y457888D01*
X266269Y457894D01*
X266242Y457899D01*
X266204Y457910D01*
X266160Y457915D01*
X266106Y457926D01*
X266051Y457932D01*
X265991Y457937D01*
X265925Y457948D01*
X265778Y457954D01*
X265609Y457959D01*
D02*
G37*
G36*
X276283Y460187D02*
X276157D01*
X276125Y460181D01*
X276070D01*
X276010Y460170D01*
X275939Y460159D01*
X275863Y460143D01*
X275775Y460127D01*
X275682Y460099D01*
X275584Y460067D01*
X275480Y460028D01*
X275382Y459979D01*
X275278Y459925D01*
X275174Y459859D01*
X275071Y459783D01*
X274973Y459695D01*
X274967Y459690D01*
X274951Y459674D01*
X274923Y459641D01*
X274896Y459602D01*
X274852Y459548D01*
X274814Y459482D01*
X274765Y459401D01*
X274721Y459313D01*
X274672Y459204D01*
X274623Y459084D01*
X274585Y458953D01*
X274547Y458805D01*
X274514Y458647D01*
X274487Y458472D01*
X274470Y458281D01*
X274465Y458074D01*
Y458063D01*
Y458036D01*
X274470Y457986D01*
Y457921D01*
X274481Y457844D01*
X274492Y457757D01*
X274503Y457659D01*
X274525Y457555D01*
X274552Y457440D01*
X274585Y457320D01*
X274623Y457206D01*
X274672Y457086D01*
X274727Y456965D01*
X274792Y456851D01*
X274863Y456742D01*
X274951Y456638D01*
X274956Y456632D01*
X274973Y456616D01*
X275000Y456589D01*
X275038Y456556D01*
X275087Y456518D01*
X275147Y456474D01*
X275213Y456425D01*
X275289Y456381D01*
X275371Y456332D01*
X275469Y456283D01*
X275568Y456239D01*
X275677Y456201D01*
X275792Y456168D01*
X275917Y456141D01*
X276043Y456124D01*
X276179Y456119D01*
X276212D01*
X276250Y456124D01*
X276305Y456130D01*
X276370Y456135D01*
X276441Y456146D01*
X276529Y456163D01*
X276616Y456185D01*
X276714Y456212D01*
X276813Y456245D01*
X276916Y456288D01*
X277020Y456343D01*
X277124Y456403D01*
X277227Y456468D01*
X277326Y456550D01*
X277419Y456643D01*
X277424Y456649D01*
X277441Y456671D01*
X277462Y456698D01*
X277495Y456742D01*
X277533Y456796D01*
X277577Y456862D01*
X277621Y456938D01*
X277664Y457031D01*
X277708Y457129D01*
X277757Y457244D01*
X277795Y457364D01*
X277834Y457500D01*
X277866Y457648D01*
X277888Y457801D01*
X277905Y457970D01*
X277910Y458145D01*
Y458150D01*
Y458172D01*
Y458205D01*
X277905Y458248D01*
Y458303D01*
X277899Y458363D01*
X277894Y458434D01*
X277883Y458510D01*
X277861Y458680D01*
X277823Y458860D01*
X277768Y459040D01*
X277697Y459220D01*
Y459226D01*
X277686Y459242D01*
X277675Y459264D01*
X277659Y459297D01*
X277637Y459335D01*
X277610Y459379D01*
X277544Y459482D01*
X277457Y459597D01*
X277353Y459712D01*
X277233Y459826D01*
X277091Y459930D01*
X277086Y459936D01*
X277075Y459941D01*
X277053Y459952D01*
X277020Y459968D01*
X276982Y459990D01*
X276938Y460012D01*
X276889Y460034D01*
X276829Y460061D01*
X276763Y460083D01*
X276698Y460105D01*
X276545Y460148D01*
X276376Y460176D01*
X276283Y460187D01*
D02*
G37*
G36*
X270807D02*
X270681D01*
X270648Y460181D01*
X270594D01*
X270534Y460170D01*
X270463Y460159D01*
X270386Y460143D01*
X270299Y460127D01*
X270206Y460099D01*
X270108Y460067D01*
X270004Y460028D01*
X269906Y459979D01*
X269802Y459925D01*
X269698Y459859D01*
X269594Y459783D01*
X269496Y459695D01*
X269491Y459690D01*
X269474Y459674D01*
X269447Y459641D01*
X269420Y459602D01*
X269376Y459548D01*
X269338Y459482D01*
X269289Y459401D01*
X269245Y459313D01*
X269196Y459204D01*
X269147Y459084D01*
X269109Y458953D01*
X269070Y458805D01*
X269038Y458647D01*
X269010Y458472D01*
X268994Y458281D01*
X268988Y458074D01*
Y458063D01*
Y458036D01*
X268994Y457986D01*
Y457921D01*
X269005Y457844D01*
X269016Y457757D01*
X269027Y457659D01*
X269048Y457555D01*
X269076Y457440D01*
X269109Y457320D01*
X269147Y457206D01*
X269196Y457086D01*
X269250Y456965D01*
X269316Y456851D01*
X269387Y456742D01*
X269474Y456638D01*
X269480Y456632D01*
X269496Y456616D01*
X269524Y456589D01*
X269562Y456556D01*
X269611Y456518D01*
X269671Y456474D01*
X269736Y456425D01*
X269813Y456381D01*
X269895Y456332D01*
X269993Y456283D01*
X270091Y456239D01*
X270200Y456201D01*
X270315Y456168D01*
X270441Y456141D01*
X270566Y456124D01*
X270703Y456119D01*
X270736D01*
X270774Y456124D01*
X270828Y456130D01*
X270894Y456135D01*
X270965Y456146D01*
X271052Y456163D01*
X271140Y456185D01*
X271238Y456212D01*
X271336Y456245D01*
X271440Y456288D01*
X271544Y456343D01*
X271647Y456403D01*
X271751Y456468D01*
X271849Y456550D01*
X271942Y456643D01*
X271948Y456649D01*
X271964Y456671D01*
X271986Y456698D01*
X272019Y456742D01*
X272057Y456796D01*
X272101Y456862D01*
X272144Y456938D01*
X272188Y457031D01*
X272232Y457129D01*
X272281Y457244D01*
X272319Y457364D01*
X272357Y457500D01*
X272390Y457648D01*
X272412Y457801D01*
X272428Y457970D01*
X272434Y458145D01*
Y458150D01*
Y458172D01*
Y458205D01*
X272428Y458248D01*
Y458303D01*
X272423Y458363D01*
X272417Y458434D01*
X272406Y458510D01*
X272385Y458680D01*
X272346Y458860D01*
X272292Y459040D01*
X272221Y459220D01*
Y459226D01*
X272210Y459242D01*
X272199Y459264D01*
X272182Y459297D01*
X272161Y459335D01*
X272133Y459379D01*
X272068Y459482D01*
X271981Y459597D01*
X271877Y459712D01*
X271757Y459826D01*
X271615Y459930D01*
X271609Y459936D01*
X271598Y459941D01*
X271576Y459952D01*
X271544Y459968D01*
X271505Y459990D01*
X271462Y460012D01*
X271413Y460034D01*
X271353Y460061D01*
X271287Y460083D01*
X271221Y460105D01*
X271069Y460148D01*
X270899Y460176D01*
X270807Y460187D01*
D02*
G37*
G36*
X266051Y466408D02*
Y466403D01*
X266045Y466387D01*
X266040Y466359D01*
X266035Y466326D01*
X266024Y466277D01*
X266013Y466228D01*
X265996Y466168D01*
X265980Y466103D01*
X265964Y466032D01*
X265942Y465955D01*
X265893Y465791D01*
X265838Y465617D01*
X265778Y465437D01*
X265221Y463957D01*
X266941D01*
X266411Y465355D01*
Y465360D01*
X266400Y465382D01*
X266389Y465415D01*
X266373Y465464D01*
X266351Y465513D01*
X266329Y465578D01*
X266302Y465649D01*
X266275Y465726D01*
X266220Y465895D01*
X266160Y466070D01*
X266100Y466245D01*
X266051Y466408D01*
D02*
G37*
G36*
X280705Y466447D02*
X280580D01*
X280547Y466441D01*
X280493D01*
X280433Y466430D01*
X280362Y466419D01*
X280285Y466403D01*
X280198Y466387D01*
X280105Y466359D01*
X280007Y466326D01*
X279903Y466288D01*
X279805Y466239D01*
X279701Y466185D01*
X279597Y466119D01*
X279493Y466043D01*
X279395Y465955D01*
X279390Y465950D01*
X279373Y465933D01*
X279346Y465901D01*
X279319Y465862D01*
X279275Y465808D01*
X279237Y465742D01*
X279188Y465660D01*
X279144Y465573D01*
X279095Y465464D01*
X279046Y465344D01*
X279008Y465213D01*
X278969Y465065D01*
X278937Y464907D01*
X278909Y464732D01*
X278893Y464541D01*
X278887Y464333D01*
Y464323D01*
Y464295D01*
X278893Y464246D01*
Y464181D01*
X278904Y464104D01*
X278915Y464017D01*
X278926Y463919D01*
X278947Y463815D01*
X278975Y463700D01*
X279008Y463580D01*
X279046Y463465D01*
X279095Y463345D01*
X279149Y463225D01*
X279215Y463110D01*
X279286Y463001D01*
X279373Y462898D01*
X279379Y462892D01*
X279395Y462876D01*
X279422Y462848D01*
X279461Y462816D01*
X279510Y462777D01*
X279570Y462734D01*
X279635Y462685D01*
X279712Y462641D01*
X279794Y462592D01*
X279892Y462543D01*
X279990Y462499D01*
X280100Y462461D01*
X280214Y462428D01*
X280340Y462401D01*
X280465Y462384D01*
X280602Y462379D01*
X280634D01*
X280673Y462384D01*
X280727Y462390D01*
X280793Y462395D01*
X280864Y462406D01*
X280951Y462423D01*
X281039Y462444D01*
X281137Y462472D01*
X281235Y462504D01*
X281339Y462548D01*
X281443Y462603D01*
X281546Y462663D01*
X281650Y462728D01*
X281748Y462810D01*
X281841Y462903D01*
X281847Y462909D01*
X281863Y462930D01*
X281885Y462958D01*
X281918Y463001D01*
X281956Y463056D01*
X281999Y463121D01*
X282043Y463198D01*
X282087Y463291D01*
X282131Y463389D01*
X282180Y463504D01*
X282218Y463624D01*
X282256Y463760D01*
X282289Y463908D01*
X282311Y464060D01*
X282327Y464230D01*
X282333Y464404D01*
Y464410D01*
Y464432D01*
Y464465D01*
X282327Y464508D01*
Y464563D01*
X282322Y464623D01*
X282316Y464694D01*
X282305Y464770D01*
X282283Y464940D01*
X282245Y465120D01*
X282191Y465300D01*
X282120Y465480D01*
Y465486D01*
X282109Y465502D01*
X282098Y465524D01*
X282081Y465557D01*
X282060Y465595D01*
X282032Y465638D01*
X281967Y465742D01*
X281879Y465857D01*
X281776Y465972D01*
X281656Y466086D01*
X281514Y466190D01*
X281508Y466195D01*
X281497Y466201D01*
X281475Y466212D01*
X281443Y466228D01*
X281404Y466250D01*
X281361Y466272D01*
X281312Y466294D01*
X281252Y466321D01*
X281186Y466343D01*
X281120Y466365D01*
X280968Y466408D01*
X280798Y466436D01*
X280705Y466447D01*
D02*
G37*
%LPD*%
D10*
X332323Y480669D02*
G03*
X332323Y480669I-6890J0D01*
G01*
Y450669D02*
G03*
X332323Y450669I-6890J0D01*
G01*
X313228Y475787D02*
Y485551D01*
X315669Y468465D02*
X335197D01*
X315669Y492874D02*
X335197D01*
X337638Y475787D02*
Y485551D01*
X313228Y445787D02*
Y455551D01*
X315669Y438465D02*
X335197D01*
X315669Y462874D02*
X335197D01*
X337638Y445787D02*
Y455551D01*
D11*
X425571Y461811D02*
Y475197D01*
X440571Y461811D02*
Y475197D01*
X250433Y467559D02*
X260433D01*
Y436063D02*
Y467559D01*
X250433Y436063D02*
X260433D01*
X250433D02*
Y467559D01*
X275236Y489646D02*
X275630D01*
X275236Y493976D02*
X275630D01*
X396685Y436319D02*
Y497303D01*
X406488Y436319D02*
Y497303D01*
X396685D02*
X406488D01*
X396685Y436319D02*
X406488D01*
X229311D02*
Y497303D01*
X219508Y436319D02*
Y497303D01*
Y436319D02*
X229311D01*
X219508Y497303D02*
X229311D01*
X275236Y479646D02*
X275630D01*
X275236Y483976D02*
X275630D01*
D12*
X285000Y515000D02*
X279002D01*
Y517999D01*
X280002Y518999D01*
X282001D01*
X283001Y517999D01*
Y515000D01*
X280002Y520998D02*
X279002Y521998D01*
Y523997D01*
X280002Y524997D01*
X281001D01*
X282001Y523997D01*
Y522997D01*
Y523997D01*
X283001Y524997D01*
X284000D01*
X285000Y523997D01*
Y521998D01*
X284000Y520998D01*
X260433Y515748D02*
X254435D01*
Y518747D01*
X255435Y519747D01*
X257434D01*
X258434Y518747D01*
Y515748D01*
X260433Y524745D02*
X254435D01*
X257434Y521746D01*
Y525745D01*
X267717Y515748D02*
X261719D01*
Y518747D01*
X262718Y519747D01*
X264718D01*
X265717Y518747D01*
Y515748D01*
X267717Y521746D02*
Y523745D01*
Y522746D01*
X261719D01*
X262718Y521746D01*
X277500Y515000D02*
X271502D01*
Y517999D01*
X272502Y518999D01*
X274501D01*
X275501Y517999D01*
Y515000D01*
X277500Y524997D02*
Y520998D01*
X273501Y524997D01*
X272502D01*
X271502Y523997D01*
Y521998D01*
X272502Y520998D01*
D13*
X423091Y459055D02*
X424424D01*
X423757D01*
Y463054D01*
X423091Y462387D01*
X424182Y474016D02*
X421516D01*
X424182Y476682D01*
Y477348D01*
X423515Y478015D01*
X422182D01*
X421516Y477348D01*
X444536Y463054D02*
X441870D01*
Y461055D01*
X443203Y461721D01*
X443869D01*
X444536Y461055D01*
Y459722D01*
X443869Y459055D01*
X442536D01*
X441870Y459722D01*
X444536Y478015D02*
X443203Y477348D01*
X441870Y476015D01*
Y474682D01*
X442536Y474016D01*
X443869D01*
X444536Y474682D01*
Y475349D01*
X443869Y476015D01*
X441870D01*
D14*
X259842Y489528D02*
Y494250D01*
X262204D01*
X262991Y493463D01*
Y491889D01*
X262204Y491102D01*
X259842D01*
X261417D02*
X262991Y489528D01*
X264565Y493463D02*
X265353Y494250D01*
X266927D01*
X267714Y493463D01*
Y492676D01*
X266927Y491889D01*
X266140D01*
X266927D01*
X267714Y491102D01*
Y490315D01*
X266927Y489528D01*
X265353D01*
X264565Y490315D01*
X298424Y492125D02*
X297637Y492912D01*
X296063D01*
X295276Y492125D01*
Y491338D01*
X296063Y490550D01*
X297637D01*
X298424Y489763D01*
Y488976D01*
X297637Y488189D01*
X296063D01*
X295276Y488976D01*
X299998Y492912D02*
Y488189D01*
X301573Y489763D01*
X303147Y488189D01*
Y492912D01*
X307870Y488189D02*
X304721D01*
X307870Y491338D01*
Y492125D01*
X307083Y492912D01*
X305508D01*
X304721Y492125D01*
X259842Y480315D02*
Y485038D01*
X262204D01*
X262991Y484251D01*
Y482676D01*
X262204Y481889D01*
X259842D01*
X261417D02*
X262991Y480315D01*
X267714D02*
X264565D01*
X267714Y483464D01*
Y484251D01*
X266927Y485038D01*
X265353D01*
X264565Y484251D01*
X298424Y463463D02*
X297637Y464250D01*
X296063D01*
X295276Y463463D01*
Y462676D01*
X296063Y461889D01*
X297637D01*
X298424Y461102D01*
Y460315D01*
X297637Y459528D01*
X296063D01*
X295276Y460315D01*
X299998Y464250D02*
Y459528D01*
X301573Y461102D01*
X303147Y459528D01*
Y464250D01*
X304721Y459528D02*
X306296D01*
X305508D01*
Y464250D01*
X304721Y463463D01*
M02*
