G04*
G04 #@! TF.GenerationSoftware,Altium Limited,Altium Designer,19.0.15 (446)*
G04*
G04 Layer_Color=16711935*
%FSLAX25Y25*%
%MOIN*%
G70*
G01*
G75*
%ADD10C,0.00500*%
%ADD33C,0.00394*%
D10*
X313228Y468465D02*
X337638D01*
Y492874D01*
X313228D02*
X337638D01*
X313228Y468465D02*
Y492874D01*
Y438465D02*
X337638D01*
Y462874D01*
X313228D02*
X337638D01*
X313228Y438465D02*
Y462874D01*
D33*
X438858Y475197D02*
Y478346D01*
X437284D02*
X438858D01*
X437284Y475197D02*
Y478346D01*
X438858Y458661D02*
Y461811D01*
X437284Y458661D02*
X438858D01*
X437284D02*
Y461811D01*
X432283Y458661D02*
Y461811D01*
Y458661D02*
X433858D01*
Y461811D01*
X427283Y458661D02*
Y461811D01*
Y458661D02*
X428858D01*
Y461811D01*
X432283Y475197D02*
Y478346D01*
X433858D01*
Y475197D02*
Y478346D01*
X428858Y475197D02*
Y478346D01*
X427283D02*
X428858D01*
X427283Y475197D02*
Y478346D01*
X425571Y461811D02*
Y475197D01*
Y461811D02*
X440571D01*
Y475197D01*
X425571D02*
X440571D01*
X250433Y467559D02*
X260433D01*
Y436063D02*
Y467559D01*
X250433Y436063D02*
X260433D01*
X250433D02*
Y467559D01*
X279764Y489153D02*
Y494468D01*
X271102Y489153D02*
Y494468D01*
Y489153D02*
X279764D01*
X271102Y494468D02*
X279764D01*
X396684Y436319D02*
Y497303D01*
X406489Y436319D02*
Y497303D01*
X396684D02*
X406489D01*
X396684Y436319D02*
X406489D01*
X229312D02*
Y497303D01*
X219507Y436319D02*
Y497303D01*
Y436319D02*
X229312D01*
X219507Y497303D02*
X229312D01*
X279764Y479153D02*
Y484469D01*
X271102Y479153D02*
Y484469D01*
Y479153D02*
X279764D01*
X271102Y484469D02*
X279764D01*
M02*
