G04*
G04 #@! TF.GenerationSoftware,Altium Limited,Altium Designer,19.0.15 (446)*
G04*
G04 Layer_Physical_Order=2*
G04 Layer_Color=16711680*
%FSLAX25Y25*%
%MOIN*%
G70*
G01*
G75*
%ADD12C,0.01000*%
%ADD26C,0.06102*%
%ADD27R,0.06102X0.06102*%
%ADD28C,0.05906*%
%ADD29C,0.06299*%
%ADD30R,0.06299X0.06299*%
%ADD31C,0.12992*%
%ADD32C,0.05000*%
G36*
X456693Y433071D02*
X224410D01*
X220472Y437008D01*
Y439304D01*
X220972Y439474D01*
X221450Y438851D01*
X222317Y438186D01*
X223326Y437768D01*
X224410Y437626D01*
X225493Y437768D01*
X226502Y438186D01*
X227369Y438851D01*
X228034Y439718D01*
X228452Y440728D01*
X228595Y441811D01*
X228452Y442894D01*
X228034Y443904D01*
X227369Y444771D01*
X226502Y445436D01*
X225493Y445854D01*
X224410Y445996D01*
X223326Y445854D01*
X222317Y445436D01*
X221450Y444771D01*
X220972Y444148D01*
X220472Y444318D01*
Y449304D01*
X220972Y449474D01*
X221450Y448851D01*
X222317Y448186D01*
X223326Y447768D01*
X223909Y447691D01*
Y451811D01*
Y455931D01*
X223326Y455854D01*
X222317Y455436D01*
X221450Y454771D01*
X220972Y454148D01*
X220472Y454318D01*
Y459304D01*
X220972Y459474D01*
X221450Y458851D01*
X222317Y458186D01*
X223326Y457768D01*
X224410Y457626D01*
X225493Y457768D01*
X226502Y458186D01*
X227369Y458851D01*
X228034Y459718D01*
X228452Y460728D01*
X228595Y461811D01*
X228452Y462894D01*
X228034Y463904D01*
X227369Y464771D01*
X226502Y465436D01*
X225493Y465854D01*
X224410Y465996D01*
X223326Y465854D01*
X222317Y465436D01*
X221450Y464771D01*
X220972Y464148D01*
X220472Y464318D01*
Y469304D01*
X220972Y469474D01*
X221450Y468852D01*
X222317Y468186D01*
X223326Y467768D01*
X224410Y467626D01*
X225493Y467768D01*
X226502Y468186D01*
X227369Y468852D01*
X228034Y469718D01*
X228452Y470728D01*
X228595Y471811D01*
X228452Y472894D01*
X228034Y473904D01*
X227369Y474771D01*
X226502Y475436D01*
X225493Y475854D01*
X224410Y475996D01*
X223326Y475854D01*
X222317Y475436D01*
X221450Y474771D01*
X220972Y474148D01*
X220472Y474318D01*
Y479304D01*
X220972Y479474D01*
X221450Y478852D01*
X222317Y478186D01*
X223326Y477768D01*
X224410Y477626D01*
X225493Y477768D01*
X226502Y478186D01*
X227369Y478852D01*
X228034Y479718D01*
X228452Y480728D01*
X228595Y481811D01*
X228452Y482894D01*
X228034Y483904D01*
X227369Y484771D01*
X226502Y485436D01*
X225493Y485854D01*
X224410Y485996D01*
X223326Y485854D01*
X222317Y485436D01*
X221450Y484771D01*
X220972Y484148D01*
X220472Y484318D01*
Y487661D01*
X228559D01*
Y495961D01*
X220472D01*
Y500000D01*
X456693D01*
Y433071D01*
D02*
G37*
%LPC*%
G36*
X313138Y493449D02*
Y490028D01*
X316559D01*
X316489Y490559D01*
X316090Y491521D01*
X315457Y492347D01*
X314631Y492980D01*
X313670Y493379D01*
X313138Y493449D01*
D02*
G37*
G36*
X312138D02*
X311606Y493379D01*
X310644Y492980D01*
X309819Y492347D01*
X309185Y491521D01*
X308787Y490559D01*
X308717Y490028D01*
X312138D01*
Y493449D01*
D02*
G37*
G36*
X316559Y489028D02*
X313138D01*
Y485606D01*
X313670Y485677D01*
X314631Y486075D01*
X315457Y486708D01*
X316090Y487534D01*
X316489Y488496D01*
X316559Y489028D01*
D02*
G37*
G36*
X312138D02*
X308717D01*
X308787Y488496D01*
X309185Y487534D01*
X309819Y486708D01*
X310644Y486075D01*
X311606Y485677D01*
X312138Y485606D01*
Y489028D01*
D02*
G37*
G36*
X338228Y493514D02*
X337196Y493379D01*
X336235Y492980D01*
X335409Y492347D01*
X334776Y491521D01*
X334377Y490559D01*
X334242Y489528D01*
X334377Y488496D01*
X334776Y487534D01*
X335409Y486708D01*
X336235Y486075D01*
X337196Y485677D01*
X338228Y485541D01*
X339260Y485677D01*
X340222Y486075D01*
X341048Y486708D01*
X341681Y487534D01*
X342079Y488496D01*
X342215Y489528D01*
X342079Y490559D01*
X341681Y491521D01*
X341048Y492347D01*
X340222Y492980D01*
X339260Y493379D01*
X338228Y493514D01*
D02*
G37*
G36*
X401587Y485996D02*
X400503Y485854D01*
X399494Y485436D01*
X398627Y484771D01*
X397962Y483904D01*
X397544Y482894D01*
X397401Y481811D01*
X397544Y480728D01*
X397962Y479718D01*
X398627Y478852D01*
X399494Y478186D01*
X400503Y477768D01*
X401587Y477626D01*
X402670Y477768D01*
X403679Y478186D01*
X404546Y478852D01*
X405211Y479718D01*
X405629Y480728D01*
X405772Y481811D01*
X405629Y482894D01*
X405211Y483904D01*
X404546Y484771D01*
X403679Y485436D01*
X402670Y485854D01*
X401587Y485996D01*
D02*
G37*
G36*
Y495996D02*
X400503Y495854D01*
X399494Y495436D01*
X398627Y494771D01*
X397962Y493904D01*
X397729Y493340D01*
X385433D01*
X384848Y493224D01*
X384352Y492893D01*
X364800Y473340D01*
X341873D01*
X341681Y473804D01*
X341048Y474630D01*
X340222Y475264D01*
X339260Y475662D01*
X338228Y475798D01*
X337196Y475662D01*
X336235Y475264D01*
X335409Y474630D01*
X334776Y473804D01*
X334377Y472843D01*
X334242Y471811D01*
X334377Y470779D01*
X334776Y469818D01*
X335409Y468992D01*
X336235Y468358D01*
X337196Y467960D01*
X338228Y467824D01*
X339260Y467960D01*
X340222Y468358D01*
X341048Y468992D01*
X341681Y469818D01*
X341873Y470282D01*
X365433D01*
X366018Y470398D01*
X366514Y470730D01*
X386067Y490282D01*
X397729D01*
X397962Y489718D01*
X398627Y488851D01*
X399494Y488186D01*
X400503Y487768D01*
X401587Y487626D01*
X402670Y487768D01*
X403679Y488186D01*
X404546Y488851D01*
X405211Y489718D01*
X405445Y490282D01*
X429366D01*
X440971Y478678D01*
Y475655D01*
X440735Y475557D01*
X440004Y474996D01*
X439443Y474265D01*
X439090Y473414D01*
X438970Y472500D01*
X439090Y471586D01*
X439443Y470735D01*
X440004Y470004D01*
X440735Y469443D01*
X441586Y469090D01*
X442500Y468970D01*
X443414Y469090D01*
X444265Y469443D01*
X444996Y470004D01*
X445557Y470735D01*
X445910Y471586D01*
X446030Y472500D01*
X445910Y473414D01*
X445557Y474265D01*
X444996Y474996D01*
X444265Y475557D01*
X444029Y475655D01*
Y479311D01*
X443913Y479896D01*
X443581Y480393D01*
X431081Y492893D01*
X430585Y493224D01*
X430000Y493340D01*
X405445D01*
X405211Y493904D01*
X404546Y494771D01*
X403679Y495436D01*
X402670Y495854D01*
X401587Y495996D01*
D02*
G37*
G36*
X312638Y475798D02*
X311606Y475662D01*
X310644Y475264D01*
X309819Y474630D01*
X309185Y473804D01*
X308787Y472843D01*
X308651Y471811D01*
X308787Y470779D01*
X309185Y469818D01*
X309819Y468992D01*
X310644Y468358D01*
X311606Y467960D01*
X312638Y467824D01*
X313670Y467960D01*
X314631Y468358D01*
X315457Y468992D01*
X316090Y469818D01*
X316489Y470779D01*
X316625Y471811D01*
X316489Y472843D01*
X316090Y473804D01*
X315457Y474630D01*
X314631Y475264D01*
X313670Y475662D01*
X312638Y475798D01*
D02*
G37*
G36*
X392933Y487841D02*
X392019Y487721D01*
X391168Y487368D01*
X390437Y486807D01*
X389876Y486076D01*
X389523Y485225D01*
X389403Y484311D01*
X389523Y483397D01*
X389876Y482546D01*
X390437Y481815D01*
X391168Y481254D01*
X391557Y481093D01*
Y480311D01*
X391674Y479726D01*
X392005Y479230D01*
X397777Y473458D01*
X397544Y472894D01*
X397401Y471811D01*
X397544Y470728D01*
X397962Y469718D01*
X398627Y468852D01*
X399494Y468186D01*
X400503Y467768D01*
X401587Y467626D01*
X402670Y467768D01*
X403679Y468186D01*
X404546Y468852D01*
X405211Y469718D01*
X405629Y470728D01*
X405772Y471811D01*
X405629Y472894D01*
X405211Y473904D01*
X404546Y474771D01*
X403679Y475436D01*
X402670Y475854D01*
X401587Y475996D01*
X400503Y475854D01*
X399940Y475621D01*
X394803Y480758D01*
X394777Y480882D01*
X394831Y481356D01*
X395429Y481815D01*
X395990Y482546D01*
X396343Y483397D01*
X396463Y484311D01*
X396343Y485225D01*
X395990Y486076D01*
X395429Y486807D01*
X394698Y487368D01*
X393847Y487721D01*
X392933Y487841D01*
D02*
G37*
G36*
X255433Y465897D02*
X254376Y465758D01*
X253390Y465350D01*
X252544Y464700D01*
X251894Y463854D01*
X251486Y462869D01*
X251347Y461811D01*
X251486Y460753D01*
X251894Y459768D01*
X252544Y458922D01*
X253390Y458272D01*
X254376Y457864D01*
X255433Y457725D01*
X256491Y457864D01*
X257476Y458272D01*
X258322Y458922D01*
X258972Y459768D01*
X259380Y460753D01*
X259519Y461811D01*
X259380Y462869D01*
X258972Y463854D01*
X258322Y464700D01*
X257476Y465350D01*
X256491Y465758D01*
X255433Y465897D01*
D02*
G37*
G36*
X401587Y465996D02*
X400503Y465854D01*
X399494Y465436D01*
X398627Y464771D01*
X397962Y463904D01*
X397544Y462894D01*
X397401Y461811D01*
X397544Y460728D01*
X397962Y459718D01*
X398627Y458851D01*
X399494Y458186D01*
X400503Y457768D01*
X401587Y457626D01*
X402670Y457768D01*
X403679Y458186D01*
X404546Y458851D01*
X405211Y459718D01*
X405629Y460728D01*
X405772Y461811D01*
X405629Y462894D01*
X405211Y463904D01*
X404546Y464771D01*
X403679Y465436D01*
X402670Y465854D01*
X401587Y465996D01*
D02*
G37*
G36*
X338228Y463514D02*
X337196Y463379D01*
X336235Y462980D01*
X335409Y462347D01*
X334776Y461521D01*
X334377Y460559D01*
X334242Y459528D01*
X334377Y458496D01*
X334776Y457534D01*
X335409Y456708D01*
X336235Y456075D01*
X337196Y455677D01*
X338228Y455541D01*
X339260Y455677D01*
X340222Y456075D01*
X341048Y456708D01*
X341681Y457534D01*
X342079Y458496D01*
X342215Y459528D01*
X342079Y460559D01*
X341681Y461521D01*
X341048Y462347D01*
X340222Y462980D01*
X339260Y463379D01*
X338228Y463514D01*
D02*
G37*
G36*
X312638D02*
X311606Y463379D01*
X310644Y462980D01*
X309819Y462347D01*
X309185Y461521D01*
X308787Y460559D01*
X308651Y459528D01*
X308787Y458496D01*
X309185Y457534D01*
X309819Y456708D01*
X310644Y456075D01*
X311606Y455677D01*
X312638Y455541D01*
X313670Y455677D01*
X314631Y456075D01*
X315457Y456708D01*
X316090Y457534D01*
X316489Y458496D01*
X316625Y459528D01*
X316489Y460559D01*
X316090Y461521D01*
X315457Y462347D01*
X314631Y462980D01*
X313670Y463379D01*
X312638Y463514D01*
D02*
G37*
G36*
X425697Y456220D02*
Y453256D01*
X428661D01*
X428607Y453670D01*
X428254Y454521D01*
X427693Y455252D01*
X426962Y455813D01*
X426111Y456166D01*
X425697Y456220D01*
D02*
G37*
G36*
X424697D02*
X424283Y456166D01*
X423432Y455813D01*
X422701Y455252D01*
X422140Y454521D01*
X421787Y453670D01*
X421733Y453256D01*
X424697D01*
Y456220D01*
D02*
G37*
G36*
X224909Y455931D02*
Y452311D01*
X228529D01*
X228452Y452894D01*
X228034Y453904D01*
X227369Y454771D01*
X226502Y455436D01*
X225493Y455854D01*
X224909Y455931D01*
D02*
G37*
G36*
X428661Y452256D02*
X425697D01*
Y449292D01*
X426111Y449346D01*
X426962Y449699D01*
X427693Y450260D01*
X428254Y450991D01*
X428607Y451842D01*
X428661Y452256D01*
D02*
G37*
G36*
X424697D02*
X421733D01*
X421787Y451842D01*
X422140Y450991D01*
X422701Y450260D01*
X423432Y449699D01*
X424283Y449346D01*
X424697Y449292D01*
Y452256D01*
D02*
G37*
G36*
X228529Y451311D02*
X224909D01*
Y447691D01*
X225493Y447768D01*
X226502Y448186D01*
X227369Y448851D01*
X228034Y449718D01*
X228452Y450728D01*
X228529Y451311D01*
D02*
G37*
G36*
X401587Y455996D02*
X400503Y455854D01*
X399494Y455436D01*
X398627Y454771D01*
X397962Y453904D01*
X397544Y452894D01*
X397401Y451811D01*
X397544Y450728D01*
X397962Y449718D01*
X398627Y448851D01*
X399494Y448186D01*
X400503Y447768D01*
X401587Y447626D01*
X402670Y447768D01*
X403679Y448186D01*
X404546Y448851D01*
X405211Y449718D01*
X405629Y450728D01*
X405772Y451811D01*
X405629Y452894D01*
X405211Y453904D01*
X404546Y454771D01*
X403679Y455436D01*
X402670Y455854D01*
X401587Y455996D01*
D02*
G37*
G36*
X405736Y445961D02*
X402087D01*
Y442311D01*
X405736D01*
Y445961D01*
D02*
G37*
G36*
X401087D02*
X397437D01*
Y442311D01*
X401087D01*
Y445961D01*
D02*
G37*
G36*
X255433Y455897D02*
X254376Y455758D01*
X253390Y455350D01*
X252544Y454700D01*
X251894Y453854D01*
X251486Y452869D01*
X251347Y451811D01*
X251486Y450753D01*
X251894Y449768D01*
X252544Y448922D01*
X253390Y448272D01*
X254376Y447864D01*
X255433Y447725D01*
X256491Y447864D01*
X257004Y448077D01*
X257344Y447738D01*
X257840Y447406D01*
X258425Y447290D01*
X327792D01*
X331852Y443230D01*
X332348Y442898D01*
X332933Y442782D01*
X333798D01*
X334303Y442277D01*
X334242Y441811D01*
X334377Y440779D01*
X334776Y439818D01*
X335409Y438992D01*
X336235Y438358D01*
X337196Y437960D01*
X338228Y437824D01*
X339260Y437960D01*
X340222Y438358D01*
X341048Y438992D01*
X341681Y439818D01*
X342079Y440779D01*
X342215Y441811D01*
X342079Y442843D01*
X341681Y443804D01*
X341048Y444630D01*
X340222Y445264D01*
X339260Y445662D01*
X338228Y445798D01*
X337196Y445662D01*
X336235Y445264D01*
X335899Y445006D01*
X335513Y445393D01*
X335016Y445724D01*
X334431Y445840D01*
X333567D01*
X329507Y449900D01*
X329011Y450232D01*
X328425Y450348D01*
X259653D01*
X259392Y450848D01*
X259519Y451811D01*
X259380Y452869D01*
X258972Y453854D01*
X258322Y454700D01*
X257476Y455350D01*
X256491Y455758D01*
X255433Y455897D01*
D02*
G37*
G36*
X312638Y445798D02*
X311606Y445662D01*
X310644Y445264D01*
X309819Y444630D01*
X309185Y443804D01*
X308787Y442843D01*
X308651Y441811D01*
X308787Y440779D01*
X309185Y439818D01*
X309819Y438992D01*
X310644Y438358D01*
X311606Y437960D01*
X312638Y437824D01*
X313670Y437960D01*
X314631Y438358D01*
X315457Y438992D01*
X316090Y439818D01*
X316489Y440779D01*
X316625Y441811D01*
X316489Y442843D01*
X316090Y443804D01*
X315457Y444630D01*
X314631Y445264D01*
X313670Y445662D01*
X312638Y445798D01*
D02*
G37*
G36*
X259484Y445862D02*
X251382D01*
Y437760D01*
X259484D01*
Y445862D01*
D02*
G37*
G36*
X405736Y441311D02*
X402087D01*
Y437661D01*
X405736D01*
Y441311D01*
D02*
G37*
G36*
X401087D02*
X397437D01*
Y437661D01*
X401087D01*
Y441311D01*
D02*
G37*
%LPD*%
D12*
X393087Y480311D02*
X401587Y471811D01*
X393087Y480311D02*
Y484158D01*
X392933Y484311D02*
X393087Y484158D01*
X385433Y491811D02*
X401587D01*
X430000D01*
X442500Y479311D01*
Y472500D02*
Y479311D01*
X328425Y448819D02*
X332933Y444311D01*
X258425Y448819D02*
X328425D01*
X255433Y451811D02*
X258425Y448819D01*
X332933Y444311D02*
X334431D01*
X336931Y441811D01*
X338228D01*
Y471811D02*
X365433D01*
X385433Y491811D01*
D26*
X255433Y461811D02*
D03*
Y451811D02*
D03*
D27*
Y441811D02*
D03*
D28*
X338228Y471811D02*
D03*
Y489528D02*
D03*
X312638Y471811D02*
D03*
Y489528D02*
D03*
X338228Y441811D02*
D03*
Y459528D02*
D03*
X312638Y441811D02*
D03*
Y459528D02*
D03*
D29*
X401587Y481811D02*
D03*
Y471811D02*
D03*
Y461811D02*
D03*
Y451811D02*
D03*
Y491811D02*
D03*
X224410Y451811D02*
D03*
Y461811D02*
D03*
Y471811D02*
D03*
Y481811D02*
D03*
Y441811D02*
D03*
D30*
X401587D02*
D03*
X224410Y491811D02*
D03*
D31*
X110236Y444882D02*
D03*
Y488189D02*
D03*
D32*
X392933Y484311D02*
D03*
X442500Y472500D02*
D03*
X425197Y452756D02*
D03*
M02*
