G04*
G04 #@! TF.GenerationSoftware,Altium Limited,Altium Designer,19.0.15 (446)*
G04*
G04 Layer_Color=255*
%FSLAX25Y25*%
%MOIN*%
G70*
G01*
G75*
%ADD15R,0.02953X0.09449*%
%ADD16R,0.03347X0.05118*%
%ADD26C,0.06102*%
%ADD27R,0.06102X0.06102*%
%ADD28C,0.05906*%
%ADD29C,0.06299*%
%ADD30R,0.06299X0.06299*%
%ADD31C,0.12992*%
D15*
X438071Y476181D02*
D03*
X433071D02*
D03*
X438071Y460827D02*
D03*
X433071D02*
D03*
X428071D02*
D03*
Y476181D02*
D03*
D16*
X278780Y491811D02*
D03*
X272087D02*
D03*
X278780Y481811D02*
D03*
X272087D02*
D03*
D26*
X255433Y461811D02*
D03*
Y451811D02*
D03*
D27*
Y441811D02*
D03*
D28*
X338228Y471811D02*
D03*
Y489528D02*
D03*
X312638Y471811D02*
D03*
Y489528D02*
D03*
X338228Y441811D02*
D03*
Y459528D02*
D03*
X312638Y441811D02*
D03*
Y459528D02*
D03*
D29*
X401587Y481811D02*
D03*
Y471811D02*
D03*
Y461811D02*
D03*
Y451811D02*
D03*
Y491811D02*
D03*
X224410Y451811D02*
D03*
Y461811D02*
D03*
Y471811D02*
D03*
Y481811D02*
D03*
Y441811D02*
D03*
D30*
X401587D02*
D03*
X224410Y491811D02*
D03*
D31*
X110236Y444882D02*
D03*
Y488189D02*
D03*
M02*
