G04*
G04 #@! TF.GenerationSoftware,Altium Limited,Altium Designer,19.0.15 (446)*
G04*
G04 Layer_Physical_Order=2*
G04 Layer_Color=16711680*
%FSLAX25Y25*%
%MOIN*%
G70*
G01*
G75*
%ADD13C,0.01000*%
%ADD15C,0.01575*%
%ADD34R,0.19685X0.05512*%
%ADD70C,0.01181*%
%ADD73R,0.06693X0.06693*%
%ADD74C,0.06693*%
%ADD75C,0.12992*%
%ADD76R,0.08071X0.08071*%
%ADD77C,0.08071*%
%ADD78C,0.05906*%
%ADD79R,0.05118X0.05118*%
%ADD80C,0.05118*%
%ADD81C,0.03150*%
G36*
X429134Y397638D02*
X320322D01*
X320079Y397394D01*
Y369509D01*
X319579Y369302D01*
X317688Y371193D01*
Y416452D01*
X321756Y420521D01*
X353066D01*
X363106Y410481D01*
X363480Y410231D01*
X363921Y410143D01*
X366705D01*
X366796Y410008D01*
X368309Y408495D01*
X368225Y408071D01*
X368396Y407211D01*
X368883Y406481D01*
X369612Y405994D01*
X370472Y405823D01*
X371333Y405994D01*
X372062Y406481D01*
X372549Y407211D01*
X372720Y408071D01*
X372549Y408931D01*
X372062Y409660D01*
X371869Y409789D01*
Y410289D01*
X372062Y410418D01*
X372549Y411148D01*
X372720Y412008D01*
X372549Y412868D01*
X372062Y413597D01*
X371869Y413726D01*
Y414226D01*
X372062Y414355D01*
X372549Y415085D01*
X372720Y415945D01*
X372549Y416805D01*
X372062Y417534D01*
X371869Y417663D01*
Y418163D01*
X372062Y418292D01*
X372549Y419022D01*
X372720Y419882D01*
X372549Y420742D01*
X372062Y421471D01*
X371333Y421959D01*
X370472Y422130D01*
X369612Y421959D01*
X368883Y421471D01*
X368396Y420742D01*
X368225Y419882D01*
X368309Y419458D01*
X366796Y417945D01*
X366310Y418118D01*
X356055Y428374D01*
X355681Y428623D01*
X355240Y428711D01*
X319582D01*
X319141Y428623D01*
X318767Y428374D01*
X311000Y420606D01*
X310538Y420797D01*
Y423869D01*
X324493Y437824D01*
X358668D01*
X360750Y435743D01*
Y434644D01*
X360614Y434553D01*
X358902Y432841D01*
X358677Y432886D01*
X357817Y432714D01*
X357088Y432227D01*
X356600Y431498D01*
X356429Y430638D01*
X356600Y429777D01*
X357088Y429048D01*
X357817Y428561D01*
X358677Y428390D01*
X359537Y428561D01*
X360267Y429048D01*
X360475Y429360D01*
X360911D01*
X361027Y429285D01*
X361754Y428800D01*
X362614Y428628D01*
X363474Y428800D01*
X364204Y429287D01*
X364253Y429360D01*
X364753D01*
X364962Y429048D01*
X365691Y428561D01*
X366551Y428390D01*
X367411Y428561D01*
X368141Y429048D01*
X368270Y429241D01*
X368770D01*
X368899Y429048D01*
X369628Y428561D01*
X370488Y428390D01*
X371348Y428561D01*
X372078Y429048D01*
X372565Y429777D01*
X372736Y430638D01*
X372565Y431498D01*
X372078Y432227D01*
X371348Y432714D01*
X370488Y432886D01*
X370065Y432801D01*
X368597Y434269D01*
Y438517D01*
X368509Y438957D01*
X368260Y439331D01*
X362256Y445334D01*
X361883Y445584D01*
X361442Y445672D01*
X331734D01*
X331574Y446172D01*
X331998Y446807D01*
X332169Y447667D01*
X331998Y448527D01*
X331511Y449257D01*
X330782Y449744D01*
X329921Y449915D01*
X329612Y449854D01*
X329500Y449993D01*
X329777Y450448D01*
X329921Y450419D01*
X330782Y450591D01*
X331511Y451078D01*
X331998Y451807D01*
X332169Y452667D01*
X331998Y453527D01*
X331511Y454257D01*
X330782Y454744D01*
X329921Y454915D01*
X329612Y454854D01*
X329500Y454993D01*
X329777Y455448D01*
X329921Y455419D01*
X330782Y455590D01*
X331511Y456078D01*
X331998Y456807D01*
X332169Y457667D01*
X331998Y458528D01*
X331511Y459257D01*
X330782Y459744D01*
X329921Y459915D01*
X329612Y459854D01*
X329500Y459993D01*
X329777Y460448D01*
X329921Y460419D01*
X330782Y460591D01*
X331511Y461078D01*
X331998Y461807D01*
X332169Y462667D01*
X331998Y463527D01*
X331511Y464257D01*
X330782Y464744D01*
X329921Y464915D01*
X329662Y464864D01*
X329463Y465167D01*
X329662Y465471D01*
X329921Y465419D01*
X330782Y465590D01*
X331511Y466078D01*
X331998Y466807D01*
X332169Y467667D01*
X331998Y468528D01*
X331511Y469257D01*
X330782Y469744D01*
X329921Y469915D01*
X329777Y469887D01*
X329500Y470341D01*
X329612Y470481D01*
X329921Y470419D01*
X330782Y470590D01*
X331511Y471078D01*
X331998Y471807D01*
X332169Y472667D01*
X331998Y473527D01*
X331511Y474257D01*
X330782Y474744D01*
X329921Y474915D01*
X329061Y474744D01*
X328332Y474257D01*
X327845Y473527D01*
X327673Y472667D01*
X327776Y472151D01*
X324625Y469000D01*
X317500D01*
X304615Y481885D01*
X304242Y482135D01*
X303801Y482223D01*
X284708D01*
X284556Y482723D01*
X285053Y483055D01*
X285541Y483784D01*
X285646Y484315D01*
X286197Y484523D01*
X286459Y484322D01*
X287426Y483921D01*
X288465Y483785D01*
X289503Y483921D01*
X290470Y484322D01*
X291301Y484959D01*
X291938Y485790D01*
X292339Y486757D01*
X292475Y487795D01*
X292339Y488833D01*
X291938Y489801D01*
X291301Y490631D01*
X290470Y491269D01*
X289503Y491669D01*
X288465Y491806D01*
X287426Y491669D01*
X286459Y491269D01*
X285629Y490631D01*
X284991Y489801D01*
X284591Y488833D01*
X284454Y487795D01*
X284539Y487150D01*
X284523Y487117D01*
X284085Y486769D01*
X283464Y486893D01*
X282844Y486769D01*
X282406Y487119D01*
X282390Y487150D01*
X282475Y487795D01*
X282339Y488833D01*
X281938Y489801D01*
X281301Y490631D01*
X280470Y491269D01*
X279503Y491669D01*
X278465Y491806D01*
X277427Y491669D01*
X276459Y491269D01*
X275629Y490631D01*
X274991Y489801D01*
X274590Y488833D01*
X274454Y487795D01*
X274590Y486757D01*
X274991Y485790D01*
X275629Y484959D01*
X276065Y484624D01*
X275895Y484125D01*
X272441D01*
Y491772D01*
X264488D01*
Y484125D01*
X237190D01*
X236791Y484523D01*
X236894Y485039D01*
X236722Y485900D01*
X236235Y486629D01*
X235506Y487116D01*
X234646Y487287D01*
X233785Y487116D01*
X233056Y486629D01*
X232569Y485900D01*
X232398Y485039D01*
X232569Y484179D01*
X233056Y483450D01*
X233785Y482963D01*
X234646Y482792D01*
X234894Y482841D01*
X234991Y482723D01*
X234755Y482223D01*
X224857D01*
X224650Y482723D01*
X226917Y484989D01*
X227432Y484887D01*
X228293Y485058D01*
X229022Y485545D01*
X229509Y486274D01*
X229680Y487134D01*
X229509Y487995D01*
X229022Y488724D01*
X228293Y489211D01*
X227432Y489382D01*
X226572Y489211D01*
X225843Y488724D01*
X225356Y487995D01*
X225185Y487134D01*
X225287Y486618D01*
X221998Y483329D01*
X221459D01*
X221192Y483829D01*
X221426Y484179D01*
X221597Y485039D01*
X221426Y485900D01*
X220939Y486629D01*
X220209Y487116D01*
X219349Y487287D01*
X218489Y487116D01*
X217760Y486629D01*
X217467Y486191D01*
X209449D01*
X209008Y486104D01*
X208634Y485854D01*
X199260Y476480D01*
X199010Y476106D01*
X198923Y475665D01*
Y433561D01*
X184821Y419459D01*
X182677D01*
X182236Y419372D01*
X181862Y419122D01*
X157102Y394361D01*
X156447Y394632D01*
X155512Y394755D01*
X154577Y394632D01*
X153705Y394271D01*
X152957Y393697D01*
X152382Y392949D01*
X152021Y392077D01*
X151898Y391142D01*
X152021Y390207D01*
X152382Y389335D01*
X152464Y389228D01*
X152243Y388779D01*
X86614Y388779D01*
Y500000D01*
X429134D01*
Y397638D01*
D02*
G37*
G36*
X215108Y481362D02*
X215482Y481113D01*
X215923Y481025D01*
X222010D01*
X222217Y480525D01*
X211137Y469445D01*
X210887Y469071D01*
X210799Y468630D01*
Y465350D01*
X210887Y464909D01*
X211137Y464535D01*
X213888Y461784D01*
X214262Y461534D01*
X214703Y461446D01*
X222134D01*
X222426Y461009D01*
X223155Y460522D01*
X224016Y460351D01*
X224876Y460522D01*
X225605Y461009D01*
X226093Y461738D01*
X226264Y462598D01*
X226093Y463459D01*
X225605Y464188D01*
X224876Y464675D01*
X224848Y464681D01*
X224618Y465236D01*
X224911Y465675D01*
X224993Y466088D01*
X225536Y466253D01*
X226506Y465282D01*
X226879Y465033D01*
X227320Y464945D01*
X227520D01*
X229745Y462721D01*
X229642Y462205D01*
X229813Y461344D01*
X230300Y460615D01*
X231030Y460128D01*
X231890Y459957D01*
X232750Y460128D01*
X233479Y460615D01*
X233967Y461344D01*
X234138Y462205D01*
X233967Y463065D01*
X233479Y463794D01*
X232750Y464282D01*
X231890Y464453D01*
X231374Y464350D01*
X228812Y466912D01*
X228438Y467162D01*
X227997Y467249D01*
X227798D01*
X227297Y467750D01*
X227543Y468211D01*
X227873Y468145D01*
X228733Y468316D01*
X229463Y468803D01*
X229950Y469533D01*
X230121Y470393D01*
X230081Y470595D01*
X230398Y470982D01*
X299622D01*
X312507Y458097D01*
X312880Y457847D01*
X313321Y457759D01*
X318200D01*
X327776Y448183D01*
X327673Y447667D01*
X327845Y446807D01*
X328269Y446172D01*
X328108Y445672D01*
X321720D01*
X321279Y445584D01*
X320905Y445334D01*
X303028Y427457D01*
X302778Y427083D01*
X302691Y426643D01*
Y378943D01*
X302190Y378869D01*
X301891Y379856D01*
X301229Y381094D01*
X300339Y382179D01*
X299254Y383070D01*
X298016Y383732D01*
X296673Y384139D01*
X295276Y384277D01*
X293879Y384139D01*
X292535Y383732D01*
X291297Y383070D01*
X290212Y382179D01*
X289322Y381094D01*
X288660Y379856D01*
X288253Y378513D01*
X288115Y377116D01*
X288253Y375719D01*
X288660Y374376D01*
X289322Y373138D01*
X290212Y372053D01*
X291297Y371162D01*
X292535Y370501D01*
X293879Y370093D01*
X295276Y369956D01*
X296673Y370093D01*
X298016Y370501D01*
X299254Y371162D01*
X300339Y372053D01*
X301229Y373138D01*
X301891Y374376D01*
X302190Y375363D01*
X302691Y375289D01*
X302691Y299071D01*
X302190Y298997D01*
X301891Y299984D01*
X301229Y301222D01*
X300339Y302307D01*
X299254Y303198D01*
X298016Y303859D01*
X296673Y304267D01*
X295276Y304405D01*
X293879Y304267D01*
X292535Y303859D01*
X291297Y303198D01*
X290212Y302307D01*
X289322Y301222D01*
X288660Y299984D01*
X288253Y298641D01*
X288115Y297244D01*
X288253Y295847D01*
X288660Y294504D01*
X289322Y293266D01*
X290212Y292181D01*
X291297Y291290D01*
X292535Y290629D01*
X293879Y290221D01*
X295276Y290084D01*
X296673Y290221D01*
X298016Y290629D01*
X299254Y291290D01*
X300339Y292181D01*
X301229Y293266D01*
X301891Y294504D01*
X302190Y295491D01*
X302691Y295417D01*
Y220331D01*
X302190Y220257D01*
X301891Y221244D01*
X301229Y222482D01*
X300339Y223567D01*
X299254Y224458D01*
X298016Y225119D01*
X296673Y225527D01*
X295276Y225664D01*
X293879Y225527D01*
X292535Y225119D01*
X291297Y224458D01*
X290212Y223567D01*
X289322Y222482D01*
X288660Y221244D01*
X288253Y219901D01*
X288115Y218504D01*
X288253Y217107D01*
X288660Y215764D01*
X289322Y214526D01*
X290212Y213441D01*
X291297Y212550D01*
X292535Y211889D01*
X293879Y211481D01*
X295276Y211344D01*
X296673Y211481D01*
X298016Y211889D01*
X299254Y212550D01*
X300339Y213441D01*
X301229Y214526D01*
X301891Y215764D01*
X302190Y216751D01*
X302691Y216677D01*
X302691Y141591D01*
X302190Y141517D01*
X301891Y142504D01*
X301229Y143742D01*
X300339Y144827D01*
X299254Y145718D01*
X298016Y146379D01*
X296673Y146787D01*
X295276Y146924D01*
X293879Y146787D01*
X292535Y146379D01*
X291297Y145718D01*
X290212Y144827D01*
X289322Y143742D01*
X288660Y142504D01*
X288253Y141161D01*
X288115Y139764D01*
X288253Y138367D01*
X288660Y137024D01*
X289322Y135786D01*
X290212Y134701D01*
X291297Y133810D01*
X292535Y133148D01*
X293879Y132741D01*
X295276Y132603D01*
X296673Y132741D01*
X298016Y133148D01*
X299254Y133810D01*
X300339Y134701D01*
X301229Y135786D01*
X301891Y137024D01*
X302190Y138011D01*
X302691Y137937D01*
Y94488D01*
Y90251D01*
X302778Y89810D01*
X303028Y89437D01*
X306516Y85949D01*
X306413Y85433D01*
X306584Y84573D01*
X307071Y83843D01*
X307801Y83356D01*
X308661Y83185D01*
X309521Y83356D01*
X310250Y83843D01*
X310738Y84573D01*
X310909Y85433D01*
X310738Y86293D01*
X310250Y87022D01*
X309521Y87510D01*
X308661Y87681D01*
X308145Y87578D01*
X304995Y90728D01*
Y94488D01*
Y127270D01*
X305429Y127450D01*
X305775Y127126D01*
X305626Y126378D01*
X305797Y125518D01*
X306284Y124788D01*
X307014Y124301D01*
X307874Y124130D01*
X308734Y124301D01*
X309464Y124788D01*
X309951Y125518D01*
X310122Y126378D01*
X309951Y127238D01*
X309464Y127968D01*
X308734Y128455D01*
X307874Y128626D01*
X307822Y128615D01*
X306965Y129472D01*
Y134252D01*
Y167524D01*
X307427Y167716D01*
X309666Y165477D01*
X309563Y164961D01*
X309734Y164100D01*
X310222Y163371D01*
X310951Y162884D01*
X311811Y162713D01*
X312671Y162884D01*
X313401Y163371D01*
X313888Y164100D01*
X314059Y164961D01*
X313888Y165821D01*
X313401Y166550D01*
X312671Y167037D01*
X311811Y167209D01*
X311295Y167106D01*
X308751Y169650D01*
Y181496D01*
Y212195D01*
X309212Y212387D01*
X314390Y207209D01*
X314287Y206693D01*
X314459Y205833D01*
X314946Y205103D01*
X315675Y204616D01*
X316535Y204445D01*
X317396Y204616D01*
X318125Y205103D01*
X318612Y205833D01*
X318783Y206693D01*
X318612Y207553D01*
X318125Y208282D01*
X317396Y208770D01*
X316535Y208941D01*
X316019Y208838D01*
X310538Y214320D01*
Y219685D01*
Y250565D01*
X311000Y250757D01*
X314390Y247366D01*
X314287Y246850D01*
X314459Y245990D01*
X314946Y245261D01*
X315675Y244774D01*
X316535Y244602D01*
X317396Y244774D01*
X318125Y245261D01*
X318612Y245990D01*
X318783Y246850D01*
X318612Y247711D01*
X318125Y248440D01*
X317396Y248927D01*
X316535Y249098D01*
X316019Y248996D01*
X312325Y252690D01*
Y289329D01*
X312787Y289521D01*
X315178Y287130D01*
X315075Y286614D01*
X315246Y285754D01*
X315733Y285025D01*
X316463Y284537D01*
X317323Y284366D01*
X318183Y284537D01*
X318912Y285025D01*
X319400Y285754D01*
X319571Y286614D01*
X319400Y287474D01*
X318912Y288204D01*
X318183Y288691D01*
X317323Y288862D01*
X316807Y288759D01*
X314113Y291454D01*
Y329668D01*
X314575Y329859D01*
X316030Y328403D01*
X315862Y327559D01*
X316033Y326699D01*
X316521Y325970D01*
X317250Y325482D01*
X318110Y325311D01*
X318970Y325482D01*
X319579Y325889D01*
X320079Y325705D01*
Y38386D01*
X224410D01*
Y65709D01*
X232231D01*
Y73661D01*
X224410D01*
Y85847D01*
X224909Y86016D01*
X225418Y85353D01*
X226249Y84716D01*
X227216Y84315D01*
X228254Y84178D01*
X229292Y84315D01*
X230260Y84716D01*
X231090Y85353D01*
X231728Y86184D01*
X232128Y87151D01*
X232265Y88189D01*
X232128Y89227D01*
X231728Y90194D01*
X231090Y91025D01*
X230260Y91662D01*
X229292Y92063D01*
X228254Y92200D01*
X227216Y92063D01*
X226249Y91662D01*
X225418Y91025D01*
X224909Y90362D01*
X224410Y90531D01*
Y105472D01*
X232231D01*
Y113425D01*
X224410D01*
Y125610D01*
X224909Y125780D01*
X225418Y125117D01*
X226249Y124479D01*
X227216Y124079D01*
X228254Y123942D01*
X229292Y124079D01*
X230260Y124479D01*
X231090Y125117D01*
X231728Y125947D01*
X232128Y126915D01*
X232265Y127953D01*
X232128Y128991D01*
X231728Y129958D01*
X231090Y130789D01*
X230260Y131426D01*
X229292Y131827D01*
X228254Y131963D01*
X227216Y131827D01*
X226249Y131426D01*
X225418Y130789D01*
X224909Y130125D01*
X224409Y130295D01*
Y145236D01*
X232231D01*
Y153189D01*
X224409D01*
Y165374D01*
X224909Y165544D01*
X225418Y164881D01*
X226249Y164243D01*
X227216Y163842D01*
X228254Y163706D01*
X229292Y163842D01*
X230260Y164243D01*
X231090Y164881D01*
X231728Y165711D01*
X232128Y166679D01*
X232265Y167717D01*
X232128Y168755D01*
X231728Y169722D01*
X231090Y170553D01*
X230260Y171190D01*
X229292Y171591D01*
X228254Y171727D01*
X227216Y171591D01*
X226249Y171190D01*
X225418Y170553D01*
X224909Y169889D01*
X224409Y170059D01*
Y185000D01*
X232323D01*
Y192953D01*
X224409D01*
Y205288D01*
X224750Y205425D01*
X224909Y205428D01*
X225511Y204644D01*
X226341Y204007D01*
X227308Y203606D01*
X228346Y203470D01*
X229384Y203606D01*
X230352Y204007D01*
X231182Y204644D01*
X231820Y205475D01*
X232221Y206442D01*
X232357Y207480D01*
X232221Y208518D01*
X231820Y209486D01*
X231182Y210316D01*
X230352Y210954D01*
X229384Y211354D01*
X228346Y211491D01*
X227308Y211354D01*
X226341Y210954D01*
X225511Y210316D01*
X224909Y209533D01*
X224750Y209535D01*
X224409Y209673D01*
Y224764D01*
X232323D01*
Y232716D01*
X224409D01*
Y245052D01*
X224750Y245189D01*
X224909Y245191D01*
X225511Y244408D01*
X226341Y243771D01*
X227308Y243370D01*
X228346Y243233D01*
X229384Y243370D01*
X230352Y243771D01*
X231182Y244408D01*
X231820Y245239D01*
X232221Y246206D01*
X232357Y247244D01*
X232221Y248282D01*
X231820Y249249D01*
X231182Y250080D01*
X230352Y250717D01*
X229384Y251118D01*
X228346Y251255D01*
X227308Y251118D01*
X226341Y250717D01*
X225511Y250080D01*
X224909Y249297D01*
X224750Y249299D01*
X224409Y249437D01*
Y264528D01*
X232323D01*
Y272480D01*
X224409D01*
Y284815D01*
X224750Y284953D01*
X224909Y284955D01*
X225511Y284172D01*
X226341Y283535D01*
X227308Y283134D01*
X228346Y282997D01*
X229384Y283134D01*
X230352Y283535D01*
X231182Y284172D01*
X231820Y285002D01*
X232221Y285970D01*
X232357Y287008D01*
X232221Y288046D01*
X231820Y289013D01*
X231182Y289844D01*
X230352Y290481D01*
X229384Y290882D01*
X228346Y291019D01*
X227308Y290882D01*
X226341Y290481D01*
X225511Y289844D01*
X224909Y289061D01*
X224750Y289063D01*
X224409Y289200D01*
X224409Y304144D01*
X232323D01*
Y312097D01*
X224409D01*
Y324431D01*
X224750Y324569D01*
X224909Y324571D01*
X225511Y323788D01*
X226341Y323151D01*
X227308Y322750D01*
X228346Y322613D01*
X229384Y322750D01*
X230352Y323151D01*
X231182Y323788D01*
X231820Y324619D01*
X232221Y325586D01*
X232357Y326624D01*
X232221Y327662D01*
X231820Y328629D01*
X231182Y329460D01*
X230352Y330097D01*
X229384Y330498D01*
X228346Y330635D01*
X227308Y330498D01*
X226341Y330097D01*
X225511Y329460D01*
X224909Y328677D01*
X224750Y328679D01*
X224409Y328817D01*
Y344055D01*
X232323D01*
Y352008D01*
X224409D01*
Y364343D01*
X224750Y364480D01*
X224909Y364483D01*
X225511Y363699D01*
X226341Y363062D01*
X227308Y362661D01*
X228346Y362525D01*
X229384Y362661D01*
X230352Y363062D01*
X231182Y363699D01*
X231820Y364530D01*
X232221Y365497D01*
X232357Y366535D01*
X232221Y367573D01*
X231820Y368541D01*
X231182Y369371D01*
X230352Y370009D01*
X229384Y370409D01*
X228346Y370546D01*
X227308Y370409D01*
X226341Y370009D01*
X225511Y369371D01*
X224909Y368588D01*
X224750Y368590D01*
X224409Y368728D01*
Y388779D01*
X208641D01*
X208420Y389228D01*
X208502Y389335D01*
X208863Y390207D01*
X208986Y391142D01*
X208863Y392077D01*
X208502Y392949D01*
X207928Y393697D01*
X207179Y394271D01*
X206308Y394632D01*
X205373Y394755D01*
X204437Y394632D01*
X203566Y394271D01*
X202818Y393697D01*
X202243Y392949D01*
X201882Y392077D01*
X201759Y391142D01*
X201882Y390207D01*
X202243Y389335D01*
X202325Y389228D01*
X202104Y388779D01*
X184371Y388779D01*
X184150Y389228D01*
X184232Y389335D01*
X184593Y390207D01*
X184716Y391142D01*
X184593Y392077D01*
X184232Y392949D01*
X183658Y393697D01*
X182909Y394271D01*
X182038Y394632D01*
X181102Y394755D01*
X180167Y394632D01*
X179296Y394271D01*
X178547Y393697D01*
X177973Y392949D01*
X177612Y392077D01*
X177489Y391142D01*
X177612Y390207D01*
X177973Y389335D01*
X178055Y389228D01*
X177834Y388779D01*
X158780D01*
X158559Y389228D01*
X158641Y389335D01*
X159002Y390207D01*
X159125Y391142D01*
X159002Y392077D01*
X158731Y392732D01*
X183154Y417155D01*
X185298D01*
X185739Y417243D01*
X186112Y417492D01*
X200248Y431628D01*
X200710Y431437D01*
Y412369D01*
X200798Y411928D01*
X201048Y411554D01*
X202153Y410448D01*
X201882Y409794D01*
X201759Y408858D01*
X201882Y407923D01*
X202243Y407052D01*
X202818Y406303D01*
X203566Y405729D01*
X204437Y405368D01*
X205373Y405245D01*
X206308Y405368D01*
X207179Y405729D01*
X207928Y406303D01*
X208502Y407052D01*
X208863Y407923D01*
X208986Y408858D01*
X208863Y409794D01*
X208502Y410665D01*
X207928Y411413D01*
X207179Y411988D01*
X206308Y412349D01*
X205373Y412472D01*
X204437Y412349D01*
X203783Y412078D01*
X203014Y412846D01*
Y440803D01*
X203514Y441070D01*
X203864Y440837D01*
X204724Y440665D01*
X205585Y440837D01*
X206314Y441324D01*
X206573Y441712D01*
X209757D01*
X210082Y441225D01*
X210812Y440738D01*
X211672Y440567D01*
X212532Y440738D01*
X213261Y441225D01*
X213749Y441955D01*
X213920Y442815D01*
X213749Y443675D01*
X213261Y444405D01*
X212532Y444892D01*
X211672Y445063D01*
X210812Y444892D01*
X210082Y444405D01*
X209823Y444016D01*
X206639D01*
X206314Y444503D01*
X205585Y444990D01*
X204724Y445161D01*
X203864Y444990D01*
X203514Y444756D01*
X203014Y445024D01*
Y474401D01*
X210713Y482100D01*
X214371D01*
X215108Y481362D01*
D02*
G37*
%LPC*%
G36*
X225243Y496844D02*
X224382Y496673D01*
X223653Y496186D01*
X223361Y495749D01*
X204978D01*
X204537Y495661D01*
X204163Y495411D01*
X201152Y492400D01*
X200902Y492026D01*
X200814Y491585D01*
Y485735D01*
X200787Y485712D01*
X199927Y485541D01*
X199198Y485054D01*
X198711Y484325D01*
X198539Y483465D01*
X198711Y482604D01*
X199198Y481875D01*
X199927Y481388D01*
X200787Y481217D01*
X201648Y481388D01*
X202377Y481875D01*
X202864Y482604D01*
X203035Y483465D01*
X203012Y483581D01*
X203031Y483609D01*
X203118Y484050D01*
Y491108D01*
X205455Y493444D01*
X223361D01*
X223653Y493007D01*
X224382Y492520D01*
X225243Y492349D01*
X226103Y492520D01*
X226832Y493007D01*
X227320Y493736D01*
X227491Y494597D01*
X227320Y495457D01*
X226832Y496186D01*
X226103Y496673D01*
X225243Y496844D01*
D02*
G37*
G36*
X189016Y490000D02*
X182638D01*
Y483622D01*
X189016D01*
Y490000D01*
D02*
G37*
G36*
X419291Y497318D02*
X417894Y497180D01*
X416551Y496773D01*
X415313Y496111D01*
X414228Y495221D01*
X413338Y494136D01*
X412676Y492898D01*
X412268Y491554D01*
X412131Y490158D01*
X412268Y488761D01*
X412676Y487417D01*
X413338Y486179D01*
X414228Y485094D01*
X415313Y484204D01*
X416551Y483542D01*
X417894Y483135D01*
X419291Y482997D01*
X420688Y483135D01*
X422031Y483542D01*
X423270Y484204D01*
X424355Y485094D01*
X425245Y486179D01*
X425907Y487417D01*
X426314Y488761D01*
X426452Y490158D01*
X426314Y491554D01*
X425907Y492898D01*
X425245Y494136D01*
X424355Y495221D01*
X423270Y496111D01*
X422031Y496773D01*
X420688Y497180D01*
X419291Y497318D01*
D02*
G37*
G36*
X96457D02*
X95060Y497180D01*
X93717Y496773D01*
X92479Y496111D01*
X91394Y495221D01*
X90503Y494136D01*
X89841Y492898D01*
X89434Y491554D01*
X89296Y490158D01*
X89434Y488761D01*
X89841Y487417D01*
X90503Y486179D01*
X91394Y485094D01*
X92479Y484204D01*
X93717Y483542D01*
X95060Y483135D01*
X96457Y482997D01*
X97854Y483135D01*
X99197Y483542D01*
X100435Y484204D01*
X101520Y485094D01*
X102410Y486179D01*
X103072Y487417D01*
X103480Y488761D01*
X103617Y490158D01*
X103480Y491554D01*
X103072Y492898D01*
X102410Y494136D01*
X101520Y495221D01*
X100435Y496111D01*
X99197Y496773D01*
X97854Y497180D01*
X96457Y497318D01*
D02*
G37*
G36*
X131831Y447579D02*
X122500D01*
Y438248D01*
X131831D01*
Y447579D01*
D02*
G37*
G36*
X155512Y412472D02*
X154577Y412349D01*
X153705Y411988D01*
X152957Y411413D01*
X152382Y410665D01*
X152021Y409794D01*
X151898Y408858D01*
X152021Y407923D01*
X152382Y407052D01*
X152957Y406303D01*
X153705Y405729D01*
X154577Y405368D01*
X155512Y405245D01*
X156447Y405368D01*
X157319Y405729D01*
X158067Y406303D01*
X158641Y407052D01*
X159002Y407923D01*
X159125Y408858D01*
X159002Y409794D01*
X158641Y410665D01*
X158067Y411413D01*
X157319Y411988D01*
X156447Y412349D01*
X155512Y412472D01*
D02*
G37*
G36*
X361027Y405004D02*
X360166Y404833D01*
X359437Y404345D01*
X358950Y403616D01*
X358779Y402756D01*
X358950Y401896D01*
X359437Y401166D01*
X360166Y400679D01*
X361027Y400508D01*
X361887Y400679D01*
X362616Y401166D01*
X362909Y401604D01*
X369774D01*
X369799Y401574D01*
X369970Y400714D01*
X370457Y399985D01*
X371186Y399497D01*
X372046Y399326D01*
X372907Y399497D01*
X373636Y399985D01*
X374123Y400714D01*
X374294Y401574D01*
X374123Y402434D01*
X373636Y403163D01*
X372907Y403651D01*
X372046Y403822D01*
X371186Y403651D01*
X371082Y403581D01*
X370724Y403820D01*
X370283Y403908D01*
X362909D01*
X362616Y404345D01*
X361887Y404833D01*
X361027Y405004D01*
D02*
G37*
G36*
X270866Y466274D02*
X270006Y466103D01*
X269277Y465615D01*
X268789Y464886D01*
X268618Y464026D01*
X268789Y463166D01*
X269055Y462768D01*
X268788Y462268D01*
X252363D01*
X251887Y462173D01*
X251483Y461903D01*
X235851Y446271D01*
X235350Y446478D01*
Y447295D01*
X235841Y447623D01*
X236329Y448352D01*
X236500Y449213D01*
X236329Y450073D01*
X235841Y450802D01*
X235112Y451289D01*
X234252Y451461D01*
X233392Y451289D01*
X232663Y450802D01*
X232175Y450073D01*
X232004Y449213D01*
X232175Y448352D01*
X232663Y447623D01*
X233046Y447367D01*
Y446594D01*
X231468Y445016D01*
X231219Y444642D01*
X231131Y444201D01*
Y417235D01*
X230694Y416943D01*
X230206Y416214D01*
X230035Y415353D01*
X230206Y414493D01*
X230694Y413764D01*
X231423Y413277D01*
X232283Y413106D01*
X233143Y413277D01*
X233873Y413764D01*
X234360Y414493D01*
X234476Y415078D01*
X234976Y415029D01*
Y391940D01*
X234476Y391907D01*
X234454Y392077D01*
X234093Y392949D01*
X233519Y393697D01*
X232770Y394271D01*
X231898Y394632D01*
X230963Y394755D01*
X230028Y394632D01*
X229156Y394271D01*
X228408Y393697D01*
X227834Y392949D01*
X227473Y392077D01*
X227350Y391142D01*
X227473Y390207D01*
X227834Y389335D01*
X228408Y388586D01*
X229156Y388012D01*
X230028Y387651D01*
X230963Y387528D01*
X231898Y387651D01*
X232770Y388012D01*
X233519Y388586D01*
X234093Y389335D01*
X234454Y390207D01*
X234476Y390376D01*
X234976Y390344D01*
X234976Y102362D01*
X235071Y101886D01*
X235340Y101482D01*
X240459Y96364D01*
X240862Y96094D01*
X241339Y96000D01*
X273851D01*
X276768Y93082D01*
X276536Y92520D01*
X276412Y91585D01*
X276536Y90649D01*
X276897Y89778D01*
X277471Y89030D01*
X278219Y88455D01*
X279091Y88094D01*
X280026Y87971D01*
X280961Y88094D01*
X281833Y88455D01*
X282581Y89030D01*
X283155Y89778D01*
X283516Y90649D01*
X283640Y91585D01*
X283516Y92520D01*
X283155Y93391D01*
X282581Y94140D01*
X281833Y94714D01*
X280961Y95075D01*
X280026Y95198D01*
X279091Y95075D01*
X278528Y94842D01*
X275247Y98124D01*
X274843Y98394D01*
X274366Y98488D01*
X241854D01*
X237465Y102878D01*
Y139256D01*
X237927Y139447D01*
X241640Y135734D01*
X242043Y135465D01*
X242520Y135370D01*
X261576D01*
X261609Y134870D01*
X261374Y134839D01*
X260503Y134478D01*
X259754Y133904D01*
X259180Y133155D01*
X258819Y132284D01*
X258696Y131348D01*
X258819Y130413D01*
X259180Y129542D01*
X259754Y128793D01*
X260503Y128219D01*
X261374Y127858D01*
X262309Y127735D01*
X263245Y127858D01*
X264116Y128219D01*
X264865Y128793D01*
X265439Y129542D01*
X265800Y130413D01*
X265923Y131348D01*
X265800Y132284D01*
X265439Y133155D01*
X264865Y133904D01*
X264116Y134478D01*
X263245Y134839D01*
X263010Y134870D01*
X263043Y135370D01*
X274245D01*
X276768Y132846D01*
X276536Y132284D01*
X276412Y131348D01*
X276536Y130413D01*
X276897Y129542D01*
X277471Y128793D01*
X278219Y128219D01*
X279091Y127858D01*
X280026Y127735D01*
X280961Y127858D01*
X281833Y128219D01*
X282581Y128793D01*
X283155Y129542D01*
X283516Y130413D01*
X283640Y131348D01*
X283516Y132284D01*
X283155Y133155D01*
X282581Y133904D01*
X281833Y134478D01*
X280961Y134839D01*
X280026Y134962D01*
X279091Y134839D01*
X278528Y134606D01*
X275640Y137494D01*
X275237Y137764D01*
X274760Y137858D01*
X243035D01*
X239433Y141460D01*
Y178626D01*
X239895Y178817D01*
X242034Y176679D01*
X242437Y176409D01*
X242913Y176315D01*
X273064D01*
X276768Y172610D01*
X276536Y172047D01*
X276412Y171112D01*
X276536Y170177D01*
X276897Y169305D01*
X277471Y168557D01*
X278219Y167983D01*
X279091Y167622D01*
X280026Y167499D01*
X280961Y167622D01*
X281833Y167983D01*
X282581Y168557D01*
X283155Y169305D01*
X283516Y170177D01*
X283640Y171112D01*
X283516Y172047D01*
X283155Y172919D01*
X282581Y173667D01*
X281833Y174242D01*
X280961Y174603D01*
X280026Y174726D01*
X279091Y174603D01*
X278528Y174370D01*
X274459Y178439D01*
X274055Y178709D01*
X273579Y178803D01*
X243429D01*
X241402Y180830D01*
Y221539D01*
X241864Y221731D01*
X246364Y217230D01*
X246768Y216961D01*
X247244Y216866D01*
X273500D01*
X277290Y213076D01*
X276989Y212683D01*
X276628Y211811D01*
X276504Y210876D01*
X276628Y209941D01*
X276989Y209069D01*
X277563Y208321D01*
X278311Y207747D01*
X279183Y207385D01*
X280118Y207262D01*
X281053Y207385D01*
X281925Y207747D01*
X282673Y208321D01*
X283248Y209069D01*
X283609Y209941D01*
X283732Y210876D01*
X283609Y211811D01*
X283248Y212683D01*
X282673Y213431D01*
X281925Y214005D01*
X281053Y214366D01*
X280118Y214490D01*
X279480Y214406D01*
X274896Y218990D01*
X274492Y219260D01*
X274016Y219355D01*
X247760D01*
X243370Y223744D01*
Y261059D01*
X243870Y261399D01*
X243945Y261384D01*
X248728Y256600D01*
X249132Y256331D01*
X249608Y256236D01*
X272762D01*
X276861Y252137D01*
X276628Y251575D01*
X276504Y250640D01*
X276628Y249705D01*
X276989Y248833D01*
X277563Y248085D01*
X278311Y247510D01*
X279183Y247149D01*
X280118Y247026D01*
X281053Y247149D01*
X281925Y247510D01*
X282673Y248085D01*
X283248Y248833D01*
X283609Y249705D01*
X283732Y250640D01*
X283609Y251575D01*
X283248Y252447D01*
X282673Y253195D01*
X281925Y253769D01*
X281053Y254130D01*
X280118Y254253D01*
X279183Y254130D01*
X278620Y253897D01*
X274158Y258360D01*
X273754Y258630D01*
X273278Y258725D01*
X250124D01*
X245370Y263478D01*
X245339Y263499D01*
Y298460D01*
X245839Y298800D01*
X245914Y298785D01*
X249122Y295577D01*
X249526Y295307D01*
X250002Y295212D01*
X273550D01*
X276861Y291901D01*
X276628Y291339D01*
X276504Y290404D01*
X276628Y289468D01*
X276989Y288597D01*
X277563Y287848D01*
X278311Y287274D01*
X279183Y286913D01*
X280118Y286790D01*
X281053Y286913D01*
X281925Y287274D01*
X282673Y287848D01*
X283248Y288597D01*
X283609Y289468D01*
X283732Y290404D01*
X283609Y291339D01*
X283248Y292210D01*
X282673Y292959D01*
X281925Y293533D01*
X281053Y293894D01*
X280118Y294017D01*
X279183Y293894D01*
X278620Y293661D01*
X274945Y297337D01*
X274541Y297606D01*
X274065Y297701D01*
X250518D01*
X247339Y300880D01*
X247307Y300901D01*
Y342799D01*
X247769Y342990D01*
X255419Y335341D01*
X255823Y335071D01*
X256299Y334976D01*
X273402D01*
X276861Y331517D01*
X276628Y330955D01*
X276504Y330020D01*
X276628Y329084D01*
X276989Y328213D01*
X277563Y327465D01*
X278311Y326890D01*
X279183Y326529D01*
X280118Y326406D01*
X281053Y326529D01*
X281925Y326890D01*
X282673Y327465D01*
X283248Y328213D01*
X283609Y329084D01*
X283732Y330020D01*
X283609Y330955D01*
X283248Y331826D01*
X282673Y332575D01*
X281925Y333149D01*
X281053Y333510D01*
X280118Y333633D01*
X279183Y333510D01*
X278620Y333277D01*
X274797Y337100D01*
X274394Y337370D01*
X273917Y337465D01*
X256815D01*
X249276Y345004D01*
Y376658D01*
X249738Y376849D01*
X253057Y373530D01*
X253461Y373260D01*
X253937Y373165D01*
X259910D01*
X260079Y372665D01*
X259846Y372486D01*
X259272Y371738D01*
X258911Y370866D01*
X258788Y369931D01*
X258911Y368996D01*
X259272Y368124D01*
X259846Y367376D01*
X260595Y366802D01*
X261466Y366441D01*
X262402Y366318D01*
X263337Y366441D01*
X264208Y366802D01*
X264957Y367376D01*
X265531Y368124D01*
X265892Y368996D01*
X266015Y369931D01*
X265892Y370866D01*
X265531Y371738D01*
X264957Y372486D01*
X264724Y372665D01*
X264894Y373165D01*
X275124D01*
X276861Y371429D01*
X276628Y370866D01*
X276504Y369931D01*
X276628Y368996D01*
X276989Y368124D01*
X277563Y367376D01*
X278311Y366802D01*
X279183Y366441D01*
X280118Y366318D01*
X281053Y366441D01*
X281925Y366802D01*
X282673Y367376D01*
X283248Y368124D01*
X283609Y368996D01*
X283732Y369931D01*
X283609Y370866D01*
X283248Y371738D01*
X282673Y372486D01*
X281925Y373061D01*
X281053Y373422D01*
X280118Y373545D01*
X279183Y373422D01*
X278620Y373189D01*
X276520Y375289D01*
X276116Y375559D01*
X275640Y375654D01*
X254452D01*
X251244Y378862D01*
Y389874D01*
X251744Y389974D01*
X252009Y389335D01*
X252583Y388586D01*
X253332Y388012D01*
X254203Y387651D01*
X255138Y387528D01*
X256074Y387651D01*
X256945Y388012D01*
X257694Y388586D01*
X258268Y389335D01*
X258629Y390207D01*
X258752Y391142D01*
X258629Y392077D01*
X258268Y392949D01*
X257694Y393697D01*
X256945Y394271D01*
X256074Y394632D01*
X255138Y394755D01*
X254203Y394632D01*
X253332Y394271D01*
X252583Y393697D01*
X252009Y392949D01*
X251744Y392310D01*
X251244Y392409D01*
Y407591D01*
X251744Y407690D01*
X252009Y407052D01*
X252583Y406303D01*
X253332Y405729D01*
X254203Y405368D01*
X255138Y405245D01*
X256074Y405368D01*
X256945Y405729D01*
X257694Y406303D01*
X258268Y407052D01*
X258629Y407923D01*
X258752Y408858D01*
X258629Y409794D01*
X258479Y410155D01*
X262547Y414224D01*
X262861Y414692D01*
X262971Y415245D01*
Y427269D01*
X263115Y427365D01*
X263602Y428095D01*
X263774Y428955D01*
X263602Y429815D01*
X263115Y430544D01*
X262971Y430641D01*
Y433441D01*
X277389Y447859D01*
X277559Y447825D01*
X278419Y447996D01*
X279149Y448483D01*
X279636Y449213D01*
X279807Y450073D01*
X279636Y450933D01*
X279149Y451662D01*
X278419Y452150D01*
X277559Y452321D01*
X276699Y452150D01*
X275970Y451662D01*
X275482Y450933D01*
X275311Y450073D01*
X275345Y449902D01*
X260504Y435061D01*
X260191Y434592D01*
X260081Y434039D01*
Y430641D01*
X259936Y430544D01*
X259449Y429815D01*
X259278Y428955D01*
X259449Y428095D01*
X259936Y427365D01*
X260081Y427269D01*
Y415844D01*
X256435Y412199D01*
X256074Y412349D01*
X255138Y412472D01*
X254203Y412349D01*
X253332Y411988D01*
X252583Y411413D01*
X252009Y410665D01*
X251744Y410026D01*
X251244Y410126D01*
Y431641D01*
X251744Y431793D01*
X251953Y431481D01*
X252683Y430993D01*
X253543Y430822D01*
X254403Y430993D01*
X255132Y431481D01*
X255620Y432210D01*
X255791Y433070D01*
X255620Y433930D01*
X255132Y434659D01*
X254921Y434801D01*
Y436944D01*
X255584Y437387D01*
X256071Y438116D01*
X256242Y438976D01*
X256169Y439342D01*
X256630Y439588D01*
X257288Y438930D01*
X257372Y438510D01*
X257859Y437781D01*
X258589Y437293D01*
X259449Y437122D01*
X260309Y437293D01*
X261038Y437781D01*
X261526Y438510D01*
X261697Y439370D01*
X261526Y440230D01*
X261038Y440960D01*
X260845Y441089D01*
Y441589D01*
X261038Y441718D01*
X261526Y442447D01*
X261697Y443307D01*
X261526Y444167D01*
X261038Y444897D01*
X260845Y445026D01*
Y445526D01*
X261038Y445655D01*
X261526Y446384D01*
X261697Y447244D01*
X261526Y448104D01*
X261038Y448834D01*
X260845Y448963D01*
Y449463D01*
X261038Y449592D01*
X261526Y450321D01*
X261697Y451181D01*
X261526Y452041D01*
X261038Y452771D01*
X260309Y453258D01*
X259727Y453374D01*
X259776Y453874D01*
X300272D01*
X301905Y452241D01*
Y446972D01*
X301847Y446914D01*
X299770D01*
X298270Y448414D01*
X298311Y448622D01*
X298140Y449482D01*
X297653Y450212D01*
X296923Y450699D01*
X296063Y450870D01*
X295203Y450699D01*
X294474Y450212D01*
X293986Y449482D01*
X293815Y448622D01*
X293986Y447762D01*
X294474Y447032D01*
X294667Y446904D01*
Y446404D01*
X294474Y446275D01*
X293986Y445545D01*
X293815Y444685D01*
X293986Y443825D01*
X294474Y443095D01*
X294667Y442967D01*
Y442466D01*
X294474Y442338D01*
X293986Y441608D01*
X293815Y440748D01*
X293986Y439888D01*
X294474Y439158D01*
X294667Y439030D01*
Y438529D01*
X294474Y438401D01*
X293986Y437671D01*
X293815Y436811D01*
X293986Y435951D01*
X294474Y435221D01*
X295203Y434734D01*
X296063Y434563D01*
X296923Y434734D01*
X297653Y435221D01*
X298140Y435951D01*
X298311Y436811D01*
X298270Y437019D01*
X299770Y438519D01*
X301198D01*
X301389Y438058D01*
X296429Y433098D01*
X296180Y432724D01*
X296092Y432283D01*
Y419065D01*
X287037Y410010D01*
X284130D01*
X283858Y410665D01*
X283284Y411413D01*
X282536Y411988D01*
X281664Y412349D01*
X280729Y412472D01*
X279794Y412349D01*
X278922Y411988D01*
X278174Y411413D01*
X277600Y410665D01*
X277239Y409794D01*
X277116Y408858D01*
X277239Y407923D01*
X277600Y407052D01*
X278174Y406303D01*
X278922Y405729D01*
X279794Y405368D01*
X280729Y405245D01*
X281664Y405368D01*
X282536Y405729D01*
X283284Y406303D01*
X283858Y407052D01*
X284130Y407706D01*
X287514D01*
X287955Y407794D01*
X288329Y408044D01*
X298059Y417773D01*
X298308Y418147D01*
X298396Y418588D01*
Y431806D01*
X303196Y436606D01*
X305458D01*
X305899Y436694D01*
X306273Y436943D01*
X311838Y442509D01*
X312088Y442882D01*
X312176Y443323D01*
Y444882D01*
X312088Y445323D01*
X312085Y445327D01*
Y455980D01*
X311997Y456421D01*
X311748Y456795D01*
X304826Y463716D01*
X304452Y463966D01*
X304011Y464054D01*
X273109D01*
X272943Y464886D01*
X272456Y465615D01*
X271726Y466103D01*
X270866Y466274D01*
D02*
G37*
G36*
X284252Y438468D02*
X283392Y438297D01*
X282663Y437810D01*
X282175Y437081D01*
X282004Y436221D01*
X282107Y435705D01*
X280681Y434279D01*
X280432Y433905D01*
X280344Y433465D01*
Y425504D01*
X279907Y425212D01*
X279419Y424482D01*
X279248Y423622D01*
X279419Y422762D01*
X279907Y422032D01*
X280319Y421757D01*
Y421156D01*
X279906Y420880D01*
X279419Y420151D01*
X279248Y419290D01*
X279419Y418430D01*
X279906Y417701D01*
X280635Y417214D01*
X281495Y417043D01*
X282356Y417214D01*
X283085Y417701D01*
X283572Y418430D01*
X283743Y419290D01*
X283706Y419478D01*
X286304Y422076D01*
X290638D01*
X290930Y421639D01*
X291659Y421152D01*
X292520Y420980D01*
X293380Y421152D01*
X294109Y421639D01*
X294597Y422368D01*
X294768Y423228D01*
X294597Y424089D01*
X294109Y424818D01*
X293380Y425305D01*
X292520Y425476D01*
X291659Y425305D01*
X290930Y424818D01*
X290638Y424380D01*
X285827D01*
X285386Y424293D01*
X285012Y424043D01*
X284170Y423201D01*
X283709Y423447D01*
X283744Y423622D01*
X283573Y424482D01*
X283086Y425212D01*
X282648Y425504D01*
Y432987D01*
X283736Y434075D01*
X284252Y433973D01*
X285112Y434144D01*
X285841Y434631D01*
X286329Y435360D01*
X286500Y436221D01*
X286329Y437081D01*
X285841Y437810D01*
X285112Y438297D01*
X284252Y438468D01*
D02*
G37*
G36*
X273228Y441224D02*
X272368Y441053D01*
X271639Y440566D01*
X271151Y439837D01*
X270980Y438976D01*
X271151Y438116D01*
X271639Y437387D01*
X272076Y437095D01*
Y431016D01*
X271639Y430723D01*
X271151Y429994D01*
X270980Y429134D01*
X271151Y428274D01*
X271639Y427544D01*
X272368Y427057D01*
X273228Y426886D01*
X274089Y427057D01*
X274818Y427544D01*
X275305Y428274D01*
X275476Y429134D01*
X275305Y429994D01*
X274818Y430723D01*
X274380Y431016D01*
Y437095D01*
X274818Y437387D01*
X275305Y438116D01*
X275476Y438976D01*
X275305Y439837D01*
X274818Y440566D01*
X274089Y441053D01*
X273228Y441224D01*
D02*
G37*
G36*
X181102Y412472D02*
X180167Y412349D01*
X179296Y411988D01*
X178547Y411413D01*
X177973Y410665D01*
X177612Y409794D01*
X177489Y408858D01*
X177612Y407923D01*
X177973Y407052D01*
X178547Y406303D01*
X179296Y405729D01*
X180167Y405368D01*
X181102Y405245D01*
X182038Y405368D01*
X182909Y405729D01*
X183658Y406303D01*
X184232Y407052D01*
X184593Y407923D01*
X184716Y408858D01*
X184593Y409794D01*
X184232Y410665D01*
X183658Y411413D01*
X182909Y411988D01*
X182038Y412349D01*
X181102Y412472D01*
D02*
G37*
G36*
X280729Y394755D02*
X279794Y394632D01*
X278922Y394271D01*
X278174Y393697D01*
X277600Y392949D01*
X277239Y392077D01*
X277116Y391142D01*
X277239Y390207D01*
X277600Y389335D01*
X278174Y388586D01*
X278922Y388012D01*
X279794Y387651D01*
X280729Y387528D01*
X281664Y387651D01*
X282536Y388012D01*
X283284Y388586D01*
X283858Y389335D01*
X284220Y390207D01*
X284343Y391142D01*
X284220Y392077D01*
X283858Y392949D01*
X283284Y393697D01*
X282536Y394271D01*
X281664Y394632D01*
X280729Y394755D01*
D02*
G37*
G36*
X280118Y347954D02*
X279183Y347831D01*
X278311Y347470D01*
X277563Y346896D01*
X276989Y346147D01*
X276628Y345276D01*
X276504Y344340D01*
X276628Y343405D01*
X276989Y342534D01*
X277563Y341785D01*
X278311Y341211D01*
X279183Y340850D01*
X280118Y340727D01*
X281053Y340850D01*
X281925Y341211D01*
X282673Y341785D01*
X283248Y342534D01*
X283609Y343405D01*
X283732Y344340D01*
X283609Y345276D01*
X283248Y346147D01*
X282673Y346896D01*
X281925Y347470D01*
X281053Y347831D01*
X280118Y347954D01*
D02*
G37*
G36*
X262402D02*
X261466Y347831D01*
X260595Y347470D01*
X259846Y346896D01*
X259272Y346147D01*
X258911Y345276D01*
X258788Y344340D01*
X258911Y343405D01*
X259272Y342534D01*
X259846Y341785D01*
X260595Y341211D01*
X261466Y340850D01*
X262402Y340727D01*
X263337Y340850D01*
X264208Y341211D01*
X264957Y341785D01*
X265531Y342534D01*
X265892Y343405D01*
X266015Y344340D01*
X265892Y345276D01*
X265531Y346147D01*
X264957Y346896D01*
X264208Y347470D01*
X263337Y347831D01*
X262402Y347954D01*
D02*
G37*
G36*
X262402Y333633D02*
X261466Y333510D01*
X260595Y333149D01*
X259846Y332575D01*
X259272Y331826D01*
X258911Y330955D01*
X258788Y330020D01*
X258911Y329084D01*
X259272Y328213D01*
X259846Y327465D01*
X260595Y326890D01*
X261466Y326529D01*
X262402Y326406D01*
X263337Y326529D01*
X264208Y326890D01*
X264957Y327465D01*
X265531Y328213D01*
X265892Y329084D01*
X266015Y330020D01*
X265892Y330955D01*
X265531Y331826D01*
X264957Y332575D01*
X264208Y333149D01*
X263337Y333510D01*
X262402Y333633D01*
D02*
G37*
G36*
X280118Y308043D02*
X279183Y307920D01*
X278311Y307559D01*
X277563Y306984D01*
X276989Y306236D01*
X276628Y305364D01*
X276504Y304429D01*
X276628Y303494D01*
X276989Y302622D01*
X277563Y301874D01*
X278311Y301300D01*
X279183Y300939D01*
X280118Y300816D01*
X281053Y300939D01*
X281925Y301300D01*
X282673Y301874D01*
X283248Y302622D01*
X283609Y303494D01*
X283732Y304429D01*
X283609Y305364D01*
X283248Y306236D01*
X282673Y306984D01*
X281925Y307559D01*
X281053Y307920D01*
X280118Y308043D01*
D02*
G37*
G36*
X262402D02*
X261466Y307920D01*
X260595Y307559D01*
X259846Y306984D01*
X259272Y306236D01*
X258911Y305364D01*
X258788Y304429D01*
X258911Y303494D01*
X259272Y302622D01*
X259846Y301874D01*
X260595Y301300D01*
X261466Y300939D01*
X262402Y300816D01*
X263337Y300939D01*
X264208Y301300D01*
X264957Y301874D01*
X265531Y302622D01*
X265892Y303494D01*
X266015Y304429D01*
X265892Y305364D01*
X265531Y306236D01*
X264957Y306984D01*
X264208Y307559D01*
X263337Y307920D01*
X262402Y308043D01*
D02*
G37*
G36*
Y294017D02*
X261466Y293894D01*
X260595Y293533D01*
X259846Y292959D01*
X259272Y292210D01*
X258911Y291339D01*
X258788Y290404D01*
X258911Y289468D01*
X259272Y288597D01*
X259846Y287848D01*
X260595Y287274D01*
X261466Y286913D01*
X262402Y286790D01*
X263337Y286913D01*
X264208Y287274D01*
X264957Y287848D01*
X265531Y288597D01*
X265892Y289468D01*
X266015Y290404D01*
X265892Y291339D01*
X265531Y292210D01*
X264957Y292959D01*
X264208Y293533D01*
X263337Y293894D01*
X262402Y294017D01*
D02*
G37*
G36*
X280118Y268427D02*
X279183Y268303D01*
X278311Y267942D01*
X277563Y267368D01*
X276989Y266620D01*
X276628Y265748D01*
X276504Y264813D01*
X276628Y263878D01*
X276989Y263006D01*
X277563Y262258D01*
X278311Y261684D01*
X279183Y261322D01*
X280118Y261199D01*
X281053Y261322D01*
X281925Y261684D01*
X282673Y262258D01*
X283248Y263006D01*
X283609Y263878D01*
X283732Y264813D01*
X283609Y265748D01*
X283248Y266620D01*
X282673Y267368D01*
X281925Y267942D01*
X281053Y268303D01*
X280118Y268427D01*
D02*
G37*
G36*
X262402D02*
X261466Y268303D01*
X260595Y267942D01*
X259846Y267368D01*
X259272Y266620D01*
X258911Y265748D01*
X258788Y264813D01*
X258911Y263878D01*
X259272Y263006D01*
X259846Y262258D01*
X260595Y261684D01*
X261466Y261322D01*
X262402Y261199D01*
X263337Y261322D01*
X264208Y261684D01*
X264957Y262258D01*
X265531Y263006D01*
X265892Y263878D01*
X266015Y264813D01*
X265892Y265748D01*
X265531Y266620D01*
X264957Y267368D01*
X264208Y267942D01*
X263337Y268303D01*
X262402Y268427D01*
D02*
G37*
G36*
Y254253D02*
X261466Y254130D01*
X260595Y253769D01*
X259846Y253195D01*
X259272Y252447D01*
X258911Y251575D01*
X258788Y250640D01*
X258911Y249705D01*
X259272Y248833D01*
X259846Y248085D01*
X260595Y247510D01*
X261466Y247149D01*
X262402Y247026D01*
X263337Y247149D01*
X264208Y247510D01*
X264957Y248085D01*
X265531Y248833D01*
X265892Y249705D01*
X266015Y250640D01*
X265892Y251575D01*
X265531Y252447D01*
X264957Y253195D01*
X264208Y253769D01*
X263337Y254130D01*
X262402Y254253D01*
D02*
G37*
G36*
X280118Y228663D02*
X279183Y228540D01*
X278311Y228179D01*
X277563Y227604D01*
X276989Y226856D01*
X276628Y225985D01*
X276504Y225049D01*
X276628Y224114D01*
X276989Y223242D01*
X277563Y222494D01*
X278311Y221920D01*
X279183Y221559D01*
X280118Y221436D01*
X281053Y221559D01*
X281925Y221920D01*
X282673Y222494D01*
X283248Y223242D01*
X283609Y224114D01*
X283732Y225049D01*
X283609Y225985D01*
X283248Y226856D01*
X282673Y227604D01*
X281925Y228179D01*
X281053Y228540D01*
X280118Y228663D01*
D02*
G37*
G36*
X262402D02*
X261466Y228540D01*
X260595Y228179D01*
X259846Y227604D01*
X259272Y226856D01*
X258911Y225985D01*
X258788Y225049D01*
X258911Y224114D01*
X259272Y223242D01*
X259846Y222494D01*
X260595Y221920D01*
X261466Y221559D01*
X262402Y221436D01*
X263337Y221559D01*
X264208Y221920D01*
X264957Y222494D01*
X265531Y223242D01*
X265892Y224114D01*
X266015Y225049D01*
X265892Y225985D01*
X265531Y226856D01*
X264957Y227604D01*
X264208Y228179D01*
X263337Y228540D01*
X262402Y228663D01*
D02*
G37*
G36*
Y214490D02*
X261466Y214366D01*
X260595Y214005D01*
X259846Y213431D01*
X259272Y212683D01*
X258911Y211811D01*
X258788Y210876D01*
X258911Y209941D01*
X259272Y209069D01*
X259846Y208321D01*
X260595Y207747D01*
X261466Y207385D01*
X262402Y207262D01*
X263337Y207385D01*
X264208Y207747D01*
X264957Y208321D01*
X265531Y209069D01*
X265892Y209941D01*
X266015Y210876D01*
X265892Y211811D01*
X265531Y212683D01*
X264957Y213431D01*
X264208Y214005D01*
X263337Y214366D01*
X262402Y214490D01*
D02*
G37*
G36*
X280118Y188899D02*
X279183Y188776D01*
X278311Y188415D01*
X277563Y187841D01*
X276989Y187092D01*
X276628Y186221D01*
X276504Y185285D01*
X276628Y184350D01*
X276989Y183479D01*
X277563Y182730D01*
X278311Y182156D01*
X279183Y181795D01*
X280118Y181672D01*
X281053Y181795D01*
X281925Y182156D01*
X282673Y182730D01*
X283248Y183479D01*
X283609Y184350D01*
X283732Y185285D01*
X283609Y186221D01*
X283248Y187092D01*
X282673Y187841D01*
X281925Y188415D01*
X281053Y188776D01*
X280118Y188899D01*
D02*
G37*
G36*
X262402D02*
X261466Y188776D01*
X260595Y188415D01*
X259846Y187841D01*
X259272Y187092D01*
X258911Y186221D01*
X258788Y185285D01*
X258911Y184350D01*
X259272Y183479D01*
X259846Y182730D01*
X260595Y182156D01*
X261466Y181795D01*
X262402Y181672D01*
X263337Y181795D01*
X264208Y182156D01*
X264957Y182730D01*
X265531Y183479D01*
X265892Y184350D01*
X266015Y185285D01*
X265892Y186221D01*
X265531Y187092D01*
X264957Y187841D01*
X264208Y188415D01*
X263337Y188776D01*
X262402Y188899D01*
D02*
G37*
G36*
X262309Y174726D02*
X261374Y174603D01*
X260503Y174242D01*
X259754Y173667D01*
X259180Y172919D01*
X258819Y172047D01*
X258696Y171112D01*
X258819Y170177D01*
X259180Y169305D01*
X259754Y168557D01*
X260503Y167983D01*
X261374Y167622D01*
X262309Y167499D01*
X263245Y167622D01*
X264116Y167983D01*
X264865Y168557D01*
X265439Y169305D01*
X265800Y170177D01*
X265923Y171112D01*
X265800Y172047D01*
X265439Y172919D01*
X264865Y173667D01*
X264116Y174242D01*
X263245Y174603D01*
X262309Y174726D01*
D02*
G37*
G36*
X280026Y149135D02*
X279091Y149012D01*
X278219Y148651D01*
X277471Y148077D01*
X276897Y147328D01*
X276536Y146457D01*
X276412Y145522D01*
X276536Y144586D01*
X276897Y143715D01*
X277471Y142966D01*
X278219Y142392D01*
X279091Y142031D01*
X280026Y141908D01*
X280961Y142031D01*
X281833Y142392D01*
X282581Y142966D01*
X283155Y143715D01*
X283516Y144586D01*
X283640Y145522D01*
X283516Y146457D01*
X283155Y147328D01*
X282581Y148077D01*
X281833Y148651D01*
X280961Y149012D01*
X280026Y149135D01*
D02*
G37*
G36*
X262309D02*
X261374Y149012D01*
X260503Y148651D01*
X259754Y148077D01*
X259180Y147328D01*
X258819Y146457D01*
X258696Y145522D01*
X258819Y144586D01*
X259180Y143715D01*
X259754Y142966D01*
X260503Y142392D01*
X261374Y142031D01*
X262309Y141908D01*
X263245Y142031D01*
X264116Y142392D01*
X264865Y142966D01*
X265439Y143715D01*
X265800Y144586D01*
X265923Y145522D01*
X265800Y146457D01*
X265439Y147328D01*
X264865Y148077D01*
X264116Y148651D01*
X263245Y149012D01*
X262309Y149135D01*
D02*
G37*
G36*
X280026Y109371D02*
X279091Y109248D01*
X278219Y108887D01*
X277471Y108313D01*
X276897Y107565D01*
X276536Y106693D01*
X276412Y105758D01*
X276536Y104823D01*
X276897Y103951D01*
X277471Y103203D01*
X278219Y102628D01*
X279091Y102267D01*
X280026Y102144D01*
X280961Y102267D01*
X281833Y102628D01*
X282581Y103203D01*
X283155Y103951D01*
X283516Y104823D01*
X283640Y105758D01*
X283516Y106693D01*
X283155Y107565D01*
X282581Y108313D01*
X281833Y108887D01*
X280961Y109248D01*
X280026Y109371D01*
D02*
G37*
G36*
X262309D02*
X261374Y109248D01*
X260503Y108887D01*
X259754Y108313D01*
X259180Y107565D01*
X258819Y106693D01*
X258696Y105758D01*
X258819Y104823D01*
X259180Y103951D01*
X259754Y103203D01*
X260503Y102628D01*
X261374Y102267D01*
X262309Y102144D01*
X263245Y102267D01*
X264116Y102628D01*
X264865Y103203D01*
X265439Y103951D01*
X265800Y104823D01*
X265923Y105758D01*
X265800Y106693D01*
X265439Y107565D01*
X264865Y108313D01*
X264116Y108887D01*
X263245Y109248D01*
X262309Y109371D01*
D02*
G37*
G36*
Y95198D02*
X261374Y95075D01*
X260503Y94714D01*
X259754Y94140D01*
X259180Y93391D01*
X258819Y92520D01*
X258696Y91585D01*
X258819Y90649D01*
X259180Y89778D01*
X259754Y89030D01*
X260503Y88455D01*
X261374Y88094D01*
X262309Y87971D01*
X263245Y88094D01*
X264116Y88455D01*
X264865Y89030D01*
X265439Y89778D01*
X265800Y90649D01*
X265923Y91585D01*
X265800Y92520D01*
X265439Y93391D01*
X264865Y94140D01*
X264116Y94714D01*
X263245Y95075D01*
X262309Y95198D01*
D02*
G37*
G36*
X280026Y69608D02*
X279091Y69485D01*
X278219Y69124D01*
X277471Y68549D01*
X276897Y67801D01*
X276536Y66929D01*
X276412Y65994D01*
X276536Y65059D01*
X276897Y64187D01*
X277471Y63439D01*
X278219Y62865D01*
X279091Y62504D01*
X280026Y62380D01*
X280961Y62504D01*
X281833Y62865D01*
X282581Y63439D01*
X283155Y64187D01*
X283516Y65059D01*
X283640Y65994D01*
X283516Y66929D01*
X283155Y67801D01*
X282581Y68549D01*
X281833Y69124D01*
X280961Y69485D01*
X280026Y69608D01*
D02*
G37*
G36*
X262309D02*
X261374Y69485D01*
X260503Y69124D01*
X259754Y68549D01*
X259180Y67801D01*
X258819Y66929D01*
X258696Y65994D01*
X258819Y65059D01*
X259180Y64187D01*
X259754Y63439D01*
X260503Y62865D01*
X261374Y62504D01*
X262309Y62380D01*
X263245Y62504D01*
X264116Y62865D01*
X264865Y63439D01*
X265439Y64187D01*
X265800Y65059D01*
X265923Y65994D01*
X265800Y66929D01*
X265439Y67801D01*
X264865Y68549D01*
X264116Y69124D01*
X263245Y69485D01*
X262309Y69608D01*
D02*
G37*
G36*
X295276Y66216D02*
X293879Y66078D01*
X292535Y65671D01*
X291297Y65009D01*
X290212Y64118D01*
X289322Y63033D01*
X288660Y61795D01*
X288253Y60452D01*
X288115Y59055D01*
X288253Y57658D01*
X288660Y56315D01*
X289322Y55077D01*
X290212Y53992D01*
X291297Y53101D01*
X292535Y52440D01*
X293879Y52032D01*
X295276Y51895D01*
X296673Y52032D01*
X298016Y52440D01*
X299254Y53101D01*
X300339Y53992D01*
X301229Y55077D01*
X301891Y56315D01*
X302298Y57658D01*
X302436Y59055D01*
X302298Y60452D01*
X301891Y61795D01*
X301229Y63033D01*
X300339Y64118D01*
X299254Y65009D01*
X298016Y65671D01*
X296673Y66078D01*
X295276Y66216D01*
D02*
G37*
%LPD*%
D13*
X371465Y401574D02*
X372046D01*
X370283Y402756D02*
X371465Y401574D01*
X361027Y402756D02*
X370283D01*
X370362Y408071D02*
X370472D01*
X367248Y411295D02*
X367610Y410933D01*
Y410822D02*
X370362Y408071D01*
X367610Y410822D02*
Y410933D01*
X185298Y418307D02*
X200075Y433084D01*
X182677Y418307D02*
X185298D01*
X155512Y391142D02*
X182677Y418307D01*
X234198Y449159D02*
X234252Y449213D01*
X234198Y446117D02*
Y449159D01*
X232283Y415353D02*
Y444201D01*
X234198Y446117D01*
X311173Y419150D02*
X319582Y427559D01*
X311173Y252213D02*
Y419150D01*
Y252213D02*
X316535Y246850D01*
X320322Y425772D02*
X354500D01*
X312961Y418410D02*
X320322Y425772D01*
X312961Y290976D02*
Y418410D01*
Y290976D02*
X317323Y286614D01*
X321063Y423984D02*
X353759D01*
X314748Y417669D02*
X321063Y423984D01*
X314748Y331315D02*
Y417669D01*
Y331315D02*
X318110Y327953D01*
X316535Y370716D02*
X320322Y366929D01*
X316535Y370716D02*
Y416929D01*
X321279Y421673D01*
X353543D01*
X271452Y462902D02*
X304011D01*
X270866Y463487D02*
X271452Y462902D01*
X270866Y463487D02*
Y464026D01*
X304011Y462902D02*
X310933Y455980D01*
X225133Y479284D02*
X303060D01*
X214814Y468964D02*
X225133Y479284D01*
X303060D02*
X316283Y466061D01*
X236713Y482972D02*
X281210D01*
X282882Y484645D01*
X283464D01*
X224392Y481071D02*
X303801D01*
X225873Y477496D02*
X302320D01*
X226613Y475709D02*
X301580D01*
X227354Y473921D02*
X300839D01*
X228433Y472134D02*
X300099D01*
X227776Y471477D02*
X228433Y472134D01*
X300839Y473921D02*
X314062Y460699D01*
X223839Y470407D02*
X227354Y473921D01*
X300099Y472134D02*
X313321Y458911D01*
X221850Y470945D02*
X226613Y475709D01*
X301580D02*
X314802Y462486D01*
X218897Y470520D02*
X225873Y477496D01*
X303801Y481071D02*
X317023Y467848D01*
X227776Y470490D02*
X227873Y470393D01*
X302320Y477496D02*
X315543Y464274D01*
X227776Y470490D02*
Y471477D01*
X211951Y468630D02*
X224392Y481071D01*
X200075Y433084D02*
Y475665D01*
X222475Y482177D02*
X227432Y487134D01*
X234646Y485039D02*
X236713Y482972D01*
X316283Y466061D02*
X328315D01*
X314802Y462486D02*
X325102D01*
X314062Y460699D02*
X321890D01*
X315543Y464274D02*
X328315D01*
X313321Y458911D02*
X318677D01*
X317023Y467848D02*
X325102D01*
X310933Y444972D02*
Y455980D01*
X321890Y460699D02*
X329921Y452667D01*
X318677Y458911D02*
X329921Y447667D01*
X325102Y462486D02*
X329921Y457667D01*
X328315Y464274D02*
X329921Y462667D01*
X325102Y467848D02*
X329921Y472667D01*
X328315Y466061D02*
X329921Y467667D01*
X287514Y408858D02*
X297244Y418588D01*
X280729Y408858D02*
X287514D01*
X192400Y420374D02*
X192815D01*
X192913Y420472D01*
Y421260D01*
X198819Y427165D01*
X201862Y412369D02*
Y474878D01*
Y412369D02*
X205373Y408858D01*
X201862Y474878D02*
X210236Y483252D01*
X205373Y432087D02*
X205630Y432344D01*
X219488D01*
X227997Y466097D02*
X231890Y462205D01*
X227320Y466097D02*
X227997D01*
X223839Y469578D02*
X227320Y466097D01*
X223839Y469578D02*
Y470407D01*
X222834Y466535D02*
Y467117D01*
X214814Y466535D02*
Y468964D01*
X211951Y465350D02*
X214703Y462598D01*
X211951Y465350D02*
Y468630D01*
X201955Y484050D02*
X201966D01*
X201369Y483465D02*
X201955Y484050D01*
X200787Y483465D02*
X201369D01*
X201966Y484050D02*
Y491585D01*
X204978Y494597D01*
X225243D01*
X211623Y442864D02*
X211672Y442815D01*
X204774Y442864D02*
X211623D01*
X204724Y442913D02*
X204774Y442864D01*
X200075Y475665D02*
X209449Y485039D01*
X310933Y444972D02*
X311024Y444882D01*
Y443323D02*
Y444882D01*
X305458Y437758D02*
X311024Y443323D01*
X302719Y437758D02*
X305458D01*
X297244Y432283D02*
X302719Y437758D01*
X297244Y418588D02*
Y432283D01*
X215923Y482177D02*
X222475D01*
X214848Y483252D02*
X215923Y482177D01*
X210236Y483252D02*
X214848D01*
X209449Y485039D02*
X219349D01*
X214703Y462598D02*
X224016D01*
X218841Y466590D02*
X218897Y466646D01*
Y470520D01*
X221850Y468101D02*
X222834Y467117D01*
X221850Y468101D02*
Y470945D01*
X323275Y440764D02*
X359886D01*
X324016Y438976D02*
X359146D01*
X321720Y444520D02*
X361442D01*
X309386Y424346D02*
X324016Y438976D01*
X359146D02*
X361902Y436221D01*
Y433862D02*
Y436221D01*
X361778Y433739D02*
X361902Y433862D01*
X361429Y433739D02*
X361778D01*
X358677Y430987D02*
X361429Y433739D01*
X358677Y430638D02*
Y430987D01*
X307598Y425087D02*
X323275Y440764D01*
X359886D02*
X363689Y436961D01*
Y431951D02*
Y436961D01*
X362614Y430876D02*
X363689Y431951D01*
X303842Y426643D02*
X321720Y444520D01*
X361442D02*
X367445Y438517D01*
X281495Y419290D02*
X281889D01*
X285827Y423228D01*
X292520D01*
X273228Y429134D02*
Y438976D01*
X281496Y433465D02*
X284252Y436221D01*
X281496Y423622D02*
Y433465D01*
X253543Y433070D02*
X253768Y433296D01*
Y438751D02*
X253994Y438976D01*
X253768Y433296D02*
Y438751D01*
X365401Y414870D02*
X369398D01*
X354500Y425772D02*
X365401Y414870D01*
X303842Y94488D02*
X303842Y426643D01*
X303842Y90251D02*
Y94488D01*
Y90251D02*
X308661Y85433D01*
X307598Y169173D02*
X311811Y164961D01*
X307598Y181496D02*
X307598Y425087D01*
X307598Y169173D02*
Y181496D01*
X309386Y213843D02*
X316535Y206693D01*
X309386Y219685D02*
X309386Y424346D01*
X309386Y213843D02*
Y219685D01*
X318110Y327559D02*
Y327953D01*
X367445Y433681D02*
Y438517D01*
Y433681D02*
X367626Y433500D01*
X367737D01*
X370488Y430748D01*
Y430638D02*
Y430748D01*
X355240Y427559D02*
X366142Y416657D01*
X353759Y423984D02*
X364661Y413083D01*
X353543Y421673D02*
X363921Y411295D01*
X319582Y427559D02*
X355240D01*
X367610Y417130D02*
X370362Y419882D01*
X370472D01*
X367248Y416657D02*
X367610Y417020D01*
Y417130D01*
X366142Y416657D02*
X367248D01*
X369398Y414870D02*
X370472Y415945D01*
X363921Y411295D02*
X367248D01*
X364661Y413083D02*
X369398D01*
X370472Y412008D01*
D15*
X261526Y434039D02*
X277559Y450073D01*
X261526Y428955D02*
Y434039D01*
Y415245D02*
Y428955D01*
X255138Y408858D02*
X261526Y415245D01*
D34*
X419291Y473494D02*
D03*
Y440029D02*
D03*
D70*
X258327Y451181D02*
X259449D01*
X255374Y448228D02*
X258327Y451181D01*
X250704Y448228D02*
X255374D01*
X258608Y439370D02*
X259449D01*
X255656Y442323D02*
X258608Y439370D01*
X253150Y442323D02*
X255656D01*
X258465Y444291D02*
X259449Y443307D01*
X252363Y461024D02*
X303234D01*
X253179Y459055D02*
X302418D01*
X253994Y457087D02*
X301603D01*
X254809Y455118D02*
X300787D01*
X303234Y461024D02*
X309055Y455202D01*
X238189Y444065D02*
X253179Y459055D01*
X301603Y457087D02*
X305118Y453571D01*
X236221Y444881D02*
X252363Y461024D01*
X302418Y459055D02*
X307087Y454387D01*
X242126Y442435D02*
X254809Y455118D01*
X240158Y443250D02*
X253994Y457087D01*
X300787Y455118D02*
X303150Y452756D01*
Y446457D02*
Y452756D01*
X302362Y445669D02*
X303150Y446457D01*
X299016Y445669D02*
X302362D01*
X299016Y445669D02*
X299016Y445669D01*
X299016Y445669D02*
Y445908D01*
X296302Y448622D02*
X299016Y445908D01*
X296063Y448622D02*
X296302D01*
X305118Y445641D02*
Y453571D01*
X303178Y443701D02*
X305118Y445641D01*
X297047Y443701D02*
X303178D01*
X296063Y444685D02*
X297047Y443701D01*
X307087Y444826D02*
Y454387D01*
X303993Y441732D02*
X307087Y444826D01*
X297047Y441732D02*
X303993D01*
X296063Y440748D02*
X297047Y441732D01*
X309055Y444011D02*
Y455202D01*
X299016Y439764D02*
X304808D01*
X299016Y439764D02*
X299016Y439764D01*
X304808D02*
X309055Y444011D01*
X299016Y439525D02*
Y439764D01*
X322498Y442642D02*
X360664D01*
X305720Y425865D02*
X322498Y442642D01*
X360664D02*
X365567Y437739D01*
X258465Y446260D02*
X259449Y447244D01*
X252334Y444291D02*
X258465D01*
X250000Y378346D02*
Y439173D01*
X253150Y442323D01*
X248031Y439989D02*
X252334Y444291D01*
X251519Y446260D02*
X258465D01*
X246063Y440804D02*
X251519Y446260D01*
X244094Y441619D02*
X250704Y448228D01*
X250000Y378346D02*
X253937Y374410D01*
X305720Y134252D02*
X305720Y425865D01*
X305720Y128957D02*
Y134252D01*
Y128957D02*
X307874Y126803D01*
Y126378D02*
Y126803D01*
X365567Y431622D02*
Y437739D01*
Y431622D02*
X366551Y430638D01*
X236220Y102362D02*
X236221Y444881D01*
X241339Y97244D02*
X274366D01*
X280026Y91585D01*
X236220Y102362D02*
X241339Y97244D01*
X238189Y140945D02*
X238189Y444065D01*
X274760Y136614D02*
X280026Y131348D01*
X242520Y136614D02*
X274760D01*
X238189Y140945D02*
X242520Y136614D01*
X240158Y180315D02*
X240158Y443250D01*
X242913Y177559D02*
X273579D01*
X280026Y171112D01*
X240158Y180315D02*
X242913Y177559D01*
X242126Y223228D02*
X242126Y442435D01*
X247244Y218110D02*
X274016D01*
X242126Y223228D02*
X247244Y218110D01*
X296302Y436811D02*
X299016Y439525D01*
X296063Y436811D02*
X296302D01*
X274016Y218110D02*
X280118Y212008D01*
Y210876D02*
Y212008D01*
X244094Y262598D02*
X244094Y441619D01*
X273278Y257480D02*
X280118Y250640D01*
X244490Y262598D02*
X249608Y257480D01*
X273278D01*
X246063Y300000D02*
X246063Y440804D01*
X246459Y300000D02*
X250002Y296457D01*
X274065D01*
X280118Y290404D01*
X273917Y336221D02*
X280118Y330020D01*
X256299Y336221D02*
X273917D01*
X248031Y344488D02*
X248031Y439989D01*
X248031Y344488D02*
X256299Y336221D01*
X275640Y374410D02*
X280118Y369931D01*
X253937Y374410D02*
X275640D01*
D73*
X268465Y487795D02*
D03*
X228346Y188976D02*
D03*
X228254Y69685D02*
D03*
Y109449D02*
D03*
Y149213D02*
D03*
X228346Y268504D02*
D03*
Y308120D02*
D03*
X228346Y348031D02*
D03*
X228346Y228740D02*
D03*
D74*
X278465Y487795D02*
D03*
X288465D02*
D03*
X298465D02*
D03*
X155512Y207480D02*
D03*
X183071D02*
D03*
X228346D02*
D03*
X155420Y88189D02*
D03*
X182979D02*
D03*
X228254D02*
D03*
X155420Y127953D02*
D03*
X182979D02*
D03*
X228254D02*
D03*
X155420Y167717D02*
D03*
X182979D02*
D03*
X228254D02*
D03*
X155512Y287008D02*
D03*
X183071D02*
D03*
X228346D02*
D03*
X155512Y326624D02*
D03*
X183071D02*
D03*
X228346D02*
D03*
X155512Y366535D02*
D03*
X183071D02*
D03*
X228346D02*
D03*
X155512Y247244D02*
D03*
X183071D02*
D03*
X228346D02*
D03*
D75*
X295276Y377116D02*
D03*
Y59055D02*
D03*
Y139764D02*
D03*
Y218504D02*
D03*
Y297244D02*
D03*
X419291Y47244D02*
D03*
X96457D02*
D03*
Y399606D02*
D03*
X419291D02*
D03*
X96457Y490158D02*
D03*
X419291D02*
D03*
D76*
X389370Y148425D02*
D03*
Y347244D02*
D03*
Y307480D02*
D03*
Y267520D02*
D03*
Y227953D02*
D03*
Y188189D02*
D03*
Y68898D02*
D03*
Y109055D02*
D03*
X125984Y208661D02*
D03*
X125892Y89370D02*
D03*
Y129134D02*
D03*
Y168898D02*
D03*
X125984Y288189D02*
D03*
Y327805D02*
D03*
X125984Y367717D02*
D03*
X127165Y442913D02*
D03*
X125984Y248425D02*
D03*
D77*
X389370Y168110D02*
D03*
Y366929D02*
D03*
Y327165D02*
D03*
Y287205D02*
D03*
Y247638D02*
D03*
Y207874D02*
D03*
Y88583D02*
D03*
Y128740D02*
D03*
X125984Y188976D02*
D03*
X125892Y69685D02*
D03*
Y109449D02*
D03*
Y149213D02*
D03*
X125984Y268504D02*
D03*
Y308120D02*
D03*
X125984Y348031D02*
D03*
X127165Y423228D02*
D03*
X125984Y228740D02*
D03*
D78*
X280026Y91585D02*
D03*
X262309D02*
D03*
X280026Y65994D02*
D03*
X262309D02*
D03*
X280026Y131348D02*
D03*
X262309D02*
D03*
X280026Y105758D02*
D03*
X262309D02*
D03*
X280026Y171112D02*
D03*
X262309D02*
D03*
X280026Y145522D02*
D03*
X262309D02*
D03*
X280118Y210876D02*
D03*
X262402D02*
D03*
X280118Y185285D02*
D03*
X262402D02*
D03*
X280118Y250640D02*
D03*
X262402D02*
D03*
X280118Y225049D02*
D03*
X262402D02*
D03*
X280118Y290404D02*
D03*
X262402D02*
D03*
X280118Y264813D02*
D03*
X262402D02*
D03*
X280118Y330020D02*
D03*
X262402D02*
D03*
X280118Y304429D02*
D03*
X262402D02*
D03*
X280118Y369931D02*
D03*
X262402D02*
D03*
X280118Y344340D02*
D03*
X262402D02*
D03*
X280729Y391142D02*
D03*
Y408858D02*
D03*
X255138Y391142D02*
D03*
Y408858D02*
D03*
X230963Y391142D02*
D03*
Y408858D02*
D03*
X205373Y391142D02*
D03*
Y408858D02*
D03*
X181102Y391142D02*
D03*
Y408858D02*
D03*
X155512Y391142D02*
D03*
Y408858D02*
D03*
D79*
X185827Y486811D02*
D03*
D80*
Y476968D02*
D03*
D81*
X372046Y401574D02*
D03*
X370472Y408071D02*
D03*
X383857Y402558D02*
D03*
X361027Y402756D02*
D03*
X277559Y450073D02*
D03*
X259449Y443307D02*
D03*
X261526Y428955D02*
D03*
X232283Y415353D02*
D03*
X337402Y408071D02*
D03*
X300451Y152559D02*
D03*
X311811Y164961D02*
D03*
X299212Y308070D02*
D03*
X300253Y228582D02*
D03*
X293701Y402756D02*
D03*
X270866Y464026D02*
D03*
X283464Y484645D02*
D03*
X227432Y487134D02*
D03*
X192400Y420374D02*
D03*
X198819Y427165D02*
D03*
X205373Y432087D02*
D03*
X108268Y458661D02*
D03*
X139764Y393701D02*
D03*
X155420Y427165D02*
D03*
X151575Y462205D02*
D03*
X167323Y465350D02*
D03*
X227873Y470393D02*
D03*
X222834Y466535D02*
D03*
X214814Y466535D02*
D03*
X301181Y68898D02*
D03*
X299826Y106299D02*
D03*
X299624Y187008D02*
D03*
Y266585D02*
D03*
X299213Y344488D02*
D03*
X258465Y75787D02*
D03*
Y81693D02*
D03*
Y115157D02*
D03*
Y121063D02*
D03*
Y155512D02*
D03*
Y161417D02*
D03*
X258858Y194882D02*
D03*
Y200787D02*
D03*
Y234252D02*
D03*
Y240158D02*
D03*
X258465Y274388D02*
D03*
X258858Y280512D02*
D03*
X258465Y313976D02*
D03*
Y319783D02*
D03*
Y353346D02*
D03*
X258858Y360236D02*
D03*
X223425Y432087D02*
D03*
X219488Y432344D02*
D03*
X172244Y490158D02*
D03*
X200787Y483465D02*
D03*
X225243Y494597D02*
D03*
X209145Y491207D02*
D03*
X211672Y442815D02*
D03*
X204724Y442913D02*
D03*
X425197Y448819D02*
D03*
Y425197D02*
D03*
Y413386D02*
D03*
X422244Y466535D02*
D03*
X419291Y448819D02*
D03*
X422244Y431102D02*
D03*
X419291Y425197D02*
D03*
X422244Y419291D02*
D03*
X419291Y413386D02*
D03*
X416338Y466535D02*
D03*
X413386Y448819D02*
D03*
X416338Y431102D02*
D03*
X413386Y425197D02*
D03*
X416338Y419291D02*
D03*
X413386Y413386D02*
D03*
X407480Y496063D02*
D03*
Y484252D02*
D03*
X410433Y466535D02*
D03*
X407480Y448819D02*
D03*
X410433Y431102D02*
D03*
X407480Y425197D02*
D03*
X410433Y419291D02*
D03*
X407480Y413386D02*
D03*
X410433Y407480D02*
D03*
X407480Y401575D02*
D03*
X401575Y496063D02*
D03*
X404527Y490157D02*
D03*
X401575Y484252D02*
D03*
X404527Y478346D02*
D03*
X401575Y472441D02*
D03*
X404527Y466535D02*
D03*
X401575Y448819D02*
D03*
X404527Y442913D02*
D03*
X401575Y437008D02*
D03*
X404527Y431102D02*
D03*
X401575Y425197D02*
D03*
X404527Y419291D02*
D03*
X401575Y413386D02*
D03*
X404527Y407480D02*
D03*
X401575Y401575D02*
D03*
X395669Y496063D02*
D03*
X398622Y490157D02*
D03*
X395669Y484252D02*
D03*
X398622Y478346D02*
D03*
X395669Y472441D02*
D03*
Y448819D02*
D03*
X398622Y442913D02*
D03*
X395669Y437008D02*
D03*
X398622Y431102D02*
D03*
X395669Y425197D02*
D03*
X398622Y419291D02*
D03*
X395669Y413386D02*
D03*
X398622Y407480D02*
D03*
X395669Y401575D02*
D03*
X389764Y496063D02*
D03*
X392716Y490157D02*
D03*
X389764Y484252D02*
D03*
X392716Y478346D02*
D03*
X389764Y472441D02*
D03*
Y448819D02*
D03*
X392716Y442913D02*
D03*
Y431102D02*
D03*
Y419291D02*
D03*
Y407480D02*
D03*
X383858Y496063D02*
D03*
X386811Y490157D02*
D03*
X383858Y484252D02*
D03*
X386811Y478346D02*
D03*
X383858Y472441D02*
D03*
X386811Y466535D02*
D03*
X383858Y460630D02*
D03*
X386811Y454724D02*
D03*
X383858Y448819D02*
D03*
X386811Y442913D02*
D03*
X377953Y496063D02*
D03*
X380905Y490157D02*
D03*
X377953Y484252D02*
D03*
X380905Y478346D02*
D03*
X377953Y472441D02*
D03*
X380905Y466535D02*
D03*
X377953Y460630D02*
D03*
X380905Y454724D02*
D03*
X377953Y448819D02*
D03*
X380905Y442913D02*
D03*
X372047Y496063D02*
D03*
X375000Y490157D02*
D03*
X372047Y484252D02*
D03*
X375000Y478346D02*
D03*
X372047Y472441D02*
D03*
X375000Y466535D02*
D03*
X372047Y460630D02*
D03*
X375000Y454724D02*
D03*
X372047Y448819D02*
D03*
X375000Y442913D02*
D03*
X366142Y496063D02*
D03*
X369094Y490157D02*
D03*
X366142Y484252D02*
D03*
X369094Y478346D02*
D03*
X366142Y472441D02*
D03*
X369094Y466535D02*
D03*
X366142Y460630D02*
D03*
X369094Y454724D02*
D03*
X366142Y448819D02*
D03*
X369094Y442913D02*
D03*
X360236Y496063D02*
D03*
X363189Y490157D02*
D03*
X360236Y484252D02*
D03*
X363189Y478346D02*
D03*
X360236Y472441D02*
D03*
X363189Y466535D02*
D03*
X360236Y460630D02*
D03*
X363189Y454724D02*
D03*
X360236Y448819D02*
D03*
X354331Y496063D02*
D03*
X357283Y490157D02*
D03*
X354331Y484252D02*
D03*
X357283Y478346D02*
D03*
X354331Y472441D02*
D03*
X357283Y466535D02*
D03*
X354331Y460630D02*
D03*
X357283Y454724D02*
D03*
X354331Y448819D02*
D03*
X348425Y496063D02*
D03*
X351378Y490157D02*
D03*
X348425Y484252D02*
D03*
X351378Y478346D02*
D03*
X348425Y472441D02*
D03*
X351378Y466535D02*
D03*
X348425Y460630D02*
D03*
X351378Y454724D02*
D03*
X348425Y448819D02*
D03*
X342520Y496063D02*
D03*
X345472Y490157D02*
D03*
X342520Y484252D02*
D03*
X345472Y478346D02*
D03*
X342520Y472441D02*
D03*
X345472Y466535D02*
D03*
X342520Y460630D02*
D03*
X345472Y454724D02*
D03*
X342520Y448819D02*
D03*
X384252Y420472D02*
D03*
X329134Y492520D02*
D03*
X314802Y491789D02*
D03*
X221654Y450000D02*
D03*
X253150Y424346D02*
D03*
X284252Y449213D02*
D03*
X292913Y428740D02*
D03*
X219349Y485039D02*
D03*
X224016Y462598D02*
D03*
X218841Y466590D02*
D03*
X234646Y485039D02*
D03*
X231890Y462205D02*
D03*
X234252Y449213D02*
D03*
X329921Y472667D02*
D03*
Y467667D02*
D03*
Y447667D02*
D03*
Y452667D02*
D03*
Y457667D02*
D03*
Y462667D02*
D03*
X281495Y419290D02*
D03*
X292520Y423228D02*
D03*
X273228Y429134D02*
D03*
Y438976D02*
D03*
X259449Y451181D02*
D03*
Y447244D02*
D03*
X284252Y436221D02*
D03*
X281496Y423622D02*
D03*
X253543Y433070D02*
D03*
X253994Y438976D02*
D03*
X259449Y439370D02*
D03*
X308661Y85433D02*
D03*
X307874Y126378D02*
D03*
X316535Y206693D02*
D03*
Y246850D02*
D03*
X317323Y286614D02*
D03*
X318110Y327559D02*
D03*
X320322Y366929D02*
D03*
X370488Y430638D02*
D03*
X358677D02*
D03*
X362614Y430876D02*
D03*
X366551Y430638D02*
D03*
X370472Y412008D02*
D03*
Y415945D02*
D03*
Y419882D02*
D03*
X296063Y448622D02*
D03*
Y444685D02*
D03*
Y436811D02*
D03*
Y440748D02*
D03*
X190305Y427362D02*
D03*
M02*
