G04*
G04 #@! TF.GenerationSoftware,Altium Limited,Altium Designer,19.0.15 (446)*
G04*
G04 Layer_Color=32768*
%FSLAX25Y25*%
%MOIN*%
G70*
G01*
G75*
%ADD13C,0.01000*%
%ADD82C,0.00197*%
D13*
X86614Y484055D02*
G03*
X85630Y485039I-984J0D01*
G01*
X86614Y43386D02*
G03*
X91614Y38386I5000J0D01*
G01*
X424134D02*
G03*
X429134Y43386I0J5000D01*
G01*
Y495000D02*
G03*
X424134Y500000I-5000J0D01*
G01*
X91614D02*
G03*
X86614Y495000I0J-5000D01*
G01*
X334646Y95472D02*
X338583D01*
Y63976D02*
Y95472D01*
X334646Y63976D02*
X338583D01*
X334646D02*
Y95472D01*
Y134843D02*
X338583D01*
Y103347D02*
Y134843D01*
X334646Y103347D02*
X338583D01*
X334646D02*
Y134843D01*
Y213583D02*
X338583D01*
Y182087D02*
Y213583D01*
X334646Y182087D02*
X338583D01*
X334646D02*
Y213583D01*
Y174213D02*
X338583D01*
Y142717D02*
Y174213D01*
X334646Y142717D02*
X338583D01*
X334646D02*
Y174213D01*
Y254921D02*
X338583D01*
Y223425D02*
Y254921D01*
X334646Y223425D02*
X338583D01*
X334646D02*
Y254921D01*
Y294291D02*
X338583D01*
Y262795D02*
Y294291D01*
X334646Y262795D02*
X338583D01*
X334646D02*
Y294291D01*
Y333661D02*
X338583D01*
Y302165D02*
Y333661D01*
X334646Y302165D02*
X338583D01*
X334646D02*
Y333661D01*
Y341535D02*
Y373031D01*
Y341535D02*
X338583D01*
Y373031D01*
X334646D02*
X338583D01*
X350394Y377116D02*
Y381890D01*
Y377116D02*
X405512D01*
Y364173D02*
Y377116D01*
Y364173D02*
X409449D01*
Y381890D01*
X350394D02*
X409449D01*
X106299Y377953D02*
Y385827D01*
Y377953D02*
X216535D01*
Y385827D01*
X106299D02*
X216535D01*
X86614Y43386D02*
Y484055D01*
X91614Y38386D02*
X424134D01*
X429134Y43386D02*
Y495000D01*
X91614Y500000D02*
X424134D01*
X86614Y414370D02*
Y495000D01*
D82*
X429134Y436093D02*
Y478415D01*
X429921Y488652D02*
X429134D01*
Y488258D01*
X429265Y488127D01*
X429396D01*
X429527Y488258D01*
Y488652D01*
Y488258D01*
X429659Y488127D01*
X429790D01*
X429921Y488258D01*
Y488652D01*
X429134Y487733D02*
Y487471D01*
X429265Y487340D01*
X429527D01*
X429659Y487471D01*
Y487733D01*
X429527Y487864D01*
X429265D01*
X429134Y487733D01*
X429659Y486946D02*
Y486684D01*
X429527Y486552D01*
X429134D01*
Y486946D01*
X429265Y487077D01*
X429396Y486946D01*
Y486552D01*
X429659Y486290D02*
X429134D01*
X429396D01*
X429527Y486159D01*
X429659Y486028D01*
Y485896D01*
X429921Y484978D02*
X429134D01*
Y485372D01*
X429265Y485503D01*
X429527D01*
X429659Y485372D01*
Y484978D01*
X429921Y483404D02*
Y483929D01*
X429134D01*
Y483404D01*
X429527Y483929D02*
Y483666D01*
X429921Y482617D02*
X429134D01*
Y483010D01*
X429265Y483142D01*
X429527D01*
X429659Y483010D01*
Y482617D01*
X428871Y482092D02*
Y481961D01*
X429003Y481830D01*
X429659D01*
Y482223D01*
X429527Y482354D01*
X429265D01*
X429134Y482223D01*
Y481830D01*
Y481174D02*
Y481436D01*
X429265Y481567D01*
X429527D01*
X429659Y481436D01*
Y481174D01*
X429527Y481042D01*
X429396D01*
Y481567D01*
M02*
