G04*
G04 #@! TF.GenerationSoftware,Altium Limited,Altium Designer,19.0.15 (446)*
G04*
G04 Layer_Color=8388736*
%FSLAX25Y25*%
%MOIN*%
G70*
G01*
G75*
%ADD40R,0.05918X0.04147*%
%ADD41R,0.03950X0.03162*%
%ADD42R,0.07099X0.03950*%
%ADD43O,0.07493X0.02178*%
%ADD44R,0.05918X0.06706*%
%ADD45R,0.06902X0.06115*%
%ADD46R,0.06115X0.06902*%
%ADD47R,0.05603X0.04402*%
%ADD48R,0.04627X0.03958*%
%ADD49R,0.04147X0.05918*%
%ADD50R,0.03162X0.03950*%
%ADD51R,0.10800X0.06706*%
%ADD52R,0.06706X0.04343*%
%ADD53O,0.02178X0.09068*%
%ADD54R,0.20485X0.04737*%
%ADD55R,0.20485X0.06312*%
%ADD56R,0.04402X0.05603*%
%ADD57R,0.07887X0.04737*%
%ADD58R,0.06312X0.04737*%
%ADD59R,0.06312X0.13595*%
%ADD60R,0.07493X0.04540*%
%ADD61R,0.07493X0.07493*%
%ADD62C,0.07493*%
%ADD63C,0.13792*%
%ADD64R,0.08871X0.08871*%
%ADD65C,0.08871*%
%ADD66C,0.06706*%
%ADD67R,0.05918X0.05918*%
%ADD68C,0.05918*%
%ADD69C,0.03950*%
D40*
X311811Y154921D02*
D03*
Y161614D02*
D03*
X364173Y158307D02*
D03*
Y151614D02*
D03*
X311811Y360433D02*
D03*
Y353740D02*
D03*
Y320669D02*
D03*
Y313976D02*
D03*
Y280709D02*
D03*
Y274016D02*
D03*
Y241142D02*
D03*
Y234449D02*
D03*
Y201378D02*
D03*
Y194685D02*
D03*
Y82087D02*
D03*
Y75394D02*
D03*
X364173Y357126D02*
D03*
Y350433D02*
D03*
Y317362D02*
D03*
Y310669D02*
D03*
Y277402D02*
D03*
Y270709D02*
D03*
Y237835D02*
D03*
Y231142D02*
D03*
Y198071D02*
D03*
Y191378D02*
D03*
Y78780D02*
D03*
Y72087D02*
D03*
X107874Y463189D02*
D03*
Y469882D02*
D03*
X311811Y122244D02*
D03*
Y115551D02*
D03*
X364173Y118937D02*
D03*
Y112244D02*
D03*
X240158Y191781D02*
D03*
Y185089D02*
D03*
X240065Y72490D02*
D03*
Y65797D02*
D03*
Y112254D02*
D03*
Y105561D02*
D03*
Y152018D02*
D03*
Y145325D02*
D03*
X240158Y271309D02*
D03*
Y264616D02*
D03*
X246850Y484842D02*
D03*
Y478150D02*
D03*
X254134Y484842D02*
D03*
Y478150D02*
D03*
X240158Y310925D02*
D03*
Y304232D02*
D03*
X240158Y350837D02*
D03*
Y344144D02*
D03*
X240158Y231545D02*
D03*
Y224852D02*
D03*
X196850Y409646D02*
D03*
Y402953D02*
D03*
X189764Y409646D02*
D03*
Y402953D02*
D03*
X289043Y402953D02*
D03*
Y409646D02*
D03*
D41*
X305118Y156299D02*
D03*
Y162008D02*
D03*
Y360827D02*
D03*
Y355118D02*
D03*
Y321063D02*
D03*
Y315354D02*
D03*
Y281102D02*
D03*
Y275394D02*
D03*
Y241535D02*
D03*
Y235827D02*
D03*
Y201772D02*
D03*
Y196063D02*
D03*
Y82480D02*
D03*
Y76772D02*
D03*
X114567Y462795D02*
D03*
Y468504D02*
D03*
X305118Y122638D02*
D03*
Y116929D02*
D03*
X247047Y465256D02*
D03*
Y470965D02*
D03*
X254331Y465256D02*
D03*
Y470965D02*
D03*
D42*
X324063Y477667D02*
D03*
Y472667D02*
D03*
Y467667D02*
D03*
Y447667D02*
D03*
Y452667D02*
D03*
Y457667D02*
D03*
Y462667D02*
D03*
Y482667D02*
D03*
Y487667D02*
D03*
Y492667D02*
D03*
D43*
X356102Y412697D02*
D03*
Y420374D02*
D03*
Y417815D02*
D03*
Y415256D02*
D03*
X289567Y443996D02*
D03*
Y438878D02*
D03*
Y441437D02*
D03*
Y446555D02*
D03*
X267126D02*
D03*
Y441437D02*
D03*
Y443996D02*
D03*
Y449114D02*
D03*
X378543Y402461D02*
D03*
Y405020D02*
D03*
Y407579D02*
D03*
Y410138D02*
D03*
Y412697D02*
D03*
Y415256D02*
D03*
Y417815D02*
D03*
Y420374D02*
D03*
X356102Y402461D02*
D03*
Y405020D02*
D03*
Y407579D02*
D03*
Y410138D02*
D03*
X289567Y431201D02*
D03*
Y433760D02*
D03*
Y436319D02*
D03*
Y449114D02*
D03*
X267126Y431201D02*
D03*
Y433760D02*
D03*
Y436319D02*
D03*
Y438878D02*
D03*
D44*
X356299Y153386D02*
D03*
Y163386D02*
D03*
X320079Y153386D02*
D03*
Y163386D02*
D03*
X356299Y352205D02*
D03*
Y362205D02*
D03*
X320079Y352205D02*
D03*
Y362205D02*
D03*
X356299Y312441D02*
D03*
Y322441D02*
D03*
X320079Y312441D02*
D03*
Y322441D02*
D03*
X356299Y272480D02*
D03*
Y282480D02*
D03*
X320079Y272480D02*
D03*
Y282480D02*
D03*
X356299Y232913D02*
D03*
Y242913D02*
D03*
X320079Y232913D02*
D03*
Y242913D02*
D03*
X356299Y193150D02*
D03*
Y203150D02*
D03*
X320079Y193150D02*
D03*
Y203150D02*
D03*
X356299Y73858D02*
D03*
Y83858D02*
D03*
X320079Y73858D02*
D03*
Y83858D02*
D03*
X356299Y114016D02*
D03*
Y124016D02*
D03*
X320079Y114016D02*
D03*
Y124016D02*
D03*
D45*
X154724Y431496D02*
D03*
Y439370D02*
D03*
X216577Y436024D02*
D03*
Y443898D02*
D03*
X227026Y436024D02*
D03*
Y443898D02*
D03*
D46*
X337795Y403543D02*
D03*
X345669D02*
D03*
X257480Y424016D02*
D03*
X265354D02*
D03*
X213386Y491339D02*
D03*
X221260D02*
D03*
D47*
X240158Y197146D02*
D03*
Y210039D02*
D03*
X240065Y77854D02*
D03*
Y90748D02*
D03*
Y117618D02*
D03*
Y130512D02*
D03*
Y157382D02*
D03*
Y170276D02*
D03*
X240158Y276673D02*
D03*
Y289567D02*
D03*
Y316289D02*
D03*
Y329183D02*
D03*
X240158Y356201D02*
D03*
Y369094D02*
D03*
X240158Y236910D02*
D03*
Y249803D02*
D03*
X139764Y390551D02*
D03*
Y403445D02*
D03*
D48*
X254468Y194537D02*
D03*
Y187057D02*
D03*
X247500Y190797D02*
D03*
X254376Y75246D02*
D03*
Y67766D02*
D03*
X247408Y71506D02*
D03*
X254376Y115010D02*
D03*
Y107529D02*
D03*
X247408Y111270D02*
D03*
X254376Y154774D02*
D03*
Y147293D02*
D03*
X247408Y151033D02*
D03*
X254468Y274065D02*
D03*
Y266585D02*
D03*
X247500Y270325D02*
D03*
X254468Y313681D02*
D03*
Y306201D02*
D03*
X247500Y309941D02*
D03*
X254468Y353592D02*
D03*
Y346112D02*
D03*
X247500Y349852D02*
D03*
X254468Y234301D02*
D03*
Y226821D02*
D03*
X247500Y230561D02*
D03*
D49*
X247638Y206545D02*
D03*
X254331D02*
D03*
X247546Y87254D02*
D03*
X254239D02*
D03*
X247546Y127018D02*
D03*
X254239D02*
D03*
X247546Y166781D02*
D03*
X254239D02*
D03*
X247638Y286073D02*
D03*
X254331D02*
D03*
X247638Y325689D02*
D03*
X254331D02*
D03*
X247638Y365600D02*
D03*
X254331D02*
D03*
X247638Y246309D02*
D03*
X254331D02*
D03*
X316289Y482972D02*
D03*
X309596D02*
D03*
X316289Y475787D02*
D03*
X309596D02*
D03*
D50*
X247146Y200640D02*
D03*
X252854D02*
D03*
X247054Y81348D02*
D03*
X252762D02*
D03*
X247054Y121112D02*
D03*
X252762D02*
D03*
X247054Y160876D02*
D03*
X252762D02*
D03*
X247146Y280167D02*
D03*
X252854D02*
D03*
X247146Y319783D02*
D03*
X252854D02*
D03*
X247146Y359695D02*
D03*
X252854D02*
D03*
X247146Y240404D02*
D03*
X252854D02*
D03*
X309350Y488583D02*
D03*
X315059D02*
D03*
X308957Y469685D02*
D03*
X314665D02*
D03*
D51*
X396701Y466565D02*
D03*
Y456762D02*
D03*
D52*
X185630Y440354D02*
D03*
Y427362D02*
D03*
X166339D02*
D03*
Y440354D02*
D03*
D53*
X234703Y478937D02*
D03*
X232144D02*
D03*
X229585D02*
D03*
X227026D02*
D03*
X224467D02*
D03*
X221908D02*
D03*
X219349D02*
D03*
X216790D02*
D03*
X214231D02*
D03*
X211672D02*
D03*
X234703Y456102D02*
D03*
X232144D02*
D03*
X229585D02*
D03*
X227026D02*
D03*
X224467D02*
D03*
X221908D02*
D03*
X219349D02*
D03*
X216790D02*
D03*
X214231D02*
D03*
X211672D02*
D03*
D54*
X419291Y456762D02*
D03*
D55*
Y473494D02*
D03*
Y440029D02*
D03*
D56*
X267569Y458268D02*
D03*
X280463D02*
D03*
D57*
X129134Y390945D02*
D03*
Y401968D02*
D03*
D58*
X155118Y465748D02*
D03*
Y474803D02*
D03*
Y483858D02*
D03*
D59*
X128347Y474803D02*
D03*
D60*
X166929Y461417D02*
D03*
Y472441D02*
D03*
Y489764D02*
D03*
Y478740D02*
D03*
D61*
X268465Y487795D02*
D03*
X228346Y188976D02*
D03*
X228254Y69685D02*
D03*
Y109449D02*
D03*
Y149213D02*
D03*
X228346Y268504D02*
D03*
Y308120D02*
D03*
X228346Y348031D02*
D03*
X228346Y228740D02*
D03*
D62*
X278465Y487795D02*
D03*
X288465D02*
D03*
X298465D02*
D03*
X155512Y207480D02*
D03*
X183071D02*
D03*
X228346D02*
D03*
X155420Y88189D02*
D03*
X182979D02*
D03*
X228254D02*
D03*
X155420Y127953D02*
D03*
X182979D02*
D03*
X228254D02*
D03*
X155420Y167717D02*
D03*
X182979D02*
D03*
X228254D02*
D03*
X155512Y287008D02*
D03*
X183071D02*
D03*
X228346D02*
D03*
X155512Y326624D02*
D03*
X183071D02*
D03*
X228346D02*
D03*
X155512Y366535D02*
D03*
X183071D02*
D03*
X228346D02*
D03*
X155512Y247244D02*
D03*
X183071D02*
D03*
X228346D02*
D03*
D63*
X295276Y377116D02*
D03*
Y59055D02*
D03*
Y139764D02*
D03*
Y218504D02*
D03*
Y297244D02*
D03*
X419291Y47244D02*
D03*
X96457D02*
D03*
Y399606D02*
D03*
X419291D02*
D03*
X96457Y490158D02*
D03*
X419291D02*
D03*
D64*
X389370Y148425D02*
D03*
Y347244D02*
D03*
Y307480D02*
D03*
Y267520D02*
D03*
Y227953D02*
D03*
Y188189D02*
D03*
Y68898D02*
D03*
Y109055D02*
D03*
X125984Y208661D02*
D03*
X125892Y89370D02*
D03*
Y129134D02*
D03*
Y168898D02*
D03*
X125984Y288189D02*
D03*
Y327805D02*
D03*
X125984Y367717D02*
D03*
X127165Y442913D02*
D03*
X125984Y248425D02*
D03*
D65*
X389370Y168110D02*
D03*
Y366929D02*
D03*
Y327165D02*
D03*
Y287205D02*
D03*
Y247638D02*
D03*
Y207874D02*
D03*
Y88583D02*
D03*
Y128740D02*
D03*
X125984Y188976D02*
D03*
X125892Y69685D02*
D03*
Y109449D02*
D03*
Y149213D02*
D03*
X125984Y268504D02*
D03*
Y308120D02*
D03*
X125984Y348031D02*
D03*
X127165Y423228D02*
D03*
X125984Y228740D02*
D03*
D66*
X280026Y91585D02*
D03*
X262309D02*
D03*
X280026Y65994D02*
D03*
X262309D02*
D03*
X280026Y131348D02*
D03*
X262309D02*
D03*
X280026Y105758D02*
D03*
X262309D02*
D03*
X280026Y171112D02*
D03*
X262309D02*
D03*
X280026Y145522D02*
D03*
X262309D02*
D03*
X280118Y210876D02*
D03*
X262402D02*
D03*
X280118Y185285D02*
D03*
X262402D02*
D03*
X280118Y250640D02*
D03*
X262402D02*
D03*
X280118Y225049D02*
D03*
X262402D02*
D03*
X280118Y290404D02*
D03*
X262402D02*
D03*
X280118Y264813D02*
D03*
X262402D02*
D03*
X280118Y330020D02*
D03*
X262402D02*
D03*
X280118Y304429D02*
D03*
X262402D02*
D03*
X280118Y369931D02*
D03*
X262402D02*
D03*
X280118Y344340D02*
D03*
X262402D02*
D03*
X280729Y391142D02*
D03*
Y408858D02*
D03*
X255138Y391142D02*
D03*
Y408858D02*
D03*
X230963Y391142D02*
D03*
Y408858D02*
D03*
X205373Y391142D02*
D03*
Y408858D02*
D03*
X181102Y391142D02*
D03*
Y408858D02*
D03*
X155512Y391142D02*
D03*
Y408858D02*
D03*
D67*
X185827Y486811D02*
D03*
D68*
Y476968D02*
D03*
D69*
X372046Y401574D02*
D03*
X361027Y402756D02*
D03*
X277559Y450073D02*
D03*
X261526Y428955D02*
D03*
X300451Y152559D02*
D03*
X311811Y164961D02*
D03*
X293701Y402756D02*
D03*
X270866Y464026D02*
D03*
X283464Y484645D02*
D03*
X227432Y487134D02*
D03*
M02*
