G04*
G04 #@! TF.GenerationSoftware,Altium Limited,Altium Designer,19.0.15 (446)*
G04*
G04 Layer_Color=16711935*
%FSLAX25Y25*%
%MOIN*%
G70*
G01*
G75*
%ADD13C,0.01000*%
D13*
X91614Y500000D02*
G03*
X86614Y495000I0J-5000D01*
G01*
Y43386D02*
G03*
X91614Y38386I5000J0D01*
G01*
X424134D02*
G03*
X429134Y43386I0J5000D01*
G01*
Y495000D02*
G03*
X424134Y500000I-5000J0D01*
G01*
X91614D02*
X95472D01*
X86614Y43386D02*
Y495000D01*
X91614Y38386D02*
X424134D01*
X429134Y43386D02*
Y495000D01*
X93504Y500000D02*
X424134D01*
X405512Y381890D02*
X409449D01*
Y362205D02*
Y381890D01*
X405512Y362205D02*
X409449D01*
X405512D02*
Y377116D01*
X334646Y64037D02*
Y92372D01*
Y64037D02*
X338583D01*
Y95118D01*
X334646D02*
X338583D01*
X334646Y92372D02*
Y95118D01*
Y103407D02*
Y131742D01*
Y103407D02*
X338583D01*
Y134488D01*
X334646D02*
X338583D01*
X334646Y131742D02*
Y134488D01*
Y142777D02*
Y171112D01*
Y142777D02*
X338583D01*
Y173858D01*
X334646D02*
X338583D01*
X334646Y171112D02*
Y173858D01*
Y182148D02*
Y210482D01*
Y182148D02*
X338583D01*
Y213228D01*
X334646D02*
X338583D01*
X334646Y210482D02*
Y213228D01*
Y223486D02*
Y251821D01*
Y223486D02*
X338583D01*
Y254566D01*
X334646D02*
X338583D01*
X334646Y251821D02*
Y254566D01*
Y262856D02*
Y291191D01*
Y262856D02*
X338583D01*
Y293936D01*
X334646D02*
X338583D01*
X334646Y291191D02*
Y293936D01*
Y302226D02*
Y330561D01*
Y302226D02*
X338583D01*
Y333307D01*
X334646D02*
X338583D01*
X334646Y330561D02*
Y333307D01*
Y369931D02*
Y372677D01*
X338583D01*
Y341596D02*
Y372677D01*
X334646Y341596D02*
X338583D01*
X334646D02*
Y369931D01*
X350394Y377116D02*
Y381890D01*
Y377116D02*
X405512D01*
X350394Y381890D02*
X405512D01*
X106299Y377953D02*
Y385827D01*
Y377953D02*
X216535D01*
Y385827D01*
X106299D02*
X216535D01*
M02*
