G04*
G04 #@! TF.GenerationSoftware,Altium Limited,Altium Designer,19.0.15 (446)*
G04*
G04 Layer_Color=32768*
%FSLAX25Y25*%
%MOIN*%
G70*
G01*
G75*
%ADD82C,0.00197*%
%ADD83C,0.00394*%
D82*
X198622Y481890D02*
G03*
X198622Y481890I-12795J0D01*
G01*
X308858Y152756D02*
Y163779D01*
X314764Y152756D02*
Y163779D01*
X308858Y152756D02*
X314764D01*
X308858Y163779D02*
X314764D01*
X303150Y154724D02*
Y163583D01*
Y154724D02*
X307087D01*
Y163583D01*
X303150D02*
X307087D01*
X263071Y475984D02*
X303858D01*
Y499606D01*
X263071D02*
X303858D01*
X263071Y475984D02*
Y499606D01*
X368898Y138189D02*
Y178347D01*
X411417Y138189D02*
Y178347D01*
X368898Y138189D02*
X411417D01*
X368898Y178347D02*
X411417D01*
X359252Y148937D02*
Y167835D01*
X317126Y148937D02*
Y167835D01*
Y148937D02*
X359252D01*
X317126Y167835D02*
X359252D01*
X361221Y160472D02*
X367126D01*
X361221Y149449D02*
X367126D01*
Y160472D01*
X361221Y149449D02*
Y160472D01*
X359252Y347756D02*
Y366653D01*
X317126Y347756D02*
Y366653D01*
Y347756D02*
X359252D01*
X317126Y366653D02*
X359252D01*
Y307992D02*
Y326890D01*
X317126Y307992D02*
Y326890D01*
Y307992D02*
X359252D01*
X317126Y326890D02*
X359252D01*
Y268032D02*
Y286929D01*
X317126Y268032D02*
Y286929D01*
Y268032D02*
X359252D01*
X317126Y286929D02*
X359252D01*
Y228465D02*
Y247362D01*
X317126Y228465D02*
Y247362D01*
Y228465D02*
X359252D01*
X317126Y247362D02*
X359252D01*
Y188701D02*
Y207598D01*
X317126Y188701D02*
Y207598D01*
Y188701D02*
X359252D01*
X317126Y207598D02*
X359252D01*
Y69410D02*
Y88307D01*
X317126Y69410D02*
Y88307D01*
Y69410D02*
X359252D01*
X317126Y88307D02*
X359252D01*
X308858Y362598D02*
X314764D01*
X308858Y351575D02*
X314764D01*
Y362598D01*
X308858Y351575D02*
Y362598D01*
Y322835D02*
X314764D01*
X308858Y311811D02*
X314764D01*
Y322835D01*
X308858Y311811D02*
Y322835D01*
Y282874D02*
X314764D01*
X308858Y271850D02*
X314764D01*
Y282874D01*
X308858Y271850D02*
Y282874D01*
Y243307D02*
X314764D01*
X308858Y232283D02*
X314764D01*
Y243307D01*
X308858Y232283D02*
Y243307D01*
Y203543D02*
X314764D01*
X308858Y192520D02*
X314764D01*
Y203543D01*
X308858Y192520D02*
Y203543D01*
Y84252D02*
X314764D01*
X308858Y73228D02*
X314764D01*
Y84252D01*
X308858Y73228D02*
Y84252D01*
X361221Y359291D02*
X367126D01*
X361221Y348268D02*
X367126D01*
Y359291D01*
X361221Y348268D02*
Y359291D01*
Y319528D02*
X367126D01*
X361221Y308504D02*
X367126D01*
Y319528D01*
X361221Y308504D02*
Y319528D01*
Y279567D02*
X367126D01*
X361221Y268543D02*
X367126D01*
Y279567D01*
X361221Y268543D02*
Y279567D01*
Y240000D02*
X367126D01*
X361221Y228976D02*
X367126D01*
Y240000D01*
X361221Y228976D02*
Y240000D01*
Y200236D02*
X367126D01*
X361221Y189213D02*
X367126D01*
Y200236D01*
X361221Y189213D02*
Y200236D01*
Y80945D02*
X367126D01*
X361221Y69921D02*
X367126D01*
Y80945D01*
X361221Y69921D02*
Y80945D01*
X368898Y337008D02*
Y377165D01*
X411417Y337008D02*
Y377165D01*
X368898Y337008D02*
X411417D01*
X368898Y377165D02*
X411417D01*
X368898Y297244D02*
Y337402D01*
X411417Y297244D02*
Y337402D01*
X368898Y297244D02*
X411417D01*
X368898Y337402D02*
X411417D01*
X368898Y257283D02*
Y297441D01*
X411417Y257283D02*
Y297441D01*
X368898Y257283D02*
X411417D01*
X368898Y297441D02*
X411417D01*
X368898Y217717D02*
Y257874D01*
X411417Y217717D02*
Y257874D01*
X368898Y217717D02*
X411417D01*
X368898Y257874D02*
X411417D01*
X368898Y177953D02*
Y218110D01*
X411417Y177953D02*
Y218110D01*
X368898Y177953D02*
X411417D01*
X368898Y218110D02*
X411417D01*
X368898Y58661D02*
Y98819D01*
X411417Y58661D02*
Y98819D01*
X368898Y58661D02*
X411417D01*
X368898Y98819D02*
X411417D01*
X303150Y362402D02*
X307087D01*
Y353543D02*
Y362402D01*
X303150Y353543D02*
X307087D01*
X303150D02*
Y362402D01*
Y322638D02*
X307087D01*
Y313779D02*
Y322638D01*
X303150Y313779D02*
X307087D01*
X303150D02*
Y322638D01*
Y282677D02*
X307087D01*
Y273819D02*
Y282677D01*
X303150Y273819D02*
X307087D01*
X303150D02*
Y282677D01*
Y243110D02*
X307087D01*
Y234252D02*
Y243110D01*
X303150Y234252D02*
X307087D01*
X303150D02*
Y243110D01*
Y203346D02*
X307087D01*
Y194488D02*
Y203346D01*
X303150Y194488D02*
X307087D01*
X303150D02*
Y203346D01*
Y84055D02*
X307087D01*
Y75197D02*
Y84055D01*
X303150Y75197D02*
X307087D01*
X303150D02*
Y84055D01*
X112598Y461221D02*
X116535D01*
X112598D02*
Y470079D01*
X116535D01*
Y461221D02*
Y470079D01*
X104921Y461024D02*
X110827D01*
X104921Y472047D02*
X110827D01*
X104921Y461024D02*
Y472047D01*
X110827Y461024D02*
Y472047D01*
X308858Y124409D02*
X314764D01*
X308858Y113386D02*
X314764D01*
Y124409D01*
X308858Y113386D02*
Y124409D01*
X149606Y426772D02*
X159843D01*
X149606Y444095D02*
X159843D01*
X149606Y426772D02*
Y444095D01*
X159843Y426772D02*
Y444095D01*
X333071Y398425D02*
Y408661D01*
X350394Y398425D02*
Y408661D01*
X333071D02*
X350394D01*
X333071Y398425D02*
X350394D01*
X252756Y418898D02*
Y429134D01*
X270079Y418898D02*
Y429134D01*
X252756D02*
X270079D01*
X252756Y418898D02*
X270079D01*
X359252Y109567D02*
Y128465D01*
X317126Y109567D02*
Y128465D01*
Y109567D02*
X359252D01*
X317126Y128465D02*
X359252D01*
X361221Y121102D02*
X367126D01*
X361221Y110079D02*
X367126D01*
Y121102D01*
X361221Y110079D02*
Y121102D01*
X368898Y98819D02*
Y138976D01*
X411417Y98819D02*
Y138976D01*
X368898Y98819D02*
X411417D01*
X368898Y138976D02*
X411417D01*
X303150Y124213D02*
X307087D01*
Y115354D02*
Y124213D01*
X303150Y115354D02*
X307087D01*
X303150D02*
Y124213D01*
X236614Y194951D02*
Y212234D01*
Y194951D02*
X243701D01*
X236614Y212234D02*
X243701D01*
Y194951D02*
Y212234D01*
X149705Y182776D02*
Y213287D01*
Y182776D02*
X234154D01*
X149705Y213287D02*
X234154D01*
Y182776D02*
Y213287D01*
X146457Y178740D02*
Y218898D01*
X103937Y178740D02*
Y218898D01*
X146457D01*
X103937Y178740D02*
X146457D01*
X237205Y193947D02*
X243110D01*
X237205Y182923D02*
X243110D01*
Y193947D01*
X237205Y182923D02*
Y193947D01*
X245193Y184655D02*
X256776D01*
X245193Y196939D02*
X256776D01*
Y184655D02*
Y196939D01*
X245193Y184655D02*
Y196939D01*
X245472Y203592D02*
Y209498D01*
X256496Y203592D02*
Y209498D01*
X245472D02*
X256496D01*
X245472Y203592D02*
X256496D01*
X245571Y198671D02*
Y202608D01*
X254429D01*
Y198671D02*
Y202608D01*
X245571Y198671D02*
X254429D01*
X245380Y84301D02*
Y90207D01*
X256404Y84301D02*
Y90207D01*
X245380D02*
X256404D01*
X245380Y84301D02*
X256404D01*
X245380Y124065D02*
Y129971D01*
X256404Y124065D02*
Y129971D01*
X245380D02*
X256404D01*
X245380Y124065D02*
X256404D01*
X245380Y163829D02*
Y169734D01*
X256404Y163829D02*
Y169734D01*
X245380D02*
X256404D01*
X245380Y163829D02*
X256404D01*
X237113Y74655D02*
X243018D01*
X237113Y63632D02*
X243018D01*
Y74655D01*
X237113Y63632D02*
Y74655D01*
Y114419D02*
X243018D01*
X237113Y103396D02*
X243018D01*
Y114419D01*
X237113Y103396D02*
Y114419D01*
Y154183D02*
X243018D01*
X237113Y143159D02*
X243018D01*
Y154183D01*
X237113Y143159D02*
Y154183D01*
X245101Y65364D02*
X256683D01*
X245101Y77648D02*
X256683D01*
Y65364D02*
Y77648D01*
X245101Y65364D02*
Y77648D01*
Y105128D02*
X256683D01*
X245101Y117411D02*
X256683D01*
Y105128D02*
Y117411D01*
X245101Y105128D02*
Y117411D01*
Y144892D02*
X256683D01*
X245101Y157175D02*
X256683D01*
Y144892D02*
Y157175D01*
X245101Y144892D02*
Y157175D01*
X146365Y59449D02*
Y99606D01*
X103845Y59449D02*
Y99606D01*
X146365D01*
X103845Y59449D02*
X146365D01*
Y99213D02*
Y139370D01*
X103845Y99213D02*
Y139370D01*
X146365D01*
X103845Y99213D02*
X146365D01*
Y138976D02*
Y179134D01*
X103845Y138976D02*
Y179134D01*
X146365D01*
X103845Y138976D02*
X146365D01*
X149613Y63484D02*
Y93996D01*
Y63484D02*
X234061D01*
X149613Y93996D02*
X234061D01*
Y63484D02*
Y93996D01*
X149613Y103248D02*
Y133760D01*
Y103248D02*
X234061D01*
X149613Y133760D02*
X234061D01*
Y103248D02*
Y133760D01*
X149613Y143012D02*
Y173524D01*
Y143012D02*
X234061D01*
X149613Y173524D02*
X234061D01*
Y143012D02*
Y173524D01*
X245479Y79380D02*
Y83317D01*
X254337D01*
Y79380D02*
Y83317D01*
X245479Y79380D02*
X254337D01*
X245479Y119144D02*
Y123081D01*
X254337D01*
Y119144D02*
Y123081D01*
X245479Y119144D02*
X254337D01*
X245479Y158907D02*
Y162845D01*
X254337D01*
Y158907D02*
Y162845D01*
X245479Y158907D02*
X254337D01*
X236522Y75660D02*
Y92943D01*
Y75660D02*
X243609D01*
X236522Y92943D02*
X243609D01*
Y75660D02*
Y92943D01*
X236522Y115423D02*
Y132707D01*
Y115423D02*
X243609D01*
X236522Y132707D02*
X243609D01*
Y115423D02*
Y132707D01*
X236522Y155187D02*
Y172470D01*
Y155187D02*
X243609D01*
X236522Y172470D02*
X243609D01*
Y155187D02*
Y172470D01*
X236614Y274478D02*
Y291762D01*
Y274478D02*
X243701D01*
X236614Y291762D02*
X243701D01*
Y274478D02*
Y291762D01*
X149705Y262303D02*
Y292815D01*
Y262303D02*
X234154D01*
X149705Y292815D02*
X234154D01*
Y262303D02*
Y292815D01*
X146457Y258268D02*
Y298425D01*
X103937Y258268D02*
Y298425D01*
X146457D01*
X103937Y258268D02*
X146457D01*
X237205Y273474D02*
X243110D01*
X237205Y262451D02*
X243110D01*
Y273474D01*
X237205Y262451D02*
Y273474D01*
X245193Y264183D02*
X256776D01*
X245193Y276466D02*
X256776D01*
Y264183D02*
Y276466D01*
X245193Y264183D02*
Y276466D01*
X245472Y283120D02*
Y289026D01*
X256496Y283120D02*
Y289026D01*
X245472D02*
X256496D01*
X245472Y283120D02*
X256496D01*
X245571Y278199D02*
Y282136D01*
X254429D01*
Y278199D02*
Y282136D01*
X245571Y278199D02*
X254429D01*
X382874Y400394D02*
Y422441D01*
X351772Y400394D02*
Y422441D01*
Y400394D02*
X382874D01*
X351772Y422441D02*
X382874D01*
X293898Y429134D02*
Y451181D01*
X262795Y429134D02*
Y451181D01*
Y429134D02*
X293898D01*
X262795Y451181D02*
X293898D01*
X243898Y487008D02*
X249803D01*
X243898Y475984D02*
X249803D01*
Y487008D01*
X243898Y475984D02*
Y487008D01*
X251181D02*
X257087D01*
X251181Y475984D02*
X257087D01*
Y487008D01*
X251181Y475984D02*
Y487008D01*
X245079Y463681D02*
X249016D01*
X245079D02*
Y472539D01*
X249016D01*
Y463681D02*
Y472539D01*
X252362Y463681D02*
X256299D01*
X252362D02*
Y472539D01*
X256299D01*
Y463681D02*
Y472539D01*
X245472Y322736D02*
Y328642D01*
X256496Y322736D02*
Y328642D01*
X245472D02*
X256496D01*
X245472Y322736D02*
X256496D01*
X245473Y362648D02*
Y368553D01*
X256496Y362648D02*
Y368553D01*
X245473D02*
X256496D01*
X245473Y362648D02*
X256496D01*
X237205Y313091D02*
X243110D01*
X237205Y302067D02*
X243110D01*
Y313091D01*
X237205Y302067D02*
Y313091D01*
X237205Y353002D02*
X243110D01*
X237205Y341978D02*
X243110D01*
Y353002D01*
X237205Y341978D02*
Y353002D01*
X245193Y303799D02*
X256776D01*
X245193Y316083D02*
X256776D01*
Y303799D02*
Y316083D01*
X245193Y303799D02*
Y316083D01*
X245193Y343711D02*
X256776D01*
X245193Y355994D02*
X256776D01*
Y343711D02*
Y355994D01*
X245193Y343711D02*
Y355994D01*
X146457Y297884D02*
Y338041D01*
X103937Y297884D02*
Y338041D01*
X146457D01*
X103937Y297884D02*
X146457D01*
X146457Y337795D02*
Y377953D01*
X103937Y337795D02*
Y377953D01*
X146457D01*
X103937Y337795D02*
X146457D01*
X149705Y301919D02*
Y332431D01*
Y301919D02*
X234154D01*
X149705Y332431D02*
X234154D01*
Y301919D02*
Y332431D01*
X149705Y341831D02*
Y372342D01*
Y341831D02*
X234154D01*
X149705Y372342D02*
X234154D01*
Y341831D02*
Y372342D01*
X245571Y317815D02*
Y321752D01*
X254429D01*
Y317815D02*
Y321752D01*
X245571Y317815D02*
X254429D01*
X245571Y357726D02*
Y361663D01*
X254429D01*
Y357726D02*
Y361663D01*
X245571Y357726D02*
X254429D01*
X236614Y314094D02*
Y331378D01*
Y314094D02*
X243701D01*
X236614Y331378D02*
X243701D01*
Y314094D02*
Y331378D01*
X236614Y354006D02*
Y371289D01*
Y354006D02*
X243701D01*
X236614Y371289D02*
X243701D01*
Y354006D02*
Y371289D01*
X147638Y412992D02*
Y453150D01*
X105118Y412992D02*
Y453150D01*
X147638D01*
X105118Y412992D02*
X147638D01*
X236614Y234715D02*
Y251998D01*
Y234715D02*
X243701D01*
X236614Y251998D02*
X243701D01*
Y234715D02*
Y251998D01*
X149705Y222539D02*
Y253051D01*
Y222539D02*
X234154D01*
X149705Y253051D02*
X234154D01*
Y222539D02*
Y253051D01*
X146457Y218504D02*
Y258661D01*
X103937Y218504D02*
Y258661D01*
X146457D01*
X103937Y218504D02*
X146457D01*
X237205Y233711D02*
X243110D01*
X237205Y222687D02*
X243110D01*
Y233711D01*
X237205Y222687D02*
Y233711D01*
X245193Y224419D02*
X256776D01*
X245193Y236703D02*
X256776D01*
Y224419D02*
Y236703D01*
X245193Y224419D02*
Y236703D01*
X245472Y243356D02*
Y249262D01*
X256496Y243356D02*
Y249262D01*
X245472D02*
X256496D01*
X245472Y243356D02*
X256496D01*
X245571Y238435D02*
Y242372D01*
X254429D01*
Y238435D02*
Y242372D01*
X245571Y238435D02*
X254429D01*
X162992Y423622D02*
X188976D01*
Y444095D01*
X162992D02*
X188976D01*
X162992Y423630D02*
Y444095D01*
X208227Y484941D02*
X238148D01*
X208227Y450098D02*
X238148D01*
Y484941D01*
X208227Y450098D02*
Y484941D01*
X211459Y431299D02*
X221696D01*
X211459Y448622D02*
X221696D01*
X211459Y431299D02*
Y448622D01*
X221696Y431299D02*
Y448622D01*
X221908Y431299D02*
X232144D01*
X221908Y448622D02*
X232144D01*
X221908Y431299D02*
Y448622D01*
X232144Y431299D02*
Y448622D01*
X208661Y486221D02*
Y496457D01*
X225984Y486221D02*
Y496457D01*
X208661D02*
X225984D01*
X208661Y486221D02*
X225984D01*
X466929Y436880D02*
Y476644D01*
X409055D02*
X466929D01*
X409055Y436880D02*
X466929D01*
X409055D02*
Y476644D01*
X318455Y480020D02*
Y485925D01*
X307431Y480020D02*
Y485925D01*
Y480020D02*
X318455D01*
X307431Y485925D02*
X318455D01*
Y472835D02*
Y478740D01*
X307431Y472835D02*
Y478740D01*
Y472835D02*
X318455D01*
X307431Y478740D02*
X318455D01*
X307776Y486614D02*
Y490551D01*
X316634D01*
Y486614D02*
Y490551D01*
X307776Y486614D02*
X316634D01*
X307382Y467717D02*
Y471654D01*
X316240D01*
Y467717D02*
Y471654D01*
X307382Y467717D02*
X316240D01*
X193898Y411811D02*
X199803D01*
X193898Y400787D02*
X199803D01*
Y411811D01*
X193898Y400787D02*
Y411811D01*
X265374Y461811D02*
X282658D01*
X265374Y454724D02*
Y461811D01*
X282658Y454724D02*
Y461811D01*
X265374Y454724D02*
X282658D01*
X186811Y411811D02*
X192717D01*
X186811Y400787D02*
X192717D01*
Y411811D01*
X186811Y400787D02*
Y411811D01*
X125197Y388583D02*
X133071D01*
Y404331D01*
X125197Y388583D02*
Y404331D01*
X133071D01*
X286090Y400787D02*
X291996D01*
X286090Y411811D02*
X291996D01*
X286090Y400787D02*
Y411811D01*
X291996Y400787D02*
Y411811D01*
X158858Y460630D02*
Y488976D01*
X124606Y460630D02*
Y488976D01*
Y460630D02*
X158858D01*
X124606Y488976D02*
X158858D01*
X163189Y459055D02*
X170669D01*
X163189Y474803D02*
X170669D01*
X163189Y459055D02*
Y474803D01*
X170669Y459055D02*
Y474803D01*
X163189Y492126D02*
X170669D01*
X163189Y476378D02*
X170669D01*
Y492126D01*
X163189Y476378D02*
Y492126D01*
X136221Y388356D02*
Y405640D01*
Y388356D02*
X143307D01*
X136221Y405640D02*
X143307D01*
Y388356D02*
Y405640D01*
D83*
X309842Y158268D02*
X313779D01*
X311811Y156299D02*
Y160236D01*
X305118Y158169D02*
Y160138D01*
X304134Y159153D02*
X306102D01*
X283465Y485827D02*
Y489764D01*
X281496Y487795D02*
X285433D01*
X387402Y158268D02*
X391339D01*
X389370Y156299D02*
Y160236D01*
X336221Y158386D02*
X340158D01*
X338189Y156417D02*
Y160354D01*
X364173Y152992D02*
Y156929D01*
X362205Y154961D02*
X366142D01*
X336221Y357205D02*
X340158D01*
X338189Y355236D02*
Y359173D01*
X336221Y317441D02*
X340158D01*
X338189Y315472D02*
Y319409D01*
X336221Y277480D02*
X340158D01*
X338189Y275512D02*
Y279449D01*
X336221Y237913D02*
X340158D01*
X338189Y235945D02*
Y239882D01*
X336221Y198150D02*
X340158D01*
X338189Y196181D02*
Y200118D01*
X336221Y78858D02*
X340158D01*
X338189Y76890D02*
Y80827D01*
X311811Y355118D02*
Y359055D01*
X309842Y357087D02*
X313779D01*
X311811Y315354D02*
Y319291D01*
X309842Y317323D02*
X313779D01*
X311811Y275394D02*
Y279331D01*
X309842Y277362D02*
X313779D01*
X311811Y235827D02*
Y239764D01*
X309842Y237795D02*
X313779D01*
X311811Y196063D02*
Y200000D01*
X309842Y198031D02*
X313779D01*
X311811Y76772D02*
Y80709D01*
X309842Y78740D02*
X313779D01*
X364173Y351811D02*
Y355748D01*
X362205Y353780D02*
X366142D01*
X364173Y312047D02*
Y315984D01*
X362205Y314016D02*
X366142D01*
X364173Y272087D02*
Y276024D01*
X362205Y274055D02*
X366142D01*
X364173Y232520D02*
Y236457D01*
X362205Y234488D02*
X366142D01*
X364173Y192756D02*
Y196693D01*
X362205Y194724D02*
X366142D01*
X364173Y73465D02*
Y77402D01*
X362205Y75433D02*
X366142D01*
X387402Y357087D02*
X391339D01*
X389370Y355118D02*
Y359055D01*
X387402Y317323D02*
X391339D01*
X389370Y315354D02*
Y319291D01*
X387402Y277362D02*
X391339D01*
X389370Y275394D02*
Y279331D01*
X387402Y237795D02*
X391339D01*
X389370Y235827D02*
Y239764D01*
X387402Y198031D02*
X391339D01*
X389370Y196063D02*
Y200000D01*
X387402Y78740D02*
X391339D01*
X389370Y76772D02*
Y80709D01*
X304134Y357972D02*
X306102D01*
X305118Y356988D02*
Y358957D01*
X304134Y318209D02*
X306102D01*
X305118Y317224D02*
Y319193D01*
X304134Y278248D02*
X306102D01*
X305118Y277264D02*
Y279232D01*
X304134Y238681D02*
X306102D01*
X305118Y237697D02*
Y239665D01*
X304134Y198917D02*
X306102D01*
X305118Y197933D02*
Y199902D01*
X304134Y79626D02*
X306102D01*
X305118Y78642D02*
Y80610D01*
X113583Y465650D02*
X115551D01*
X114567Y464665D02*
Y466634D01*
X107874Y464567D02*
Y468504D01*
X105905Y466535D02*
X109843D01*
X311811Y116929D02*
Y120866D01*
X309842Y118898D02*
X313779D01*
X154724Y433465D02*
Y437402D01*
X152756Y435433D02*
X156693D01*
X339764Y403543D02*
X343701D01*
X341732Y401575D02*
Y405512D01*
X259449Y424016D02*
X263386D01*
X261417Y422047D02*
Y425984D01*
X336221Y119016D02*
X340158D01*
X338189Y117047D02*
Y120984D01*
X364173Y113622D02*
Y117559D01*
X362205Y115591D02*
X366142D01*
X387402Y118898D02*
X391339D01*
X389370Y116929D02*
Y120866D01*
X304134Y119783D02*
X306102D01*
X305118Y118799D02*
Y120768D01*
X238189Y203592D02*
X242126D01*
X240158Y201624D02*
Y205561D01*
X124016Y198819D02*
X127953D01*
X125984Y196850D02*
Y200787D01*
X240158Y186467D02*
Y190403D01*
X238189Y188435D02*
X242126D01*
X250984Y188829D02*
Y192766D01*
X249016Y190797D02*
X252953D01*
X249016Y206545D02*
X252953D01*
X250984Y204577D02*
Y208514D01*
X250000Y199655D02*
Y201624D01*
X249016Y200640D02*
X250984D01*
X248924Y87254D02*
X252861D01*
X250892Y85285D02*
Y89223D01*
X248924Y127018D02*
X252861D01*
X250892Y125049D02*
Y128986D01*
X248924Y166781D02*
X252861D01*
X250892Y164813D02*
Y168750D01*
X240065Y67175D02*
Y71112D01*
X238097Y69144D02*
X242034D01*
X240065Y106939D02*
Y110876D01*
X238097Y108907D02*
X242034D01*
X240065Y146703D02*
Y150640D01*
X238097Y148671D02*
X242034D01*
X250892Y69537D02*
Y73474D01*
X248924Y71506D02*
X252861D01*
X250892Y109301D02*
Y113238D01*
X248924Y111270D02*
X252861D01*
X250892Y149065D02*
Y153002D01*
X248924Y151033D02*
X252861D01*
X123924Y79527D02*
X127861D01*
X125892Y77559D02*
Y81496D01*
X123924Y119291D02*
X127861D01*
X125892Y117323D02*
Y121260D01*
X123924Y159055D02*
X127861D01*
X125892Y157087D02*
Y161024D01*
X249908Y80364D02*
Y82333D01*
X248924Y81348D02*
X250892D01*
X249908Y120128D02*
Y122097D01*
X248924Y121112D02*
X250892D01*
X249908Y159892D02*
Y161860D01*
X248924Y160876D02*
X250892D01*
X238097Y84301D02*
X242034D01*
X240065Y82333D02*
Y86270D01*
X238097Y124065D02*
X242034D01*
X240065Y122097D02*
Y126033D01*
X238097Y163829D02*
X242034D01*
X240065Y161860D02*
Y165797D01*
X238189Y283120D02*
X242126D01*
X240158Y281152D02*
Y285089D01*
X124016Y278346D02*
X127953D01*
X125984Y276378D02*
Y280315D01*
X240158Y265994D02*
Y269931D01*
X238189Y267963D02*
X242126D01*
X250984Y268356D02*
Y272293D01*
X249016Y270325D02*
X252953D01*
X249016Y286073D02*
X252953D01*
X250984Y284104D02*
Y288041D01*
X250000Y279183D02*
Y281152D01*
X249016Y280167D02*
X250984D01*
X365354Y411417D02*
X369291D01*
X367323Y409449D02*
Y413386D01*
X276378Y440158D02*
X280315D01*
X278346Y438189D02*
Y442126D01*
X246850Y479528D02*
Y483465D01*
X244882Y481496D02*
X248819D01*
X254134Y479528D02*
Y483465D01*
X252165Y481496D02*
X256102D01*
X246063Y468110D02*
X248031D01*
X247047Y467126D02*
Y469095D01*
X253346Y468110D02*
X255315D01*
X254331Y467126D02*
Y469095D01*
X249016Y325689D02*
X252953D01*
X250984Y323721D02*
Y327658D01*
X249016Y365600D02*
X252953D01*
X250984Y363632D02*
Y367569D01*
X240158Y305610D02*
Y309547D01*
X238189Y307579D02*
X242126D01*
X240158Y345522D02*
Y349459D01*
X238189Y347490D02*
X242126D01*
X250984Y307972D02*
Y311910D01*
X249016Y309941D02*
X252953D01*
X250984Y347884D02*
Y351821D01*
X249016Y349852D02*
X252953D01*
X124016Y317963D02*
X127953D01*
X125984Y315994D02*
Y319931D01*
X124016Y357874D02*
X127953D01*
X125984Y355906D02*
Y359842D01*
X250000Y318799D02*
Y320768D01*
X249016Y319783D02*
X250984D01*
X250000Y358711D02*
Y360679D01*
X249016Y359695D02*
X250984D01*
X238189Y322736D02*
X242126D01*
X240158Y320768D02*
Y324705D01*
X238189Y362648D02*
X242126D01*
X240158Y360679D02*
Y364616D01*
X125197Y433071D02*
X129134D01*
X127165Y431102D02*
Y435039D01*
X238189Y243356D02*
X242126D01*
X240158Y241388D02*
Y245325D01*
X124016Y238583D02*
X127953D01*
X125984Y236614D02*
Y240551D01*
X240158Y226230D02*
Y230167D01*
X238189Y228199D02*
X242126D01*
X250984Y228592D02*
Y232529D01*
X249016Y230561D02*
X252953D01*
X249016Y246309D02*
X252953D01*
X250984Y244341D02*
Y248278D01*
X250000Y239419D02*
Y241388D01*
X249016Y240404D02*
X250984D01*
X174016Y433858D02*
X177953D01*
X175984Y431890D02*
Y435827D01*
X223188Y465551D02*
Y469488D01*
X221219Y467520D02*
X225156D01*
X216577Y437992D02*
Y441929D01*
X214609Y439961D02*
X218546D01*
X227026Y437992D02*
Y441929D01*
X225058Y439961D02*
X228995D01*
X215354Y491339D02*
X219291D01*
X217323Y489370D02*
Y493307D01*
X429134Y454793D02*
Y458730D01*
X427165Y456762D02*
X431102D01*
X310974Y482972D02*
X314911D01*
X312943Y481004D02*
Y484941D01*
X310974Y475787D02*
X314911D01*
X312943Y473819D02*
Y477756D01*
X312205Y487598D02*
Y489567D01*
X311221Y488583D02*
X313189D01*
X311811Y468701D02*
Y470669D01*
X310827Y469685D02*
X312795D01*
X196850Y404331D02*
Y408268D01*
X194882Y406299D02*
X198819D01*
X274016Y456299D02*
Y460236D01*
X272047Y458268D02*
X275984D01*
X189764Y404331D02*
Y408268D01*
X187795Y406299D02*
X191732D01*
X127165Y396457D02*
X131102D01*
X129134Y394488D02*
Y398425D01*
X289043Y404331D02*
Y408268D01*
X287075Y406299D02*
X291012D01*
X139764Y474803D02*
X143701D01*
X141732Y472835D02*
Y476772D01*
X166929Y464961D02*
Y468898D01*
X164961Y466929D02*
X168898D01*
X166929Y482283D02*
Y486221D01*
X164961Y484252D02*
X168898D01*
X137795Y396998D02*
X141732D01*
X139764Y395029D02*
Y398967D01*
X185827Y479921D02*
Y483858D01*
X183858Y481890D02*
X187795D01*
M02*
