G04*
G04 #@! TF.GenerationSoftware,Altium Limited,Altium Designer,19.0.15 (446)*
G04*
G04 Layer_Physical_Order=1*
G04 Layer_Color=255*
%FSLAX25Y25*%
%MOIN*%
G70*
G01*
G75*
%ADD12C,0.01000*%
%ADD15R,0.02953X0.09449*%
%ADD16R,0.03347X0.05118*%
%ADD26C,0.06102*%
%ADD27R,0.06102X0.06102*%
%ADD28C,0.05906*%
%ADD29C,0.06299*%
%ADD30R,0.06299X0.06299*%
%ADD31C,0.12992*%
%ADD32C,0.05000*%
G36*
X456693Y433071D02*
X220472D01*
Y439304D01*
X220972Y439474D01*
X221450Y438851D01*
X222317Y438186D01*
X223326Y437768D01*
X223909Y437691D01*
Y441811D01*
Y445931D01*
X223326Y445854D01*
X222317Y445436D01*
X221450Y444771D01*
X220972Y444148D01*
X220472Y444318D01*
Y449304D01*
X220972Y449474D01*
X221450Y448851D01*
X222317Y448186D01*
X223326Y447768D01*
X224410Y447626D01*
X225493Y447768D01*
X226502Y448186D01*
X227369Y448851D01*
X228034Y449718D01*
X228452Y450728D01*
X228595Y451811D01*
X228452Y452894D01*
X228034Y453904D01*
X227369Y454771D01*
X226502Y455436D01*
X225493Y455854D01*
X224410Y455996D01*
X223326Y455854D01*
X222317Y455436D01*
X221450Y454771D01*
X220972Y454148D01*
X220472Y454318D01*
Y459304D01*
X220972Y459474D01*
X221450Y458851D01*
X222317Y458186D01*
X223326Y457768D01*
X224410Y457626D01*
X225493Y457768D01*
X226502Y458186D01*
X227369Y458851D01*
X228034Y459718D01*
X228452Y460728D01*
X228595Y461811D01*
X228452Y462894D01*
X228034Y463904D01*
X227369Y464771D01*
X226502Y465436D01*
X225493Y465854D01*
X224410Y465996D01*
X223326Y465854D01*
X222317Y465436D01*
X221450Y464771D01*
X220972Y464148D01*
X220472Y464318D01*
Y469304D01*
X220972Y469474D01*
X221450Y468852D01*
X222317Y468186D01*
X223326Y467768D01*
X224410Y467626D01*
X225493Y467768D01*
X226502Y468186D01*
X227369Y468852D01*
X228034Y469718D01*
X228452Y470728D01*
X228595Y471811D01*
X228452Y472894D01*
X228034Y473904D01*
X227369Y474771D01*
X226502Y475436D01*
X225493Y475854D01*
X224410Y475996D01*
X223326Y475854D01*
X222763Y475621D01*
X221289Y477094D01*
Y478344D01*
X221789Y478591D01*
X222317Y478186D01*
X223326Y477768D01*
X224410Y477626D01*
X225493Y477768D01*
X226502Y478186D01*
X227369Y478852D01*
X228034Y479718D01*
X228268Y480282D01*
X269384D01*
Y479752D01*
X269413Y479604D01*
Y478252D01*
X270766D01*
X270913Y478223D01*
X271061Y478252D01*
X274760D01*
Y485370D01*
X269413D01*
Y483340D01*
X228268D01*
X228034Y483904D01*
X227369Y484771D01*
X226898Y485132D01*
X227068Y485632D01*
X239445D01*
X240030Y485748D01*
X240526Y486080D01*
X244728Y490282D01*
X269413D01*
Y488252D01*
X274760D01*
Y495370D01*
X269413D01*
Y493340D01*
X244094D01*
X243509Y493224D01*
X243013Y492893D01*
X238811Y488691D01*
X228559D01*
Y495961D01*
X220472D01*
Y500000D01*
X456693D01*
Y433071D01*
D02*
G37*
%LPC*%
G36*
X401587Y495996D02*
X400503Y495854D01*
X399494Y495436D01*
X398627Y494771D01*
X397962Y493904D01*
X397544Y492894D01*
X397401Y491811D01*
X397544Y490728D01*
X397962Y489718D01*
X398627Y488851D01*
X399494Y488186D01*
X400503Y487768D01*
X401587Y487626D01*
X402670Y487768D01*
X403679Y488186D01*
X404546Y488851D01*
X405211Y489718D01*
X405629Y490728D01*
X405772Y491811D01*
X405629Y492894D01*
X405211Y493904D01*
X404546Y494771D01*
X403679Y495436D01*
X402670Y495854D01*
X401587Y495996D01*
D02*
G37*
G36*
X281453Y495370D02*
X276106D01*
Y488252D01*
X281453D01*
Y490282D01*
X282300D01*
X289352Y483230D01*
X289848Y482898D01*
X290433Y482782D01*
X389778D01*
X389876Y482546D01*
X390073Y482289D01*
X389852Y481840D01*
X281453D01*
Y485370D01*
X276106D01*
Y478252D01*
X281453D01*
Y478782D01*
X398653D01*
X398705Y478792D01*
X399494Y478186D01*
X400503Y477768D01*
X401587Y477626D01*
X402670Y477768D01*
X403679Y478186D01*
X404546Y478852D01*
X405211Y479718D01*
X405445Y480282D01*
X420175D01*
X420760Y480398D01*
X421257Y480730D01*
X423250Y482723D01*
X440311D01*
X440625Y482409D01*
X440633Y482318D01*
X440304Y481906D01*
X440099Y481906D01*
X436047D01*
X435595Y481906D01*
X435094Y481906D01*
X430594D01*
Y481906D01*
X430547D01*
Y481906D01*
X428571D01*
Y476181D01*
X428071D01*
Y475681D01*
X425595D01*
Y471448D01*
X419333D01*
X417888Y472893D01*
X417392Y473224D01*
X416806Y473340D01*
X405445D01*
X405211Y473904D01*
X404546Y474771D01*
X403679Y475436D01*
X402670Y475854D01*
X401587Y475996D01*
X400503Y475854D01*
X399494Y475436D01*
X398627Y474771D01*
X397962Y473904D01*
X397544Y472894D01*
X397401Y471811D01*
X397544Y470728D01*
X397962Y469718D01*
X398627Y468852D01*
X399494Y468186D01*
X400503Y467768D01*
X401587Y467626D01*
X402670Y467768D01*
X403679Y468186D01*
X404546Y468852D01*
X405211Y469718D01*
X405445Y470282D01*
X416173D01*
X417618Y468837D01*
X418114Y468505D01*
X418699Y468389D01*
X432485D01*
X433070Y468505D01*
X433567Y468837D01*
X434152Y469422D01*
X434484Y469919D01*
X434591Y470457D01*
X435547Y470457D01*
X436047Y470457D01*
X439656D01*
X440004Y470004D01*
X440735Y469443D01*
X441586Y469090D01*
X442500Y468970D01*
X443414Y469090D01*
X444265Y469443D01*
X444522Y469640D01*
X444971Y469419D01*
Y466912D01*
X443663Y465604D01*
X440547D01*
Y466551D01*
X436047D01*
X435595Y466551D01*
X435094Y466551D01*
X430594D01*
Y466551D01*
X430547D01*
Y466551D01*
X425595D01*
Y456613D01*
X425219Y456283D01*
X425197Y456286D01*
X424283Y456166D01*
X423432Y455813D01*
X422701Y455252D01*
X422140Y454521D01*
X421787Y453670D01*
X421667Y452756D01*
X421787Y451842D01*
X422140Y450991D01*
X422337Y450734D01*
X422116Y450285D01*
X419426D01*
X407318Y462393D01*
X406821Y462725D01*
X406236Y462841D01*
X405636D01*
X405629Y462894D01*
X405211Y463904D01*
X404546Y464771D01*
X403679Y465436D01*
X402670Y465854D01*
X401587Y465996D01*
X400503Y465854D01*
X399494Y465436D01*
X398627Y464771D01*
X397962Y463904D01*
X397729Y463340D01*
X370433D01*
X369848Y463224D01*
X369352Y462892D01*
X349800Y443340D01*
X341873D01*
X341681Y443804D01*
X341048Y444630D01*
X340222Y445264D01*
X339260Y445662D01*
X338228Y445798D01*
X337196Y445662D01*
X336235Y445264D01*
X335409Y444630D01*
X334776Y443804D01*
X334377Y442843D01*
X334242Y441811D01*
X334377Y440779D01*
X334776Y439818D01*
X335409Y438992D01*
X336235Y438358D01*
X337196Y437960D01*
X338228Y437824D01*
X339260Y437960D01*
X340222Y438358D01*
X341048Y438992D01*
X341681Y439818D01*
X341873Y440282D01*
X350433D01*
X351018Y440398D01*
X351515Y440730D01*
X371067Y460282D01*
X397729D01*
X397962Y459718D01*
X398627Y458851D01*
X399494Y458186D01*
X400503Y457768D01*
X401587Y457626D01*
X402670Y457768D01*
X403679Y458186D01*
X404546Y458851D01*
X405158Y459649D01*
X405600Y459692D01*
X405700Y459685D01*
X417711Y447675D01*
X418207Y447343D01*
X418792Y447226D01*
X428008D01*
X428593Y447343D01*
X429089Y447675D01*
X434152Y452738D01*
X434484Y453234D01*
X434600Y453819D01*
Y454749D01*
X434954Y455102D01*
X435547Y455102D01*
X436047Y455102D01*
X440547D01*
Y462545D01*
X444296D01*
X444881Y462662D01*
X445377Y462993D01*
X447581Y465197D01*
X447913Y465693D01*
X448029Y466279D01*
Y478697D01*
X447913Y479282D01*
X447581Y479778D01*
X442026Y485333D01*
X441530Y485665D01*
X440945Y485781D01*
X422616D01*
X422031Y485665D01*
X421535Y485333D01*
X419542Y483340D01*
X405445D01*
X405211Y483904D01*
X404546Y484771D01*
X403679Y485436D01*
X402670Y485854D01*
X401587Y485996D01*
X400503Y485854D01*
X399494Y485436D01*
X398627Y484771D01*
X397962Y483904D01*
X397544Y482894D01*
X397405Y481840D01*
X396014D01*
X395793Y482289D01*
X395990Y482546D01*
X396343Y483397D01*
X396463Y484311D01*
X396343Y485225D01*
X395990Y486076D01*
X395429Y486807D01*
X394698Y487368D01*
X393847Y487721D01*
X392933Y487841D01*
X392019Y487721D01*
X391168Y487368D01*
X390437Y486807D01*
X389876Y486076D01*
X389778Y485840D01*
X340738D01*
X340568Y486340D01*
X341048Y486708D01*
X341681Y487534D01*
X342079Y488496D01*
X342215Y489528D01*
X342079Y490559D01*
X341681Y491521D01*
X341048Y492347D01*
X340222Y492980D01*
X339260Y493379D01*
X338228Y493514D01*
X337196Y493379D01*
X336235Y492980D01*
X335409Y492347D01*
X334776Y491521D01*
X334377Y490559D01*
X334242Y489528D01*
X334377Y488496D01*
X334776Y487534D01*
X335409Y486708D01*
X335889Y486340D01*
X335719Y485840D01*
X315147D01*
X314977Y486340D01*
X315457Y486708D01*
X316090Y487534D01*
X316489Y488496D01*
X316625Y489528D01*
X316489Y490559D01*
X316090Y491521D01*
X315457Y492347D01*
X314631Y492980D01*
X313670Y493379D01*
X312638Y493514D01*
X311606Y493379D01*
X310644Y492980D01*
X309819Y492347D01*
X309185Y491521D01*
X308787Y490559D01*
X308651Y489528D01*
X308787Y488496D01*
X309185Y487534D01*
X309819Y486708D01*
X310298Y486340D01*
X310128Y485840D01*
X291067D01*
X284015Y492893D01*
X283518Y493224D01*
X282933Y493340D01*
X281453D01*
Y495370D01*
D02*
G37*
G36*
X427571Y481906D02*
X425595D01*
Y476681D01*
X427571D01*
Y481906D01*
D02*
G37*
G36*
X338228Y475798D02*
X337196Y475662D01*
X336235Y475264D01*
X335409Y474630D01*
X334776Y473804D01*
X334377Y472843D01*
X334242Y471811D01*
X334377Y470779D01*
X334776Y469818D01*
X335409Y468992D01*
X336235Y468358D01*
X337196Y467960D01*
X338228Y467824D01*
X339260Y467960D01*
X340222Y468358D01*
X341048Y468992D01*
X341681Y469818D01*
X342079Y470779D01*
X342215Y471811D01*
X342079Y472843D01*
X341681Y473804D01*
X341048Y474630D01*
X340222Y475264D01*
X339260Y475662D01*
X338228Y475798D01*
D02*
G37*
G36*
X312638D02*
X311606Y475662D01*
X310644Y475264D01*
X309819Y474630D01*
X309185Y473804D01*
X308787Y472843D01*
X308651Y471811D01*
X308787Y470779D01*
X309185Y469818D01*
X309819Y468992D01*
X310644Y468358D01*
X311606Y467960D01*
X312638Y467824D01*
X313670Y467960D01*
X314631Y468358D01*
X315457Y468992D01*
X316090Y469818D01*
X316489Y470779D01*
X316625Y471811D01*
X316489Y472843D01*
X316090Y473804D01*
X315457Y474630D01*
X314631Y475264D01*
X313670Y475662D01*
X312638Y475798D01*
D02*
G37*
G36*
X255933Y465831D02*
Y462311D01*
X259453D01*
X259380Y462869D01*
X258972Y463854D01*
X258322Y464700D01*
X257476Y465350D01*
X256491Y465758D01*
X255933Y465831D01*
D02*
G37*
G36*
X254933Y465831D02*
X254376Y465758D01*
X253390Y465350D01*
X252544Y464700D01*
X251894Y463854D01*
X251486Y462869D01*
X251413Y462311D01*
X254933D01*
Y465831D01*
D02*
G37*
G36*
X313138Y463449D02*
Y460028D01*
X316559D01*
X316489Y460559D01*
X316090Y461521D01*
X315457Y462347D01*
X314631Y462980D01*
X313670Y463379D01*
X313138Y463449D01*
D02*
G37*
G36*
X312138D02*
X311606Y463379D01*
X310644Y462980D01*
X309819Y462347D01*
X309185Y461521D01*
X308787Y460559D01*
X308717Y460028D01*
X312138D01*
Y463449D01*
D02*
G37*
G36*
X259453Y461311D02*
X255933D01*
Y457791D01*
X256491Y457864D01*
X257476Y458272D01*
X258322Y458922D01*
X258972Y459768D01*
X259380Y460753D01*
X259453Y461311D01*
D02*
G37*
G36*
X254933D02*
X251413D01*
X251486Y460753D01*
X251894Y459768D01*
X252544Y458922D01*
X253390Y458272D01*
X254376Y457864D01*
X254933Y457791D01*
Y461311D01*
D02*
G37*
G36*
X316559Y459028D02*
X313138D01*
Y455607D01*
X313670Y455677D01*
X314631Y456075D01*
X315457Y456708D01*
X316090Y457534D01*
X316489Y458496D01*
X316559Y459028D01*
D02*
G37*
G36*
X312138D02*
X308717D01*
X308787Y458496D01*
X309185Y457534D01*
X309819Y456708D01*
X310644Y456075D01*
X311606Y455677D01*
X312138Y455607D01*
Y459028D01*
D02*
G37*
G36*
X338228Y463514D02*
X337196Y463379D01*
X336235Y462980D01*
X335409Y462347D01*
X334776Y461521D01*
X334377Y460559D01*
X334242Y459528D01*
X334377Y458496D01*
X334776Y457534D01*
X335409Y456708D01*
X336235Y456075D01*
X337196Y455677D01*
X338228Y455541D01*
X339260Y455677D01*
X340222Y456075D01*
X341048Y456708D01*
X341681Y457534D01*
X342079Y458496D01*
X342215Y459528D01*
X342079Y460559D01*
X341681Y461521D01*
X341048Y462347D01*
X340222Y462980D01*
X339260Y463379D01*
X338228Y463514D01*
D02*
G37*
G36*
X402087Y455931D02*
Y452311D01*
X405706D01*
X405629Y452894D01*
X405211Y453904D01*
X404546Y454771D01*
X403679Y455436D01*
X402670Y455854D01*
X402087Y455931D01*
D02*
G37*
G36*
X401087Y455931D02*
X400503Y455854D01*
X399494Y455436D01*
X398627Y454771D01*
X397962Y453904D01*
X397544Y452894D01*
X397467Y452311D01*
X401087D01*
Y455931D01*
D02*
G37*
G36*
X255433Y455897D02*
X254376Y455758D01*
X253390Y455350D01*
X252544Y454700D01*
X251894Y453854D01*
X251486Y452869D01*
X251347Y451811D01*
X251486Y450753D01*
X251894Y449768D01*
X252544Y448922D01*
X253390Y448272D01*
X254376Y447864D01*
X255433Y447725D01*
X256491Y447864D01*
X257476Y448272D01*
X258322Y448922D01*
X258972Y449768D01*
X259380Y450753D01*
X259519Y451811D01*
X259380Y452869D01*
X258972Y453854D01*
X258322Y454700D01*
X257476Y455350D01*
X256491Y455758D01*
X255433Y455897D01*
D02*
G37*
G36*
X405706Y451311D02*
X402087D01*
Y447691D01*
X402670Y447768D01*
X403679Y448186D01*
X404546Y448851D01*
X405211Y449718D01*
X405629Y450728D01*
X405706Y451311D01*
D02*
G37*
G36*
X401087D02*
X397467D01*
X397544Y450728D01*
X397962Y449718D01*
X398627Y448851D01*
X399494Y448186D01*
X400503Y447768D01*
X401087Y447691D01*
Y451311D01*
D02*
G37*
G36*
X224909Y445931D02*
Y442311D01*
X228529D01*
X228452Y442894D01*
X228034Y443904D01*
X227369Y444771D01*
X226502Y445436D01*
X225493Y445854D01*
X224909Y445931D01*
D02*
G37*
G36*
X312638Y445798D02*
X311606Y445662D01*
X310644Y445264D01*
X309819Y444630D01*
X309185Y443804D01*
X308787Y442843D01*
X308651Y441811D01*
X308787Y440779D01*
X309185Y439818D01*
X309819Y438992D01*
X310644Y438358D01*
X311606Y437960D01*
X312638Y437824D01*
X313670Y437960D01*
X314631Y438358D01*
X315457Y438992D01*
X316090Y439818D01*
X316489Y440779D01*
X316625Y441811D01*
X316489Y442843D01*
X316090Y443804D01*
X315457Y444630D01*
X314631Y445264D01*
X313670Y445662D01*
X312638Y445798D01*
D02*
G37*
G36*
X259484Y445862D02*
X251382D01*
Y437760D01*
X259484D01*
Y445862D01*
D02*
G37*
G36*
X228529Y441311D02*
X224909D01*
Y437691D01*
X225493Y437768D01*
X226502Y438186D01*
X227369Y438851D01*
X228034Y439718D01*
X228452Y440728D01*
X228529Y441311D01*
D02*
G37*
G36*
X405736Y445961D02*
X397437D01*
Y437661D01*
X405736D01*
Y445961D01*
D02*
G37*
%LPD*%
D12*
X400153Y481811D02*
X420175D01*
X398653Y480311D02*
X400153Y481811D01*
X279953Y480311D02*
X398653D01*
X278780Y481484D02*
X279953Y480311D01*
X278780Y481484D02*
Y481811D01*
X440945Y484252D02*
X446500Y478697D01*
X439047Y472500D02*
X442500D01*
X438071Y473476D02*
X439047Y472500D01*
X444296Y464075D02*
X446500Y466279D01*
Y478697D01*
X439047Y464075D02*
X444296D01*
X438071Y460827D02*
Y463098D01*
X439047Y464075D01*
X438071Y473476D02*
Y476181D01*
X418792Y448756D02*
X428008D01*
X406236Y461312D02*
X418792Y448756D01*
X402086Y461312D02*
X406236D01*
X401587Y461811D02*
X402086Y461312D01*
X428008Y448756D02*
X433071Y453819D01*
Y460827D01*
Y464075D01*
X428025Y455584D02*
Y456647D01*
X428071Y456693D01*
X425197Y452756D02*
X428025Y455584D01*
X428071Y456693D02*
Y460827D01*
X422616Y484252D02*
X440945D01*
X420175Y481811D02*
X422616Y484252D01*
X401587Y471811D02*
X416806D01*
X432485Y469918D02*
X433071Y470504D01*
X418699Y469918D02*
X432485D01*
X416806Y471811D02*
X418699Y469918D01*
X433071Y470504D02*
Y476181D01*
Y476378D01*
X270913Y479752D02*
Y481811D01*
X224410D02*
X270913D01*
X244094Y491811D02*
X272087D01*
X239445Y487161D02*
X244094Y491811D01*
X223184Y487161D02*
X239445D01*
X219760Y483737D02*
X223184Y487161D01*
X219760Y476461D02*
Y483737D01*
Y476461D02*
X223780Y472441D01*
X224228D01*
X224410Y472260D01*
Y471811D02*
Y472260D01*
X224228Y461811D02*
X225433D01*
X400433Y471811D02*
X401587D01*
X370433Y461811D02*
X401587D01*
X350433Y441811D02*
X370433Y461811D01*
X338228Y441811D02*
X350433D01*
X278780Y491811D02*
X282933D01*
X290433Y484311D01*
X392933D01*
X270913Y479752D02*
X272087Y480925D01*
Y481811D01*
D15*
X438071Y476181D02*
D03*
X433071D02*
D03*
X438071Y460827D02*
D03*
X433071D02*
D03*
X428071D02*
D03*
Y476181D02*
D03*
D16*
X278780Y491811D02*
D03*
X272087D02*
D03*
X278780Y481811D02*
D03*
X272087D02*
D03*
D26*
X255433Y461811D02*
D03*
Y451811D02*
D03*
D27*
Y441811D02*
D03*
D28*
X338228Y471811D02*
D03*
Y489528D02*
D03*
X312638Y471811D02*
D03*
Y489528D02*
D03*
X338228Y441811D02*
D03*
Y459528D02*
D03*
X312638Y441811D02*
D03*
Y459528D02*
D03*
D29*
X401587Y481811D02*
D03*
Y471811D02*
D03*
Y461811D02*
D03*
Y451811D02*
D03*
Y491811D02*
D03*
X224410Y451811D02*
D03*
Y461811D02*
D03*
Y471811D02*
D03*
Y481811D02*
D03*
Y441811D02*
D03*
D30*
X401587D02*
D03*
X224410Y491811D02*
D03*
D31*
X110236Y444882D02*
D03*
Y488189D02*
D03*
D32*
X392933Y484311D02*
D03*
X442500Y472500D02*
D03*
X425197Y452756D02*
D03*
M02*
