G04*
G04 #@! TF.GenerationSoftware,Altium Limited,Altium Designer,19.0.15 (446)*
G04*
G04 Layer_Color=32768*
%FSLAX25Y25*%
%MOIN*%
G70*
G01*
G75*
%ADD33C,0.00394*%
%ADD34C,0.00197*%
D33*
X273465Y491811D02*
X277402D01*
X275433Y489843D02*
Y493780D01*
X273465Y481811D02*
X277402D01*
X275433Y479843D02*
Y483779D01*
D34*
X433071Y466535D02*
Y470472D01*
X431102Y468504D02*
X435039D01*
X424784Y455315D02*
Y481693D01*
Y455315D02*
X441358D01*
Y481693D01*
X424784D02*
X441358D01*
X249547Y468445D02*
X261319D01*
Y435177D02*
Y468445D01*
X249547Y435177D02*
X261319D01*
X249547D02*
Y468445D01*
X280945Y488858D02*
Y494764D01*
X269921Y488858D02*
Y494764D01*
Y488858D02*
X280945D01*
X269921Y494764D02*
X280945D01*
X395799Y435433D02*
Y498189D01*
X407374Y435433D02*
Y498189D01*
X395799D02*
X407374D01*
X395799Y435433D02*
X407374D01*
X230197D02*
Y498189D01*
X218622Y435433D02*
Y498189D01*
Y435433D02*
X230197D01*
X218622Y498189D02*
X230197D01*
X280945Y478858D02*
Y484764D01*
X269921Y478858D02*
Y484764D01*
Y478858D02*
X280945D01*
X269921Y484764D02*
X280945D01*
M02*
