M48
;Layer_Color=9474304
;FILE_FORMAT=2:5
INCH,LZ
;TYPE=PLATED
T1F00S00C0.02800
T2F00S00C0.03937
T3F00S00C0.04016
T4F00S00C0.04256
T5F00S00C0.11811
%
T01
X0425197Y0452756
X04425Y04725
X0392933Y0484311
T02
X0312638Y0441811
Y0459528
X0338228
Y0441811
Y0471811
Y0489528
X0312638
Y0471811
T03
X0255433Y0441811
Y0451811
Y0461811
T04
X022441Y0441811
Y0451811
Y0461811
X0401587
Y0451811
Y0441811
Y0471811
Y0481811
Y0491811
X022441
Y0481811
Y0471811
T05
X0110236Y0444882
Y0488189
M30
