G04*
G04 #@! TF.GenerationSoftware,Altium Limited,Altium Designer,19.0.15 (446)*
G04*
G04 Layer_Color=8388736*
%FSLAX25Y25*%
%MOIN*%
G70*
G01*
G75*
%ADD17R,0.03753X0.10249*%
%ADD18R,0.04147X0.05918*%
%ADD19C,0.06902*%
%ADD20R,0.06902X0.06902*%
%ADD21C,0.06706*%
%ADD22C,0.07099*%
%ADD23R,0.07099X0.07099*%
%ADD24C,0.13792*%
%ADD25C,0.05800*%
D17*
X438071Y476181D02*
D03*
X433071D02*
D03*
X438071Y460827D02*
D03*
X433071D02*
D03*
X428071D02*
D03*
Y476181D02*
D03*
D18*
X278780Y491811D02*
D03*
X272087D02*
D03*
X278780Y481811D02*
D03*
X272087D02*
D03*
D19*
X255433Y461811D02*
D03*
Y451811D02*
D03*
D20*
Y441811D02*
D03*
D21*
X338228Y471811D02*
D03*
Y489528D02*
D03*
X312638Y471811D02*
D03*
Y489528D02*
D03*
X338228Y441811D02*
D03*
Y459528D02*
D03*
X312638Y441811D02*
D03*
Y459528D02*
D03*
D22*
X401587Y481811D02*
D03*
Y471811D02*
D03*
Y461811D02*
D03*
Y451811D02*
D03*
Y491811D02*
D03*
X224410Y451811D02*
D03*
Y461811D02*
D03*
Y471811D02*
D03*
Y481811D02*
D03*
Y441811D02*
D03*
D23*
X401587D02*
D03*
X224410Y491811D02*
D03*
D24*
X110236Y444882D02*
D03*
Y488189D02*
D03*
D25*
X392933Y484311D02*
D03*
X442500Y472500D02*
D03*
X425197Y452756D02*
D03*
M02*
