M48
;Layer_Color=9474304
;FILE_FORMAT=2:5
INCH,LZ
;TYPE=PLATED
T1F00S00C0.01575
T2F00S00C0.01968
T3F00S00C0.03150
T4F00S00C0.04256
T5F00S00C0.04291
T6F00S00C0.04331
T7F00S00C0.04724
T8F00S00C0.06102
T9F00S00C0.12598
T10F00S00C0.12992
%
T01
X0314961Y0199862
Y0241004
Y0281949
X0390846Y0228346
X0379724Y015748
X028937Y0190157
X0293307Y0201969
X028937Y0231299
X0293307Y024311
X0289216Y0272244
X0293154Y0284055
X0289216Y031309
X0290453Y0324902
X028937Y035438
X0293307Y0366191
X0274606Y0379921
Y0389764
X0278543Y0391732
X0277782Y0405289
X0286417Y0404527
X0297243Y0404528
X0288385Y0417322
X0280511
X0276911Y0426336
X0272974Y0427165
X0269037
X0286618Y0428149
X0288385Y0440944
X0278543Y0440846
X0280848Y0458661
X0291457
X0300549Y0447835
X031078Y0441004
X0311024Y0432853
X0269685Y0403543
X0220472Y0415354
X0206693Y044685
X0169291
X017815Y0456693
X0187992Y0393223
X0314961Y0364085
Y0322795
X038627Y0321092
X0377953Y0351526
X0370079
X0403937
X0383809Y0382136
X0370079Y046063
X0276911Y0471496
X0202756Y0476378
T02
X0433071Y0141732
X0440945
X0448819
X0456693
X0452756Y0149606
X0444882
X0437008
X0429134
X0476378Y0165354
X0472441Y0173228
X0476378Y0181103
X0472441Y0188977
X0476378Y0196851
X0472441Y0204725
X0476378Y0212598
X0472441Y0220473
X0476378Y0228347
X0472441Y0236221
X0476378Y0244095
X0472441Y0251969
X0476378Y0259843
X0472441Y0267717
X0476378Y0275591
X0472441Y0283465
X0476378Y0291339
X0468504
X046063
X0452756
X0444882
X0437008
X0429134
X0433071Y0299213
X0440945
X0448819
X0456693
X0452756Y0307087
X0444882
X0437008
X0429134
X0425197Y0299213
Y0283465
X0433071
X0429134Y0275591
X0425197Y0267717
X0429134Y0259843
X0437008
X0440945Y0251969
X0448819
X0456693
X0464567
X0468504Y0259843
X046063
X0452756
X0456693Y0267717
X0464567
X0468504Y0275591
X046063
X0464567Y0283465
X0456693
X0448819
X0433071Y0251969
X0425197
X0429134Y0228347
Y0212598
Y0196851
X0433071Y0188977
X0440945
X0448819
X0456693
X0464567
X0468504Y0196851
X046063
X0452756
X0444882
X0456693Y0204725
X0464567
X0468504Y0212598
X046063
X0464567Y0220473
X0456693
X046063Y0228347
X0468504
X0464567Y0236221
X0456693
X046063Y0244095
X0468504
Y0181103
X046063
X0452756
X0456693Y0173228
X0464567
X0468504Y0165354
X046063
X0452756
X0456693Y015748
X0464567
X0448819
X0440945
X0433071
X0429134Y0165354
Y0181103
X0425197Y0314961
X0448819
X0456693
X0464567
X0468504Y0322835
X046063
X0452756
X0444882
X0448819Y0330709
X0456693
X0464567
X0468504Y0338583
X046063
X0452756
X0444882
X0437008
X0429134
X0433071Y0330709
X0440945
X0448819Y0346457
X0456693
X0464567
X0468504Y0354331
X046063
X0452756
X0444882
X0448819Y0362205
X0456693
X0464567
X0468504Y0370079
X046063
X0452756
X0444882
X0437008
X0429134
X0433071Y0377953
X0440945
X0448819
X0456693
X0464567
X0468504Y0385827
X046063
X0452756
X0444882
X0437008
X0429134
X0433071Y0393701
X0440945
X0448819
X0456693
X0464567
X0468504Y0401575
X046063
X0452756
X0444882
X0437008
X0429134
X0433071Y0409449
X0440945
X0448819
X0456693
X046063Y0417323
X0468504
Y0433071
X046063
X0456693Y0440945
X046063Y0448819
X0468504
X0464567Y0456693
X0456693
X0448819
X0440945
X0433071
X0437008Y0464567
X0444882
X0452756
X046063
X0468504
X0452756Y0448819
X0444882
X0437008
X0429134
X0433071Y0440945
X0440945
X0437008Y0433071
X0429134
X0433071Y0425197
X0437008Y0417323
X0444882
X0452756
X0429134
Y0464567
X0433071Y0362205
X0440945
X0429134Y0354331
X0476378
X0472441Y0362205
X0476378Y0370079
X0472441Y0377953
X0476378Y0385827
X0472441Y0393701
X0476378Y0401575
Y0417323
Y0433071
Y0448819
X0472441Y0456693
X0476378Y0464567
X0472441Y0346457
X0476378Y0338583
X0472441Y0330709
X0476378Y0322835
X0472441Y0472441
X0476378Y0480315
X046063
X0452756
X0444882
X0437008
X0429134
X0433071Y0488189
X0440945
X0448819
X0456693
Y0472441
X0464567
X0448819
X0440945
X0433071
T03
X017815Y0423228
X0187992
T04
X0244151Y0396024
Y0406024
Y0416024
Y0426024
Y0436024
Y0446024
T05
X033252Y0418819
Y0428819
Y0438819
Y0448819
Y0458819
X034252
Y0448819
Y0438819
Y0428819
Y0418819
T06
X0437008Y0200994
Y0211782
Y0222569
Y0233356
Y0244144
X0448189Y023875
Y0227963
Y0217175
Y0206388
T07
X0183071Y0199114
X021063
Y0240256
X0183071
X0182917Y0281201
X0210476
X0255752
Y0262697
X0255906Y0240256
Y0221752
Y0199114
Y018061
X0255752Y0303543
Y0322047
X0255906Y0344833
Y0363337
X021063
X0183071
X0182917Y0322047
X0210476
T08
X0139764Y0181398
Y0201083
Y0222539
Y0242224
X013961Y0263484
Y0283169
Y0304331
Y0324016
X0139764Y034562
Y0365305
Y0424213
Y0443898
T09
X0442598Y0173356
Y0271781
T10
X0110236Y0147638
X0470472
Y0305118
X0110236Y0396024
X0470472Y0489173
X0110236Y0488189
M30
