G04*
G04 #@! TF.GenerationSoftware,Altium Limited,Altium Designer,19.0.15 (446)*
G04*
G04 Layer_Physical_Order=2*
G04 Layer_Color=16711680*
%FSLAX25Y25*%
%MOIN*%
G70*
G01*
G75*
%ADD29R,0.19685X0.05512*%
%ADD70C,0.01181*%
%ADD73C,0.12992*%
%ADD74R,0.08071X0.08071*%
%ADD75C,0.08071*%
%ADD76C,0.06693*%
%ADD77R,0.06693X0.06693*%
%ADD78C,0.19685*%
%ADD79C,0.07874*%
%ADD80C,0.06299*%
%ADD81R,0.06299X0.06299*%
%ADD82R,0.05118X0.05118*%
%ADD83C,0.05118*%
%ADD84C,0.03150*%
%ADD85C,0.03937*%
G36*
X480315Y133858D02*
X248031D01*
Y387844D01*
X98770D01*
X98425Y388189D01*
Y500000D01*
X480315D01*
Y133858D01*
D02*
G37*
%LPC*%
G36*
X470472Y496492D02*
X469045Y496351D01*
X467672Y495935D01*
X466406Y495259D01*
X465297Y494348D01*
X464387Y493239D01*
X463711Y491974D01*
X463294Y490601D01*
X463154Y489173D01*
X463294Y487745D01*
X463711Y486373D01*
X464387Y485107D01*
X465297Y483998D01*
X466406Y483088D01*
X467672Y482412D01*
X469045Y481995D01*
X470472Y481854D01*
X471900Y481995D01*
X473273Y482412D01*
X474539Y483088D01*
X475647Y483998D01*
X476558Y485107D01*
X477234Y486373D01*
X477650Y487745D01*
X477791Y489173D01*
X477650Y490601D01*
X477234Y491974D01*
X476558Y493239D01*
X475647Y494348D01*
X474539Y495259D01*
X473273Y495935D01*
X471900Y496351D01*
X470472Y496492D01*
D02*
G37*
G36*
X110236Y495508D02*
X108808Y495367D01*
X107436Y494951D01*
X106170Y494274D01*
X105061Y493364D01*
X104151Y492255D01*
X103475Y490990D01*
X103058Y489617D01*
X102918Y488189D01*
X103058Y486761D01*
X103475Y485388D01*
X104151Y484123D01*
X105061Y483014D01*
X106170Y482104D01*
X107436Y481427D01*
X108808Y481011D01*
X110236Y480870D01*
X111664Y481011D01*
X113037Y481427D01*
X114302Y482104D01*
X115411Y483014D01*
X116322Y484123D01*
X116998Y485388D01*
X117414Y486761D01*
X117555Y488189D01*
X117414Y489617D01*
X116998Y490990D01*
X116322Y492255D01*
X115411Y493364D01*
X114302Y494274D01*
X113037Y494951D01*
X111664Y495367D01*
X110236Y495508D01*
D02*
G37*
G36*
X144587Y448721D02*
X134941D01*
Y439075D01*
X144587D01*
Y448721D01*
D02*
G37*
G36*
X344488Y465972D02*
X326181D01*
X325643Y465865D01*
X325188Y465560D01*
X316347Y456720D01*
X280456D01*
X279918Y456613D01*
X279462Y456308D01*
X260818Y437664D01*
X260513Y437208D01*
X260406Y436670D01*
Y432409D01*
X259944Y432217D01*
X247746Y444415D01*
X247987Y444996D01*
X248122Y446024D01*
X247987Y447051D01*
X247590Y448009D01*
X246959Y448832D01*
X246136Y449463D01*
X245179Y449859D01*
X244151Y449995D01*
X243123Y449859D01*
X242165Y449463D01*
X241343Y448832D01*
X240712Y448009D01*
X240315Y447051D01*
X240180Y446024D01*
X240315Y444996D01*
X240712Y444038D01*
X241343Y443216D01*
X242165Y442585D01*
X243123Y442188D01*
X244151Y442053D01*
X245179Y442188D01*
X245759Y442428D01*
X258438Y429750D01*
Y423228D01*
X258544Y422691D01*
X258849Y422235D01*
X271414Y409670D01*
Y406076D01*
X271470Y405792D01*
X271021Y405491D01*
X270606Y405768D01*
X269685Y405951D01*
X269333Y405881D01*
X258197Y417017D01*
X257741Y417322D01*
X257203Y417429D01*
X247830D01*
X247590Y418009D01*
X246959Y418831D01*
X246136Y419463D01*
X245179Y419859D01*
X244151Y419995D01*
X243123Y419859D01*
X242165Y419463D01*
X241343Y418831D01*
X240712Y418009D01*
X240315Y417051D01*
X240180Y416024D01*
X240315Y414996D01*
X240712Y414038D01*
X241343Y413216D01*
X242165Y412585D01*
X243123Y412188D01*
X244151Y412053D01*
X245179Y412188D01*
X246136Y412585D01*
X246959Y413216D01*
X247590Y414038D01*
X247830Y414619D01*
X256621D01*
X267346Y403894D01*
X267276Y403543D01*
X267459Y402621D01*
X267981Y401839D01*
X268763Y401317D01*
X269685Y401134D01*
X270606Y401317D01*
X271388Y401839D01*
X271910Y402621D01*
X272093Y403543D01*
X271953Y404249D01*
X272413Y404495D01*
X276327Y400581D01*
X276783Y400277D01*
X277320Y400170D01*
X278244D01*
X278782Y400277D01*
X279238Y400581D01*
X281729Y403072D01*
X282033Y403528D01*
X282140Y404066D01*
Y415569D01*
X282214Y415619D01*
X282736Y416400D01*
X282920Y417322D01*
X282736Y418244D01*
X282214Y419025D01*
X281433Y419547D01*
X280511Y419731D01*
X279590Y419547D01*
X278808Y419025D01*
X278286Y418244D01*
X278103Y417322D01*
X278286Y416400D01*
X278688Y415798D01*
X278300Y415480D01*
X273313Y420467D01*
X273467Y421020D01*
X273812Y421251D01*
X276559Y423997D01*
X276911Y423928D01*
X277833Y424111D01*
X278614Y424633D01*
X279136Y425414D01*
X279319Y426336D01*
X279136Y427258D01*
X278614Y428039D01*
X277833Y428561D01*
X276911Y428745D01*
X275989Y428561D01*
X275624Y428317D01*
X274946Y428466D01*
X274677Y428868D01*
X273895Y429390D01*
X273677Y429434D01*
X273532Y429912D01*
X280108Y436489D01*
X281159D01*
X281697Y436596D01*
X282153Y436900D01*
X285638Y440386D01*
X286117Y440241D01*
X286160Y440022D01*
X286682Y439241D01*
X287464Y438719D01*
X288385Y438535D01*
X288737Y438605D01*
X289934Y437409D01*
Y426181D01*
X290041Y425643D01*
X290345Y425188D01*
X315524Y400009D01*
Y366837D01*
X315094Y366467D01*
X314961Y366493D01*
X314039Y366310D01*
X313258Y365788D01*
X312736Y365006D01*
X312552Y364085D01*
X312736Y363163D01*
X313258Y362382D01*
X314039Y361859D01*
X314961Y361676D01*
X315882Y361859D01*
X316664Y362382D01*
X317186Y363163D01*
X317361Y364046D01*
X317388Y364098D01*
X317886Y363837D01*
Y327708D01*
X315312Y325134D01*
X314961Y325204D01*
X314039Y325020D01*
X313258Y324498D01*
X312736Y323717D01*
X312552Y322795D01*
X312736Y321874D01*
X313258Y321092D01*
X314039Y320570D01*
X314961Y320387D01*
X315882Y320570D01*
X316664Y321092D01*
X317186Y321874D01*
X317369Y322795D01*
X317299Y323147D01*
X319787Y325634D01*
X320249Y325443D01*
Y289224D01*
X315312Y284287D01*
X314961Y284357D01*
X314039Y284174D01*
X313258Y283652D01*
X312736Y282871D01*
X312692Y282652D01*
X312214Y282507D01*
X299633Y295087D01*
Y368229D01*
X299526Y368767D01*
X299222Y369223D01*
X298649Y369796D01*
Y402625D01*
X298946Y402824D01*
X299469Y403606D01*
X299652Y404528D01*
X299469Y405449D01*
X298946Y406231D01*
X298165Y406753D01*
X297243Y406936D01*
X296322Y406753D01*
X295540Y406231D01*
X295018Y405449D01*
X294835Y404528D01*
X295018Y403606D01*
X295540Y402824D01*
X295838Y402625D01*
Y397745D01*
X295377Y397554D01*
X288755Y404175D01*
X288825Y404527D01*
X288642Y405448D01*
X288120Y406230D01*
X287338Y406752D01*
X286417Y406935D01*
X285495Y406752D01*
X284714Y406230D01*
X284192Y405448D01*
X284008Y404527D01*
X284192Y403605D01*
X284714Y402824D01*
X285495Y402302D01*
X286417Y402118D01*
X286768Y402188D01*
X293870Y395087D01*
Y368399D01*
X293977Y367861D01*
X294282Y367405D01*
X294855Y366832D01*
Y344230D01*
X294282Y343657D01*
X293977Y343201D01*
X293870Y342663D01*
Y294675D01*
X293977Y294137D01*
X294282Y293681D01*
X311587Y276376D01*
Y250582D01*
X311014Y250009D01*
X310710Y249553D01*
X310603Y249016D01*
Y222787D01*
X310710Y222250D01*
X311014Y221794D01*
X313556Y219253D01*
Y201764D01*
X313258Y201565D01*
X312736Y200784D01*
X312552Y199862D01*
X312736Y198941D01*
X313258Y198159D01*
X314039Y197637D01*
X314961Y197454D01*
X315882Y197637D01*
X316664Y198159D01*
X317186Y198941D01*
X317369Y199862D01*
X317186Y200784D01*
X316664Y201565D01*
X316366Y201764D01*
Y219835D01*
X316259Y220372D01*
X315954Y220828D01*
X313413Y223369D01*
Y238667D01*
X313854Y238902D01*
X314039Y238779D01*
X314961Y238596D01*
X315882Y238779D01*
X316664Y239301D01*
X317186Y240082D01*
X317369Y241004D01*
X317186Y241926D01*
X316664Y242707D01*
X316366Y242906D01*
Y277773D01*
X316259Y278311D01*
X315954Y278766D01*
X315519Y279202D01*
X315664Y279680D01*
X315882Y279724D01*
X316664Y280246D01*
X317186Y281027D01*
X317369Y281949D01*
X317299Y282300D01*
X322647Y287648D01*
X322952Y288104D01*
X323059Y288642D01*
Y402548D01*
X322952Y403085D01*
X322647Y403541D01*
X296680Y429507D01*
Y440705D01*
X296574Y441242D01*
X296269Y441698D01*
X294763Y443204D01*
X294724Y443401D01*
X294419Y443857D01*
X292308Y445968D01*
X292499Y446430D01*
X295791D01*
X298923Y443298D01*
X299378Y442993D01*
X299916Y442886D01*
X308596D01*
X308863Y442386D01*
X308555Y441926D01*
X308372Y441004D01*
X308555Y440082D01*
X309077Y439301D01*
X309497Y439020D01*
Y434673D01*
X309321Y434556D01*
X308799Y433774D01*
X308615Y432853D01*
X308799Y431931D01*
X309321Y431149D01*
X310102Y430627D01*
X311024Y430444D01*
X311945Y430627D01*
X312727Y431149D01*
X313249Y431931D01*
X313432Y432853D01*
X313249Y433774D01*
X312727Y434556D01*
X312307Y434836D01*
Y439183D01*
X312483Y439301D01*
X313005Y440082D01*
X313189Y441004D01*
X313005Y441926D01*
X312697Y442386D01*
X312965Y442886D01*
X319201D01*
X329235Y432853D01*
X329691Y432548D01*
X330009Y432485D01*
X330135Y431951D01*
X329712Y431627D01*
X329081Y430804D01*
X328684Y429847D01*
X328549Y428819D01*
X328684Y427791D01*
X329081Y426833D01*
X329712Y426011D01*
X330534Y425380D01*
X331492Y424983D01*
X332520Y424848D01*
X333547Y424983D01*
X334128Y425224D01*
X336630Y422721D01*
X337086Y422417D01*
X337624Y422310D01*
X346602D01*
X347140Y422417D01*
X347596Y422721D01*
X349117Y424243D01*
X349579Y424052D01*
Y421462D01*
X343813Y415696D01*
X336709D01*
X335791Y416615D01*
X335959Y416833D01*
X336355Y417791D01*
X336491Y418819D01*
X336355Y419847D01*
X335959Y420804D01*
X335328Y421627D01*
X334505Y422258D01*
X333547Y422655D01*
X332520Y422790D01*
X331492Y422655D01*
X330534Y422258D01*
X329712Y421627D01*
X329081Y420804D01*
X328684Y419847D01*
X328549Y418819D01*
X328684Y417791D01*
X329081Y416833D01*
X329712Y416011D01*
X330534Y415380D01*
X331492Y414983D01*
X332520Y414848D01*
X333460Y414972D01*
X335134Y413298D01*
X335590Y412993D01*
X336127Y412886D01*
X344395D01*
X344933Y412993D01*
X345389Y413298D01*
X351978Y419887D01*
X352282Y420343D01*
X352389Y420881D01*
Y458071D01*
X352282Y458608D01*
X351978Y459064D01*
X345482Y465560D01*
X345026Y465865D01*
X344488Y465972D01*
D02*
G37*
G36*
X244151Y439995D02*
X243123Y439859D01*
X242165Y439463D01*
X241343Y438832D01*
X240712Y438009D01*
X240315Y437051D01*
X240180Y436024D01*
X240315Y434996D01*
X240712Y434038D01*
X241343Y433216D01*
X242165Y432585D01*
X243123Y432188D01*
X244151Y432053D01*
X245179Y432188D01*
X246136Y432585D01*
X246959Y433216D01*
X247590Y434038D01*
X247987Y434996D01*
X248122Y436024D01*
X247987Y437051D01*
X247590Y438009D01*
X246959Y438832D01*
X246136Y439463D01*
X245179Y439859D01*
X244151Y439995D01*
D02*
G37*
G36*
Y429995D02*
X243123Y429859D01*
X242165Y429463D01*
X241343Y428831D01*
X240712Y428009D01*
X240315Y427051D01*
X240180Y426024D01*
X240315Y424996D01*
X240712Y424038D01*
X241343Y423216D01*
X242165Y422585D01*
X243123Y422188D01*
X244151Y422053D01*
X245179Y422188D01*
X246136Y422585D01*
X246959Y423216D01*
X247590Y424038D01*
X247987Y424996D01*
X248122Y426024D01*
X247987Y427051D01*
X247590Y428009D01*
X246959Y428831D01*
X246136Y429463D01*
X245179Y429859D01*
X244151Y429995D01*
D02*
G37*
G36*
X191339Y426575D02*
X184646D01*
Y419882D01*
X191339D01*
Y426575D01*
D02*
G37*
G36*
X288385Y419731D02*
X287464Y419547D01*
X286682Y419025D01*
X286160Y418244D01*
X285977Y417322D01*
X286160Y416400D01*
X286682Y415619D01*
X287464Y415097D01*
X288385Y414914D01*
X289307Y415097D01*
X290088Y415619D01*
X290610Y416400D01*
X290794Y417322D01*
X290610Y418244D01*
X290088Y419025D01*
X289307Y419547D01*
X288385Y419731D01*
D02*
G37*
G36*
X244151Y409995D02*
X243123Y409859D01*
X242165Y409463D01*
X241343Y408832D01*
X240712Y408009D01*
X240315Y407051D01*
X240180Y406024D01*
X240315Y404996D01*
X240712Y404038D01*
X241343Y403216D01*
X242165Y402585D01*
X243123Y402188D01*
X244151Y402053D01*
X245179Y402188D01*
X246136Y402585D01*
X246959Y403216D01*
X247590Y404038D01*
X247987Y404996D01*
X248122Y406024D01*
X247987Y407051D01*
X247590Y408009D01*
X246959Y408832D01*
X246136Y409463D01*
X245179Y409859D01*
X244151Y409995D01*
D02*
G37*
G36*
X110236Y403342D02*
X108808Y403202D01*
X107436Y402785D01*
X106170Y402109D01*
X105061Y401199D01*
X104151Y400090D01*
X103475Y398824D01*
X103058Y397451D01*
X102918Y396024D01*
X103058Y394596D01*
X103475Y393223D01*
X104151Y391958D01*
X105061Y390848D01*
X106170Y389938D01*
X107436Y389262D01*
X108808Y388846D01*
X110236Y388705D01*
X111664Y388846D01*
X113037Y389262D01*
X114302Y389938D01*
X115411Y390848D01*
X116322Y391958D01*
X116998Y393223D01*
X117414Y394596D01*
X117555Y396024D01*
X117414Y397451D01*
X116998Y398824D01*
X116322Y400090D01*
X115411Y401199D01*
X114302Y402109D01*
X113037Y402785D01*
X111664Y403202D01*
X110236Y403342D01*
D02*
G37*
G36*
X274606Y392172D02*
X273684Y391989D01*
X272903Y391467D01*
X272381Y390686D01*
X272197Y389764D01*
X272381Y388842D01*
X272903Y388061D01*
X273201Y387861D01*
Y381823D01*
X272903Y381624D01*
X272381Y380843D01*
X272197Y379921D01*
X272381Y379000D01*
X272903Y378218D01*
X273684Y377696D01*
X274606Y377513D01*
X275527Y377696D01*
X276309Y378218D01*
X276831Y379000D01*
X277014Y379921D01*
X276831Y380843D01*
X276309Y381624D01*
X276011Y381823D01*
Y387861D01*
X276309Y388061D01*
X276831Y388842D01*
X277014Y389764D01*
X276831Y390686D01*
X276309Y391467D01*
X275527Y391989D01*
X274606Y392172D01*
D02*
G37*
G36*
X255906Y367506D02*
X254826Y367364D01*
X253821Y366948D01*
X252957Y366285D01*
X252295Y365421D01*
X251878Y364416D01*
X251736Y363337D01*
X251878Y362258D01*
X252295Y361252D01*
X252957Y360388D01*
X253821Y359726D01*
X254826Y359309D01*
X255906Y359167D01*
X256985Y359309D01*
X257990Y359726D01*
X258854Y360388D01*
X259516Y361252D01*
X259933Y362258D01*
X260075Y363337D01*
X259933Y364416D01*
X259516Y365421D01*
X258854Y366285D01*
X257990Y366948D01*
X256985Y367364D01*
X255906Y367506D01*
D02*
G37*
G36*
X377953Y353934D02*
X377031Y353751D01*
X376250Y353229D01*
X376050Y352930D01*
X371981D01*
X371782Y353229D01*
X371000Y353751D01*
X370079Y353934D01*
X369157Y353751D01*
X368376Y353229D01*
X367854Y352447D01*
X367670Y351526D01*
X367854Y350604D01*
X368376Y349822D01*
X369157Y349300D01*
X370079Y349117D01*
X371000Y349300D01*
X371782Y349822D01*
X371981Y350121D01*
X376050D01*
X376250Y349822D01*
X377031Y349300D01*
X377953Y349117D01*
X378874Y349300D01*
X379656Y349822D01*
X380178Y350604D01*
X380361Y351526D01*
X380178Y352447D01*
X379656Y353229D01*
X378874Y353751D01*
X377953Y353934D01*
D02*
G37*
G36*
X260039Y348967D02*
X251772D01*
Y340699D01*
X260039D01*
Y348967D01*
D02*
G37*
G36*
X255752Y326217D02*
X254673Y326075D01*
X253667Y325658D01*
X252804Y324995D01*
X252141Y324132D01*
X251725Y323126D01*
X251583Y322047D01*
X251725Y320968D01*
X252141Y319963D01*
X252804Y319099D01*
X253667Y318436D01*
X254673Y318020D01*
X255752Y317878D01*
X256831Y318020D01*
X257837Y318436D01*
X258700Y319099D01*
X259363Y319963D01*
X259779Y320968D01*
X259922Y322047D01*
X259779Y323126D01*
X259363Y324132D01*
X258700Y324995D01*
X257837Y325658D01*
X256831Y326075D01*
X255752Y326217D01*
D02*
G37*
G36*
X259886Y307677D02*
X251618D01*
Y299409D01*
X259886D01*
Y307677D01*
D02*
G37*
G36*
X470472Y312437D02*
X469045Y312296D01*
X467672Y311880D01*
X466406Y311203D01*
X465297Y310293D01*
X464387Y309184D01*
X463711Y307919D01*
X463294Y306546D01*
X463154Y305118D01*
X463294Y303690D01*
X463711Y302317D01*
X464387Y301052D01*
X465297Y299943D01*
X466406Y299033D01*
X467672Y298357D01*
X469045Y297940D01*
X470472Y297799D01*
X471900Y297940D01*
X473273Y298357D01*
X474539Y299033D01*
X475647Y299943D01*
X476558Y301052D01*
X477234Y302317D01*
X477650Y303690D01*
X477791Y305118D01*
X477650Y306546D01*
X477234Y307919D01*
X476558Y309184D01*
X475647Y310293D01*
X474539Y311203D01*
X473273Y311880D01*
X471900Y312296D01*
X470472Y312437D01*
D02*
G37*
G36*
X255752Y285370D02*
X254673Y285228D01*
X253667Y284812D01*
X252804Y284149D01*
X252141Y283285D01*
X251725Y282280D01*
X251583Y281201D01*
X251725Y280122D01*
X252141Y279116D01*
X252804Y278253D01*
X253667Y277590D01*
X254673Y277173D01*
X255752Y277031D01*
X256831Y277173D01*
X257837Y277590D01*
X258700Y278253D01*
X259363Y279116D01*
X259779Y280122D01*
X259922Y281201D01*
X259779Y282280D01*
X259363Y283285D01*
X258700Y284149D01*
X257837Y284812D01*
X256831Y285228D01*
X255752Y285370D01*
D02*
G37*
G36*
X259886Y266831D02*
X251618D01*
Y258563D01*
X259886D01*
Y266831D01*
D02*
G37*
G36*
X437008Y248909D02*
X435775Y248746D01*
X434625Y248270D01*
X433638Y247513D01*
X432881Y246526D01*
X432405Y245377D01*
X432243Y244144D01*
X432405Y242910D01*
X432881Y241761D01*
X433638Y240774D01*
X434625Y240017D01*
X435775Y239541D01*
X437008Y239378D01*
X438241Y239541D01*
X439390Y240017D01*
X440377Y240774D01*
X441135Y241761D01*
X441611Y242910D01*
X441773Y244144D01*
X441611Y245377D01*
X441135Y246526D01*
X440377Y247513D01*
X439390Y248270D01*
X438241Y248746D01*
X437008Y248909D01*
D02*
G37*
G36*
X255906Y244425D02*
X254826Y244283D01*
X253821Y243867D01*
X252957Y243204D01*
X252295Y242341D01*
X251878Y241335D01*
X251736Y240256D01*
X251878Y239177D01*
X252295Y238171D01*
X252957Y237308D01*
X253821Y236645D01*
X254826Y236228D01*
X255906Y236086D01*
X256985Y236228D01*
X257990Y236645D01*
X258854Y237308D01*
X259516Y238171D01*
X259933Y239177D01*
X260075Y240256D01*
X259933Y241335D01*
X259516Y242341D01*
X258854Y243204D01*
X257990Y243867D01*
X256985Y244283D01*
X255906Y244425D01*
D02*
G37*
G36*
X448189Y243515D02*
X446956Y243353D01*
X445806Y242877D01*
X444819Y242120D01*
X444062Y241133D01*
X443586Y239983D01*
X443424Y238750D01*
X443586Y237517D01*
X444062Y236367D01*
X444819Y235381D01*
X445806Y234623D01*
X446956Y234147D01*
X448189Y233985D01*
X449422Y234147D01*
X450572Y234623D01*
X451558Y235381D01*
X452316Y236367D01*
X452792Y237517D01*
X452954Y238750D01*
X452792Y239983D01*
X452316Y241133D01*
X451558Y242120D01*
X450572Y242877D01*
X449422Y243353D01*
X448189Y243515D01*
D02*
G37*
G36*
X437008Y238122D02*
X435775Y237959D01*
X434625Y237483D01*
X433638Y236726D01*
X432881Y235739D01*
X432405Y234590D01*
X432243Y233356D01*
X432405Y232123D01*
X432881Y230974D01*
X433638Y229987D01*
X434625Y229229D01*
X435775Y228753D01*
X437008Y228591D01*
X438241Y228753D01*
X439390Y229229D01*
X440377Y229987D01*
X441135Y230974D01*
X441611Y232123D01*
X441773Y233356D01*
X441611Y234590D01*
X441135Y235739D01*
X440377Y236726D01*
X439390Y237483D01*
X438241Y237959D01*
X437008Y238122D01*
D02*
G37*
G36*
X448189Y232728D02*
X446956Y232565D01*
X445806Y232089D01*
X444819Y231332D01*
X444062Y230345D01*
X443586Y229196D01*
X443424Y227963D01*
X443586Y226729D01*
X444062Y225580D01*
X444819Y224593D01*
X445806Y223836D01*
X446956Y223360D01*
X448189Y223197D01*
X449422Y223360D01*
X450572Y223836D01*
X451558Y224593D01*
X452316Y225580D01*
X452792Y226729D01*
X452954Y227963D01*
X452792Y229196D01*
X452316Y230345D01*
X451558Y231332D01*
X450572Y232089D01*
X449422Y232565D01*
X448189Y232728D01*
D02*
G37*
G36*
X437008Y227334D02*
X435775Y227172D01*
X434625Y226696D01*
X433638Y225938D01*
X432881Y224952D01*
X432405Y223802D01*
X432243Y222569D01*
X432405Y221336D01*
X432881Y220186D01*
X433638Y219199D01*
X434625Y218442D01*
X435775Y217966D01*
X437008Y217804D01*
X438241Y217966D01*
X439390Y218442D01*
X440377Y219199D01*
X441135Y220186D01*
X441611Y221336D01*
X441773Y222569D01*
X441611Y223802D01*
X441135Y224952D01*
X440377Y225938D01*
X439390Y226696D01*
X438241Y227172D01*
X437008Y227334D01*
D02*
G37*
G36*
X260039Y225886D02*
X251772D01*
Y217618D01*
X260039D01*
Y225886D01*
D02*
G37*
G36*
X448189Y221940D02*
X446956Y221778D01*
X445806Y221302D01*
X444819Y220545D01*
X444062Y219558D01*
X443586Y218408D01*
X443424Y217175D01*
X443586Y215942D01*
X444062Y214793D01*
X444819Y213806D01*
X445806Y213048D01*
X446956Y212572D01*
X448189Y212410D01*
X449422Y212572D01*
X450572Y213048D01*
X451558Y213806D01*
X452316Y214793D01*
X452792Y215942D01*
X452954Y217175D01*
X452792Y218408D01*
X452316Y219558D01*
X451558Y220545D01*
X450572Y221302D01*
X449422Y221778D01*
X448189Y221940D01*
D02*
G37*
G36*
X437008Y216547D02*
X435775Y216384D01*
X434625Y215908D01*
X433638Y215151D01*
X432881Y214164D01*
X432405Y213015D01*
X432243Y211782D01*
X432405Y210548D01*
X432881Y209399D01*
X433638Y208412D01*
X434625Y207655D01*
X435775Y207179D01*
X437008Y207016D01*
X438241Y207179D01*
X439390Y207655D01*
X440377Y208412D01*
X441135Y209399D01*
X441611Y210548D01*
X441773Y211782D01*
X441611Y213015D01*
X441135Y214164D01*
X440377Y215151D01*
X439390Y215908D01*
X438241Y216384D01*
X437008Y216547D01*
D02*
G37*
G36*
X448189Y211153D02*
X446956Y210991D01*
X445806Y210515D01*
X444819Y209757D01*
X444062Y208770D01*
X443586Y207621D01*
X443424Y206388D01*
X443586Y205154D01*
X444062Y204005D01*
X444819Y203018D01*
X445806Y202261D01*
X446956Y201785D01*
X448189Y201623D01*
X449422Y201785D01*
X450572Y202261D01*
X451558Y203018D01*
X452316Y204005D01*
X452792Y205154D01*
X452954Y206388D01*
X452792Y207621D01*
X452316Y208770D01*
X451558Y209757D01*
X450572Y210515D01*
X449422Y210991D01*
X448189Y211153D01*
D02*
G37*
G36*
X255906Y203284D02*
X254826Y203142D01*
X253821Y202725D01*
X252957Y202063D01*
X252295Y201199D01*
X251878Y200193D01*
X251736Y199114D01*
X251878Y198035D01*
X252295Y197029D01*
X252957Y196166D01*
X253821Y195503D01*
X254826Y195087D01*
X255906Y194945D01*
X256985Y195087D01*
X257990Y195503D01*
X258854Y196166D01*
X259516Y197029D01*
X259933Y198035D01*
X260075Y199114D01*
X259933Y200193D01*
X259516Y201199D01*
X258854Y202063D01*
X257990Y202725D01*
X256985Y203142D01*
X255906Y203284D01*
D02*
G37*
G36*
X260039Y184744D02*
X251772D01*
Y176476D01*
X260039D01*
Y184744D01*
D02*
G37*
G36*
X386270Y323501D02*
X385348Y323317D01*
X384567Y322795D01*
X384045Y322014D01*
X383861Y321092D01*
X384045Y320170D01*
X384567Y319389D01*
X384865Y319190D01*
Y164608D01*
X380076Y159819D01*
X379724Y159889D01*
X378803Y159705D01*
X378021Y159183D01*
X377499Y158402D01*
X377316Y157480D01*
X377499Y156559D01*
X378021Y155777D01*
X378803Y155255D01*
X379724Y155072D01*
X380646Y155255D01*
X381427Y155777D01*
X381949Y156559D01*
X382133Y157480D01*
X382063Y157832D01*
X387263Y163032D01*
X387568Y163488D01*
X387675Y164026D01*
Y319190D01*
X387973Y319389D01*
X388495Y320170D01*
X388678Y321092D01*
X388495Y322014D01*
X387973Y322795D01*
X387191Y323317D01*
X386270Y323501D01*
D02*
G37*
G36*
X470472Y154956D02*
X469045Y154816D01*
X467672Y154399D01*
X466406Y153723D01*
X465297Y152813D01*
X464387Y151704D01*
X463711Y150439D01*
X463294Y149066D01*
X463154Y147638D01*
X463294Y146210D01*
X463711Y144837D01*
X464387Y143572D01*
X465297Y142463D01*
X466406Y141552D01*
X467672Y140876D01*
X469045Y140460D01*
X470472Y140319D01*
X471900Y140460D01*
X473273Y140876D01*
X474539Y141552D01*
X475647Y142463D01*
X476558Y143572D01*
X477234Y144837D01*
X477650Y146210D01*
X477791Y147638D01*
X477650Y149066D01*
X477234Y150439D01*
X476558Y151704D01*
X475647Y152813D01*
X474539Y153723D01*
X473273Y154399D01*
X471900Y154816D01*
X470472Y154956D01*
D02*
G37*
%LPD*%
D29*
Y442392D02*
D03*
Y408927D02*
D03*
D70*
X386270Y164026D02*
Y321092D01*
X379724Y157480D02*
X386270Y164026D01*
X310780Y441004D02*
X310902Y440882D01*
Y432974D02*
Y440882D01*
Y432974D02*
X311024Y432853D01*
X274606Y379921D02*
Y389764D01*
X272819Y406076D02*
X277320Y401575D01*
X272819Y406076D02*
Y410252D01*
X259842Y423228D02*
X272819Y410252D01*
X259842Y423228D02*
Y430332D01*
X244151Y446024D02*
X259842Y430332D01*
X261811Y429134D02*
Y436670D01*
X261811Y429134D02*
X261811Y429134D01*
X263779Y425366D02*
Y435855D01*
X265748Y435039D02*
X278543Y447835D01*
X265748Y426181D02*
Y435039D01*
X281271Y453346D02*
X334395D01*
X261811Y436670D02*
X280456Y455315D01*
X296373Y447835D02*
X299916Y444291D01*
X278543Y447835D02*
X296373D01*
X263779Y435855D02*
X281271Y453346D01*
X261811Y424550D02*
Y429134D01*
X265748Y426181D02*
X267717Y424213D01*
X280456Y455315D02*
X316929D01*
X278244Y401575D02*
X280735Y404066D01*
X277320Y401575D02*
X278244D01*
X257203Y416024D02*
X269685Y403543D01*
X244151Y416024D02*
X257203D01*
X277782Y405289D02*
Y414010D01*
X280735Y404066D02*
Y417098D01*
X280511Y417322D02*
X280735Y417098D01*
X271517Y420276D02*
X277782Y414010D01*
X272819Y422244D02*
X276911Y426336D01*
X266901Y422244D02*
X272819D01*
X270260Y424213D02*
X272974Y426927D01*
X267717Y424213D02*
X270260D01*
X266086Y420276D02*
X271517D01*
X261811Y424550D02*
X266086Y420276D01*
X263779Y425366D02*
X266901Y422244D01*
X299916Y444291D02*
X319783D01*
X370079Y351526D02*
X377953D01*
X337992Y443347D02*
X342520Y438819D01*
X328307Y443347D02*
X337992D01*
X334395Y453346D02*
X337992Y449749D01*
X333896Y433846D02*
X336339Y431402D01*
X330229Y433846D02*
X333896D01*
X319783Y444291D02*
X330229Y433846D01*
X300549Y447835D02*
X323819D01*
X328307Y443347D01*
X336339Y431402D02*
X338551D01*
X341135Y428819D01*
X342520D01*
X346602Y423715D02*
X349016Y426128D01*
X337624Y423715D02*
X346602D01*
X332520Y428819D02*
X337624Y423715D01*
X349016Y426128D02*
Y438726D01*
X344488Y464567D02*
X350984Y458071D01*
X344395Y414291D02*
X350984Y420881D01*
X343923Y443819D02*
X349016Y438726D01*
X350984Y420881D02*
Y458071D01*
X337992Y446944D02*
X341117Y443819D01*
X337992Y446944D02*
Y449749D01*
X341117Y443819D02*
X343923D01*
X332520Y417899D02*
X336127Y414291D01*
X332520Y417899D02*
Y418819D01*
X336127Y414291D02*
X344395D01*
X326181Y464567D02*
X344488D01*
X316929Y455315D02*
X326181Y464567D01*
X269037Y427165D02*
Y427404D01*
X281159Y437894D02*
X287163Y443898D01*
X279526Y437894D02*
X281159D01*
X269037Y427404D02*
X279526Y437894D01*
X289607Y443898D02*
X291457Y442048D01*
X287163Y443898D02*
X289607D01*
X272974Y426927D02*
Y427165D01*
X295275Y294675D02*
Y342663D01*
X286417Y404527D02*
X295275Y395669D01*
Y368399D02*
Y395669D01*
Y368399D02*
X296260Y367414D01*
Y343648D02*
Y367414D01*
X295275Y342663D02*
X296260Y343648D01*
X298228Y294505D02*
Y368229D01*
X297243Y369214D02*
Y404528D01*
X298228Y294505D02*
X314961Y277773D01*
X297243Y369214D02*
X298228Y368229D01*
X290453Y324902D02*
X291339Y324016D01*
X314961Y241004D02*
Y277773D01*
X295275Y294675D02*
X312992Y276958D01*
Y250000D02*
Y276958D01*
X312008Y249016D02*
X312992Y250000D01*
X312008Y222787D02*
Y249016D01*
Y222787D02*
X314961Y219835D01*
Y199862D02*
Y219835D01*
X295276Y428925D02*
Y440705D01*
X293426Y442554D02*
X295276Y440705D01*
X293426Y442554D02*
Y442863D01*
X290423Y445866D02*
X293426Y442863D01*
X291457Y441739D02*
Y442048D01*
Y441739D02*
X293307Y439889D01*
Y428110D02*
Y439889D01*
X286348Y445866D02*
X290423D01*
X288385Y440944D02*
X291339Y437991D01*
X281705Y441223D02*
X286348Y445866D01*
X278920Y441223D02*
X281705D01*
X278543Y440846D02*
X278920Y441223D01*
X293307Y427553D02*
Y428110D01*
X291339Y426181D02*
Y437991D01*
X295276Y428925D02*
X321654Y402548D01*
Y288642D02*
Y402548D01*
X293307Y427553D02*
X319291Y401569D01*
Y327126D02*
Y401569D01*
X291339Y426181D02*
X316929Y400591D01*
Y366053D02*
Y400591D01*
X314961Y281949D02*
X321654Y288642D01*
X314961Y322795D02*
X319291Y327126D01*
X314961Y364085D02*
X316929Y366053D01*
D73*
X110236Y396024D02*
D03*
X470472Y305118D02*
D03*
X110236Y488189D02*
D03*
X470472Y489173D02*
D03*
Y147638D02*
D03*
X110236D02*
D03*
D74*
X139764Y443898D02*
D03*
Y365305D02*
D03*
Y201083D02*
D03*
Y242224D02*
D03*
X139610Y283169D02*
D03*
Y324016D02*
D03*
D75*
X139764Y424213D02*
D03*
Y345620D02*
D03*
Y181398D02*
D03*
Y222539D02*
D03*
X139610Y263484D02*
D03*
Y304331D02*
D03*
D76*
X183071Y363337D02*
D03*
X210630D02*
D03*
X255906D02*
D03*
X183071Y199114D02*
D03*
X210630D02*
D03*
X255906D02*
D03*
X183071Y240256D02*
D03*
X210630D02*
D03*
X255906D02*
D03*
X182917Y281201D02*
D03*
X210476D02*
D03*
X255752D02*
D03*
X182917Y322047D02*
D03*
X210476D02*
D03*
X255752D02*
D03*
D77*
X255906Y344833D02*
D03*
Y180610D02*
D03*
Y221752D02*
D03*
X255752Y262697D02*
D03*
Y303543D02*
D03*
D78*
X442598Y173356D02*
D03*
Y271781D02*
D03*
D79*
X448189Y206388D02*
D03*
Y217175D02*
D03*
Y227963D02*
D03*
Y238750D02*
D03*
X437008Y200994D02*
D03*
Y211782D02*
D03*
Y222569D02*
D03*
Y233356D02*
D03*
Y244144D02*
D03*
D80*
X332520Y418819D02*
D03*
Y428819D02*
D03*
Y438819D02*
D03*
Y448819D02*
D03*
X342520Y418819D02*
D03*
Y428819D02*
D03*
Y438819D02*
D03*
Y448819D02*
D03*
Y458819D02*
D03*
X244151Y436024D02*
D03*
Y426024D02*
D03*
Y416024D02*
D03*
Y406024D02*
D03*
Y446024D02*
D03*
D81*
X332520Y458819D02*
D03*
X244151Y396024D02*
D03*
D82*
X187992Y423228D02*
D03*
D83*
X178150D02*
D03*
D84*
X386270Y321092D02*
D03*
X379724Y157480D02*
D03*
X187992Y393223D02*
D03*
X370079Y460630D02*
D03*
X310780Y441004D02*
D03*
X311024Y432853D02*
D03*
X274606Y379921D02*
D03*
Y389764D02*
D03*
X269685Y403543D02*
D03*
X277782Y405289D02*
D03*
X178150Y456693D02*
D03*
X206693Y446850D02*
D03*
X202756Y476378D02*
D03*
X169291Y446850D02*
D03*
X278543Y391732D02*
D03*
X291457Y458661D02*
D03*
X280848D02*
D03*
X276911Y471496D02*
D03*
X220472Y415354D02*
D03*
X383809Y382136D02*
D03*
X403937Y351526D02*
D03*
X390846Y228346D02*
D03*
X377953Y351526D02*
D03*
X370079D02*
D03*
X300549Y447835D02*
D03*
X269037Y427165D02*
D03*
X290453Y324902D02*
D03*
X297243Y404528D02*
D03*
X288385Y440944D02*
D03*
X276911Y426336D02*
D03*
X272974Y427165D02*
D03*
X278543Y440846D02*
D03*
X286618Y428149D02*
D03*
X288385Y417322D02*
D03*
X286417Y404527D02*
D03*
X280511Y417322D02*
D03*
X314961Y322795D02*
D03*
Y199862D02*
D03*
Y241004D02*
D03*
Y281949D02*
D03*
Y364085D02*
D03*
X289370Y354380D02*
D03*
X293307Y201969D02*
D03*
X289370Y190157D02*
D03*
X293307Y243110D02*
D03*
X289370Y231299D02*
D03*
X293154Y284055D02*
D03*
X289216Y272244D02*
D03*
Y313090D02*
D03*
X293307Y366191D02*
D03*
D85*
X452756Y165354D02*
D03*
X456693Y173228D02*
D03*
X452756Y181103D02*
D03*
X476378Y480315D02*
D03*
X472441Y472441D02*
D03*
X476378Y464567D02*
D03*
X472441Y456693D02*
D03*
X476378Y448819D02*
D03*
Y433071D02*
D03*
Y417323D02*
D03*
Y401575D02*
D03*
X472441Y393701D02*
D03*
X476378Y385827D02*
D03*
X472441Y377953D02*
D03*
X476378Y370079D02*
D03*
X472441Y362205D02*
D03*
X476378Y354331D02*
D03*
X472441Y346457D02*
D03*
X476378Y338583D02*
D03*
X472441Y330709D02*
D03*
X476378Y322835D02*
D03*
Y291339D02*
D03*
X472441Y283465D02*
D03*
X476378Y275591D02*
D03*
X472441Y267717D02*
D03*
X476378Y259843D02*
D03*
X472441Y251969D02*
D03*
X476378Y244095D02*
D03*
X472441Y236221D02*
D03*
X476378Y228347D02*
D03*
X472441Y220473D02*
D03*
X476378Y212598D02*
D03*
X472441Y204725D02*
D03*
X476378Y196851D02*
D03*
X472441Y188977D02*
D03*
X476378Y181103D02*
D03*
X472441Y173228D02*
D03*
X476378Y165354D02*
D03*
X464567Y472441D02*
D03*
X468504Y464567D02*
D03*
X464567Y456693D02*
D03*
X468504Y448819D02*
D03*
Y433071D02*
D03*
Y417323D02*
D03*
Y401575D02*
D03*
X464567Y393701D02*
D03*
X468504Y385827D02*
D03*
X464567Y377953D02*
D03*
X468504Y370079D02*
D03*
X464567Y362205D02*
D03*
X468504Y354331D02*
D03*
X464567Y346457D02*
D03*
X468504Y338583D02*
D03*
X464567Y330709D02*
D03*
X468504Y322835D02*
D03*
X464567Y314961D02*
D03*
X468504Y291339D02*
D03*
X464567Y283465D02*
D03*
X468504Y275591D02*
D03*
X464567Y267717D02*
D03*
X468504Y259843D02*
D03*
X464567Y251969D02*
D03*
X468504Y244095D02*
D03*
X464567Y236221D02*
D03*
X468504Y228347D02*
D03*
X464567Y220473D02*
D03*
X468504Y212598D02*
D03*
X464567Y204725D02*
D03*
X468504Y196851D02*
D03*
X464567Y188977D02*
D03*
X468504Y181103D02*
D03*
X464567Y173228D02*
D03*
X468504Y165354D02*
D03*
X464567Y157480D02*
D03*
X456693Y488189D02*
D03*
X460630Y480315D02*
D03*
X456693Y472441D02*
D03*
X460630Y464567D02*
D03*
X456693Y456693D02*
D03*
X460630Y448819D02*
D03*
X456693Y440945D02*
D03*
X460630Y433071D02*
D03*
Y417323D02*
D03*
X456693Y409449D02*
D03*
X460630Y401575D02*
D03*
X456693Y393701D02*
D03*
X460630Y385827D02*
D03*
X456693Y377953D02*
D03*
X460630Y370079D02*
D03*
X456693Y362205D02*
D03*
X460630Y354331D02*
D03*
X456693Y346457D02*
D03*
X460630Y338583D02*
D03*
X456693Y330709D02*
D03*
X460630Y322835D02*
D03*
X456693Y314961D02*
D03*
Y299213D02*
D03*
X460630Y291339D02*
D03*
X456693Y283465D02*
D03*
X460630Y275591D02*
D03*
X456693Y267717D02*
D03*
X460630Y259843D02*
D03*
X456693Y251969D02*
D03*
X460630Y244095D02*
D03*
X456693Y236221D02*
D03*
X460630Y228347D02*
D03*
X456693Y220473D02*
D03*
X460630Y212598D02*
D03*
X456693Y204725D02*
D03*
X460630Y196851D02*
D03*
X456693Y188977D02*
D03*
X460630Y181103D02*
D03*
Y165354D02*
D03*
X456693Y157480D02*
D03*
Y141732D02*
D03*
X448819Y488189D02*
D03*
X452756Y480315D02*
D03*
X448819Y472441D02*
D03*
X452756Y464567D02*
D03*
X448819Y456693D02*
D03*
X452756Y448819D02*
D03*
Y417323D02*
D03*
X448819Y409449D02*
D03*
X452756Y401575D02*
D03*
X448819Y393701D02*
D03*
X452756Y385827D02*
D03*
X448819Y377953D02*
D03*
X452756Y370079D02*
D03*
X448819Y362205D02*
D03*
X452756Y354331D02*
D03*
X448819Y346457D02*
D03*
X452756Y338583D02*
D03*
X448819Y330709D02*
D03*
X452756Y322835D02*
D03*
X448819Y314961D02*
D03*
X452756Y307087D02*
D03*
X448819Y299213D02*
D03*
X452756Y291339D02*
D03*
X448819Y283465D02*
D03*
X452756Y259843D02*
D03*
X448819Y251969D02*
D03*
X452756Y196851D02*
D03*
X448819Y188977D02*
D03*
Y157480D02*
D03*
X452756Y149606D02*
D03*
X448819Y141732D02*
D03*
X440945Y488189D02*
D03*
X444882Y480315D02*
D03*
X440945Y472441D02*
D03*
X444882Y464567D02*
D03*
X440945Y456693D02*
D03*
X444882Y448819D02*
D03*
X440945Y440945D02*
D03*
X444882Y417323D02*
D03*
X440945Y409449D02*
D03*
X444882Y401575D02*
D03*
X440945Y393701D02*
D03*
X444882Y385827D02*
D03*
X440945Y377953D02*
D03*
X444882Y370079D02*
D03*
X440945Y362205D02*
D03*
X444882Y354331D02*
D03*
Y338583D02*
D03*
X440945Y330709D02*
D03*
X444882Y322835D02*
D03*
Y307087D02*
D03*
X440945Y299213D02*
D03*
X444882Y291339D02*
D03*
X440945Y251969D02*
D03*
X444882Y196851D02*
D03*
X440945Y188977D02*
D03*
Y157480D02*
D03*
X444882Y149606D02*
D03*
X440945Y141732D02*
D03*
X433071Y488189D02*
D03*
X437008Y480315D02*
D03*
X433071Y472441D02*
D03*
X437008Y464567D02*
D03*
X433071Y456693D02*
D03*
X437008Y448819D02*
D03*
X433071Y440945D02*
D03*
X437008Y433071D02*
D03*
X433071Y425197D02*
D03*
X437008Y417323D02*
D03*
X433071Y409449D02*
D03*
X437008Y401575D02*
D03*
X433071Y393701D02*
D03*
X437008Y385827D02*
D03*
X433071Y377953D02*
D03*
X437008Y370079D02*
D03*
X433071Y362205D02*
D03*
X437008Y338583D02*
D03*
X433071Y330709D02*
D03*
X437008Y307087D02*
D03*
X433071Y299213D02*
D03*
X437008Y291339D02*
D03*
X433071Y283465D02*
D03*
X437008Y259843D02*
D03*
X433071Y251969D02*
D03*
Y188977D02*
D03*
Y157480D02*
D03*
X437008Y149606D02*
D03*
X433071Y141732D02*
D03*
X429134Y480315D02*
D03*
Y464567D02*
D03*
Y448819D02*
D03*
Y433071D02*
D03*
Y417323D02*
D03*
Y401575D02*
D03*
Y385827D02*
D03*
Y370079D02*
D03*
Y354331D02*
D03*
Y338583D02*
D03*
X425197Y314961D02*
D03*
X429134Y307087D02*
D03*
X425197Y299213D02*
D03*
X429134Y291339D02*
D03*
X425197Y283465D02*
D03*
X429134Y275591D02*
D03*
X425197Y267717D02*
D03*
X429134Y259843D02*
D03*
X425197Y251969D02*
D03*
X429134Y228347D02*
D03*
Y212598D02*
D03*
Y196851D02*
D03*
Y181103D02*
D03*
Y165354D02*
D03*
Y149606D02*
D03*
M02*
