G04*
G04 #@! TF.GenerationSoftware,Altium Limited,Altium Designer,19.0.15 (446)*
G04*
G04 Layer_Color=16711935*
%FSLAX25Y25*%
%MOIN*%
G70*
G01*
G75*
%ADD87C,0.00394*%
D87*
X277206Y417323D02*
G03*
X277206Y417323I-1969J0D01*
G01*
X195472Y423228D02*
G03*
X195472Y423228I-12402J0D01*
G01*
X118111Y453742D02*
X159843D01*
Y414370D02*
Y453742D01*
X118111Y414370D02*
X159843D01*
X118111D02*
Y453742D01*
X266535Y350167D02*
Y360758D01*
Y350167D02*
X272835D01*
X266535Y360758D02*
X272835D01*
Y350167D02*
Y360758D01*
X179331Y339518D02*
X260039D01*
X179331D02*
Y367864D01*
X260039D01*
Y339518D02*
Y367864D01*
X118111Y375149D02*
X159843D01*
Y335778D02*
Y375149D01*
X118111Y335778D02*
X159843D01*
X118111D02*
Y375149D01*
X292913Y345128D02*
Y350443D01*
X301575Y345128D02*
Y350443D01*
X292913D02*
X301575D01*
X292913Y345128D02*
X301575D01*
X278937Y345778D02*
X284055D01*
Y357274D01*
X278937D02*
X284055D01*
X278937Y345778D02*
Y357274D01*
X301575Y352805D02*
Y358120D01*
X292913Y352805D02*
Y358120D01*
Y352805D02*
X301575D01*
X292913Y358120D02*
X301575D01*
X294094Y361762D02*
X300394D01*
X294095Y364912D02*
X300394D01*
X294094Y361762D02*
Y364911D01*
X300394Y361762D02*
Y364912D01*
X387598Y327362D02*
X407283D01*
X387598Y347047D02*
X407283D01*
Y327362D02*
Y347047D01*
X387598Y327362D02*
Y347047D01*
X271694Y413780D02*
X297678D01*
X271694Y431496D02*
X297678D01*
X271694Y413780D02*
Y431496D01*
X297678Y413780D02*
Y431496D01*
X288442Y454528D02*
X294151D01*
X288442Y445866D02*
X294151D01*
Y454528D01*
X288442Y445866D02*
Y454528D01*
X277993D02*
X283702D01*
X277993Y445866D02*
X283702D01*
Y454528D01*
X277993Y445866D02*
Y454528D01*
X280553Y390748D02*
X286261D01*
X280553Y399410D02*
X286261D01*
X280553Y390748D02*
Y399410D01*
X286261Y390748D02*
Y399410D01*
X461614Y406959D02*
Y410896D01*
Y440423D02*
Y444360D01*
X514566Y415226D02*
Y436093D01*
X517716Y415423D02*
Y435896D01*
X514566Y415226D02*
X517519D01*
X517716Y415423D01*
X512499Y413159D02*
X514566Y415226D01*
X512499Y438160D02*
X514566Y436093D01*
X517519D02*
X517716Y435896D01*
X514566Y436093D02*
X517519D01*
X512499Y413159D02*
Y438160D01*
X501672Y413159D02*
Y438160D01*
X499605Y415226D02*
X501672Y413159D01*
X499605Y436093D02*
X501672Y438160D01*
Y413159D02*
X512499D01*
X501672Y438160D02*
X512499D01*
X499605Y415226D02*
Y436093D01*
X487007Y415226D02*
X499605D01*
X487007Y436093D02*
X499605D01*
X480315Y406959D02*
X487007Y406959D01*
Y444361D01*
X480314D02*
X487007D01*
X461614Y410896D02*
X480315D01*
X461614Y440423D02*
X480315D01*
X461614Y423848D02*
X480315D01*
X461614Y427470D02*
X480315D01*
X461614Y406959D02*
X480315Y406959D01*
X461614Y444360D02*
X480315Y444360D01*
Y406959D02*
Y444360D01*
X461614Y423848D02*
Y427470D01*
X202165Y453937D02*
Y460236D01*
X205315Y453937D02*
Y460236D01*
X202165Y460236D02*
X205315D01*
X202166Y453937D02*
X205315D01*
X385236Y401132D02*
X390551D01*
X385236Y392471D02*
X390551D01*
Y401132D01*
X385236Y392471D02*
Y401132D01*
X377067D02*
X382382D01*
X377067Y392471D02*
X382382D01*
Y401132D01*
X377067Y392471D02*
Y401132D01*
X201083Y474803D02*
X206398D01*
X201083Y466142D02*
X206398D01*
Y474803D01*
X201083Y466142D02*
Y474803D01*
X389469Y381840D02*
Y388140D01*
X386319Y381841D02*
Y388140D01*
X386319Y381840D02*
X389469D01*
X386319Y388140D02*
X389468D01*
X381299Y381840D02*
Y388140D01*
X378149Y381841D02*
Y388140D01*
X378150Y381840D02*
X381299D01*
X378149Y388140D02*
X381299D01*
X320984Y398858D02*
X355551D01*
X320984D02*
Y478780D01*
X355551Y398858D02*
Y478780D01*
X320984D02*
X355551D01*
X239248Y390531D02*
Y451516D01*
X249053Y390531D02*
Y451516D01*
X239248D02*
X249053D01*
X239248Y390531D02*
X249053D01*
X233226Y443366D02*
Y448681D01*
X224564Y443366D02*
Y448681D01*
Y443366D02*
X233226D01*
X224564Y448681D02*
X233226D01*
X219515Y403189D02*
X230106D01*
Y409488D01*
X219515Y403189D02*
Y409488D01*
X230106D01*
X414945Y356545D02*
X420260D01*
X414945Y365207D02*
X420260D01*
X414945Y356545D02*
Y365207D01*
X420260Y356545D02*
Y365207D01*
X172933Y401968D02*
X179429D01*
X172933Y389370D02*
X179429D01*
Y401968D01*
X172933Y389370D02*
Y401968D01*
X223482Y412638D02*
Y417953D01*
X232143Y412638D02*
Y417953D01*
X223482D02*
X232143D01*
X223482Y412638D02*
X232143D01*
X409842Y229675D02*
Y234990D01*
X401181Y229675D02*
Y234990D01*
Y229675D02*
X409842D01*
X401181Y234990D02*
X409842D01*
Y221801D02*
Y227116D01*
X401181Y221801D02*
Y227116D01*
Y221801D02*
X409842D01*
X401181Y227116D02*
X409842D01*
X170453Y463169D02*
X196870D01*
X170453Y477776D02*
X196870D01*
X170453Y463169D02*
Y477776D01*
X196870Y463169D02*
Y477776D01*
X390551Y230758D02*
X396850D01*
X390551Y233908D02*
X396851D01*
X390551Y230758D02*
Y233908D01*
X396851Y230758D02*
Y233908D01*
X390551Y222884D02*
X396850D01*
X390551Y226034D02*
X396851D01*
X390551Y222884D02*
Y226033D01*
X396851Y222884D02*
Y226034D01*
X171457Y443307D02*
Y450394D01*
X184843Y443307D02*
Y450394D01*
X171457D02*
X184843D01*
X171457Y443307D02*
X184843D01*
X204921Y443307D02*
Y450394D01*
X191535Y443307D02*
Y450394D01*
Y443307D02*
X204921D01*
X191535Y450394D02*
X204921D01*
X184843Y390374D02*
Y400965D01*
Y390374D02*
X191142D01*
X184843Y400965D02*
X191142D01*
Y390374D02*
Y400965D01*
X301575Y188583D02*
Y193898D01*
X292913Y188583D02*
Y193898D01*
Y188583D02*
X301575D01*
X292913Y193898D02*
X301575D01*
Y229724D02*
Y235039D01*
X292913Y229724D02*
Y235039D01*
Y229724D02*
X301575D01*
X292913Y235039D02*
X301575D01*
X301421Y270669D02*
Y275984D01*
X292760Y270669D02*
Y275984D01*
Y270669D02*
X301421D01*
X292760Y275984D02*
X301421D01*
Y311516D02*
Y316831D01*
X292760Y311516D02*
Y316831D01*
Y311516D02*
X301421D01*
X292760Y316831D02*
X301421D01*
X292913Y180905D02*
Y186221D01*
X301575Y180905D02*
Y186221D01*
X292913D02*
X301575D01*
X292913Y180905D02*
X301575D01*
X292913Y222047D02*
Y227362D01*
X301575Y222047D02*
Y227362D01*
X292913D02*
X301575D01*
X292913Y222047D02*
X301575D01*
X292760Y262992D02*
Y268307D01*
X301421Y262992D02*
Y268307D01*
X292760D02*
X301421D01*
X292760Y262992D02*
X301421D01*
X292760Y303839D02*
Y309154D01*
X301421Y303839D02*
Y309154D01*
X292760D02*
X301421D01*
X292760Y303839D02*
X301421D01*
X278937Y181555D02*
X284055D01*
Y193051D01*
X278937D02*
X284055D01*
X278937Y181555D02*
Y193051D01*
Y222697D02*
X284055D01*
Y234193D01*
X278937D02*
X284055D01*
X278937Y222697D02*
Y234193D01*
X278783Y263642D02*
X283902D01*
Y275138D01*
X278783D02*
X283902D01*
X278783Y263642D02*
Y275138D01*
Y304488D02*
X283902D01*
Y315984D01*
X278783D02*
X283902D01*
X278783Y304488D02*
Y315984D01*
X118111Y210927D02*
X159843D01*
Y171555D02*
Y210927D01*
X118111Y171555D02*
X159843D01*
X118111D02*
Y210927D01*
Y252068D02*
X159843D01*
Y212697D02*
Y252068D01*
X118111Y212697D02*
X159843D01*
X118111D02*
Y252068D01*
X117957Y293013D02*
X159690D01*
Y253642D02*
Y293013D01*
X117957Y253642D02*
X159690D01*
X117957D02*
Y293013D01*
Y333860D02*
X159690D01*
Y294488D02*
Y333860D01*
X117957Y294488D02*
X159690D01*
X117957D02*
Y333860D01*
X179331Y175295D02*
X260039D01*
X179331D02*
Y203642D01*
X260039D01*
Y175295D02*
Y203642D01*
X179331Y216437D02*
X260039D01*
X179331D02*
Y244783D01*
X260039D01*
Y216437D02*
Y244783D01*
X179177Y257382D02*
X259886D01*
X179177D02*
Y285728D01*
X259886D01*
Y257382D02*
Y285728D01*
X179177Y298228D02*
X259886D01*
X179177D02*
Y326575D01*
X259886D01*
Y298228D02*
Y326575D01*
X294094Y197539D02*
X300394D01*
X294095Y200689D02*
X300394D01*
X294094Y197539D02*
Y200689D01*
X300394Y197540D02*
Y200689D01*
X294094Y238681D02*
X300394D01*
X294095Y241831D02*
X300394D01*
X294094Y238681D02*
Y241831D01*
X300394Y238681D02*
Y241831D01*
X293941Y279626D02*
X300240D01*
X293941Y282776D02*
X300240D01*
X293941Y279626D02*
Y282776D01*
X300240Y279626D02*
Y282776D01*
X293941Y320472D02*
X300240D01*
X293941Y323622D02*
X300240D01*
X293941Y320472D02*
Y323622D01*
X300240Y320473D02*
Y323622D01*
X266535Y185945D02*
Y196535D01*
Y185945D02*
X272835D01*
X266535Y196535D02*
X272835D01*
Y185945D02*
Y196535D01*
X266535Y227087D02*
Y237677D01*
Y227087D02*
X272835D01*
X266535Y237677D02*
X272835D01*
Y227087D02*
Y237677D01*
X266382Y268032D02*
Y278622D01*
Y268032D02*
X272681D01*
X266382Y278622D02*
X272681D01*
Y268032D02*
Y278622D01*
X266382Y308878D02*
Y319468D01*
Y308878D02*
X272681D01*
X266382Y319468D02*
X272681D01*
Y308878D02*
Y319468D01*
M02*
