G04*
G04 #@! TF.GenerationSoftware,Altium Limited,Altium Designer,19.0.15 (446)*
G04*
G04 Layer_Color=16711935*
%FSLAX25Y25*%
%MOIN*%
G70*
G01*
G75*
%ADD10C,0.00500*%
%ADD12C,0.00394*%
D10*
X59449Y2559D02*
Y26969D01*
X35039D02*
X59449D01*
X35039Y2559D02*
Y26969D01*
Y2559D02*
X59449D01*
X148031D02*
Y26969D01*
X123622D02*
X148031D01*
X123622Y2559D02*
Y26969D01*
Y2559D02*
X148031D01*
X226772D02*
Y26969D01*
X202362D02*
X226772D01*
X202362Y2559D02*
Y26969D01*
Y2559D02*
X226772D01*
D12*
X120709Y77362D02*
G03*
X120709Y77362I-1969J0D01*
G01*
X93799Y39764D02*
X99114D01*
X93799Y31102D02*
X99114D01*
Y39764D01*
X93799Y31102D02*
Y39764D01*
X231398Y27953D02*
X237106D01*
X231398Y19291D02*
X237106D01*
Y27953D01*
X231398Y19291D02*
Y27953D01*
X102126Y34449D02*
X114409D01*
X102126Y40354D02*
X114409D01*
X102126Y34449D02*
Y40354D01*
X114409Y34449D02*
Y40354D01*
X94941Y7185D02*
Y12500D01*
X86279Y7185D02*
Y12500D01*
Y7185D02*
X94941D01*
X86279Y12500D02*
X94941D01*
X151919Y27953D02*
X157628D01*
X151919Y19291D02*
X157628D01*
Y27953D01*
X151919Y19291D02*
Y27953D01*
X94941Y-689D02*
Y4626D01*
X86279Y-689D02*
Y4626D01*
Y-689D02*
X94941D01*
X86279Y4626D02*
X94941D01*
X100000Y18996D02*
X108661D01*
X100000Y24311D02*
X108661D01*
X100000Y18996D02*
Y24311D01*
X108661Y18996D02*
Y24311D01*
X112598Y5020D02*
Y10728D01*
X103937Y5020D02*
Y10728D01*
Y5020D02*
X112598D01*
X103937Y10728D02*
X112598D01*
X86279Y15059D02*
Y20374D01*
X94941Y15059D02*
Y20374D01*
X86279D02*
X94941D01*
X86279Y15059D02*
X94941D01*
X64075Y27953D02*
X69784D01*
X64075Y19291D02*
X69784D01*
Y27953D01*
X64075Y19291D02*
Y27953D01*
X70079Y-1358D02*
Y9232D01*
X63779D02*
X70079D01*
X63779Y-1358D02*
X70079D01*
X63779D02*
Y9232D01*
X157923Y-1358D02*
Y9232D01*
X151624D02*
X157923D01*
X151624Y-1358D02*
X157923D01*
X151624D02*
Y9232D01*
X237402Y-1358D02*
Y9232D01*
X231102D02*
X237402D01*
X231102Y-1358D02*
X237402D01*
X231102D02*
Y9232D01*
X167717Y1575D02*
X174803D01*
X167717Y14961D02*
X174803D01*
X167717Y1575D02*
Y14961D01*
X174803Y1575D02*
Y14961D01*
X167717Y23858D02*
X174803D01*
X167717Y37244D02*
X174803D01*
X167717Y23858D02*
Y37244D01*
X174803Y23858D02*
Y37244D01*
X191339Y23858D02*
X198425D01*
X191339Y37244D02*
X198425D01*
X191339Y23858D02*
Y37244D01*
X198425Y23858D02*
Y37244D01*
X81284Y27953D02*
Y35827D01*
X86205Y27953D02*
Y35827D01*
X81284Y27953D02*
X86205D01*
X81284Y35827D02*
X86205D01*
X81284Y29134D02*
X86206D01*
X81284Y34646D02*
X86206D01*
X74394Y27953D02*
Y35827D01*
X79316Y27953D02*
Y35827D01*
X74394Y27953D02*
X79316D01*
X74394Y35827D02*
X79316D01*
X74395Y29134D02*
X79316D01*
X74395Y34646D02*
X79316D01*
X9035Y39370D02*
X14350D01*
X9035Y48031D02*
X14350D01*
X9035Y39370D02*
Y48031D01*
X14350Y39370D02*
Y48031D01*
X179528Y23858D02*
X186614D01*
X179528Y37244D02*
X186614D01*
X179528Y23858D02*
Y37244D01*
X186614Y23858D02*
Y37244D01*
X159843Y66339D02*
Y72047D01*
X151181Y66339D02*
Y72047D01*
Y66339D02*
X159843D01*
X151181Y72047D02*
X159843D01*
X115197Y54921D02*
Y80905D01*
X132913Y54921D02*
Y80905D01*
X115197D02*
X132913D01*
X115197Y54921D02*
X132913D01*
X191339Y1575D02*
X198425D01*
X191339Y14961D02*
X198425D01*
X191339Y1575D02*
Y14961D01*
X198425Y1575D02*
Y14961D01*
X122146Y150984D02*
X127854D01*
X122146Y142323D02*
X127854D01*
Y150984D01*
X122146Y142323D02*
Y150984D01*
X14961Y86151D02*
Y96742D01*
X8661D02*
X14961D01*
X8661Y86151D02*
X14961D01*
X8661D02*
Y96742D01*
X3918Y39469D02*
Y100453D01*
X-5887Y39469D02*
Y100453D01*
Y39469D02*
X3918Y39469D01*
X-5887Y100453D02*
X3918D01*
X14469Y67520D02*
Y76181D01*
X9154Y67520D02*
Y76181D01*
X14469D01*
X9154Y67520D02*
X14469D01*
X42618Y66535D02*
X47933D01*
X42618Y75197D02*
X47933D01*
X42618Y66535D02*
Y75197D01*
X47933Y66535D02*
Y75197D01*
X33268Y62618D02*
Y73209D01*
Y62618D02*
X39567D01*
X33268Y73209D02*
X39567D01*
Y62618D02*
Y73209D01*
X179528Y1575D02*
X186614D01*
X179528Y14961D02*
X186614D01*
X179528Y1575D02*
Y14961D01*
X186614Y1575D02*
Y14961D01*
X88189Y64665D02*
Y70374D01*
X96850Y64665D02*
Y70374D01*
X88189D02*
X96850D01*
X88189Y64665D02*
X96850D01*
X81087Y51968D02*
X86402D01*
X81087Y43307D02*
X86402D01*
Y51968D01*
X81087Y43307D02*
Y51968D01*
X74198Y43307D02*
Y51968D01*
X79513Y43307D02*
Y51968D01*
X74198Y43307D02*
X79513D01*
X74198Y51968D02*
X79513D01*
M02*
