G04*
G04 #@! TF.GenerationSoftware,Altium Limited,Altium Designer,19.0.15 (446)*
G04*
G04 Layer_Physical_Order=1*
G04 Layer_Color=255*
%FSLAX25Y25*%
%MOIN*%
G70*
G01*
G75*
%ADD15C,0.00787*%
%ADD17R,0.05118X0.03347*%
%ADD18R,0.06102X0.05315*%
%ADD19R,0.03937X0.05512*%
%ADD20R,0.03347X0.05118*%
%ADD21R,0.01968X0.03740*%
%ADD22R,0.05315X0.06102*%
%ADD23R,0.04803X0.03602*%
%ADD24R,0.07480X0.05315*%
%ADD25R,0.04921X0.04331*%
G04:AMPARAMS|DCode=26|XSize=62.99mil|YSize=31.5mil|CornerRadius=0mil|HoleSize=0mil|Usage=FLASHONLY|Rotation=350.000|XOffset=0mil|YOffset=0mil|HoleType=Round|Shape=Rectangle|*
%AMROTATEDRECTD26*
4,1,4,-0.03375,-0.01004,-0.02828,0.02098,0.03375,0.01004,0.02828,-0.02098,-0.03375,-0.01004,0.0*
%
%ADD26ROTATEDRECTD26*%

G04:AMPARAMS|DCode=27|XSize=100mil|YSize=59.06mil|CornerRadius=0mil|HoleSize=0mil|Usage=FLASHONLY|Rotation=350.000|XOffset=0mil|YOffset=0mil|HoleType=Round|Shape=Rectangle|*
%AMROTATEDRECTD27*
4,1,4,-0.05437,-0.02040,-0.04411,0.03776,0.05437,0.02040,0.04411,-0.03776,-0.05437,-0.02040,0.0*
%
%ADD27ROTATEDRECTD27*%

%ADD28R,0.05118X0.17717*%
%ADD29O,0.08268X0.01378*%
%ADD30R,0.09843X0.20079*%
%ADD51C,0.03937*%
%ADD52C,0.70079*%
%ADD53C,0.01575*%
%ADD54C,0.01968*%
%ADD55C,0.04724*%
%ADD56C,0.01181*%
%ADD57C,0.05906*%
%ADD58C,0.06299*%
%ADD59R,0.06299X0.06299*%
%ADD60C,0.03937*%
%ADD61C,0.19685*%
%ADD62C,0.02362*%
%ADD63C,0.03150*%
D15*
X226659Y17815D02*
X227362Y18518D01*
Y35410D01*
X211468Y51305D02*
X227362Y35410D01*
X60039Y19685D02*
X66929D01*
X60039D02*
Y50602D01*
Y5906D02*
Y19685D01*
X56102Y-984D02*
Y1969D01*
X59337Y51305D02*
X60039Y50602D01*
X56102Y1969D02*
X60039Y5906D01*
X57284Y51378D02*
X62992Y57087D01*
X21457Y51378D02*
X57284D01*
X57303Y53347D02*
X63209Y59252D01*
X21654Y53347D02*
X57303D01*
X56969Y54961D02*
X73760Y71752D01*
X23622Y54961D02*
X56969D01*
X56398Y56339D02*
X79488Y79429D01*
X25313Y56339D02*
X56398D01*
X63209Y59252D02*
X89606D01*
X62992Y57087D02*
X88583D01*
X73760Y71752D02*
X112638D01*
X79488Y79429D02*
X112638D01*
X223917Y-492D02*
Y15073D01*
X19685Y53150D02*
X21457Y51378D01*
X89961Y37908D02*
X105523Y53470D01*
X138356D01*
X89961Y35060D02*
Y37908D01*
X125984Y77795D02*
Y90469D01*
Y77795D02*
X132028Y71752D01*
X135472D01*
X102788Y74961D02*
X103438Y74311D01*
X102362Y74961D02*
X102788D01*
X103438Y74311D02*
X112638D01*
X103768Y69193D02*
X104331D01*
X129603Y80709D02*
X129904Y80407D01*
X130889D01*
X131868Y79429D01*
X135472D01*
X124606Y68568D02*
Y100984D01*
Y68568D02*
X128706Y64468D01*
X129075D01*
X132028Y61516D01*
X135472D01*
X120276Y60590D02*
Y117717D01*
X130312Y127753D01*
X116083Y56398D02*
X120276Y60590D01*
X121653Y61949D02*
Y105315D01*
X129320Y112981D01*
X121653Y61949D02*
X127205Y56398D01*
X123031Y62520D02*
Y103347D01*
X128352Y108667D01*
X123031Y62520D02*
X126595Y58957D01*
X124606Y100984D02*
X127365Y103743D01*
X112638Y76870D02*
X118110D01*
X127362Y78918D02*
X129411Y76870D01*
X127362Y78918D02*
Y89499D01*
X129411Y76870D02*
X135472D01*
X87264Y1083D02*
Y1969D01*
Y-4587D02*
Y1083D01*
X115748Y20472D02*
Y25689D01*
Y20472D02*
X118710Y17510D01*
Y3150D02*
Y17510D01*
X113986Y-1575D02*
X118710Y3150D01*
X91876Y-1575D02*
X113986D01*
X90498Y-197D02*
X91876Y-1575D01*
X88543Y-197D02*
X90498D01*
X87264Y1083D02*
X88543Y-197D01*
X90551Y-7874D02*
X148809D01*
X72894D02*
X90551D01*
X87264Y-4587D02*
X90551Y-7874D01*
X148809D02*
X228287D01*
X148809D02*
X154173Y-2510D01*
X154774D01*
X228287Y-7874D02*
X233652Y-2510D01*
X234252D01*
X67529D02*
X72894Y-7874D01*
X66929Y-2510D02*
X67529D01*
X66929Y10384D02*
Y19685D01*
X154774Y10384D02*
Y19685D01*
X144685Y-384D02*
Y9990D01*
Y-984D02*
Y-384D01*
Y9990D02*
X154380Y19685D01*
X234055Y19488D02*
X234252Y19291D01*
X234055Y19488D02*
X234252Y19685D01*
X232382Y17815D02*
X234055Y19488D01*
X226659Y17815D02*
X232382D01*
X234252Y10384D02*
Y19291D01*
X223917Y15073D02*
X226659Y17815D01*
X112638Y51305D02*
X211468D01*
X140591Y55705D02*
Y62402D01*
X138917Y64075D02*
X140591Y62402D01*
X135472Y64075D02*
X138917D01*
X118710Y25591D02*
X144685Y-384D01*
X138356Y53470D02*
X140591Y55705D01*
X104528Y33071D02*
Y33858D01*
X100886Y37500D02*
X104528Y33858D01*
X97736Y37500D02*
X100886D01*
X96457Y38780D02*
X97736Y37500D01*
X104331Y32874D02*
X104528Y33071D01*
X104331Y25689D02*
Y32874D01*
X101772Y14567D02*
X102067Y14272D01*
Y10138D02*
Y14272D01*
Y10138D02*
X104331Y7874D01*
X101772Y14567D02*
Y17618D01*
X101673Y17717D02*
X101772Y17618D01*
X93957Y17717D02*
X101673D01*
X93957Y9843D02*
Y17717D01*
Y1969D02*
Y9843D01*
Y17717D02*
X93957Y17717D01*
X87686Y54921D02*
X89480D01*
X94488Y59930D01*
Y62303D01*
X59337Y51305D02*
X63740Y55709D01*
X11693Y75079D02*
X12815D01*
X89606Y59252D02*
X90551Y60197D01*
X86898Y55709D02*
X87686Y54921D01*
X63740Y55709D02*
X86898D01*
X88583Y51249D02*
X96176Y58842D01*
Y59041D01*
X88583Y35631D02*
Y51249D01*
X103768Y66634D02*
X112638D01*
X96176Y59041D02*
X103768Y66634D01*
X100394Y60197D02*
X107867D01*
X85812Y30911D02*
X89961Y35060D01*
X85812Y28740D02*
Y30911D01*
X84040Y26969D02*
X85812Y28740D01*
X83745Y26969D02*
X84040D01*
X78740Y28740D02*
Y29528D01*
X76968Y26969D02*
X78740Y28740D01*
X76855Y26969D02*
X76968D01*
X78740Y29528D02*
X81102Y31890D01*
X84842D01*
X88583Y35631D01*
X15299Y131890D02*
Y137835D01*
X3622Y40354D02*
X11693D01*
X-984Y44961D02*
X3622Y40354D01*
X-984Y84961D02*
Y85699D01*
X11211Y97894D01*
X11811D01*
X21496Y57087D02*
X23622Y54961D01*
X19685Y61967D02*
X25313Y56339D01*
X19685Y61967D02*
Y68209D01*
X12815Y75079D02*
X19685Y68209D01*
X-7283Y51260D02*
Y65197D01*
Y51260D02*
X-984Y44961D01*
X-7283Y65197D02*
X-3386Y69095D01*
X728D01*
X3150Y66673D01*
Y62303D02*
Y66673D01*
Y62303D02*
X8366Y57087D01*
X21496D01*
X107867Y60197D02*
X109186Y61516D01*
X112638D01*
X98425Y57087D02*
X107323D01*
X109193Y58957D01*
X-5906Y53150D02*
Y60039D01*
X-984Y64961D01*
X-5906Y53150D02*
X-3583Y50827D01*
X7333D01*
X9656Y53150D01*
X19685D01*
X109193Y58957D02*
X112638D01*
X20039Y54961D02*
X21654Y53347D01*
X-984Y54961D02*
X20039D01*
X106299Y62992D02*
X106725D01*
X107695Y63962D01*
X112525D01*
X112638Y64075D01*
X83745Y34744D02*
Y44291D01*
X76855Y34744D02*
Y44291D01*
X112638Y56398D02*
X116083D01*
X130312Y127753D02*
X136155D01*
X136766Y128364D01*
X135472Y74311D02*
X138917D01*
X141929Y77323D01*
Y113102D01*
X136515Y118516D02*
X141929Y113102D01*
X135029Y118516D02*
X136515D01*
X127205Y56398D02*
X135472D01*
X129320Y112981D02*
X133551D01*
X134161Y113592D01*
X128352Y108667D02*
X133293D01*
X126595Y58957D02*
X135472D01*
X127365Y103743D02*
X132424D01*
X127362Y89499D02*
X128414Y90551D01*
X134161D01*
X135047Y91438D01*
Y96289D01*
X132517Y98819D02*
X135047Y96289D01*
X131556Y98819D02*
X132517D01*
X125984Y90469D02*
X129411Y93895D01*
X130688D01*
D17*
X96457Y38780D02*
D03*
Y32087D02*
D03*
X11693Y40354D02*
D03*
Y47047D02*
D03*
X11811Y75197D02*
D03*
Y68504D02*
D03*
X45276Y67520D02*
D03*
Y74213D02*
D03*
X83745Y50984D02*
D03*
Y44291D02*
D03*
X76855D02*
D03*
Y50984D02*
D03*
D18*
X234252Y27559D02*
D03*
Y19685D02*
D03*
X154774Y27559D02*
D03*
Y19685D02*
D03*
X66929Y27559D02*
D03*
Y19685D02*
D03*
X125000Y150591D02*
D03*
Y142717D02*
D03*
D19*
X104528Y33071D02*
D03*
X112008D02*
D03*
X108268Y41732D02*
D03*
D20*
X93957Y9843D02*
D03*
X87264D02*
D03*
X93957Y1969D02*
D03*
X87264D02*
D03*
X87264Y17717D02*
D03*
X93957D02*
D03*
D21*
X101772Y17618D02*
D03*
X106890D02*
D03*
X104331Y25689D02*
D03*
D22*
X112205Y7874D02*
D03*
X104331D02*
D03*
X159449Y69193D02*
D03*
X151575D02*
D03*
X88583Y67520D02*
D03*
X96457D02*
D03*
D23*
X66929Y10384D02*
D03*
Y-2510D02*
D03*
X154774Y10384D02*
D03*
Y-2510D02*
D03*
X234252Y10384D02*
D03*
Y-2510D02*
D03*
X11811Y97894D02*
D03*
Y85000D02*
D03*
X36417Y61466D02*
D03*
Y74360D02*
D03*
D24*
X171260Y1969D02*
D03*
Y14567D02*
D03*
Y24252D02*
D03*
Y36850D02*
D03*
X194882Y24252D02*
D03*
Y36850D02*
D03*
X183071Y24252D02*
D03*
Y36850D02*
D03*
X194882Y1969D02*
D03*
Y14567D02*
D03*
X183071Y1969D02*
D03*
Y14567D02*
D03*
D25*
X83745Y36811D02*
D03*
Y26969D02*
D03*
X76855Y36811D02*
D03*
Y26969D02*
D03*
D26*
X138502Y138212D02*
D03*
X137634Y133288D02*
D03*
X136766Y128364D02*
D03*
X135897Y123440D02*
D03*
X135029Y118516D02*
D03*
X134161Y113592D02*
D03*
X133293Y108667D02*
D03*
X132424Y103743D02*
D03*
X131556Y98819D02*
D03*
X130688Y93895D02*
D03*
D27*
X203801Y90238D02*
D03*
X205504Y99892D02*
D03*
D28*
X327756Y89686D02*
D03*
X373819D02*
D03*
D29*
X112638Y79429D02*
D03*
Y76870D02*
D03*
Y74311D02*
D03*
Y71752D02*
D03*
Y69193D02*
D03*
Y66634D02*
D03*
Y64075D02*
D03*
Y61516D02*
D03*
Y58957D02*
D03*
Y56398D02*
D03*
X135472Y79429D02*
D03*
Y76870D02*
D03*
Y74311D02*
D03*
Y71752D02*
D03*
Y69193D02*
D03*
Y66634D02*
D03*
Y64075D02*
D03*
Y61516D02*
D03*
Y58957D02*
D03*
Y56398D02*
D03*
D30*
X15299Y131890D02*
D03*
X105299D02*
D03*
D51*
X205504Y102559D02*
G03*
X203740Y106816I-6021J0D01*
G01*
X127008Y36850D02*
X163386D01*
X115000D02*
X127008D01*
X163386Y17717D02*
Y36850D01*
X171260Y14567D02*
X183071D01*
X166535D02*
X171260D01*
X163386Y17717D02*
X166535Y14567D01*
X183071D02*
X194882D01*
X163386Y36850D02*
X171260D01*
X183071D02*
X194882D01*
X171260D02*
X183071D01*
X112008Y33071D02*
Y33858D01*
X115000Y36850D01*
X205504Y99892D02*
Y102559D01*
Y99444D02*
Y99892D01*
X201772Y106816D02*
X203740D01*
D52*
X60299Y131890D02*
D03*
D53*
X195965Y36850D02*
X201498Y31317D01*
X201950D01*
X194882Y36850D02*
X195965D01*
X201950Y31317D02*
X205709Y27559D01*
X39219Y48849D02*
Y49062D01*
Y39370D02*
Y48849D01*
X39370Y49000D01*
X38386Y48015D02*
X39219Y48849D01*
X38386Y38537D02*
Y48015D01*
X39370Y49000D02*
Y49213D01*
X38386Y38537D02*
X39219Y39370D01*
X38386Y27559D02*
Y38537D01*
X35817Y61466D02*
X36417D01*
X34803Y62480D02*
X35817Y61466D01*
X34803Y62480D02*
Y62608D01*
X12411Y85000D02*
X34803Y62608D01*
X11811Y85000D02*
X12411D01*
X39219Y49062D02*
X39370Y49213D01*
X127008Y30551D02*
Y36850D01*
X98127Y65849D02*
X101471Y69193D01*
X104331D02*
X112638D01*
X101471D02*
X103768D01*
X154380Y19685D02*
X154774D01*
X101165Y127756D02*
X105299Y131890D01*
X101165Y121254D02*
Y127756D01*
X75383Y95472D02*
X101165Y121254D01*
X67421Y95472D02*
X75383D01*
X46161Y74213D02*
X67421Y95472D01*
X45276Y74213D02*
X46161D01*
X35433Y76870D02*
X36417Y75886D01*
Y74360D02*
Y75886D01*
X79657Y53286D02*
X79808Y53437D01*
X79657Y52900D02*
Y53286D01*
X77741Y50984D02*
X79657Y52900D01*
X76855Y50984D02*
X77741D01*
X66929Y27559D02*
Y31806D01*
X234252Y27559D02*
Y31890D01*
X194882Y1969D02*
Y5906D01*
X183071Y1969D02*
Y5906D01*
X171260Y1969D02*
Y5906D01*
Y1969D02*
X171260Y1969D01*
X171260Y24252D02*
Y27657D01*
Y24252D02*
X171260Y24252D01*
X183071D02*
Y27657D01*
X194882Y24252D02*
Y27657D01*
X154774Y27559D02*
Y31806D01*
X84646Y17717D02*
X87264D01*
X115748Y7874D02*
X116142Y8268D01*
X112205Y7874D02*
X115748D01*
X110138Y17618D02*
X110236Y17717D01*
X106890Y17618D02*
X110138D01*
X96176Y31806D02*
X96457Y32087D01*
X96176Y27559D02*
Y31806D01*
X112106Y27657D02*
X112205Y27559D01*
X112106Y27657D02*
Y32972D01*
X112008Y33071D02*
X112106Y32972D01*
X45276Y67520D02*
X45866Y66929D01*
X51181D01*
X44390Y66634D02*
X45276Y67520D01*
X42185Y66634D02*
X44390D01*
X37018Y61466D02*
X42185Y66634D01*
X36417Y61466D02*
X37018D01*
X23881Y94721D02*
X44390Y74213D01*
X23881Y94721D02*
Y118189D01*
X44390Y74213D02*
X45276D01*
X15299Y126772D02*
X23881Y118189D01*
X15299Y126772D02*
Y131890D01*
D54*
X60299D02*
Y132047D01*
X59039D02*
X60299D01*
X159884Y68758D02*
X163386D01*
X159449Y69193D02*
X159884Y68758D01*
X129603Y66634D02*
X135472D01*
X137225Y138212D02*
X143701D01*
Y137795D02*
Y138212D01*
X131589Y143847D02*
X137225Y138212D01*
X125984Y149606D02*
X126378D01*
X131589Y144395D01*
Y143847D02*
Y144395D01*
X125000Y150591D02*
X125984Y149606D01*
X80375Y53468D02*
X82859Y50984D01*
X83745D01*
Y67778D02*
X84003Y67520D01*
X88583D01*
X36417Y70098D02*
Y74360D01*
X15559Y68504D02*
X15748Y68693D01*
X11811Y68504D02*
X15559D01*
X125000Y142717D02*
X126673Y141043D01*
X128601D01*
X136356Y133288D01*
X137634D01*
X152854Y69193D02*
X153543Y69882D01*
X135472Y69193D02*
X152854D01*
D55*
X327953Y88386D02*
Y89489D01*
X327756Y89686D02*
X327953Y89489D01*
X204157Y89883D02*
X327756D01*
X203801Y90238D02*
X204157Y89883D01*
D56*
X-866Y75079D02*
X11693D01*
X-984Y74961D02*
X-866Y75079D01*
D57*
X56102Y27559D02*
D03*
X38386D02*
D03*
X56102Y1969D02*
D03*
X38386D02*
D03*
X144685Y27559D02*
D03*
X126969D02*
D03*
X144685Y1969D02*
D03*
X126969D02*
D03*
X223425Y27559D02*
D03*
X205709D02*
D03*
X223425Y1969D02*
D03*
X205709D02*
D03*
D58*
X-984Y54961D02*
D03*
Y64961D02*
D03*
X-984Y74961D02*
D03*
X-984Y84961D02*
D03*
X-984Y44961D02*
D03*
D59*
X-984Y94961D02*
D03*
D60*
X295276Y157480D02*
D03*
Y0D02*
D03*
X96176Y27559D02*
D03*
X112205D02*
D03*
X51181Y66929D02*
D03*
D61*
X0Y157480D02*
D03*
Y0D02*
D03*
D62*
X39370Y49213D02*
D03*
X104527Y82677D02*
D03*
X103768Y69193D02*
D03*
X129603Y80709D02*
D03*
X118110Y76870D02*
D03*
X115748Y25689D02*
D03*
X35433Y76870D02*
D03*
X66929Y31806D02*
D03*
X234252Y31890D02*
D03*
X194882Y5906D02*
D03*
X183071D02*
D03*
X171260D02*
D03*
Y27657D02*
D03*
X183071D02*
D03*
X194882D02*
D03*
X154774Y31806D02*
D03*
X84646Y17717D02*
D03*
X116142Y8268D02*
D03*
X110236Y17717D02*
D03*
X118710Y25591D02*
D03*
X112638Y51305D02*
D03*
X94488Y62303D02*
D03*
X90551Y60197D02*
D03*
X100394D02*
D03*
X88583Y57087D02*
D03*
X102362Y74961D02*
D03*
X59039Y132047D02*
D03*
X198874Y99806D02*
D03*
X205011Y106816D02*
D03*
Y110123D02*
D03*
X201772Y106816D02*
D03*
X198874Y102953D02*
D03*
Y106816D02*
D03*
X208661D02*
D03*
Y110123D02*
D03*
X201772Y110236D02*
D03*
X198874Y110123D02*
D03*
X163386Y68758D02*
D03*
X129603Y66634D02*
D03*
X143701Y137795D02*
D03*
X79808Y53543D02*
D03*
X83745Y67778D02*
D03*
X36417Y70098D02*
D03*
X15748Y68693D02*
D03*
X98425Y57087D02*
D03*
X106299Y62992D02*
D03*
D63*
X221358Y8268D02*
D03*
X309941Y161811D02*
D03*
X315846Y150000D02*
D03*
X309941Y138189D02*
D03*
X315846Y126378D02*
D03*
X309941Y114567D02*
D03*
X315846Y102756D02*
D03*
Y79134D02*
D03*
X309941Y67323D02*
D03*
X315846Y55512D02*
D03*
X309941Y43701D02*
D03*
X315846Y31890D02*
D03*
X309941Y20079D02*
D03*
X315846Y8268D02*
D03*
X309941Y-3543D02*
D03*
X304035Y150000D02*
D03*
X298130Y138189D02*
D03*
X304035Y126378D02*
D03*
X298130Y114567D02*
D03*
X304035Y102756D02*
D03*
Y79134D02*
D03*
X298130Y67323D02*
D03*
X304035Y55512D02*
D03*
X298130Y43701D02*
D03*
X304035Y31890D02*
D03*
X298130Y20079D02*
D03*
X304035Y8268D02*
D03*
X286319Y161811D02*
D03*
Y138189D02*
D03*
X292224Y126378D02*
D03*
X286319Y114567D02*
D03*
X292224Y102756D02*
D03*
Y79134D02*
D03*
X286319Y67323D02*
D03*
X292224Y55512D02*
D03*
X286319Y43701D02*
D03*
X292224Y31890D02*
D03*
X286319Y20079D02*
D03*
X274508Y161811D02*
D03*
X280413Y150000D02*
D03*
X274508Y138189D02*
D03*
X280413Y126378D02*
D03*
X274508Y114567D02*
D03*
X280413Y102756D02*
D03*
Y79134D02*
D03*
X274508Y67323D02*
D03*
X280413Y55512D02*
D03*
X274508Y43701D02*
D03*
X280413Y31890D02*
D03*
X274508Y20079D02*
D03*
X280413Y8268D02*
D03*
X274508Y-3543D02*
D03*
X262697Y161811D02*
D03*
X268602Y150000D02*
D03*
X262697Y138189D02*
D03*
X268602Y126378D02*
D03*
X262697Y114567D02*
D03*
X268602Y102756D02*
D03*
Y79134D02*
D03*
X262697Y67323D02*
D03*
X268602Y55512D02*
D03*
X262697Y43701D02*
D03*
X268602Y31890D02*
D03*
X262697Y20079D02*
D03*
X268602Y8268D02*
D03*
X262697Y-3543D02*
D03*
X250886Y161811D02*
D03*
X256791Y150000D02*
D03*
X250886Y138189D02*
D03*
X256791Y126378D02*
D03*
X250886Y114567D02*
D03*
X256791Y102756D02*
D03*
Y79134D02*
D03*
X250886Y67323D02*
D03*
X256791Y55512D02*
D03*
X250886Y43701D02*
D03*
X256791Y31890D02*
D03*
X250886Y20079D02*
D03*
X256791Y8268D02*
D03*
X250886Y-3543D02*
D03*
X239075Y161811D02*
D03*
X244980Y150000D02*
D03*
X239075Y138189D02*
D03*
X244980Y126378D02*
D03*
X239075Y114567D02*
D03*
X244980Y102756D02*
D03*
Y79134D02*
D03*
X239075Y67323D02*
D03*
X244980Y55512D02*
D03*
X239075Y43701D02*
D03*
X244980Y31890D02*
D03*
Y8268D02*
D03*
X227264Y161811D02*
D03*
X233169Y150000D02*
D03*
X227264Y138189D02*
D03*
X233169Y126378D02*
D03*
X227264Y114567D02*
D03*
X233169Y102756D02*
D03*
Y79134D02*
D03*
X227264Y67323D02*
D03*
X233169Y55512D02*
D03*
X215453Y161811D02*
D03*
X221358Y150000D02*
D03*
X215453Y138189D02*
D03*
X221358Y126378D02*
D03*
X215453Y114567D02*
D03*
X221358Y102756D02*
D03*
Y79134D02*
D03*
X215453Y67323D02*
D03*
X221358Y55512D02*
D03*
X215453Y43701D02*
D03*
Y20079D02*
D03*
Y-3543D02*
D03*
X203642Y161811D02*
D03*
X209547Y150000D02*
D03*
X203642Y138189D02*
D03*
X209547Y126378D02*
D03*
X203642Y114567D02*
D03*
X209547Y79134D02*
D03*
X203642Y67323D02*
D03*
X209547Y55512D02*
D03*
X191831Y161811D02*
D03*
X197736Y150000D02*
D03*
X191831Y138189D02*
D03*
X197736Y126378D02*
D03*
X191831Y114567D02*
D03*
Y90945D02*
D03*
X197736Y79134D02*
D03*
X191831Y67323D02*
D03*
X197736Y55512D02*
D03*
X180020Y161811D02*
D03*
X185925Y150000D02*
D03*
X180020Y138189D02*
D03*
X185925Y126378D02*
D03*
X180020Y114567D02*
D03*
X185925Y102756D02*
D03*
X180020Y90945D02*
D03*
X185925Y79134D02*
D03*
X180020Y67323D02*
D03*
X185925Y55512D02*
D03*
M02*
