G04*
G04 #@! TF.GenerationSoftware,Altium Limited,Altium Designer,19.0.15 (446)*
G04*
G04 Layer_Color=32768*
%FSLAX25Y25*%
%MOIN*%
G70*
G01*
G75*
%ADD14C,0.00394*%
%ADD60C,0.00197*%
D14*
X11811Y33465D02*
Y37402D01*
X9843Y35433D02*
X13780D01*
X158465Y58071D02*
X162402D01*
X160433Y56102D02*
Y60039D01*
X155512Y69882D02*
X159449D01*
X157480Y67913D02*
Y71850D01*
X122087Y67913D02*
X126024D01*
X124055Y65945D02*
Y69882D01*
X112638Y146653D02*
Y150591D01*
X110669Y148622D02*
X114606D01*
X125000Y144685D02*
Y148622D01*
X123031Y146653D02*
X126969D01*
X9843Y91447D02*
X13780D01*
X11811Y89478D02*
Y93415D01*
X9843Y71850D02*
X13780D01*
X11811Y69882D02*
Y73819D01*
X45276Y68898D02*
Y72835D01*
X43307Y70866D02*
X47244D01*
X36417Y65945D02*
Y69882D01*
X34449Y67913D02*
X38386D01*
X87598Y80709D02*
X91535D01*
X89567Y78740D02*
Y82677D01*
X90551Y67520D02*
X94488D01*
X92520Y65551D02*
Y69488D01*
Y31496D02*
Y35433D01*
X90551Y33465D02*
X94488D01*
X83661D02*
X87598D01*
X85630Y31496D02*
Y35433D01*
X91535Y17717D02*
X93504D01*
X92520Y16732D02*
Y18701D01*
X84646Y17717D02*
X86614D01*
X85630Y16732D02*
Y18701D01*
X38386Y39370D02*
Y43307D01*
X36417Y41339D02*
X40354D01*
X205748Y39370D02*
Y43307D01*
X203780Y41339D02*
X207716D01*
X127008Y39370D02*
Y43307D01*
X125039Y41339D02*
X128976D01*
D60*
X8858Y40945D02*
X14764D01*
X8858Y29921D02*
X14764D01*
Y40945D01*
X8858Y29921D02*
Y40945D01*
X171457Y52362D02*
Y63779D01*
X149409Y52362D02*
Y63779D01*
Y52362D02*
X171457D01*
X149409Y63779D02*
X171457D01*
X166142Y64764D02*
Y75000D01*
X148819Y64764D02*
Y75000D01*
Y64764D02*
X166142D01*
X148819Y75000D02*
X166142D01*
X106634Y52953D02*
Y82874D01*
X141476Y52953D02*
Y82874D01*
X106634D02*
X141476D01*
X106634Y52953D02*
X141476D01*
X106929Y159646D02*
X118347D01*
X106929Y137598D02*
X118347D01*
Y159646D01*
X106929Y137598D02*
Y159646D01*
X119882Y155315D02*
X130118D01*
X119882Y137992D02*
X130118D01*
Y155315D01*
X119882Y137992D02*
Y155315D01*
X15354Y82805D02*
Y100089D01*
X8268D02*
X15354D01*
X8268Y82805D02*
X15354D01*
X8268D02*
Y100089D01*
X4803Y38583D02*
Y101339D01*
X-6772Y101339D02*
X-6772Y38583D01*
X4803D01*
X-6772Y101339D02*
X4803Y101339D01*
X14764Y66339D02*
Y77362D01*
X8858Y66339D02*
Y77362D01*
X14764D01*
X8858Y66339D02*
X14764D01*
X42323Y65354D02*
X48228D01*
X42323Y76378D02*
X48228D01*
X42323Y65354D02*
Y76378D01*
X48228Y65354D02*
Y76378D01*
X32874Y59272D02*
Y76555D01*
Y59272D02*
X39961D01*
X32874Y76555D02*
X39961D01*
Y59272D02*
Y76555D01*
X78543Y75000D02*
Y86417D01*
X100591Y75000D02*
Y86417D01*
X78543D02*
X100591D01*
X78543Y75000D02*
X100591D01*
X83858Y62402D02*
Y72638D01*
X101181Y62402D02*
Y72638D01*
X83858D02*
X101181D01*
X83858Y62402D02*
X101181D01*
X89567Y38976D02*
X95473D01*
X89567Y27953D02*
X95473D01*
Y38976D01*
X89567Y27953D02*
Y38976D01*
X82677Y27953D02*
Y38976D01*
X88583Y27953D02*
Y38976D01*
X82677Y27953D02*
X88583D01*
X82677Y38976D02*
X88583D01*
X90551Y13287D02*
X94488D01*
X90551D02*
Y22146D01*
X94488D01*
Y13287D02*
Y22146D01*
X83661Y13287D02*
X87598D01*
X83661D02*
Y22146D01*
X87598D01*
Y13287D02*
Y22146D01*
X35433Y35827D02*
X41339D01*
X35433Y46850D02*
X41339D01*
X35433Y35827D02*
Y46850D01*
X41339D02*
X41339Y35827D01*
X202795D02*
X208701D01*
X202795Y46850D02*
X208701D01*
X202795Y35827D02*
Y46850D01*
X208701Y35827D02*
Y46850D01*
X124055Y46850D02*
X129961D01*
X124055Y35827D02*
X129961D01*
Y46850D01*
X124055D02*
X124055Y35827D01*
M02*
