M48
;Layer_Color=9474304
;FILE_FORMAT=2:5
INCH,LZ
;TYPE=PLATED
T1F00S00C0.01181
T2F00S00C0.01575
T3F00S00C0.04256
T4F00S00C0.12992
%
T01
X0198819Y0096457
X0198874Y0099806
Y0102953
Y0106816
X0201772
X0205011
Y0110123
X0201772Y0110236
X0198874Y0110123
X0208661
Y0106816
Y0094488
X0205011Y0094961
X0201772Y0095641
T02
X0088583Y003937
X0090551Y0057087
X009252Y0060197
X0100394
X0098425Y0057087
X0102362Y0051181
X0106299Y0062992
X011811Y0051181
X0122047
X0129603Y0066634
X0161852Y0058364
X0165354Y0069447
X0106299Y0076772
X0102362Y0074961
X0098425Y0072835
X0082677
X0083745Y0067778
X007874Y0080709
X0036417Y0070098
X0059055Y0124016
X0113138Y0150591
X0143701Y0137795
X0141271Y011811
X0139764Y0112205
X0015748Y0068693
T03
X-0000984Y0044961
X-0000984Y0054961
Y0064961
X-0000984Y0074961
X-0000984Y0084961
Y0094961
T04
X0Y0
X0295276
Y015748
X0
M30
