G04*
G04 #@! TF.GenerationSoftware,Altium Limited,Altium Designer,19.0.15 (446)*
G04*
G04 Layer_Color=8388736*
%FSLAX25Y25*%
%MOIN*%
G70*
G01*
G75*
%ADD31R,0.05918X0.04147*%
%ADD32R,0.06902X0.06115*%
%ADD33R,0.04737X0.06312*%
%ADD34R,0.04147X0.05918*%
%ADD35R,0.02769X0.04540*%
%ADD36R,0.06115X0.06902*%
%ADD37R,0.05603X0.04402*%
%ADD38R,0.08280X0.06115*%
%ADD39R,0.05721X0.05131*%
G04:AMPARAMS|DCode=40|XSize=70.99mil|YSize=39.5mil|CornerRadius=0mil|HoleSize=0mil|Usage=FLASHONLY|Rotation=350.000|XOffset=0mil|YOffset=0mil|HoleType=Round|Shape=Rectangle|*
%AMROTATEDRECTD40*
4,1,4,-0.03839,-0.01328,-0.03153,0.02561,0.03839,0.01328,0.03153,-0.02561,-0.03839,-0.01328,0.0*
%
%ADD40ROTATEDRECTD40*%

G04:AMPARAMS|DCode=41|XSize=108mil|YSize=67.06mil|CornerRadius=0mil|HoleSize=0mil|Usage=FLASHONLY|Rotation=350.000|XOffset=0mil|YOffset=0mil|HoleType=Round|Shape=Rectangle|*
%AMROTATEDRECTD41*
4,1,4,-0.05900,-0.02364,-0.04736,0.04240,0.05900,0.02364,0.04736,-0.04240,-0.05900,-0.02364,0.0*
%
%ADD41ROTATEDRECTD41*%

%ADD42R,0.05918X0.18517*%
%ADD43O,0.09068X0.02178*%
%ADD44R,0.10642X0.20879*%
%ADD45C,0.70879*%
%ADD46C,0.06706*%
%ADD47C,0.07099*%
%ADD48R,0.07099X0.07099*%
%ADD49C,0.04737*%
%ADD50C,0.20485*%
D31*
X96457Y38780D02*
D03*
Y32087D02*
D03*
X11693Y40354D02*
D03*
Y47047D02*
D03*
X11811Y75197D02*
D03*
Y68504D02*
D03*
X45276Y67520D02*
D03*
Y74213D02*
D03*
X83745Y50984D02*
D03*
Y44291D02*
D03*
X76855D02*
D03*
Y50984D02*
D03*
D32*
X234252Y27559D02*
D03*
Y19685D02*
D03*
X154774Y27559D02*
D03*
Y19685D02*
D03*
X66929Y27559D02*
D03*
Y19685D02*
D03*
X125000Y150591D02*
D03*
Y142717D02*
D03*
D33*
X104528Y33071D02*
D03*
X112008D02*
D03*
X108268Y41732D02*
D03*
D34*
X93957Y9843D02*
D03*
X87264D02*
D03*
X93957Y1969D02*
D03*
X87264D02*
D03*
X87264Y17717D02*
D03*
X93957D02*
D03*
D35*
X101772Y17618D02*
D03*
X106890D02*
D03*
X104331Y25689D02*
D03*
D36*
X112205Y7874D02*
D03*
X104331D02*
D03*
X159449Y69193D02*
D03*
X151575D02*
D03*
X88583Y67520D02*
D03*
X96457D02*
D03*
D37*
X66929Y10384D02*
D03*
Y-2510D02*
D03*
X154774Y10384D02*
D03*
Y-2510D02*
D03*
X234252Y10384D02*
D03*
Y-2510D02*
D03*
X11811Y97894D02*
D03*
Y85000D02*
D03*
X36417Y61466D02*
D03*
Y74360D02*
D03*
D38*
X171260Y1969D02*
D03*
Y14567D02*
D03*
Y24252D02*
D03*
Y36850D02*
D03*
X194882Y24252D02*
D03*
Y36850D02*
D03*
X183071Y24252D02*
D03*
Y36850D02*
D03*
X194882Y1969D02*
D03*
Y14567D02*
D03*
X183071Y1969D02*
D03*
Y14567D02*
D03*
D39*
X83745Y36811D02*
D03*
Y26969D02*
D03*
X76855Y36811D02*
D03*
Y26969D02*
D03*
D40*
X138502Y138212D02*
D03*
X137634Y133288D02*
D03*
X136766Y128364D02*
D03*
X135897Y123440D02*
D03*
X135029Y118516D02*
D03*
X134161Y113592D02*
D03*
X133293Y108667D02*
D03*
X132424Y103743D02*
D03*
X131556Y98819D02*
D03*
X130688Y93895D02*
D03*
D41*
X203801Y90238D02*
D03*
X205504Y99892D02*
D03*
D42*
X327756Y89686D02*
D03*
X373819D02*
D03*
D43*
X112638Y79429D02*
D03*
Y76870D02*
D03*
Y74311D02*
D03*
Y71752D02*
D03*
Y69193D02*
D03*
Y66634D02*
D03*
Y64075D02*
D03*
Y61516D02*
D03*
Y58957D02*
D03*
Y56398D02*
D03*
X135472Y79429D02*
D03*
Y76870D02*
D03*
Y74311D02*
D03*
Y71752D02*
D03*
Y69193D02*
D03*
Y66634D02*
D03*
Y64075D02*
D03*
Y61516D02*
D03*
Y58957D02*
D03*
Y56398D02*
D03*
D44*
X15299Y131890D02*
D03*
X105299D02*
D03*
D45*
X60299D02*
D03*
D46*
X56102Y27559D02*
D03*
X38386D02*
D03*
X56102Y1969D02*
D03*
X38386D02*
D03*
X144685Y27559D02*
D03*
X126969D02*
D03*
X144685Y1969D02*
D03*
X126969D02*
D03*
X223425Y27559D02*
D03*
X205709D02*
D03*
X223425Y1969D02*
D03*
X205709D02*
D03*
D47*
X-984Y54961D02*
D03*
Y64961D02*
D03*
X-984Y74961D02*
D03*
X-984Y84961D02*
D03*
X-984Y44961D02*
D03*
D48*
X-984Y94961D02*
D03*
D49*
X295276Y157480D02*
D03*
Y0D02*
D03*
D50*
X0Y157480D02*
D03*
Y0D02*
D03*
M02*
