G04*
G04 #@! TF.GenerationSoftware,Altium Limited,Altium Designer,19.0.15 (446)*
G04*
G04 Layer_Color=8388736*
%FSLAX25Y25*%
%MOIN*%
G70*
G01*
G75*
G04:AMPARAMS|DCode=30|XSize=70.99mil|YSize=39.5mil|CornerRadius=0mil|HoleSize=0mil|Usage=FLASHONLY|Rotation=350.000|XOffset=0mil|YOffset=0mil|HoleType=Round|Shape=Rectangle|*
%AMROTATEDRECTD30*
4,1,4,-0.03839,-0.01328,-0.03153,0.02561,0.03839,0.01328,0.03153,-0.02561,-0.03839,-0.01328,0.0*
%
%ADD30ROTATEDRECTD30*%

G04:AMPARAMS|DCode=31|XSize=108mil|YSize=67.06mil|CornerRadius=0mil|HoleSize=0mil|Usage=FLASHONLY|Rotation=350.000|XOffset=0mil|YOffset=0mil|HoleType=Round|Shape=Rectangle|*
%AMROTATEDRECTD31*
4,1,4,-0.05900,-0.02364,-0.04736,0.04240,0.05900,0.02364,0.04736,-0.04240,-0.05900,-0.02364,0.0*
%
%ADD31ROTATEDRECTD31*%

%ADD32R,0.05918X0.04147*%
%ADD33R,0.05918X0.18517*%
%ADD34R,0.06115X0.08280*%
%ADD35R,0.06115X0.06902*%
%ADD36O,0.09068X0.02178*%
%ADD37R,0.08280X0.06115*%
%ADD38R,0.06902X0.06115*%
%ADD39R,0.10642X0.20879*%
%ADD40C,0.70879*%
%ADD41R,0.05603X0.04402*%
%ADD42R,0.03950X0.03162*%
G04:AMPARAMS|DCode=43|XSize=65mil|YSize=53mil|CornerRadius=15.25mil|HoleSize=0mil|Usage=FLASHONLY|Rotation=90.000|XOffset=0mil|YOffset=0mil|HoleType=Round|Shape=RoundedRectangle|*
%AMROUNDEDRECTD43*
21,1,0.06500,0.02250,0,0,90.0*
21,1,0.03450,0.05300,0,0,90.0*
1,1,0.03050,0.01125,0.01725*
1,1,0.03050,0.01125,-0.01725*
1,1,0.03050,-0.01125,-0.01725*
1,1,0.03050,-0.01125,0.01725*
%
%ADD43ROUNDEDRECTD43*%
%ADD44C,0.07099*%
%ADD45R,0.07099X0.07099*%
%ADD46C,0.04737*%
%ADD47C,0.20485*%
%ADD48C,0.03162*%
D30*
X138502Y138212D02*
D03*
X137634Y133288D02*
D03*
X136766Y128364D02*
D03*
X135897Y123440D02*
D03*
X135029Y118516D02*
D03*
X134161Y113592D02*
D03*
X133293Y108667D02*
D03*
X132424Y103743D02*
D03*
X131556Y98819D02*
D03*
X130688Y93895D02*
D03*
D31*
X203801Y90238D02*
D03*
X205504Y99892D02*
D03*
D32*
X11811Y38780D02*
D03*
Y32087D02*
D03*
Y75197D02*
D03*
Y68504D02*
D03*
X45276Y67520D02*
D03*
Y74213D02*
D03*
X92520Y36811D02*
D03*
Y30118D02*
D03*
X85630D02*
D03*
Y36811D02*
D03*
X38386Y37992D02*
D03*
Y44685D02*
D03*
X205748Y37992D02*
D03*
Y44685D02*
D03*
X127008Y44685D02*
D03*
Y37992D02*
D03*
D33*
X249213Y94488D02*
D03*
X295276D02*
D03*
D34*
X166732Y58071D02*
D03*
X154134D02*
D03*
X83268Y80709D02*
D03*
X95866D02*
D03*
D35*
X161417Y69882D02*
D03*
X153543D02*
D03*
X88583Y67520D02*
D03*
X96457D02*
D03*
D36*
X112638Y79429D02*
D03*
Y76870D02*
D03*
Y74311D02*
D03*
Y71752D02*
D03*
Y69193D02*
D03*
Y66634D02*
D03*
Y64075D02*
D03*
Y61516D02*
D03*
Y58957D02*
D03*
Y56398D02*
D03*
X135472Y79429D02*
D03*
Y76870D02*
D03*
Y74311D02*
D03*
Y71752D02*
D03*
Y69193D02*
D03*
Y66634D02*
D03*
Y64075D02*
D03*
Y61516D02*
D03*
Y58957D02*
D03*
Y56398D02*
D03*
D37*
X112638Y154921D02*
D03*
Y142323D02*
D03*
D38*
X125000Y150591D02*
D03*
Y142717D02*
D03*
D39*
X15315Y123858D02*
D03*
X105315D02*
D03*
D40*
X60315D02*
D03*
D41*
X11811Y97894D02*
D03*
Y85000D02*
D03*
X36417Y61466D02*
D03*
Y74360D02*
D03*
D42*
X92520Y14862D02*
D03*
Y20571D02*
D03*
X85630Y14862D02*
D03*
Y20571D02*
D03*
D43*
X56102Y-984D02*
D03*
Y30551D02*
D03*
X38425Y-984D02*
D03*
Y30551D02*
D03*
X223425Y-984D02*
D03*
Y30551D02*
D03*
X205748Y-984D02*
D03*
Y30551D02*
D03*
X144685Y-984D02*
D03*
Y30551D02*
D03*
X127008Y-984D02*
D03*
Y30551D02*
D03*
D44*
X-984Y54961D02*
D03*
Y64961D02*
D03*
X-984Y74961D02*
D03*
X-984Y84961D02*
D03*
X-984Y44961D02*
D03*
D45*
X-984Y94961D02*
D03*
D46*
X295276Y157480D02*
D03*
Y0D02*
D03*
D47*
X0Y157480D02*
D03*
Y0D02*
D03*
D48*
X82677Y72835D02*
D03*
X98425D02*
D03*
X100394Y60197D02*
D03*
X98425Y57087D02*
D03*
X92520Y60197D02*
D03*
X90551Y57087D02*
D03*
X106299Y62992D02*
D03*
X122047Y51181D02*
D03*
X102362D02*
D03*
Y74961D02*
D03*
X118110Y51181D02*
D03*
X106299Y76772D02*
D03*
X139764Y112205D02*
D03*
X141271Y118110D02*
D03*
M02*
