G04*
G04 #@! TF.GenerationSoftware,Altium Limited,Altium Designer,19.0.15 (446)*
G04*
G04 Layer_Color=16711935*
%FSLAX25Y25*%
%MOIN*%
G70*
G01*
G75*
%ADD12C,0.00500*%
%ADD83C,0.00394*%
D12*
X283372Y66585D02*
Y90994D01*
X258963D02*
X283372D01*
X258963Y66585D02*
Y90994D01*
Y66585D02*
X283372D01*
Y106348D02*
Y130758D01*
X258963D02*
X283372D01*
X258963Y106348D02*
Y130758D01*
Y106348D02*
X283372D01*
Y146112D02*
Y170522D01*
X258963D02*
X283372D01*
X258963Y146112D02*
Y170522D01*
Y146112D02*
X283372D01*
X283465Y185876D02*
Y210285D01*
X259055D02*
X283465D01*
X259055Y185876D02*
Y210285D01*
Y185876D02*
X283465D01*
Y225640D02*
Y250049D01*
X259055D02*
X283465D01*
X259055Y225640D02*
Y250049D01*
Y225640D02*
X283465D01*
Y265404D02*
Y289813D01*
X259055D02*
X283465D01*
X259055Y265404D02*
Y289813D01*
Y265404D02*
X283465D01*
Y305020D02*
Y329429D01*
X259055D02*
X283465D01*
X259055Y305020D02*
Y329429D01*
Y305020D02*
X283465D01*
X283465Y344931D02*
Y369340D01*
X259055D02*
X283465D01*
X259055Y344931D02*
Y369340D01*
Y344931D02*
X283465D01*
X255729Y387795D02*
X280138D01*
Y412205D01*
X255729D02*
X280138D01*
X255729Y387795D02*
Y412205D01*
X205963Y387795D02*
X230373D01*
Y412205D01*
X205963D02*
X230373D01*
X205963Y387795D02*
Y412205D01*
X156102Y387795D02*
X180512D01*
Y412205D01*
X156102D02*
X180512D01*
X156102Y387795D02*
Y412205D01*
D83*
X349409Y152874D02*
G03*
X349409Y152874I-1969J0D01*
G01*
Y351693D02*
G03*
X349409Y351693I-1969J0D01*
G01*
Y311929D02*
G03*
X349409Y311929I-1969J0D01*
G01*
Y271969D02*
G03*
X349409Y271969I-1969J0D01*
G01*
Y232402D02*
G03*
X349409Y232402I-1969J0D01*
G01*
Y192638D02*
G03*
X349409Y192638I-1969J0D01*
G01*
Y73347D02*
G03*
X349409Y73347I-1969J0D01*
G01*
Y113504D02*
G03*
X349409Y113504I-1969J0D01*
G01*
X374606Y404921D02*
G03*
X374606Y404921I-1969J0D01*
G01*
X285630Y433661D02*
G03*
X285630Y433661I-1969J0D01*
G01*
X234605Y472835D02*
G03*
X234605Y472835I-1969J0D01*
G01*
X198228Y481890D02*
G03*
X198228Y481890I-12402J0D01*
G01*
X309154Y153937D02*
Y162598D01*
X314469Y153937D02*
Y162598D01*
X309154Y153937D02*
X314469D01*
X309154Y162598D02*
X314469D01*
X303543Y162303D02*
X306693D01*
X303543Y156004D02*
X306693D01*
X303543Y156004D02*
Y162303D01*
X306693Y156004D02*
Y162303D01*
X263465Y476378D02*
Y499213D01*
X303465D01*
Y476378D02*
Y499213D01*
X263465Y476378D02*
X303465D01*
X369291Y138581D02*
X411023D01*
X369291D02*
Y177953D01*
X411023D01*
Y138581D02*
Y177953D01*
X350984Y149331D02*
Y167441D01*
X325394Y149331D02*
Y167441D01*
Y149331D02*
X350984D01*
X325394Y167441D02*
X350984D01*
X361516Y159291D02*
X366831D01*
X361516Y150630D02*
X366831D01*
Y159291D01*
X361516Y150630D02*
Y159291D01*
X350984Y348150D02*
Y366260D01*
X325394Y348150D02*
Y366260D01*
Y348150D02*
X350984D01*
X325394Y366260D02*
X350984D01*
Y308386D02*
Y326496D01*
X325394Y308386D02*
Y326496D01*
Y308386D02*
X350984D01*
X325394Y326496D02*
X350984D01*
Y268425D02*
Y286535D01*
X325394Y268425D02*
Y286535D01*
Y268425D02*
X350984D01*
X325394Y286535D02*
X350984D01*
Y228858D02*
Y246969D01*
X325394Y228858D02*
Y246969D01*
Y228858D02*
X350984D01*
X325394Y246969D02*
X350984D01*
Y189094D02*
Y207205D01*
X325394Y189094D02*
Y207205D01*
Y189094D02*
X350984D01*
X325394Y207205D02*
X350984D01*
Y69803D02*
Y87913D01*
X325394Y69803D02*
Y87913D01*
Y69803D02*
X350984D01*
X325394Y87913D02*
X350984D01*
X309154Y361417D02*
X314469D01*
X309154Y352756D02*
X314469D01*
Y361417D01*
X309154Y352756D02*
Y361417D01*
Y321654D02*
X314469D01*
X309154Y312992D02*
X314469D01*
Y321654D01*
X309154Y312992D02*
Y321654D01*
Y281693D02*
X314469D01*
X309154Y273031D02*
X314469D01*
Y281693D01*
X309154Y273031D02*
Y281693D01*
Y242126D02*
X314469D01*
X309154Y233465D02*
X314469D01*
Y242126D01*
X309154Y233465D02*
Y242126D01*
Y202362D02*
X314469D01*
X309154Y193701D02*
X314469D01*
Y202362D01*
X309154Y193701D02*
Y202362D01*
Y83071D02*
X314469D01*
X309154Y74409D02*
X314469D01*
Y83071D01*
X309154Y74409D02*
Y83071D01*
X361516Y358110D02*
X366831D01*
X361516Y349449D02*
X366831D01*
Y358110D01*
X361516Y349449D02*
Y358110D01*
Y318347D02*
X366831D01*
X361516Y309685D02*
X366831D01*
Y318347D01*
X361516Y309685D02*
Y318347D01*
Y278386D02*
X366831D01*
X361516Y269724D02*
X366831D01*
Y278386D01*
X361516Y269724D02*
Y278386D01*
Y238819D02*
X366831D01*
X361516Y230157D02*
X366831D01*
Y238819D01*
X361516Y230157D02*
Y238819D01*
Y199055D02*
X366831D01*
X361516Y190394D02*
X366831D01*
Y199055D01*
X361516Y190394D02*
Y199055D01*
Y79764D02*
X366831D01*
X361516Y71102D02*
X366831D01*
Y79764D01*
X361516Y71102D02*
Y79764D01*
X369291Y337400D02*
X411023D01*
X369291D02*
Y376772D01*
X411023D01*
Y337400D02*
Y376772D01*
X369291Y297636D02*
X411023D01*
X369291D02*
Y337008D01*
X411023D01*
Y297636D02*
Y337008D01*
X369291Y257676D02*
X411023D01*
X369291D02*
Y297047D01*
X411023D01*
Y257676D02*
Y297047D01*
X369291Y218109D02*
X411023D01*
X369291D02*
Y257480D01*
X411023D01*
Y218109D02*
Y257480D01*
X369291Y178345D02*
X411023D01*
X369291D02*
Y217717D01*
X411023D01*
Y178345D02*
Y217717D01*
X369291Y59054D02*
X411023D01*
X369291D02*
Y98425D01*
X411023D01*
Y59054D02*
Y98425D01*
X306693Y354823D02*
Y361122D01*
X303543Y354823D02*
Y361122D01*
X303543Y354823D02*
X306693D01*
X303543Y361122D02*
X306693D01*
X306693Y315059D02*
Y321358D01*
X303543Y315059D02*
Y321359D01*
X303543Y315059D02*
X306693D01*
X303543Y321359D02*
X306693D01*
X306693Y275098D02*
Y281398D01*
X303543Y275099D02*
Y281398D01*
X303543Y275098D02*
X306693D01*
X303543Y281398D02*
X306693D01*
X306693Y235531D02*
Y241831D01*
X303543Y235532D02*
Y241831D01*
X303543Y235531D02*
X306693D01*
X303543Y241831D02*
X306693D01*
X306693Y195768D02*
Y202067D01*
X303543Y195768D02*
Y202067D01*
X303543Y195768D02*
X306693D01*
X303543Y202067D02*
X306693D01*
X306693Y76476D02*
Y82776D01*
X303543Y76477D02*
Y82776D01*
X303543Y76476D02*
X306693D01*
X303543Y82776D02*
X306693D01*
X112992Y462500D02*
Y468799D01*
X116142Y462500D02*
Y468799D01*
X112992Y468799D02*
X116142D01*
X112993Y462500D02*
X116142D01*
X105217Y462205D02*
X110531D01*
X105217Y470866D02*
X110531D01*
X105217Y462205D02*
Y470866D01*
X110531Y462205D02*
Y470866D01*
X309154Y123228D02*
X314469D01*
X309154Y114567D02*
X314469D01*
Y123228D01*
X309154Y114567D02*
Y123228D01*
X151870Y431102D02*
X157579D01*
X151870Y439764D02*
X157579D01*
X151870Y431102D02*
Y439764D01*
X157579Y431102D02*
Y439764D01*
X337402Y400689D02*
Y406398D01*
X346063Y400689D02*
Y406398D01*
X337402D02*
X346063D01*
X337402Y400689D02*
X346063D01*
X257087Y421161D02*
Y426870D01*
X265748Y421161D02*
Y426870D01*
X257087D02*
X265748D01*
X257087Y421161D02*
X265748D01*
X350984Y109961D02*
Y128071D01*
X325394Y109961D02*
Y128071D01*
Y109961D02*
X350984D01*
X325394Y128071D02*
X350984D01*
X361516Y119921D02*
X366831D01*
X361516Y111260D02*
X366831D01*
Y119921D01*
X361516Y111260D02*
Y119921D01*
X369291Y99211D02*
X411023D01*
X369291D02*
Y138583D01*
X411023D01*
Y99211D02*
Y138583D01*
X306693Y116634D02*
Y122933D01*
X303543Y116634D02*
Y122933D01*
X303543Y116634D02*
X306693D01*
X303543Y122933D02*
X306693D01*
X237008Y198297D02*
Y208888D01*
Y198297D02*
X243307D01*
X237008Y208888D02*
X243307D01*
Y198297D02*
Y208888D01*
X151772Y183661D02*
X232480D01*
X151772D02*
Y212008D01*
X232480D01*
Y183661D02*
Y212008D01*
X104331Y218505D02*
X146064D01*
Y179134D02*
Y218505D01*
X104331Y179134D02*
X146064D01*
X104331D02*
Y218505D01*
X237500Y192766D02*
X242815D01*
X237500Y184104D02*
X242815D01*
Y192766D01*
X237500Y184104D02*
Y192766D01*
X248425Y185049D02*
X253543D01*
Y196545D01*
X248425D02*
X253543D01*
X248425Y185049D02*
Y196545D01*
X246654Y203888D02*
Y209203D01*
X255315Y203888D02*
Y209203D01*
X246654D02*
X255315D01*
X246654Y203888D02*
X255315D01*
X246850Y202215D02*
X253150D01*
X246850Y199065D02*
X253149D01*
X253150Y199065D02*
Y202215D01*
X246850Y199065D02*
Y202214D01*
X246561Y84597D02*
Y89911D01*
X255223Y84597D02*
Y89911D01*
X246561D02*
X255223D01*
X246561Y84597D02*
X255223D01*
X246561Y124360D02*
Y129675D01*
X255223Y124360D02*
Y129675D01*
X246561D02*
X255223D01*
X246561Y124360D02*
X255223D01*
X246561Y164124D02*
Y169439D01*
X255223Y164124D02*
Y169439D01*
X246561D02*
X255223D01*
X246561Y164124D02*
X255223D01*
X237408Y73474D02*
X242723D01*
X237408Y64813D02*
X242723D01*
Y73474D01*
X237408Y64813D02*
Y73474D01*
Y113238D02*
X242723D01*
X237408Y104577D02*
X242723D01*
Y113238D01*
X237408Y104577D02*
Y113238D01*
Y153002D02*
X242723D01*
X237408Y144341D02*
X242723D01*
Y153002D01*
X237408Y144341D02*
Y153002D01*
X248333Y65758D02*
X253451D01*
Y77254D01*
X248333D02*
X253451D01*
X248333Y65758D02*
Y77254D01*
Y105522D02*
X253451D01*
Y117018D01*
X248333D02*
X253451D01*
X248333Y105522D02*
Y117018D01*
Y145285D02*
X253451D01*
Y156781D01*
X248333D02*
X253451D01*
X248333Y145285D02*
Y156781D01*
X104239Y99214D02*
X145972D01*
Y59842D02*
Y99214D01*
X104239Y59842D02*
X145972D01*
X104239D02*
Y99214D01*
Y138978D02*
X145972D01*
Y99606D02*
Y138978D01*
X104239Y99606D02*
X145972D01*
X104239D02*
Y138978D01*
Y178742D02*
X145972D01*
Y139370D02*
Y178742D01*
X104239Y139370D02*
X145972D01*
X104239D02*
Y178742D01*
X151680Y64370D02*
X232388D01*
X151680D02*
Y92716D01*
X232388D01*
Y64370D02*
Y92716D01*
X151680Y104134D02*
X232388D01*
X151680D02*
Y132480D01*
X232388D01*
Y104134D02*
Y132480D01*
X151680Y143898D02*
X232388D01*
X151680D02*
Y172244D01*
X232388D01*
Y143898D02*
Y172244D01*
X246758Y82923D02*
X253058D01*
X246758Y79773D02*
X253057D01*
X253058Y79774D02*
Y82923D01*
X246758Y79773D02*
Y82923D01*
X246758Y122687D02*
X253058D01*
X246758Y119537D02*
X253057D01*
X253058Y119537D02*
Y122687D01*
X246758Y119537D02*
Y122687D01*
X246758Y162451D02*
X253058D01*
X246758Y159301D02*
X253057D01*
X253058Y159301D02*
Y162451D01*
X246758Y159301D02*
Y162451D01*
X236916Y79006D02*
Y89596D01*
Y79006D02*
X243215D01*
X236916Y89596D02*
X243215D01*
Y79006D02*
Y89596D01*
X236916Y118770D02*
Y129360D01*
Y118770D02*
X243215D01*
X236916Y129360D02*
X243215D01*
Y118770D02*
Y129360D01*
X236916Y158534D02*
Y169124D01*
Y158534D02*
X243215D01*
X236916Y169124D02*
X243215D01*
Y158534D02*
Y169124D01*
X237008Y277825D02*
Y288415D01*
Y277825D02*
X243307D01*
X237008Y288415D02*
X243307D01*
Y277825D02*
Y288415D01*
X151772Y263189D02*
X232480D01*
X151772D02*
Y291535D01*
X232480D01*
Y263189D02*
Y291535D01*
X104331Y298033D02*
X146064D01*
Y258661D02*
Y298033D01*
X104331Y258661D02*
X146064D01*
X104331D02*
Y298033D01*
X237500Y272293D02*
X242815D01*
X237500Y263632D02*
X242815D01*
Y272293D01*
X237500Y263632D02*
Y272293D01*
X248425Y264577D02*
X253543D01*
Y276073D01*
X248425D02*
X253543D01*
X248425Y264577D02*
Y276073D01*
X246654Y283415D02*
Y288730D01*
X255315Y283415D02*
Y288730D01*
X246654D02*
X255315D01*
X246654Y283415D02*
X255315D01*
X246850Y281742D02*
X253150D01*
X246850Y278592D02*
X253149D01*
X253150Y278592D02*
Y281742D01*
X246850Y278592D02*
Y281742D01*
X376181Y401378D02*
Y421457D01*
X358465Y401378D02*
Y421457D01*
Y401378D02*
X376181D01*
X358465Y421457D02*
X376181D01*
X287205Y430118D02*
Y450197D01*
X269488Y430118D02*
Y450197D01*
Y430118D02*
X287205D01*
X269488Y450197D02*
X287205D01*
X244193Y485827D02*
X249508D01*
X244193Y477165D02*
X249508D01*
Y485827D01*
X244193Y477165D02*
Y485827D01*
X251476D02*
X256791D01*
X251476Y477165D02*
X256791D01*
Y485827D01*
X251476Y477165D02*
Y485827D01*
X245472Y464961D02*
Y471260D01*
X248622Y464960D02*
Y471259D01*
X245472Y471260D02*
X248622D01*
X245473Y464960D02*
X248622D01*
X252756Y464961D02*
Y471260D01*
X255906Y464960D02*
Y471259D01*
X252756Y471260D02*
X255906D01*
X252756Y464960D02*
X255906D01*
X246654Y323031D02*
Y328346D01*
X255315Y323031D02*
Y328346D01*
X246654D02*
X255315D01*
X246654Y323031D02*
X255315D01*
X246654Y362943D02*
Y368258D01*
X255315Y362943D02*
Y368258D01*
X246654D02*
X255315D01*
X246654Y362943D02*
X255315D01*
X237500Y311910D02*
X242815D01*
X237500Y303248D02*
X242815D01*
Y311910D01*
X237500Y303248D02*
Y311910D01*
X237500Y351821D02*
X242815D01*
X237500Y343160D02*
X242815D01*
Y351821D01*
X237500Y343160D02*
Y351821D01*
X248425Y304193D02*
X253543D01*
Y315689D01*
X248425D02*
X253543D01*
X248425Y304193D02*
Y315689D01*
X248425Y344104D02*
X253543D01*
Y355600D01*
X248425D02*
X253543D01*
X248425Y344104D02*
Y355600D01*
X104331Y337649D02*
X146064D01*
Y298278D02*
Y337649D01*
X104331Y298278D02*
X146064D01*
X104331D02*
Y337649D01*
X104331Y377560D02*
X146064D01*
Y338189D02*
Y377560D01*
X104331Y338189D02*
X146064D01*
X104331D02*
Y377560D01*
X151772Y302805D02*
X232480D01*
X151772D02*
Y331152D01*
X232480D01*
Y302805D02*
Y331152D01*
X151772Y342717D02*
X232480D01*
X151772D02*
Y371063D01*
X232480D01*
Y342717D02*
Y371063D01*
X246850Y321358D02*
X253150D01*
X246850Y318208D02*
X253149D01*
X253150Y318209D02*
Y321358D01*
X246850Y318208D02*
Y321358D01*
X246850Y361270D02*
X253150D01*
X246850Y358120D02*
X253149D01*
X253150Y358120D02*
Y361270D01*
X246850Y358120D02*
Y361269D01*
X237008Y317441D02*
Y328031D01*
Y317441D02*
X243307D01*
X237008Y328031D02*
X243307D01*
Y317441D02*
Y328031D01*
X237008Y357352D02*
Y367943D01*
Y357352D02*
X243307D01*
X237008Y367943D02*
X243307D01*
Y357352D02*
Y367943D01*
X105512Y452757D02*
X147245D01*
Y413386D02*
Y452757D01*
X105512Y413386D02*
X147245D01*
X105512D02*
Y452757D01*
X237008Y238061D02*
Y248652D01*
Y238061D02*
X243307D01*
X237008Y248652D02*
X243307D01*
Y238061D02*
Y248652D01*
X151772Y223425D02*
X232480D01*
X151772D02*
Y251772D01*
X232480D01*
Y223425D02*
Y251772D01*
X104331Y258269D02*
X146064D01*
Y218898D02*
Y258269D01*
X104331Y218898D02*
X146064D01*
X104331D02*
Y258269D01*
X237500Y232529D02*
X242815D01*
X237500Y223868D02*
X242815D01*
Y232529D01*
X237500Y223868D02*
Y232529D01*
X248425Y224813D02*
X253543D01*
Y236309D01*
X248425D02*
X253543D01*
X248425Y224813D02*
Y236309D01*
X246654Y243652D02*
Y248967D01*
X255315Y243652D02*
Y248967D01*
X246654D02*
X255315D01*
X246654Y243652D02*
X255315D01*
X246850Y241978D02*
X253150D01*
X246850Y238828D02*
X253149D01*
X253150Y238829D02*
Y241978D01*
X246850Y238828D02*
Y241978D01*
X166142Y424016D02*
Y443701D01*
X185827Y424016D02*
Y443701D01*
X166142Y424016D02*
X185827D01*
X166142Y443701D02*
X185827D01*
X210196Y476378D02*
X236180D01*
X210196Y458661D02*
X236180D01*
Y476378D01*
X210196Y458661D02*
Y476378D01*
X213723Y435630D02*
X219432D01*
X213723Y444291D02*
X219432D01*
X213723Y435630D02*
Y444291D01*
X219432Y435630D02*
Y444291D01*
X224172Y435630D02*
X229881D01*
X224172Y444291D02*
X229881D01*
X224172Y435630D02*
Y444291D01*
X229881Y435630D02*
Y444291D01*
X212992Y488484D02*
Y494193D01*
X221654Y488484D02*
Y494193D01*
X212992D02*
X221654D01*
X212992Y488484D02*
X221654D01*
X410433Y438061D02*
Y441998D01*
Y471526D02*
Y475463D01*
X463385Y446328D02*
Y467195D01*
X466535Y446525D02*
Y466999D01*
X463385Y446328D02*
X466337D01*
X466535Y446525D01*
X461318Y444261D02*
X463385Y446328D01*
X461318Y469262D02*
X463385Y467195D01*
X466337D02*
X466535Y466999D01*
X463385Y467195D02*
X466337D01*
X461318Y444261D02*
Y469262D01*
X450491Y444261D02*
Y469262D01*
X448424Y446328D02*
X450491Y444261D01*
X448424Y467195D02*
X450491Y469262D01*
Y444261D02*
X461318D01*
X450491Y469262D02*
X461318D01*
X448424Y446328D02*
Y467195D01*
X435826Y446328D02*
X448424D01*
X435826Y467195D02*
X448424D01*
X429134Y438061D02*
X435826Y438062D01*
Y475463D01*
X429133D02*
X435826D01*
X410433Y441998D02*
X429134D01*
X410433Y471526D02*
X429134D01*
X410433Y454951D02*
X429134D01*
X410433Y458573D02*
X429134D01*
X410433Y438061D02*
X429134Y438061D01*
X410433Y475463D02*
X429134Y475463D01*
Y438061D02*
Y475463D01*
X410433Y454951D02*
Y458573D01*
X317274Y480315D02*
Y485630D01*
X308612Y480315D02*
Y485630D01*
Y480315D02*
X317274D01*
X308612Y485630D02*
X317274D01*
Y473130D02*
Y478445D01*
X308612Y473130D02*
Y478445D01*
Y473130D02*
X317274D01*
X308612Y478445D02*
X317274D01*
X309055Y490158D02*
X315354D01*
X309055Y487008D02*
X315354D01*
X315354Y487008D02*
Y490158D01*
X309055Y487008D02*
Y490157D01*
X308661Y471260D02*
X314961D01*
X308661Y468110D02*
X314960D01*
X314961Y468110D02*
Y471260D01*
X308661Y468110D02*
Y471259D01*
X194193Y410630D02*
X199508D01*
X194193Y401968D02*
X199508D01*
Y410630D01*
X194193Y401968D02*
Y410630D01*
X268721Y461417D02*
X279311D01*
X268721Y455118D02*
Y461417D01*
X279311Y455118D02*
Y461417D01*
X268721Y455118D02*
X279311D01*
X187106Y410630D02*
X192421D01*
X187106Y401968D02*
X192421D01*
Y410630D01*
X187106Y401968D02*
Y410630D01*
X125886Y402756D02*
X132382D01*
X125886Y390158D02*
X132382D01*
Y402756D01*
X125886Y390158D02*
Y402756D01*
X286386Y401968D02*
X291701D01*
X286386Y410630D02*
X291701D01*
X286386Y401968D02*
Y410630D01*
X291701Y401968D02*
Y410630D01*
X149035Y461594D02*
Y488012D01*
X134429Y461594D02*
Y488012D01*
Y461594D02*
X149035D01*
X134429Y488012D02*
X149035D01*
X163386Y460236D02*
X170472D01*
X163386Y473622D02*
X170472D01*
X163386Y460236D02*
Y473622D01*
X170472Y460236D02*
Y473622D01*
X163386Y490945D02*
X170472D01*
X163386Y477559D02*
X170472D01*
Y490945D01*
X163386Y477559D02*
Y490945D01*
X136614Y391703D02*
Y402293D01*
Y391703D02*
X142913D01*
X136614Y402293D02*
X142913D01*
Y391703D02*
Y402293D01*
M02*
