G04*
G04 #@! TF.GenerationSoftware,Altium Limited,Altium Designer,19.0.15 (446)*
G04*
G04 Layer_Color=32768*
%FSLAX25Y25*%
%MOIN*%
G70*
G01*
G75*
%ADD11C,0.01000*%
%ADD86C,0.00197*%
D11*
X98425Y133858D02*
Y500000D01*
Y133858D02*
X480315D01*
Y500000D01*
X98425D02*
X480315D01*
X122047Y377953D02*
X220472D01*
X122047D02*
Y381890D01*
X192913D02*
X224410D01*
Y346457D02*
Y381890D01*
X220472Y346457D02*
X224410D01*
X220472D02*
Y377953D01*
X122047Y381890D02*
X192913D01*
D86*
X480315Y404990D02*
Y447313D01*
X481102Y457549D02*
X480315D01*
Y457156D01*
X480446Y457024D01*
X480577D01*
X480709Y457156D01*
Y457549D01*
Y457156D01*
X480840Y457024D01*
X480971D01*
X481102Y457156D01*
Y457549D01*
X480315Y456631D02*
Y456368D01*
X480446Y456237D01*
X480709D01*
X480840Y456368D01*
Y456631D01*
X480709Y456762D01*
X480446D01*
X480315Y456631D01*
X480840Y455844D02*
Y455581D01*
X480709Y455450D01*
X480315D01*
Y455844D01*
X480446Y455975D01*
X480577Y455844D01*
Y455450D01*
X480840Y455188D02*
X480315D01*
X480577D01*
X480709Y455057D01*
X480840Y454925D01*
Y454794D01*
X481102Y453876D02*
X480315D01*
Y454269D01*
X480446Y454401D01*
X480709D01*
X480840Y454269D01*
Y453876D01*
X481102Y452302D02*
Y452826D01*
X480315D01*
Y452302D01*
X480709Y452826D02*
Y452564D01*
X481102Y451514D02*
X480315D01*
Y451908D01*
X480446Y452039D01*
X480709D01*
X480840Y451908D01*
Y451514D01*
X480053Y450990D02*
Y450858D01*
X480184Y450727D01*
X480840D01*
Y451121D01*
X480709Y451252D01*
X480446D01*
X480315Y451121D01*
Y450727D01*
Y450071D02*
Y450334D01*
X480446Y450465D01*
X480709D01*
X480840Y450334D01*
Y450071D01*
X480709Y449940D01*
X480577D01*
Y450465D01*
M02*
