G04*
G04 #@! TF.GenerationSoftware,Altium Limited,Altium Designer,19.0.15 (446)*
G04*
G04 Layer_Physical_Order=1*
G04 Layer_Color=255*
%FSLAX25Y25*%
%MOIN*%
G70*
G01*
G75*
G04:AMPARAMS|DCode=18|XSize=57mil|YSize=45mil|CornerRadius=11.25mil|HoleSize=0mil|Usage=FLASHONLY|Rotation=0.000|XOffset=0mil|YOffset=0mil|HoleType=Round|Shape=RoundedRectangle|*
%AMROUNDEDRECTD18*
21,1,0.05700,0.02250,0,0,0.0*
21,1,0.03450,0.04500,0,0,0.0*
1,1,0.02250,0.01725,-0.01125*
1,1,0.02250,-0.01725,-0.01125*
1,1,0.02250,-0.01725,0.01125*
1,1,0.02250,0.01725,0.01125*
%
%ADD18ROUNDEDRECTD18*%
%ADD19R,0.10000X0.05906*%
%ADD20R,0.06299X0.03150*%
%ADD21R,0.04803X0.03602*%
%ADD22R,0.03347X0.05118*%
%ADD23R,0.03827X0.03158*%
%ADD24R,0.02362X0.03150*%
%ADD25R,0.03543X0.05906*%
%ADD26O,0.01378X0.08268*%
%ADD27R,0.06102X0.05315*%
%ADD28R,0.19685X0.03937*%
%ADD29R,0.19685X0.05512*%
%ADD30R,0.03150X0.02362*%
%ADD31R,0.05118X0.03347*%
G04:AMPARAMS|DCode=32|XSize=57mil|YSize=45mil|CornerRadius=11.25mil|HoleSize=0mil|Usage=FLASHONLY|Rotation=90.000|XOffset=0mil|YOffset=0mil|HoleType=Round|Shape=RoundedRectangle|*
%AMROUNDEDRECTD32*
21,1,0.05700,0.02250,0,0,90.0*
21,1,0.03450,0.04500,0,0,90.0*
1,1,0.02250,0.01125,0.01725*
1,1,0.02250,0.01125,-0.01725*
1,1,0.02250,-0.01125,-0.01725*
1,1,0.02250,-0.01125,0.01725*
%
%ADD32ROUNDEDRECTD32*%
%ADD33R,0.03602X0.04803*%
%ADD34R,0.07087X0.03937*%
%ADD35R,0.03937X0.05512*%
%ADD36R,0.12795X0.05512*%
%ADD37R,0.03740X0.06693*%
%ADD69C,0.05906*%
%ADD70C,0.01181*%
%ADD71C,0.03937*%
%ADD72C,0.03150*%
%ADD73C,0.12992*%
%ADD74R,0.08071X0.08071*%
%ADD75C,0.08071*%
%ADD76C,0.06693*%
%ADD77R,0.06693X0.06693*%
%ADD78C,0.19685*%
%ADD79C,0.07874*%
%ADD80C,0.06299*%
%ADD81R,0.06299X0.06299*%
%ADD82R,0.05118X0.05118*%
%ADD83C,0.05118*%
%ADD84C,0.03150*%
%ADD85C,0.03937*%
G36*
X480315Y428415D02*
X470653D01*
X470472Y428439D01*
X453669D01*
Y429400D01*
X442095D01*
Y421919D01*
X453669D01*
Y422880D01*
X470472D01*
X470653Y422903D01*
X480315D01*
Y133858D01*
X422063D01*
Y221164D01*
X432476D01*
X432881Y220186D01*
X433638Y219199D01*
X434625Y218442D01*
X435775Y217966D01*
X437008Y217804D01*
X438241Y217966D01*
X439390Y218442D01*
X440377Y219199D01*
X441135Y220186D01*
X441611Y221336D01*
X441773Y222569D01*
X441611Y223802D01*
X441135Y224952D01*
X440377Y225938D01*
X439390Y226696D01*
X438241Y227172D01*
X437008Y227334D01*
X435775Y227172D01*
X434625Y226696D01*
X433638Y225938D01*
X432881Y224952D01*
X432476Y223974D01*
X421260D01*
Y231951D01*
X432476D01*
X432881Y230974D01*
X433638Y229987D01*
X434625Y229229D01*
X435775Y228753D01*
X437008Y228591D01*
X438241Y228753D01*
X439390Y229229D01*
X440377Y229987D01*
X441135Y230974D01*
X441611Y232123D01*
X441773Y233356D01*
X441611Y234590D01*
X441135Y235739D01*
X440377Y236726D01*
X439390Y237483D01*
X438241Y237959D01*
X437008Y238122D01*
X435775Y237959D01*
X434625Y237483D01*
X433638Y236726D01*
X432881Y235739D01*
X432476Y234761D01*
X421260D01*
Y328948D01*
X421722Y329140D01*
X432205Y318657D01*
Y315844D01*
X432353Y315098D01*
X432776Y314465D01*
X433408Y314042D01*
X434155Y313894D01*
X436405D01*
X437151Y314042D01*
X437783Y314465D01*
X438206Y315098D01*
X438354Y315844D01*
Y319294D01*
X438206Y320040D01*
X437783Y320673D01*
X437151Y321095D01*
X436405Y321244D01*
X434155D01*
X433685Y321150D01*
X421777Y333058D01*
X421828Y333661D01*
X422002Y333922D01*
X422063Y334229D01*
Y354698D01*
X422039Y354817D01*
X422026Y354939D01*
X422009Y354970D01*
X422002Y355005D01*
X421934Y355106D01*
X421875Y355213D01*
X421564Y355585D01*
X421536Y355607D01*
X421517Y355637D01*
X421415Y355704D01*
X421320Y355781D01*
X421286Y355791D01*
X421260Y355808D01*
Y359251D01*
X421286Y359268D01*
X421320Y359278D01*
X421415Y359355D01*
X421517Y359422D01*
X421536Y359452D01*
X421564Y359474D01*
X421875Y359846D01*
X421934Y359953D01*
X422002Y360054D01*
X422009Y360089D01*
X422026Y360120D01*
X422039Y360242D01*
X422063Y360361D01*
Y500000D01*
X480315D01*
Y428415D01*
D02*
G37*
G36*
X421260Y360361D02*
X420949Y359990D01*
X420760Y359990D01*
X414256D01*
Y355069D01*
X416197D01*
Y352724D01*
X415731Y352631D01*
X415099Y352208D01*
X414676Y351575D01*
X414528Y350829D01*
Y347379D01*
X414676Y346633D01*
X415099Y346001D01*
X415731Y345578D01*
X416477Y345429D01*
X418727D01*
X419474Y345578D01*
X420106Y346001D01*
X420529Y346633D01*
X420677Y347379D01*
Y350829D01*
X420529Y351575D01*
X420106Y352208D01*
X419474Y352631D01*
X419007Y352724D01*
Y355069D01*
X420760D01*
X420949Y355069D01*
X421260Y354698D01*
Y334229D01*
X420798Y334037D01*
X419196Y335639D01*
X418740Y335944D01*
X418203Y336051D01*
X408062D01*
X401996Y342117D01*
Y343110D01*
X406496D01*
Y350590D01*
X406496D01*
X406259Y351091D01*
X406346Y351526D01*
X406162Y352447D01*
X405640Y353229D01*
X404859Y353751D01*
X403937Y353934D01*
X403015Y353751D01*
X402234Y353229D01*
X401712Y352447D01*
X401529Y351526D01*
X401615Y351091D01*
X401378Y350590D01*
X401378D01*
Y349294D01*
X400916Y349102D01*
X394694Y355324D01*
X394238Y355629D01*
X393701Y355736D01*
X391063D01*
X367853Y378946D01*
X367634Y379092D01*
X353016Y393710D01*
X352561Y394015D01*
X352023Y394122D01*
X320885D01*
X309082Y405925D01*
Y414173D01*
X308975Y414711D01*
X308671Y415167D01*
X302175Y421663D01*
X301719Y421967D01*
X301181Y422074D01*
X291200D01*
X290662Y421967D01*
X290206Y421663D01*
X288247Y419703D01*
X287464Y419547D01*
X286682Y419025D01*
X286160Y418244D01*
X285977Y417322D01*
X286110Y416652D01*
X286083Y416562D01*
X285806Y416167D01*
X285744Y416126D01*
X285390Y416056D01*
X284901Y415730D01*
X284575Y415241D01*
X284461Y414665D01*
Y407776D01*
X284575Y407200D01*
X284901Y406711D01*
X284718Y406233D01*
X284714Y406230D01*
X284192Y405448D01*
X284008Y404527D01*
X284192Y403605D01*
X284714Y402824D01*
X285495Y402302D01*
X286417Y402118D01*
X287338Y402302D01*
X288120Y402824D01*
X288642Y403605D01*
X288825Y404527D01*
X288642Y405448D01*
X288419Y405782D01*
X288451Y405929D01*
X288674Y406300D01*
X289101Y406385D01*
X289179Y406437D01*
X289679Y406170D01*
Y387138D01*
X288788Y386247D01*
X275901D01*
X275137Y387011D01*
X275282Y387490D01*
X275527Y387539D01*
X276309Y388061D01*
X276831Y388842D01*
X276935Y389365D01*
X277490Y389595D01*
X277622Y389507D01*
X278543Y389324D01*
X279068Y389428D01*
X279568Y389020D01*
Y387697D01*
X287245D01*
Y394587D01*
X279568D01*
Y394444D01*
X279068Y394036D01*
X278543Y394141D01*
X277622Y393957D01*
X276840Y393435D01*
X276735Y393277D01*
X276235Y393429D01*
Y402951D01*
X276676Y403187D01*
X276861Y403063D01*
X277782Y402880D01*
X278704Y403063D01*
X279485Y403585D01*
X280008Y404367D01*
X280191Y405289D01*
X280058Y405956D01*
X280077Y405995D01*
X280473Y406345D01*
X280848Y406270D01*
X281424Y406385D01*
X281912Y406711D01*
X282239Y407200D01*
X282353Y407776D01*
Y414665D01*
X282239Y415241D01*
X282215Y415276D01*
Y415620D01*
X282736Y416400D01*
X282920Y417322D01*
X282736Y418244D01*
X282214Y419025D01*
X281433Y419547D01*
X280511Y419731D01*
X279590Y419547D01*
X278808Y419025D01*
X278286Y418244D01*
X278103Y417322D01*
X278236Y416652D01*
X277954Y416141D01*
X277891Y416092D01*
X277713Y416056D01*
X277343Y415809D01*
X277009Y415761D01*
X276676Y415809D01*
X276306Y416056D01*
X275730Y416171D01*
X275154Y416056D01*
X274784Y415809D01*
X274450Y415761D01*
X274117Y415809D01*
X273747Y416056D01*
X273171Y416171D01*
X272595Y416056D01*
X272106Y415730D01*
X271780Y415241D01*
X271665Y414665D01*
Y408204D01*
X269345Y405883D01*
X268763Y405768D01*
X267981Y405246D01*
X267459Y404464D01*
X267276Y403543D01*
X267459Y402621D01*
X267981Y401839D01*
X268763Y401317D01*
X269685Y401134D01*
X270606Y401317D01*
X271388Y401839D01*
X271910Y402621D01*
X272093Y403543D01*
X271910Y404464D01*
X271905Y404470D01*
X272963Y405528D01*
X273425Y405336D01*
Y391816D01*
X272903Y391467D01*
X272381Y390686D01*
X272332Y390440D01*
X271853Y390295D01*
X262232Y399917D01*
Y425660D01*
X262125Y426197D01*
X261820Y426653D01*
X251456Y437017D01*
X251000Y437322D01*
X250463Y437429D01*
X247830D01*
X247590Y438009D01*
X246959Y438832D01*
X246136Y439463D01*
X245179Y439859D01*
X244151Y439995D01*
X243123Y439859D01*
X242165Y439463D01*
X241343Y438832D01*
X240712Y438009D01*
X240315Y437051D01*
X240180Y436024D01*
X240315Y434996D01*
X240712Y434038D01*
X241343Y433216D01*
X242165Y432585D01*
X243123Y432188D01*
X244151Y432053D01*
X245179Y432188D01*
X246136Y432585D01*
X246959Y433216D01*
X247590Y434038D01*
X247830Y434619D01*
X249881D01*
X259422Y425077D01*
Y422352D01*
X258960Y422161D01*
X254104Y427017D01*
X254104Y427017D01*
X253648Y427322D01*
X253110Y427429D01*
X247830D01*
X247590Y428009D01*
X246959Y428831D01*
X246136Y429463D01*
X245179Y429859D01*
X244151Y429995D01*
X243123Y429859D01*
X242165Y429463D01*
X241343Y428831D01*
X240712Y428009D01*
X240315Y427051D01*
X240180Y426024D01*
X240315Y424996D01*
X240712Y424038D01*
X241343Y423216D01*
X242165Y422585D01*
X243123Y422188D01*
X244151Y422053D01*
X245179Y422188D01*
X246136Y422585D01*
X246959Y423216D01*
X247590Y424038D01*
X247830Y424619D01*
X252528D01*
X257453Y419694D01*
Y398519D01*
X257560Y397982D01*
X257865Y397526D01*
X273142Y382249D01*
X273093Y381751D01*
X272903Y381624D01*
X272381Y380843D01*
X272197Y379921D01*
X272381Y379000D01*
X272903Y378218D01*
X273684Y377696D01*
X274606Y377513D01*
X275527Y377696D01*
X276309Y378218D01*
X276508Y378516D01*
X312992D01*
X313530Y378623D01*
X313986Y378928D01*
X319480Y384422D01*
X349144D01*
X368674Y364892D01*
Y353428D01*
X368376Y353229D01*
X367854Y352447D01*
X367670Y351526D01*
X367854Y350604D01*
X368376Y349822D01*
X369157Y349300D01*
X370079Y349117D01*
X371000Y349300D01*
X371186Y349424D01*
X371626Y349188D01*
Y281496D01*
X371733Y280958D01*
X372038Y280503D01*
X404402Y248139D01*
Y235679D01*
X399705D01*
Y233738D01*
X398524D01*
Y234695D01*
X394587D01*
Y229970D01*
X398524D01*
Y230928D01*
X399705D01*
Y228986D01*
X404402D01*
Y228396D01*
X404420Y228305D01*
X404010Y227805D01*
X399705D01*
Y225864D01*
X398524D01*
Y226821D01*
X394587D01*
Y222096D01*
X398524D01*
Y223054D01*
X399705D01*
Y221112D01*
X404626D01*
Y226883D01*
X405126Y227090D01*
X406398Y225818D01*
Y221112D01*
X411319D01*
Y221164D01*
X421260D01*
Y133858D01*
X248031D01*
Y154630D01*
X248493Y154821D01*
X254701Y148613D01*
X255157Y148308D01*
X255695Y148201D01*
X371850D01*
X372388Y148308D01*
X372844Y148613D01*
X379373Y155142D01*
X379724Y155072D01*
X380646Y155255D01*
X381427Y155777D01*
X381949Y156559D01*
X382133Y157480D01*
X381949Y158402D01*
X381427Y159183D01*
X380646Y159705D01*
X379724Y159889D01*
X378803Y159705D01*
X378021Y159183D01*
X377499Y158402D01*
X377316Y157480D01*
X377386Y157129D01*
X371269Y151011D01*
X256277D01*
X248364Y158924D01*
Y202072D01*
X248826Y202263D01*
X251764Y199325D01*
X251736Y199114D01*
X251878Y198035D01*
X252295Y197029D01*
X252957Y196166D01*
X253821Y195503D01*
X254826Y195087D01*
X255906Y194945D01*
X256985Y195087D01*
X257990Y195503D01*
X258854Y196166D01*
X258983Y196335D01*
X266496D01*
Y195098D01*
X268467D01*
X268700Y195002D01*
X269419Y194907D01*
X269685D01*
X270405Y195002D01*
X270637Y195098D01*
X272874D01*
Y200276D01*
X270762D01*
X269958Y201080D01*
X269382Y201521D01*
X268712Y201799D01*
X267992Y201894D01*
X258983D01*
X258854Y202063D01*
X257990Y202725D01*
X256985Y203142D01*
X255906Y203284D01*
X255695Y203256D01*
X249739Y209212D01*
Y241839D01*
X250201Y242030D01*
X251764Y240467D01*
X251736Y240256D01*
X251878Y239177D01*
X252295Y238171D01*
X252957Y237308D01*
X253821Y236645D01*
X254826Y236228D01*
X255906Y236086D01*
X256985Y236228D01*
X257990Y236645D01*
X258854Y237308D01*
X258983Y237476D01*
X266496D01*
Y236240D01*
X268467D01*
X268700Y236144D01*
X269419Y236049D01*
X269685D01*
X270405Y236144D01*
X270637Y236240D01*
X272874D01*
Y241417D01*
X270762D01*
X269958Y242221D01*
X269382Y242663D01*
X268712Y242941D01*
X267992Y243036D01*
X258983D01*
X258854Y243204D01*
X257990Y243867D01*
X256985Y244283D01*
X255906Y244425D01*
X255695Y244398D01*
X249739Y250354D01*
Y282630D01*
X250201Y282821D01*
X251610Y281412D01*
X251583Y281201D01*
X251725Y280122D01*
X252141Y279116D01*
X252804Y278253D01*
X253667Y277590D01*
X254673Y277173D01*
X255752Y277031D01*
X256831Y277173D01*
X257837Y277590D01*
X258700Y278253D01*
X258830Y278421D01*
X266342D01*
Y277185D01*
X268314D01*
X268546Y277089D01*
X269266Y276994D01*
X269531D01*
X270251Y277089D01*
X270484Y277185D01*
X272721D01*
Y282362D01*
X270608D01*
X269804Y283166D01*
X269228Y283608D01*
X268558Y283886D01*
X267839Y283980D01*
X258830D01*
X258700Y284149D01*
X257837Y284812D01*
X256831Y285228D01*
X255752Y285370D01*
X255541Y285343D01*
X249739Y291145D01*
Y323476D01*
X250201Y323668D01*
X251610Y322258D01*
X251583Y322047D01*
X251725Y320968D01*
X252141Y319963D01*
X252804Y319099D01*
X253667Y318436D01*
X254673Y318020D01*
X255752Y317878D01*
X256831Y318020D01*
X257837Y318436D01*
X258700Y319099D01*
X258830Y319268D01*
X266342D01*
Y318032D01*
X268314D01*
X268546Y317935D01*
X269266Y317840D01*
X269531D01*
X270251Y317935D01*
X270484Y318032D01*
X272721D01*
Y323209D01*
X270608D01*
X269804Y324013D01*
X269228Y324454D01*
X268558Y324732D01*
X267839Y324827D01*
X258830D01*
X258700Y324995D01*
X257837Y325658D01*
X256831Y326075D01*
X255752Y326217D01*
X255541Y326189D01*
X249739Y331992D01*
Y364919D01*
X250201Y365111D01*
X251764Y363547D01*
X251736Y363337D01*
X251878Y362258D01*
X252295Y361252D01*
X252957Y360388D01*
X253821Y359726D01*
X254826Y359309D01*
X255906Y359167D01*
X256985Y359309D01*
X257990Y359726D01*
X258854Y360388D01*
X258983Y360557D01*
X266496D01*
Y359321D01*
X268467D01*
X268700Y359225D01*
X269419Y359130D01*
X269685D01*
X270405Y359225D01*
X270637Y359321D01*
X272874D01*
Y364498D01*
X270762D01*
X269958Y365302D01*
X269382Y365744D01*
X268712Y366022D01*
X267992Y366116D01*
X258983D01*
X258854Y366285D01*
X257990Y366948D01*
X256985Y367364D01*
X255906Y367506D01*
X255695Y367478D01*
X249739Y373435D01*
Y376010D01*
X249644Y376729D01*
X249366Y377400D01*
X248924Y377976D01*
X248031Y378869D01*
Y388189D01*
X238711D01*
X234249Y392651D01*
X233673Y393093D01*
X233003Y393370D01*
X232283Y393465D01*
X213182D01*
X202566Y404082D01*
X201990Y404523D01*
X201320Y404801D01*
X200600Y404896D01*
X190772D01*
Y419882D01*
X191339D01*
Y426575D01*
X190772D01*
Y439695D01*
X193793Y442717D01*
X195374D01*
Y444785D01*
X195402Y444851D01*
X195496Y445571D01*
Y446850D01*
Y457087D01*
X195472Y457267D01*
Y460630D01*
X189961D01*
Y457267D01*
X189937Y457087D01*
Y446722D01*
X186027Y442812D01*
X185585Y442236D01*
X185307Y441566D01*
X185212Y440846D01*
Y426575D01*
X184646D01*
Y419882D01*
X185212D01*
Y404896D01*
X178691D01*
X177971Y404801D01*
X177301Y404523D01*
X176725Y404082D01*
X176604Y403961D01*
X176181D01*
X176000Y403937D01*
X171850D01*
Y398425D01*
X176000D01*
X176181Y398401D01*
X177756D01*
X177936Y398425D01*
X180512D01*
Y399337D01*
X199449D01*
X210066Y388720D01*
X210106Y388689D01*
X209936Y388189D01*
X191181D01*
Y391811D01*
X190772D01*
Y393223D01*
X190677Y393942D01*
X190399Y394613D01*
X189958Y395188D01*
X189382Y395630D01*
X188712Y395908D01*
X187992Y396003D01*
X187273Y395908D01*
X186602Y395630D01*
X186027Y395188D01*
X185585Y394613D01*
X185307Y393942D01*
X185212Y393223D01*
Y391811D01*
X184803D01*
Y388189D01*
X180512D01*
Y392913D01*
X175257D01*
X160627Y407543D01*
Y425443D01*
X160444Y426365D01*
X159922Y427146D01*
X144587Y442481D01*
Y448721D01*
X134941D01*
Y439075D01*
X141181D01*
X155810Y424445D01*
Y406545D01*
X155993Y405624D01*
X156516Y404842D01*
X171850Y389507D01*
Y388189D01*
X98770D01*
X98425Y388332D01*
Y500000D01*
X421260D01*
Y360361D01*
D02*
G37*
%LPC*%
G36*
X470472Y496492D02*
X469045Y496351D01*
X467672Y495935D01*
X466406Y495259D01*
X465297Y494348D01*
X464387Y493239D01*
X463711Y491974D01*
X463294Y490601D01*
X463154Y489173D01*
X463294Y487745D01*
X463711Y486373D01*
X464387Y485107D01*
X465297Y483998D01*
X466406Y483088D01*
X467672Y482412D01*
X469045Y481995D01*
X470472Y481854D01*
X471900Y481995D01*
X473273Y482412D01*
X474539Y483088D01*
X475647Y483998D01*
X476558Y485107D01*
X477234Y486373D01*
X477650Y487745D01*
X477791Y489173D01*
X477650Y490601D01*
X477234Y491974D01*
X476558Y493239D01*
X475647Y494348D01*
X474539Y495259D01*
X473273Y495935D01*
X471900Y496351D01*
X470472Y496492D01*
D02*
G37*
G36*
X436405Y352779D02*
X434155D01*
X433408Y352631D01*
X432776Y352208D01*
X432353Y351575D01*
X432205Y350829D01*
Y347379D01*
X432353Y346633D01*
X432776Y346001D01*
X433408Y345578D01*
X434155Y345429D01*
X436405D01*
X437151Y345578D01*
X437783Y346001D01*
X438206Y346633D01*
X438354Y347379D01*
Y350829D01*
X438206Y351575D01*
X437783Y352208D01*
X437151Y352631D01*
X436405Y352779D01*
D02*
G37*
G36*
X470472Y312437D02*
X469045Y312296D01*
X467672Y311880D01*
X466406Y311203D01*
X465297Y310293D01*
X464387Y309184D01*
X463711Y307919D01*
X463294Y306546D01*
X463154Y305118D01*
X463294Y303690D01*
X463711Y302317D01*
X464387Y301052D01*
X465297Y299943D01*
X466406Y299033D01*
X467672Y298357D01*
X469045Y297940D01*
X470472Y297799D01*
X471900Y297940D01*
X473273Y298357D01*
X474539Y299033D01*
X475647Y299943D01*
X476558Y301052D01*
X477234Y302317D01*
X477650Y303690D01*
X477791Y305118D01*
X477650Y306546D01*
X477234Y307919D01*
X476558Y309184D01*
X475647Y310293D01*
X474539Y311203D01*
X473273Y311880D01*
X471900Y312296D01*
X470472Y312437D01*
D02*
G37*
G36*
X437008Y248909D02*
X435775Y248746D01*
X434625Y248270D01*
X433638Y247513D01*
X432881Y246526D01*
X432405Y245377D01*
X432243Y244144D01*
X432405Y242910D01*
X432881Y241761D01*
X433638Y240774D01*
X434625Y240017D01*
X435775Y239541D01*
X437008Y239378D01*
X438241Y239541D01*
X439390Y240017D01*
X440377Y240774D01*
X441135Y241761D01*
X441611Y242910D01*
X441773Y244144D01*
X441611Y245377D01*
X441135Y246526D01*
X440377Y247513D01*
X439390Y248270D01*
X438241Y248746D01*
X437008Y248909D01*
D02*
G37*
G36*
X448189Y243515D02*
X446956Y243353D01*
X445806Y242877D01*
X444819Y242120D01*
X444062Y241133D01*
X443586Y239983D01*
X443424Y238750D01*
X443586Y237517D01*
X444062Y236367D01*
X444819Y235381D01*
X445806Y234623D01*
X446956Y234147D01*
X448189Y233985D01*
X449422Y234147D01*
X450572Y234623D01*
X451558Y235381D01*
X452316Y236367D01*
X452792Y237517D01*
X452954Y238750D01*
X452792Y239983D01*
X452316Y241133D01*
X451558Y242120D01*
X450572Y242877D01*
X449422Y243353D01*
X448189Y243515D01*
D02*
G37*
G36*
Y232728D02*
X446956Y232565D01*
X445806Y232089D01*
X444819Y231332D01*
X444062Y230345D01*
X443586Y229196D01*
X443424Y227963D01*
X443586Y226729D01*
X444062Y225580D01*
X444819Y224593D01*
X445806Y223836D01*
X446956Y223360D01*
X448189Y223197D01*
X449422Y223360D01*
X450572Y223836D01*
X451558Y224593D01*
X452316Y225580D01*
X452792Y226729D01*
X452954Y227963D01*
X452792Y229196D01*
X452316Y230345D01*
X451558Y231332D01*
X450572Y232089D01*
X449422Y232565D01*
X448189Y232728D01*
D02*
G37*
G36*
Y221940D02*
X446956Y221778D01*
X445806Y221302D01*
X444819Y220545D01*
X444062Y219558D01*
X443586Y218408D01*
X443424Y217175D01*
X443586Y215942D01*
X444062Y214793D01*
X444819Y213806D01*
X445806Y213048D01*
X446956Y212572D01*
X448189Y212410D01*
X449422Y212572D01*
X450572Y213048D01*
X451558Y213806D01*
X452316Y214793D01*
X452792Y215942D01*
X452954Y217175D01*
X452792Y218408D01*
X452316Y219558D01*
X451558Y220545D01*
X450572Y221302D01*
X449422Y221778D01*
X448189Y221940D01*
D02*
G37*
G36*
X437008Y216547D02*
X435775Y216384D01*
X434625Y215908D01*
X433638Y215151D01*
X432881Y214164D01*
X432405Y213015D01*
X432243Y211782D01*
X432405Y210548D01*
X432881Y209399D01*
X433638Y208412D01*
X434625Y207655D01*
X435775Y207179D01*
X437008Y207016D01*
X438241Y207179D01*
X439390Y207655D01*
X440377Y208412D01*
X441135Y209399D01*
X441611Y210548D01*
X441773Y211782D01*
X441611Y213015D01*
X441135Y214164D01*
X440377Y215151D01*
X439390Y215908D01*
X438241Y216384D01*
X437008Y216547D01*
D02*
G37*
G36*
X448189Y211153D02*
X446956Y210991D01*
X445806Y210515D01*
X444819Y209757D01*
X444062Y208770D01*
X443586Y207621D01*
X443424Y206388D01*
X443586Y205154D01*
X444062Y204005D01*
X444819Y203018D01*
X445806Y202261D01*
X446956Y201785D01*
X448189Y201623D01*
X449422Y201785D01*
X450572Y202261D01*
X451558Y203018D01*
X452316Y204005D01*
X452792Y205154D01*
X452954Y206388D01*
X452792Y207621D01*
X452316Y208770D01*
X451558Y209757D01*
X450572Y210515D01*
X449422Y210991D01*
X448189Y211153D01*
D02*
G37*
G36*
X470472Y154956D02*
X469045Y154816D01*
X467672Y154399D01*
X466406Y153723D01*
X465297Y152813D01*
X464387Y151704D01*
X463711Y150439D01*
X463294Y149066D01*
X463154Y147638D01*
X463294Y146210D01*
X463711Y144837D01*
X464387Y143572D01*
X465297Y142463D01*
X466406Y141552D01*
X467672Y140876D01*
X469045Y140460D01*
X470472Y140319D01*
X471900Y140460D01*
X473273Y140876D01*
X474539Y141552D01*
X475647Y142463D01*
X476558Y143572D01*
X477234Y144837D01*
X477650Y146210D01*
X477791Y147638D01*
X477650Y149066D01*
X477234Y150439D01*
X476558Y151704D01*
X475647Y152813D01*
X474539Y153723D01*
X473273Y154399D01*
X471900Y154816D01*
X470472Y154956D01*
D02*
G37*
G36*
X305998Y492248D02*
X302548D01*
X301802Y492100D01*
X301169Y491677D01*
X300746Y491044D01*
X300598Y490298D01*
Y488048D01*
X300746Y487302D01*
X301169Y486669D01*
X301802Y486247D01*
X302548Y486098D01*
X305998D01*
X306744Y486247D01*
X307377Y486669D01*
X307799Y487302D01*
X307948Y488048D01*
Y490298D01*
X307799Y491044D01*
X307377Y491677D01*
X306744Y492100D01*
X305998Y492248D01*
D02*
G37*
G36*
X257630D02*
X254181D01*
X253434Y492100D01*
X252802Y491677D01*
X252379Y491044D01*
X252231Y490298D01*
Y488048D01*
X252379Y487302D01*
X252802Y486669D01*
X253434Y486247D01*
X254181Y486098D01*
X257630D01*
X258377Y486247D01*
X259009Y486669D01*
X259432Y487302D01*
X259580Y488048D01*
Y490298D01*
X259432Y491044D01*
X259009Y491677D01*
X258377Y492100D01*
X257630Y492248D01*
D02*
G37*
G36*
X110236Y495508D02*
X108808Y495367D01*
X107436Y494951D01*
X106170Y494274D01*
X105061Y493364D01*
X104151Y492255D01*
X103475Y490990D01*
X103058Y489617D01*
X102918Y488189D01*
X103058Y486761D01*
X103475Y485388D01*
X104151Y484123D01*
X105061Y483014D01*
X106170Y482104D01*
X107436Y481427D01*
X108808Y481011D01*
X110236Y480870D01*
X111664Y481011D01*
X113037Y481427D01*
X114302Y482104D01*
X115411Y483014D01*
X116322Y484123D01*
X116998Y485388D01*
X117414Y486761D01*
X117555Y488189D01*
X117414Y489617D01*
X116998Y490990D01*
X116322Y492255D01*
X115411Y493364D01*
X114302Y494274D01*
X113037Y494951D01*
X111664Y495367D01*
X110236Y495508D01*
D02*
G37*
G36*
X202756Y478786D02*
X201834Y478603D01*
X201053Y478081D01*
X200531Y477300D01*
X200347Y476378D01*
X200394Y476145D01*
Y471358D01*
X207087D01*
Y476279D01*
X205245D01*
X205164Y476378D01*
X204981Y477300D01*
X204459Y478081D01*
X203678Y478603D01*
X202756Y478786D01*
D02*
G37*
G36*
X274463Y492248D02*
X271012D01*
X270266Y492100D01*
X269634Y491677D01*
X269211Y491044D01*
X269063Y490298D01*
Y488048D01*
X269211Y487302D01*
X269634Y486669D01*
X270266Y486247D01*
X271012Y486098D01*
X271333D01*
Y479703D01*
X254759Y463129D01*
X254454Y462673D01*
X254347Y462135D01*
Y452354D01*
X249422Y447429D01*
X247830D01*
X247590Y448009D01*
X246959Y448832D01*
X246136Y449463D01*
X245179Y449859D01*
X244151Y449995D01*
X243123Y449859D01*
X242165Y449463D01*
X241343Y448832D01*
X240712Y448009D01*
X240472Y447429D01*
X234702D01*
Y449370D01*
X229781D01*
Y442677D01*
X234702D01*
Y444619D01*
X240472D01*
X240712Y444038D01*
X241343Y443216D01*
X242165Y442585D01*
X243123Y442188D01*
X244151Y442053D01*
X245179Y442188D01*
X246136Y442585D01*
X246959Y443216D01*
X247590Y444038D01*
X247830Y444619D01*
X250004D01*
X250542Y444726D01*
X250997Y445030D01*
X256745Y450778D01*
X257050Y451234D01*
X257157Y451772D01*
Y461553D01*
X268634Y473031D01*
X269095Y472784D01*
X269063Y472621D01*
Y470371D01*
X269211Y469625D01*
X269634Y468992D01*
X270266Y468570D01*
X271012Y468421D01*
X274463D01*
X275209Y468570D01*
X275841Y468992D01*
X276023Y469264D01*
X276911Y469088D01*
X277833Y469271D01*
X278614Y469793D01*
X279136Y470574D01*
X279319Y471496D01*
X279136Y472418D01*
X278614Y473199D01*
X277833Y473721D01*
X276911Y473905D01*
X276023Y473728D01*
X275841Y474000D01*
X275209Y474423D01*
X274463Y474571D01*
X271012D01*
X270849Y474539D01*
X270603Y474999D01*
X273731Y478127D01*
X274036Y478583D01*
X274143Y479121D01*
Y486098D01*
X274463D01*
X275209Y486247D01*
X275841Y486669D01*
X276264Y487302D01*
X276412Y488048D01*
Y490298D01*
X276264Y491044D01*
X275841Y491677D01*
X275209Y492100D01*
X274463Y492248D01*
D02*
G37*
G36*
X305998Y474571D02*
X302548D01*
X301802Y474423D01*
X301169Y474000D01*
X300746Y473367D01*
X300598Y472621D01*
Y470371D01*
X300746Y469625D01*
X301169Y468992D01*
X301802Y468570D01*
X302548Y468421D01*
X305998D01*
X306744Y468570D01*
X307377Y468992D01*
X307799Y469625D01*
X307948Y470371D01*
Y472621D01*
X307799Y473367D01*
X307377Y474000D01*
X306744Y474423D01*
X305998Y474571D01*
D02*
G37*
G36*
X257630D02*
X254181D01*
X253434Y474423D01*
X252802Y474000D01*
X252379Y473367D01*
X252231Y472621D01*
Y470371D01*
X252379Y469625D01*
X252802Y468992D01*
X253434Y468570D01*
X254181Y468421D01*
X257630D01*
X258377Y468570D01*
X259009Y468992D01*
X259432Y469625D01*
X259580Y470371D01*
Y472621D01*
X259432Y473367D01*
X259009Y474000D01*
X258377Y474423D01*
X257630Y474571D01*
D02*
G37*
G36*
X379181Y463927D02*
X371307D01*
Y463206D01*
X370807Y462893D01*
X370079Y463038D01*
X369157Y462855D01*
X368376Y462333D01*
X367854Y461552D01*
X367670Y460630D01*
X367854Y459708D01*
X368376Y458927D01*
X369157Y458405D01*
X370079Y458221D01*
X371000Y458405D01*
X371782Y458927D01*
X371966Y459203D01*
X379181D01*
Y463927D01*
D02*
G37*
G36*
X207087Y469587D02*
X200394D01*
Y464665D01*
X202335D01*
Y461909D01*
X201378D01*
Y457972D01*
X206102D01*
Y461909D01*
X205145D01*
Y464665D01*
X207087D01*
Y469587D01*
D02*
G37*
G36*
X177362Y460630D02*
X171850D01*
Y453543D01*
X172198D01*
Y451293D01*
X171889Y450984D01*
X169980D01*
Y449516D01*
X169594Y449199D01*
X169291Y449259D01*
X168370Y449076D01*
X167588Y448553D01*
X167066Y447772D01*
X166883Y446850D01*
X167066Y445929D01*
X167588Y445147D01*
X168370Y444625D01*
X169291Y444442D01*
X169594Y444502D01*
X169980Y444185D01*
Y442717D01*
X175295D01*
Y447335D01*
X175528Y447381D01*
X176309Y447903D01*
X176831Y448685D01*
X177015Y449606D01*
Y453543D01*
X177362D01*
Y454047D01*
X177749Y454364D01*
X178150Y454284D01*
X179071Y454468D01*
X179853Y454990D01*
X180375Y455771D01*
X180558Y456693D01*
X180375Y457615D01*
X179853Y458396D01*
X179071Y458918D01*
X178150Y459101D01*
X177749Y459022D01*
X177362Y459339D01*
Y460630D01*
D02*
G37*
G36*
X291457Y461070D02*
X290536Y460887D01*
X289754Y460364D01*
X289232Y459583D01*
X289049Y458661D01*
X289165Y458079D01*
X288784Y457579D01*
X287458D01*
Y450689D01*
X295135D01*
Y457579D01*
X294130D01*
X293750Y458079D01*
X293866Y458661D01*
X293682Y459583D01*
X293160Y460364D01*
X292379Y460887D01*
X291457Y461070D01*
D02*
G37*
G36*
X280848D02*
X279926Y460887D01*
X279145Y460364D01*
X278623Y459583D01*
X278439Y458661D01*
X278555Y458079D01*
X278175Y457579D01*
X277009D01*
Y450689D01*
X284686D01*
Y457579D01*
X283521D01*
X283140Y458079D01*
X283256Y458661D01*
X283073Y459583D01*
X282551Y460364D01*
X281769Y460887D01*
X280848Y461070D01*
D02*
G37*
G36*
X351298Y468531D02*
X330853D01*
X330316Y468424D01*
X329860Y468119D01*
X324788Y463048D01*
X324484Y462592D01*
X324377Y462054D01*
Y455557D01*
X324484Y455019D01*
X324788Y454564D01*
X328924Y450427D01*
X328684Y449847D01*
X328549Y448819D01*
X328684Y447791D01*
X329081Y446833D01*
X329712Y446011D01*
X330534Y445380D01*
X330844Y445251D01*
X330745Y444751D01*
X330644D01*
X330107Y444644D01*
X329651Y444340D01*
X323625Y438314D01*
X300036D01*
X299579Y438224D01*
X297494D01*
X297267Y438564D01*
X296778Y438891D01*
X296202Y439005D01*
X295626Y438891D01*
X295256Y438644D01*
X294923Y438595D01*
X294589Y438644D01*
X294267Y438859D01*
X294183Y438999D01*
X294071Y439370D01*
X300197Y445496D01*
X300549Y445426D01*
X301470Y445610D01*
X302252Y446132D01*
X302774Y446913D01*
X302957Y447835D01*
X302774Y448756D01*
X302252Y449538D01*
X301470Y450060D01*
X300549Y450243D01*
X299627Y450060D01*
X298846Y449538D01*
X298323Y448756D01*
X298140Y447835D01*
X298210Y447483D01*
X291212Y440485D01*
X290752Y440732D01*
X290794Y440944D01*
X290610Y441866D01*
X290088Y442647D01*
X289307Y443169D01*
X288385Y443353D01*
X287464Y443169D01*
X286682Y442647D01*
X286160Y441866D01*
X285977Y440944D01*
X286160Y440022D01*
X286581Y439393D01*
X286304Y438938D01*
X285966Y439005D01*
X285390Y438891D01*
X284901Y438564D01*
X284575Y438076D01*
X284461Y437500D01*
Y430610D01*
X284575Y430034D01*
X284599Y429999D01*
Y429379D01*
X284393Y429070D01*
X284209Y428149D01*
X284393Y427227D01*
X284915Y426446D01*
X285696Y425924D01*
X286618Y425740D01*
X287540Y425924D01*
X288321Y426446D01*
X288843Y427227D01*
X289026Y428149D01*
X288851Y429032D01*
X289100Y429082D01*
X289556Y429386D01*
X289563Y429397D01*
X290189Y429433D01*
X290508Y429220D01*
X291084Y429105D01*
X291660Y429220D01*
X292030Y429467D01*
X292579Y429546D01*
X292801Y429397D01*
X292837Y429216D01*
X293142Y428761D01*
X294353Y427550D01*
X294808Y427245D01*
X295346Y427138D01*
X325841D01*
X326379Y427245D01*
X326835Y427550D01*
X328058Y428774D01*
X328579Y428587D01*
X328684Y427791D01*
X328789Y427538D01*
X324299Y423048D01*
X323994Y422592D01*
X323887Y422054D01*
Y414865D01*
X323994Y414327D01*
X324299Y413872D01*
X327943Y410227D01*
X328399Y409923D01*
X328937Y409816D01*
X376573D01*
X377110Y409923D01*
X377566Y410227D01*
X381604Y414264D01*
X381908Y414720D01*
X381953Y414947D01*
X382453Y414898D01*
Y404864D01*
X380699Y403110D01*
X380395Y402654D01*
X380386Y402608D01*
X376378D01*
Y397687D01*
X383071D01*
Y401094D01*
X383098Y401230D01*
Y401534D01*
X384047Y402484D01*
X384547Y402277D01*
Y397687D01*
X391240D01*
Y402608D01*
X389299D01*
Y445364D01*
X389192Y445902D01*
X388887Y446358D01*
X382686Y452558D01*
X382231Y452863D01*
X381693Y452970D01*
X379181D01*
Y453927D01*
X371307D01*
Y452970D01*
X367441D01*
X352292Y468119D01*
X351836Y468424D01*
X351298Y468531D01*
D02*
G37*
G36*
X206398Y450984D02*
X201083D01*
Y442717D01*
X206398D01*
Y444200D01*
X206693Y444442D01*
X207615Y444625D01*
X208396Y445147D01*
X208918Y445929D01*
X209101Y446850D01*
X208918Y447772D01*
X208396Y448553D01*
X207615Y449076D01*
X206693Y449259D01*
X206398Y449501D01*
Y450984D01*
D02*
G37*
G36*
X278543Y443255D02*
X277622Y443072D01*
X276840Y442550D01*
X276318Y441768D01*
X276135Y440846D01*
X276318Y439925D01*
X276840Y439143D01*
X276875Y439120D01*
X276873Y439113D01*
X276306Y438891D01*
X275730Y439005D01*
X275154Y438891D01*
X274784Y438644D01*
X274450Y438595D01*
X274117Y438644D01*
X273747Y438891D01*
X273171Y439005D01*
X272595Y438891D01*
X272106Y438564D01*
X271780Y438076D01*
X271665Y437500D01*
Y431869D01*
X271212Y431566D01*
X269189Y429543D01*
X269037Y429574D01*
X268115Y429390D01*
X267334Y428868D01*
X266812Y428087D01*
X266628Y427165D01*
X266812Y426244D01*
X267334Y425462D01*
X268115Y424940D01*
X269037Y424757D01*
X269958Y424940D01*
X270691Y425430D01*
X270863Y425485D01*
X271148D01*
X271319Y425430D01*
X272052Y424940D01*
X272974Y424757D01*
X273895Y424940D01*
X274260Y425184D01*
X274939Y425036D01*
X275208Y424633D01*
X275989Y424111D01*
X276911Y423928D01*
X277833Y424111D01*
X278614Y424633D01*
X279136Y425414D01*
X279319Y426336D01*
X279140Y427236D01*
X279193Y427315D01*
X279295Y427826D01*
X279549Y428207D01*
X279656Y428745D01*
Y429030D01*
X280156Y429297D01*
X280272Y429220D01*
X280848Y429105D01*
X281424Y429220D01*
X281912Y429546D01*
X282239Y430034D01*
X282353Y430610D01*
Y437500D01*
X282239Y438076D01*
X282215Y438111D01*
Y438381D01*
X282108Y438918D01*
X281804Y439374D01*
X280849Y440329D01*
X280952Y440846D01*
X280768Y441768D01*
X280246Y442550D01*
X279465Y443072D01*
X278543Y443255D01*
D02*
G37*
G36*
X178150Y426604D02*
X177276Y426489D01*
X176462Y426152D01*
X175763Y425615D01*
X175226Y424916D01*
X174889Y424102D01*
X174774Y423228D01*
X174889Y422355D01*
X175226Y421541D01*
X175763Y420842D01*
X176462Y420305D01*
X177276Y419968D01*
X178150Y419853D01*
X179023Y419968D01*
X179837Y420305D01*
X180536Y420842D01*
X181073Y421541D01*
X181410Y422355D01*
X181525Y423228D01*
X181410Y424102D01*
X181073Y424916D01*
X180536Y425615D01*
X179837Y426152D01*
X179023Y426489D01*
X178150Y426604D01*
D02*
G37*
G36*
X139764Y429077D02*
X138505Y428911D01*
X137332Y428425D01*
X136324Y427652D01*
X135551Y426645D01*
X135065Y425472D01*
X134899Y424213D01*
X135065Y422954D01*
X135551Y421780D01*
X136324Y420773D01*
X137332Y420000D01*
X138505Y419514D01*
X139764Y419348D01*
X141023Y419514D01*
X142196Y420000D01*
X143203Y420773D01*
X143976Y421780D01*
X144463Y422954D01*
X144628Y424213D01*
X144463Y425472D01*
X143976Y426645D01*
X143203Y427652D01*
X142196Y428425D01*
X141023Y428911D01*
X139764Y429077D01*
D02*
G37*
G36*
X226926Y418642D02*
X222005D01*
Y417701D01*
X221564Y417466D01*
X221394Y417580D01*
X220472Y417763D01*
X219551Y417580D01*
X218769Y417057D01*
X218247Y416276D01*
X218064Y415354D01*
X218247Y414433D01*
X218769Y413651D01*
X219551Y413129D01*
X220472Y412946D01*
X221394Y413129D01*
X221564Y413243D01*
X222005Y413007D01*
Y411949D01*
X226926D01*
Y418642D01*
D02*
G37*
G36*
X226095Y474571D02*
X222645D01*
X221899Y474423D01*
X221266Y474000D01*
X220844Y473367D01*
X220695Y472621D01*
Y470371D01*
X220789Y469902D01*
X217511Y466623D01*
X217206Y466168D01*
X217099Y465630D01*
Y431709D01*
X217206Y431172D01*
X217511Y430716D01*
X229084Y419142D01*
X228946Y418642D01*
X228698D01*
Y411949D01*
X233619D01*
Y414619D01*
X240472D01*
X240712Y414038D01*
X241343Y413216D01*
X242165Y412585D01*
X243123Y412188D01*
X244151Y412053D01*
X245179Y412188D01*
X246136Y412585D01*
X246959Y413216D01*
X247590Y414038D01*
X247987Y414996D01*
X248122Y416024D01*
X247987Y417051D01*
X247590Y418009D01*
X246959Y418831D01*
X246136Y419463D01*
X245179Y419859D01*
X244151Y419995D01*
X243123Y419859D01*
X242165Y419463D01*
X241343Y418831D01*
X240712Y418009D01*
X240472Y417429D01*
X233619D01*
Y418642D01*
X231992D01*
Y419626D01*
X231885Y420164D01*
X231580Y420619D01*
X219909Y432291D01*
Y465048D01*
X223282Y468421D01*
X226095D01*
X226841Y468570D01*
X227474Y468992D01*
X227896Y469625D01*
X228045Y470371D01*
Y472621D01*
X227896Y473367D01*
X227474Y474000D01*
X226841Y474423D01*
X226095Y474571D01*
D02*
G37*
G36*
X244151Y409995D02*
X243123Y409859D01*
X242165Y409463D01*
X241343Y408832D01*
X240712Y408009D01*
X240472Y407429D01*
X233846D01*
Y409528D01*
X228669D01*
Y403150D01*
X233846D01*
Y404619D01*
X240472D01*
X240712Y404038D01*
X241343Y403216D01*
X242165Y402585D01*
X243123Y402188D01*
X244151Y402053D01*
X245179Y402188D01*
X246136Y402585D01*
X246959Y403216D01*
X247590Y404038D01*
X247987Y404996D01*
X248122Y406024D01*
X247987Y407051D01*
X247590Y408009D01*
X246959Y408832D01*
X246136Y409463D01*
X245179Y409859D01*
X244151Y409995D01*
D02*
G37*
G36*
X248088Y399961D02*
X240214D01*
Y392087D01*
X248088D01*
Y399961D01*
D02*
G37*
G36*
X110236Y403342D02*
X108808Y403202D01*
X107436Y402785D01*
X106170Y402109D01*
X105061Y401199D01*
X104151Y400090D01*
X103475Y398824D01*
X103058Y397451D01*
X102918Y396024D01*
X103058Y394596D01*
X103475Y393223D01*
X104151Y391958D01*
X105061Y390848D01*
X106170Y389938D01*
X107436Y389262D01*
X108808Y388846D01*
X110236Y388705D01*
X111664Y388846D01*
X113037Y389262D01*
X114302Y389938D01*
X115411Y390848D01*
X116322Y391958D01*
X116998Y393223D01*
X117414Y394596D01*
X117555Y396024D01*
X117414Y397451D01*
X116998Y398824D01*
X116322Y400090D01*
X115411Y401199D01*
X114302Y402109D01*
X113037Y402785D01*
X111664Y403202D01*
X110236Y403342D01*
D02*
G37*
G36*
X391240Y395915D02*
X384547D01*
Y390994D01*
X386489D01*
Y389813D01*
X385531D01*
Y385876D01*
X390256D01*
Y389813D01*
X389299D01*
Y390994D01*
X391240D01*
Y395915D01*
D02*
G37*
G36*
X383071D02*
X376378D01*
Y390994D01*
X378320D01*
Y389813D01*
X377362D01*
Y385876D01*
X382087D01*
Y389813D01*
X381129D01*
Y390994D01*
X383071D01*
Y395915D01*
D02*
G37*
G36*
X383809Y384544D02*
X382887Y384361D01*
X382569Y384148D01*
X382087Y384104D01*
X382087Y384104D01*
X382087Y384104D01*
X377362D01*
Y380167D01*
X382087D01*
X382087Y380167D01*
Y380167D01*
X382569Y380124D01*
X382887Y379911D01*
X383809Y379727D01*
X384731Y379911D01*
X385050Y380124D01*
X385531Y380167D01*
X385531Y380167D01*
X385531Y380167D01*
X390256D01*
Y384104D01*
X385531D01*
X385531Y384104D01*
Y384104D01*
X385050Y384148D01*
X384731Y384361D01*
X383809Y384544D01*
D02*
G37*
G36*
X293307Y368599D02*
X292385Y368416D01*
X291604Y367894D01*
X291082Y367113D01*
X290899Y366191D01*
X291082Y365269D01*
X291604Y364488D01*
X292385Y363966D01*
X292394Y363964D01*
Y363927D01*
X292421Y363791D01*
Y360974D01*
X295830D01*
X296037Y360474D01*
X294371Y358809D01*
X291437D01*
Y356370D01*
X290937Y356174D01*
X290292Y356605D01*
X289370Y356788D01*
X288448Y356605D01*
X288181Y356427D01*
X287681Y356694D01*
Y357632D01*
X282279D01*
Y352900D01*
X287518D01*
X287667Y352677D01*
X288448Y352155D01*
X289370Y351971D01*
X290292Y352155D01*
X290937Y352586D01*
X291437Y352390D01*
Y352116D01*
X296358D01*
Y356822D01*
X297668Y358132D01*
X298130Y357941D01*
Y352116D01*
X299186D01*
Y351132D01*
X298130D01*
Y344439D01*
X303051D01*
Y351132D01*
X301995D01*
Y352116D01*
X303051D01*
Y356822D01*
X307254Y361025D01*
X307330Y361010D01*
X310780D01*
X311526Y361158D01*
X312159Y361581D01*
X312582Y362213D01*
X312631Y362461D01*
X313155Y362535D01*
X313258Y362382D01*
X314039Y361859D01*
X314961Y361676D01*
X315882Y361859D01*
X316664Y362382D01*
X317186Y363163D01*
X317369Y364085D01*
X317186Y365006D01*
X316664Y365788D01*
X315882Y366310D01*
X314961Y366493D01*
X314039Y366310D01*
X313258Y365788D01*
X313155Y365635D01*
X312631Y365708D01*
X312582Y365956D01*
X312159Y366588D01*
X311526Y367011D01*
X310780Y367160D01*
X307330D01*
X306584Y367011D01*
X305951Y366588D01*
X305529Y365956D01*
X305380Y365210D01*
Y363125D01*
X301064Y358809D01*
X298998D01*
X298807Y359271D01*
X300501Y360965D01*
X300507Y360974D01*
X302067D01*
Y365699D01*
X298130D01*
Y362882D01*
X298103Y362746D01*
Y362541D01*
X296858Y361296D01*
X296358Y361503D01*
Y365699D01*
X296012D01*
X295695Y366085D01*
X295716Y366191D01*
X295532Y367113D01*
X295010Y367894D01*
X294229Y368416D01*
X293307Y368599D01*
D02*
G37*
G36*
X342316Y367160D02*
X338866D01*
X338119Y367011D01*
X337487Y366588D01*
X337064Y365956D01*
X336916Y365210D01*
Y362960D01*
X337064Y362213D01*
X337487Y361581D01*
X338119Y361158D01*
X338866Y361010D01*
X342316D01*
X343062Y361158D01*
X343694Y361581D01*
X344117Y362213D01*
X344265Y362960D01*
Y365210D01*
X344117Y365956D01*
X343694Y366588D01*
X343062Y367011D01*
X342316Y367160D01*
D02*
G37*
G36*
X296358Y351132D02*
X291437D01*
Y349190D01*
X287681D01*
Y350152D01*
X282279D01*
Y345419D01*
X287681D01*
Y346380D01*
X291437D01*
Y344439D01*
X296358D01*
Y351132D01*
D02*
G37*
G36*
X278012Y354305D02*
X272461D01*
X271741Y354210D01*
X271071Y353933D01*
X270495Y353491D01*
X268705Y351701D01*
X268700Y351701D01*
X268467Y351604D01*
X266496D01*
Y350024D01*
X264085Y347612D01*
X260039D01*
Y348967D01*
X251772D01*
Y340699D01*
X260039D01*
Y342053D01*
X265236D01*
X265956Y342148D01*
X266626Y342425D01*
X267202Y342867D01*
X270665Y346330D01*
X270670Y346331D01*
X270903Y346427D01*
X272874D01*
Y348008D01*
X273612Y348746D01*
X278012D01*
X278731Y348841D01*
X279402Y349118D01*
X279455Y349159D01*
X280713D01*
Y350926D01*
X280791Y351526D01*
X280713Y352125D01*
Y353892D01*
X279455D01*
X279402Y353933D01*
X278731Y354210D01*
X278012Y354305D01*
D02*
G37*
G36*
X310780Y349482D02*
X307330D01*
X306584Y349334D01*
X305951Y348911D01*
X305529Y348279D01*
X305380Y347533D01*
Y345283D01*
X305529Y344536D01*
X305951Y343904D01*
X306584Y343481D01*
X307330Y343333D01*
X310780D01*
X311526Y343481D01*
X312159Y343904D01*
X312582Y344536D01*
X312730Y345283D01*
Y347533D01*
X312582Y348279D01*
X312159Y348911D01*
X311526Y349334D01*
X310780Y349482D01*
D02*
G37*
G36*
X290453Y327310D02*
X289531Y327127D01*
X288750Y326605D01*
X288228Y325823D01*
X288044Y324902D01*
X288228Y323980D01*
X288750Y323199D01*
X289531Y322676D01*
X290453Y322493D01*
X290804Y322563D01*
X291826Y321542D01*
X292268Y321246D01*
Y319685D01*
X295676D01*
X295883Y319185D01*
X294218Y317520D01*
X291283D01*
Y315080D01*
X290784Y314885D01*
X290138Y315316D01*
X289216Y315499D01*
X288295Y315316D01*
X288028Y315137D01*
X287528Y315404D01*
Y316342D01*
X282126D01*
Y311610D01*
X287365D01*
X287513Y311387D01*
X288295Y310865D01*
X289216Y310682D01*
X290138Y310865D01*
X290784Y311297D01*
X291283Y311101D01*
Y310827D01*
X296205D01*
Y315533D01*
X297514Y316843D01*
X297976Y316651D01*
Y310827D01*
X299032D01*
Y309842D01*
X297976D01*
Y303150D01*
X302898D01*
Y309842D01*
X301842D01*
Y310827D01*
X302898D01*
Y315533D01*
X307100Y319736D01*
X307177Y319720D01*
X310627D01*
X311373Y319869D01*
X312005Y320291D01*
X312428Y320924D01*
X312521Y321390D01*
X313058D01*
X313258Y321092D01*
X314039Y320570D01*
X314961Y320387D01*
X315882Y320570D01*
X316664Y321092D01*
X317186Y321874D01*
X317369Y322795D01*
X317186Y323717D01*
X316664Y324498D01*
X315882Y325020D01*
X314961Y325204D01*
X314039Y325020D01*
X313258Y324498D01*
X313058Y324200D01*
X312521D01*
X312428Y324666D01*
X312005Y325299D01*
X311373Y325722D01*
X310627Y325870D01*
X307177D01*
X306430Y325722D01*
X305798Y325299D01*
X305375Y324666D01*
X305227Y323920D01*
Y321836D01*
X300911Y317520D01*
X298845D01*
X298654Y317982D01*
X300348Y319676D01*
X300354Y319685D01*
X301913D01*
Y324409D01*
X297976D01*
Y321592D01*
X297949Y321457D01*
Y321251D01*
X296705Y320007D01*
X296205Y320214D01*
Y324409D01*
X293253D01*
X292857Y324878D01*
X292861Y324902D01*
X292678Y325823D01*
X292156Y326605D01*
X291374Y327127D01*
X290453Y327310D01*
D02*
G37*
G36*
X342162Y325870D02*
X338712D01*
X337966Y325722D01*
X337333Y325299D01*
X336911Y324666D01*
X336762Y323920D01*
Y321670D01*
X336911Y320924D01*
X337333Y320291D01*
X337966Y319869D01*
X338712Y319720D01*
X342162D01*
X342908Y319869D01*
X343541Y320291D01*
X343964Y320924D01*
X344112Y321670D01*
Y323920D01*
X343964Y324666D01*
X343541Y325299D01*
X342908Y325722D01*
X342162Y325870D01*
D02*
G37*
G36*
X296205Y309842D02*
X291283D01*
Y307901D01*
X287528D01*
Y308862D01*
X282126D01*
Y304130D01*
X287528D01*
Y305091D01*
X291283D01*
Y303150D01*
X296205D01*
Y309842D01*
D02*
G37*
G36*
X277858Y313016D02*
X272307D01*
X271588Y312921D01*
X270917Y312644D01*
X270342Y312202D01*
X268552Y310412D01*
X268546Y310411D01*
X268314Y310315D01*
X266342D01*
Y308734D01*
X263931Y306323D01*
X259886D01*
Y307677D01*
X251618D01*
Y299409D01*
X259886D01*
Y300764D01*
X265083D01*
X265802Y300858D01*
X266473Y301136D01*
X267048Y301578D01*
X270511Y305041D01*
X270517Y305041D01*
X270749Y305138D01*
X272721D01*
Y306718D01*
X273459Y307456D01*
X277858D01*
X278578Y307551D01*
X279248Y307829D01*
X279302Y307870D01*
X280559D01*
Y309637D01*
X280638Y310236D01*
X280559Y310836D01*
Y312602D01*
X279302D01*
X279248Y312644D01*
X278578Y312921D01*
X277858Y313016D01*
D02*
G37*
G36*
X310627Y308193D02*
X307177D01*
X306430Y308045D01*
X305798Y307622D01*
X305375Y306989D01*
X305227Y306243D01*
Y303993D01*
X305375Y303247D01*
X305798Y302614D01*
X306430Y302192D01*
X307177Y302043D01*
X310627D01*
X311373Y302192D01*
X312005Y302614D01*
X312428Y303247D01*
X312577Y303993D01*
Y306243D01*
X312428Y306989D01*
X312005Y307622D01*
X311373Y308045D01*
X310627Y308193D01*
D02*
G37*
G36*
X293154Y286464D02*
X292232Y286280D01*
X291451Y285758D01*
X290928Y284977D01*
X290745Y284055D01*
X290928Y283133D01*
X291451Y282352D01*
X292232Y281830D01*
X292241Y281828D01*
Y281791D01*
X292268Y281656D01*
Y278839D01*
X295676D01*
X295883Y278339D01*
X294218Y276673D01*
X291283D01*
Y274234D01*
X290784Y274038D01*
X290138Y274469D01*
X289216Y274653D01*
X288295Y274469D01*
X288028Y274291D01*
X287528Y274558D01*
Y275496D01*
X282126D01*
Y270764D01*
X287365D01*
X287513Y270541D01*
X288295Y270019D01*
X289216Y269836D01*
X290138Y270019D01*
X290784Y270450D01*
X291283Y270254D01*
Y269980D01*
X296205D01*
Y274686D01*
X297514Y275996D01*
X297976Y275805D01*
Y269980D01*
X299032D01*
Y268996D01*
X297976D01*
Y262303D01*
X302898D01*
Y268996D01*
X301842D01*
Y269980D01*
X302898D01*
Y274686D01*
X307100Y278889D01*
X307177Y278874D01*
X310627D01*
X311373Y279022D01*
X312005Y279445D01*
X312428Y280078D01*
X312521Y280544D01*
X313058D01*
X313258Y280246D01*
X314039Y279724D01*
X314961Y279540D01*
X315882Y279724D01*
X316664Y280246D01*
X317186Y281027D01*
X317369Y281949D01*
X317186Y282871D01*
X316664Y283652D01*
X315882Y284174D01*
X314961Y284357D01*
X314039Y284174D01*
X313258Y283652D01*
X313058Y283354D01*
X312521D01*
X312428Y283820D01*
X312005Y284453D01*
X311373Y284875D01*
X310627Y285024D01*
X307177D01*
X306430Y284875D01*
X305798Y284453D01*
X305375Y283820D01*
X305227Y283074D01*
Y280989D01*
X300911Y276673D01*
X298845D01*
X298654Y277135D01*
X300348Y278829D01*
X300354Y278839D01*
X301913D01*
Y283563D01*
X297976D01*
Y280746D01*
X297949Y280610D01*
Y280405D01*
X296705Y279160D01*
X296205Y279367D01*
Y283563D01*
X295858D01*
X295541Y283949D01*
X295562Y284055D01*
X295379Y284977D01*
X294857Y285758D01*
X294075Y286280D01*
X293154Y286464D01*
D02*
G37*
G36*
X342162Y285024D02*
X338712D01*
X337966Y284875D01*
X337333Y284453D01*
X336911Y283820D01*
X336762Y283074D01*
Y280824D01*
X336911Y280078D01*
X337333Y279445D01*
X337966Y279022D01*
X338712Y278874D01*
X342162D01*
X342908Y279022D01*
X343541Y279445D01*
X343964Y280078D01*
X344112Y280824D01*
Y283074D01*
X343964Y283820D01*
X343541Y284453D01*
X342908Y284875D01*
X342162Y285024D01*
D02*
G37*
G36*
X296205Y268996D02*
X291283D01*
Y267055D01*
X287528D01*
Y268016D01*
X282126D01*
Y263283D01*
X287528D01*
Y264245D01*
X291283D01*
Y262303D01*
X296205D01*
Y268996D01*
D02*
G37*
G36*
X277858Y272169D02*
X272307D01*
X271588Y272075D01*
X270917Y271797D01*
X270342Y271355D01*
X268552Y269566D01*
X268546Y269565D01*
X268314Y269468D01*
X266342D01*
Y267888D01*
X263931Y265476D01*
X259886D01*
Y266831D01*
X251618D01*
Y258563D01*
X259886D01*
Y259917D01*
X265083D01*
X265802Y260012D01*
X266473Y260290D01*
X267048Y260731D01*
X270511Y264194D01*
X270517Y264195D01*
X270749Y264291D01*
X272721D01*
Y265872D01*
X273459Y266610D01*
X277858D01*
X278578Y266705D01*
X279248Y266983D01*
X279302Y267024D01*
X280559D01*
Y268791D01*
X280638Y269390D01*
X280559Y269989D01*
Y271756D01*
X279302D01*
X279248Y271797D01*
X278578Y272075D01*
X277858Y272169D01*
D02*
G37*
G36*
X310627Y267347D02*
X307177D01*
X306430Y267198D01*
X305798Y266775D01*
X305375Y266143D01*
X305227Y265397D01*
Y263147D01*
X305375Y262401D01*
X305798Y261768D01*
X306430Y261345D01*
X307177Y261197D01*
X310627D01*
X311373Y261345D01*
X312005Y261768D01*
X312428Y262401D01*
X312577Y263147D01*
Y265397D01*
X312428Y266143D01*
X312005Y266775D01*
X311373Y267198D01*
X310627Y267347D01*
D02*
G37*
G36*
X293307Y245519D02*
X292385Y245335D01*
X291604Y244813D01*
X291082Y244032D01*
X290899Y243110D01*
X291082Y242189D01*
X291604Y241407D01*
X292385Y240885D01*
X292394Y240883D01*
Y240846D01*
X292421Y240711D01*
Y237894D01*
X295830D01*
X296037Y237394D01*
X294371Y235728D01*
X291437D01*
Y233289D01*
X290937Y233093D01*
X290292Y233524D01*
X289370Y233708D01*
X288448Y233524D01*
X288181Y233346D01*
X287681Y233613D01*
Y234551D01*
X282279D01*
Y229819D01*
X287518D01*
X287667Y229596D01*
X288448Y229074D01*
X289370Y228891D01*
X290292Y229074D01*
X290937Y229505D01*
X291437Y229309D01*
Y229035D01*
X296358D01*
Y233741D01*
X297668Y235051D01*
X298130Y234860D01*
Y229035D01*
X299186D01*
Y228051D01*
X298130D01*
Y221358D01*
X303051D01*
Y228051D01*
X301995D01*
Y229035D01*
X303051D01*
Y233741D01*
X307254Y237944D01*
X307330Y237929D01*
X310780D01*
X311526Y238077D01*
X312159Y238500D01*
X312582Y239133D01*
X312631Y239381D01*
X313155Y239454D01*
X313258Y239301D01*
X314039Y238779D01*
X314961Y238596D01*
X315882Y238779D01*
X316664Y239301D01*
X317186Y240082D01*
X317369Y241004D01*
X317186Y241926D01*
X316664Y242707D01*
X315882Y243229D01*
X314961Y243412D01*
X314039Y243229D01*
X313258Y242707D01*
X313155Y242554D01*
X312631Y242627D01*
X312582Y242875D01*
X312159Y243508D01*
X311526Y243930D01*
X310780Y244079D01*
X307330D01*
X306584Y243930D01*
X305951Y243508D01*
X305529Y242875D01*
X305380Y242129D01*
Y240044D01*
X301064Y235728D01*
X298998D01*
X298807Y236190D01*
X300501Y237884D01*
X300507Y237894D01*
X302067D01*
Y242618D01*
X298130D01*
Y239801D01*
X298103Y239665D01*
Y239460D01*
X296858Y238215D01*
X296358Y238422D01*
Y242618D01*
X296012D01*
X295695Y243005D01*
X295716Y243110D01*
X295532Y244032D01*
X295010Y244813D01*
X294229Y245335D01*
X293307Y245519D01*
D02*
G37*
G36*
X342316Y244079D02*
X338866D01*
X338119Y243930D01*
X337487Y243508D01*
X337064Y242875D01*
X336916Y242129D01*
Y239879D01*
X337064Y239133D01*
X337487Y238500D01*
X338119Y238077D01*
X338866Y237929D01*
X342316D01*
X343062Y238077D01*
X343694Y238500D01*
X344117Y239133D01*
X344265Y239879D01*
Y242129D01*
X344117Y242875D01*
X343694Y243508D01*
X343062Y243930D01*
X342316Y244079D01*
D02*
G37*
G36*
X392815Y234695D02*
X388878D01*
Y229971D01*
X388878D01*
X388972Y229794D01*
X388621Y229268D01*
X388438Y228346D01*
X388621Y227425D01*
X388943Y226943D01*
X388878Y226821D01*
X388878D01*
Y222096D01*
X392815D01*
Y226821D01*
X392815D01*
X392750Y226943D01*
X393072Y227425D01*
X393255Y228346D01*
X393072Y229268D01*
X392721Y229794D01*
X392815Y229971D01*
X392815D01*
Y234695D01*
D02*
G37*
G36*
X296358Y228051D02*
X291437D01*
Y226110D01*
X287681D01*
Y227071D01*
X282279D01*
Y222339D01*
X287681D01*
Y223300D01*
X291437D01*
Y221358D01*
X296358D01*
Y228051D01*
D02*
G37*
G36*
X278012Y231225D02*
X272461D01*
X271741Y231130D01*
X271071Y230852D01*
X270495Y230410D01*
X268705Y228621D01*
X268700Y228620D01*
X268467Y228524D01*
X266496D01*
Y226943D01*
X264085Y224532D01*
X260039D01*
Y225886D01*
X251772D01*
Y217618D01*
X260039D01*
Y218972D01*
X265236D01*
X265956Y219067D01*
X266626Y219345D01*
X267202Y219786D01*
X270665Y223249D01*
X270670Y223250D01*
X270903Y223346D01*
X272874D01*
Y224927D01*
X273612Y225665D01*
X278012D01*
X278731Y225760D01*
X279402Y226038D01*
X279455Y226079D01*
X280713D01*
Y227846D01*
X280791Y228445D01*
X280713Y229044D01*
Y230811D01*
X279455D01*
X279402Y230852D01*
X278731Y231130D01*
X278012Y231225D01*
D02*
G37*
G36*
X310780Y226402D02*
X307330D01*
X306584Y226253D01*
X305951Y225831D01*
X305529Y225198D01*
X305380Y224452D01*
Y222202D01*
X305529Y221456D01*
X305951Y220823D01*
X306584Y220400D01*
X307330Y220252D01*
X310780D01*
X311526Y220400D01*
X312159Y220823D01*
X312582Y221456D01*
X312730Y222202D01*
Y224452D01*
X312582Y225198D01*
X312159Y225831D01*
X311526Y226253D01*
X310780Y226402D01*
D02*
G37*
G36*
X293307Y204377D02*
X292385Y204194D01*
X291604Y203672D01*
X291082Y202890D01*
X290899Y201969D01*
X291082Y201047D01*
X291604Y200266D01*
X292385Y199743D01*
X292394Y199742D01*
Y199705D01*
X292421Y199569D01*
Y196752D01*
X295830D01*
X296037Y196252D01*
X294371Y194587D01*
X291437D01*
Y192147D01*
X290937Y191952D01*
X290292Y192383D01*
X289370Y192566D01*
X288448Y192383D01*
X288181Y192204D01*
X287681Y192471D01*
Y193409D01*
X282279D01*
Y188677D01*
X287518D01*
X287667Y188454D01*
X288448Y187932D01*
X289370Y187749D01*
X290292Y187932D01*
X290937Y188364D01*
X291437Y188168D01*
Y187894D01*
X296358D01*
Y192600D01*
X297668Y193909D01*
X298130Y193718D01*
Y187894D01*
X299186D01*
Y186909D01*
X298130D01*
Y180217D01*
X303051D01*
Y186909D01*
X301995D01*
Y187894D01*
X303051D01*
Y192600D01*
X307254Y196802D01*
X307330Y196787D01*
X310780D01*
X311526Y196936D01*
X312159Y197358D01*
X312582Y197991D01*
X312631Y198239D01*
X313155Y198312D01*
X313258Y198159D01*
X314039Y197637D01*
X314961Y197454D01*
X315882Y197637D01*
X316664Y198159D01*
X317186Y198941D01*
X317369Y199862D01*
X317186Y200784D01*
X316664Y201565D01*
X315882Y202087D01*
X314961Y202271D01*
X314039Y202087D01*
X313258Y201565D01*
X313155Y201412D01*
X312631Y201486D01*
X312582Y201733D01*
X312159Y202366D01*
X311526Y202789D01*
X310780Y202937D01*
X307330D01*
X306584Y202789D01*
X305951Y202366D01*
X305529Y201733D01*
X305380Y200987D01*
Y198903D01*
X301064Y194587D01*
X298998D01*
X298807Y195048D01*
X300501Y196743D01*
X300507Y196752D01*
X302067D01*
Y201476D01*
X298130D01*
Y198659D01*
X298103Y198524D01*
Y198318D01*
X296858Y197073D01*
X296358Y197281D01*
Y201476D01*
X296012D01*
X295695Y201863D01*
X295716Y201969D01*
X295532Y202890D01*
X295010Y203672D01*
X294229Y204194D01*
X293307Y204377D01*
D02*
G37*
G36*
X342316Y202937D02*
X338866D01*
X338119Y202789D01*
X337487Y202366D01*
X337064Y201733D01*
X336916Y200987D01*
Y198737D01*
X337064Y197991D01*
X337487Y197358D01*
X338119Y196936D01*
X338866Y196787D01*
X342316D01*
X343062Y196936D01*
X343694Y197358D01*
X344117Y197991D01*
X344265Y198737D01*
Y200987D01*
X344117Y201733D01*
X343694Y202366D01*
X343062Y202789D01*
X342316Y202937D01*
D02*
G37*
G36*
X296358Y186909D02*
X291437D01*
Y184968D01*
X287681D01*
Y185929D01*
X282279D01*
Y181197D01*
X287681D01*
Y182158D01*
X291437D01*
Y180217D01*
X296358D01*
Y186909D01*
D02*
G37*
G36*
X278012Y190083D02*
X272461D01*
X271741Y189988D01*
X271071Y189710D01*
X270495Y189269D01*
X268705Y187479D01*
X268700Y187478D01*
X268467Y187382D01*
X266496D01*
Y185801D01*
X264085Y183390D01*
X260039D01*
Y184744D01*
X251772D01*
Y176476D01*
X260039D01*
Y177831D01*
X265236D01*
X265956Y177925D01*
X266626Y178203D01*
X267202Y178645D01*
X270665Y182108D01*
X270670Y182108D01*
X270903Y182205D01*
X272874D01*
Y183785D01*
X273612Y184523D01*
X278012D01*
X278731Y184618D01*
X279402Y184896D01*
X279455Y184937D01*
X280713D01*
Y186704D01*
X280791Y187303D01*
X280713Y187902D01*
Y189669D01*
X279455D01*
X279402Y189710D01*
X278731Y189988D01*
X278012Y190083D01*
D02*
G37*
G36*
X310780Y185260D02*
X307330D01*
X306584Y185111D01*
X305951Y184689D01*
X305529Y184056D01*
X305380Y183310D01*
Y181060D01*
X305529Y180314D01*
X305951Y179681D01*
X306584Y179259D01*
X307330Y179110D01*
X310780D01*
X311526Y179259D01*
X312159Y179681D01*
X312582Y180314D01*
X312730Y181060D01*
Y183310D01*
X312582Y184056D01*
X312159Y184689D01*
X311526Y185111D01*
X310780Y185260D01*
D02*
G37*
%LPD*%
G36*
X335642Y442898D02*
Y437400D01*
X332993Y434751D01*
X330644D01*
X330107Y434645D01*
X329651Y434340D01*
X325259Y429948D01*
X298085D01*
X297675Y430448D01*
X297707Y430610D01*
Y435414D01*
X299945D01*
X300402Y435504D01*
X324207D01*
X324745Y435611D01*
X325201Y435916D01*
X331226Y441941D01*
X333450D01*
X333988Y442049D01*
X334444Y442353D01*
X335180Y443090D01*
X335642Y442898D01*
D02*
G37*
D18*
X308902Y322795D02*
D03*
X309055Y199862D02*
D03*
Y241004D02*
D03*
X308902Y281949D02*
D03*
X309055Y364085D02*
D03*
Y346408D02*
D03*
X340591D02*
D03*
Y364085D02*
D03*
X304273Y489173D02*
D03*
X272738D02*
D03*
X304273Y471496D02*
D03*
X272738D02*
D03*
X255906Y489173D02*
D03*
X224370D02*
D03*
X255906Y471496D02*
D03*
X224370D02*
D03*
X309055Y182185D02*
D03*
X340591D02*
D03*
Y199862D02*
D03*
X309055Y223327D02*
D03*
X340591D02*
D03*
Y241004D02*
D03*
X308902Y264272D02*
D03*
X340437D02*
D03*
Y281949D02*
D03*
X308902Y305118D02*
D03*
X340437D02*
D03*
Y322795D02*
D03*
D19*
X447882Y435463D02*
D03*
Y425660D02*
D03*
D20*
X375244Y416565D02*
D03*
Y421565D02*
D03*
Y426565D02*
D03*
Y431565D02*
D03*
Y436565D02*
D03*
Y441565D02*
D03*
Y446565D02*
D03*
Y451565D02*
D03*
Y456565D02*
D03*
Y461565D02*
D03*
D21*
X269685Y349016D02*
D03*
Y361909D02*
D03*
X187992Y389222D02*
D03*
Y402116D02*
D03*
X269685Y184793D02*
D03*
Y197687D02*
D03*
Y225935D02*
D03*
Y238829D02*
D03*
X269531Y266880D02*
D03*
Y279774D02*
D03*
Y307726D02*
D03*
Y320620D02*
D03*
D22*
X293898Y347785D02*
D03*
X300591D02*
D03*
X300590Y355463D02*
D03*
X293898D02*
D03*
X232242Y446024D02*
D03*
X225549D02*
D03*
X224466Y415295D02*
D03*
X231159D02*
D03*
X408858Y232333D02*
D03*
X402165D02*
D03*
X408858Y224459D02*
D03*
X402165D02*
D03*
X300590Y191240D02*
D03*
X293898D02*
D03*
X300590Y232382D02*
D03*
X293898D02*
D03*
X300437Y273327D02*
D03*
X293744D02*
D03*
X300437Y314173D02*
D03*
X293744D02*
D03*
X293898Y183563D02*
D03*
X300591D02*
D03*
X293898Y224705D02*
D03*
X300591D02*
D03*
X293744Y265650D02*
D03*
X300437D02*
D03*
X293744Y306496D02*
D03*
X300437D02*
D03*
D23*
X284980Y355266D02*
D03*
Y347785D02*
D03*
X278012Y351526D02*
D03*
X284980Y191043D02*
D03*
Y183563D02*
D03*
X278012Y187303D02*
D03*
X284980Y232185D02*
D03*
Y224705D02*
D03*
X278012Y228445D02*
D03*
X284827Y273130D02*
D03*
Y265650D02*
D03*
X277858Y269390D02*
D03*
X284827Y313976D02*
D03*
Y306496D02*
D03*
X277858Y310236D02*
D03*
D24*
X300098Y363337D02*
D03*
X294390D02*
D03*
X396555Y232333D02*
D03*
X390846D02*
D03*
X396555Y224459D02*
D03*
X390846D02*
D03*
X300098Y199114D02*
D03*
X294390D02*
D03*
X300098Y240256D02*
D03*
X294390D02*
D03*
X299945Y281201D02*
D03*
X294236D02*
D03*
X299945Y322047D02*
D03*
X294236D02*
D03*
D25*
X390945Y346850D02*
D03*
X403937D02*
D03*
Y327559D02*
D03*
X390945D02*
D03*
D26*
X273171Y411221D02*
D03*
X275730D02*
D03*
X278289D02*
D03*
X280848D02*
D03*
X283407D02*
D03*
X285966D02*
D03*
X288525D02*
D03*
X291084D02*
D03*
X293643D02*
D03*
X296202D02*
D03*
X273171Y434055D02*
D03*
X275730D02*
D03*
X278289D02*
D03*
X280848D02*
D03*
X283407D02*
D03*
X285966D02*
D03*
X288525D02*
D03*
X291084D02*
D03*
X293643D02*
D03*
X296202D02*
D03*
D27*
X291297Y454134D02*
D03*
Y446260D02*
D03*
X280848Y454134D02*
D03*
Y446260D02*
D03*
X283407Y391142D02*
D03*
Y399016D02*
D03*
D28*
X470472Y425660D02*
D03*
D29*
Y442392D02*
D03*
Y408927D02*
D03*
D30*
X203740Y454232D02*
D03*
Y459941D02*
D03*
X387894Y387844D02*
D03*
Y382136D02*
D03*
X379724Y387844D02*
D03*
Y382136D02*
D03*
D31*
X387894Y400148D02*
D03*
Y393455D02*
D03*
X379724Y400148D02*
D03*
Y393455D02*
D03*
X203740Y473819D02*
D03*
Y467126D02*
D03*
X417602Y357529D02*
D03*
Y364222D02*
D03*
D32*
X435280Y317569D02*
D03*
Y349104D02*
D03*
X417602Y317569D02*
D03*
Y349104D02*
D03*
D33*
X231257Y406339D02*
D03*
X218363D02*
D03*
D34*
X176181Y390158D02*
D03*
Y401181D02*
D03*
D35*
X174606Y457087D02*
D03*
X183661D02*
D03*
X192717D02*
D03*
D36*
X183661Y483858D02*
D03*
D37*
X172638Y446850D02*
D03*
X183661D02*
D03*
X203740D02*
D03*
X192717D02*
D03*
D69*
X203409Y370423D02*
X210496Y363337D01*
X144882Y370423D02*
X203409D01*
X139764Y365305D02*
X144882Y370423D01*
X210496Y199114D02*
X210630D01*
X201933Y207677D02*
X210496Y199114D01*
X146358Y207677D02*
X201933D01*
X139764Y201083D02*
X146358Y207677D01*
X165354Y181398D02*
X183071Y199114D01*
X139764Y181398D02*
X165354D01*
X210496Y240256D02*
X210630D01*
X201933Y248819D02*
X210496Y240256D01*
X146358Y248819D02*
X201933D01*
X139764Y242224D02*
X146358Y248819D01*
X165354Y222539D02*
X183071Y240256D01*
X139764Y222539D02*
X165354D01*
X210342Y281201D02*
X210476D01*
X201779Y289764D02*
X210342Y281201D01*
X146205Y289764D02*
X201779D01*
X139610Y283169D02*
X146205Y289764D01*
X165201Y263484D02*
X182917Y281201D01*
X139610Y263484D02*
X165201D01*
X210342Y322047D02*
X210476D01*
X201779Y330610D02*
X210342Y322047D01*
X146205Y330610D02*
X201779D01*
X139610Y324016D02*
X146205Y330610D01*
X165201Y304331D02*
X182917Y322047D01*
X139610Y304331D02*
X165201D01*
X165354Y345620D02*
X183071Y363337D01*
X139764Y345620D02*
X165354D01*
X210496Y363337D02*
X210630D01*
D70*
X386270Y321092D02*
X386646Y321469D01*
Y322079D01*
X390945Y326378D01*
Y327559D01*
X379724Y157480D02*
Y157480D01*
X371850Y149606D02*
X379724Y157480D01*
X255695Y149606D02*
X371850D01*
X246959Y158342D02*
X255695Y149606D01*
X246959Y158342D02*
Y208061D01*
X370079Y460630D02*
X370455Y461007D01*
X374686D01*
X375244Y461565D01*
X311291Y432585D02*
X326286D01*
X311024Y432853D02*
X311291Y432585D01*
X326286D02*
X332520Y438819D01*
X318898Y385827D02*
X349726D01*
X274830Y389988D02*
Y406512D01*
X312992Y379921D02*
X318898Y385827D01*
X274606Y379921D02*
X312992D01*
X373031Y281496D02*
Y365305D01*
X375000Y283147D02*
Y366956D01*
Y283147D02*
X408268Y249879D01*
X351208Y390748D02*
X375000Y366956D01*
X319488Y390748D02*
X351208D01*
X350148Y388189D02*
X373031Y365305D01*
Y281496D02*
X405807Y248721D01*
X319263Y388189D02*
X350148D01*
X274503Y382874D02*
X290185D01*
X275319Y384842D02*
X289370D01*
X290185Y382874D02*
X293643Y386332D01*
X289370Y384842D02*
X291084Y386556D01*
X260827Y399335D02*
X275319Y384842D01*
X258858Y398519D02*
X274503Y382874D01*
X274606Y389764D02*
X274830Y389988D01*
X277782Y405289D02*
Y405821D01*
X278251Y406290D01*
Y411183D01*
X269685Y403543D02*
Y404236D01*
X271654Y406205D01*
X273171Y407722D01*
X275692Y407374D02*
Y411183D01*
X274830Y406512D02*
X275692Y407374D01*
X273171Y407722D02*
Y411221D01*
X275692Y411183D02*
X275730Y411221D01*
X177756Y457087D02*
X178150Y456693D01*
X174606Y457087D02*
X177756D01*
X206693Y446850D02*
X206693Y446850D01*
X203740Y446850D02*
X206693D01*
X202756Y474803D02*
Y476378D01*
Y474803D02*
X203740Y473819D01*
X169291Y446850D02*
X172638D01*
X172638Y446850D01*
X278543Y391732D02*
X279134Y391142D01*
X283407D01*
X291457Y454295D02*
Y458661D01*
X291297Y454134D02*
X291457Y454295D01*
X280848Y454134D02*
Y458661D01*
X272738Y471496D02*
X276911D01*
X220472Y415354D02*
X224407D01*
X224466Y415295D01*
X383809Y382136D02*
X387894D01*
X379724D02*
X383809D01*
X387894Y387844D02*
Y393455D01*
X379724Y387844D02*
Y393455D01*
X417602Y364222D02*
X417602Y364222D01*
X403937Y346850D02*
Y351526D01*
X390846Y228346D02*
Y232333D01*
Y224459D02*
Y228346D01*
X396555Y224459D02*
X402165D01*
X396555Y232333D02*
X402165D01*
X203740Y459941D02*
Y467126D01*
X301181Y420669D02*
X307677Y414173D01*
Y405343D02*
Y414173D01*
Y405343D02*
X320304Y392717D01*
X291200Y420669D02*
X301181D01*
X288385Y417855D02*
X291200Y420669D01*
X288385Y417322D02*
Y417855D01*
X303740Y403712D02*
X319263Y388189D01*
X303740Y403712D02*
Y410050D01*
X297058Y416732D02*
X303740Y410050D01*
X320304Y392717D02*
X352023D01*
X366787Y377953D01*
X366859D01*
X390481Y354331D01*
X393701D01*
X400591Y347441D01*
Y341535D02*
Y347441D01*
Y341535D02*
X407480Y334646D01*
X418203D01*
X433350Y319498D01*
X433661D01*
X435280Y317880D01*
Y317569D02*
Y317880D01*
X417602Y349104D02*
Y357529D01*
X417602Y357529D02*
X417602Y357529D01*
X377953Y351526D02*
X386270D01*
X390945Y346850D01*
X370079Y351526D02*
Y365474D01*
X349726Y385827D02*
X370079Y365474D01*
X328937Y411221D02*
X376573D01*
X325292Y414865D02*
X328937Y411221D01*
X325292Y414865D02*
Y422054D01*
X291576Y438862D02*
X300549Y447835D01*
X291576Y438045D02*
Y438862D01*
X269037Y427165D02*
Y427404D01*
X286417Y404527D02*
Y413071D01*
X292819Y322535D02*
X293748D01*
X294236Y322047D01*
X290453Y324902D02*
X292819Y322535D01*
X297243Y404528D02*
Y405060D01*
X296240Y406064D02*
X297243Y405060D01*
X296240Y406064D02*
Y411183D01*
X296202Y411221D02*
X296240Y411183D01*
X288385Y440944D02*
X288487Y440842D01*
X278543Y440648D02*
Y440846D01*
Y440648D02*
X280810Y438381D01*
Y434093D02*
Y438381D01*
Y434093D02*
X280848Y434055D01*
X288385Y430557D02*
Y434055D01*
X288487Y434093D02*
Y440842D01*
Y434093D02*
X288525Y434055D01*
X291084Y437553D02*
X291576Y438045D01*
X291084Y434055D02*
Y437553D01*
X286003Y429296D02*
Y434018D01*
Y429296D02*
X286618Y428681D01*
Y428149D02*
Y428681D01*
X285966Y434055D02*
X286003Y434018D01*
X276911Y426336D02*
Y426869D01*
X272974Y427165D02*
X273564D01*
X275730Y429331D02*
Y434055D01*
X273564Y427165D02*
X275730Y429331D01*
X276911Y426869D02*
X277895Y427853D01*
Y428388D01*
X278251Y428745D01*
Y434018D01*
X278289Y434055D01*
X273171Y430664D02*
Y434055D01*
X273080Y430573D02*
X273171Y430664D01*
X272205Y430573D02*
X273080D01*
X269037Y427404D02*
X272205Y430573D01*
X288563Y430380D02*
Y434018D01*
X288385Y430557D02*
X288563Y430380D01*
X288525Y434055D02*
X288563Y434018D01*
X293643Y430557D02*
Y434055D01*
Y430557D02*
X294082Y430118D01*
X294135D01*
Y429754D02*
Y430118D01*
Y429754D02*
X295346Y428543D01*
X325841D01*
X330644Y433347D01*
X333575D01*
X278251Y411183D02*
X278289Y411221D01*
X288385Y417322D02*
X288487Y417220D01*
Y411258D02*
Y417220D01*
Y411258D02*
X288525Y411221D01*
X280511Y417322D02*
X280810Y417023D01*
Y411258D02*
Y417023D01*
Y411258D02*
X280848Y411221D01*
X286178Y413071D02*
X286417D01*
X285966Y413283D02*
X286178Y413071D01*
X285966Y411221D02*
Y413283D01*
X291122Y415758D02*
X294065Y418701D01*
X291122Y411258D02*
Y415758D01*
X294135Y415521D02*
X295346Y416732D01*
X294135Y415211D02*
Y415521D01*
X293643Y414719D02*
X294135Y415211D01*
X293643Y386332D02*
Y414719D01*
X295346Y416732D02*
X297058D01*
X294065Y418701D02*
X299634D01*
X291084Y411221D02*
X291122Y411258D01*
X299634Y418701D02*
X305709Y412626D01*
X291084Y386556D02*
Y411221D01*
X283407Y399016D02*
Y411221D01*
X308902Y322795D02*
X314961D01*
X308327Y199862D02*
X309055D01*
X300590Y192126D02*
X308327Y199862D01*
X300590Y191240D02*
X300591Y191240D01*
Y183563D02*
Y191240D01*
X300590Y191240D02*
Y192126D01*
X308327Y241004D02*
X309055D01*
X300591Y224705D02*
Y232382D01*
X300590Y233268D02*
X308327Y241004D01*
X300590Y232382D02*
Y233268D01*
Y232382D02*
X300591Y232382D01*
X308173Y281949D02*
X308902D01*
X300437Y274213D02*
X308173Y281949D01*
X300437Y265650D02*
Y273327D01*
X300437Y273327D02*
Y274213D01*
Y273327D02*
X300437Y273327D01*
X308173Y322795D02*
X308902D01*
X300437Y315059D02*
X308173Y322795D01*
X300437Y306496D02*
Y314173D01*
X300437Y314173D02*
Y315059D01*
Y314173D02*
X300437Y314173D01*
X308327Y364085D02*
X309055D01*
X300590Y356348D02*
X308327Y364085D01*
X300590Y355463D02*
Y356348D01*
Y355463D02*
X300591Y355463D01*
Y347785D02*
Y355463D01*
X309055Y199862D02*
X314961D01*
X309055Y241004D02*
X314961D01*
X308902Y281949D02*
X314961D01*
X309055Y364085D02*
X314961D01*
X250004Y446024D02*
X255752Y451772D01*
X244151Y446024D02*
X250004D01*
X255752Y451772D02*
Y462135D01*
X272738Y479121D01*
Y489173D01*
X218504Y431709D02*
Y465630D01*
X230587Y415867D02*
Y419626D01*
X218504Y431709D02*
X230587Y419626D01*
Y415867D02*
X231159Y415295D01*
X218504Y465630D02*
X222441Y469566D01*
Y469877D01*
X224059Y471496D01*
X224370D01*
X232242Y446024D02*
X244151D01*
X231887Y416024D02*
X244151D01*
X231159Y415295D02*
X231887Y416024D01*
X231572Y406024D02*
X244151D01*
X231257Y406339D02*
X231572Y406024D01*
X253110Y426024D02*
Y426024D01*
Y426024D02*
X258858Y420276D01*
Y398519D02*
Y420276D01*
X244151Y426024D02*
X253110D01*
X244151Y436024D02*
X250463D01*
X260827Y425660D01*
Y399335D02*
Y425660D01*
X358294Y416565D02*
X375244D01*
X356020Y414291D02*
X358294Y416565D01*
X337047Y414291D02*
X356020D01*
X332520Y418819D02*
X337047Y414291D01*
X405807Y228396D02*
X408858Y225344D01*
X405807Y228396D02*
Y248721D01*
X408858Y224459D02*
Y225344D01*
X409941Y222569D02*
X437008D01*
X408858Y223652D02*
X409941Y222569D01*
X408858Y223652D02*
Y224459D01*
X409882Y233356D02*
X437008D01*
X408858Y232333D02*
X409882Y233356D01*
X408268Y232923D02*
X408858Y232333D01*
X408268Y232923D02*
Y249879D01*
X305709Y404528D02*
X319488Y390748D01*
X305709Y404528D02*
Y412626D01*
X299508Y362746D02*
X300098Y363337D01*
X299508Y361959D02*
Y362746D01*
X293898Y356348D02*
X299508Y361959D01*
X288993Y354757D02*
X289370Y354380D01*
X342520Y438819D02*
X354774Y426565D01*
X375244D01*
X342520Y428819D02*
X349774Y421565D01*
X375244D01*
X375569Y441890D02*
X379724D01*
X380610Y441004D01*
X375244Y441565D02*
X375569Y441890D01*
X380610Y415258D02*
Y441004D01*
X376573Y411221D02*
X380610Y415258D01*
X332057Y428819D02*
X332520D01*
X325292Y422054D02*
X332057Y428819D01*
X296202Y436819D02*
X299945D01*
X300036Y436909D01*
X324207D01*
X333575Y433347D02*
X337047Y436819D01*
Y443646D01*
X333450Y443347D02*
X337495Y447392D01*
X330644Y443347D02*
X333450D01*
X324207Y436909D02*
X330644Y443347D01*
X337047Y443646D02*
X342220Y448819D01*
X342520D01*
X337495Y447392D02*
Y453794D01*
X342520Y458819D01*
X296202Y434055D02*
Y436819D01*
X283407Y434055D02*
X283444Y434093D01*
X290903Y446260D02*
X291297D01*
X280848D02*
X281241D01*
X283407Y444095D01*
X325782Y455557D02*
Y462054D01*
Y455557D02*
X332520Y448819D01*
X325782Y462054D02*
X330853Y467126D01*
X351298D01*
X366859Y451565D01*
X375244D01*
X332520Y458819D02*
X337047Y463346D01*
X347992D01*
X364774Y446565D01*
X375244D01*
Y451565D02*
X381693D01*
X387894Y445364D01*
Y400148D02*
Y445364D01*
X383858Y404282D02*
Y441890D01*
X381693Y402116D02*
X383858Y404282D01*
X381693Y401230D02*
Y402116D01*
X375785Y446024D02*
X379724D01*
X375244Y446565D02*
X375785Y446024D01*
X379724D02*
X383858Y441890D01*
X380610Y400148D02*
X381693Y401230D01*
X379724Y400148D02*
X380610D01*
X342520Y458819D02*
X364774Y436565D01*
X375244D01*
X342520Y448819D02*
X359774Y431565D01*
X375244D01*
X293799Y199705D02*
X294390Y199114D01*
X293307Y201436D02*
X293799Y200944D01*
X293307Y201436D02*
Y201969D01*
X293799Y199705D02*
Y200944D01*
X288993Y190534D02*
X289370Y190157D01*
X285490Y190534D02*
X288993D01*
X284980Y191043D02*
X285490Y190534D01*
X284980Y183563D02*
X293898D01*
X299508Y198524D02*
X300098Y199114D01*
X299508Y197736D02*
Y198524D01*
X293898Y192126D02*
X299508Y197736D01*
X293898Y191240D02*
Y192126D01*
X293799Y240846D02*
X294390Y240256D01*
X293307Y242578D02*
X293799Y242085D01*
X293307Y242578D02*
Y243110D01*
X293799Y240846D02*
Y242085D01*
X288993Y231676D02*
X289370Y231299D01*
X285490Y231676D02*
X288993D01*
X284980Y232185D02*
X285490Y231676D01*
X284980Y224705D02*
X293898D01*
X299508Y239665D02*
X300098Y240256D01*
X299508Y238878D02*
Y239665D01*
X293898Y233268D02*
X299508Y238878D01*
X293898Y232382D02*
Y233268D01*
X293646Y281791D02*
X294236Y281201D01*
X293154Y283522D02*
X293646Y283030D01*
X293154Y283522D02*
Y284055D01*
X293646Y281791D02*
Y283030D01*
X288840Y272621D02*
X289216Y272244D01*
X285336Y272621D02*
X288840D01*
X284827Y273130D02*
X285336Y272621D01*
X284827Y265650D02*
X293744D01*
X299354Y280610D02*
X299945Y281201D01*
X299354Y279823D02*
Y280610D01*
X293744Y274213D02*
X299354Y279823D01*
X293744Y273327D02*
Y274213D01*
X288840Y313467D02*
X289216Y313090D01*
X285336Y313467D02*
X288840D01*
X284827Y313976D02*
X285336Y313467D01*
X284827Y306496D02*
X293744D01*
X299354Y321457D02*
X299945Y322047D01*
X299354Y320669D02*
Y321457D01*
X293744Y315059D02*
X299354Y320669D01*
X293744Y314173D02*
Y315059D01*
X293307Y365658D02*
Y366191D01*
Y365658D02*
X293799Y365166D01*
Y363927D02*
Y365166D01*
Y363927D02*
X294390Y363337D01*
X285490Y354757D02*
X288993D01*
X284980Y355266D02*
X285490Y354757D01*
X293898Y355463D02*
Y356348D01*
X284980Y347785D02*
X293898D01*
D71*
X246959Y249203D02*
Y289994D01*
Y208061D02*
Y249203D01*
Y208061D02*
X255906Y199114D01*
X246959Y330840D02*
Y372283D01*
Y376010D01*
Y372283D02*
X255906Y363337D01*
X246959Y289994D02*
Y330840D01*
X255752Y322047D01*
X246959Y289994D02*
X255752Y281201D01*
X246959Y249203D02*
X255906Y240256D01*
X232283Y390686D02*
X246959Y376010D01*
X212031Y390686D02*
X232283D01*
X200600Y402116D02*
X212031Y390686D01*
X187992Y402116D02*
X200600D01*
X187992Y389222D02*
Y393223D01*
X447882Y425660D02*
X470472D01*
X192717Y446850D02*
Y457087D01*
Y445571D02*
Y446850D01*
X187992Y440846D02*
X192717Y445571D01*
X187992Y423228D02*
Y440846D01*
Y402116D02*
Y423228D01*
X177756Y401181D02*
X178691Y402116D01*
X176181Y401181D02*
X177756D01*
X178691Y402116D02*
X187992D01*
X269951Y184793D02*
X272461Y187303D01*
X269685Y184793D02*
X269951D01*
X267992Y199114D02*
X269419Y197687D01*
X269685D01*
X255906Y199114D02*
X267992D01*
X265236Y180610D02*
X269419Y184793D01*
X255906Y180610D02*
X265236D01*
X272461Y187303D02*
X278012D01*
X269419Y184793D02*
X269685D01*
X269951Y225935D02*
X272461Y228445D01*
X269685Y225935D02*
X269951D01*
X267992Y240256D02*
X269419Y238829D01*
X269685D01*
X255906Y240256D02*
X267992D01*
X265236Y221752D02*
X269419Y225935D01*
X255906Y221752D02*
X265236D01*
X272461Y228445D02*
X278012D01*
X269419Y225935D02*
X269685D01*
X269797Y266880D02*
X272307Y269390D01*
X269531Y266880D02*
X269797D01*
X267839Y281201D02*
X269266Y279774D01*
X269531D01*
X255752Y281201D02*
X267839D01*
X265083Y262697D02*
X269266Y266880D01*
X255752Y262697D02*
X265083D01*
X272307Y269390D02*
X277858D01*
X269266Y266880D02*
X269531D01*
X269797Y307726D02*
X272307Y310236D01*
X269531Y307726D02*
X269797D01*
X267839Y322047D02*
X269266Y320620D01*
X269531D01*
X255752Y322047D02*
X267839D01*
X265083Y303543D02*
X269266Y307726D01*
X255752Y303543D02*
X265083D01*
X272307Y310236D02*
X277858D01*
X269266Y307726D02*
X269531D01*
X272461Y351526D02*
X278012D01*
X269951Y349016D02*
X272461Y351526D01*
X269685Y349016D02*
X269951D01*
X269419D02*
X269685D01*
X265236Y344833D02*
X269419Y349016D01*
X255906Y344833D02*
X265236D01*
X269419Y361909D02*
X269685D01*
X267992Y363337D02*
X269419Y361909D01*
X255906Y363337D02*
X267992D01*
D72*
X183661Y457087D02*
Y483858D01*
X173917Y449606D02*
X174606D01*
X172638Y448327D02*
X173917Y449606D01*
X172638Y446850D02*
Y448327D01*
X174606Y449606D02*
Y457087D01*
X183661Y446850D02*
Y457087D01*
X139764Y443898D02*
X158219Y425443D01*
Y406545D02*
Y425443D01*
Y406545D02*
X174606Y390158D01*
X176181D01*
D73*
X110236Y396024D02*
D03*
X470472Y305118D02*
D03*
X110236Y488189D02*
D03*
X470472Y489173D02*
D03*
Y147638D02*
D03*
X110236D02*
D03*
D74*
X139764Y443898D02*
D03*
Y365305D02*
D03*
Y201083D02*
D03*
Y242224D02*
D03*
X139610Y283169D02*
D03*
Y324016D02*
D03*
D75*
X139764Y424213D02*
D03*
Y345620D02*
D03*
Y181398D02*
D03*
Y222539D02*
D03*
X139610Y263484D02*
D03*
Y304331D02*
D03*
D76*
X183071Y363337D02*
D03*
X210630D02*
D03*
X255906D02*
D03*
X183071Y199114D02*
D03*
X210630D02*
D03*
X255906D02*
D03*
X183071Y240256D02*
D03*
X210630D02*
D03*
X255906D02*
D03*
X182917Y281201D02*
D03*
X210476D02*
D03*
X255752D02*
D03*
X182917Y322047D02*
D03*
X210476D02*
D03*
X255752D02*
D03*
D77*
X255906Y344833D02*
D03*
Y180610D02*
D03*
Y221752D02*
D03*
X255752Y262697D02*
D03*
Y303543D02*
D03*
D78*
X442598Y173356D02*
D03*
Y271781D02*
D03*
D79*
X448189Y206388D02*
D03*
Y217175D02*
D03*
Y227963D02*
D03*
Y238750D02*
D03*
X437008Y200994D02*
D03*
Y211782D02*
D03*
Y222569D02*
D03*
Y233356D02*
D03*
Y244144D02*
D03*
D80*
X332520Y418819D02*
D03*
Y428819D02*
D03*
Y438819D02*
D03*
Y448819D02*
D03*
X342520Y418819D02*
D03*
Y428819D02*
D03*
Y438819D02*
D03*
Y448819D02*
D03*
Y458819D02*
D03*
X244151Y436024D02*
D03*
Y426024D02*
D03*
Y416024D02*
D03*
Y406024D02*
D03*
Y446024D02*
D03*
D81*
X332520Y458819D02*
D03*
X244151Y396024D02*
D03*
D82*
X187992Y423228D02*
D03*
D83*
X178150D02*
D03*
D84*
X386270Y321092D02*
D03*
X379724Y157480D02*
D03*
X187992Y393223D02*
D03*
X370079Y460630D02*
D03*
X310780Y441004D02*
D03*
X311024Y432853D02*
D03*
X274606Y379921D02*
D03*
Y389764D02*
D03*
X269685Y403543D02*
D03*
X277782Y405289D02*
D03*
X178150Y456693D02*
D03*
X206693Y446850D02*
D03*
X202756Y476378D02*
D03*
X169291Y446850D02*
D03*
X278543Y391732D02*
D03*
X291457Y458661D02*
D03*
X280848D02*
D03*
X276911Y471496D02*
D03*
X220472Y415354D02*
D03*
X383809Y382136D02*
D03*
X403937Y351526D02*
D03*
X390846Y228346D02*
D03*
X377953Y351526D02*
D03*
X370079D02*
D03*
X300549Y447835D02*
D03*
X269037Y427165D02*
D03*
X290453Y324902D02*
D03*
X297243Y404528D02*
D03*
X288385Y440944D02*
D03*
X276911Y426336D02*
D03*
X272974Y427165D02*
D03*
X278543Y440846D02*
D03*
X286618Y428149D02*
D03*
X288385Y417322D02*
D03*
X286417Y404527D02*
D03*
X280511Y417322D02*
D03*
X314961Y322795D02*
D03*
Y199862D02*
D03*
Y241004D02*
D03*
Y281949D02*
D03*
Y364085D02*
D03*
X289370Y354380D02*
D03*
X293307Y201969D02*
D03*
X289370Y190157D02*
D03*
X293307Y243110D02*
D03*
X289370Y231299D02*
D03*
X293154Y284055D02*
D03*
X289216Y272244D02*
D03*
Y313090D02*
D03*
X293307Y366191D02*
D03*
D85*
X452756Y165354D02*
D03*
X456693Y173228D02*
D03*
X452756Y181103D02*
D03*
X476378Y480315D02*
D03*
X472441Y472441D02*
D03*
X476378Y464567D02*
D03*
X472441Y456693D02*
D03*
X476378Y448819D02*
D03*
Y433071D02*
D03*
Y417323D02*
D03*
Y401575D02*
D03*
X472441Y393701D02*
D03*
X476378Y385827D02*
D03*
X472441Y377953D02*
D03*
X476378Y370079D02*
D03*
X472441Y362205D02*
D03*
X476378Y354331D02*
D03*
X472441Y346457D02*
D03*
X476378Y338583D02*
D03*
X472441Y330709D02*
D03*
X476378Y322835D02*
D03*
Y291339D02*
D03*
X472441Y283465D02*
D03*
X476378Y275591D02*
D03*
X472441Y267717D02*
D03*
X476378Y259843D02*
D03*
X472441Y251969D02*
D03*
X476378Y244095D02*
D03*
X472441Y236221D02*
D03*
X476378Y228347D02*
D03*
X472441Y220473D02*
D03*
X476378Y212598D02*
D03*
X472441Y204725D02*
D03*
X476378Y196851D02*
D03*
X472441Y188977D02*
D03*
X476378Y181103D02*
D03*
X472441Y173228D02*
D03*
X476378Y165354D02*
D03*
X464567Y472441D02*
D03*
X468504Y464567D02*
D03*
X464567Y456693D02*
D03*
X468504Y448819D02*
D03*
Y433071D02*
D03*
Y417323D02*
D03*
Y401575D02*
D03*
X464567Y393701D02*
D03*
X468504Y385827D02*
D03*
X464567Y377953D02*
D03*
X468504Y370079D02*
D03*
X464567Y362205D02*
D03*
X468504Y354331D02*
D03*
X464567Y346457D02*
D03*
X468504Y338583D02*
D03*
X464567Y330709D02*
D03*
X468504Y322835D02*
D03*
X464567Y314961D02*
D03*
X468504Y291339D02*
D03*
X464567Y283465D02*
D03*
X468504Y275591D02*
D03*
X464567Y267717D02*
D03*
X468504Y259843D02*
D03*
X464567Y251969D02*
D03*
X468504Y244095D02*
D03*
X464567Y236221D02*
D03*
X468504Y228347D02*
D03*
X464567Y220473D02*
D03*
X468504Y212598D02*
D03*
X464567Y204725D02*
D03*
X468504Y196851D02*
D03*
X464567Y188977D02*
D03*
X468504Y181103D02*
D03*
X464567Y173228D02*
D03*
X468504Y165354D02*
D03*
X464567Y157480D02*
D03*
X456693Y488189D02*
D03*
X460630Y480315D02*
D03*
X456693Y472441D02*
D03*
X460630Y464567D02*
D03*
X456693Y456693D02*
D03*
X460630Y448819D02*
D03*
X456693Y440945D02*
D03*
X460630Y433071D02*
D03*
Y417323D02*
D03*
X456693Y409449D02*
D03*
X460630Y401575D02*
D03*
X456693Y393701D02*
D03*
X460630Y385827D02*
D03*
X456693Y377953D02*
D03*
X460630Y370079D02*
D03*
X456693Y362205D02*
D03*
X460630Y354331D02*
D03*
X456693Y346457D02*
D03*
X460630Y338583D02*
D03*
X456693Y330709D02*
D03*
X460630Y322835D02*
D03*
X456693Y314961D02*
D03*
Y299213D02*
D03*
X460630Y291339D02*
D03*
X456693Y283465D02*
D03*
X460630Y275591D02*
D03*
X456693Y267717D02*
D03*
X460630Y259843D02*
D03*
X456693Y251969D02*
D03*
X460630Y244095D02*
D03*
X456693Y236221D02*
D03*
X460630Y228347D02*
D03*
X456693Y220473D02*
D03*
X460630Y212598D02*
D03*
X456693Y204725D02*
D03*
X460630Y196851D02*
D03*
X456693Y188977D02*
D03*
X460630Y181103D02*
D03*
Y165354D02*
D03*
X456693Y157480D02*
D03*
Y141732D02*
D03*
X448819Y488189D02*
D03*
X452756Y480315D02*
D03*
X448819Y472441D02*
D03*
X452756Y464567D02*
D03*
X448819Y456693D02*
D03*
X452756Y448819D02*
D03*
Y417323D02*
D03*
X448819Y409449D02*
D03*
X452756Y401575D02*
D03*
X448819Y393701D02*
D03*
X452756Y385827D02*
D03*
X448819Y377953D02*
D03*
X452756Y370079D02*
D03*
X448819Y362205D02*
D03*
X452756Y354331D02*
D03*
X448819Y346457D02*
D03*
X452756Y338583D02*
D03*
X448819Y330709D02*
D03*
X452756Y322835D02*
D03*
X448819Y314961D02*
D03*
X452756Y307087D02*
D03*
X448819Y299213D02*
D03*
X452756Y291339D02*
D03*
X448819Y283465D02*
D03*
X452756Y259843D02*
D03*
X448819Y251969D02*
D03*
X452756Y196851D02*
D03*
X448819Y188977D02*
D03*
Y157480D02*
D03*
X452756Y149606D02*
D03*
X448819Y141732D02*
D03*
X440945Y488189D02*
D03*
X444882Y480315D02*
D03*
X440945Y472441D02*
D03*
X444882Y464567D02*
D03*
X440945Y456693D02*
D03*
X444882Y448819D02*
D03*
X440945Y440945D02*
D03*
X444882Y417323D02*
D03*
X440945Y409449D02*
D03*
X444882Y401575D02*
D03*
X440945Y393701D02*
D03*
X444882Y385827D02*
D03*
X440945Y377953D02*
D03*
X444882Y370079D02*
D03*
X440945Y362205D02*
D03*
X444882Y354331D02*
D03*
Y338583D02*
D03*
X440945Y330709D02*
D03*
X444882Y322835D02*
D03*
Y307087D02*
D03*
X440945Y299213D02*
D03*
X444882Y291339D02*
D03*
X440945Y251969D02*
D03*
X444882Y196851D02*
D03*
X440945Y188977D02*
D03*
Y157480D02*
D03*
X444882Y149606D02*
D03*
X440945Y141732D02*
D03*
X433071Y488189D02*
D03*
X437008Y480315D02*
D03*
X433071Y472441D02*
D03*
X437008Y464567D02*
D03*
X433071Y456693D02*
D03*
X437008Y448819D02*
D03*
X433071Y440945D02*
D03*
X437008Y433071D02*
D03*
X433071Y425197D02*
D03*
X437008Y417323D02*
D03*
X433071Y409449D02*
D03*
X437008Y401575D02*
D03*
X433071Y393701D02*
D03*
X437008Y385827D02*
D03*
X433071Y377953D02*
D03*
X437008Y370079D02*
D03*
X433071Y362205D02*
D03*
X437008Y338583D02*
D03*
X433071Y330709D02*
D03*
X437008Y307087D02*
D03*
X433071Y299213D02*
D03*
X437008Y291339D02*
D03*
X433071Y283465D02*
D03*
X437008Y259843D02*
D03*
X433071Y251969D02*
D03*
Y188977D02*
D03*
Y157480D02*
D03*
X437008Y149606D02*
D03*
X433071Y141732D02*
D03*
X429134Y480315D02*
D03*
Y464567D02*
D03*
Y448819D02*
D03*
Y433071D02*
D03*
Y417323D02*
D03*
Y401575D02*
D03*
Y385827D02*
D03*
Y370079D02*
D03*
Y354331D02*
D03*
Y338583D02*
D03*
X425197Y314961D02*
D03*
X429134Y307087D02*
D03*
X425197Y299213D02*
D03*
X429134Y291339D02*
D03*
X425197Y283465D02*
D03*
X429134Y275591D02*
D03*
X425197Y267717D02*
D03*
X429134Y259843D02*
D03*
X425197Y251969D02*
D03*
X429134Y228347D02*
D03*
Y212598D02*
D03*
Y196851D02*
D03*
Y181103D02*
D03*
Y165354D02*
D03*
Y149606D02*
D03*
M02*
