M48
;Layer_Color=9474304
;FILE_FORMAT=2:5
INCH,LZ
;TYPE=PLATED
T1F00S00C0.01575
T2F00S00C0.01968
T3F00S00C0.03150
T4F00S00C0.03937
T5F00S00C0.04685
T6F00S00C0.04724
T7F00S00C0.06102
T8F00S00C0.12992
%
T01
X0258465Y0075787
Y0081693
Y0115157
Y0121063
Y0155512
X0300451Y0152559
X0307874Y0126378
X0299826Y0106299
X0308661Y0085433
X0301181Y0068898
X0316535Y0206693
Y024685
X0317323Y0286614
X0299624Y0266585
X0300253Y0228582
X0299624Y0187008
X0311811Y0164961
X0258465Y0161417
X0258858Y0194882
Y0200787
Y0234252
Y0240158
X0258465Y0274388
X0258858Y0280512
X0299212Y030807
X0139764Y0393701
X015542Y0427165
X0151575Y0462205
X0108268Y0458661
X0167323Y046535
X0214814Y0466535
X0218841Y046659
X0222834Y0466535
X0224016Y0462598
X023189Y0462205
X0234252Y0449213
X0221654Y045
X0211672Y0442815
X0204724Y0442913
X0205373Y0432087
X0198819Y0427165
X0190305Y0427362
X01924Y0420374
X0219488Y0432344
X0223425Y0432087
X0232283Y0415353
X025315Y0424346
X0253543Y043307
X0253994Y0438976
X0259449Y043937
Y0443307
Y0447244
Y0451181
X0277559Y0450073
X0284252Y0449213
X0296063Y0448622
Y0444685
Y0440748
Y0436811
X0292913Y042874
X029252Y0423228
X0281496Y0423622
X0281495Y041929
X0273228Y0429134
Y0438976
X0284252Y0436221
X0261526Y0428955
X0270866Y0464026
X0293701Y0402756
X0299213Y0344488
X0258465Y0353346
X0258858Y0360236
X0258465Y0319783
Y0313976
X031811Y0327559
X0320322Y0366929
X0337402Y0408071
X0361027Y0402756
X0372046Y0401574
X0370472Y0408071
Y0412008
Y0415945
Y0419882
X0370488Y0430638
X0366551
X0362614Y0430876
X0358677Y0430638
X0384252Y0420472
X0383857Y0402558
X0329921Y0447667
Y0452667
Y0457667
Y0462667
Y0467667
Y0472667
X0329134Y049252
X0314802Y0491789
X0283464Y0484645
X0234646Y0485039
X0227432Y0487134
X0225243Y0494597
X0219349Y0485039
X0209145Y0491207
X0200787Y0483465
X0172244Y0490158
X0227873Y0470393
T02
X034252Y0448819
X0348425
X0354331
X0360236
X0366142
X0372047
X0377953
X0383858
X0389764
X0395669
X0401575
X040748
X0413386
X0419291
X0425197
X0422244Y0466535
X0416338
X0410433
X0404527
X0386811
X0380905
X0375
X0369094
X0363189
X0357283
X0351378
X0345472
X034252Y046063
X0348425
X0354331
X0360236
X0366142
X0372047
X0377953
X0383858
X0386811Y0454724
X0380905
X0375
X0369094
X0363189
X0357283
X0351378
X0345472
X0369094Y0442913
X0375
X0380905
X0386811
X0392716
X0398622
X0404527
X0401575Y0437008
X0395669
X0398622Y0431102
X0404527
X0410433
X0416338
X0422244
X0419291Y0425197
X0425197
X0422244Y0419291
X0416338
X0410433
X0404527
X0398622
X0392716
X0395669Y0425197
X0401575
X040748
X0413386
Y0413386
X0419291
X0425197
X040748
X0401575
X0395669
X0398622Y040748
X0404527
X0410433
X040748Y0401575
X0401575
X0395669
X0392716Y040748
Y0431102
X0389764Y0472441
X0395669
X0401575
X0404527Y0478346
X0398622
X0392716
X0386811
X0380905
X0375
X0369094
X0363189
X0357283
X0351378
X0345472
X034252Y0484252
X0348425
X0354331
X0360236
X0366142
X0372047
X0377953
X0383858
X0389764
X0395669
X0401575
X040748
X0404527Y0490157
X0398622
X0392716
X0386811
X0380905
X0375
X0369094
X0363189
X0357283
X0351378
X0345472
X034252Y0496063
X0348425
X0354331
X0360236
X0366142
X0372047
X0377953
X0383858
X0389764
X0395669
X0401575
X040748
X0383858Y0472441
X0377953
X0372047
X0366142
X0360236
X0354331
X0348425
X034252
T03
X0185827Y0476968
Y0486811
T04
X0262309Y0065994
X0280026
Y0091585
Y0105758
X0262309
Y0091585
Y0131348
Y0145522
X0280026
Y0131348
Y0171112
X0280118Y0185285
X0262402
X0262309Y0171112
X0262402Y0210876
Y0225049
X0280118
Y0210876
Y025064
Y0264813
X0262402
Y025064
Y0290404
Y0304429
X0280118
Y0290404
X0155512Y0391142
Y0408858
X0181102
Y0391142
X0205373
Y0408858
X0230963
Y0391142
X0255138Y0391142
Y0408858
X0280729
Y0391142
X0280118Y0369931
X0262402
Y034434
X0262402Y033002
X0280118
X0280118Y034434
T05
X0268465Y0487795
X0278465
X0288465
X0298465
T06
X015542Y0088189
Y0127953
X0182979
Y0088189
X0228254
Y0069685
Y0109449
Y0127953
Y0149213
Y0167717
X0228346Y0188976
Y020748
Y022874
Y0247244
Y0268504
Y0287008
Y030812
X0183071Y0287008
Y0247244
Y020748
X0182979Y0167717
X015542
X0155512Y020748
Y0247244
Y0287008
Y0326624
X0155512Y0366535
X0183071
X0183071Y0326624
X0228346
X0228346Y0348031
Y0366535
T07
X0125892Y0069685
Y008937
Y0109449
Y0129134
Y0149213
X038937Y0148425
Y012874
Y0109055
Y0088583
Y0068898
Y016811
Y0188189
Y0207874
Y0227953
Y0247638
Y026752
Y0287205
Y030748
X0125984Y030812
Y0288189
Y0268504
Y0248425
Y022874
Y0208661
Y0188976
X0125892Y0168898
X0125984Y0327805
X0125984Y0348031
Y0367717
X0127165Y0423228
Y0442913
X038937Y0366929
Y0347244
Y0327165
T08
X0096457Y0047244
X0295276Y0059055
Y0139764
X0419291Y0047244
X0295276Y0218504
Y0297244
X0096457Y0399606
X0295276Y0377116
X0419291Y0399606
Y0490158
X0096457
M30
