M48
;Layer_Color=9474304
;FILE_FORMAT=2:5
INCH,LZ
;TYPE=PLATED
T1F00S00C0.01181
T2F00S00C0.01575
T3F00S00C0.01968
T4F00S00C0.03937
T5F00S00C0.04256
T6F00S00C0.12992
%
T01
X0198874Y0099806
Y0102953
Y0106816
X0201772
X0205011
Y0110123
X0201772Y0110236
X0198874Y0110123
X0208661
Y0106816
T02
X003937Y0049213
X0079808Y0053543
X0088583Y0057087
X0090551Y0060197
X0094488Y0062303
X0100394Y0060197
X0098425Y0057087
X0106299Y0062992
X0112638Y0051305
X0115748Y0025689
X011871Y0025591
X0109449Y0018898
X0114173Y000748
X0083799Y0012615
X0066929Y0031806
X0154774
X017126Y0027657
X0183071
Y0005906
X017126
X0129603Y0066634
X0194882Y0027657
Y0005906
X0234252Y003189
X0163386Y0068758
X0129603Y0080709
X011811Y007687
X0102362Y0074961
X0103768Y0069193
X0104527Y0082677
X0083745Y0067778
X0036417Y0070098
X0035433Y007687
X0059039Y0132047
X0132677Y0134646
X0133858Y0140157
X0015748Y0068693
T03
X0096176Y0027559
X0112205
X0185925Y0055512
X0197736
X0209547
X0221358
X0233169
X024498
X0256791
X0268602
X0280413
X0292224
X0304035
X0315846
X0309941Y0043701
X029813
X0286319
X0274508
X0262697
X0250886
X0239075
X024498Y003189
X0256791
X0268602
X0280413
X0292224
X0304035
X0315846
X0309941Y0020079
X029813
X0286319
X0274508
X0262697
X0250886
X0256791Y0008268
X0268602
X0280413
X0274508Y-0003543
X0262697
X0250886
X024498Y0008268
X0221358
X0215453Y0020079
Y0043701
Y-0003543
X0309941
X0315846Y0008268
X0304035
X0309941Y0067323
X029813
X0286319
X0274508
X0262697
X0250886
X0239075
X0227264
X0215453
X0203642
X0191831
X0197736Y0079134
X0209547
X0221358
X0233169
X024498
X0256791
X0268602
X0280413
X0292224
X0304035
X0315846
Y0102756
X0304035
X0292224
X0280413
X0268602
X0256791
X024498
X0233169
X0221358
X0227264Y0114567
X0239075
X0250886
X0262697
X0274508
X0286319
X029813
X0309941
X0315846Y0126378
X0304035
X0292224
X0280413
X0268602
X0256791
X024498
X0233169
X0221358
X0209547
X0197736
X0203642Y0138189
X0215453
X0227264
X0239075
X0250886
X0262697
X0274508
X0286319
X029813
X0309941
X0315846Y015
X0304035
X0309941Y0161811
X0286319
X0274508
X0262697
X0250886
X0239075
X0227264
X0215453
X0203642
X0191831
X0197736Y015
X0209547
X0221358
X0233169
X024498
X0256791
X0268602
X0280413
X0215453Y0114567
X0203642
X0191831
Y0138189
Y0090945
X018002
X0185925Y0102756
X018002Y0114567
X0185925Y0126378
X018002Y0138189
X0185925Y015
X018002Y0161811
X0185925Y0079134
X018002Y0067323
X0051181Y0066929
T04
X0038386Y0001969
X0056102
Y0027559
X0038386
X0126969
X0144685
Y0001969
X0126969
X0205709
X0223425
Y0027559
X0205709
T05
X-0000984Y0044961
X-0000984Y0054961
Y0064961
X-0000984Y0074961
X-0000984Y0084961
Y0094961
T06
X0Y0
X0295276
Y015748
X0
M30
