G04*
G04 #@! TF.GenerationSoftware,Altium Limited,Altium Designer,19.0.15 (446)*
G04*
G04 Layer_Color=32768*
%FSLAX25Y25*%
%MOIN*%
G70*
G01*
G75*
%ADD12C,0.00394*%
%ADD65C,0.00197*%
D12*
X96457Y33465D02*
Y37402D01*
X94488Y35433D02*
X98425D01*
X234252Y21654D02*
Y25591D01*
X232283Y23622D02*
X236221D01*
X108268Y35433D02*
Y39370D01*
X106299Y37402D02*
X110236D01*
X88642Y9843D02*
X92579D01*
X90610Y7874D02*
Y11811D01*
X154774Y21654D02*
Y25591D01*
X152805Y23622D02*
X156742D01*
X88642Y1969D02*
X92579D01*
X90610Y-0D02*
Y3937D01*
X104331Y19685D02*
Y23622D01*
X102362Y21654D02*
X106299D01*
X106299Y7874D02*
X110236D01*
X108268Y5906D02*
Y9843D01*
X88642Y17717D02*
X92579D01*
X90610Y15748D02*
Y19685D01*
X66929Y21654D02*
Y25591D01*
X64961Y23622D02*
X68898D01*
X64961Y3937D02*
X68898D01*
X66929Y1969D02*
Y5906D01*
X152805Y3937D02*
X156742D01*
X154774Y1969D02*
Y5906D01*
X232283Y3937D02*
X236221D01*
X234252Y1969D02*
Y5906D01*
X171260Y6299D02*
Y10236D01*
X169291Y8268D02*
X173228D01*
X171260Y28583D02*
Y32520D01*
X169291Y30551D02*
X173228D01*
X194882Y28583D02*
Y32520D01*
X192913Y30551D02*
X196850D01*
X81776Y31890D02*
X85713D01*
X83745Y29921D02*
Y33858D01*
X74887Y31890D02*
X78824D01*
X76855Y29921D02*
Y33858D01*
X11693Y41732D02*
Y45669D01*
X9724Y43701D02*
X13661D01*
X183071Y28583D02*
Y32520D01*
X181102Y30551D02*
X185039D01*
X153543Y69193D02*
X157480D01*
X155512Y67224D02*
Y71161D01*
X122087Y67913D02*
X126024D01*
X124055Y65945D02*
Y69882D01*
X194882Y6299D02*
Y10236D01*
X192913Y8268D02*
X196850D01*
X125000Y144685D02*
Y148622D01*
X123031Y146653D02*
X126969D01*
X9843Y91447D02*
X13780D01*
X11811Y89478D02*
Y93415D01*
X9843Y71850D02*
X13780D01*
X11811Y69882D02*
Y73819D01*
X45276Y68898D02*
Y72835D01*
X43307Y70866D02*
X47244D01*
X36417Y65945D02*
Y69882D01*
X34449Y67913D02*
X38386D01*
X183071Y6299D02*
Y10236D01*
X181102Y8268D02*
X185039D01*
X90551Y67520D02*
X94488D01*
X92520Y65551D02*
Y69488D01*
X83745Y45669D02*
Y49606D01*
X81776Y47638D02*
X85713D01*
X74887D02*
X78824D01*
X76855Y45669D02*
Y49606D01*
D65*
X93504Y40945D02*
X99410D01*
X93504Y29921D02*
X99410D01*
Y40945D01*
X93504Y29921D02*
Y40945D01*
X229134Y32283D02*
X239370D01*
X229134Y14961D02*
X239370D01*
Y32283D01*
X229134Y14961D02*
Y32283D01*
X101772Y29921D02*
X114764D01*
X101772Y44882D02*
X114764D01*
X101772Y29921D02*
Y44882D01*
X114764Y29921D02*
Y44882D01*
X96122Y6890D02*
Y12795D01*
X85098Y6890D02*
Y12795D01*
Y6890D02*
X96122D01*
X85098Y12795D02*
X96122D01*
X149655Y32283D02*
X159892D01*
X149655Y14961D02*
X159892D01*
Y32283D01*
X149655Y14961D02*
Y32283D01*
X96122Y-984D02*
Y4921D01*
X85098Y-984D02*
Y4921D01*
Y-984D02*
X96122D01*
X85098Y4921D02*
X96122D01*
X99016Y14764D02*
X109646D01*
X99016Y28543D02*
X109646D01*
X99016Y14764D02*
Y28543D01*
X109646Y14764D02*
Y28543D01*
X116929Y2756D02*
Y12992D01*
X99606Y2756D02*
Y12992D01*
Y2756D02*
X116929D01*
X99606Y12992D02*
X116929D01*
X85098Y14764D02*
Y20669D01*
X96122Y14764D02*
Y20669D01*
X85098D02*
X96122D01*
X85098Y14764D02*
X96122D01*
X61811Y32283D02*
X72047D01*
X61811Y14961D02*
X72047D01*
Y32283D01*
X61811Y14961D02*
Y32283D01*
X70472Y-4705D02*
Y12579D01*
X63386D02*
X70472D01*
X63386Y-4705D02*
X70472D01*
X63386D02*
Y12579D01*
X158317Y-4705D02*
Y12579D01*
X151230D02*
X158317D01*
X151230Y-4705D02*
X158317D01*
X151230D02*
Y12579D01*
X237795Y-4705D02*
Y12579D01*
X230709D02*
X237795D01*
X230709Y-4705D02*
X237795D01*
X230709D02*
Y12579D01*
X165551Y-2756D02*
X176969D01*
X165551Y19291D02*
X176969D01*
X165551Y-2756D02*
Y19291D01*
X176969Y-2756D02*
Y19291D01*
X165551Y19528D02*
X176969D01*
X165551Y41575D02*
X176969D01*
X165551Y19528D02*
Y41575D01*
X176969Y19528D02*
Y41575D01*
X189173Y19528D02*
X200591D01*
X189173Y41575D02*
X200591D01*
X189173Y19528D02*
Y41575D01*
X200591Y19528D02*
Y41575D01*
X80891Y24409D02*
Y39370D01*
X86599D01*
X80891Y24409D02*
X86599D01*
Y39370D01*
X74001Y24409D02*
Y39370D01*
X79710D01*
X74001Y24409D02*
X79710D01*
Y39370D01*
X8740Y38189D02*
X14646D01*
X8740Y49213D02*
X14646D01*
X8740Y38189D02*
Y49213D01*
X14646Y38189D02*
Y49213D01*
X177362Y19528D02*
X188779D01*
X177362Y41575D02*
X188779D01*
X177362Y19528D02*
Y41575D01*
X188779Y19528D02*
Y41575D01*
X164173Y64075D02*
Y74311D01*
X146850Y64075D02*
Y74311D01*
Y64075D02*
X164173D01*
X146850Y74311D02*
X164173D01*
X106634Y52953D02*
Y82874D01*
X141476Y52953D02*
Y82874D01*
X106634D02*
X141476D01*
X106634Y52953D02*
X141476D01*
X189173Y-2756D02*
X200591D01*
X189173Y19291D02*
X200591D01*
X189173Y-2756D02*
Y19291D01*
X200591Y-2756D02*
Y19291D01*
X119882Y155315D02*
X130118D01*
X119882Y137992D02*
X130118D01*
Y155315D01*
X119882Y137992D02*
Y155315D01*
X15354Y82805D02*
Y100089D01*
X8268D02*
X15354D01*
X8268Y82805D02*
X15354D01*
X8268D02*
Y100089D01*
X4803Y38583D02*
Y101339D01*
X-6772Y101339D02*
X-6772Y38583D01*
X4803D01*
X-6772Y101339D02*
X4803Y101339D01*
X14764Y66339D02*
Y77362D01*
X8858Y66339D02*
Y77362D01*
X14764D01*
X8858Y66339D02*
X14764D01*
X42323Y65354D02*
X48228D01*
X42323Y76378D02*
X48228D01*
X42323Y65354D02*
Y76378D01*
X48228Y65354D02*
Y76378D01*
X32874Y59272D02*
Y76555D01*
Y59272D02*
X39961D01*
X32874Y76555D02*
X39961D01*
Y59272D02*
Y76555D01*
X177362Y-2756D02*
X188779D01*
X177362Y19291D02*
X188779D01*
X177362Y-2756D02*
Y19291D01*
X188779Y-2756D02*
Y19291D01*
X83858Y62402D02*
Y72638D01*
X101181Y62402D02*
Y72638D01*
X83858D02*
X101181D01*
X83858Y62402D02*
X101181D01*
X80792Y53150D02*
X86698D01*
X80792Y42126D02*
X86698D01*
Y53150D01*
X80792Y42126D02*
Y53150D01*
X73902Y42126D02*
Y53150D01*
X79808Y42126D02*
Y53150D01*
X73902Y42126D02*
X79808D01*
X73902Y53150D02*
X79808D01*
M02*
