G04*
G04 #@! TF.GenerationSoftware,Altium Limited,Altium Designer,19.0.15 (446)*
G04*
G04 Layer_Color=16711935*
%FSLAX25Y25*%
%MOIN*%
G70*
G01*
G75*
%ADD11C,0.00500*%
%ADD12C,0.00394*%
D11*
X59449Y2559D02*
Y26969D01*
X35039D02*
X59449D01*
X35039Y2559D02*
Y26969D01*
Y2559D02*
X59449D01*
X148031D02*
Y26969D01*
X123622D02*
X148031D01*
X123622Y2559D02*
Y26969D01*
Y2559D02*
X148031D01*
X236614Y2559D02*
Y26969D01*
X212205D02*
X236614D01*
X212205Y2559D02*
Y26969D01*
Y2559D02*
X236614D01*
D12*
X120709Y77362D02*
G03*
X120709Y77362I-1969J0D01*
G01*
X85433Y17061D02*
Y22376D01*
X94095Y17061D02*
Y22376D01*
X85433D02*
X94095D01*
X85433Y17061D02*
X94095D01*
X100157Y17733D02*
X111653D01*
X100157Y22851D02*
X111653D01*
X100157Y17733D02*
Y22851D01*
X111653Y17733D02*
Y22851D01*
X93799Y39764D02*
X99114D01*
X93799Y31102D02*
X99114D01*
Y39764D01*
X93799Y31102D02*
Y39764D01*
X244390Y27953D02*
X250098D01*
X244390Y19291D02*
X250098D01*
Y27953D01*
X244390Y19291D02*
Y27953D01*
X102126Y34449D02*
X114409D01*
X102126Y40354D02*
X114409D01*
X102126Y34449D02*
Y40354D01*
X114409Y34449D02*
Y40354D01*
X94291Y2854D02*
Y8169D01*
X85630Y2854D02*
Y8169D01*
Y2854D02*
X94291D01*
X85630Y8169D02*
X94291D01*
X151919Y27953D02*
X157628D01*
X151919Y19291D02*
X157628D01*
Y27953D01*
X151919Y19291D02*
Y27953D01*
X110630Y4232D02*
Y9941D01*
X101969Y4232D02*
Y9941D01*
Y4232D02*
X110630D01*
X101969Y9941D02*
X110630D01*
X85433Y9958D02*
Y15273D01*
X94095Y9958D02*
Y15273D01*
X85433D02*
X94095D01*
X85433Y9958D02*
X94095D01*
X64075Y27953D02*
X69784D01*
X64075Y19291D02*
X69784D01*
Y27953D01*
X64075Y19291D02*
Y27953D01*
X70079Y-1358D02*
Y9232D01*
X63779D02*
X70079D01*
X63779Y-1358D02*
X70079D01*
X63779D02*
Y9232D01*
X157923Y-1358D02*
Y9232D01*
X151624D02*
X157923D01*
X151624Y-1358D02*
X157923D01*
X151624D02*
Y9232D01*
X250394Y-1358D02*
Y9232D01*
X244094D02*
X250394D01*
X244094Y-1358D02*
X250394D01*
X244094D02*
Y9232D01*
X167717Y1575D02*
X174803D01*
X167717Y14961D02*
X174803D01*
X167717Y1575D02*
Y14961D01*
X174803Y1575D02*
Y14961D01*
X167717Y23858D02*
X174803D01*
X167717Y37244D02*
X174803D01*
X167717Y23858D02*
Y37244D01*
X174803Y23858D02*
Y37244D01*
X191339Y23858D02*
X198425D01*
X191339Y37244D02*
X198425D01*
X191339Y23858D02*
Y37244D01*
X198425Y23858D02*
Y37244D01*
X78740Y40846D02*
X86614D01*
X78740Y45768D02*
X86614D01*
Y40846D02*
Y45768D01*
X78740Y40846D02*
Y45768D01*
X85433Y40846D02*
Y45768D01*
X79921Y40846D02*
Y45768D01*
X78740Y47736D02*
X86614D01*
X78740Y52657D02*
X86614D01*
Y47736D02*
Y52657D01*
X78740Y47736D02*
Y52657D01*
X85433Y47736D02*
Y52658D01*
X79921Y47736D02*
Y52658D01*
X9035Y39370D02*
X14350D01*
X9035Y48031D02*
X14350D01*
X9035Y39370D02*
Y48031D01*
X14350Y39370D02*
Y48031D01*
X179528Y23858D02*
X186614D01*
X179528Y37244D02*
X186614D01*
X179528Y23858D02*
Y37244D01*
X186614Y23858D02*
Y37244D01*
X159843Y66339D02*
Y72047D01*
X151181Y66339D02*
Y72047D01*
Y66339D02*
X159843D01*
X151181Y72047D02*
X159843D01*
X115197Y54921D02*
Y80905D01*
X132913Y54921D02*
Y80905D01*
X115197D02*
X132913D01*
X115197Y54921D02*
X132913D01*
X191339Y1575D02*
X198425D01*
X191339Y14961D02*
X198425D01*
X191339Y1575D02*
Y14961D01*
X198425Y1575D02*
Y14961D01*
X126355Y142556D02*
X131977Y141565D01*
X124851Y134026D02*
X130473Y133035D01*
X131977Y141565D01*
X124851Y134026D02*
X126355Y142556D01*
X14961Y86151D02*
Y96742D01*
X8661D02*
X14961D01*
X8661Y86151D02*
X14961D01*
X8661D02*
Y96742D01*
X3918Y39469D02*
Y100453D01*
X-5887Y39469D02*
Y100453D01*
Y39469D02*
X3918Y39469D01*
X-5887Y100453D02*
X3918D01*
X14469Y67520D02*
Y76181D01*
X9154Y67520D02*
Y76181D01*
X14469D01*
X9154Y67520D02*
X14469D01*
X42618Y66535D02*
X47933D01*
X42618Y75197D02*
X47933D01*
X42618Y66535D02*
Y75197D01*
X47933Y66535D02*
Y75197D01*
X33268Y62618D02*
Y73209D01*
Y62618D02*
X39567D01*
X33268Y73209D02*
X39567D01*
Y62618D02*
Y73209D01*
X179528Y1575D02*
X186614D01*
X179528Y14961D02*
X186614D01*
X179528Y1575D02*
Y14961D01*
X186614Y1575D02*
Y14961D01*
X88189Y64665D02*
Y70374D01*
X96850Y64665D02*
Y70374D01*
X88189D02*
X96850D01*
X88189Y64665D02*
X96850D01*
X63583Y40650D02*
Y45965D01*
X72244Y40650D02*
Y45965D01*
X63583D02*
X72244D01*
X63583Y40650D02*
X72244D01*
X63583Y47539D02*
X72244D01*
X63583Y52854D02*
X72244D01*
Y47539D02*
Y52854D01*
X63583Y47539D02*
Y52854D01*
M02*
