G04*
G04 #@! TF.GenerationSoftware,Altium Limited,Altium Designer,19.0.15 (446)*
G04*
G04 Layer_Color=65535*
%FSLAX25Y25*%
%MOIN*%
G70*
G01*
G75*
%ADD10C,0.00984*%
%ADD11C,0.00500*%
%ADD12C,0.00394*%
%ADD13C,0.01000*%
%ADD14C,0.02362*%
%ADD15C,0.00787*%
%ADD16R,0.06299X0.02362*%
D10*
X98917Y16355D02*
G03*
X98917Y16355I-492J0D01*
G01*
X100886Y33071D02*
G03*
X100886Y33071I-492J0D01*
G01*
X113130Y82284D02*
G03*
X113130Y82284I-492J0D01*
G01*
D11*
X54134Y14764D02*
G03*
X54134Y14764I-6890J0D01*
G01*
X142717D02*
G03*
X142717Y14764I-6890J0D01*
G01*
X231299Y14764D02*
G03*
X231299Y14764I-6890J0D01*
G01*
X42362Y2559D02*
X52126D01*
X59449Y5000D02*
Y24528D01*
X35039Y5000D02*
Y24528D01*
X42362Y26969D02*
X52126D01*
X130945Y2559D02*
X140709D01*
X148031Y5000D02*
Y24528D01*
X123622Y5000D02*
Y24528D01*
X130945Y26969D02*
X140709D01*
X219528Y2559D02*
X229291D01*
X236614Y5000D02*
Y24528D01*
X212205Y5000D02*
Y24528D01*
X219528Y26969D02*
X229291D01*
D12*
X74213Y43307D02*
G03*
X74213Y43307I-197J0D01*
G01*
Y50197D02*
G03*
X74213Y50197I-197J0D01*
G01*
X327756Y97186D02*
X374256Y97186D01*
Y82686D02*
Y97186D01*
X327756Y82686D02*
X374256D01*
X327756D02*
Y97186D01*
X20799Y135390D02*
Y164890D01*
Y168390D01*
X59299D01*
X98299D01*
X99799D01*
Y131890D02*
Y168390D01*
X20799Y131890D02*
Y135390D01*
X99799Y128390D02*
Y131890D01*
X20799Y95390D02*
Y131890D01*
Y95390D02*
X22299D01*
X61299D01*
X99799D01*
Y98890D01*
Y128390D01*
D13*
X150308Y134899D02*
G03*
X150308Y134899I-2236J0D01*
G01*
X336374Y89686D02*
G03*
X336374Y89686I-1118J0D01*
G01*
X14961Y-3937D02*
X14961Y41142D01*
Y15748D02*
Y41142D01*
X-984Y39370D02*
X14961Y15748D01*
X201648Y78025D02*
X210720Y129475D01*
X130114Y90639D02*
X201648Y78025D01*
X130114Y90639D02*
X139186Y142089D01*
X210720Y129475D01*
X-9843Y-9843D02*
X383858D01*
Y167323D01*
X-9843D02*
X383858D01*
X-9843Y-9843D02*
Y167323D01*
D14*
X123465Y76968D02*
G03*
X123465Y76968I-1181J0D01*
G01*
D15*
X89567Y21884D02*
X89961D01*
X89567Y17553D02*
X89961D01*
X100157Y19643D02*
Y22851D01*
X102756D01*
X111653Y19643D02*
Y22851D01*
X109055D02*
X111653D01*
X98622Y35236D02*
Y35630D01*
X94291Y35236D02*
Y35630D01*
X249902Y23425D02*
Y23819D01*
X244587Y23425D02*
Y23819D01*
X102165Y37350D02*
Y40354D01*
X104724D01*
X114370Y37350D02*
Y40354D01*
X111811D02*
X114370D01*
X89764Y3347D02*
X90158D01*
X89764Y7677D02*
X90158D01*
X157431Y23425D02*
Y23819D01*
X152116Y23425D02*
Y23819D01*
X106102Y4429D02*
X106496D01*
X106102Y9744D02*
X106496D01*
X89567Y14781D02*
X89961D01*
X89567Y10450D02*
X89961D01*
X69587Y23425D02*
Y23819D01*
X64272Y23425D02*
Y23819D01*
X63779Y1969D02*
X70079D01*
Y5906D01*
X63779Y1969D02*
Y5906D01*
X151624Y1969D02*
X157923D01*
Y5906D01*
X151624Y1969D02*
Y5906D01*
X244094Y1969D02*
X250394D01*
Y5906D01*
X244094Y1969D02*
Y5906D01*
X167913Y6102D02*
Y10433D01*
X174606Y6102D02*
Y10433D01*
X167913Y28386D02*
Y32717D01*
X174606Y28386D02*
Y32717D01*
X191535Y28386D02*
Y32717D01*
X198228Y28386D02*
Y32717D01*
X81496Y40846D02*
X83858D01*
X81496Y45768D02*
X83858D01*
X81496Y47736D02*
X83858D01*
X81496Y52658D02*
X83858D01*
X9527Y43504D02*
Y43898D01*
X13858Y43504D02*
Y43898D01*
X179724Y28386D02*
Y32717D01*
X186417Y28386D02*
Y32717D01*
X155315Y66535D02*
X155709D01*
X155315Y71850D02*
X155709D01*
X118347Y54921D02*
Y80905D01*
X129764Y54921D02*
Y80905D01*
X118347D02*
X129764D01*
X118347Y54921D02*
X129764D01*
X191535Y6102D02*
Y10433D01*
X198228Y6102D02*
Y10433D01*
X130997Y137140D02*
X131065Y137528D01*
X125763Y138063D02*
X125831Y138451D01*
X8661Y89478D02*
X14961D01*
Y93415D01*
X8661Y89478D02*
Y93415D01*
X3917Y39469D02*
Y100453D01*
X-5886Y39469D02*
Y100453D01*
Y39469D02*
X3917D01*
X-5886Y100453D02*
X3917D01*
X13976Y71653D02*
Y72047D01*
X9646Y71653D02*
Y72047D01*
X43110Y70669D02*
Y71063D01*
X47441Y70669D02*
Y71063D01*
X33268Y65945D02*
Y69882D01*
X39567Y65945D02*
Y69882D01*
X33268Y65945D02*
X39567D01*
X179724Y6102D02*
Y10433D01*
X186417Y6102D02*
Y10433D01*
X92323Y70177D02*
X92716D01*
X92323Y64862D02*
X92716D01*
X67716Y45472D02*
X68110D01*
X67716Y41142D02*
X68110D01*
X67716Y48031D02*
X68110D01*
X67716Y52362D02*
X68110D01*
X373360Y-3543D02*
X375984D01*
X374672D01*
X374016Y-2887D01*
X373360Y-2231D01*
Y-1575D01*
X375984Y2360D02*
Y1048D01*
X375328Y392D01*
X374016D01*
X373360Y1048D01*
Y2360D01*
X374016Y3016D01*
X374672D01*
Y392D01*
X373360Y4328D02*
X375984Y5640D01*
X373360Y6952D01*
X375984Y8264D02*
X375328D01*
Y8920D01*
X375984D01*
Y8264D01*
Y18103D02*
Y15480D01*
X373360Y18103D01*
X372705D01*
X372048Y17447D01*
Y16135D01*
X372705Y15480D01*
Y19415D02*
X372048Y20071D01*
Y21383D01*
X372705Y22039D01*
X375328D01*
X375984Y21383D01*
Y20071D01*
X375328Y19415D01*
X372705D01*
X375984Y23351D02*
Y24663D01*
Y24007D01*
X372048D01*
X372705Y23351D01*
X375328Y26631D02*
X375984Y27287D01*
Y28599D01*
X375328Y29254D01*
X372705D01*
X372048Y28599D01*
Y27287D01*
X372705Y26631D01*
X373360D01*
X374016Y27287D01*
Y29254D01*
Y30566D02*
Y33190D01*
X375984Y36470D02*
X372048D01*
X374016Y34502D01*
Y37126D01*
X370079Y-3543D02*
X367455D01*
X366143Y-2231D01*
X367455Y-919D01*
X370079D01*
X368111D01*
Y-3543D01*
X370079Y392D02*
X367455D01*
Y2360D01*
X368111Y3016D01*
X370079D01*
X366143Y6952D02*
X370079D01*
Y4984D01*
X369423Y4328D01*
X368111D01*
X367455Y4984D01*
Y6952D01*
Y8264D02*
X370079D01*
X368767D01*
X368111Y8920D01*
X367455Y9576D01*
Y10232D01*
X370079Y14167D02*
Y12856D01*
X369423Y12200D01*
X368111D01*
X367455Y12856D01*
Y14167D01*
X368111Y14823D01*
X368767D01*
Y12200D01*
X367455Y16791D02*
Y18103D01*
X368111Y18759D01*
X370079D01*
Y16791D01*
X369423Y16135D01*
X368767Y16791D01*
Y18759D01*
X370079Y20071D02*
Y22039D01*
X369423Y22695D01*
X368767Y22039D01*
Y20727D01*
X368111Y20071D01*
X367455Y20727D01*
Y22695D01*
X366143Y27943D02*
X370079D01*
X368767D01*
X366143Y30566D01*
X368111Y28599D01*
X370079Y30566D01*
Y33846D02*
Y32534D01*
X369423Y31878D01*
X368111D01*
X367455Y32534D01*
Y33846D01*
X368111Y34502D01*
X368767D01*
Y31878D01*
X370079Y35814D02*
Y37126D01*
Y36470D01*
X366143D01*
Y35814D01*
X370079Y39094D02*
Y40406D01*
Y39750D01*
X366143D01*
Y39094D01*
X370079Y44342D02*
Y43030D01*
X369423Y42374D01*
X368111D01*
X367455Y43030D01*
Y44342D01*
X368111Y44998D01*
X368767D01*
Y42374D01*
X367455Y46309D02*
X370079D01*
X368767D01*
X368111Y46965D01*
X367455Y47621D01*
Y48277D01*
X370079Y50245D02*
X367455D01*
Y50901D01*
X368111Y51557D01*
X370079D01*
X368111D01*
X367455Y52213D01*
X368111Y52869D01*
X370079D01*
X367455Y54837D02*
Y56149D01*
X368111Y56805D01*
X370079D01*
Y54837D01*
X369423Y54181D01*
X368767Y54837D01*
Y56805D01*
X370079Y58117D02*
X367455D01*
Y60084D01*
X368111Y60741D01*
X370079D01*
Y62052D02*
X367455D01*
Y64020D01*
X368111Y64676D01*
X370079D01*
X179134Y147636D02*
Y143701D01*
X180446Y145013D01*
X181758Y143701D01*
Y147636D01*
X183070D02*
Y143701D01*
Y145669D01*
X185693D01*
Y147636D01*
Y143701D01*
X187005Y147636D02*
X188317D01*
X187661D01*
Y143701D01*
X187005D01*
X188317D01*
X190285Y147636D02*
Y143701D01*
X192909D01*
X196845Y147636D02*
X194221D01*
Y143701D01*
X196845D01*
X194221Y145669D02*
X195533D01*
X202092Y147636D02*
Y143701D01*
X204060D01*
X204716Y144357D01*
Y145013D01*
X204060Y145669D01*
X202092D01*
X204060D01*
X204716Y146325D01*
Y146981D01*
X204060Y147636D01*
X202092D01*
X206028Y143701D02*
Y146325D01*
X207340Y147636D01*
X208652Y146325D01*
Y143701D01*
Y145669D01*
X206028D01*
X209964Y147636D02*
X212588D01*
X211276D01*
Y143701D01*
X213900D02*
Y144357D01*
X214556D01*
Y143701D01*
X213900D01*
X221115Y147636D02*
X222427D01*
X221771D01*
Y143701D01*
X221115D01*
X222427D01*
X227019Y146981D02*
X226363Y147636D01*
X225051D01*
X224395Y146981D01*
Y146325D01*
X225051Y145669D01*
X226363D01*
X227019Y145013D01*
Y144357D01*
X226363Y143701D01*
X225051D01*
X224395Y144357D01*
X234890Y146981D02*
X234234Y147636D01*
X232922D01*
X232266Y146981D01*
Y144357D01*
X232922Y143701D01*
X234234D01*
X234890Y144357D01*
X238170Y147636D02*
X236858D01*
X236202Y146981D01*
Y144357D01*
X236858Y143701D01*
X238170D01*
X238826Y144357D01*
Y146981D01*
X238170Y147636D01*
X240138Y143701D02*
Y147636D01*
X242762Y143701D01*
Y147636D01*
X244074Y143701D02*
Y147636D01*
X246697Y143701D01*
Y147636D01*
X250633D02*
X248009D01*
Y143701D01*
X250633D01*
X248009Y145669D02*
X249321D01*
X254569Y146981D02*
X253913Y147636D01*
X252601D01*
X251945Y146981D01*
Y144357D01*
X252601Y143701D01*
X253913D01*
X254569Y144357D01*
X255881Y147636D02*
X258505D01*
X257193D01*
Y143701D01*
X262440Y147636D02*
X259817D01*
Y143701D01*
X262440D01*
X259817Y145669D02*
X261128D01*
X263752Y147636D02*
Y143701D01*
X265720D01*
X266376Y144357D01*
Y146981D01*
X265720Y147636D01*
X263752D01*
X267688Y145013D02*
Y148293D01*
Y144357D02*
Y143701D01*
X179134Y157479D02*
Y153543D01*
X181102D01*
X181758Y154199D01*
Y156823D01*
X181102Y157479D01*
X179134D01*
X185038D02*
X183726D01*
X183070Y156823D01*
Y154199D01*
X183726Y153543D01*
X185038D01*
X185693Y154199D01*
Y156823D01*
X185038Y157479D01*
X190941Y153543D02*
Y157479D01*
X193565Y153543D01*
Y157479D01*
X196845D02*
X195533D01*
X194877Y156823D01*
Y154199D01*
X195533Y153543D01*
X196845D01*
X197501Y154199D01*
Y156823D01*
X196845Y157479D01*
X198813D02*
X201436D01*
X200125D01*
Y153543D01*
X206684D02*
Y157479D01*
X208652D01*
X209308Y156823D01*
Y155511D01*
X208652Y154855D01*
X206684D01*
X212588Y157479D02*
X211276D01*
X210620Y156823D01*
Y154199D01*
X211276Y153543D01*
X212588D01*
X213244Y154199D01*
Y156823D01*
X212588Y157479D01*
X214556D02*
Y153543D01*
X215867Y154855D01*
X217179Y153543D01*
Y157479D01*
X221115D02*
X218491D01*
Y153543D01*
X221115D01*
X218491Y155511D02*
X219803D01*
X222427Y153543D02*
Y157479D01*
X224395D01*
X225051Y156823D01*
Y155511D01*
X224395Y154855D01*
X222427D01*
X223739D02*
X225051Y153543D01*
X232922Y157479D02*
X230298D01*
Y153543D01*
X232922D01*
X230298Y155511D02*
X231610D01*
X234234Y157479D02*
X236858Y153543D01*
Y157479D02*
X234234Y153543D01*
X238170Y157479D02*
X240794D01*
X239482D01*
Y153543D01*
X244729Y157479D02*
X242106D01*
Y153543D01*
X244729D01*
X242106Y155511D02*
X243418D01*
X246041Y153543D02*
Y157479D01*
X248009D01*
X248665Y156823D01*
Y155511D01*
X248009Y154855D01*
X246041D01*
X247353D02*
X248665Y153543D01*
X249977D02*
Y157479D01*
X252601Y153543D01*
Y157479D01*
X253913Y153543D02*
Y156167D01*
X255225Y157479D01*
X256537Y156167D01*
Y153543D01*
Y155511D01*
X253913D01*
X257849Y157479D02*
Y153543D01*
X260472D01*
X261784Y157479D02*
Y156823D01*
X263096Y155511D01*
X264408Y156823D01*
Y157479D01*
X263096Y155511D02*
Y153543D01*
X147642Y116554D02*
X147110Y117314D01*
X145818Y117542D01*
X145058Y117009D01*
X144944Y116364D01*
X145476Y115604D01*
X146768Y115376D01*
X147300Y114616D01*
X147186Y113970D01*
X146426Y113438D01*
X145134Y113666D01*
X144602Y114426D01*
X148364Y113096D02*
X149656Y112868D01*
X149010Y112982D01*
X149466Y115566D01*
X148820Y115680D01*
X151594Y112527D02*
X152886Y112299D01*
X152240Y112413D01*
X152924Y116289D01*
X152278Y116402D01*
X155926Y114427D02*
X157218Y114199D01*
X157750Y113439D01*
X157408Y111501D01*
X155470Y111843D01*
X154938Y112603D01*
X155698Y113135D01*
X157636Y112793D01*
X159383Y115149D02*
X158700Y111274D01*
X160638Y110932D01*
X161398Y111464D01*
X161512Y112110D01*
X161626Y112756D01*
X161094Y113516D01*
X159156Y113858D01*
X162576Y110590D02*
X164514Y110248D01*
X165274Y110781D01*
X164742Y111540D01*
X163450Y111768D01*
X162918Y112528D01*
X163678Y113060D01*
X165615Y112718D01*
X172266Y108882D02*
X172949Y112758D01*
X170670Y111161D01*
X173254Y110706D01*
X174773Y111770D02*
X175533Y112302D01*
X176825Y112074D01*
X177357Y111314D01*
X177243Y110668D01*
X176484Y110136D01*
X175838Y110250D01*
X176484Y110136D01*
X177016Y109376D01*
X176902Y108730D01*
X176142Y108198D01*
X174850Y108426D01*
X174318Y109186D01*
X178649Y111086D02*
X179409Y111618D01*
X180701Y111391D01*
X181233Y110631D01*
X181119Y109985D01*
X180359Y109453D01*
X179713Y109567D01*
X180359Y109453D01*
X180892Y108693D01*
X180778Y108047D01*
X180018Y107515D01*
X178726Y107743D01*
X178194Y108502D01*
X181956Y107173D02*
X182411Y109757D01*
X183057Y109643D01*
X183589Y108883D01*
X183248Y106945D01*
X183589Y108883D01*
X184349Y109415D01*
X184881Y108655D01*
X184540Y106717D01*
X186515Y110365D02*
X185832Y106490D01*
X186173Y108428D01*
X186933Y108960D01*
X188225Y108732D01*
X188757Y107972D01*
X188416Y106034D01*
X190163Y108390D02*
X192747Y107934D01*
X189708Y105806D01*
X192291Y105350D01*
X16878Y-3937D02*
Y-1D01*
X19502Y-3937D01*
Y-1D01*
X20814Y-3937D02*
Y-1D01*
X22782D01*
X23438Y-657D01*
Y-1969D01*
X22782Y-2625D01*
X20814D01*
X22126D02*
X23438Y-3937D01*
X27373Y-657D02*
X26717Y-1D01*
X25405D01*
X24749Y-657D01*
Y-1313D01*
X25405Y-1969D01*
X26717D01*
X27373Y-2625D01*
Y-3281D01*
X26717Y-3937D01*
X25405D01*
X24749Y-3281D01*
X28685Y-1D02*
X31309D01*
X29997D01*
Y-3937D01*
X16878Y7873D02*
X19502D01*
X18190D01*
Y3937D01*
X20814Y7873D02*
X23438Y3937D01*
Y7873D02*
X20814Y3937D01*
X16878Y11811D02*
Y15747D01*
X18846D01*
X19502Y15091D01*
Y13779D01*
X18846Y13123D01*
X16878D01*
X18190D02*
X19502Y11811D01*
X20814Y15747D02*
X23438Y11811D01*
Y15747D02*
X20814Y11811D01*
X16878Y23621D02*
Y19685D01*
X18846D01*
X19502Y20341D01*
Y20997D01*
X18846Y21653D01*
X16878D01*
X18846D01*
X19502Y22309D01*
Y22965D01*
X18846Y23621D01*
X16878D01*
X21470Y19685D02*
X22782D01*
X23438Y20341D01*
Y21653D01*
X22782Y22309D01*
X21470D01*
X20814Y21653D01*
Y20341D01*
X21470Y19685D01*
X25405D02*
X26717D01*
X27373Y20341D01*
Y21653D01*
X26717Y22309D01*
X25405D01*
X24749Y21653D01*
Y20341D01*
X25405Y19685D01*
X29341Y22965D02*
Y22309D01*
X28685D01*
X29997D01*
X29341D01*
Y20341D01*
X29997Y19685D01*
X16878Y31495D02*
Y28871D01*
X18190Y27559D01*
X19502Y28871D01*
Y31495D01*
X20814D02*
Y27559D01*
X22782D01*
X23438Y28215D01*
Y28871D01*
X22782Y29527D01*
X20814D01*
X22782D01*
X23438Y30183D01*
Y30839D01*
X22782Y31495D01*
X20814D01*
X24749Y27559D02*
Y30183D01*
X26061Y31495D01*
X27373Y30183D01*
Y27559D01*
Y29527D01*
X24749D01*
X28685Y31495D02*
X31309D01*
X29997D01*
Y27559D01*
X19502Y38713D02*
X18846Y39369D01*
X17534D01*
X16878Y38713D01*
Y36089D01*
X17534Y35433D01*
X18846D01*
X19502Y36089D01*
Y37401D01*
X18190D01*
X20814Y35433D02*
Y39369D01*
X23438Y35433D01*
Y39369D01*
X24749D02*
Y35433D01*
X26717D01*
X27373Y36089D01*
Y38713D01*
X26717Y39369D01*
X24749D01*
X72047Y18110D02*
Y22046D01*
X74015D01*
X74671Y21390D01*
Y20078D01*
X74015Y19422D01*
X72047D01*
X73359D02*
X74671Y18110D01*
X78607D02*
X75983D01*
X78607Y20734D01*
Y21390D01*
X77951Y22046D01*
X76639D01*
X75983Y21390D01*
X116010Y17011D02*
Y19635D01*
X115354Y20291D01*
X114042D01*
X113386Y19635D01*
Y17011D01*
X114042Y16355D01*
X115354D01*
X114698Y17667D02*
X116010Y16355D01*
X115354D02*
X116010Y17011D01*
X119945Y16355D02*
X117322D01*
X119945Y18979D01*
Y19635D01*
X119289Y20291D01*
X117977D01*
X117322Y19635D01*
X71988Y10647D02*
Y14582D01*
X73956D01*
X74612Y13926D01*
Y12615D01*
X73956Y11958D01*
X71988D01*
X73300D02*
X74612Y10647D01*
X75924D02*
X77236D01*
X76580D01*
Y14582D01*
X75924Y13926D01*
X81827Y10647D02*
X79204D01*
X81827Y13271D01*
Y13926D01*
X81172Y14582D01*
X79860D01*
X79204Y13926D01*
X72185Y3543D02*
Y7479D01*
X74153D01*
X74809Y6823D01*
Y5511D01*
X74153Y4855D01*
X72185D01*
X73497D02*
X74809Y3543D01*
X76121D02*
X77433D01*
X76777D01*
Y7479D01*
X76121Y6823D01*
X79401D02*
X80057Y7479D01*
X81368D01*
X82024Y6823D01*
Y4199D01*
X81368Y3543D01*
X80057D01*
X79401Y4199D01*
Y6823D01*
X98425Y43307D02*
X94490D01*
Y45275D01*
X95145Y45931D01*
X96457D01*
X97113Y45275D01*
Y43307D01*
Y44619D02*
X98425Y45931D01*
X97769Y47243D02*
X98425Y47899D01*
Y49211D01*
X97769Y49867D01*
X95145D01*
X94490Y49211D01*
Y47899D01*
X95145Y47243D01*
X95801D01*
X96457Y47899D01*
Y49867D01*
X115754Y43963D02*
Y46587D01*
X115098Y47243D01*
X113786D01*
X113130Y46587D01*
Y43963D01*
X113786Y43307D01*
X115098D01*
X114442Y44619D02*
X115754Y43307D01*
X115098D02*
X115754Y43963D01*
X117066Y43307D02*
X118378D01*
X117722D01*
Y47243D01*
X117066Y46587D01*
X64962Y33465D02*
X68898D01*
Y35432D01*
X68242Y36088D01*
X65618D01*
X64962Y35432D01*
Y33465D01*
Y40024D02*
Y37400D01*
X66930D01*
X66274Y38712D01*
Y39368D01*
X66930Y40024D01*
X68242D01*
X68898Y39368D01*
Y38056D01*
X68242Y37400D01*
X151773Y32717D02*
X155709D01*
Y34684D01*
X155053Y35340D01*
X152429D01*
X151773Y34684D01*
Y32717D01*
X152429Y36652D02*
X151773Y37308D01*
Y38620D01*
X152429Y39276D01*
X153085D01*
X153741Y38620D01*
Y37964D01*
Y38620D01*
X154397Y39276D01*
X155053D01*
X155709Y38620D01*
Y37308D01*
X155053Y36652D01*
X243308Y35433D02*
X247244D01*
Y37401D01*
X246588Y38057D01*
X243964D01*
X243308Y37401D01*
Y35433D01*
X247244Y41993D02*
Y39369D01*
X244620Y41993D01*
X243964D01*
X243308Y41337D01*
Y40025D01*
X243964Y39369D01*
X167980Y45931D02*
X167324Y45275D01*
Y43963D01*
X167980Y43307D01*
X170604D01*
X171260Y43963D01*
Y45275D01*
X170604Y45931D01*
X171260Y47243D02*
Y48555D01*
Y47899D01*
X167324D01*
X167980Y47243D01*
Y50523D02*
X167324Y51179D01*
Y52491D01*
X167980Y53146D01*
X168636D01*
X169292Y52491D01*
Y51834D01*
Y52491D01*
X169948Y53146D01*
X170604D01*
X171260Y52491D01*
Y51179D01*
X170604Y50523D01*
X167980Y57545D02*
X167324Y56889D01*
Y55577D01*
X167980Y54921D01*
X170604D01*
X171260Y55577D01*
Y56889D01*
X170604Y57545D01*
Y58857D02*
X171260Y59513D01*
Y60825D01*
X170604Y61481D01*
X167980D01*
X167324Y60825D01*
Y59513D01*
X167980Y58857D01*
X168636D01*
X169292Y59513D01*
Y61481D01*
X193571Y57545D02*
X192915Y56889D01*
Y55577D01*
X193571Y54921D01*
X196194D01*
X196850Y55577D01*
Y56889D01*
X196194Y57545D01*
X193571Y58857D02*
X192915Y59513D01*
Y60825D01*
X193571Y61481D01*
X194227D01*
X194883Y60825D01*
X195538Y61481D01*
X196194D01*
X196850Y60825D01*
Y59513D01*
X196194Y58857D01*
X195538D01*
X194883Y59513D01*
X194227Y58857D01*
X193571D01*
X194883Y59513D02*
Y60825D01*
X65618Y47899D02*
X64962Y47243D01*
Y45932D01*
X65618Y45276D01*
X68242D01*
X68898Y45932D01*
Y47243D01*
X68242Y47899D01*
X68898Y51179D02*
X64962D01*
X66930Y49211D01*
Y51835D01*
X101541Y524D02*
X100885Y1180D01*
X99573D01*
X98917Y524D01*
Y-2100D01*
X99573Y-2756D01*
X100885D01*
X101541Y-2100D01*
X102853Y524D02*
X103509Y1180D01*
X104821D01*
X105477Y524D01*
Y-132D01*
X104821Y-788D01*
X104165D01*
X104821D01*
X105477Y-1444D01*
Y-2100D01*
X104821Y-2756D01*
X103509D01*
X102853Y-2100D01*
X152429Y45931D02*
X151773Y45275D01*
Y43963D01*
X152429Y43307D01*
X155053D01*
X155709Y43963D01*
Y45275D01*
X155053Y45931D01*
X155709Y49867D02*
Y47243D01*
X153085Y49867D01*
X152429D01*
X151773Y49211D01*
Y47899D01*
X152429Y47243D01*
X243964Y47899D02*
X243308Y47243D01*
Y45932D01*
X243964Y45276D01*
X246588D01*
X247244Y45932D01*
Y47243D01*
X246588Y47899D01*
X247244Y49211D02*
Y50523D01*
Y49867D01*
X243308D01*
X243964Y49211D01*
X9724Y35827D02*
X13660D01*
Y33859D01*
X13004Y33203D01*
X11692D01*
X11036Y33859D01*
Y35827D01*
Y34515D02*
X9724Y33203D01*
X13004Y31891D02*
X13660Y31235D01*
Y29923D01*
X13004Y29267D01*
X12348D01*
X11692Y29923D01*
X11036Y29267D01*
X10380D01*
X9724Y29923D01*
Y31235D01*
X10380Y31891D01*
X11036D01*
X11692Y31235D01*
X12348Y31891D01*
X13004D01*
X11692Y31235D02*
Y29923D01*
X129509Y149610D02*
X128749Y149078D01*
X128521Y147786D01*
X129053Y147026D01*
X131638Y146571D01*
X132397Y147103D01*
X132625Y148395D01*
X132093Y149154D01*
X132967Y150333D02*
X133195Y151625D01*
X133081Y150979D01*
X129205Y151662D01*
X129737Y150902D01*
X130306Y154132D02*
X129774Y154892D01*
X130002Y156184D01*
X130762Y156716D01*
X133346Y156260D01*
X133878Y155501D01*
X133650Y154209D01*
X132890Y153676D01*
X130306Y154132D01*
X34449Y39469D02*
Y43404D01*
X36417D01*
X37073Y42748D01*
Y41436D01*
X36417Y40780D01*
X34449D01*
X35761D02*
X37073Y39469D01*
X38385Y43404D02*
X41008D01*
Y42748D01*
X38385Y40124D01*
Y39469D01*
X44291Y44290D02*
Y40354D01*
X46259D01*
X46915Y41010D01*
Y43634D01*
X46259Y44290D01*
X44291D01*
X50851Y43634D02*
X50195Y44290D01*
X48883D01*
X48227Y43634D01*
Y42978D01*
X48883Y42322D01*
X50195D01*
X50851Y41666D01*
Y41010D01*
X50195Y40354D01*
X48883D01*
X48227Y41010D01*
X54787Y40354D02*
X52163D01*
X54787Y42978D01*
Y43634D01*
X54131Y44290D01*
X52819D01*
X52163Y43634D01*
X47441Y78740D02*
X43505D01*
Y80708D01*
X44161Y81364D01*
X45473D01*
X46129Y80708D01*
Y78740D01*
Y80052D02*
X47441Y81364D01*
X43505Y85300D02*
Y82676D01*
X45473D01*
X44817Y83988D01*
Y84644D01*
X45473Y85300D01*
X46785D01*
X47441Y84644D01*
Y83332D01*
X46785Y82676D01*
X45734Y31666D02*
X45078Y32322D01*
X43766D01*
X43110Y31666D01*
Y31010D01*
X43766Y30354D01*
X45078D01*
X45734Y29698D01*
Y29042D01*
X45078Y28386D01*
X43766D01*
X43110Y29042D01*
X47046Y32322D02*
Y28386D01*
X48358Y29698D01*
X49670Y28386D01*
Y32322D01*
X50982Y31666D02*
X51638Y32322D01*
X52950D01*
X53606Y31666D01*
Y31010D01*
X52950Y30354D01*
X52294D01*
X52950D01*
X53606Y29698D01*
Y29042D01*
X52950Y28386D01*
X51638D01*
X50982Y29042D01*
X132738Y31666D02*
X132081Y32322D01*
X130770D01*
X130114Y31666D01*
Y31010D01*
X130770Y30354D01*
X132081D01*
X132738Y29698D01*
Y29042D01*
X132081Y28386D01*
X130770D01*
X130114Y29042D01*
X134049Y32322D02*
Y28386D01*
X135361Y29698D01*
X136673Y28386D01*
Y32322D01*
X140609Y28386D02*
X137985D01*
X140609Y31010D01*
Y31666D01*
X139953Y32322D01*
X138641D01*
X137985Y31666D01*
X223096Y31666D02*
X222440Y32322D01*
X221128D01*
X220472Y31666D01*
Y31010D01*
X221128Y30354D01*
X222440D01*
X223096Y29698D01*
Y29042D01*
X222440Y28386D01*
X221128D01*
X220472Y29042D01*
X224408Y32322D02*
Y28386D01*
X225720Y29698D01*
X227032Y28386D01*
Y32322D01*
X228344Y28386D02*
X229656D01*
X229000D01*
Y32322D01*
X228344Y31666D01*
X44291Y50196D02*
Y46260D01*
X46259D01*
X46915Y46916D01*
Y49540D01*
X46259Y50196D01*
X44291D01*
X50851Y49540D02*
X50195Y50196D01*
X48883D01*
X48227Y49540D01*
Y48884D01*
X48883Y48228D01*
X50195D01*
X50851Y47572D01*
Y46916D01*
X50195Y46260D01*
X48883D01*
X48227Y46916D01*
X52163Y46260D02*
X53475D01*
X52819D01*
Y50196D01*
X52163Y49540D01*
X110238Y84961D02*
X113517D01*
X114173Y85617D01*
Y86928D01*
X113517Y87585D01*
X110238D01*
X110893Y88896D02*
X110238Y89552D01*
Y90864D01*
X110893Y91520D01*
X111549D01*
X112205Y90864D01*
Y90208D01*
Y90864D01*
X112861Y91520D01*
X113517D01*
X114173Y90864D01*
Y89552D01*
X113517Y88896D01*
X13780Y57087D02*
X9844D01*
Y59054D01*
X10500Y59710D01*
X11812D01*
X12468Y59054D01*
Y57087D01*
Y58398D02*
X13780Y59710D01*
X9844Y63646D02*
X10500Y62334D01*
X11812Y61022D01*
X13124D01*
X13780Y61678D01*
Y62990D01*
X13124Y63646D01*
X12468D01*
X11812Y62990D01*
Y61022D01*
X34449Y46260D02*
Y50196D01*
X36417D01*
X37073Y49540D01*
Y48228D01*
X36417Y47572D01*
X34449D01*
X35761D02*
X37073Y46260D01*
X38385D02*
X39696D01*
X39040D01*
Y50196D01*
X38385Y49540D01*
X148756Y147577D02*
X148186Y144347D01*
X148718Y143587D01*
X150010Y143359D01*
X150770Y143891D01*
X151340Y147121D01*
X154532Y142562D02*
X151948Y143017D01*
X154988Y145146D01*
X155102Y145792D01*
X154570Y146552D01*
X153278Y146779D01*
X152518Y146247D01*
X1969Y104331D02*
X-1967D01*
Y106299D01*
X-1311Y106955D01*
X1D01*
X657Y106299D01*
Y104331D01*
X1969Y108266D02*
Y109578D01*
Y108922D01*
X-1967D01*
X-1311Y108266D01*
X10041Y102273D02*
X13976D01*
Y104241D01*
X13320Y104897D01*
X10697D01*
X10041Y104241D01*
Y102273D01*
X13976Y108177D02*
X10041D01*
X12009Y106209D01*
Y108833D01*
X33466Y79433D02*
X37402D01*
Y81401D01*
X36746Y82057D01*
X34122D01*
X33466Y81401D01*
Y79433D01*
X37402Y83369D02*
Y84681D01*
Y84025D01*
X33466D01*
X34122Y83369D01*
X91207Y75327D02*
X90551Y75983D01*
X89239D01*
X88583Y75327D01*
Y72703D01*
X89239Y72047D01*
X90551D01*
X91207Y72703D01*
X92518Y72047D02*
X93830D01*
X93174D01*
Y75983D01*
X92518Y75327D01*
X98422Y72047D02*
X95798D01*
X98422Y74671D01*
Y75327D01*
X97766Y75983D01*
X96454D01*
X95798Y75327D01*
X169947Y70209D02*
X169291Y70865D01*
X167979D01*
X167323Y70209D01*
Y67585D01*
X167979Y66929D01*
X169291D01*
X169947Y67585D01*
X171259Y66929D02*
X172571D01*
X171915D01*
Y70865D01*
X171259Y70209D01*
X174538Y66929D02*
X175850D01*
X175194D01*
Y70865D01*
X174538Y70209D01*
X193571Y45931D02*
X192915Y45275D01*
Y43963D01*
X193571Y43307D01*
X196194D01*
X196850Y43963D01*
Y45275D01*
X196194Y45931D01*
X192915Y47243D02*
Y49867D01*
X193571D01*
X196194Y47243D01*
X196850D01*
X179791Y57545D02*
X179135Y56889D01*
Y55577D01*
X179791Y54921D01*
X182415D01*
X183071Y55577D01*
Y56889D01*
X182415Y57545D01*
X179135Y61481D02*
X179791Y60169D01*
X181103Y58857D01*
X182415D01*
X183071Y59513D01*
Y60825D01*
X182415Y61481D01*
X181759D01*
X181103Y60825D01*
Y58857D01*
X179791Y45931D02*
X179135Y45275D01*
Y43963D01*
X179791Y43307D01*
X182415D01*
X183071Y43963D01*
Y45275D01*
X182415Y45931D01*
X179135Y49867D02*
Y47243D01*
X181103D01*
X180447Y48555D01*
Y49211D01*
X181103Y49867D01*
X182415D01*
X183071Y49211D01*
Y47899D01*
X182415Y47243D01*
X102364Y159449D02*
X106299D01*
Y161417D01*
X105643Y162073D01*
X104987D01*
X104331Y161417D01*
Y159449D01*
Y161417D01*
X103675Y162073D01*
X103019D01*
X102364Y161417D01*
Y159449D01*
X106299Y163385D02*
Y164697D01*
Y164041D01*
X102364D01*
X103019Y163385D01*
X328543Y101497D02*
X325920D01*
X324608Y102809D01*
X325920Y104121D01*
X328543D01*
X326575D01*
Y101497D01*
X328543Y105433D02*
Y106745D01*
Y106089D01*
X324608D01*
X325264Y105433D01*
D16*
X66929Y3151D02*
D03*
X154774Y3150D02*
D03*
X247244Y3150D02*
D03*
X11811Y90661D02*
D03*
X36417Y67127D02*
D03*
M02*
