G04*
G04 #@! TF.GenerationSoftware,Altium Limited,Altium Designer,19.0.15 (446)*
G04*
G04 Layer_Physical_Order=1*
G04 Layer_Color=255*
%FSLAX25Y25*%
%MOIN*%
G70*
G01*
G75*
%ADD15C,0.00787*%
%ADD17R,0.03347X0.05118*%
%ADD18R,0.03150X0.03543*%
%ADD19R,0.05118X0.03347*%
%ADD20R,0.06102X0.05315*%
%ADD21R,0.03937X0.05512*%
%ADD22R,0.05315X0.06102*%
%ADD23R,0.04803X0.03602*%
%ADD24R,0.07480X0.05315*%
%ADD25R,0.04331X0.04921*%
G04:AMPARAMS|DCode=26|XSize=62.99mil|YSize=31.5mil|CornerRadius=0mil|HoleSize=0mil|Usage=FLASHONLY|Rotation=350.000|XOffset=0mil|YOffset=0mil|HoleType=Round|Shape=Rectangle|*
%AMROTATEDRECTD26*
4,1,4,-0.03375,-0.01004,-0.02828,0.02098,0.03375,0.01004,0.02828,-0.02098,-0.03375,-0.01004,0.0*
%
%ADD26ROTATEDRECTD26*%

G04:AMPARAMS|DCode=27|XSize=100mil|YSize=59.06mil|CornerRadius=0mil|HoleSize=0mil|Usage=FLASHONLY|Rotation=350.000|XOffset=0mil|YOffset=0mil|HoleType=Round|Shape=Rectangle|*
%AMROTATEDRECTD27*
4,1,4,-0.05437,-0.02040,-0.04411,0.03776,0.05437,0.02040,0.04411,-0.03776,-0.05437,-0.02040,0.0*
%
%ADD27ROTATEDRECTD27*%

%ADD28R,0.05118X0.17717*%
%ADD29O,0.08268X0.01378*%
G04:AMPARAMS|DCode=30|XSize=61.02mil|YSize=53.15mil|CornerRadius=0mil|HoleSize=0mil|Usage=FLASHONLY|Rotation=350.000|XOffset=0mil|YOffset=0mil|HoleType=Round|Shape=Rectangle|*
%AMROTATEDRECTD30*
4,1,4,-0.03466,-0.02087,-0.02543,0.03147,0.03466,0.02087,0.02543,-0.03147,-0.03466,-0.02087,0.0*
%
%ADD30ROTATEDRECTD30*%

%ADD31R,0.09843X0.20079*%
%ADD54C,0.03937*%
%ADD55C,0.70079*%
%ADD56C,0.01575*%
%ADD57C,0.01181*%
%ADD58C,0.01968*%
%ADD59C,0.04724*%
%ADD60C,0.05906*%
%ADD61C,0.06299*%
%ADD62R,0.06299X0.06299*%
%ADD63C,0.03937*%
%ADD64C,0.19685*%
%ADD65C,0.02362*%
%ADD66C,0.03150*%
G36*
X140926Y112686D02*
Y77738D01*
X140587Y77400D01*
X140013Y77533D01*
X139840Y77793D01*
X139755Y77849D01*
Y78450D01*
X139840Y78507D01*
X140123Y78930D01*
X140222Y79429D01*
X140123Y79928D01*
X139840Y80352D01*
X139417Y80634D01*
X138917Y80734D01*
X132027D01*
X131990Y80726D01*
X131599Y81117D01*
X131286Y81326D01*
X131272Y81400D01*
X130880Y81986D01*
X130294Y82377D01*
X129603Y82515D01*
X128911Y82377D01*
X128807Y82307D01*
X128366Y82543D01*
Y89084D01*
X128830Y89548D01*
X134161D01*
X134545Y89624D01*
X134871Y89842D01*
X135757Y90728D01*
X135975Y91054D01*
X136051Y91438D01*
Y96289D01*
X135975Y96673D01*
X135757Y96999D01*
X135142Y97614D01*
X135616Y100302D01*
X128249Y101601D01*
X127497Y97336D01*
X133454Y96286D01*
X133569Y96094D01*
X133258Y95641D01*
X127381Y96677D01*
X126654Y92558D01*
X126072Y91976D01*
X125610Y92167D01*
Y100569D01*
X127625Y102584D01*
X127972Y102572D01*
X128365Y102260D01*
X128365Y102260D01*
X135732Y100961D01*
X136484Y105226D01*
X129117Y106525D01*
X128804Y104747D01*
X127365D01*
X126981Y104671D01*
X126656Y104453D01*
X124550Y102347D01*
X124094Y102528D01*
X124052Y102947D01*
X128522Y107418D01*
X128783Y107408D01*
X129233Y107184D01*
X129233Y107184D01*
X136600Y105886D01*
X137352Y110150D01*
X129985Y111449D01*
X129672Y109671D01*
X128352D01*
X127972Y110099D01*
X127955Y110197D01*
X129736Y111978D01*
X130843D01*
X137468Y110810D01*
X138162Y114743D01*
X138699Y114912D01*
X140926Y112686D01*
D02*
G37*
G36*
X319390Y92861D02*
X209332D01*
X198911Y94699D01*
X197681Y87720D01*
X208692Y85778D01*
X208890Y86905D01*
X319390D01*
Y-9843D01*
X175836D01*
Y-8878D01*
X241280D01*
X241664Y-8801D01*
X241989Y-8584D01*
X245671Y-4902D01*
X250236D01*
Y-118D01*
X244252D01*
Y-3482D01*
X240864Y-6870D01*
X175836D01*
Y-1280D01*
X175649Y-828D01*
X175591Y-803D01*
Y4740D01*
X175649Y4765D01*
X175836Y5217D01*
Y11319D01*
X175767Y11486D01*
X176087Y11986D01*
X178740D01*
Y11319D01*
X187402D01*
Y11986D01*
X190551D01*
Y11319D01*
X199213D01*
Y17815D01*
X190551D01*
Y17148D01*
X187402D01*
Y17815D01*
X178740D01*
Y17148D01*
X176087D01*
X175767Y17648D01*
X175836Y17815D01*
Y21004D01*
X175649Y21456D01*
X175591Y21480D01*
Y27024D01*
X175649Y27048D01*
X175836Y27500D01*
Y33602D01*
X175767Y33769D01*
X176087Y34269D01*
X178740D01*
Y33602D01*
X187402D01*
Y34269D01*
X190551D01*
Y33602D01*
X199213D01*
Y35445D01*
X204703D01*
X212049Y28100D01*
X211977Y27559D01*
X212099Y26634D01*
X212456Y25772D01*
X213024Y25032D01*
X213764Y24464D01*
X214626Y24107D01*
X215551Y23985D01*
X216476Y24107D01*
X217338Y24464D01*
X218078Y25032D01*
X218646Y25772D01*
X219003Y26634D01*
X219125Y27559D01*
X219003Y28484D01*
X218646Y29346D01*
X218078Y30086D01*
X217338Y30654D01*
X216476Y31011D01*
X215551Y31133D01*
X214626Y31011D01*
X213764Y30654D01*
X213597Y30525D01*
X206278Y37844D01*
X205822Y38148D01*
X205285Y38255D01*
X199213D01*
Y40098D01*
X190551D01*
Y39432D01*
X187402D01*
Y40098D01*
X178740D01*
Y39432D01*
X176087D01*
X175767Y39931D01*
X175836Y40098D01*
Y50302D01*
X214815D01*
X233542Y31574D01*
X233321Y31126D01*
X233268Y31133D01*
X232343Y31011D01*
X231481Y30654D01*
X230741Y30086D01*
X230173Y29346D01*
X229816Y28484D01*
X229694Y27559D01*
X229816Y26634D01*
X230173Y25772D01*
X230741Y25032D01*
X231481Y24464D01*
X232343Y24107D01*
X233268Y23985D01*
X234193Y24107D01*
X235055Y24464D01*
X235795Y25032D01*
X236363Y25772D01*
X236720Y26634D01*
X236842Y27559D01*
X236835Y27612D01*
X237283Y27833D01*
X243602Y21514D01*
Y16437D01*
X246241D01*
Y12776D01*
X244252D01*
Y9980D01*
X243409D01*
X243025Y9904D01*
X242700Y9686D01*
X236965Y3951D01*
X236212D01*
X235795Y4496D01*
X235055Y5064D01*
X234193Y5421D01*
X233268Y5542D01*
X232343Y5421D01*
X231481Y5064D01*
X230741Y4496D01*
X230173Y3755D01*
X229816Y2894D01*
X229694Y1969D01*
X229816Y1044D01*
X230173Y182D01*
X230741Y-559D01*
X231481Y-1127D01*
X232343Y-1484D01*
X233268Y-1605D01*
X234193Y-1484D01*
X235055Y-1127D01*
X235795Y-559D01*
X236363Y182D01*
X236720Y1044D01*
X236838Y1944D01*
X237381D01*
X237765Y2021D01*
X238090Y2238D01*
X243825Y7973D01*
X245837D01*
X245934Y7992D01*
X250236D01*
Y12776D01*
X248248D01*
Y16437D01*
X250886D01*
Y22933D01*
X245022D01*
X244106Y23849D01*
X244297Y24311D01*
X246744D01*
Y27059D01*
X243602D01*
Y25006D01*
X243140Y24814D01*
X215940Y52015D01*
X215614Y52232D01*
X215230Y52309D01*
X175836D01*
Y167323D01*
X319390D01*
Y92861D01*
D02*
G37*
G36*
X175197Y52309D02*
X139289D01*
X139141Y52610D01*
X139114Y52809D01*
X141300Y54995D01*
X141518Y55321D01*
X141594Y55705D01*
Y62402D01*
X141518Y62786D01*
X141300Y63111D01*
X140193Y64218D01*
X140123Y64574D01*
X139840Y64997D01*
X139755Y65054D01*
Y65655D01*
X139840Y65711D01*
X140123Y66135D01*
X140222Y66634D01*
X140132Y67087D01*
X140143Y67165D01*
X140420Y67587D01*
X148327D01*
Y65551D01*
X151075D01*
Y69193D01*
Y72835D01*
X148327D01*
Y70799D01*
X140420D01*
X140144Y71221D01*
X140132Y71299D01*
X140222Y71752D01*
X140123Y72251D01*
X139840Y72674D01*
X139755Y72731D01*
Y73332D01*
X139840Y73388D01*
X140123Y73812D01*
X140193Y74168D01*
X142639Y76613D01*
X142856Y76939D01*
X142933Y77323D01*
Y113102D01*
X142856Y113486D01*
X142639Y113811D01*
X138693Y117757D01*
X139088Y119999D01*
X131722Y121297D01*
X130970Y117033D01*
X137564Y115870D01*
X137679Y115677D01*
X137368Y115225D01*
X130854Y116373D01*
X130432Y113985D01*
X129320D01*
X128936Y113908D01*
X128610Y113691D01*
X121741Y106822D01*
X121279Y107013D01*
Y117301D01*
X130728Y126750D01*
X133448D01*
X140073Y125582D01*
X140825Y129847D01*
X133458Y131146D01*
X133037Y128757D01*
X130312D01*
X129928Y128680D01*
X129603Y128463D01*
X119566Y118426D01*
X119349Y118101D01*
X119272Y117717D01*
Y78800D01*
X118859Y78544D01*
X118772Y78545D01*
X118110Y78676D01*
X117660Y78587D01*
X117499Y78736D01*
X117306Y79019D01*
X117387Y79429D01*
X117288Y79928D01*
X117005Y80352D01*
X116582Y80634D01*
X116083Y80734D01*
X109193D01*
X108694Y80634D01*
X108392Y80433D01*
X79430D01*
X79046Y80356D01*
X78720Y80139D01*
X55923Y57342D01*
X25729D01*
X20689Y62382D01*
Y68209D01*
X20612Y68593D01*
X20395Y68918D01*
X14961Y74352D01*
Y77461D01*
X8661D01*
Y76283D01*
X2516D01*
X2283Y76847D01*
X1683Y77628D01*
X902Y78228D01*
X-8Y78605D01*
X-984Y78733D01*
X-1961Y78605D01*
X-2871Y78228D01*
X-3652Y77628D01*
X-4251Y76847D01*
X-4628Y75937D01*
X-4757Y74961D01*
X-4628Y73984D01*
X-4251Y73074D01*
X-3652Y72293D01*
X-2871Y71694D01*
X-1961Y71317D01*
X-984Y71188D01*
X-8Y71317D01*
X902Y71694D01*
X1683Y72293D01*
X2283Y73074D01*
X2614Y73874D01*
X8661D01*
Y72933D01*
X13541D01*
X15251Y71223D01*
X15036Y70732D01*
X15023Y70727D01*
X14961Y70768D01*
Y70768D01*
X8661D01*
Y66240D01*
X14961D01*
Y66898D01*
X15559D01*
X15559Y66898D01*
X15624Y66911D01*
X15748Y66887D01*
X16439Y67024D01*
X17025Y67416D01*
X17417Y68002D01*
X17475Y68293D01*
X18017Y68457D01*
X18681Y67793D01*
Y61967D01*
X18758Y61582D01*
X18975Y61257D01*
X21666Y58566D01*
X21547Y58234D01*
X21435Y58090D01*
X8782D01*
X4153Y62719D01*
Y66673D01*
X4077Y67057D01*
X3859Y67383D01*
X1438Y69804D01*
X1112Y70022D01*
X728Y70098D01*
X-3386D01*
X-3770Y70022D01*
X-4095Y69804D01*
X-7993Y65906D01*
X-8211Y65581D01*
X-8287Y65197D01*
Y51260D01*
X-8211Y50876D01*
X-7993Y50550D01*
X-4262Y46820D01*
X-4628Y45937D01*
X-4757Y44961D01*
X-4628Y43984D01*
X-4251Y43074D01*
X-3652Y42293D01*
X-2871Y41694D01*
X-1961Y41317D01*
X-984Y41188D01*
X-8Y41317D01*
X875Y41682D01*
X2912Y39645D01*
X3238Y39427D01*
X3622Y39351D01*
X8543D01*
Y38091D01*
X14842D01*
Y42618D01*
X8543D01*
Y41358D01*
X4038D01*
X2294Y43102D01*
X2660Y43984D01*
X2788Y44961D01*
X2660Y45937D01*
X2283Y46847D01*
X1683Y47628D01*
X902Y48228D01*
X-8Y48605D01*
X-984Y48733D01*
X-1961Y48605D01*
X-2843Y48239D01*
X-4001Y49397D01*
X-4000Y49400D01*
X-3755Y49858D01*
X-3583Y49823D01*
X7333D01*
X7717Y49900D01*
X8042Y50117D01*
X10071Y52146D01*
X19269D01*
X20747Y50668D01*
X21073Y50451D01*
X21457Y50374D01*
X37440D01*
X37696Y49962D01*
X37695Y49874D01*
X37564Y49213D01*
X37701Y48521D01*
X37965Y48126D01*
Y31078D01*
X37461Y31011D01*
X36599Y30654D01*
X35859Y30086D01*
X35291Y29346D01*
X34934Y28484D01*
X34812Y27559D01*
X34934Y26634D01*
X35291Y25772D01*
X35859Y25032D01*
X36599Y24464D01*
X37461Y24107D01*
X38386Y23985D01*
X39311Y24107D01*
X40173Y24464D01*
X40913Y25032D01*
X41481Y25772D01*
X41838Y26634D01*
X41960Y27559D01*
X41838Y28484D01*
X41481Y29346D01*
X40913Y30086D01*
X40775Y30192D01*
Y48126D01*
X41039Y48521D01*
X41176Y49213D01*
X41045Y49874D01*
X41044Y49962D01*
X41300Y50374D01*
X57225D01*
X57609Y50451D01*
X57934Y50668D01*
X58339Y51073D01*
X58839Y50866D01*
Y49300D01*
X58915Y48916D01*
X59036Y48736D01*
Y44768D01*
X58915Y44588D01*
X58839Y44204D01*
Y42410D01*
X58915Y42026D01*
X59036Y41846D01*
Y30306D01*
X58536Y30158D01*
X57889Y30654D01*
X57027Y31011D01*
X56102Y31133D01*
X55177Y31011D01*
X54315Y30654D01*
X53575Y30086D01*
X53007Y29346D01*
X52650Y28484D01*
X52529Y27559D01*
X52650Y26634D01*
X53007Y25772D01*
X53575Y25032D01*
X54315Y24464D01*
X55177Y24107D01*
X56102Y23985D01*
X57027Y24107D01*
X57889Y24464D01*
X58536Y24960D01*
X59036Y24812D01*
Y19685D01*
Y6321D01*
X57811Y5096D01*
X57027Y5421D01*
X56102Y5542D01*
X55177Y5421D01*
X54315Y5064D01*
X53575Y4496D01*
X53007Y3755D01*
X52650Y2894D01*
X52529Y1969D01*
X52650Y1044D01*
X53007Y182D01*
X53575Y-559D01*
X54315Y-1127D01*
X55177Y-1484D01*
X55260Y-1494D01*
X55393Y-1694D01*
X55718Y-1911D01*
X56102Y-1988D01*
X56486Y-1911D01*
X56812Y-1694D01*
X56945Y-1494D01*
X57027Y-1484D01*
X57889Y-1127D01*
X58630Y-559D01*
X59197Y182D01*
X59554Y1044D01*
X59676Y1969D01*
X59554Y2894D01*
X59230Y3677D01*
X60749Y5196D01*
X60966Y5522D01*
X61043Y5906D01*
Y18681D01*
X63287D01*
Y16437D01*
X65926D01*
Y12776D01*
X63937D01*
Y7992D01*
X69921D01*
Y12776D01*
X67933D01*
Y16437D01*
X70571D01*
Y22933D01*
X63287D01*
Y20689D01*
X61043D01*
Y41265D01*
X61543Y41593D01*
X62008Y41501D01*
X62303Y41258D01*
Y40157D01*
X66831D01*
Y46457D01*
X62303D01*
Y45356D01*
X62008Y45114D01*
X61543Y45021D01*
X61043Y45349D01*
Y48155D01*
X61543Y48483D01*
X62008Y48390D01*
X62303Y48148D01*
Y47047D01*
X66831D01*
Y53347D01*
X63214D01*
X63023Y53808D01*
X63920Y54705D01*
X86483D01*
X86976Y54212D01*
X87302Y53994D01*
X87686Y53918D01*
X88494D01*
X88754Y53418D01*
X88634Y53248D01*
X84842D01*
Y47146D01*
X89331D01*
X89517Y46709D01*
X89228Y46358D01*
X84842D01*
Y40256D01*
X90354D01*
Y44651D01*
X90375Y44664D01*
X98177Y52467D01*
X110707D01*
X110964Y52054D01*
X110963Y51967D01*
X110831Y51305D01*
X110969Y50614D01*
X111361Y50028D01*
X111946Y49636D01*
X112638Y49499D01*
X113329Y49636D01*
X113915Y50028D01*
X114098Y50302D01*
X175197D01*
Y40098D01*
X166929D01*
Y39432D01*
X115000D01*
X114332Y39344D01*
X113709Y39086D01*
X113175Y38675D01*
X110917Y36417D01*
X109449D01*
Y34026D01*
X109427Y33858D01*
Y33071D01*
X109449Y32903D01*
Y29724D01*
X110043D01*
X110047Y29720D01*
X110257Y29224D01*
X109969Y28850D01*
X109712Y28227D01*
X109624Y27559D01*
X109712Y26891D01*
X109969Y26269D01*
X110380Y25734D01*
X110914Y25324D01*
X111537Y25066D01*
X112205Y24978D01*
X112873Y25066D01*
X113495Y25324D01*
X113570Y25381D01*
X114038Y25205D01*
X114079Y24998D01*
X114471Y24412D01*
X114744Y24229D01*
Y20472D01*
X114821Y20088D01*
X115038Y19763D01*
X117707Y17095D01*
Y3565D01*
X113570Y-571D01*
X96591D01*
X94311Y1709D01*
Y2362D01*
X95571D01*
Y8661D01*
X94311D01*
Y9381D01*
X94390Y9446D01*
X95923D01*
X97417Y7952D01*
X97743Y7734D01*
X98127Y7658D01*
X99114D01*
Y3445D01*
X105610D01*
Y10728D01*
X99114D01*
Y9665D01*
X98543D01*
X97048Y11159D01*
X96723Y11377D01*
X96339Y11453D01*
X95374D01*
Y15765D01*
X94311D01*
Y16569D01*
X95374D01*
Y21271D01*
X95836Y21462D01*
X100000Y17298D01*
Y13993D01*
X104331D01*
Y18718D01*
X101419D01*
X96165Y23971D01*
X95840Y24189D01*
X95456Y24265D01*
X90650D01*
X90266Y24189D01*
X89940Y23971D01*
X88856Y22887D01*
X87697D01*
X87600Y22868D01*
X84153D01*
Y16569D01*
X88681D01*
Y20880D01*
X89272D01*
X89656Y20957D01*
X89981Y21174D01*
X90385Y21577D01*
X90847Y21386D01*
Y16569D01*
X92304D01*
Y15765D01*
X90847D01*
Y9466D01*
X92304D01*
Y8661D01*
X91043D01*
Y2362D01*
X92304D01*
Y1294D01*
X92380Y910D01*
X92598Y584D01*
X95172Y-1991D01*
Y-6870D01*
X73309D01*
X69921Y-3482D01*
Y-118D01*
X63937D01*
Y-4902D01*
X68502D01*
X72184Y-8584D01*
X72510Y-8801D01*
X72894Y-8878D01*
X175197D01*
Y-9843D01*
X4783D01*
X4685Y-9352D01*
X4751Y-9325D01*
X6151Y-8467D01*
X7400Y-7400D01*
X8467Y-6151D01*
X9325Y-4751D01*
X9953Y-3234D01*
X10336Y-1637D01*
X10465Y0D01*
X10336Y1637D01*
X9953Y3234D01*
X9325Y4751D01*
X8467Y6151D01*
X7400Y7400D01*
X6151Y8467D01*
X4751Y9325D01*
X3234Y9953D01*
X1637Y10336D01*
X0Y10465D01*
X-1637Y10336D01*
X-3234Y9953D01*
X-4751Y9325D01*
X-6151Y8467D01*
X-7400Y7400D01*
X-8467Y6151D01*
X-9325Y4751D01*
X-9352Y4685D01*
X-9843Y4783D01*
Y152698D01*
X-9352Y152795D01*
X-9325Y152729D01*
X-8467Y151329D01*
X-7400Y150080D01*
X-6151Y149014D01*
X-4751Y148156D01*
X-3234Y147527D01*
X-1637Y147144D01*
X0Y147015D01*
X1637Y147144D01*
X3234Y147527D01*
X4751Y148156D01*
X6151Y149014D01*
X7400Y150080D01*
X8467Y151329D01*
X9325Y152729D01*
X9953Y154246D01*
X10336Y155843D01*
X10465Y157480D01*
X10336Y159117D01*
X9953Y160714D01*
X9325Y162232D01*
X8467Y163632D01*
X7400Y164880D01*
X6151Y165947D01*
X4751Y166805D01*
X4685Y166832D01*
X4783Y167323D01*
X53061D01*
X53122Y166823D01*
X49944Y166027D01*
X46647Y164847D01*
X43483Y163350D01*
X40480Y161551D01*
X37668Y159465D01*
X35074Y157114D01*
X32723Y154520D01*
X30638Y151709D01*
X28838Y148706D01*
X27341Y145541D01*
X26162Y142245D01*
X25311Y138849D01*
X24798Y135386D01*
X24626Y131890D01*
X24798Y128393D01*
X25311Y124930D01*
X26162Y121535D01*
X27341Y118238D01*
X28838Y115074D01*
X30638Y112071D01*
X32723Y109259D01*
X35074Y106665D01*
X37668Y104314D01*
X40480Y102229D01*
X43483Y100429D01*
X46647Y98932D01*
X49944Y97753D01*
X53339Y96902D01*
X56802Y96389D01*
X60299Y96217D01*
X63795Y96389D01*
X65965Y96710D01*
X66202Y96240D01*
X46438Y76476D01*
X44113D01*
X25286Y95303D01*
Y118189D01*
X25179Y118727D01*
X24875Y119182D01*
X20811Y123247D01*
Y142520D01*
X9787D01*
Y121260D01*
X18824D01*
X22477Y117607D01*
Y94721D01*
X22583Y94183D01*
X22888Y93727D01*
X39364Y77252D01*
X39156Y76752D01*
X39014Y76752D01*
X37496D01*
X37411Y76879D01*
X37195Y77095D01*
X37102Y77561D01*
X36710Y78147D01*
X36124Y78539D01*
X35433Y78676D01*
X34742Y78539D01*
X34156Y78147D01*
X33764Y77561D01*
X33627Y76870D01*
X33530Y76752D01*
X33425D01*
Y71969D01*
X34812D01*
Y70884D01*
X34749Y70789D01*
X34611Y70098D01*
X34749Y69407D01*
X35140Y68821D01*
X35726Y68429D01*
X36417Y68292D01*
X37109Y68429D01*
X37695Y68821D01*
X38086Y69407D01*
X38224Y70098D01*
X38086Y70789D01*
X38023Y70884D01*
Y71969D01*
X39409D01*
Y76352D01*
X39410Y76499D01*
X39909Y76706D01*
X42126Y74489D01*
Y71949D01*
X48425D01*
Y74489D01*
X68003Y94068D01*
X75383D01*
X75921Y94174D01*
X76377Y94479D01*
X102158Y120261D01*
X102463Y120716D01*
X102570Y121254D01*
Y121260D01*
X110811D01*
Y142520D01*
X99787D01*
Y127892D01*
X99760Y127756D01*
Y121836D01*
X91362Y113438D01*
X90965Y113748D01*
X91759Y115074D01*
X93256Y118238D01*
X94436Y121535D01*
X95286Y124930D01*
X95800Y128393D01*
X95972Y131890D01*
X95800Y135386D01*
X95286Y138849D01*
X94436Y142245D01*
X93256Y145541D01*
X91759Y148706D01*
X89960Y151709D01*
X87874Y154520D01*
X85523Y157114D01*
X82929Y159465D01*
X80118Y161551D01*
X77115Y163350D01*
X73950Y164847D01*
X70654Y166027D01*
X67475Y166823D01*
X67537Y167323D01*
X175197D01*
Y52309D01*
D02*
G37*
G36*
X108071Y78261D02*
X108270Y77793D01*
X107988Y77369D01*
X107888Y76870D01*
X107988Y76371D01*
X108270Y75948D01*
X108071Y75480D01*
X107920Y75314D01*
X104098D01*
X104031Y75652D01*
X103639Y76238D01*
X103053Y76630D01*
X102362Y76767D01*
X101671Y76630D01*
X101085Y76238D01*
X100693Y75652D01*
X100556Y74961D01*
X100693Y74269D01*
X101085Y73683D01*
X101671Y73292D01*
X101853Y73255D01*
X101804Y72755D01*
X74828D01*
X74637Y73217D01*
X79845Y78426D01*
X107920D01*
X108071Y78261D01*
D02*
G37*
G36*
X119272Y74940D02*
Y61006D01*
X117753Y59487D01*
X117178Y59620D01*
X117005Y59879D01*
X116921Y59935D01*
Y60537D01*
X117005Y60593D01*
X117288Y61016D01*
X117387Y61516D01*
X117288Y62015D01*
X117005Y62438D01*
X116921Y62495D01*
Y63096D01*
X117005Y63152D01*
X117288Y63576D01*
X117387Y64075D01*
X117288Y64574D01*
X117005Y64997D01*
X116921Y65054D01*
Y65655D01*
X117005Y65711D01*
X117288Y66135D01*
X117387Y66634D01*
X117288Y67133D01*
X117005Y67556D01*
X116921Y67613D01*
Y68214D01*
X117005Y68270D01*
X117287Y68693D01*
X112638D01*
Y69693D01*
X117287D01*
X117005Y70115D01*
X116921Y70172D01*
Y70773D01*
X117005Y70829D01*
X117288Y71253D01*
X117387Y71752D01*
X117288Y72251D01*
X117005Y72674D01*
X116921Y72731D01*
Y73332D01*
X117005Y73388D01*
X117288Y73812D01*
X117387Y74311D01*
X117306Y74721D01*
X117499Y75005D01*
X117660Y75153D01*
X118110Y75064D01*
X118772Y75195D01*
X118859Y75196D01*
X119272Y74940D01*
D02*
G37*
G36*
X93209Y68020D02*
X96457D01*
Y67020D01*
X93209D01*
Y63878D01*
X93209Y63878D01*
X93104Y63421D01*
X92819Y62994D01*
X92682Y62303D01*
X92819Y61612D01*
X93211Y61026D01*
X93485Y60843D01*
Y60346D01*
X92751Y59612D01*
X92290Y59858D01*
X92357Y60197D01*
X92220Y60888D01*
X91829Y61474D01*
X91242Y61866D01*
X90551Y62003D01*
X89860Y61866D01*
X89274Y61474D01*
X88882Y60888D01*
X88757Y60255D01*
X64277D01*
X64086Y60717D01*
X74117Y70748D01*
X85335D01*
Y69332D01*
X84835Y69181D01*
X84436Y69447D01*
X83745Y69584D01*
X83054Y69447D01*
X82468Y69055D01*
X82076Y68469D01*
X81939Y67778D01*
X82076Y67087D01*
X82468Y66501D01*
X83054Y66109D01*
X83376Y66045D01*
X83389Y66036D01*
X84003Y65914D01*
X85335D01*
Y63878D01*
X91831D01*
Y70748D01*
X93209D01*
Y68020D01*
D02*
G37*
G36*
X130751Y71609D02*
X130822Y71253D01*
X131105Y70829D01*
X131189Y70773D01*
Y70172D01*
X131105Y70115D01*
X130823Y69693D01*
X135472D01*
Y68693D01*
X130806D01*
X130801Y68662D01*
X130732Y68557D01*
X130294Y68303D01*
X129603Y68440D01*
X128911Y68303D01*
X128325Y67911D01*
X127951Y67350D01*
X127889Y67288D01*
X127416Y67177D01*
X125610Y68984D01*
Y76097D01*
X126072Y76288D01*
X130751Y71609D01*
D02*
G37*
G36*
X1744Y62272D02*
X2182Y62122D01*
X2222Y61919D01*
X2440Y61594D01*
X7569Y56464D01*
X7486Y56125D01*
X7377Y55964D01*
X2648D01*
X2283Y56847D01*
X1683Y57628D01*
X902Y58228D01*
X-8Y58605D01*
X-984Y58733D01*
X-1961Y58605D01*
X-2871Y58228D01*
X-3652Y57628D01*
X-4251Y56847D01*
X-4402Y56483D01*
X-4902Y56582D01*
Y59624D01*
X-2843Y61682D01*
X-1961Y61317D01*
X-984Y61188D01*
X-8Y61317D01*
X902Y61694D01*
X1658Y62274D01*
X1713Y62277D01*
X1744Y62272D01*
D02*
G37*
G36*
X127996Y63759D02*
X128322Y63541D01*
X128647Y63477D01*
X130751Y61373D01*
X130822Y61016D01*
X131105Y60593D01*
X130905Y60125D01*
X130755Y59960D01*
X127010D01*
X124035Y62936D01*
Y67067D01*
X124497Y67258D01*
X127996Y63759D01*
D02*
G37*
G36*
X126495Y55688D02*
X126821Y55471D01*
X127205Y55394D01*
X131226D01*
X131528Y55192D01*
X132027Y55093D01*
X137440D01*
X137703Y54593D01*
X137622Y54474D01*
X97762D01*
X97378Y54398D01*
X97052Y54180D01*
X90816Y47944D01*
X90354Y48136D01*
Y51829D01*
X96232Y57707D01*
X96693Y57461D01*
X96619Y57087D01*
X96756Y56395D01*
X97148Y55809D01*
X97734Y55418D01*
X98425Y55280D01*
X99116Y55418D01*
X99703Y55809D01*
X99885Y56083D01*
X107323D01*
X107707Y56160D01*
X108058Y55793D01*
X108270Y55475D01*
X108694Y55192D01*
X109193Y55093D01*
X116083D01*
X116582Y55192D01*
X117005Y55475D01*
X117288Y55898D01*
X117359Y56255D01*
X120985Y59881D01*
X121203Y60207D01*
X121214Y60262D01*
X121756Y60427D01*
X126495Y55688D01*
D02*
G37*
G36*
X166929Y33602D02*
X175197D01*
Y27500D01*
X173195D01*
X173066Y27657D01*
X172929Y28349D01*
X172537Y28935D01*
X171951Y29326D01*
X171260Y29464D01*
X170569Y29326D01*
X169983Y28935D01*
X169591Y28349D01*
X169454Y27657D01*
X169324Y27500D01*
X166929D01*
Y21004D01*
X175197D01*
Y17815D01*
X166938D01*
X165967Y18786D01*
Y34269D01*
X166929D01*
Y33602D01*
D02*
G37*
G36*
X160805Y17717D02*
X160893Y17049D01*
X161151Y16426D01*
X161561Y15891D01*
X164710Y12742D01*
X165245Y12332D01*
X165867Y12074D01*
X166535Y11986D01*
X166929D01*
Y11319D01*
X175197D01*
Y5217D01*
X173323D01*
X173006Y5603D01*
X173066Y5906D01*
X172929Y6597D01*
X172537Y7183D01*
X171951Y7574D01*
X171260Y7712D01*
X170569Y7574D01*
X169983Y7183D01*
X169591Y6597D01*
X169454Y5906D01*
X169514Y5603D01*
X169196Y5217D01*
X166929D01*
Y-1280D01*
X175197D01*
Y-6870D01*
X151885D01*
X151694Y-6408D01*
X153201Y-4902D01*
X157766D01*
Y-118D01*
X151781D01*
Y-3482D01*
X148393Y-6870D01*
X97266D01*
X97179Y-6784D01*
Y-2578D01*
X113986D01*
X114370Y-2502D01*
X114695Y-2284D01*
X119420Y2440D01*
X119637Y2766D01*
X119714Y3150D01*
Y17510D01*
X119637Y17894D01*
X119420Y18220D01*
X116752Y20888D01*
Y24229D01*
X116846Y24292D01*
X117345Y24310D01*
X117521Y24254D01*
X118019Y23922D01*
X118710Y23784D01*
X119033Y23848D01*
X141141Y1740D01*
X141233Y1044D01*
X141590Y182D01*
X142158Y-559D01*
X142898Y-1127D01*
X143760Y-1484D01*
X143842Y-1494D01*
X143975Y-1694D01*
X144301Y-1911D01*
X144685Y-1988D01*
X145069Y-1911D01*
X145395Y-1694D01*
X145528Y-1494D01*
X145610Y-1484D01*
X146472Y-1127D01*
X147212Y-559D01*
X147780Y182D01*
X148137Y1044D01*
X148259Y1969D01*
X148137Y2894D01*
X147780Y3755D01*
X147212Y4496D01*
X146472Y5064D01*
X145689Y5388D01*
Y9574D01*
X152551Y16437D01*
X153770D01*
Y12776D01*
X151781D01*
Y7992D01*
X157766D01*
Y12776D01*
X155777D01*
Y16437D01*
X158415D01*
Y22933D01*
X151132D01*
Y17856D01*
X143975Y10700D01*
X143758Y10374D01*
X143682Y9990D01*
Y5388D01*
X142898Y5064D01*
X142158Y4496D01*
X141983Y4268D01*
X141484Y4236D01*
X120452Y25268D01*
X120517Y25591D01*
X120379Y26282D01*
X119988Y26868D01*
X119402Y27259D01*
X118710Y27397D01*
X118019Y27259D01*
X117612Y26988D01*
X117025Y26966D01*
X116439Y27358D01*
X115748Y27495D01*
X115269Y27400D01*
X115151Y27439D01*
X114820Y27679D01*
X114759Y27760D01*
X114698Y28227D01*
X114440Y28850D01*
X114153Y29224D01*
X114365Y29724D01*
X114567D01*
Y32767D01*
X116069Y34269D01*
X125603D01*
Y30829D01*
X125182Y30654D01*
X124441Y30086D01*
X123873Y29346D01*
X123516Y28484D01*
X123395Y27559D01*
X123516Y26634D01*
X123873Y25772D01*
X124441Y25032D01*
X125182Y24464D01*
X126043Y24107D01*
X126969Y23985D01*
X127893Y24107D01*
X128755Y24464D01*
X129496Y25032D01*
X130064Y25772D01*
X130421Y26634D01*
X130542Y27559D01*
X130421Y28484D01*
X130064Y29346D01*
X129496Y30086D01*
X128755Y30654D01*
X128413Y30796D01*
Y34269D01*
X160805D01*
Y17717D01*
D02*
G37*
%LPC*%
G36*
X295276Y164601D02*
X293886Y164464D01*
X292550Y164059D01*
X291319Y163401D01*
X290240Y162516D01*
X289355Y161436D01*
X288697Y160205D01*
X288292Y158870D01*
X288155Y157480D01*
X288292Y156091D01*
X288697Y154755D01*
X289355Y153524D01*
X290240Y152445D01*
X291319Y151559D01*
X292550Y150901D01*
X293886Y150496D01*
X295276Y150359D01*
X296665Y150496D01*
X298001Y150901D01*
X299232Y151559D01*
X300311Y152445D01*
X301196Y153524D01*
X301854Y154755D01*
X302260Y156091D01*
X302396Y157480D01*
X302260Y158870D01*
X301854Y160205D01*
X301196Y161436D01*
X300311Y162516D01*
X299232Y163401D01*
X298001Y164059D01*
X296665Y164464D01*
X295276Y164601D01*
D02*
G37*
G36*
X200613Y104353D02*
X200085Y101356D01*
X205098Y100472D01*
X205627Y103469D01*
X200613Y104353D01*
D02*
G37*
G36*
X206611Y103295D02*
X206083Y100298D01*
X211096Y99414D01*
X211625Y102411D01*
X206611Y103295D01*
D02*
G37*
G36*
X199911Y100371D02*
X199383Y97374D01*
X204396Y96490D01*
X204925Y99487D01*
X199911Y100371D01*
D02*
G37*
G36*
X205909Y99313D02*
X205381Y96316D01*
X210394Y95432D01*
X210923Y98429D01*
X205909Y99313D01*
D02*
G37*
G36*
X250886Y30807D02*
X247744D01*
Y28059D01*
X250886D01*
Y30807D01*
D02*
G37*
G36*
X246744D02*
X243602D01*
Y28059D01*
X246744D01*
Y30807D01*
D02*
G37*
G36*
X187402Y27500D02*
X183571D01*
Y24752D01*
X187402D01*
Y27500D01*
D02*
G37*
G36*
X199213D02*
X195382D01*
Y24752D01*
X199213D01*
Y27500D01*
D02*
G37*
G36*
X194382D02*
X190551D01*
Y24752D01*
X194382D01*
Y27500D01*
D02*
G37*
G36*
X182571D02*
X178740D01*
Y24752D01*
X182571D01*
Y27500D01*
D02*
G37*
G36*
X250886Y27059D02*
X247744D01*
Y24311D01*
X250886D01*
Y27059D01*
D02*
G37*
G36*
X199213Y23752D02*
X195382D01*
Y21004D01*
X199213D01*
Y23752D01*
D02*
G37*
G36*
X194382D02*
X190551D01*
Y21004D01*
X194382D01*
Y23752D01*
D02*
G37*
G36*
X187402D02*
X183571D01*
Y21004D01*
X187402D01*
Y23752D01*
D02*
G37*
G36*
X182571D02*
X178740D01*
Y21004D01*
X182571D01*
Y23752D01*
D02*
G37*
G36*
X187402Y5217D02*
X183571D01*
Y2468D01*
X187402D01*
Y5217D01*
D02*
G37*
G36*
X199213D02*
X195382D01*
Y2468D01*
X199213D01*
Y5217D01*
D02*
G37*
G36*
X194382D02*
X190551D01*
Y2468D01*
X194382D01*
Y5217D01*
D02*
G37*
G36*
X182571D02*
X178740D01*
Y2468D01*
X182571D01*
Y5217D01*
D02*
G37*
G36*
X199213Y1469D02*
X195382D01*
Y-1280D01*
X199213D01*
Y1469D01*
D02*
G37*
G36*
X194382D02*
X190551D01*
Y-1280D01*
X194382D01*
Y1469D01*
D02*
G37*
G36*
X187402D02*
X183571D01*
Y-1280D01*
X187402D01*
Y1469D01*
D02*
G37*
G36*
X182571D02*
X178740D01*
Y-1280D01*
X182571D01*
Y1469D01*
D02*
G37*
G36*
X215551Y5542D02*
X214626Y5421D01*
X213764Y5064D01*
X213024Y4496D01*
X212456Y3755D01*
X212099Y2894D01*
X211977Y1969D01*
X212099Y1044D01*
X212456Y182D01*
X213024Y-559D01*
X213764Y-1127D01*
X214626Y-1484D01*
X215551Y-1605D01*
X216476Y-1484D01*
X217338Y-1127D01*
X218078Y-559D01*
X218646Y182D01*
X219003Y1044D01*
X219125Y1969D01*
X219003Y2894D01*
X218646Y3755D01*
X218078Y4496D01*
X217338Y5064D01*
X216476Y5421D01*
X215551Y5542D01*
D02*
G37*
G36*
X295276Y7121D02*
X293886Y6984D01*
X292550Y6579D01*
X291319Y5921D01*
X290240Y5035D01*
X289355Y3956D01*
X288697Y2725D01*
X288292Y1389D01*
X288155Y0D01*
X288292Y-1389D01*
X288697Y-2725D01*
X289355Y-3956D01*
X290240Y-5035D01*
X291319Y-5921D01*
X292550Y-6579D01*
X293886Y-6984D01*
X295276Y-7121D01*
X296665Y-6984D01*
X298001Y-6579D01*
X299232Y-5921D01*
X300311Y-5035D01*
X301196Y-3956D01*
X301854Y-2725D01*
X302260Y-1389D01*
X302396Y0D01*
X302260Y1389D01*
X301854Y2725D01*
X301196Y3956D01*
X300311Y5035D01*
X299232Y5921D01*
X298001Y6579D01*
X296665Y6984D01*
X295276Y7121D01*
D02*
G37*
G36*
X126075Y145503D02*
X124947Y139106D01*
X131638Y137926D01*
X131771Y137793D01*
X132227Y137488D01*
X132765Y137382D01*
X133858D01*
X134010Y137412D01*
X134161Y137382D01*
X134169D01*
X134490Y136998D01*
X134443Y136729D01*
X141809Y135430D01*
X142561Y139695D01*
X135462Y140946D01*
X135136Y141435D01*
X134549Y141826D01*
X133858Y141964D01*
X133336Y141860D01*
X132888Y142195D01*
X133248Y144239D01*
X126075Y145503D01*
D02*
G37*
G36*
X124708Y137749D02*
X124231Y135043D01*
X127325Y134497D01*
X127802Y137204D01*
X124708Y137749D01*
D02*
G37*
G36*
X138502Y135333D02*
X138213Y133693D01*
X141404Y133131D01*
X141693Y134771D01*
X138502Y135333D01*
D02*
G37*
G36*
X128787Y137030D02*
X128223Y133831D01*
X127659Y130633D01*
X130753Y130087D01*
X131153Y132357D01*
X132411D01*
X132411Y132357D01*
X132544Y132383D01*
X132677Y132357D01*
X133283D01*
X133604Y131974D01*
X133574Y131805D01*
X136766Y131242D01*
X137142Y133374D01*
X137517Y135507D01*
X134327Y136070D01*
X134206Y135384D01*
X133678Y135273D01*
X133529Y135497D01*
X133138Y135758D01*
X132677Y135850D01*
X132262Y135767D01*
X132060Y135886D01*
X131811Y136089D01*
X131881Y136484D01*
X128787Y137030D01*
D02*
G37*
G36*
X124057Y134058D02*
X123580Y131352D01*
X126674Y130806D01*
X127151Y133512D01*
X124057Y134058D01*
D02*
G37*
G36*
X138040Y132708D02*
X137750Y131068D01*
X140941Y130506D01*
X141230Y132146D01*
X138040Y132708D01*
D02*
G37*
G36*
X132590Y126222D02*
X131838Y121957D01*
X139205Y120658D01*
X139957Y124923D01*
X132590Y126222D01*
D02*
G37*
G36*
X14803Y100285D02*
X8819D01*
Y96921D01*
X3256Y91358D01*
X2756Y91565D01*
Y98701D01*
X-4724D01*
Y91220D01*
X2411D01*
X2618Y90720D01*
X353Y88455D01*
X-8Y88604D01*
X-984Y88733D01*
X-1961Y88604D01*
X-2871Y88228D01*
X-3652Y87628D01*
X-4251Y86847D01*
X-4628Y85937D01*
X-4757Y84961D01*
X-4628Y83984D01*
X-4251Y83074D01*
X-3652Y82293D01*
X-2871Y81694D01*
X-1961Y81317D01*
X-984Y81188D01*
X-8Y81317D01*
X902Y81694D01*
X1683Y82293D01*
X2283Y83074D01*
X2660Y83984D01*
X2788Y84961D01*
X2660Y85937D01*
X2283Y86847D01*
X1979Y87243D01*
X10238Y95502D01*
X14803D01*
Y100285D01*
D02*
G37*
G36*
X162697Y72835D02*
X156201D01*
Y65551D01*
X162697D01*
Y66694D01*
X163083Y67012D01*
X163386Y66952D01*
X164077Y67089D01*
X164663Y67481D01*
X165055Y68067D01*
X165192Y68758D01*
X165055Y69449D01*
X164663Y70035D01*
X164077Y70427D01*
X163386Y70564D01*
X163083Y70504D01*
X162697Y70821D01*
Y72835D01*
D02*
G37*
G36*
X154823D02*
X152075D01*
Y69193D01*
Y65551D01*
X154823D01*
Y68962D01*
X155027Y69267D01*
X155149Y69882D01*
X155027Y70496D01*
X154823Y70802D01*
Y72835D01*
D02*
G37*
G36*
X14803Y87392D02*
X8819D01*
Y82608D01*
X12816D01*
X33425Y61999D01*
Y59075D01*
X39409D01*
Y61871D01*
X42767Y65229D01*
X44390D01*
X44526Y65256D01*
X48425D01*
Y65524D01*
X49034D01*
X49356Y65104D01*
X49891Y64694D01*
X50513Y64436D01*
X51181Y64348D01*
X51849Y64436D01*
X52472Y64694D01*
X53006Y65104D01*
X53416Y65639D01*
X53674Y66261D01*
X53762Y66929D01*
X53674Y67597D01*
X53416Y68220D01*
X53006Y68754D01*
X52472Y69164D01*
X51849Y69422D01*
X51181Y69510D01*
X50513Y69422D01*
X49891Y69164D01*
X49356Y68754D01*
X49034Y68334D01*
X48425D01*
Y69784D01*
X42126D01*
Y68027D01*
X41647Y67932D01*
X41192Y67627D01*
X37423Y63858D01*
X35540D01*
X14803Y84595D01*
Y87392D01*
D02*
G37*
G36*
X14842Y49311D02*
X12193D01*
Y47547D01*
X14842D01*
Y49311D01*
D02*
G37*
G36*
X11193D02*
X8543D01*
Y47547D01*
X11193D01*
Y49311D01*
D02*
G37*
G36*
X73524Y53347D02*
X68996D01*
Y47047D01*
X73524D01*
Y49193D01*
X75000D01*
Y47146D01*
X80512D01*
Y53248D01*
X75000D01*
Y51200D01*
X73524D01*
Y53347D01*
D02*
G37*
G36*
X14842Y46547D02*
X12193D01*
Y44783D01*
X14842D01*
Y46547D01*
D02*
G37*
G36*
X11193D02*
X8543D01*
Y44783D01*
X11193D01*
Y46547D01*
D02*
G37*
G36*
X110827Y45079D02*
X108768D01*
Y42232D01*
X110827D01*
Y45079D01*
D02*
G37*
G36*
X107768D02*
X105709D01*
Y42232D01*
X107768D01*
Y45079D01*
D02*
G37*
G36*
X73524Y46457D02*
X68996D01*
Y40157D01*
X73524D01*
Y43288D01*
X75000D01*
Y40256D01*
X80512D01*
Y46358D01*
X75000D01*
Y45295D01*
X73524D01*
Y46457D01*
D02*
G37*
G36*
X110827Y41232D02*
X108768D01*
Y38386D01*
X110827D01*
Y41232D01*
D02*
G37*
G36*
X107768D02*
X105709D01*
Y38386D01*
X107768D01*
Y41232D01*
D02*
G37*
G36*
X99606Y34350D02*
X93307D01*
Y29823D01*
X94101D01*
X94246Y29568D01*
X94303Y29323D01*
X93940Y28850D01*
X93682Y28227D01*
X93594Y27559D01*
X93682Y26891D01*
X93940Y26269D01*
X94350Y25734D01*
X94885Y25324D01*
X95508Y25066D01*
X96176Y24978D01*
X96844Y25066D01*
X97466Y25324D01*
X98001Y25734D01*
X98411Y26269D01*
X98669Y26891D01*
X98757Y27559D01*
X98669Y28227D01*
X98411Y28850D01*
X98048Y29323D01*
X98105Y29568D01*
X98250Y29823D01*
X99606D01*
Y34350D01*
D02*
G37*
G36*
X66929Y33612D02*
X66238Y33474D01*
X65652Y33083D01*
X65260Y32497D01*
X65123Y31806D01*
X65222Y31307D01*
X64910Y30807D01*
X63287D01*
Y24311D01*
X70571D01*
Y30807D01*
X68948D01*
X68636Y31307D01*
X68735Y31806D01*
X68598Y32497D01*
X68206Y33083D01*
X67620Y33474D01*
X66929Y33612D01*
D02*
G37*
G36*
X99606Y41043D02*
X93307D01*
Y36516D01*
X97639D01*
X97736Y36496D01*
X100470D01*
X101969Y34998D01*
Y29724D01*
X103524D01*
Y28161D01*
X103600Y27777D01*
X103818Y27452D01*
X104178Y27092D01*
X103971Y26592D01*
X103740D01*
Y21867D01*
X108071D01*
Y26592D01*
X106527D01*
Y27165D01*
X106451Y27549D01*
X106233Y27875D01*
X105531Y28577D01*
Y29724D01*
X107087D01*
Y36417D01*
X103388D01*
X101595Y38210D01*
X101270Y38427D01*
X100886Y38504D01*
X99606D01*
Y41043D01*
D02*
G37*
G36*
X109449Y20704D02*
X108758Y20567D01*
X108171Y20175D01*
X107780Y19589D01*
X107642Y18898D01*
X107495Y18718D01*
X107480D01*
Y13993D01*
X111811D01*
Y18718D01*
X111403D01*
X111255Y18898D01*
X111118Y19589D01*
X110726Y20175D01*
X110140Y20567D01*
X109449Y20704D01*
D02*
G37*
G36*
X88681Y15765D02*
X84153D01*
Y14712D01*
X83799Y14422D01*
X83108Y14284D01*
X82522Y13892D01*
X82130Y13306D01*
X81993Y12615D01*
X82130Y11924D01*
X82522Y11338D01*
X83108Y10946D01*
X83799Y10809D01*
X84153Y10518D01*
Y9466D01*
X88681D01*
Y15765D01*
D02*
G37*
G36*
X88878Y8661D02*
X87114D01*
Y6012D01*
X88878D01*
Y8661D01*
D02*
G37*
G36*
X86114D02*
X84350D01*
Y6012D01*
X86114D01*
Y8661D01*
D02*
G37*
G36*
X113484Y10728D02*
X106988D01*
Y3445D01*
X113484D01*
Y5682D01*
X113779D01*
X113957Y5717D01*
X114173Y5674D01*
X114865Y5812D01*
X115451Y6203D01*
X115842Y6789D01*
X115980Y7480D01*
X115842Y8172D01*
X115451Y8758D01*
X114865Y9149D01*
X114173Y9287D01*
X113871Y9227D01*
X113484Y9544D01*
Y10728D01*
D02*
G37*
G36*
X88878Y5012D02*
X87114D01*
Y2362D01*
X88878D01*
Y5012D01*
D02*
G37*
G36*
X86114D02*
X84350D01*
Y2362D01*
X86114D01*
Y5012D01*
D02*
G37*
G36*
X38386Y5542D02*
X37461Y5421D01*
X36599Y5064D01*
X35859Y4496D01*
X35291Y3755D01*
X34934Y2894D01*
X34812Y1969D01*
X34934Y1044D01*
X35291Y182D01*
X35859Y-559D01*
X36599Y-1127D01*
X37461Y-1484D01*
X38386Y-1605D01*
X39311Y-1484D01*
X40173Y-1127D01*
X40913Y-559D01*
X41481Y182D01*
X41838Y1044D01*
X41960Y1969D01*
X41838Y2894D01*
X41481Y3755D01*
X40913Y4496D01*
X40173Y5064D01*
X39311Y5421D01*
X38386Y5542D01*
D02*
G37*
G36*
X154774Y33612D02*
X154082Y33474D01*
X153496Y33083D01*
X153105Y32497D01*
X152967Y31806D01*
X153066Y31307D01*
X152754Y30807D01*
X151132D01*
Y24311D01*
X158415D01*
Y30807D01*
X156793D01*
X156481Y31307D01*
X156580Y31806D01*
X156442Y32497D01*
X156051Y33083D01*
X155465Y33474D01*
X154774Y33612D01*
D02*
G37*
G36*
X144685Y31133D02*
X143760Y31011D01*
X142898Y30654D01*
X142158Y30086D01*
X141590Y29346D01*
X141233Y28484D01*
X141111Y27559D01*
X141233Y26634D01*
X141590Y25772D01*
X142158Y25032D01*
X142898Y24464D01*
X143760Y24107D01*
X144685Y23985D01*
X145610Y24107D01*
X146472Y24464D01*
X147212Y25032D01*
X147780Y25772D01*
X148137Y26634D01*
X148259Y27559D01*
X148137Y28484D01*
X147780Y29346D01*
X147212Y30086D01*
X146472Y30654D01*
X145610Y31011D01*
X144685Y31133D01*
D02*
G37*
G36*
X126969Y5542D02*
X126043Y5421D01*
X125182Y5064D01*
X124441Y4496D01*
X123873Y3755D01*
X123516Y2894D01*
X123395Y1969D01*
X123516Y1044D01*
X123873Y182D01*
X124441Y-559D01*
X125182Y-1127D01*
X126043Y-1484D01*
X126969Y-1605D01*
X127893Y-1484D01*
X128755Y-1127D01*
X129496Y-559D01*
X130064Y182D01*
X130421Y1044D01*
X130542Y1969D01*
X130421Y2894D01*
X130064Y3755D01*
X129496Y4496D01*
X128755Y5064D01*
X127893Y5421D01*
X126969Y5542D01*
D02*
G37*
%LPD*%
D15*
X215230Y51305D02*
X247244Y19291D01*
Y10384D02*
Y19291D01*
X237381Y2948D02*
X243409Y8976D01*
X245837D01*
X247244Y10384D01*
X234247Y2948D02*
X237381D01*
X233268Y1969D02*
X234247Y2948D01*
X148809Y-7874D02*
X241280D01*
X246644Y-2510D01*
X247244D01*
X60039Y51291D02*
Y52244D01*
X59842Y51094D02*
X60039Y51291D01*
X59842Y49300D02*
Y51094D01*
Y49300D02*
X60039Y49103D01*
Y44401D02*
Y49103D01*
X59842Y44204D02*
X60039Y44401D01*
X59842Y42410D02*
Y44204D01*
Y42410D02*
X60039Y42213D01*
Y19685D02*
Y42213D01*
Y52244D02*
X63504Y55709D01*
X72244Y44291D02*
X76772D01*
X77756Y43307D01*
X71260D02*
X72244Y44291D01*
X71260Y50197D02*
X77756D01*
X87598Y50492D02*
X101471Y64364D01*
X94488Y59930D02*
Y62303D01*
X89480Y54921D02*
X94488Y59930D01*
X73701Y71752D02*
X112638D01*
X100394Y60197D02*
X107867D01*
X87686Y54921D02*
X89480D01*
X101471Y64961D02*
X103144Y66634D01*
X101471Y64364D02*
Y64961D01*
X86898Y49213D02*
Y49792D01*
X87598Y49913D02*
Y50197D01*
X86898Y49792D02*
X87451Y50345D01*
X86898Y49213D02*
X87598Y49913D01*
X107867Y60197D02*
X109186Y61516D01*
X112638D01*
X103144Y66634D02*
X112638D01*
X106299Y62992D02*
X106725D01*
X107695Y63962D01*
X112525D01*
X112638Y64075D01*
X89665Y45374D02*
X97762Y53470D01*
X89370Y45374D02*
X89665D01*
X87598Y43602D02*
X89370Y45374D01*
X87598Y43307D02*
Y43602D01*
Y50197D02*
Y50492D01*
X98425Y57087D02*
X107323D01*
X109193Y58957D01*
X56102Y-984D02*
Y1969D01*
X63504Y55709D02*
X86898D01*
X87686Y54921D01*
X62933Y57087D02*
X88583D01*
X89606Y59252D02*
X90551Y60197D01*
X-3583Y50827D02*
X7333D01*
X-5906Y53150D02*
X-3583Y50827D01*
X21457Y51378D02*
X57225D01*
X21654Y53347D02*
X57244D01*
X23622Y54961D02*
X56910D01*
X25313Y56339D02*
X56339D01*
X20039Y54961D02*
X21654Y53347D01*
X-5906Y53150D02*
Y60039D01*
X56910Y54961D02*
X73701Y71752D01*
X57244Y53347D02*
X63150Y59252D01*
X57225Y51378D02*
X62933Y57087D01*
X19685Y61967D02*
X25313Y56339D01*
X56339D02*
X79430Y79429D01*
X19685Y53150D02*
X21457Y51378D01*
X21496Y57087D02*
X23622Y54961D01*
X79430Y79429D02*
X112638D01*
X63150Y59252D02*
X89606D01*
X130312Y127753D02*
X136155D01*
X120276Y117717D02*
X130312Y127753D01*
X136155D02*
X136766Y128364D01*
X104528Y28161D02*
Y33071D01*
Y28161D02*
X105523Y27165D01*
Y24611D02*
Y27165D01*
Y24611D02*
X105905Y24229D01*
X93307Y12615D02*
Y19522D01*
Y5512D02*
Y11532D01*
X94390Y10450D01*
X93110Y11729D02*
X93307Y11532D01*
X96339Y10450D02*
X98127Y8661D01*
X94390Y10450D02*
X96339D01*
X93110Y11729D02*
Y12615D01*
X98127Y8661D02*
X100787D01*
X102362Y7087D01*
X90650Y23262D02*
X95456D01*
X89272Y21884D02*
X90650Y23262D01*
X87697Y21884D02*
X89272D01*
X86417Y20604D02*
X87697Y21884D01*
X86417Y19718D02*
Y20604D01*
X95456Y23262D02*
X101207Y17510D01*
X101575D01*
X102165Y16920D01*
Y16355D02*
Y16920D01*
X93110Y19718D02*
X93307Y19522D01*
X96176Y-7199D02*
X96850Y-7874D01*
X148809D01*
X72894D02*
X96850D01*
X96176Y-7199D02*
Y-1575D01*
X93307Y1294D02*
X96176Y-1575D01*
X93307Y1294D02*
Y5512D01*
X96176Y-1575D02*
X113986D01*
X60039Y19685D02*
X66929D01*
X60039Y5906D02*
Y19685D01*
X56102Y1969D02*
X60039Y5906D01*
X97762Y53470D02*
X138356D01*
X125984Y77795D02*
Y90469D01*
Y77795D02*
X132028Y71752D01*
X135472D01*
X102788Y74961D02*
X103438Y74311D01*
X102362Y74961D02*
X102788D01*
X103438Y74311D02*
X112638D01*
X103768Y69193D02*
X104331D01*
X130889Y80407D02*
X131868Y79429D01*
X135472D01*
X124606Y68568D02*
Y100984D01*
Y68568D02*
X128706Y64468D01*
X129075D01*
X132028Y61516D01*
X135472D01*
X120276Y60590D02*
Y117717D01*
X116083Y56398D02*
X120276Y60590D01*
X121653Y61949D02*
Y105315D01*
X129320Y112981D01*
X121653Y61949D02*
X127205Y56398D01*
X123031Y62520D02*
Y103347D01*
X128352Y108667D01*
X123031Y62520D02*
X126595Y58957D01*
X124606Y100984D02*
X127365Y103743D01*
X112638Y76870D02*
X118110D01*
X127362Y78918D02*
X129411Y76870D01*
X127362Y78918D02*
Y89499D01*
X129411Y76870D02*
X135472D01*
X115748Y20472D02*
Y25689D01*
Y20472D02*
X118710Y17510D01*
Y3150D02*
Y17510D01*
X113986Y-1575D02*
X118710Y3150D01*
X148809Y-7874D02*
X154173Y-2510D01*
X154774D01*
X67529D02*
X72894Y-7874D01*
X66929Y-2510D02*
X67529D01*
X66929Y10384D02*
Y19685D01*
X154774Y10384D02*
Y19685D01*
X144685Y-384D02*
Y9990D01*
Y-984D02*
Y-384D01*
Y9990D02*
X154380Y19685D01*
X112638Y51305D02*
X215230D01*
X140591Y55705D02*
Y62402D01*
X138917Y64075D02*
X140591Y62402D01*
X135472Y64075D02*
X138917D01*
X118710Y25591D02*
X144685Y-384D01*
X138356Y53470D02*
X140591Y55705D01*
X104528Y33071D02*
Y33858D01*
X100886Y37500D02*
X104528Y33858D01*
X97736Y37500D02*
X100886D01*
X96457Y38780D02*
X97736Y37500D01*
X93110Y12615D02*
X93110Y12615D01*
X11693Y75079D02*
X12815D01*
X15299Y131890D02*
Y137835D01*
X3622Y40354D02*
X11693D01*
X-984Y44961D02*
X3622Y40354D01*
X-984Y84961D02*
Y85699D01*
X11211Y97894D01*
X11811D01*
X19685Y61967D02*
Y68209D01*
X12815Y75079D02*
X19685Y68209D01*
X-7283Y51260D02*
Y65197D01*
Y51260D02*
X-984Y44961D01*
X-7283Y65197D02*
X-3386Y69095D01*
X728D01*
X3150Y66673D01*
Y62303D02*
Y66673D01*
Y62303D02*
X8366Y57087D01*
X21496D01*
X-5906Y60039D02*
X-984Y64961D01*
X7333Y50827D02*
X9656Y53150D01*
X19685D01*
X109193Y58957D02*
X112638D01*
X-984Y54961D02*
X20039D01*
X112638Y56398D02*
X116083D01*
X135472Y74311D02*
X138917D01*
X141929Y77323D01*
Y113102D01*
X136515Y118516D02*
X141929Y113102D01*
X135029Y118516D02*
X136515D01*
X127205Y56398D02*
X135472D01*
X129320Y112981D02*
X133551D01*
X134161Y113592D01*
X128352Y108667D02*
X133293D01*
X126595Y58957D02*
X135472D01*
X127365Y103743D02*
X132424D01*
X127362Y89499D02*
X128414Y90551D01*
X134161D01*
X135047Y91438D01*
Y96289D01*
X132517Y98819D02*
X135047Y96289D01*
X131556Y98819D02*
X132517D01*
X125984Y90469D02*
X129411Y93895D01*
X130688D01*
D17*
X86417Y19718D02*
D03*
X93110D02*
D03*
X93307Y5512D02*
D03*
X86614D02*
D03*
X86417Y12615D02*
D03*
X93110D02*
D03*
X64567Y43307D02*
D03*
X71260D02*
D03*
Y50197D02*
D03*
X64567D02*
D03*
D18*
X102165Y16355D02*
D03*
X109646D02*
D03*
X105905Y24229D02*
D03*
D19*
X96457Y38780D02*
D03*
Y32087D02*
D03*
X11693Y40354D02*
D03*
Y47047D02*
D03*
X11811Y75197D02*
D03*
Y68504D02*
D03*
X45276Y67520D02*
D03*
Y74213D02*
D03*
D20*
X247244Y27559D02*
D03*
Y19685D02*
D03*
X154774Y27559D02*
D03*
Y19685D02*
D03*
X66929Y27559D02*
D03*
Y19685D02*
D03*
D21*
X104528Y33071D02*
D03*
X112008D02*
D03*
X108268Y41732D02*
D03*
D22*
X110236Y7087D02*
D03*
X102362D02*
D03*
X159449Y69193D02*
D03*
X151575D02*
D03*
X88583Y67520D02*
D03*
X96457D02*
D03*
D23*
X66929Y10384D02*
D03*
Y-2510D02*
D03*
X154774Y10384D02*
D03*
Y-2510D02*
D03*
X247244Y10384D02*
D03*
Y-2510D02*
D03*
X11811Y97894D02*
D03*
Y85000D02*
D03*
X36417Y61466D02*
D03*
Y74360D02*
D03*
D24*
X171260Y1969D02*
D03*
Y14567D02*
D03*
Y24252D02*
D03*
Y36850D02*
D03*
X194882Y24252D02*
D03*
Y36850D02*
D03*
X183071Y24252D02*
D03*
Y36850D02*
D03*
X194882Y1969D02*
D03*
Y14567D02*
D03*
X183071Y1969D02*
D03*
Y14567D02*
D03*
D25*
X77756Y43307D02*
D03*
X87598D02*
D03*
X77756Y50197D02*
D03*
X87598D02*
D03*
D26*
X138502Y138212D02*
D03*
X137634Y133288D02*
D03*
X136766Y128364D02*
D03*
X135897Y123440D02*
D03*
X135029Y118516D02*
D03*
X134161Y113592D02*
D03*
X133293Y108667D02*
D03*
X132424Y103743D02*
D03*
X131556Y98819D02*
D03*
X130688Y93895D02*
D03*
D27*
X203801Y90238D02*
D03*
X205504Y99892D02*
D03*
D28*
X327756Y89686D02*
D03*
X373819D02*
D03*
D29*
X112638Y79429D02*
D03*
Y76870D02*
D03*
Y74311D02*
D03*
Y71752D02*
D03*
Y69193D02*
D03*
Y66634D02*
D03*
Y64075D02*
D03*
Y61516D02*
D03*
Y58957D02*
D03*
Y56398D02*
D03*
X135472Y79429D02*
D03*
Y76870D02*
D03*
Y74311D02*
D03*
Y71752D02*
D03*
Y69193D02*
D03*
Y66634D02*
D03*
Y64075D02*
D03*
Y61516D02*
D03*
Y58957D02*
D03*
Y56398D02*
D03*
D30*
X129098Y141673D02*
D03*
X127730Y133918D02*
D03*
D31*
X15299Y131890D02*
D03*
X105299D02*
D03*
D54*
X205504Y102559D02*
G03*
X203740Y106816I-6021J0D01*
G01*
X127008Y36850D02*
X163386D01*
X115000D02*
X127008D01*
X163386Y17717D02*
Y36850D01*
X171260Y14567D02*
X183071D01*
X166535D02*
X171260D01*
X163386Y17717D02*
X166535Y14567D01*
X183071D02*
X194882D01*
X163386Y36850D02*
X171260D01*
X183071D02*
X194882D01*
X171260D02*
X183071D01*
X112008Y33071D02*
Y33858D01*
X115000Y36850D01*
X205504Y99892D02*
Y102559D01*
Y99444D02*
Y99892D01*
X201772Y106816D02*
X203740D01*
D55*
X60299Y131890D02*
D03*
D56*
X194882Y36850D02*
X205285D01*
X214576Y27559D01*
X215551D01*
X62008Y43307D02*
X64567D01*
X63371Y50046D02*
X63504Y49913D01*
X62159Y50046D02*
X63371D01*
X62008Y50197D02*
X62159Y50046D01*
X63504Y49913D02*
X64283D01*
X64567Y50197D01*
X134161Y138786D02*
X137927D01*
X132765D02*
X133858D01*
X129879Y141673D02*
X132765Y138786D01*
X134009Y138938D02*
X134161Y138786D01*
X134009Y138938D02*
Y140007D01*
X133858Y140157D02*
X134009Y140007D01*
X137927Y138786D02*
X138502Y138212D01*
X129098Y141673D02*
X129879D01*
X38386Y28740D02*
X38395D01*
X39370Y29724D02*
Y49213D01*
X39215Y29569D02*
X39370Y29724D01*
X39215Y29560D02*
Y29569D01*
X38395Y28740D02*
X39215Y29560D01*
X109449Y18898D02*
X109646Y18701D01*
Y16355D02*
Y18701D01*
X35817Y61466D02*
X36417D01*
X34803Y62480D02*
X35817Y61466D01*
X34803Y62480D02*
Y62608D01*
X12411Y85000D02*
X34803Y62608D01*
X11811Y85000D02*
X12411D01*
X127008Y30551D02*
Y36850D01*
X98127Y65849D02*
X101471Y69193D01*
X104331D02*
X112638D01*
X101471D02*
X103768D01*
X154380Y19685D02*
X154774D01*
X101165Y127756D02*
X105299Y131890D01*
X101165Y121254D02*
Y127756D01*
X75383Y95472D02*
X101165Y121254D01*
X67421Y95472D02*
X75383D01*
X46161Y74213D02*
X67421Y95472D01*
X45276Y74213D02*
X46161D01*
X35433Y76870D02*
X36417Y75886D01*
Y74360D02*
Y75886D01*
X66929Y27559D02*
Y31806D01*
X194882Y1969D02*
Y5906D01*
X183071Y1969D02*
Y5906D01*
X171260Y1969D02*
Y5906D01*
Y1969D02*
X171260Y1969D01*
X171260Y24252D02*
Y27657D01*
Y24252D02*
X171260Y24252D01*
X183071D02*
Y27657D01*
X194882Y24252D02*
Y27657D01*
X154774Y27559D02*
Y31806D01*
X83799Y12615D02*
X86417D01*
X113779Y7087D02*
X114173Y7480D01*
X110236Y7087D02*
X113779D01*
X96176Y31806D02*
X96457Y32087D01*
X96176Y27559D02*
Y31806D01*
X112106Y27657D02*
X112205Y27559D01*
X112106Y27657D02*
Y32972D01*
X112008Y33071D02*
X112106Y32972D01*
X45276Y67520D02*
X45866Y66929D01*
X51181D01*
X44390Y66634D02*
X45276Y67520D01*
X42185Y66634D02*
X44390D01*
X37018Y61466D02*
X42185Y66634D01*
X36417Y61466D02*
X37018D01*
X23881Y94721D02*
X44390Y74213D01*
X23881Y94721D02*
Y118189D01*
X44390Y74213D02*
X45276D01*
X15299Y126772D02*
X23881Y118189D01*
X15299Y126772D02*
Y131890D01*
D57*
X132677Y133561D02*
X136734D01*
X128087D02*
X132411D01*
X132451Y133601D01*
Y134420D01*
X132677Y134646D01*
X136734Y133561D02*
X137008Y133288D01*
X127730Y133918D02*
X128087Y133561D01*
X-866Y75079D02*
X11693D01*
X-984Y74961D02*
X-866Y75079D01*
D58*
X60299Y131890D02*
Y132047D01*
X59039D02*
X60299D01*
X159884Y68758D02*
X163386D01*
X159449Y69193D02*
X159884Y68758D01*
X129603Y66634D02*
X135472D01*
X83745Y67778D02*
X84003Y67520D01*
X88583D01*
X36417Y70098D02*
Y74360D01*
X15559Y68504D02*
X15748Y68693D01*
X11811Y68504D02*
X15559D01*
X152854Y69193D02*
X153543Y69882D01*
X135472Y69193D02*
X152854D01*
D59*
X327953Y88386D02*
Y89489D01*
X327756Y89686D02*
X327953Y89489D01*
X204157Y89883D02*
X327756D01*
X203801Y90238D02*
X204157Y89883D01*
D60*
X56102Y27559D02*
D03*
X38386D02*
D03*
X56102Y1969D02*
D03*
X38386D02*
D03*
X144685Y27559D02*
D03*
X126969D02*
D03*
X144685Y1969D02*
D03*
X126969D02*
D03*
X233268Y27559D02*
D03*
X215551D02*
D03*
X233268Y1969D02*
D03*
X215551D02*
D03*
D61*
X-984Y54961D02*
D03*
Y64961D02*
D03*
X-984Y74961D02*
D03*
X-984Y84961D02*
D03*
X-984Y44961D02*
D03*
D62*
X-984Y94961D02*
D03*
D63*
X295276Y157480D02*
D03*
Y0D02*
D03*
X96176Y27559D02*
D03*
X112205D02*
D03*
X51181Y66929D02*
D03*
D64*
X0Y157480D02*
D03*
Y0D02*
D03*
D65*
X62008Y43307D02*
D03*
Y50197D02*
D03*
X100394Y60197D02*
D03*
X106299Y62992D02*
D03*
X98425Y57087D02*
D03*
X88583D02*
D03*
X90551Y60197D02*
D03*
X133858Y140157D02*
D03*
X132677Y134646D02*
D03*
X109449Y18898D02*
D03*
X39370Y49213D02*
D03*
X104527Y82677D02*
D03*
X103768Y69193D02*
D03*
X129603Y80709D02*
D03*
X118110Y76870D02*
D03*
X115748Y25689D02*
D03*
X35433Y76870D02*
D03*
X66929Y31806D02*
D03*
X194882Y5906D02*
D03*
X183071D02*
D03*
X171260D02*
D03*
Y27657D02*
D03*
X183071D02*
D03*
X194882D02*
D03*
X154774Y31806D02*
D03*
X83799Y12615D02*
D03*
X114173Y7480D02*
D03*
X118710Y25591D02*
D03*
X112638Y51305D02*
D03*
X94488Y62303D02*
D03*
X102362Y74961D02*
D03*
X59039Y132047D02*
D03*
X198874Y99806D02*
D03*
X205011Y106816D02*
D03*
Y110123D02*
D03*
X201772Y106816D02*
D03*
X198874Y102953D02*
D03*
Y106816D02*
D03*
X208661D02*
D03*
Y110123D02*
D03*
X201772Y110236D02*
D03*
X198874Y110123D02*
D03*
X163386Y68758D02*
D03*
X129603Y66634D02*
D03*
X83745Y67778D02*
D03*
X36417Y70098D02*
D03*
X15748Y68693D02*
D03*
D66*
X256791Y79134D02*
D03*
X309941Y20079D02*
D03*
X268602Y102756D02*
D03*
X197736Y126378D02*
D03*
X298130Y114567D02*
D03*
X262697D02*
D03*
X250886Y138189D02*
D03*
X280413Y8268D02*
D03*
X239075Y138189D02*
D03*
X203642D02*
D03*
X262697D02*
D03*
X315846Y31890D02*
D03*
Y126378D02*
D03*
X227264Y114567D02*
D03*
X268602Y31890D02*
D03*
X309941Y114567D02*
D03*
X292224Y79134D02*
D03*
X244980Y150000D02*
D03*
X262697Y161811D02*
D03*
X315846Y79134D02*
D03*
X298130Y138189D02*
D03*
X274508Y-3543D02*
D03*
X315846Y8268D02*
D03*
X280413Y55512D02*
D03*
Y150000D02*
D03*
X274508Y161811D02*
D03*
X233169Y102756D02*
D03*
X274508Y114567D02*
D03*
X221358Y102756D02*
D03*
X239075Y161811D02*
D03*
X197736Y150000D02*
D03*
X185925Y126378D02*
D03*
X227264Y67323D02*
D03*
X262697Y20079D02*
D03*
X239075Y43701D02*
D03*
X304035Y55512D02*
D03*
X286319Y43701D02*
D03*
X209547Y55512D02*
D03*
X304035Y150000D02*
D03*
X180020Y161811D02*
D03*
X309941D02*
D03*
X250886Y43701D02*
D03*
X298130Y20079D02*
D03*
X304035Y31890D02*
D03*
X180020Y90945D02*
D03*
Y138189D02*
D03*
X298130Y43701D02*
D03*
X203642Y161811D02*
D03*
X262697Y-3543D02*
D03*
X304035Y126378D02*
D03*
X203642Y114567D02*
D03*
X315846Y102756D02*
D03*
X244980D02*
D03*
X304035Y79134D02*
D03*
X309941Y43701D02*
D03*
X304035Y8268D02*
D03*
X315846Y150000D02*
D03*
X292224Y126378D02*
D03*
X215453Y-3543D02*
D03*
X292224Y31890D02*
D03*
X215453Y161811D02*
D03*
X191831D02*
D03*
X185925Y150000D02*
D03*
X268602D02*
D03*
X233169Y126378D02*
D03*
X244980Y79134D02*
D03*
X250886Y161811D02*
D03*
X215453Y67323D02*
D03*
X268602Y8268D02*
D03*
X227264Y161811D02*
D03*
X262697Y43701D02*
D03*
X185925Y102756D02*
D03*
X215453Y138189D02*
D03*
X292224Y102756D02*
D03*
X286319Y67323D02*
D03*
X233169Y55512D02*
D03*
X191831Y90945D02*
D03*
X233169Y150000D02*
D03*
X298130Y67323D02*
D03*
X274508Y20079D02*
D03*
X227264Y138189D02*
D03*
X315846Y55512D02*
D03*
X185925Y79134D02*
D03*
X203642Y67323D02*
D03*
X286319Y161811D02*
D03*
X280413Y31890D02*
D03*
X239075Y67323D02*
D03*
X280413Y126378D02*
D03*
X239075Y114567D02*
D03*
X292224Y55512D02*
D03*
X244980D02*
D03*
X215453Y114567D02*
D03*
X274508Y43701D02*
D03*
X215453D02*
D03*
X221358Y55512D02*
D03*
X262697Y67323D02*
D03*
X268602Y126378D02*
D03*
Y55512D02*
D03*
X256791D02*
D03*
X309941Y-3543D02*
D03*
X215453Y20079D02*
D03*
X286319D02*
D03*
X221358Y8268D02*
D03*
X197736Y79134D02*
D03*
X286319Y138189D02*
D03*
X309941D02*
D03*
X209547Y79134D02*
D03*
X221358D02*
D03*
X268602D02*
D03*
X233169D02*
D03*
X209547Y126378D02*
D03*
X221358D02*
D03*
X250886Y67323D02*
D03*
X304035Y102756D02*
D03*
X221358Y150000D02*
D03*
X191831Y138189D02*
D03*
X180020Y114567D02*
D03*
X274508Y67323D02*
D03*
X280413Y79134D02*
D03*
X309941Y67323D02*
D03*
X280413Y102756D02*
D03*
X274508Y138189D02*
D03*
X209547Y150000D02*
D03*
X244980Y126378D02*
D03*
X286319Y114567D02*
D03*
X256791Y126378D02*
D03*
X250886Y114567D02*
D03*
X256791Y150000D02*
D03*
Y102756D02*
D03*
X191831Y114567D02*
D03*
M02*
