G04*
G04 #@! TF.GenerationSoftware,Altium Limited,Altium Designer,19.0.15 (446)*
G04*
G04 Layer_Physical_Order=2*
G04 Layer_Color=16711680*
%FSLAX25Y25*%
%MOIN*%
G70*
G01*
G75*
%ADD15C,0.00787*%
%ADD56C,0.01575*%
%ADD60C,0.05906*%
%ADD61C,0.06299*%
%ADD62R,0.06299X0.06299*%
%ADD63C,0.03937*%
%ADD64C,0.19685*%
%ADD65C,0.02362*%
%ADD66C,0.03150*%
G36*
X319390Y167323D02*
Y-9843D01*
X5240Y-9843D01*
X5099Y-9342D01*
X6267Y-8626D01*
X7540Y-7540D01*
X8626Y-6267D01*
X9501Y-4841D01*
X10141Y-3295D01*
X10531Y-1668D01*
X10623Y-500D01*
X0D01*
Y0D01*
X-500D01*
Y10623D01*
X-1668Y10531D01*
X-3295Y10141D01*
X-4841Y9501D01*
X-6267Y8626D01*
X-7540Y7540D01*
X-8626Y6267D01*
X-9342Y5099D01*
X-9843Y5240D01*
Y152241D01*
X-9342Y152382D01*
X-8626Y151213D01*
X-7540Y149941D01*
X-6267Y148854D01*
X-4841Y147980D01*
X-3295Y147339D01*
X-1668Y146949D01*
X-500Y146857D01*
Y157480D01*
X0D01*
Y157980D01*
X10623D01*
X10531Y159148D01*
X10141Y160775D01*
X9501Y162321D01*
X8626Y163748D01*
X7540Y165020D01*
X6267Y166107D01*
X5099Y166823D01*
X5240Y167323D01*
X319390Y167323D01*
D02*
G37*
%LPC*%
G36*
X295276Y164601D02*
X293886Y164464D01*
X292550Y164059D01*
X291319Y163401D01*
X290240Y162516D01*
X289355Y161436D01*
X288697Y160205D01*
X288292Y158870D01*
X288155Y157480D01*
X288292Y156091D01*
X288697Y154755D01*
X289355Y153524D01*
X290240Y152445D01*
X291319Y151559D01*
X292550Y150901D01*
X293886Y150496D01*
X295276Y150359D01*
X296665Y150496D01*
X298001Y150901D01*
X299232Y151559D01*
X300311Y152445D01*
X301196Y153524D01*
X301854Y154755D01*
X302260Y156091D01*
X302396Y157480D01*
X302260Y158870D01*
X301854Y160205D01*
X301196Y161436D01*
X300311Y162516D01*
X299232Y163401D01*
X298001Y164059D01*
X296665Y164464D01*
X295276Y164601D01*
D02*
G37*
G36*
X10623Y156980D02*
X500D01*
Y146857D01*
X1668Y146949D01*
X3295Y147339D01*
X4841Y147980D01*
X6267Y148854D01*
X7540Y149941D01*
X8626Y151213D01*
X9501Y152639D01*
X10141Y154185D01*
X10531Y155812D01*
X10623Y156980D01*
D02*
G37*
G36*
X132677Y136452D02*
X131986Y136314D01*
X131400Y135923D01*
X131008Y135337D01*
X130871Y134646D01*
X131008Y133954D01*
X131400Y133368D01*
X131986Y132977D01*
X132677Y132839D01*
X133368Y132977D01*
X133955Y133368D01*
X134346Y133954D01*
X134484Y134646D01*
X134346Y135337D01*
X133955Y135923D01*
X133368Y136314D01*
X132677Y136452D01*
D02*
G37*
G36*
X2953Y98898D02*
X-484D01*
Y95461D01*
X2953D01*
Y98898D01*
D02*
G37*
G36*
X-1484D02*
X-4921D01*
Y95461D01*
X-1484D01*
Y98898D01*
D02*
G37*
G36*
X2953Y94461D02*
X-484D01*
Y91024D01*
X2953D01*
Y94461D01*
D02*
G37*
G36*
X-1484D02*
X-4921D01*
Y91024D01*
X-1484D01*
Y94461D01*
D02*
G37*
G36*
X-984Y88733D02*
X-1961Y88604D01*
X-2871Y88228D01*
X-3652Y87628D01*
X-4251Y86847D01*
X-4628Y85937D01*
X-4757Y84961D01*
X-4628Y83984D01*
X-4251Y83074D01*
X-3652Y82293D01*
X-2871Y81694D01*
X-1961Y81317D01*
X-984Y81188D01*
X-8Y81317D01*
X902Y81694D01*
X1683Y82293D01*
X2283Y83074D01*
X2660Y83984D01*
X2788Y84961D01*
X2660Y85937D01*
X2283Y86847D01*
X1683Y87628D01*
X902Y88228D01*
X-8Y88604D01*
X-984Y88733D01*
D02*
G37*
G36*
X129603Y82515D02*
X128911Y82377D01*
X128325Y81986D01*
X128143Y81712D01*
X118110D01*
X117726Y81636D01*
X117401Y81418D01*
X115038Y79056D01*
X114821Y78730D01*
X114744Y78346D01*
Y52173D01*
X114707Y52158D01*
X114244Y52090D01*
X113915Y52582D01*
X113329Y52974D01*
X112638Y53111D01*
X111946Y52974D01*
X111877Y52928D01*
X107303Y57502D01*
Y61532D01*
X107577Y61715D01*
X107968Y62301D01*
X108106Y62992D01*
X107968Y63683D01*
X107577Y64269D01*
X106991Y64661D01*
X106299Y64798D01*
X105608Y64661D01*
X105022Y64269D01*
X104630Y63683D01*
X104493Y62992D01*
X104630Y62301D01*
X105022Y61715D01*
X105296Y61532D01*
Y57087D01*
X105372Y56703D01*
X105590Y56377D01*
X110874Y51093D01*
X110969Y50614D01*
X111361Y50028D01*
X111946Y49636D01*
X112638Y49499D01*
X113329Y49636D01*
X113915Y50028D01*
X114244Y50521D01*
X114707Y50453D01*
X114744Y50438D01*
Y29274D01*
X114244Y29105D01*
X114030Y29384D01*
X113495Y29794D01*
X112873Y30052D01*
X112205Y30140D01*
X111537Y30052D01*
X110914Y29794D01*
X110380Y29384D01*
X110057Y28964D01*
X98323D01*
X98001Y29384D01*
X97466Y29794D01*
X96844Y30052D01*
X96176Y30140D01*
X95508Y30052D01*
X94885Y29794D01*
X94350Y29384D01*
X94028Y28964D01*
X91133D01*
X53693Y66404D01*
X53762Y66929D01*
X53674Y67597D01*
X53416Y68220D01*
X53006Y68754D01*
X52472Y69164D01*
X51849Y69422D01*
X51181Y69510D01*
X50513Y69422D01*
X49891Y69164D01*
X49356Y68754D01*
X48946Y68220D01*
X48688Y67597D01*
X48600Y66929D01*
X48669Y66404D01*
X38377Y56112D01*
X38072Y55656D01*
X37965Y55118D01*
Y50299D01*
X37701Y49904D01*
X37564Y49213D01*
X37701Y48521D01*
X38093Y47935D01*
X38679Y47544D01*
X39370Y47406D01*
X40061Y47544D01*
X40647Y47935D01*
X41039Y48521D01*
X41176Y49213D01*
X41039Y49904D01*
X40775Y50299D01*
Y54536D01*
X50656Y64417D01*
X51181Y64348D01*
X51706Y64417D01*
X89558Y26566D01*
X90013Y26261D01*
X90551Y26154D01*
X94028D01*
X94350Y25734D01*
X94885Y25324D01*
X95508Y25066D01*
X96176Y24978D01*
X96844Y25066D01*
X97466Y25324D01*
X98001Y25734D01*
X98323Y26154D01*
X110057D01*
X110380Y25734D01*
X110914Y25324D01*
X111537Y25066D01*
X112205Y24978D01*
X112873Y25066D01*
X113495Y25324D01*
X113570Y25381D01*
X114038Y25205D01*
X114079Y24998D01*
X114471Y24412D01*
X115057Y24020D01*
X115748Y23883D01*
X116439Y24020D01*
X116846Y24292D01*
X117433Y24313D01*
X118019Y23922D01*
X118710Y23784D01*
X119402Y23922D01*
X119988Y24313D01*
X120379Y24899D01*
X120517Y25591D01*
X120379Y26282D01*
X119988Y26868D01*
X119414Y27251D01*
Y75632D01*
X119779Y76179D01*
X119917Y76870D01*
X119779Y77561D01*
X119387Y78147D01*
X118801Y78539D01*
X118189Y78661D01*
X118049Y78908D01*
X117981Y79161D01*
X118526Y79705D01*
X128143D01*
X128325Y79431D01*
X128911Y79040D01*
X129603Y78902D01*
X130294Y79040D01*
X130880Y79431D01*
X131272Y80017D01*
X131409Y80709D01*
X131272Y81400D01*
X130880Y81986D01*
X130294Y82377D01*
X129603Y82515D01*
D02*
G37*
G36*
X104527Y84483D02*
X103836Y84346D01*
X103250Y83955D01*
X102859Y83368D01*
X102721Y82677D01*
X102859Y81986D01*
X103250Y81400D01*
X103524Y81217D01*
Y76891D01*
X103111Y76635D01*
X103024Y76635D01*
X102362Y76767D01*
X101671Y76630D01*
X101085Y76238D01*
X100693Y75652D01*
X100556Y74961D01*
X100620Y74638D01*
X93779Y67796D01*
X93561Y67471D01*
X93485Y67087D01*
Y63763D01*
X93211Y63580D01*
X92819Y62994D01*
X92682Y62303D01*
X92813Y61641D01*
X92814Y61554D01*
X92558Y61141D01*
X92051D01*
X91829Y61474D01*
X91242Y61866D01*
X90551Y62003D01*
X89860Y61866D01*
X89274Y61474D01*
X88882Y60888D01*
X88745Y60197D01*
X88882Y59506D01*
X89008Y59318D01*
X88707Y58868D01*
X88583Y58893D01*
X87891Y58755D01*
X87305Y58364D01*
X86914Y57778D01*
X86776Y57087D01*
X86914Y56395D01*
X87305Y55809D01*
X87891Y55418D01*
X88583Y55280D01*
X89274Y55418D01*
X89860Y55809D01*
X90043Y56083D01*
X96965D01*
X97148Y55809D01*
X97734Y55418D01*
X98425Y55280D01*
X99116Y55418D01*
X99703Y55809D01*
X100094Y56395D01*
X100232Y57087D01*
X100094Y57778D01*
X99969Y57965D01*
X100270Y58415D01*
X100394Y58390D01*
X101085Y58528D01*
X101671Y58920D01*
X102063Y59506D01*
X102200Y60197D01*
X102063Y60888D01*
X101671Y61474D01*
X101085Y61866D01*
X100394Y62003D01*
X99702Y61866D01*
X99116Y61474D01*
X98894Y61141D01*
X96419D01*
X96162Y61554D01*
X96163Y61641D01*
X96295Y62303D01*
X96157Y62994D01*
X95766Y63580D01*
X95492Y63763D01*
Y66671D01*
X102039Y73219D01*
X102362Y73154D01*
X102378Y73158D01*
X102765Y72840D01*
Y70653D01*
X102491Y70470D01*
X102100Y69884D01*
X101962Y69193D01*
X102100Y68502D01*
X102491Y67916D01*
X103077Y67524D01*
X103768Y67387D01*
X104460Y67524D01*
X105046Y67916D01*
X105437Y68502D01*
X105575Y69193D01*
X105437Y69884D01*
X105046Y70470D01*
X104772Y70653D01*
Y72889D01*
X105237Y73354D01*
X105455Y73680D01*
X105531Y74064D01*
Y81217D01*
X105805Y81400D01*
X106196Y81986D01*
X106334Y82677D01*
X106196Y83368D01*
X105805Y83955D01*
X105219Y84346D01*
X104527Y84483D01*
D02*
G37*
G36*
X-984Y78733D02*
X-1961Y78605D01*
X-2871Y78228D01*
X-3652Y77628D01*
X-4251Y76847D01*
X-4628Y75937D01*
X-4757Y74961D01*
X-4628Y73984D01*
X-4251Y73074D01*
X-3652Y72293D01*
X-2871Y71694D01*
X-1961Y71317D01*
X-984Y71188D01*
X-8Y71317D01*
X902Y71694D01*
X1683Y72293D01*
X2283Y73074D01*
X2660Y73984D01*
X2788Y74961D01*
X2660Y75937D01*
X2283Y76847D01*
X1683Y77628D01*
X902Y78228D01*
X-8Y78605D01*
X-984Y78733D01*
D02*
G37*
G36*
X-984Y68733D02*
X-1961Y68604D01*
X-2871Y68228D01*
X-3652Y67628D01*
X-4251Y66847D01*
X-4628Y65937D01*
X-4757Y64961D01*
X-4628Y63984D01*
X-4251Y63074D01*
X-3652Y62293D01*
X-2871Y61694D01*
X-1961Y61317D01*
X-984Y61188D01*
X-8Y61317D01*
X902Y61694D01*
X1683Y62293D01*
X2283Y63074D01*
X2660Y63984D01*
X2788Y64961D01*
X2660Y65937D01*
X2283Y66847D01*
X1683Y67628D01*
X902Y68228D01*
X-8Y68604D01*
X-984Y68733D01*
D02*
G37*
G36*
Y58733D02*
X-1961Y58605D01*
X-2871Y58228D01*
X-3652Y57628D01*
X-4251Y56847D01*
X-4628Y55937D01*
X-4757Y54961D01*
X-4628Y53984D01*
X-4251Y53074D01*
X-3652Y52293D01*
X-2871Y51694D01*
X-1961Y51317D01*
X-984Y51188D01*
X-8Y51317D01*
X902Y51694D01*
X1683Y52293D01*
X2283Y53074D01*
X2660Y53984D01*
X2788Y54961D01*
X2660Y55937D01*
X2283Y56847D01*
X1683Y57628D01*
X902Y58228D01*
X-8Y58605D01*
X-984Y58733D01*
D02*
G37*
G36*
X-984Y48733D02*
X-1961Y48605D01*
X-2871Y48228D01*
X-3652Y47628D01*
X-4251Y46847D01*
X-4628Y45937D01*
X-4757Y44961D01*
X-4628Y43984D01*
X-4251Y43074D01*
X-3652Y42293D01*
X-2871Y41694D01*
X-1961Y41317D01*
X-984Y41188D01*
X-8Y41317D01*
X902Y41694D01*
X1683Y42293D01*
X2283Y43074D01*
X2660Y43984D01*
X2788Y44961D01*
X2660Y45937D01*
X2283Y46847D01*
X1683Y47628D01*
X902Y48228D01*
X-8Y48605D01*
X-984Y48733D01*
D02*
G37*
G36*
X144685Y31133D02*
X143760Y31011D01*
X142898Y30654D01*
X142158Y30086D01*
X141590Y29346D01*
X141233Y28484D01*
X141111Y27559D01*
X141233Y26634D01*
X141590Y25772D01*
X142158Y25032D01*
X142898Y24464D01*
X143760Y24107D01*
X144685Y23985D01*
X145610Y24107D01*
X146472Y24464D01*
X147212Y25032D01*
X147780Y25772D01*
X148137Y26634D01*
X148259Y27559D01*
X148137Y28484D01*
X147780Y29346D01*
X147212Y30086D01*
X146472Y30654D01*
X145610Y31011D01*
X144685Y31133D01*
D02*
G37*
G36*
X126969D02*
X126043Y31011D01*
X125182Y30654D01*
X124441Y30086D01*
X123873Y29346D01*
X123516Y28484D01*
X123395Y27559D01*
X123516Y26634D01*
X123873Y25772D01*
X124441Y25032D01*
X125182Y24464D01*
X126043Y24107D01*
X126969Y23985D01*
X127893Y24107D01*
X128755Y24464D01*
X129496Y25032D01*
X130064Y25772D01*
X130421Y26634D01*
X130542Y27559D01*
X130421Y28484D01*
X130064Y29346D01*
X129496Y30086D01*
X128755Y30654D01*
X127893Y31011D01*
X126969Y31133D01*
D02*
G37*
G36*
X56102D02*
X55177Y31011D01*
X54315Y30654D01*
X53575Y30086D01*
X53007Y29346D01*
X52650Y28484D01*
X52529Y27559D01*
X52650Y26634D01*
X53007Y25772D01*
X53575Y25032D01*
X54315Y24464D01*
X55177Y24107D01*
X56102Y23985D01*
X57027Y24107D01*
X57889Y24464D01*
X58630Y25032D01*
X59197Y25772D01*
X59554Y26634D01*
X59676Y27559D01*
X59554Y28484D01*
X59197Y29346D01*
X58630Y30086D01*
X57889Y30654D01*
X57027Y31011D01*
X56102Y31133D01*
D02*
G37*
G36*
X38386D02*
X37461Y31011D01*
X36599Y30654D01*
X35859Y30086D01*
X35291Y29346D01*
X34934Y28484D01*
X34812Y27559D01*
X34934Y26634D01*
X35291Y25772D01*
X35859Y25032D01*
X36599Y24464D01*
X37461Y24107D01*
X38386Y23985D01*
X39311Y24107D01*
X40173Y24464D01*
X40913Y25032D01*
X41481Y25772D01*
X41838Y26634D01*
X41960Y27559D01*
X41838Y28484D01*
X41481Y29346D01*
X40913Y30086D01*
X40173Y30654D01*
X39311Y31011D01*
X38386Y31133D01*
D02*
G37*
G36*
X233268Y31133D02*
X232343Y31011D01*
X231481Y30654D01*
X230741Y30086D01*
X230173Y29346D01*
X229816Y28484D01*
X229694Y27559D01*
X229816Y26634D01*
X230173Y25772D01*
X230741Y25032D01*
X231481Y24464D01*
X232343Y24107D01*
X233268Y23985D01*
X234193Y24107D01*
X235055Y24464D01*
X235795Y25032D01*
X236363Y25772D01*
X236720Y26634D01*
X236842Y27559D01*
X236720Y28484D01*
X236363Y29346D01*
X235795Y30086D01*
X235055Y30654D01*
X234193Y31011D01*
X233268Y31133D01*
D02*
G37*
G36*
X215551D02*
X214626Y31011D01*
X213764Y30654D01*
X213024Y30086D01*
X212456Y29346D01*
X212099Y28484D01*
X211977Y27559D01*
X212099Y26634D01*
X212456Y25772D01*
X213024Y25032D01*
X213764Y24464D01*
X214626Y24107D01*
X215551Y23985D01*
X216476Y24107D01*
X217338Y24464D01*
X218078Y25032D01*
X218646Y25772D01*
X219003Y26634D01*
X219125Y27559D01*
X219003Y28484D01*
X218646Y29346D01*
X218078Y30086D01*
X217338Y30654D01*
X216476Y31011D01*
X215551Y31133D01*
D02*
G37*
G36*
X500Y10623D02*
Y500D01*
X10623D01*
X10531Y1668D01*
X10141Y3295D01*
X9501Y4841D01*
X8626Y6267D01*
X7540Y7540D01*
X6267Y8626D01*
X4841Y9501D01*
X3295Y10141D01*
X1668Y10531D01*
X500Y10623D01*
D02*
G37*
G36*
X144685Y5542D02*
X143760Y5421D01*
X142898Y5064D01*
X142158Y4496D01*
X141590Y3755D01*
X141233Y2894D01*
X141111Y1969D01*
X141233Y1044D01*
X141590Y182D01*
X142158Y-559D01*
X142898Y-1127D01*
X143760Y-1484D01*
X144685Y-1605D01*
X145610Y-1484D01*
X146472Y-1127D01*
X147212Y-559D01*
X147780Y182D01*
X148137Y1044D01*
X148259Y1969D01*
X148137Y2894D01*
X147780Y3755D01*
X147212Y4496D01*
X146472Y5064D01*
X145610Y5421D01*
X144685Y5542D01*
D02*
G37*
G36*
X126969D02*
X126043Y5421D01*
X125182Y5064D01*
X124441Y4496D01*
X123873Y3755D01*
X123516Y2894D01*
X123395Y1969D01*
X123516Y1044D01*
X123873Y182D01*
X124441Y-559D01*
X125182Y-1127D01*
X126043Y-1484D01*
X126969Y-1605D01*
X127893Y-1484D01*
X128755Y-1127D01*
X129496Y-559D01*
X130064Y182D01*
X130421Y1044D01*
X130542Y1969D01*
X130421Y2894D01*
X130064Y3755D01*
X129496Y4496D01*
X128755Y5064D01*
X127893Y5421D01*
X126969Y5542D01*
D02*
G37*
G36*
X56102D02*
X55177Y5421D01*
X54315Y5064D01*
X53575Y4496D01*
X53007Y3755D01*
X52650Y2894D01*
X52529Y1969D01*
X52650Y1044D01*
X53007Y182D01*
X53575Y-559D01*
X54315Y-1127D01*
X55177Y-1484D01*
X56102Y-1605D01*
X57027Y-1484D01*
X57889Y-1127D01*
X58630Y-559D01*
X59197Y182D01*
X59554Y1044D01*
X59676Y1969D01*
X59554Y2894D01*
X59197Y3755D01*
X58630Y4496D01*
X57889Y5064D01*
X57027Y5421D01*
X56102Y5542D01*
D02*
G37*
G36*
X38386D02*
X37461Y5421D01*
X36599Y5064D01*
X35859Y4496D01*
X35291Y3755D01*
X34934Y2894D01*
X34812Y1969D01*
X34934Y1044D01*
X35291Y182D01*
X35859Y-559D01*
X36599Y-1127D01*
X37461Y-1484D01*
X38386Y-1605D01*
X39311Y-1484D01*
X40173Y-1127D01*
X40913Y-559D01*
X41481Y182D01*
X41838Y1044D01*
X41960Y1969D01*
X41838Y2894D01*
X41481Y3755D01*
X40913Y4496D01*
X40173Y5064D01*
X39311Y5421D01*
X38386Y5542D01*
D02*
G37*
G36*
X233268Y5542D02*
X232343Y5421D01*
X231481Y5064D01*
X230741Y4496D01*
X230173Y3755D01*
X229816Y2894D01*
X229694Y1969D01*
X229816Y1044D01*
X230173Y182D01*
X230741Y-559D01*
X231481Y-1127D01*
X232343Y-1484D01*
X233268Y-1605D01*
X234193Y-1484D01*
X235055Y-1127D01*
X235795Y-559D01*
X236363Y182D01*
X236720Y1044D01*
X236842Y1969D01*
X236720Y2894D01*
X236363Y3755D01*
X235795Y4496D01*
X235055Y5064D01*
X234193Y5421D01*
X233268Y5542D01*
D02*
G37*
G36*
X215551D02*
X214626Y5421D01*
X213764Y5064D01*
X213024Y4496D01*
X212456Y3755D01*
X212099Y2894D01*
X211977Y1969D01*
X212099Y1044D01*
X212456Y182D01*
X213024Y-559D01*
X213764Y-1127D01*
X214626Y-1484D01*
X215551Y-1605D01*
X216476Y-1484D01*
X217338Y-1127D01*
X218078Y-559D01*
X218646Y182D01*
X219003Y1044D01*
X219125Y1969D01*
X219003Y2894D01*
X218646Y3755D01*
X218078Y4496D01*
X217338Y5064D01*
X216476Y5421D01*
X215551Y5542D01*
D02*
G37*
G36*
X295276Y7121D02*
X293886Y6984D01*
X292550Y6579D01*
X291319Y5921D01*
X290240Y5035D01*
X289355Y3956D01*
X288697Y2725D01*
X288292Y1389D01*
X288155Y0D01*
X288292Y-1389D01*
X288697Y-2725D01*
X289355Y-3956D01*
X290240Y-5035D01*
X291319Y-5921D01*
X292550Y-6579D01*
X293886Y-6984D01*
X295276Y-7121D01*
X296665Y-6984D01*
X298001Y-6579D01*
X299232Y-5921D01*
X300311Y-5035D01*
X301196Y-3956D01*
X301854Y-2725D01*
X302260Y-1389D01*
X302396Y0D01*
X302260Y1389D01*
X301854Y2725D01*
X301196Y3956D01*
X300311Y5035D01*
X299232Y5921D01*
X298001Y6579D01*
X296665Y6984D01*
X295276Y7121D01*
D02*
G37*
%LPD*%
G36*
X117407Y74829D02*
Y27672D01*
X116907Y27412D01*
X116752Y27521D01*
Y74639D01*
X117252Y74922D01*
X117407Y74829D01*
D02*
G37*
D15*
X100335Y60138D02*
X100394Y60197D01*
X90610Y60138D02*
X100335D01*
X106299Y57087D02*
Y62992D01*
X88583Y57087D02*
X98425D01*
X90551Y60197D02*
X90610Y60138D01*
X104527Y74064D02*
Y82677D01*
X103768Y69193D02*
Y73305D01*
X104527Y74064D01*
X115748Y25689D02*
Y78346D01*
X118110Y80709D02*
X129603D01*
X115748Y78346D02*
X118110Y80709D01*
Y76870D02*
X118410Y76570D01*
Y25891D02*
Y76570D01*
Y25891D02*
X118710Y25591D01*
X106299Y57087D02*
X112359Y51027D01*
X94488Y67087D02*
X102362Y74961D01*
X94488Y62303D02*
Y67087D01*
D56*
X39370Y55118D02*
X51181Y66929D01*
X39370Y49213D02*
Y55118D01*
X96176Y27559D02*
X112205D01*
X90551D02*
X96176D01*
X51181Y66929D02*
X90551Y27559D01*
D60*
X56102Y27559D02*
D03*
X38386D02*
D03*
X56102Y1969D02*
D03*
X38386D02*
D03*
X144685Y27559D02*
D03*
X126969D02*
D03*
X144685Y1969D02*
D03*
X126969D02*
D03*
X233268Y27559D02*
D03*
X215551D02*
D03*
X233268Y1969D02*
D03*
X215551D02*
D03*
D61*
X-984Y54961D02*
D03*
Y64961D02*
D03*
X-984Y74961D02*
D03*
X-984Y84961D02*
D03*
X-984Y44961D02*
D03*
D62*
X-984Y94961D02*
D03*
D63*
X295276Y157480D02*
D03*
Y0D02*
D03*
X96176Y27559D02*
D03*
X112205D02*
D03*
X51181Y66929D02*
D03*
D64*
X0Y157480D02*
D03*
Y0D02*
D03*
D65*
X62008Y43307D02*
D03*
Y50197D02*
D03*
X100394Y60197D02*
D03*
X106299Y62992D02*
D03*
X98425Y57087D02*
D03*
X88583D02*
D03*
X90551Y60197D02*
D03*
X133858Y140157D02*
D03*
X132677Y134646D02*
D03*
X109449Y18898D02*
D03*
X39370Y49213D02*
D03*
X104527Y82677D02*
D03*
X103768Y69193D02*
D03*
X129603Y80709D02*
D03*
X118110Y76870D02*
D03*
X115748Y25689D02*
D03*
X35433Y76870D02*
D03*
X66929Y31806D02*
D03*
X194882Y5906D02*
D03*
X183071D02*
D03*
X171260D02*
D03*
Y27657D02*
D03*
X183071D02*
D03*
X194882D02*
D03*
X154774Y31806D02*
D03*
X83799Y12615D02*
D03*
X114173Y7480D02*
D03*
X118710Y25591D02*
D03*
X112638Y51305D02*
D03*
X94488Y62303D02*
D03*
X102362Y74961D02*
D03*
X59039Y132047D02*
D03*
X198874Y99806D02*
D03*
X205011Y106816D02*
D03*
Y110123D02*
D03*
X201772Y106816D02*
D03*
X198874Y102953D02*
D03*
Y106816D02*
D03*
X208661D02*
D03*
Y110123D02*
D03*
X201772Y110236D02*
D03*
X198874Y110123D02*
D03*
X163386Y68758D02*
D03*
X129603Y66634D02*
D03*
X83745Y67778D02*
D03*
X36417Y70098D02*
D03*
X15748Y68693D02*
D03*
D66*
X256791Y79134D02*
D03*
X309941Y20079D02*
D03*
X268602Y102756D02*
D03*
X197736Y126378D02*
D03*
X298130Y114567D02*
D03*
X262697D02*
D03*
X250886Y138189D02*
D03*
X280413Y8268D02*
D03*
X239075Y138189D02*
D03*
X203642D02*
D03*
X262697D02*
D03*
X315846Y31890D02*
D03*
Y126378D02*
D03*
X227264Y114567D02*
D03*
X268602Y31890D02*
D03*
X309941Y114567D02*
D03*
X292224Y79134D02*
D03*
X244980Y150000D02*
D03*
X262697Y161811D02*
D03*
X315846Y79134D02*
D03*
X298130Y138189D02*
D03*
X274508Y-3543D02*
D03*
X315846Y8268D02*
D03*
X280413Y55512D02*
D03*
Y150000D02*
D03*
X274508Y161811D02*
D03*
X233169Y102756D02*
D03*
X274508Y114567D02*
D03*
X221358Y102756D02*
D03*
X239075Y161811D02*
D03*
X197736Y150000D02*
D03*
X185925Y126378D02*
D03*
X227264Y67323D02*
D03*
X262697Y20079D02*
D03*
X239075Y43701D02*
D03*
X304035Y55512D02*
D03*
X286319Y43701D02*
D03*
X209547Y55512D02*
D03*
X304035Y150000D02*
D03*
X180020Y161811D02*
D03*
X309941D02*
D03*
X250886Y43701D02*
D03*
X298130Y20079D02*
D03*
X304035Y31890D02*
D03*
X180020Y90945D02*
D03*
Y138189D02*
D03*
X298130Y43701D02*
D03*
X203642Y161811D02*
D03*
X262697Y-3543D02*
D03*
X304035Y126378D02*
D03*
X203642Y114567D02*
D03*
X315846Y102756D02*
D03*
X244980D02*
D03*
X304035Y79134D02*
D03*
X309941Y43701D02*
D03*
X304035Y8268D02*
D03*
X315846Y150000D02*
D03*
X292224Y126378D02*
D03*
X215453Y-3543D02*
D03*
X292224Y31890D02*
D03*
X215453Y161811D02*
D03*
X191831D02*
D03*
X185925Y150000D02*
D03*
X268602D02*
D03*
X233169Y126378D02*
D03*
X244980Y79134D02*
D03*
X250886Y161811D02*
D03*
X215453Y67323D02*
D03*
X268602Y8268D02*
D03*
X227264Y161811D02*
D03*
X262697Y43701D02*
D03*
X185925Y102756D02*
D03*
X215453Y138189D02*
D03*
X292224Y102756D02*
D03*
X286319Y67323D02*
D03*
X233169Y55512D02*
D03*
X191831Y90945D02*
D03*
X233169Y150000D02*
D03*
X298130Y67323D02*
D03*
X274508Y20079D02*
D03*
X227264Y138189D02*
D03*
X315846Y55512D02*
D03*
X185925Y79134D02*
D03*
X203642Y67323D02*
D03*
X286319Y161811D02*
D03*
X280413Y31890D02*
D03*
X239075Y67323D02*
D03*
X280413Y126378D02*
D03*
X239075Y114567D02*
D03*
X292224Y55512D02*
D03*
X244980D02*
D03*
X215453Y114567D02*
D03*
X274508Y43701D02*
D03*
X215453D02*
D03*
X221358Y55512D02*
D03*
X262697Y67323D02*
D03*
X268602Y126378D02*
D03*
Y55512D02*
D03*
X256791D02*
D03*
X309941Y-3543D02*
D03*
X215453Y20079D02*
D03*
X286319D02*
D03*
X221358Y8268D02*
D03*
X197736Y79134D02*
D03*
X286319Y138189D02*
D03*
X309941D02*
D03*
X209547Y79134D02*
D03*
X221358D02*
D03*
X268602D02*
D03*
X233169D02*
D03*
X209547Y126378D02*
D03*
X221358D02*
D03*
X250886Y67323D02*
D03*
X304035Y102756D02*
D03*
X221358Y150000D02*
D03*
X191831Y138189D02*
D03*
X180020Y114567D02*
D03*
X274508Y67323D02*
D03*
X280413Y79134D02*
D03*
X309941Y67323D02*
D03*
X280413Y102756D02*
D03*
X274508Y138189D02*
D03*
X209547Y150000D02*
D03*
X244980Y126378D02*
D03*
X286319Y114567D02*
D03*
X256791Y126378D02*
D03*
X250886Y114567D02*
D03*
X256791Y150000D02*
D03*
Y102756D02*
D03*
X191831Y114567D02*
D03*
M02*
