G04*
G04 #@! TF.GenerationSoftware,Altium Limited,Altium Designer,19.0.15 (446)*
G04*
G04 Layer_Color=32896*
%FSLAX25Y25*%
%MOIN*%
G70*
G01*
G75*
%ADD10C,0.01000*%
%ADD13C,0.00787*%
%ADD59R,1.53543X0.19685*%
D10*
X227559Y62990D02*
Y55118D01*
X223623D01*
X222311Y56430D01*
Y57742D01*
X223623Y59054D01*
X227559D01*
X223623D01*
X222311Y60366D01*
Y61678D01*
X223623Y62990D01*
X227559D01*
X219688Y61678D02*
X218376Y62990D01*
X215752D01*
X214440Y61678D01*
Y60366D01*
X215752Y59054D01*
X217064D01*
X215752D01*
X214440Y57742D01*
Y56430D01*
X215752Y55118D01*
X218376D01*
X219688Y56430D01*
X211816Y60366D02*
X210504D01*
Y59054D01*
X211816D01*
Y60366D01*
Y56430D02*
X210504D01*
Y55118D01*
X211816D01*
Y56430D01*
X228346Y86612D02*
Y78740D01*
X224411D01*
X223099Y80052D01*
Y81364D01*
X224411Y82676D01*
X228346D01*
X224411D01*
X223099Y83988D01*
Y85300D01*
X224411Y86612D01*
X228346D01*
X215227Y78740D02*
X220475D01*
X215227Y83988D01*
Y85300D01*
X216539Y86612D01*
X219163D01*
X220475Y85300D01*
X212603Y83988D02*
X211292D01*
Y82676D01*
X212603D01*
Y83988D01*
Y80052D02*
X211292D01*
Y78740D01*
X212603D01*
Y80052D01*
X227559Y110234D02*
Y102362D01*
X223623D01*
X222311Y103674D01*
Y104986D01*
X223623Y106298D01*
X227559D01*
X223623D01*
X222311Y107610D01*
Y108922D01*
X223623Y110234D01*
X227559D01*
X219688Y102362D02*
X217064D01*
X218376D01*
Y110234D01*
X219688Y108922D01*
X213128Y107610D02*
X211816D01*
Y106298D01*
X213128D01*
Y107610D01*
Y103674D02*
X211816D01*
Y102362D01*
X213128D01*
Y103674D01*
X228346Y36744D02*
X225723Y31496D01*
X223099Y36744D01*
X216539Y31496D02*
X219163D01*
X220475Y32808D01*
Y35432D01*
X219163Y36744D01*
X216539D01*
X215227Y35432D01*
Y34120D01*
X220475D01*
X212603Y36744D02*
Y31496D01*
Y34120D01*
X211292Y35432D01*
X209980Y36744D01*
X208668D01*
X204732D02*
X203420D01*
Y35432D01*
X204732D01*
Y36744D01*
Y32808D02*
X203420D01*
Y31496D01*
X204732D01*
Y32808D01*
X212337Y130315D02*
X214961Y132939D01*
Y135563D01*
X212337Y138186D01*
X208401Y132939D02*
Y139498D01*
Y131627D02*
Y130315D01*
X205777Y132939D02*
Y139498D01*
Y131627D02*
Y130315D01*
X203153Y132939D02*
Y139498D01*
Y131627D02*
Y130315D01*
X200530D02*
X197906Y132939D01*
Y135563D01*
X200530Y138186D01*
X188722D02*
X193970D01*
Y134251D01*
X191346D01*
X193970D01*
Y130315D01*
X180851Y138186D02*
X186099D01*
Y130315D01*
X180851D01*
X186099Y134251D02*
X183475D01*
X178227Y130315D02*
Y138186D01*
X174291D01*
X172979Y136874D01*
Y134251D01*
X174291Y132939D01*
X178227D01*
X175603D02*
X172979Y130315D01*
X170356D02*
Y138186D01*
X165108Y130315D01*
Y138186D01*
X159860Y130315D02*
X162484Y132939D01*
Y135563D01*
X159860Y138186D01*
X155925Y132939D02*
Y139498D01*
Y131627D02*
Y130315D01*
X153301Y132939D02*
Y139498D01*
Y131627D02*
Y130315D01*
X150677Y132939D02*
Y139498D01*
Y131627D02*
Y130315D01*
X148053D02*
X145429Y132939D01*
Y135563D01*
X148053Y138186D01*
X141494Y134251D02*
X136246D01*
X128374Y136874D02*
X129686Y138186D01*
X132310D01*
X133622Y136874D01*
Y135563D01*
X132310Y134251D01*
X129686D01*
X128374Y132939D01*
Y131627D01*
X129686Y130315D01*
X132310D01*
X133622Y131627D01*
X124439Y136874D02*
Y135563D01*
X125751D01*
X123127D01*
X124439D01*
Y131627D01*
X123127Y130315D01*
X115255D02*
X117879D01*
X119191Y131627D01*
Y134251D01*
X117879Y135563D01*
X115255D01*
X113943Y134251D01*
Y132939D01*
X119191D01*
X111320Y135563D02*
Y131627D01*
X110008Y130315D01*
X106072D01*
Y135563D01*
X99512Y130315D02*
X102136D01*
X103448Y131627D01*
Y134251D01*
X102136Y135563D01*
X99512D01*
X98200Y134251D01*
Y132939D01*
X103448D01*
X95577Y135563D02*
Y130315D01*
Y132939D01*
X94265Y134251D01*
X92953Y135563D01*
X91641D01*
X87705D02*
Y131627D01*
X86393Y130315D01*
X82458D01*
Y135563D01*
X79834Y130315D02*
Y135563D01*
X75898D01*
X74586Y134251D01*
Y130315D01*
X69338Y127691D02*
X68026D01*
X66715Y129003D01*
Y135563D01*
X70650D01*
X71962Y134251D01*
Y131627D01*
X70650Y130315D01*
X66715D01*
X194488Y146850D02*
Y154722D01*
X190552D01*
X189241Y153410D01*
Y150786D01*
X190552Y149474D01*
X194488D01*
X185305Y152098D02*
X182681D01*
X181369Y150786D01*
Y146850D01*
X185305D01*
X186617Y148162D01*
X185305Y149474D01*
X181369D01*
X178745Y144227D02*
Y152098D01*
X174810D01*
X173498Y150786D01*
Y148162D01*
X174810Y146850D01*
X178745D01*
X170874D02*
X168250D01*
X169562D01*
Y152098D01*
X170874D01*
X163002Y156034D02*
Y153410D01*
X164314Y152098D01*
X159066Y146850D02*
X155131D01*
X153819Y148162D01*
X155131Y149474D01*
X157755D01*
X159066Y150786D01*
X157755Y152098D01*
X153819D01*
X143324Y154722D02*
Y146850D01*
X139388D01*
X138076Y148162D01*
Y153410D01*
X139388Y154722D01*
X143324D01*
X134140Y146850D02*
X131516D01*
X130204Y148162D01*
Y150786D01*
X131516Y152098D01*
X134140D01*
X135452Y150786D01*
Y148162D01*
X134140Y146850D01*
X126269D02*
X123645D01*
X122333Y148162D01*
Y150786D01*
X123645Y152098D01*
X126269D01*
X127581Y150786D01*
Y148162D01*
X126269Y146850D01*
X119709Y152098D02*
Y146850D01*
Y149474D01*
X118397Y150786D01*
X117085Y152098D01*
X115773D01*
X106590Y153410D02*
X107902Y154722D01*
X110526D01*
X111838Y153410D01*
Y148162D01*
X110526Y146850D01*
X107902D01*
X106590Y148162D01*
X102654Y152098D02*
X100030D01*
X98719Y150786D01*
Y146850D01*
X102654D01*
X103966Y148162D01*
X102654Y149474D01*
X98719D01*
X96095Y152098D02*
Y146850D01*
Y149474D01*
X94783Y150786D01*
X93471Y152098D01*
X92159D01*
X82976Y154722D02*
Y146850D01*
X86911D01*
X88223Y148162D01*
Y150786D01*
X86911Y152098D01*
X82976D01*
D13*
X263124Y524D02*
X263780Y1180D01*
X265092D01*
X265748Y524D01*
Y-2100D01*
X265092Y-2756D01*
X263780D01*
X263124Y-2100D01*
Y-788D01*
X264436D01*
X261812Y-132D02*
Y-2756D01*
Y-1444D01*
X261156Y-788D01*
X260500Y-132D01*
X259844D01*
X257876D02*
Y-2100D01*
X257221Y-2756D01*
X255253D01*
Y-132D01*
X251973Y-2756D02*
X253285D01*
X253941Y-2100D01*
Y-788D01*
X253285Y-132D01*
X251973D01*
X251317Y-788D01*
Y-1444D01*
X253941D01*
X250005Y-2756D02*
Y-132D01*
X248037D01*
X247381Y-788D01*
Y-2756D01*
X242134Y1180D02*
Y-2756D01*
X240166D01*
X239510Y-2100D01*
Y-1444D01*
Y-788D01*
X240166Y-132D01*
X242134D01*
X238198Y-2756D02*
X236886D01*
X237542D01*
Y1180D01*
X238198D01*
X234918Y-2756D02*
X233606D01*
X234262D01*
Y-132D01*
X234918D01*
X231638Y-2756D02*
Y-132D01*
X229670D01*
X229014Y-788D01*
Y-2756D01*
X227703D02*
Y1180D01*
Y-1444D02*
X225735Y-132D01*
X227703Y-1444D02*
X225735Y-2756D01*
X221799D02*
X223111D01*
X223767Y-2100D01*
Y-788D01*
X223111Y-132D01*
X221799D01*
X221143Y-788D01*
Y-1444D01*
X223767D01*
X219831Y-2756D02*
Y-132D01*
X217863D01*
X217207Y-788D01*
Y-2756D01*
X213271Y1180D02*
Y-2756D01*
X215239D01*
X215895Y-2100D01*
Y-788D01*
X215239Y-132D01*
X213271D01*
X211960D02*
X211304D01*
Y-788D01*
X211960D01*
Y-132D01*
Y-2100D02*
X211304D01*
Y-2756D01*
X211960D01*
Y-2100D01*
X204744Y1180D02*
Y-1444D01*
X203432Y-2756D01*
X202120Y-1444D01*
Y1180D01*
X198840Y-2756D02*
X200152D01*
X200808Y-2100D01*
Y-788D01*
X200152Y-132D01*
X198840D01*
X198185Y-788D01*
Y-1444D01*
X200808D01*
X196873Y-132D02*
Y-2756D01*
Y-1444D01*
X196217Y-788D01*
X195561Y-132D01*
X194905D01*
X192937Y1180D02*
Y-2756D01*
X190969D01*
X190313Y-2100D01*
Y-1444D01*
Y-788D01*
X190969Y-132D01*
X192937D01*
X189001Y-2756D02*
X187689D01*
X188345D01*
Y-132D01*
X189001D01*
X185721Y-2756D02*
Y-132D01*
X183754D01*
X183098Y-788D01*
Y-2756D01*
X179162Y1180D02*
Y-2756D01*
X181130D01*
X181786Y-2100D01*
Y-788D01*
X181130Y-132D01*
X179162D01*
X177850D02*
Y-2100D01*
X177194Y-2756D01*
X175226D01*
Y-132D01*
X173914Y-2756D02*
Y-132D01*
X171946D01*
X171290Y-788D01*
Y-2756D01*
X168667Y-4068D02*
X168010D01*
X167355Y-3412D01*
Y-132D01*
X169322D01*
X169978Y-788D01*
Y-2100D01*
X169322Y-2756D01*
X167355D01*
X166043D02*
X164075D01*
X163419Y-2100D01*
X164075Y-1444D01*
X165387D01*
X166043Y-788D01*
X165387Y-132D01*
X163419D01*
X161451D02*
X160139D01*
X159483Y-788D01*
Y-2756D01*
X161451D01*
X162107Y-2100D01*
X161451Y-1444D01*
X159483D01*
X158171Y-132D02*
Y-2100D01*
X157515Y-2756D01*
X155547D01*
Y-132D01*
X153579Y-2756D02*
Y524D01*
Y-788D01*
X154235D01*
X152924D01*
X153579D01*
Y524D01*
X152924Y1180D01*
X150956D02*
Y-2756D01*
X148988D01*
X148332Y-2100D01*
Y-1444D01*
Y-788D01*
X148988Y-132D01*
X150956D01*
X146364D02*
X145052D01*
X144396Y-788D01*
Y-2756D01*
X146364D01*
X147020Y-2100D01*
X146364Y-1444D01*
X144396D01*
X143084Y-132D02*
Y-2100D01*
X142428Y-2756D01*
X140460D01*
Y-132D01*
X138493Y-3412D02*
X137837Y-2756D01*
Y-2100D01*
X138493D01*
Y-2756D01*
X137837D01*
X138493Y-3412D01*
X139148Y-4068D01*
X128653Y524D02*
X129309Y1180D01*
X130621D01*
X131277Y524D01*
Y-2100D01*
X130621Y-2756D01*
X129309D01*
X128653Y-2100D01*
Y-788D01*
X129965D01*
X127341Y-132D02*
Y-2756D01*
Y-1444D01*
X126685Y-788D01*
X126029Y-132D01*
X125373D01*
X123405D02*
Y-2100D01*
X122749Y-2756D01*
X120782D01*
Y-132D01*
X117502Y-2756D02*
X118814D01*
X119470Y-2100D01*
Y-788D01*
X118814Y-132D01*
X117502D01*
X116846Y-788D01*
Y-1444D01*
X119470D01*
X115534Y-2756D02*
Y-132D01*
X113566D01*
X112910Y-788D01*
Y-2756D01*
X107662D02*
X105695D01*
X105039Y-2100D01*
X105695Y-1444D01*
X107007D01*
X107662Y-788D01*
X107007Y-132D01*
X105039D01*
X101103D02*
X103071D01*
X103727Y-788D01*
Y-2100D01*
X103071Y-2756D01*
X101103D01*
X99791Y1180D02*
Y-2756D01*
Y-788D01*
X99135Y-132D01*
X97823D01*
X97167Y-788D01*
Y-2756D01*
X95855D02*
Y-132D01*
X93887D01*
X93231Y-788D01*
Y-2756D01*
X89952D02*
X91264D01*
X91919Y-2100D01*
Y-788D01*
X91264Y-132D01*
X89952D01*
X89296Y-788D01*
Y-1444D01*
X91919D01*
X87984Y-2756D02*
X86672D01*
X87328D01*
Y1180D01*
X87984D01*
X84704Y-2756D02*
X83392D01*
X84048D01*
Y1180D01*
X84704D01*
X81424Y-132D02*
X80768D01*
Y-788D01*
X81424D01*
Y-132D01*
Y-2100D02*
X80768D01*
Y-2756D01*
X81424D01*
Y-2100D01*
X74209Y1180D02*
X71585D01*
X72897D01*
Y-2756D01*
X69617D02*
X68305D01*
X67649Y-2100D01*
Y-788D01*
X68305Y-132D01*
X69617D01*
X70273Y-788D01*
Y-2100D01*
X69617Y-2756D01*
X66337Y-132D02*
Y-2756D01*
Y-1444D01*
X65681Y-788D01*
X65025Y-132D01*
X64369D01*
X57810Y-2756D02*
X56498D01*
X55842Y-2100D01*
Y-788D01*
X56498Y-132D01*
X57810D01*
X58466Y-788D01*
Y-2100D01*
X57810Y-2756D01*
X52562D02*
X53874D01*
X54530Y-2100D01*
Y-788D01*
X53874Y-132D01*
X52562D01*
X51906Y-788D01*
Y-1444D01*
X54530D01*
X49938Y-2756D02*
Y524D01*
Y-788D01*
X50594D01*
X49282D01*
X49938D01*
Y524D01*
X49282Y1180D01*
X46659Y-2756D02*
Y524D01*
Y-788D01*
X47315D01*
X46003D01*
X46659D01*
Y524D01*
X46003Y1180D01*
X44035Y-2756D02*
Y-132D01*
X42067D01*
X41411Y-788D01*
Y-2756D01*
X38131D02*
X39443D01*
X40099Y-2100D01*
Y-788D01*
X39443Y-132D01*
X38131D01*
X37475Y-788D01*
Y-1444D01*
X40099D01*
X35507Y524D02*
Y-132D01*
X36163D01*
X34851D01*
X35507D01*
Y-2100D01*
X34851Y-2756D01*
X265354Y4331D02*
Y8266D01*
X263387D01*
X262731Y7610D01*
Y6299D01*
X263387Y5643D01*
X265354D01*
X264042D02*
X262731Y4331D01*
X260763D02*
X259451D01*
X258795Y4987D01*
Y6299D01*
X259451Y6955D01*
X260763D01*
X261419Y6299D01*
Y4987D01*
X260763Y4331D01*
X256827Y7610D02*
Y6955D01*
X257483D01*
X256171D01*
X256827D01*
Y4987D01*
X256171Y4331D01*
X250267D02*
X248300D01*
X247643Y4987D01*
X248300Y5643D01*
X249611D01*
X250267Y6299D01*
X249611Y6955D01*
X247643D01*
X243708D02*
X245676D01*
X246332Y6299D01*
Y4987D01*
X245676Y4331D01*
X243708D01*
X242396Y8266D02*
Y4331D01*
Y6299D01*
X241740Y6955D01*
X240428D01*
X239772Y6299D01*
Y4331D01*
X238460D02*
Y6955D01*
X236492D01*
X235836Y6299D01*
Y4331D01*
X232557D02*
X233868D01*
X234524Y4987D01*
Y6299D01*
X233868Y6955D01*
X232557D01*
X231901Y6299D01*
Y5643D01*
X234524D01*
X230589Y4331D02*
X229277D01*
X229933D01*
Y8266D01*
X230589D01*
X227309Y4331D02*
X225997D01*
X226653D01*
Y8266D01*
X227309D01*
X224029Y6955D02*
X223373D01*
Y6299D01*
X224029D01*
Y6955D01*
Y4987D02*
X223373D01*
Y4331D01*
X224029D01*
Y4987D01*
X216813Y8266D02*
Y4331D01*
Y5643D01*
X214190Y8266D01*
X216158Y6299D01*
X214190Y4331D01*
X210910D02*
X212222D01*
X212878Y4987D01*
Y6299D01*
X212222Y6955D01*
X210910D01*
X210254Y6299D01*
Y5643D01*
X212878D01*
X208942Y4331D02*
X207630D01*
X208286D01*
Y6955D01*
X208942D01*
X205662Y4331D02*
Y6955D01*
X203694D01*
X203039Y6299D01*
Y4331D01*
X197791Y8266D02*
Y4331D01*
Y5643D01*
X195167Y8266D01*
X197135Y6299D01*
X195167Y4331D01*
X193199D02*
X191887D01*
X191231Y4987D01*
Y6299D01*
X191887Y6955D01*
X193199D01*
X193855Y6299D01*
Y4987D01*
X193199Y4331D01*
X189919D02*
Y6955D01*
X187952D01*
X187295Y6299D01*
Y4331D01*
X185328Y7610D02*
Y6955D01*
X185984D01*
X184672D01*
X185328D01*
Y4987D01*
X184672Y4331D01*
X182048Y6955D02*
X180736D01*
X180080Y6299D01*
Y4331D01*
X182048D01*
X182704Y4987D01*
X182048Y5643D01*
X180080D01*
X178768Y4331D02*
Y8266D01*
Y5643D02*
X176800Y6955D01*
X178768Y5643D02*
X176800Y4331D01*
X174176Y7610D02*
Y6955D01*
X174832D01*
X173520D01*
X174176D01*
Y4987D01*
X173520Y4331D01*
X167617Y6299D02*
X164993D01*
X159745Y4331D02*
Y8266D01*
X157778D01*
X157122Y7610D01*
Y6299D01*
X157778Y5643D01*
X159745D01*
X158433D02*
X157122Y4331D01*
X155154D02*
X153842D01*
X153186Y4987D01*
Y6299D01*
X153842Y6955D01*
X155154D01*
X155810Y6299D01*
Y4987D01*
X155154Y4331D01*
X151218Y7610D02*
Y6955D01*
X151874D01*
X150562D01*
X151218D01*
Y4987D01*
X150562Y4331D01*
X144658D02*
X143346D01*
X144002D01*
Y8266D01*
X144658D01*
X140723Y6955D02*
X139411D01*
X138755Y6299D01*
Y4331D01*
X140723D01*
X141378Y4987D01*
X140723Y5643D01*
X138755D01*
X137443Y4331D02*
Y6955D01*
X135475D01*
X134819Y6299D01*
Y4331D01*
X132195Y3019D02*
X131539D01*
X130883Y3675D01*
Y6955D01*
X132851D01*
X133507Y6299D01*
Y4987D01*
X132851Y4331D01*
X130883D01*
X129571D02*
X127603D01*
X126947Y4987D01*
X127603Y5643D01*
X128915D01*
X129571Y6299D01*
X128915Y6955D01*
X126947D01*
X124980D02*
X123668D01*
X123012Y6299D01*
Y4331D01*
X124980D01*
X125636Y4987D01*
X124980Y5643D01*
X123012D01*
X121700Y4331D02*
Y6955D01*
X121044D01*
X120388Y6299D01*
Y4331D01*
Y6299D01*
X119732Y6955D01*
X119076Y6299D01*
Y4331D01*
X117764Y6955D02*
X117108D01*
Y6299D01*
X117764D01*
Y6955D01*
Y4987D02*
X117108D01*
Y4331D01*
X117764D01*
Y4987D01*
X110549Y8266D02*
Y4331D01*
X108581D01*
X107925Y4987D01*
Y5643D01*
X108581Y6299D01*
X110549D01*
X108581D01*
X107925Y6955D01*
Y7610D01*
X108581Y8266D01*
X110549D01*
X105957Y6955D02*
X104645D01*
X103989Y6299D01*
Y4331D01*
X105957D01*
X106613Y4987D01*
X105957Y5643D01*
X103989D01*
X102021Y7610D02*
Y6955D01*
X102677D01*
X101365D01*
X102021D01*
Y4987D01*
X101365Y4331D01*
X98741Y7610D02*
Y6955D01*
X99397D01*
X98085D01*
X98741D01*
Y4987D01*
X98085Y4331D01*
X94150D02*
X95462D01*
X96118Y4987D01*
Y6299D01*
X95462Y6955D01*
X94150D01*
X93494Y6299D01*
Y5643D01*
X96118D01*
X92182Y6955D02*
Y4331D01*
Y5643D01*
X91526Y6299D01*
X90870Y6955D01*
X90214D01*
X88246Y4331D02*
X86934D01*
X87590D01*
Y6955D01*
X88246D01*
X82998Y4331D02*
X84310D01*
X84966Y4987D01*
Y6299D01*
X84310Y6955D01*
X82998D01*
X82342Y6299D01*
Y5643D01*
X84966D01*
X76439Y4331D02*
Y7610D01*
Y6299D01*
X77095D01*
X75783D01*
X76439D01*
Y7610D01*
X75783Y8266D01*
X73159Y6955D02*
X71847D01*
X71191Y6299D01*
Y4331D01*
X73159D01*
X73815Y4987D01*
X73159Y5643D01*
X71191D01*
X69879Y4331D02*
X67911D01*
X67256Y4987D01*
X67911Y5643D01*
X69223D01*
X69879Y6299D01*
X69223Y6955D01*
X67256D01*
X65288Y7610D02*
Y6955D01*
X65944D01*
X64632D01*
X65288D01*
Y4987D01*
X64632Y4331D01*
X58728D02*
X57416D01*
X58072D01*
Y8266D01*
X58728D01*
X53480Y4331D02*
X54792D01*
X55448Y4987D01*
Y6299D01*
X54792Y6955D01*
X53480D01*
X52824Y6299D01*
Y5643D01*
X55448D01*
X49545Y4331D02*
X50857D01*
X51512Y4987D01*
Y6299D01*
X50857Y6955D01*
X49545D01*
X48889Y6299D01*
Y5643D01*
X51512D01*
X47577Y6955D02*
Y4331D01*
Y5643D01*
X46921Y6299D01*
X46265Y6955D01*
X45609D01*
D59*
X120079Y33465D02*
D03*
Y57087D02*
D03*
Y80709D02*
D03*
Y104331D02*
D03*
M02*
